<?xml version="1.0" encoding="utf-8"?>
<!-- Generator: Adobe Illustrator 26.0.1, SVG Export Plug-In . SVG Version: 6.00 Build 0)  -->
<svg version="1.1" id="Слой_1" xmlns="http://www.w3.org/2000/svg" xmlns:xlink="http://www.w3.org/1999/xlink" x="0px" y="0px"
	 viewBox="0 0 90.23 83.29" style="enable-background:new 0 0 90.23 83.29;" xml:space="preserve">
<style type="text/css">
	.st0{fill:#868686;}
	.st1{fill:#020203;}
	.st2{fill:#FFFFFF;}
</style>
<g>
	<g>
		<path class="st0" d="M214.91,12.52l-12.15,40.37c-1.57,5.23,1.42,10.79,6.64,12.36l40.37,12.15c5.22,1.57,10.79-1.42,12.36-6.64
			l12.15-40.37c1.57-5.22-1.42-10.79-6.64-12.36L227.27,5.88C222.05,4.31,216.49,7.29,214.91,12.52z"/>
		<path class="st1" d="M203.14,28.54l9.41,41.1c1.22,5.32,6.57,8.67,11.88,7.46l41.1-9.41c5.32-1.22,8.67-6.57,7.46-11.88
			l-9.41-41.1c-1.22-5.32-6.57-8.67-11.88-7.46l-41.1,9.41C205.28,17.87,201.92,23.22,203.14,28.54z"/>
		<g>
			<path class="st2" d="M226.09,7.43c0.16,0,0.29,0.03,0.4-0.01c0.12-0.04,0.24-0.14,0.33-0.24c0.03-0.03-0.03-0.2-0.05-0.2
				c-0.33-0.02-0.51-0.28-0.76-0.44c-0.02-0.01-0.07,0.01-0.11,0.01c-0.02,0.14-0.04,0.27-0.07,0.43c0.04,0.06,0.08,0.12,0.13,0.19
				C226,7.26,226.03,7.33,226.09,7.43z"/>
			<path class="st2" d="M272.74,28.36c-0.11-0.27,0.2-0.13,0.22-0.27c-0.09-0.06-0.2-0.11-0.29-0.19c-0.23-0.2-0.22-0.21-0.52-0.03
				c0.1,0.18,0.18,0.34,0.28,0.49C272.49,28.48,272.77,28.44,272.74,28.36z"/>
			<path class="st2" d="M210.61,41.98c0.23-0.02,0.4-0.03,0.59-0.05c0.03-0.2,0.3-0.35,0.08-0.63
				C211.02,41.48,210.59,41.43,210.61,41.98z"/>
			<path class="st2" d="M223.34,16.41c-0.07-0.12-0.15-0.25-0.23-0.39c-0.24,0.08-0.35,0.22-0.39,0.47
				c0.11,0.03,0.22,0.07,0.34,0.09C223.18,16.61,223.29,16.57,223.34,16.41z"/>
			<path class="st2" d="M244.28,72.27c0.21,0,0.34-0.1,0.37-0.34c-0.24,0-0.48,0-0.78,0C243.93,72.23,244.09,72.28,244.28,72.27z"/>
			<path class="st2" d="M211.71,51.61c0.13-0.12,0.23-0.22,0.37-0.35c-0.13-0.08-0.22-0.14-0.33-0.21c-0.1,0.12-0.19,0.22-0.29,0.33
				C211.55,51.46,211.62,51.52,211.71,51.61z"/>
			<path class="st2" d="M208.82,41.13c0.08,0.01,0.16,0.01,0.23,0c0.02,0,0.04-0.06,0.08-0.12c-0.12-0.09-0.24-0.18-0.38-0.29
				C208.52,41.08,208.52,41.08,208.82,41.13z"/>
			<path class="st2" d="M231.77,22.98c0,0.07,0.02,0.15,0.03,0.22c0.26,0,0.32-0.16,0.35-0.39
				C231.8,22.72,231.78,22.73,231.77,22.98z"/>
			<path class="st2" d="M256.88,11.46c-0.19-0.12-0.35-0.1-0.49-0.05c-0.06,0.02-0.12,0.1-0.15,0.16c-0.01,0.04,0.03,0.13,0.07,0.15
				c0.07,0.03,0.17,0.04,0.23,0.01C256.65,11.66,256.75,11.56,256.88,11.46z"/>
			<path class="st2" d="M217.38,63.76c-0.02-0.02-0.07-0.01-0.11-0.01c-0.12,0.14-0.01,0.26,0.06,0.36c0.07,0.1,0.16,0.08,0.33-0.07
				C217.56,63.95,217.47,63.85,217.38,63.76z"/>
			<path class="st2" d="M210.77,48.13c0.12-0.18,0.21-0.31,0.35-0.53c-0.16,0.03-0.25,0.02-0.29,0.06c-0.08,0.07-0.16,0.17-0.2,0.27
				C210.61,47.96,210.7,48.03,210.77,48.13z"/>
			<path class="st2" d="M257.97,9.94c0,0.16-0.02,0.27,0,0.38c0.01,0.04,0.08,0.1,0.12,0.11c0.04,0,0.09-0.06,0.12-0.1
				c0.04-0.07,0.06-0.14,0.09-0.24C258.19,10.03,258.11,10,257.97,9.94z"/>
			<path class="st2" d="M256.94,11.79c-0.04-0.03-0.12-0.04-0.16-0.02c-0.11,0.06-0.1,0.16-0.06,0.26c0.02,0.05,0.06,0.1,0.13,0.2
				c0.08-0.09,0.12-0.13,0.15-0.18C257.06,11.94,257.02,11.85,256.94,11.79z"/>
			<path class="st2" d="M209.01,25.79c-0.04-0.05-0.14-0.07-0.21-0.06c-0.1,0.01-0.18,0.09-0.17,0.2c0.01,0.07,0.05,0.14,0.1,0.25
				c0.11-0.08,0.16-0.11,0.2-0.15C209.01,25.97,209.1,25.89,209.01,25.79z"/>
			<path class="st2" d="M206.12,55.22c0,0.04-0.01,0.08-0.01,0.15c0.12,0,0.25,0.03,0.36-0.01c0.11-0.03,0.21,0.2,0.32-0.04
				c-0.07-0.04-0.14-0.03-0.22-0.04c-0.14-0.03-0.27-0.07-0.41-0.1C206.15,55.18,206.14,55.21,206.12,55.22z"/>
			<path class="st2" d="M251.57,29.78c-0.09,0.06-0.07,0.12,0.01,0.18c0.12-0.04,0.25-0.08,0.43-0.14
				C251.76,29.64,251.76,29.64,251.57,29.78z"/>
			<path class="st2" d="M250.24,52.12c0.17,0.12,0.34,0.25,0.61,0.11C250.63,52.05,250.44,52.08,250.24,52.12z"/>
			<path class="st2" d="M242.91,24.45c-0.04-0.08-0.14-0.12-0.22-0.2c-0.05,0.08-0.1,0.13-0.1,0.18c-0.01,0.12,0.08,0.18,0.19,0.17
				C242.87,24.6,242.94,24.53,242.91,24.45z"/>
			<path class="st2" d="M246.37,21.94c-0.11,0.07-0.15,0.18,0,0.32c0.09-0.04,0.2-0.08,0.37-0.15
				C246.59,21.96,246.5,21.86,246.37,21.94z"/>
			<path class="st2" d="M203.14,51.19c0.11,0,0.22-0.11,0.17-0.18c-0.04-0.06-0.11-0.09-0.19-0.14c-0.07,0.06-0.14,0.1-0.17,0.16
				C202.91,51.1,203.03,51.2,203.14,51.19z"/>
			<path class="st2" d="M240.9,11.95c0.08-0.04,0.17-0.09,0.28-0.16c-0.07-0.06-0.11-0.12-0.16-0.12c-0.11,0-0.19,0.07-0.18,0.19
				C240.85,11.9,240.9,11.96,240.9,11.95z"/>
			<path class="st2" d="M214.22,59.63c-0.13-0.12-0.28-0.14-0.52-0.17C213.88,59.68,214.04,59.66,214.22,59.63z"/>
			<path class="st2" d="M254.99,17.02c-0.07,0.01-0.12,0.06-0.19,0.1c0.03,0.04,0.05,0.12,0.08,0.12c0.06,0,0.13-0.03,0.24-0.06
				C255.06,17.09,255.02,17.01,254.99,17.02z"/>
			<path class="st2" d="M253.49,12.82c0.12,0,0.08-0.1,0.08-0.18c0-0.04-0.02-0.08-0.03-0.12c-0.05,0-0.15-0.02-0.16,0
				c-0.03,0.06-0.04,0.14-0.02,0.21C253.37,12.78,253.44,12.83,253.49,12.82z"/>
			<path class="st2" d="M221.2,8.77c-0.05,0-0.11,0.04-0.16,0.05c0,0.03,0,0.06,0.01,0.06c0.06,0.04,0.12,0.09,0.18,0.1
				c0.03,0.01,0.1-0.06,0.12-0.1C221.37,8.78,221.27,8.77,221.2,8.77z"/>
			<path class="st2" d="M239.14,28.02c0.15,0.12,0.29,0.08,0.51-0.06C239.32,27.92,239.32,27.92,239.14,28.02z"/>
			<path class="st2" d="M209.02,45.88c-0.03-0.06-0.08-0.12-0.12-0.18c-0.04,0.04-0.11,0.1-0.1,0.12c0.02,0.06,0.08,0.11,0.13,0.17
				C208.97,45.93,209.02,45.89,209.02,45.88z"/>
			<path class="st2" d="M226.4,59.07c-0.04,0.01-0.1,0.02-0.1,0.04c-0.01,0.07-0.01,0.14,0,0.21c0,0.02,0.07,0.03,0.1,0.04
				c0.02-0.03,0.06-0.06,0.06-0.09C226.45,59.21,226.42,59.14,226.4,59.07z"/>
			<path class="st2" d="M208.94,40.56c0.04-0.05,0.08-0.1,0.12-0.15c-0.04-0.05-0.06-0.08-0.08-0.11c-0.05,0.05-0.1,0.1-0.15,0.14
				C208.86,40.49,208.9,40.53,208.94,40.56z"/>
			<path class="st2" d="M238.76,32.5c-0.1-0.04-0.19-0.02-0.23,0.08c-0.01,0.02,0.02,0.09,0.03,0.09c0.08,0,0.16-0.02,0.25-0.03
				C238.78,32.56,238.78,32.51,238.76,32.5z"/>
			<path class="st2" d="M257.23,11.11c0.04,0.01,0.08-0.04,0.15-0.08c-0.07-0.09-0.13-0.16-0.18-0.23c-0.04,0.03-0.1,0.06-0.11,0.1
				C257.08,11,257.12,11.09,257.23,11.11z"/>
			<path class="st2" d="M251.7,14.54c0.01-0.03,0.04-0.07,0.03-0.1c-0.02-0.08-0.05-0.16-0.16-0.14c-0.02,0-0.04,0.07-0.03,0.1
				C251.57,14.47,251.59,14.57,251.7,14.54z"/>
			<path class="st2" d="M211.34,39.14c0.03,0.02,0.13-0.03,0.14-0.06c0.02-0.1-0.02-0.19-0.13-0.23c-0.02-0.01-0.04-0.01-0.06-0.01
				c-0.01,0.02-0.02,0.03-0.03,0.05C211.21,39,211.25,39.09,211.34,39.14z"/>
			<path class="st2" d="M219.6,28.7c0.06-0.08,0.12-0.13,0.11-0.15c-0.02-0.05-0.07-0.1-0.12-0.11c-0.04-0.01-0.1,0.04-0.14,0.06
				C219.5,28.56,219.54,28.62,219.6,28.7z"/>
			<path class="st2" d="M243.41,31.27c-0.04,0.03-0.07,0.05-0.1,0.08c0.03,0.04,0.06,0.09,0.1,0.1c0.03,0.01,0.07-0.05,0.11-0.08
				C243.49,31.33,243.45,31.3,243.41,31.27z"/>
			<path class="st2" d="M239.12,34.05c0.02,0,0.03-0.02,0.08-0.05c-0.04-0.04-0.04-0.07-0.06-0.07c-0.09-0.02-0.17-0.13-0.26-0.02
				c-0.01,0.01-0.01,0.04-0.01,0.06C238.92,34.09,239.02,34.07,239.12,34.05z"/>
			<path class="st2" d="M238,41.21c0.02,0.04,0.05,0.1,0.09,0.11c0.04,0.01,0.09-0.03,0.19-0.07c-0.1-0.06-0.16-0.1-0.22-0.12
				C238.05,41.12,237.99,41.19,238,41.21z"/>
			<path class="st2" d="M237.44,52.75c-0.26-0.06-0.26-0.06-0.44,0.01C237.15,52.83,237.3,52.86,237.44,52.75z"/>
			<path class="st2" d="M202.23,54.62c-0.12-0.03-0.19-0.07-0.25-0.06c-0.03,0-0.05,0.09-0.07,0.15c0.05,0.02,0.11,0.06,0.16,0.06
				C202.1,54.76,202.14,54.7,202.23,54.62z"/>
			<path class="st2" d="M247.83,54.86c-0.06-0.04-0.1-0.09-0.14-0.09c-0.05,0-0.1,0.03-0.15,0.05c0.05,0.05,0.09,0.11,0.14,0.14
				C247.7,54.97,247.76,54.91,247.83,54.86z"/>
			<path class="st2" d="M222.93,67.82c0.01-0.01-0.03-0.06-0.06-0.11c-0.05,0.04-0.09,0.07-0.13,0.11
				c-0.01,0.01,0.04,0.06,0.06,0.09C222.84,67.88,222.89,67.86,222.93,67.82z"/>
			<path class="st2" d="M243.43,72.25c0.02,0,0.05-0.08,0.04-0.1c-0.03-0.04-0.07-0.1-0.12-0.11c-0.05-0.01-0.11,0.02-0.18,0.03
				c0.04,0.06,0.05,0.13,0.09,0.16C243.31,72.26,243.38,72.26,243.43,72.25z"/>
			<path class="st2" d="M251.2,72.68c0.18,0.12,0.26,0.17,0.35,0.23C251.53,72.7,251.53,72.7,251.2,72.68z"/>
			<path class="st2" d="M239.61,35.97c0.04,0.01,0.08,0.04,0.11,0.03c0.04-0.01,0.08-0.05,0.12-0.08c-0.04-0.03-0.08-0.06-0.14-0.1
				C239.66,35.88,239.63,35.92,239.61,35.97z"/>
			<path class="st2" d="M246.41,11.92c0.02,0.01,0.06-0.01,0.1-0.01c-0.02-0.04-0.04-0.09-0.06-0.13c-0.04,0.02-0.07,0.04-0.1,0.05
				C246.37,11.86,246.39,11.91,246.41,11.92z"/>
			<path class="st2" d="M219.83,11.72c-0.04,0.02-0.09,0.03-0.13,0.05c0.02,0.03,0.04,0.06,0.05,0.08c0.04-0.01,0.07-0.02,0.11-0.03
				C219.85,11.78,219.84,11.75,219.83,11.72z"/>
			<path class="st2" d="M204.14,37.65c0.05-0.01,0.09-0.04,0.14-0.06c-0.03-0.05-0.04-0.08-0.06-0.11
				c-0.04,0.03-0.09,0.05-0.13,0.09C204.08,37.57,204.13,37.66,204.14,37.65z"/>
			<path class="st2" d="M244.3,33.04c0.01-0.03,0.04-0.08,0.03-0.1c-0.01-0.03-0.06-0.04-0.09-0.06c-0.01,0.03-0.04,0.08-0.03,0.1
				C244.22,33.02,244.27,33.03,244.3,33.04z"/>
			<path class="st2" d="M263.66,30.92c0.03,0.01,0.07,0.01,0.11,0.01c-0.02-0.03-0.04-0.06-0.06-0.08
				c-0.01-0.01-0.05,0.01-0.07,0.02C263.64,30.89,263.65,30.92,263.66,30.92z"/>
			<path class="st2" d="M242.27,13.18c0.05-0.01,0.08-0.05,0.16-0.1c-0.08-0.05-0.12-0.07-0.17-0.1c-0.02,0.04-0.06,0.09-0.07,0.13
				C242.18,13.13,242.24,13.18,242.27,13.18z"/>
			<path class="st2" d="M242.78,12.22c-0.01,0.04,0.04,0.08,0.07,0.13c0.04-0.03,0.09-0.06,0.16-0.11
				c-0.05-0.05-0.09-0.11-0.12-0.11C242.85,12.13,242.79,12.18,242.78,12.22z"/>
			<path class="st2" d="M207.03,21.81c0.02-0.01,0.05-0.01,0.05-0.02c0.02-0.07,0.04-0.14,0.06-0.21c-0.05,0-0.1-0.01-0.15-0.01
				c0,0.07,0,0.14,0,0.21C206.99,21.79,207.02,21.8,207.03,21.81z"/>
			<path class="st2" d="M211.57,20.58c-0.07-0.04-0.12-0.09-0.15-0.08c-0.04,0.01-0.07,0.07-0.1,0.11c0.04,0.03,0.08,0.08,0.12,0.08
				C211.47,20.69,211.51,20.63,211.57,20.58z"/>
			<path class="st2" d="M233.97,63.13c0.04-0.06,0.09-0.11,0.08-0.14c-0.01-0.04-0.08-0.09-0.11-0.08
				c-0.04,0.01-0.09,0.07-0.09,0.11C233.84,63.05,233.91,63.08,233.97,63.13z"/>
			<path class="st2" d="M221.64,69.78c-0.03,0.02-0.04,0.09-0.06,0.13c0.03,0.01,0.07,0.04,0.1,0.03c0.04-0.02,0.07-0.06,0.14-0.11
				C221.74,69.8,221.68,69.76,221.64,69.78z"/>
			<path class="st2" d="M208.54,59.03c-0.12,0.07-0.12,0.16,0,0.36C208.54,59.19,208.54,59.12,208.54,59.03z"/>
			<path class="st2" d="M249.55,27.52c-0.01-0.02-0.03-0.06-0.04-0.07c-0.05,0-0.1,0.01-0.23,0.02c0.12,0.04,0.17,0.06,0.22,0.07
				C249.52,27.54,249.53,27.53,249.55,27.52z"/>
			<path class="st2" d="M209.11,45.2c0.01-0.01,0.03-0.03,0.03-0.04c-0.02-0.04-0.04-0.08-0.06-0.13c-0.02,0.02-0.05,0.04-0.09,0.07
				C209.02,45.14,209.06,45.17,209.11,45.2z"/>
			<path class="st2" d="M236.32,48.45c-0.01-0.02-0.01-0.05-0.02-0.05c-0.03,0-0.07,0-0.1,0c0,0.02,0.01,0.05,0.01,0.05
				C236.25,48.46,236.28,48.46,236.32,48.45z"/>
			<path class="st2" d="M258.12,19.86c-0.02,0.01-0.05,0.06-0.04,0.09c0.01,0.02,0.06,0.03,0.09,0.04c0.02-0.03,0.03-0.07,0.05-0.1
				C258.18,19.88,258.14,19.85,258.12,19.86z"/>
			<path class="st2" d="M216.86,42.85c0.05,0,0.11-0.01,0.16-0.02c0-0.02-0.01-0.04-0.01-0.06c-0.06,0.01-0.12,0.03-0.19,0.04
				C216.84,42.82,216.85,42.85,216.86,42.85z"/>
			<path class="st2" d="M208.36,42.23c0.01,0.02,0.02,0.03,0.02,0.05c0.02,0,0.04,0.01,0.05,0c0.01-0.01,0-0.03,0-0.05
				C208.41,42.23,208.39,42.23,208.36,42.23z"/>
			<path class="st2" d="M226.12,51.17c0-0.02,0-0.03,0-0.05c-0.07,0-0.14,0-0.2,0c0,0.02,0,0.03,0,0.05
				C225.98,51.17,226.05,51.17,226.12,51.17z"/>
			<path class="st2" d="M204.36,56.14c-0.02-0.02-0.04-0.04-0.06-0.06c-0.02,0.02-0.04,0.05-0.06,0.07
				c0.01,0.01,0.03,0.03,0.04,0.03C204.3,56.18,204.33,56.16,204.36,56.14z"/>
			<path class="st2" d="M211.79,60.08c0.04,0.01,0.08,0.03,0.12,0.04c0.01,0,0.02-0.05,0.04-0.08c-0.03-0.01-0.07-0.04-0.09-0.03
				C211.83,60.01,211.81,60.05,211.79,60.08z"/>
			<polygon class="st2" points="211.27,62.71 211.3,62.73 211.3,62.69 			"/>
			<path class="st2" d="M216.73,63.02c0.01,0.03,0.03,0.06,0.04,0.09c0.03-0.01,0.07-0.02,0.1-0.03c-0.01-0.03-0.02-0.07-0.04-0.08
				C216.8,62.99,216.76,63.01,216.73,63.02z"/>
			<path class="st2" d="M210.12,41.28c0.03,0.03,0.08,0.05,0.13,0.08c0.01-0.05,0.04-0.1,0.03-0.11c-0.04-0.03-0.09-0.05-0.13-0.07
				C210.13,41.22,210.1,41.27,210.12,41.28z"/>
			<path class="st2" d="M206.57,54.36c-0.01,0.03-0.01,0.07-0.02,0.1c0.03-0.01,0.06-0.01,0.09-0.02c-0.01-0.03-0.02-0.07-0.02-0.1
				C206.61,54.34,206.58,54.35,206.57,54.36z"/>
			<path class="st2" d="M226.12,67.16c-0.03,0-0.08,0.01-0.1,0.04c-0.01,0.02,0.01,0.06,0.02,0.1c0.05-0.02,0.09-0.04,0.14-0.07
				C226.16,67.2,226.14,67.16,226.12,67.16z"/>
			<path class="st2" d="M214.64,67.73c-0.03,0.02-0.06,0.05-0.08,0.07c0.03,0.02,0.06,0.06,0.09,0.06c0.03,0,0.06-0.04,0.09-0.06
				C214.7,67.78,214.67,67.76,214.64,67.73z"/>
			<path class="st2" d="M236.66,67.88c0.01,0.03,0.02,0.06,0.04,0.08c0.02-0.02,0.04-0.05,0.07-0.07c-0.02-0.02-0.05-0.04-0.07-0.05
				C236.69,67.84,236.66,67.87,236.66,67.88z"/>
			<path class="st2" d="M242.63,68.68c-0.01-0.02-0.03-0.05-0.04-0.07c-0.03,0.01-0.06,0.03-0.09,0.04
				c0.01,0.01,0.02,0.04,0.03,0.04C242.56,68.69,242.6,68.69,242.63,68.68z"/>
			<path class="st2" d="M232.09,70.72c0,0.03,0.06,0.06,0.09,0.09c0.02-0.05,0.05-0.09,0.07-0.14c-0.03-0.03-0.06-0.05-0.08-0.08
				C232.14,70.64,232.1,70.68,232.09,70.72z"/>
			<path class="st2" d="M246.39,26.52c-0.02-0.03-0.04-0.07-0.07-0.09c-0.02-0.01-0.06,0-0.09,0c0.02,0.04,0.03,0.09,0.06,0.11
				C246.31,26.57,246.36,26.54,246.39,26.52z"/>
			<path class="st2" d="M264.79,16.45c0.03,0.04,0.08,0.06,0.12,0.08c0.01,0,0.04-0.03,0.04-0.04c-0.01-0.05-0.02-0.1-0.04-0.14
				c-0.02-0.02-0.07-0.01-0.11-0.02l0,0.01C264.79,16.38,264.77,16.43,264.79,16.45z"/>
			<path class="st2" d="M252.28,72.68c-0.03,0-0.07,0-0.1,0c0,0.01,0,0.03,0,0.04c0.03,0,0.07,0,0.1,0
				C252.28,72.72,252.28,72.7,252.28,72.68z"/>
			<path class="st2" d="M212.56,41.12c0.02-0.02,0.04-0.04,0.09-0.08c-0.05-0.02-0.09-0.05-0.14-0.06c-0.01,0-0.03,0.02-0.05,0.03
				C212.49,41.05,212.52,41.08,212.56,41.12z"/>
			<path class="st2" d="M244.73,39.97c-0.03,0-0.07,0-0.1,0.01c0.01,0.02,0.03,0.04,0.04,0.06c0.03-0.01,0.06-0.02,0.1-0.03
				C244.75,39.99,244.74,39.97,244.73,39.97z"/>
			<path class="st2" d="M240.38,20.9c0.03,0.02,0.05,0.04,0.08,0.07c0.01-0.01,0.03-0.03,0.03-0.03c-0.02-0.02-0.05-0.04-0.07-0.06
				C240.41,20.87,240.39,20.89,240.38,20.9z"/>
			<path class="st2" d="M240.3,32.38c-0.03-0.01-0.07-0.01-0.1-0.02c0,0.02,0.01,0.05,0.01,0.07c0.03-0.01,0.07-0.01,0.1-0.02
				C240.31,32.4,240.31,32.38,240.3,32.38z"/>
			<path class="st2" d="M239.75,22.3c0.01-0.01,0.04-0.02,0.04-0.03c0.01-0.02,0-0.04,0-0.06c-0.02,0.01-0.05,0.03-0.07,0.04
				C239.73,22.26,239.74,22.28,239.75,22.3z"/>
			<path class="st2" d="M240.43,22.37c0.01,0,0.01-0.02,0.02-0.04c-0.02-0.01-0.03-0.02-0.05-0.02c-0.01,0-0.01,0.02-0.02,0.04
				C240.39,22.37,240.41,22.38,240.43,22.37z"/>
			<path class="st2" d="M217.38,45.28c0.02,0,0.03-0.01,0.05-0.01c0-0.01-0.01-0.02-0.01-0.04c-0.02,0-0.03,0.01-0.05,0.01
				C217.37,45.26,217.37,45.28,217.38,45.28z"/>
			<polygon class="st2" points="215.55,49.7 215.55,49.66 215.51,49.68 			"/>
			<polygon class="st2" points="214.18,50.21 214.16,50.18 214.14,50.21 			"/>
			<path class="st2" d="M216.41,18.29c-0.01-0.01-0.03-0.01-0.04-0.02c-0.01,0.01-0.04,0.02-0.04,0.03c0,0.01,0.01,0.03,0.02,0.04
				C216.37,18.32,216.39,18.31,216.41,18.29z"/>
			<path class="st2" d="M209.82,43.61c0,0.02-0.01,0.03-0.01,0.05c0,0,0.03,0.01,0.04,0.01c0-0.02,0.01-0.03,0.01-0.05
				C209.86,43.61,209.84,43.61,209.82,43.61z"/>
			<path class="st2" d="M225.19,52.69c-0.03,0.01-0.06,0.03-0.09,0.04c0.01,0.01,0.03,0.04,0.03,0.04c0.03-0.01,0.06-0.02,0.09-0.04
				C225.21,52.72,225.2,52.69,225.19,52.69z"/>
			<polygon class="st2" points="211.6,58.18 211.57,58.18 211.58,58.22 			"/>
			<path class="st2" d="M210.09,45.33c-0.01,0-0.03,0.02-0.04,0.02c0.02,0.02,0.03,0.04,0.05,0.06c0.01-0.02,0.01-0.03,0.02-0.05
				C210.11,45.36,210.1,45.34,210.09,45.33z"/>
			<path class="st2" d="M212.02,60.98c0.02-0.01,0.03-0.01,0.05-0.02c0-0.01,0-0.04-0.01-0.04c-0.01-0.01-0.03-0.01-0.05-0.01
				C212.01,60.94,212.02,60.96,212.02,60.98z"/>
			<path class="st2" d="M217.52,60.99c0.03-0.02,0.06-0.03,0.1-0.05c-0.01-0.02-0.02-0.04-0.04-0.04c-0.03,0-0.07,0.01-0.1,0.02
				C217.49,60.94,217.5,60.96,217.52,60.99z"/>
			<polygon class="st2" points="220.87,61.29 220.9,61.3 220.9,61.26 			"/>
			<polygon class="st2" points="232.11,23.43 232.07,23.45 232.11,23.46 			"/>
			<path class="st2" d="M264.66,16.35c0.05,0,0.09-0.01,0.14-0.01c0,0,0-0.01,0-0.01C264.75,16.34,264.71,16.35,264.66,16.35z"/>
			<path class="st2" d="M240.48,26.57c0.01,0,0.03-0.01,0.04-0.01c0-0.02-0.01-0.03-0.01-0.05
				C240.5,26.53,240.49,26.55,240.48,26.57z"/>
			<path class="st2" d="M222.42,15.33c-0.02,0-0.03,0.01-0.05,0.02c0.01,0.01,0.03,0.02,0.04,0.03c0.02-0.01,0.03-0.01,0.05-0.02
				C222.45,15.35,222.43,15.33,222.42,15.33z"/>
			<path class="st2" d="M220.63,26.64c-0.01-0.01-0.03-0.04-0.04-0.04c-0.03,0.01-0.06,0.03-0.09,0.04
				c0.01,0.01,0.03,0.04,0.04,0.04C220.57,26.67,220.6,26.65,220.63,26.64z"/>
			<path class="st2" d="M245.28,27.09c-0.04,0.02-0.07,0.03-0.1,0.05c0.01,0.01,0.03,0.04,0.04,0.03c0.03-0.01,0.06-0.03,0.1-0.04
				C245.3,27.12,245.29,27.1,245.28,27.09z"/>
			<polygon class="st2" points="219.18,63.42 219.23,63.41 219.19,63.38 			"/>
			<path class="st2" d="M228.07,63.4c0.02,0.02,0.04,0.05,0.07,0.05c0.02,0,0.04-0.04,0.06-0.06c-0.03-0.01-0.06-0.02-0.1-0.03
				C228.09,63.36,228.07,63.4,228.07,63.4z"/>
			<path class="st2" d="M223.03,13.26c0.01,0.01,0.02,0.03,0.03,0.04c0.02-0.02,0.05-0.03,0.07-0.05c-0.02-0.01-0.03-0.01-0.05-0.02
				C223.06,13.25,223.05,13.26,223.03,13.26z"/>
			<path class="st2" d="M206.71,51.38c-0.02-0.01-0.03-0.01-0.05-0.01c-0.01,0-0.01,0.02-0.02,0.03c0.02,0.01,0.03,0.01,0.05,0.01
				C206.7,51.41,206.7,51.39,206.71,51.38z"/>
			<path class="st2" d="M235.85,12.56c-0.01,0.01-0.03,0.03-0.03,0.04c0,0.02,0.01,0.03,0.02,0.05c0.01-0.01,0.02-0.03,0.03-0.04
				C235.86,12.59,235.85,12.57,235.85,12.56z"/>
			<polygon class="st2" points="243.54,27.92 243.58,27.93 243.57,27.88 			"/>
			<path class="st2" d="M239.86,12.21c0,0.02,0.01,0.03,0.01,0.05c0.01,0,0.02-0.01,0.04-0.01c0-0.02-0.01-0.03-0.01-0.05
				C239.89,12.2,239.87,12.2,239.86,12.21z"/>
			<path class="st2" d="M211.29,64.29c0,0,0.03-0.02,0.04-0.03c-0.01-0.01-0.02-0.04-0.03-0.04c-0.02,0-0.04,0-0.05,0.01
				C211.26,64.25,211.27,64.27,211.29,64.29z"/>
			<path class="st2" d="M222.41,66.36c0.02,0,0.03-0.01,0.05-0.02c-0.01-0.01-0.03-0.03-0.04-0.03c-0.02,0-0.03,0.01-0.05,0.02
				C222.38,66.34,222.39,66.36,222.41,66.36z"/>
			<path class="st2" d="M257.77,9.77c-0.01,0.03-0.03,0.06-0.04,0.1c0,0.01,0.03,0.02,0.04,0.03c0.01-0.03,0.03-0.06,0.04-0.1"/>
			<path class="st2" d="M211.26,47.61c-0.02,0.02-0.06,0.05-0.05,0.07c0,0.03,0.04,0.05,0.06,0.07c0.01-0.03,0.03-0.07,0.03-0.1
				C211.3,47.64,211.27,47.62,211.26,47.61z"/>
			<path class="st2" d="M246.32,24.18c-0.02-0.01-0.03-0.01-0.05-0.02c0,0.01-0.01,0.03-0.01,0.04c0.02,0,0.03,0.01,0.05,0.01
				C246.31,24.21,246.31,24.19,246.32,24.18z"/>
			<path class="st2" d="M232.03,67.91c-0.04-0.01-0.07-0.04-0.1-0.03c-0.02,0-0.04,0.04-0.05,0.07c0.03,0.01,0.06,0.03,0.09,0.03
				C232,67.97,232.01,67.94,232.03,67.91z"/>
			<polygon class="st2" points="233.01,29.09 232.98,29.07 232.97,29.1 			"/>
			<path class="st2" d="M207.07,55.97c0.02,0,0.03,0,0.04,0c0.01-0.01,0.01-0.03,0.01-0.04c-0.01-0.01-0.03-0.01-0.04-0.02
				C207.08,55.92,207.07,55.95,207.07,55.97z"/>
			<path class="st2" d="M207.13,57.79c0.01-0.02,0.01-0.03,0.02-0.05c-0.01-0.01-0.02-0.04-0.03-0.04c-0.01,0-0.03,0.02-0.04,0.03
				C207.1,57.75,207.12,57.77,207.13,57.79z"/>
			<path class="st2" d="M250,21.24c0,0.02,0.01,0.03,0.01,0.05c0.02-0.01,0.05-0.03,0.07-0.04c-0.01-0.01-0.03-0.03-0.04-0.03
				C250.03,21.21,250.01,21.23,250,21.24z"/>
			<polygon class="st2" points="217.51,70.37 217.5,70.4 217.55,70.39 			"/>
			<path class="st2" d="M215.28,20.27c-0.01-0.02-0.02-0.04-0.03-0.04c-0.03,0-0.07,0.02-0.1,0.03c0.01,0.01,0.03,0.04,0.04,0.04
				C215.21,20.29,215.25,20.28,215.28,20.27z"/>
			<path class="st2" d="M241.63,20.87c0.01,0.01,0.03,0.04,0.04,0.04c0.03-0.01,0.07-0.02,0.1-0.04c-0.01-0.01-0.03-0.04-0.04-0.04
				C241.69,20.83,241.66,20.85,241.63,20.87z"/>
			<path class="st2" d="M211.8,31.81c0.02,0,0.04,0,0.05-0.01c0.01-0.01,0.01-0.03,0.01-0.04c-0.02-0.01-0.03-0.02-0.05-0.02
				C211.81,31.76,211.8,31.78,211.8,31.81z"/>
			<path class="st2" d="M245.27,72.96c-0.04-0.01-0.06-0.01-0.08-0.02c0,0.01,0.01,0.03,0.01,0.03
				C245.22,72.98,245.23,72.97,245.27,72.96z"/>
			<polygon class="st2" points="215.79,34.22 215.79,34.25 215.83,34.24 			"/>
			<path class="st2" d="M233.18,35.18c0-0.02-0.01-0.03-0.02-0.05c-0.01,0.01-0.03,0.03-0.03,0.04c0,0.01,0.01,0.03,0.02,0.05
				C233.16,35.21,233.18,35.2,233.18,35.18z"/>
			<polygon class="st2" points="242.78,35.81 242.74,35.82 242.77,35.84 			"/>
			<path class="st2" d="M214.38,40.12c0,0.01-0.01,0.03-0.01,0.04c0.02-0.01,0.03-0.02,0.05-0.03
				C214.41,40.13,214.4,40.12,214.38,40.12z"/>
			<path class="st2" d="M220.12,40.62c-0.01-0.01-0.03-0.04-0.03-0.04c-0.03,0.01-0.05,0.03-0.08,0.04
				c0.03,0.01,0.05,0.03,0.08,0.04C220.09,40.66,220.11,40.63,220.12,40.62z"/>
		</g>
		<g>
			<path class="st2" d="M255.35,73.05c0.13,0.16,0.29,0.35,0.47,0.4c0.17,0.05,0.38-0.07,0.62-0.12c-0.23-0.3-0.42-0.55-0.65-0.84
				c-0.14,0.08-0.3,0.15-0.41,0.26C255.32,72.8,255.3,72.99,255.35,73.05z"/>
			<path class="st2" d="M258.38,43.68c0,0.01,0.01,0.01,0.01,0.02c0,0,0-0.01,0.01-0.01c0,0.01-0.01,0.01-0.01,0.01
				c0.01,0,0.02,0,0.03,0c0-0.01-0.01-0.01-0.01-0.02l0,0C258.4,43.68,258.39,43.68,258.38,43.68z"/>
			<path class="st2" d="M261.67,23.62c0.28-0.05,0.55-0.09,0.82-0.14c-0.15-0.23-0.29-0.46-0.44-0.71
				C261.64,22.97,261.47,23.19,261.67,23.62z"/>
			<path class="st2" d="M265.72,61.18c-0.36-0.3-0.6-0.05-0.91,0.24c0.31,0.14,0.57,0.26,0.83,0.38
				C265.83,61.3,265.84,61.28,265.72,61.18z"/>
			<path class="st2" d="M254.15,60.72c0.7-0.36,0.7-0.36,0.48-0.84C254.24,59.98,254.15,60.28,254.15,60.72z"/>
			<path class="st2" d="M255.66,75c-0.14-0.22-0.32-0.26-0.49-0.13c-0.1,0.07-0.13,0.23-0.19,0.35c0.13,0.03,0.28,0.11,0.38,0.07
				C255.49,75.25,255.57,75.1,255.66,75z"/>
			<path class="st2" d="M268.93,58.01c0.29-0.07,0.54-0.12,0.89-0.2C269.07,57.6,269.07,57.6,268.93,58.01z"/>
			<path class="st2" d="M204.17,48.09c-0.34-0.39-0.34-0.39-0.87-0.35C203.77,48.36,203.77,48.36,204.17,48.09z"/>
			<path class="st2" d="M261.48,64.43c-0.08-0.03-0.24,0.09-0.32,0.19c-0.05,0.06-0.02,0.19-0.03,0.49c0.21-0.21,0.3-0.27,0.34-0.35
				C261.53,64.65,261.7,64.51,261.48,64.43z"/>
			<path class="st2" d="M273.42,29.6c-0.42,0.14-0.42,0.14-0.29,0.71C273.7,30.25,273.24,29.83,273.42,29.6z"/>
			<path class="st2" d="M249.9,75.16c0.02,0.04,0.04,0.07,0.06,0.11c0.17-0.04,0.35-0.06,0.5-0.13c0.06-0.03,0.08-0.16,0.11-0.24
				c-0.06-0.02-0.15-0.09-0.19-0.06C250.21,74.93,250.06,75.05,249.9,75.16z"/>
			<path class="st2" d="M259.93,58.26c-0.13,0.01-0.26,0.08-0.4,0.13c0,0.07,0,0.13,0.01,0.2c0.13,0.02,0.26,0.05,0.39,0.06
				c0.15,0,0.31-0.03,0.25-0.23C260.15,58.33,260.02,58.25,259.93,58.26z"/>
			<path class="st2" d="M258.66,60.62c0.05-0.03,0.1-0.04,0.11-0.07c0.04-0.1,0.1-0.21,0.08-0.29c-0.05-0.16-0.39-0.24-0.46-0.12
				c-0.04,0.07-0.02,0.21,0.02,0.29C258.47,60.51,258.58,60.56,258.66,60.62z"/>
			<path class="st2" d="M259.15,43.59c-0.29,0.04-0.51,0.08-0.73,0.11C258.68,44.12,258.69,44.11,259.15,43.59z"/>
			<path class="st2" d="M272.4,36.1c0,0.05,0.07,0.1,0.11,0.16c0.06-0.07,0.14-0.13,0.18-0.22c0.01-0.03-0.07-0.1-0.23-0.3
				C272.43,35.91,272.4,36.01,272.4,36.1z"/>
			<path class="st2" d="M240.23,45.7c-0.06-0.01-0.16-0.05-0.18-0.02c-0.06,0.06-0.09,0.16-0.14,0.24c0.06,0.01,0.12,0.03,0.2,0.04
				C240.15,45.87,240.19,45.78,240.23,45.7z"/>
			<path class="st2" d="M263.53,48.79c0.41,0.19,0.41,0.19,0.66-0.15C263.96,48.69,263.78,48.73,263.53,48.79z"/>
			<path class="st2" d="M272.11,38.27c-0.01-0.04-0.15-0.05-0.23-0.08c-0.02,0.09-0.05,0.19-0.05,0.28c0,0.02,0.12,0.04,0.21,0.06
				C272.07,38.44,272.13,38.35,272.11,38.27z"/>
			<path class="st2" d="M207.12,57.57c0.24,0.18,0.41,0.09,0.58-0.13C207.43,57.29,207.26,57.37,207.12,57.57z"/>
			<path class="st2" d="M259.21,46.26c-0.25,0.1-0.38,0.12-0.48,0.19c-0.04,0.03-0.04,0.13-0.05,0.19c0.09,0.01,0.2,0.04,0.25,0.01
				C259.01,46.59,259.05,46.48,259.21,46.26z"/>
			<path class="st2" d="M256.09,47.66c0.03,0.07,0.09,0.18,0.14,0.18c0.08,0,0.16-0.07,0.29-0.14c-0.13-0.07-0.21-0.14-0.3-0.16
				C256.19,47.54,256.08,47.64,256.09,47.66z"/>
			<path class="st2" d="M208.69,61.81c0.1,0.07,0.2,0.14,0.34,0.24c0.08-0.16,0.17-0.25,0.17-0.34c-0.02-0.22-0.2-0.17-0.33-0.12
				C208.79,61.62,208.75,61.74,208.69,61.81z"/>
			<path class="st2" d="M263.39,47.41c-0.12,0.04-0.24,0.09-0.37,0.13c0.03,0.06,0.09,0.17,0.09,0.17c0.11-0.05,0.22-0.11,0.33-0.16
				C263.43,47.5,263.41,47.46,263.39,47.41z"/>
			<path class="st2" d="M204.85,38.89c-0.02,0.14,0.21,0.34,0.35,0.3c0.04-0.01,0.05-0.11,0.11-0.22c-0.11-0.06-0.21-0.13-0.33-0.18
				C204.95,38.78,204.86,38.85,204.85,38.89z"/>
			<path class="st2" d="M264.12,56.02c0.08-0.04,0.14-0.14,0.2-0.21c-0.09-0.03-0.17-0.06-0.31-0.11c-0.04,0.11-0.07,0.19-0.1,0.27
				C263.99,55.99,264.08,56.04,264.12,56.02z"/>
			<path class="st2" d="M265.73,55.98c0.21-0.05,0.37-0.08,0.52-0.12C266.06,55.76,265.87,55.69,265.73,55.98z"/>
			<path class="st2" d="M270.27,42.37c0.07,0,0.14,0.03,0.19,0c0.04-0.02,0.05-0.11,0.08-0.17c-0.06,0-0.14-0.03-0.18-0.01
				C270.32,42.23,270.3,42.31,270.27,42.37z"/>
			<path class="st2" d="M253.02,47.33c-0.03-0.01-0.07-0.05-0.09-0.04c-0.04,0.02-0.06,0.06-0.09,0.1c0.03,0,0.06,0,0.1,0
				C252.97,47.37,253,47.35,253.02,47.33z"/>
			<path class="st2" d="M265.54,45.71c-0.1-0.01-0.18-0.04-0.21-0.01c-0.05,0.04-0.08,0.12-0.09,0.18c0,0.01,0.13,0.08,0.14,0.07
				C265.44,45.89,265.48,45.81,265.54,45.71z"/>
			<path class="st2" d="M247.59,51.33c0.03-0.01,0.05-0.03,0.08-0.04c0-0.04,0.01-0.07,0.01-0.11c-0.04,0.02-0.09,0.03-0.12,0.05
				C247.55,51.24,247.58,51.3,247.59,51.33z"/>
			<path class="st2" d="M258.75,55.17c-0.13,0.01-0.23,0.01-0.33,0.02c-0.02,0-0.03,0.06-0.05,0.09c0.09,0.02,0.18,0.05,0.27,0.04
				C258.67,55.32,258.7,55.24,258.75,55.17z"/>
			<path class="st2" d="M260.02,59.64c-0.11,0.04-0.21,0.09-0.31,0.13c0.02,0.04,0.03,0.08,0.05,0.12c0.11-0.04,0.22-0.08,0.33-0.13
				C260.07,59.73,260.03,59.64,260.02,59.64z"/>
			<path class="st2" d="M248.07,63.36c-0.04-0.05-0.08-0.12-0.13-0.14c-0.03-0.01-0.1,0.05-0.15,0.08c0.05,0.06,0.1,0.13,0.15,0.19
				C247.99,63.44,248.03,63.4,248.07,63.36z"/>
			<path class="st2" d="M265.23,62.71c-0.06-0.01-0.13-0.01-0.19-0.02c-0.02,0.02-0.05,0.05-0.07,0.07
				c0.05,0.03,0.11,0.08,0.16,0.07C265.16,62.83,265.19,62.76,265.23,62.71z"/>
			<path class="st2" d="M251.88,45.61c-0.05-0.07-0.11-0.17-0.12-0.17c-0.08,0.04-0.17,0.09-0.23,0.16
				c-0.01,0.01,0.07,0.11,0.1,0.17C251.72,45.72,251.8,45.67,251.88,45.61z"/>
			<path class="st2" d="M249.44,66.36c0,0.03-0.01,0.05-0.01,0.08c0.02-0.02,0.05-0.04,0.07-0.07
				C249.48,66.37,249.46,66.37,249.44,66.36z"/>
			<path class="st2" d="M258.09,63.82c0.03,0.03,0.06,0.07,0.1,0.09c0.01,0,0.04-0.04,0.07-0.07c-0.02-0.02-0.04-0.05-0.07-0.05
				C258.15,63.79,258.12,63.81,258.09,63.82z"/>
			<path class="st2" d="M256.25,61.37c0.05-0.01,0.08-0.08,0.11-0.12c-0.06-0.01-0.12-0.02-0.18-0.02c-0.02,0-0.04,0.05-0.06,0.07
				C256.16,61.33,256.22,61.38,256.25,61.37z"/>
			<path class="st2" d="M244.1,59.36c0,0.05,0.01,0.11,0.02,0.16c0.05-0.02,0.09-0.04,0.14-0.06c-0.03-0.05-0.07-0.1-0.1-0.15
				C244.14,59.32,244.1,59.34,244.1,59.36z"/>
			<path class="st2" d="M248.01,58.21c-0.02,0.03-0.06,0.06-0.05,0.08c0.02,0.05,0.06,0.09,0.09,0.13c0.03-0.04,0.06-0.08,0.09-0.12
				C248.1,58.27,248.06,58.24,248.01,58.21z"/>
			<path class="st2" d="M266.85,50.09c-0.03,0.01-0.05,0.03-0.08,0.04c0.01,0.02,0.03,0.06,0.04,0.06c0.03,0,0.05-0.02,0.08-0.03
				C266.87,50.14,266.86,50.12,266.85,50.09z"/>
			<polygon class="st2" points="262.05,49.89 262.12,49.84 262.04,49.83 			"/>
			<path class="st2" d="M260.07,47.08c0.04,0.01,0.08,0.01,0.12,0.02c-0.01-0.02-0.03-0.04-0.04-0.06
				C260.12,47.05,260.09,47.06,260.07,47.08z"/>
			<polygon class="st2" points="242.89,50.79 242.79,50.78 242.81,50.85 			"/>
			<path class="st2" d="M256.7,46.69c0.01,0.02,0.02,0.06,0.03,0.06c0.03,0.01,0.06,0,0.09,0c-0.02-0.03-0.03-0.07-0.05-0.1
				C256.75,46.66,256.73,46.68,256.7,46.69z"/>
			<path class="st2" d="M256.01,44.87c-0.02-0.04-0.04-0.07-0.05-0.11c-0.03,0.02-0.05,0.04-0.08,0.05
				c0.01,0.02,0.02,0.05,0.04,0.06C255.95,44.89,255.98,44.88,256.01,44.87z"/>
			<polygon class="st2" points="256.77,42.6 256.85,42.56 256.76,42.53 			"/>
			<path class="st2" d="M260.38,40.12c0.06,0.01,0.13,0.03,0.19,0.03c0.02,0,0.04-0.05,0.06-0.08c-0.07-0.01-0.13-0.03-0.2-0.04"/>
		</g>
	</g>
</g>
<g>
	<rect x="218" y="33.67" class="st2" width="8.7" height="27.56"/>
	<path class="st2" d="M222.35,22.06c-2.61,0-4.35,1.55-4.35,3.58c0,2.03,1.74,3.67,4.35,3.67c2.73,0,4.35-1.64,4.35-3.67
		C226.6,23.62,224.96,22.06,222.35,22.06z"/>
	<path class="st2" d="M248.18,33.67c-5.63,0-8.43,3.71-8.43,3.71v-3.71h-8.7v27.56h8.7c0,0,0-13.18,0-14.5
		c0-2.87,1.45-5.86,4.96-5.86h0.12c3.63,0.06,5.08,2.96,5.08,5.86c0,1.07,0,14.5,0,14.5h8.7V45.65
		C258.61,37.63,253.94,33.67,248.18,33.67z"/>
</g>
<g>
	<g>
		<path class="st0" d="M117.63,12.52l-12.15,40.37c-1.57,5.23,1.42,10.79,6.64,12.36l40.37,12.15c5.22,1.57,10.79-1.42,12.36-6.64
			l12.15-40.37c1.57-5.22-1.42-10.79-6.64-12.36L129.99,5.88C124.77,4.31,119.21,7.29,117.63,12.52z"/>
		<path class="st1" d="M105.86,28.54l9.41,41.1c1.22,5.32,6.57,8.67,11.88,7.46l41.1-9.41c5.32-1.22,8.67-6.57,7.46-11.88
			l-9.41-41.1c-1.22-5.32-6.57-8.67-11.88-7.46l-41.1,9.41C108,17.87,104.64,23.22,105.86,28.54z"/>
		<g>
			<path class="st2" d="M128.81,7.43c0.16,0,0.29,0.03,0.4-0.01c0.12-0.04,0.24-0.14,0.33-0.24c0.03-0.03-0.03-0.2-0.05-0.2
				c-0.33-0.02-0.51-0.28-0.76-0.44c-0.02-0.01-0.07,0.01-0.11,0.01c-0.02,0.14-0.04,0.27-0.07,0.43c0.04,0.06,0.08,0.12,0.13,0.19
				C128.71,7.26,128.75,7.33,128.81,7.43z"/>
			<path class="st2" d="M175.45,28.36c-0.11-0.27,0.2-0.13,0.22-0.27c-0.09-0.06-0.2-0.11-0.29-0.19c-0.23-0.2-0.22-0.21-0.52-0.03
				c0.1,0.18,0.18,0.34,0.28,0.49C175.21,28.48,175.49,28.44,175.45,28.36z"/>
			<path class="st2" d="M113.33,41.98c0.23-0.02,0.4-0.03,0.59-0.05c0.03-0.2,0.3-0.35,0.08-0.63
				C113.74,41.48,113.31,41.43,113.33,41.98z"/>
			<path class="st2" d="M126.05,16.41c-0.07-0.12-0.15-0.25-0.23-0.39c-0.24,0.08-0.35,0.22-0.39,0.47
				c0.11,0.03,0.22,0.07,0.34,0.09C125.9,16.61,126.01,16.57,126.05,16.41z"/>
			<path class="st2" d="M147,72.27c0.21,0,0.34-0.1,0.37-0.34c-0.24,0-0.48,0-0.78,0C146.65,72.23,146.81,72.28,147,72.27z"/>
			<path class="st2" d="M114.43,51.61c0.13-0.12,0.23-0.22,0.37-0.35c-0.13-0.08-0.22-0.14-0.33-0.21c-0.1,0.12-0.19,0.22-0.29,0.33
				C114.27,51.46,114.34,51.52,114.43,51.61z"/>
			<path class="st2" d="M111.54,41.13c0.08,0.01,0.16,0.01,0.23,0c0.02,0,0.04-0.06,0.08-0.12c-0.12-0.09-0.24-0.18-0.38-0.29
				C111.23,41.08,111.23,41.08,111.54,41.13z"/>
			<path class="st2" d="M134.49,22.98c0,0.07,0.02,0.15,0.03,0.22c0.26,0,0.32-0.16,0.35-0.39
				C134.52,22.72,134.5,22.73,134.49,22.98z"/>
			<path class="st2" d="M159.6,11.46c-0.19-0.12-0.35-0.1-0.49-0.05c-0.06,0.02-0.12,0.1-0.15,0.16c-0.01,0.04,0.03,0.13,0.07,0.15
				c0.07,0.03,0.17,0.04,0.23,0.01C159.37,11.66,159.47,11.56,159.6,11.46z"/>
			<path class="st2" d="M120.09,63.76c-0.02-0.02-0.07-0.01-0.11-0.01c-0.12,0.14-0.01,0.26,0.06,0.36c0.07,0.1,0.16,0.08,0.33-0.07
				C120.28,63.95,120.19,63.85,120.09,63.76z"/>
			<path class="st2" d="M113.49,48.13c0.12-0.18,0.21-0.31,0.35-0.53c-0.16,0.03-0.25,0.02-0.29,0.06c-0.08,0.07-0.16,0.17-0.2,0.27
				C113.33,47.96,113.42,48.03,113.49,48.13z"/>
			<path class="st2" d="M160.69,9.94c0,0.16-0.02,0.27,0,0.38c0.01,0.04,0.08,0.1,0.12,0.11c0.04,0,0.09-0.06,0.12-0.1
				c0.04-0.07,0.06-0.14,0.09-0.24C160.91,10.03,160.82,10,160.69,9.94z"/>
			<path class="st2" d="M159.66,11.79c-0.04-0.03-0.12-0.04-0.16-0.02c-0.11,0.06-0.1,0.16-0.06,0.26c0.02,0.05,0.06,0.1,0.13,0.2
				c0.08-0.09,0.12-0.13,0.15-0.18C159.78,11.94,159.74,11.85,159.66,11.79z"/>
			<path class="st2" d="M111.73,25.79c-0.04-0.05-0.14-0.07-0.21-0.06c-0.1,0.01-0.18,0.09-0.17,0.2c0.01,0.07,0.05,0.14,0.1,0.25
				c0.11-0.08,0.16-0.11,0.2-0.15C111.73,25.97,111.82,25.89,111.73,25.79z"/>
			<path class="st2" d="M108.84,55.22c0,0.04-0.01,0.08-0.01,0.15c0.12,0,0.25,0.03,0.36-0.01c0.11-0.03,0.21,0.2,0.32-0.04
				c-0.07-0.04-0.14-0.03-0.22-0.04c-0.14-0.03-0.27-0.07-0.41-0.1C108.87,55.18,108.85,55.21,108.84,55.22z"/>
			<path class="st2" d="M154.29,29.78c-0.09,0.06-0.07,0.12,0.01,0.18c0.12-0.04,0.25-0.08,0.43-0.14
				C154.48,29.64,154.48,29.64,154.29,29.78z"/>
			<path class="st2" d="M152.95,52.12c0.17,0.12,0.34,0.25,0.61,0.11C153.35,52.05,153.15,52.08,152.95,52.12z"/>
			<path class="st2" d="M145.62,24.45c-0.04-0.08-0.14-0.12-0.22-0.2c-0.05,0.08-0.1,0.13-0.1,0.18c-0.01,0.12,0.08,0.18,0.19,0.17
				C145.58,24.6,145.66,24.53,145.62,24.45z"/>
			<path class="st2" d="M149.08,21.94c-0.11,0.07-0.15,0.18,0,0.32c0.09-0.04,0.2-0.08,0.37-0.15
				C149.3,21.96,149.21,21.86,149.08,21.94z"/>
			<path class="st2" d="M105.86,51.19c0.11,0,0.22-0.11,0.17-0.18c-0.04-0.06-0.11-0.09-0.19-0.14c-0.07,0.06-0.14,0.1-0.17,0.16
				C105.63,51.1,105.75,51.2,105.86,51.19z"/>
			<path class="st2" d="M143.62,11.95c0.08-0.04,0.17-0.09,0.28-0.16c-0.07-0.06-0.11-0.12-0.16-0.12c-0.11,0-0.19,0.07-0.18,0.19
				C143.56,11.9,143.61,11.96,143.62,11.95z"/>
			<path class="st2" d="M116.93,59.63c-0.13-0.12-0.28-0.14-0.52-0.17C116.59,59.68,116.76,59.66,116.93,59.63z"/>
			<path class="st2" d="M157.71,17.02c-0.07,0.01-0.12,0.06-0.19,0.1c0.03,0.04,0.05,0.12,0.08,0.12c0.06,0,0.13-0.03,0.24-0.06
				C157.78,17.09,157.73,17.01,157.71,17.02z"/>
			<path class="st2" d="M156.2,12.82c0.12,0,0.08-0.1,0.08-0.18c0-0.04-0.02-0.08-0.03-0.12c-0.05,0-0.15-0.02-0.16,0
				c-0.03,0.06-0.04,0.14-0.02,0.21C156.08,12.78,156.16,12.83,156.2,12.82z"/>
			<path class="st2" d="M123.91,8.77c-0.05,0-0.11,0.04-0.16,0.05c0,0.03,0,0.06,0.01,0.06c0.06,0.04,0.12,0.09,0.18,0.1
				c0.03,0.01,0.1-0.06,0.12-0.1C124.09,8.78,123.99,8.77,123.91,8.77z"/>
			<path class="st2" d="M141.86,28.02c0.15,0.12,0.29,0.08,0.51-0.06C142.04,27.92,142.04,27.92,141.86,28.02z"/>
			<path class="st2" d="M111.73,45.88c-0.03-0.06-0.08-0.12-0.12-0.18c-0.04,0.04-0.11,0.1-0.1,0.12c0.02,0.06,0.08,0.11,0.13,0.17
				C111.69,45.93,111.74,45.89,111.73,45.88z"/>
			<path class="st2" d="M129.11,59.07c-0.04,0.01-0.1,0.02-0.1,0.04c-0.01,0.07-0.01,0.14,0,0.21c0,0.02,0.07,0.03,0.1,0.04
				c0.02-0.03,0.06-0.06,0.06-0.09C129.16,59.21,129.14,59.14,129.11,59.07z"/>
			<path class="st2" d="M111.66,40.56c0.04-0.05,0.08-0.1,0.12-0.15c-0.04-0.05-0.06-0.08-0.08-0.11c-0.05,0.05-0.1,0.1-0.15,0.14
				C111.58,40.49,111.62,40.53,111.66,40.56z"/>
			<path class="st2" d="M141.48,32.5c-0.1-0.04-0.19-0.02-0.23,0.08c-0.01,0.02,0.02,0.09,0.03,0.09c0.08,0,0.16-0.02,0.25-0.03
				C141.5,32.56,141.5,32.51,141.48,32.5z"/>
			<path class="st2" d="M159.95,11.11c0.04,0.01,0.08-0.04,0.15-0.08c-0.07-0.09-0.13-0.16-0.18-0.23c-0.04,0.03-0.1,0.06-0.11,0.1
				C159.8,11,159.84,11.09,159.95,11.11z"/>
			<path class="st2" d="M154.42,14.54c0.01-0.03,0.04-0.07,0.03-0.1c-0.02-0.08-0.05-0.16-0.16-0.14c-0.02,0-0.04,0.07-0.03,0.1
				C154.29,14.47,154.31,14.57,154.42,14.54z"/>
			<path class="st2" d="M114.05,39.14c0.03,0.02,0.13-0.03,0.14-0.06c0.02-0.1-0.02-0.19-0.13-0.23c-0.02-0.01-0.04-0.01-0.06-0.01
				c-0.01,0.02-0.02,0.03-0.03,0.05C113.93,39,113.97,39.09,114.05,39.14z"/>
			<path class="st2" d="M122.32,28.7c0.06-0.08,0.12-0.13,0.11-0.15c-0.02-0.05-0.07-0.1-0.12-0.11c-0.04-0.01-0.1,0.04-0.14,0.06
				C122.21,28.56,122.26,28.62,122.32,28.7z"/>
			<path class="st2" d="M146.13,31.27c-0.04,0.03-0.07,0.05-0.1,0.08c0.03,0.04,0.06,0.09,0.1,0.1c0.03,0.01,0.07-0.05,0.11-0.08
				C146.2,31.33,146.16,31.3,146.13,31.27z"/>
			<path class="st2" d="M141.83,34.05c0.02,0,0.03-0.02,0.08-0.05c-0.04-0.04-0.04-0.07-0.06-0.07c-0.09-0.02-0.17-0.13-0.26-0.02
				c-0.01,0.01-0.01,0.04-0.01,0.06C141.63,34.09,141.74,34.07,141.83,34.05z"/>
			<path class="st2" d="M140.71,41.21c0.02,0.04,0.05,0.1,0.09,0.11c0.04,0.01,0.09-0.03,0.19-0.07c-0.1-0.06-0.16-0.1-0.22-0.12
				C140.76,41.12,140.71,41.19,140.71,41.21z"/>
			<path class="st2" d="M140.16,52.75c-0.26-0.06-0.26-0.06-0.44,0.01C139.87,52.83,140.01,52.86,140.16,52.75z"/>
			<path class="st2" d="M104.95,54.62c-0.12-0.03-0.19-0.07-0.25-0.06c-0.03,0-0.05,0.09-0.07,0.15c0.05,0.02,0.11,0.06,0.16,0.06
				C104.82,54.76,104.86,54.7,104.95,54.62z"/>
			<path class="st2" d="M150.55,54.86c-0.06-0.04-0.1-0.09-0.14-0.09c-0.05,0-0.1,0.03-0.15,0.05c0.05,0.05,0.09,0.11,0.14,0.14
				C150.42,54.97,150.48,54.91,150.55,54.86z"/>
			<path class="st2" d="M125.64,67.82c0.01-0.01-0.03-0.06-0.06-0.11c-0.05,0.04-0.09,0.07-0.13,0.11
				c-0.01,0.01,0.04,0.06,0.06,0.09C125.56,67.88,125.61,67.86,125.64,67.82z"/>
			<path class="st2" d="M146.15,72.25c0.02,0,0.05-0.08,0.04-0.1c-0.03-0.04-0.07-0.1-0.12-0.11c-0.05-0.01-0.11,0.02-0.18,0.03
				c0.04,0.06,0.05,0.13,0.09,0.16C146.03,72.26,146.09,72.26,146.15,72.25z"/>
			<path class="st2" d="M153.92,72.68c0.18,0.12,0.26,0.17,0.35,0.23C154.25,72.7,154.25,72.7,153.92,72.68z"/>
			<path class="st2" d="M142.33,35.97c0.04,0.01,0.08,0.04,0.11,0.03c0.04-0.01,0.08-0.05,0.12-0.08c-0.04-0.03-0.08-0.06-0.14-0.1
				C142.38,35.88,142.35,35.92,142.33,35.97z"/>
			<path class="st2" d="M149.13,11.92c0.02,0.01,0.06-0.01,0.1-0.01c-0.02-0.04-0.04-0.09-0.06-0.13c-0.04,0.02-0.07,0.04-0.1,0.05
				C149.09,11.86,149.1,11.91,149.13,11.92z"/>
			<path class="st2" d="M122.55,11.72c-0.04,0.02-0.09,0.03-0.13,0.05c0.02,0.03,0.04,0.06,0.05,0.08c0.04-0.01,0.07-0.02,0.11-0.03
				C122.57,11.78,122.56,11.75,122.55,11.72z"/>
			<path class="st2" d="M106.85,37.65c0.05-0.01,0.09-0.04,0.14-0.06c-0.03-0.05-0.04-0.08-0.06-0.11
				c-0.04,0.03-0.09,0.05-0.13,0.09C106.8,37.57,106.85,37.66,106.85,37.65z"/>
			<path class="st2" d="M147.02,33.04c0.01-0.03,0.04-0.08,0.03-0.1c-0.01-0.03-0.06-0.04-0.09-0.06c-0.01,0.03-0.04,0.08-0.03,0.1
				C146.93,33.02,146.98,33.03,147.02,33.04z"/>
			<path class="st2" d="M166.38,30.92c0.03,0.01,0.07,0.01,0.11,0.01c-0.02-0.03-0.04-0.06-0.06-0.08
				c-0.01-0.01-0.05,0.01-0.07,0.02C166.36,30.89,166.36,30.92,166.38,30.92z"/>
			<path class="st2" d="M144.98,13.18c0.05-0.01,0.08-0.05,0.16-0.1c-0.08-0.05-0.12-0.07-0.17-0.1c-0.02,0.04-0.06,0.09-0.07,0.13
				C144.9,13.13,144.96,13.18,144.98,13.18z"/>
			<path class="st2" d="M145.5,12.22c-0.01,0.04,0.04,0.08,0.07,0.13c0.04-0.03,0.09-0.06,0.16-0.11c-0.05-0.05-0.09-0.11-0.12-0.11
				C145.57,12.13,145.5,12.18,145.5,12.22z"/>
			<path class="st2" d="M109.75,21.81c0.02-0.01,0.05-0.01,0.05-0.02c0.02-0.07,0.04-0.14,0.06-0.21c-0.05,0-0.1-0.01-0.15-0.01
				c0,0.07,0,0.14,0,0.21C109.71,21.79,109.73,21.8,109.75,21.81z"/>
			<path class="st2" d="M114.29,20.58c-0.07-0.04-0.12-0.09-0.15-0.08c-0.04,0.01-0.07,0.07-0.1,0.11c0.04,0.03,0.08,0.08,0.12,0.08
				C114.19,20.69,114.23,20.63,114.29,20.58z"/>
			<path class="st2" d="M136.69,63.13c0.04-0.06,0.09-0.11,0.08-0.14c-0.01-0.04-0.08-0.09-0.11-0.08
				c-0.04,0.01-0.09,0.07-0.09,0.11C136.56,63.05,136.63,63.08,136.69,63.13z"/>
			<path class="st2" d="M124.36,69.78c-0.03,0.02-0.04,0.09-0.06,0.13c0.03,0.01,0.07,0.04,0.1,0.03c0.04-0.02,0.07-0.06,0.14-0.11
				C124.45,69.8,124.39,69.76,124.36,69.78z"/>
			<path class="st2" d="M111.26,59.03c-0.12,0.07-0.12,0.16,0,0.36C111.26,59.19,111.26,59.12,111.26,59.03z"/>
			<path class="st2" d="M152.27,27.52c-0.01-0.02-0.03-0.06-0.04-0.07c-0.05,0-0.1,0.01-0.23,0.02c0.12,0.04,0.17,0.06,0.22,0.07
				C152.23,27.54,152.25,27.53,152.27,27.52z"/>
			<path class="st2" d="M111.82,45.2c0.01-0.01,0.03-0.03,0.03-0.04c-0.02-0.04-0.04-0.08-0.06-0.13c-0.02,0.02-0.05,0.04-0.09,0.07
				C111.74,45.14,111.78,45.17,111.82,45.2z"/>
			<path class="st2" d="M139.04,48.45c-0.01-0.02-0.01-0.05-0.02-0.05c-0.03,0-0.07,0-0.1,0c0,0.02,0.01,0.05,0.01,0.05
				C138.97,48.46,139,48.46,139.04,48.45z"/>
			<path class="st2" d="M160.83,19.86c-0.02,0.01-0.05,0.06-0.04,0.09c0.01,0.02,0.06,0.03,0.09,0.04c0.02-0.03,0.03-0.07,0.05-0.1
				C160.89,19.88,160.85,19.85,160.83,19.86z"/>
			<path class="st2" d="M119.58,42.85c0.05,0,0.11-0.01,0.16-0.02c0-0.02-0.01-0.04-0.01-0.06c-0.06,0.01-0.12,0.03-0.19,0.04
				C119.55,42.82,119.57,42.85,119.58,42.85z"/>
			<path class="st2" d="M111.08,42.23c0.01,0.02,0.02,0.03,0.02,0.05c0.02,0,0.04,0.01,0.05,0c0.01-0.01,0-0.03,0-0.05
				C111.13,42.23,111.1,42.23,111.08,42.23z"/>
			<path class="st2" d="M128.83,51.17c0-0.02,0-0.03,0-0.05c-0.07,0-0.14,0-0.2,0c0,0.02,0,0.03,0,0.05
				C128.7,51.17,128.77,51.17,128.83,51.17z"/>
			<path class="st2" d="M107.08,56.14c-0.02-0.02-0.04-0.04-0.06-0.06c-0.02,0.02-0.04,0.05-0.06,0.07
				c0.01,0.01,0.03,0.03,0.04,0.03C107.02,56.18,107.05,56.16,107.08,56.14z"/>
			<path class="st2" d="M114.51,60.08c0.04,0.01,0.08,0.03,0.12,0.04c0.01,0,0.02-0.05,0.04-0.08c-0.03-0.01-0.07-0.04-0.09-0.03
				C114.54,60.01,114.53,60.05,114.51,60.08z"/>
			<polygon class="st2" points="113.98,62.71 114.02,62.73 114.02,62.69 			"/>
			<path class="st2" d="M119.45,63.02c0.01,0.03,0.03,0.06,0.04,0.09c0.03-0.01,0.07-0.02,0.1-0.03c-0.01-0.03-0.02-0.07-0.04-0.08
				C119.52,62.99,119.48,63.01,119.45,63.02z"/>
			<path class="st2" d="M112.83,41.28c0.03,0.03,0.08,0.05,0.13,0.08c0.01-0.05,0.04-0.1,0.03-0.11c-0.04-0.03-0.09-0.05-0.13-0.07
				C112.85,41.22,112.82,41.27,112.83,41.28z"/>
			<path class="st2" d="M109.29,54.36c-0.01,0.03-0.01,0.07-0.02,0.1c0.03-0.01,0.06-0.01,0.09-0.02c-0.01-0.03-0.02-0.07-0.02-0.1
				C109.32,54.34,109.3,54.35,109.29,54.36z"/>
			<path class="st2" d="M128.84,67.16c-0.03,0-0.08,0.01-0.1,0.04c-0.01,0.02,0.01,0.06,0.02,0.1c0.05-0.02,0.09-0.04,0.14-0.07
				C128.88,67.2,128.86,67.16,128.84,67.16z"/>
			<path class="st2" d="M117.36,67.73c-0.03,0.02-0.06,0.05-0.08,0.07c0.03,0.02,0.06,0.06,0.09,0.06c0.03,0,0.06-0.04,0.09-0.06
				C117.42,67.78,117.39,67.76,117.36,67.73z"/>
			<path class="st2" d="M139.38,67.88c0.01,0.03,0.02,0.06,0.04,0.08c0.02-0.02,0.04-0.05,0.07-0.07c-0.02-0.02-0.05-0.04-0.07-0.05
				C139.4,67.84,139.37,67.87,139.38,67.88z"/>
			<path class="st2" d="M145.35,68.68c-0.01-0.02-0.03-0.05-0.04-0.07c-0.03,0.01-0.06,0.03-0.09,0.04
				c0.01,0.01,0.02,0.04,0.03,0.04C145.28,68.69,145.31,68.69,145.35,68.68z"/>
			<path class="st2" d="M134.81,70.72c0,0.03,0.06,0.06,0.09,0.09c0.02-0.05,0.05-0.09,0.07-0.14c-0.03-0.03-0.06-0.05-0.08-0.08
				C134.86,70.64,134.82,70.68,134.81,70.72z"/>
			<path class="st2" d="M149.11,26.52c-0.02-0.03-0.04-0.07-0.07-0.09c-0.02-0.01-0.06,0-0.09,0c0.02,0.04,0.03,0.09,0.06,0.11
				C149.02,26.57,149.08,26.54,149.11,26.52z"/>
			<path class="st2" d="M167.51,16.45c0.03,0.04,0.08,0.06,0.12,0.08c0.01,0,0.04-0.03,0.04-0.04c-0.01-0.05-0.02-0.1-0.04-0.14
				c-0.02-0.02-0.07-0.01-0.11-0.02l0,0.01C167.51,16.38,167.49,16.43,167.51,16.45z"/>
			<path class="st2" d="M155,72.68c-0.03,0-0.07,0-0.1,0c0,0.01,0,0.03,0,0.04c0.03,0,0.07,0,0.1,0C155,72.72,155,72.7,155,72.68z"
				/>
			<path class="st2" d="M115.27,41.12c0.02-0.02,0.04-0.04,0.09-0.08c-0.05-0.02-0.09-0.05-0.14-0.06c-0.01,0-0.03,0.02-0.05,0.03
				C115.21,41.05,115.24,41.08,115.27,41.12z"/>
			<path class="st2" d="M147.44,39.97c-0.03,0-0.07,0-0.1,0.01c0.01,0.02,0.03,0.04,0.04,0.06c0.03-0.01,0.06-0.02,0.1-0.03
				C147.47,39.99,147.46,39.97,147.44,39.97z"/>
			<path class="st2" d="M143.1,20.9c0.03,0.02,0.05,0.04,0.08,0.07c0.01-0.01,0.03-0.03,0.03-0.03c-0.02-0.02-0.05-0.04-0.07-0.06
				C143.13,20.87,143.11,20.89,143.1,20.9z"/>
			<path class="st2" d="M143.02,32.38c-0.03-0.01-0.07-0.01-0.1-0.02c0,0.02,0.01,0.05,0.01,0.07c0.03-0.01,0.07-0.01,0.1-0.02
				C143.02,32.4,143.02,32.38,143.02,32.38z"/>
			<path class="st2" d="M142.47,22.3c0.01-0.01,0.04-0.02,0.04-0.03c0.01-0.02,0-0.04,0-0.06c-0.02,0.01-0.05,0.03-0.07,0.04
				C142.45,22.26,142.46,22.28,142.47,22.3z"/>
			<path class="st2" d="M143.15,22.37c0.01,0,0.01-0.02,0.02-0.04c-0.02-0.01-0.03-0.02-0.05-0.02c-0.01,0-0.01,0.02-0.02,0.04
				C143.11,22.37,143.13,22.38,143.15,22.37z"/>
			<path class="st2" d="M120.09,45.28c0.02,0,0.03-0.01,0.05-0.01c0-0.01-0.01-0.02-0.01-0.04c-0.02,0-0.03,0.01-0.05,0.01
				C120.08,45.26,120.09,45.28,120.09,45.28z"/>
			<polygon class="st2" points="118.27,49.7 118.27,49.66 118.23,49.68 			"/>
			<polygon class="st2" points="116.89,50.21 116.88,50.18 116.86,50.21 			"/>
			<path class="st2" d="M119.13,18.29c-0.01-0.01-0.03-0.01-0.04-0.02c-0.01,0.01-0.04,0.02-0.04,0.03c0,0.01,0.01,0.03,0.02,0.04
				C119.09,18.32,119.11,18.31,119.13,18.29z"/>
			<path class="st2" d="M112.54,43.61c0,0.02-0.01,0.03-0.01,0.05c0,0,0.03,0.01,0.04,0.01c0-0.02,0.01-0.03,0.01-0.05
				C112.58,43.61,112.55,43.61,112.54,43.61z"/>
			<path class="st2" d="M127.91,52.69c-0.03,0.01-0.06,0.03-0.09,0.04c0.01,0.01,0.03,0.04,0.03,0.04c0.03-0.01,0.06-0.02,0.09-0.04
				C127.93,52.72,127.92,52.69,127.91,52.69z"/>
			<polygon class="st2" points="114.31,58.18 114.28,58.18 114.29,58.22 			"/>
			<path class="st2" d="M112.81,45.33c-0.01,0-0.03,0.02-0.04,0.02c0.02,0.02,0.03,0.04,0.05,0.06c0.01-0.02,0.01-0.03,0.02-0.05
				C112.83,45.36,112.82,45.34,112.81,45.33z"/>
			<path class="st2" d="M114.74,60.98c0.02-0.01,0.03-0.01,0.05-0.02c0-0.01,0-0.04-0.01-0.04c-0.01-0.01-0.03-0.01-0.05-0.01
				C114.73,60.94,114.73,60.96,114.74,60.98z"/>
			<path class="st2" d="M120.24,60.99c0.03-0.02,0.06-0.03,0.1-0.05c-0.01-0.02-0.02-0.04-0.04-0.04c-0.03,0-0.07,0.01-0.1,0.02
				C120.21,60.94,120.22,60.96,120.24,60.99z"/>
			<polygon class="st2" points="123.59,61.29 123.62,61.3 123.61,61.26 			"/>
			<polygon class="st2" points="134.83,23.43 134.79,23.45 134.83,23.46 			"/>
			<path class="st2" d="M167.38,16.35c0.05,0,0.09-0.01,0.14-0.01c0,0,0-0.01,0-0.01C167.47,16.34,167.43,16.35,167.38,16.35z"/>
			<path class="st2" d="M143.2,26.57c0.01,0,0.03-0.01,0.04-0.01c0-0.02-0.01-0.03-0.01-0.05C143.22,26.53,143.21,26.55,143.2,26.57
				z"/>
			<path class="st2" d="M125.13,15.33c-0.02,0-0.03,0.01-0.05,0.02c0.01,0.01,0.03,0.02,0.04,0.03c0.02-0.01,0.03-0.01,0.05-0.02
				C125.16,15.35,125.15,15.33,125.13,15.33z"/>
			<path class="st2" d="M123.35,26.64c-0.01-0.01-0.03-0.04-0.04-0.04c-0.03,0.01-0.06,0.03-0.09,0.04
				c0.01,0.01,0.03,0.04,0.04,0.04C123.29,26.67,123.32,26.65,123.35,26.64z"/>
			<path class="st2" d="M147.99,27.09c-0.04,0.02-0.07,0.03-0.1,0.05c0.01,0.01,0.03,0.04,0.04,0.03c0.03-0.01,0.06-0.03,0.1-0.04
				C148.02,27.12,148.01,27.1,147.99,27.09z"/>
			<polygon class="st2" points="121.9,63.42 121.95,63.41 121.91,63.38 			"/>
			<path class="st2" d="M130.79,63.4c0.02,0.02,0.04,0.05,0.07,0.05c0.02,0,0.04-0.04,0.06-0.06c-0.03-0.01-0.06-0.02-0.1-0.03
				C130.81,63.36,130.79,63.4,130.79,63.4z"/>
			<path class="st2" d="M125.75,13.26c0.01,0.01,0.02,0.03,0.03,0.04c0.02-0.02,0.05-0.03,0.07-0.05c-0.02-0.01-0.03-0.01-0.05-0.02
				C125.78,13.25,125.76,13.26,125.75,13.26z"/>
			<path class="st2" d="M109.43,51.38c-0.02-0.01-0.03-0.01-0.05-0.01c-0.01,0-0.01,0.02-0.02,0.03c0.02,0.01,0.03,0.01,0.05,0.01
				C109.42,51.41,109.42,51.39,109.43,51.38z"/>
			<path class="st2" d="M138.56,12.56c-0.01,0.01-0.03,0.03-0.03,0.04c0,0.02,0.01,0.03,0.02,0.05c0.01-0.01,0.02-0.03,0.03-0.04
				C138.58,12.59,138.57,12.57,138.56,12.56z"/>
			<polygon class="st2" points="146.26,27.92 146.29,27.93 146.28,27.88 			"/>
			<path class="st2" d="M142.58,12.21c0,0.02,0.01,0.03,0.01,0.05c0.01,0,0.02-0.01,0.03-0.01c0-0.02-0.01-0.03-0.01-0.05
				C142.61,12.2,142.58,12.2,142.58,12.21z"/>
			<path class="st2" d="M114.01,64.29c0,0,0.03-0.02,0.04-0.03c-0.01-0.01-0.02-0.04-0.03-0.04c-0.02,0-0.04,0-0.05,0.01
				C113.98,64.25,113.99,64.27,114.01,64.29z"/>
			<path class="st2" d="M125.13,66.36c0.02,0,0.03-0.01,0.05-0.02c-0.01-0.01-0.03-0.03-0.04-0.03c-0.02,0-0.03,0.01-0.05,0.02
				C125.1,66.34,125.11,66.36,125.13,66.36z"/>
			<path class="st2" d="M160.49,9.77c-0.01,0.03-0.03,0.06-0.04,0.1c0,0.01,0.03,0.02,0.04,0.03c0.01-0.03,0.03-0.06,0.04-0.1"/>
			<path class="st2" d="M113.98,47.61c-0.02,0.02-0.06,0.05-0.05,0.07c0,0.03,0.04,0.05,0.06,0.07c0.01-0.03,0.03-0.07,0.03-0.1
				C114.02,47.64,113.99,47.62,113.98,47.61z"/>
			<path class="st2" d="M149.04,24.18c-0.02-0.01-0.03-0.01-0.05-0.02c0,0.01-0.01,0.03-0.01,0.04c0.02,0,0.03,0.01,0.05,0.01
				C149.03,24.21,149.03,24.19,149.04,24.18z"/>
			<path class="st2" d="M134.75,67.91c-0.04-0.01-0.07-0.04-0.1-0.03c-0.02,0-0.04,0.04-0.05,0.07c0.03,0.01,0.06,0.03,0.09,0.03
				C134.71,67.97,134.73,67.94,134.75,67.91z"/>
			<polygon class="st2" points="135.73,29.09 135.69,29.07 135.69,29.1 			"/>
			<path class="st2" d="M109.79,55.97c0.02,0,0.03,0,0.04,0c0.01-0.01,0.01-0.03,0.01-0.04c-0.01-0.01-0.03-0.01-0.04-0.02
				C109.79,55.92,109.79,55.95,109.79,55.97z"/>
			<path class="st2" d="M109.85,57.79c0.01-0.02,0.01-0.03,0.02-0.05c-0.01-0.01-0.02-0.04-0.03-0.04c-0.01,0-0.03,0.02-0.04,0.03
				C109.81,57.75,109.83,57.77,109.85,57.79z"/>
			<path class="st2" d="M152.72,21.24c0,0.02,0.01,0.03,0.01,0.05c0.02-0.01,0.05-0.03,0.07-0.04c-0.01-0.01-0.03-0.03-0.04-0.03
				C152.75,21.21,152.73,21.23,152.72,21.24z"/>
			<polygon class="st2" points="120.22,70.37 120.22,70.4 120.27,70.39 			"/>
			<path class="st2" d="M118,20.27c-0.01-0.02-0.02-0.04-0.03-0.04c-0.03,0-0.07,0.02-0.1,0.03c0.01,0.01,0.03,0.04,0.04,0.04
				C117.93,20.29,117.96,20.28,118,20.27z"/>
			<path class="st2" d="M144.34,20.87c0.01,0.01,0.03,0.04,0.04,0.04c0.03-0.01,0.07-0.02,0.1-0.04c-0.01-0.01-0.03-0.04-0.04-0.04
				C144.41,20.83,144.38,20.85,144.34,20.87z"/>
			<path class="st2" d="M114.51,31.81c0.02,0,0.04,0,0.05-0.01c0.01-0.01,0.01-0.03,0.01-0.04c-0.02-0.01-0.03-0.02-0.05-0.02
				C114.52,31.76,114.52,31.78,114.51,31.81z"/>
			<path class="st2" d="M147.98,72.96c-0.04-0.01-0.06-0.01-0.08-0.02c0,0.01,0.01,0.03,0.01,0.03
				C147.93,72.98,147.95,72.97,147.98,72.96z"/>
			<polygon class="st2" points="118.51,34.22 118.51,34.25 118.55,34.24 			"/>
			<path class="st2" d="M135.89,35.18c0-0.02-0.01-0.03-0.02-0.05c-0.01,0.01-0.03,0.03-0.03,0.04c0,0.01,0.01,0.03,0.02,0.05
				C135.88,35.21,135.89,35.2,135.89,35.18z"/>
			<polygon class="st2" points="145.5,35.81 145.45,35.82 145.49,35.84 			"/>
			<path class="st2" d="M117.1,40.12c0,0.01-0.01,0.03-0.01,0.04c0.02-0.01,0.03-0.02,0.05-0.03
				C117.13,40.13,117.11,40.12,117.1,40.12z"/>
			<path class="st2" d="M122.84,40.62c-0.01-0.01-0.03-0.04-0.03-0.04c-0.03,0.01-0.05,0.03-0.08,0.04
				c0.03,0.01,0.05,0.03,0.08,0.04C122.81,40.66,122.83,40.63,122.84,40.62z"/>
		</g>
		<g>
			<path class="st2" d="M158.07,73.05c0.13,0.16,0.29,0.35,0.47,0.4c0.17,0.05,0.38-0.07,0.62-0.12c-0.23-0.3-0.42-0.55-0.65-0.84
				c-0.14,0.08-0.3,0.15-0.41,0.26C158.04,72.8,158.02,72.99,158.07,73.05z"/>
			<path class="st2" d="M161.1,43.68c0,0.01,0.01,0.01,0.01,0.02c0,0,0-0.01,0.01-0.01c0,0.01-0.01,0.01-0.01,0.01
				c0.01,0,0.02,0,0.03,0c0-0.01-0.01-0.01-0.01-0.02l0,0C161.12,43.68,161.11,43.68,161.1,43.68z"/>
			<path class="st2" d="M164.39,23.62c0.28-0.05,0.55-0.09,0.82-0.14c-0.15-0.23-0.29-0.46-0.44-0.71
				C164.35,22.97,164.19,23.19,164.39,23.62z"/>
			<path class="st2" d="M168.43,61.18c-0.36-0.3-0.6-0.05-0.91,0.24c0.31,0.14,0.57,0.26,0.83,0.38
				C168.55,61.3,168.55,61.28,168.43,61.18z"/>
			<path class="st2" d="M156.86,60.72c0.7-0.36,0.7-0.36,0.48-0.84C156.96,59.98,156.86,60.28,156.86,60.72z"/>
			<path class="st2" d="M158.38,75c-0.14-0.22-0.32-0.26-0.49-0.13c-0.1,0.07-0.13,0.23-0.19,0.35c0.13,0.03,0.28,0.11,0.38,0.07
				C158.2,75.25,158.29,75.1,158.38,75z"/>
			<path class="st2" d="M171.65,58.01c0.29-0.07,0.54-0.12,0.89-0.2C171.79,57.6,171.79,57.6,171.65,58.01z"/>
			<path class="st2" d="M106.89,48.09c-0.34-0.39-0.34-0.39-0.87-0.35C106.49,48.36,106.49,48.36,106.89,48.09z"/>
			<path class="st2" d="M164.2,64.43c-0.08-0.03-0.24,0.09-0.32,0.19c-0.05,0.06-0.02,0.19-0.03,0.49c0.21-0.21,0.3-0.27,0.34-0.35
				C164.24,64.65,164.42,64.51,164.2,64.43z"/>
			<path class="st2" d="M176.14,29.6c-0.42,0.14-0.42,0.14-0.29,0.71C176.42,30.25,175.96,29.83,176.14,29.6z"/>
			<path class="st2" d="M152.62,75.16c0.02,0.04,0.04,0.07,0.06,0.11c0.17-0.04,0.35-0.06,0.5-0.13c0.06-0.03,0.08-0.16,0.11-0.24
				c-0.06-0.02-0.15-0.09-0.19-0.06C152.93,74.93,152.78,75.05,152.62,75.16z"/>
			<path class="st2" d="M162.65,58.26c-0.13,0.01-0.26,0.08-0.4,0.13c0,0.07,0,0.13,0.01,0.2c0.13,0.02,0.26,0.05,0.39,0.06
				c0.15,0,0.31-0.03,0.25-0.23C162.87,58.33,162.73,58.25,162.65,58.26z"/>
			<path class="st2" d="M161.38,60.62c0.05-0.03,0.1-0.04,0.11-0.07c0.04-0.1,0.1-0.21,0.08-0.29c-0.05-0.16-0.39-0.24-0.46-0.12
				c-0.04,0.07-0.02,0.21,0.02,0.29C161.18,60.51,161.3,60.56,161.38,60.62z"/>
			<path class="st2" d="M161.87,43.59c-0.29,0.04-0.51,0.08-0.73,0.11C161.4,44.12,161.41,44.11,161.87,43.59z"/>
			<path class="st2" d="M175.12,36.1c0,0.05,0.07,0.1,0.11,0.16c0.06-0.07,0.14-0.13,0.18-0.22c0.01-0.03-0.07-0.1-0.23-0.3
				C175.15,35.91,175.12,36.01,175.12,36.1z"/>
			<path class="st2" d="M142.95,45.7c-0.06-0.01-0.16-0.05-0.18-0.02c-0.06,0.06-0.09,0.16-0.14,0.24c0.06,0.01,0.12,0.03,0.2,0.04
				C142.87,45.87,142.91,45.78,142.95,45.7z"/>
			<path class="st2" d="M166.24,48.79c0.41,0.19,0.41,0.19,0.66-0.15C166.68,48.69,166.5,48.73,166.24,48.79z"/>
			<path class="st2" d="M174.83,38.27c-0.01-0.04-0.15-0.05-0.23-0.08c-0.02,0.09-0.05,0.19-0.05,0.28c0,0.02,0.12,0.04,0.21,0.06
				C174.79,38.44,174.84,38.35,174.83,38.27z"/>
			<path class="st2" d="M109.84,57.57c0.24,0.18,0.41,0.09,0.58-0.13C110.14,57.29,109.98,57.37,109.84,57.57z"/>
			<path class="st2" d="M161.92,46.26c-0.25,0.1-0.38,0.12-0.48,0.19c-0.04,0.03-0.04,0.13-0.05,0.19c0.09,0.01,0.2,0.04,0.25,0.01
				C161.72,46.59,161.77,46.48,161.92,46.26z"/>
			<path class="st2" d="M158.81,47.66c0.03,0.07,0.09,0.18,0.14,0.18c0.08,0,0.16-0.07,0.29-0.14c-0.13-0.07-0.21-0.14-0.3-0.16
				C158.91,47.54,158.8,47.64,158.81,47.66z"/>
			<path class="st2" d="M111.41,61.81c0.1,0.07,0.2,0.14,0.34,0.24c0.08-0.16,0.17-0.25,0.17-0.34c-0.02-0.22-0.2-0.17-0.33-0.12
				C111.51,61.62,111.47,61.74,111.41,61.81z"/>
			<path class="st2" d="M166.11,47.41c-0.12,0.04-0.24,0.09-0.37,0.13c0.03,0.06,0.09,0.17,0.09,0.17c0.11-0.05,0.22-0.11,0.33-0.16
				C166.15,47.5,166.13,47.46,166.11,47.41z"/>
			<path class="st2" d="M107.57,38.89c-0.02,0.14,0.21,0.34,0.35,0.3c0.04-0.01,0.05-0.11,0.11-0.22c-0.11-0.06-0.21-0.13-0.33-0.18
				C107.67,38.78,107.57,38.85,107.57,38.89z"/>
			<path class="st2" d="M166.84,56.02c0.08-0.04,0.14-0.14,0.2-0.21c-0.09-0.03-0.17-0.06-0.31-0.11c-0.04,0.11-0.07,0.19-0.1,0.27
				C166.71,55.99,166.8,56.04,166.84,56.02z"/>
			<path class="st2" d="M168.45,55.98c0.21-0.05,0.37-0.08,0.52-0.12C168.78,55.76,168.59,55.69,168.45,55.98z"/>
			<path class="st2" d="M172.99,42.37c0.07,0,0.14,0.03,0.19,0c0.04-0.02,0.05-0.11,0.08-0.17c-0.06,0-0.14-0.03-0.18-0.01
				C173.03,42.23,173.02,42.31,172.99,42.37z"/>
			<path class="st2" d="M155.74,47.33c-0.03-0.01-0.07-0.05-0.09-0.04c-0.04,0.02-0.06,0.06-0.09,0.1c0.03,0,0.06,0,0.1,0
				C155.69,47.37,155.71,47.35,155.74,47.33z"/>
			<path class="st2" d="M168.26,45.71c-0.1-0.01-0.18-0.04-0.21-0.01c-0.05,0.04-0.08,0.12-0.09,0.18c0,0.01,0.13,0.08,0.14,0.07
				C168.15,45.89,168.2,45.81,168.26,45.71z"/>
			<path class="st2" d="M150.31,51.33c0.03-0.01,0.05-0.03,0.08-0.04c0-0.04,0.01-0.07,0.01-0.11c-0.04,0.02-0.09,0.03-0.12,0.05
				C150.27,51.24,150.3,51.3,150.31,51.33z"/>
			<path class="st2" d="M161.47,55.17c-0.13,0.01-0.23,0.01-0.33,0.02c-0.02,0-0.03,0.06-0.05,0.09c0.09,0.02,0.18,0.05,0.27,0.04
				C161.38,55.32,161.41,55.24,161.47,55.17z"/>
			<path class="st2" d="M162.74,59.64c-0.11,0.04-0.21,0.09-0.31,0.13c0.02,0.04,0.03,0.08,0.05,0.12c0.11-0.04,0.22-0.08,0.33-0.13
				C162.78,59.73,162.74,59.64,162.74,59.64z"/>
			<path class="st2" d="M150.79,63.36c-0.04-0.05-0.08-0.12-0.13-0.14c-0.03-0.01-0.1,0.05-0.15,0.08c0.05,0.06,0.1,0.13,0.15,0.19
				C150.71,63.44,150.75,63.4,150.79,63.36z"/>
			<path class="st2" d="M167.95,62.71c-0.06-0.01-0.13-0.01-0.19-0.02c-0.02,0.02-0.05,0.05-0.07,0.07
				c0.05,0.03,0.11,0.08,0.16,0.07C167.88,62.83,167.91,62.76,167.95,62.71z"/>
			<path class="st2" d="M154.6,45.61c-0.05-0.07-0.11-0.17-0.12-0.17c-0.08,0.04-0.17,0.09-0.23,0.16c-0.01,0.01,0.07,0.11,0.1,0.17
				C154.43,45.72,154.51,45.67,154.6,45.61z"/>
			<path class="st2" d="M152.16,66.36c0,0.03-0.01,0.05-0.01,0.08c0.02-0.02,0.05-0.04,0.07-0.07
				C152.2,66.37,152.18,66.37,152.16,66.36z"/>
			<path class="st2" d="M160.8,63.82c0.03,0.03,0.06,0.07,0.1,0.09c0.01,0,0.04-0.04,0.07-0.07c-0.02-0.02-0.04-0.05-0.07-0.05
				C160.87,63.79,160.83,63.81,160.8,63.82z"/>
			<path class="st2" d="M158.97,61.37c0.05-0.01,0.08-0.08,0.11-0.12c-0.06-0.01-0.12-0.02-0.18-0.02c-0.02,0-0.04,0.05-0.06,0.07
				C158.88,61.33,158.94,61.38,158.97,61.37z"/>
			<path class="st2" d="M146.82,59.36c0,0.05,0.01,0.11,0.02,0.16c0.05-0.02,0.09-0.04,0.14-0.06c-0.03-0.05-0.07-0.1-0.1-0.15
				C146.85,59.32,146.82,59.34,146.82,59.36z"/>
			<path class="st2" d="M150.73,58.21c-0.02,0.03-0.06,0.06-0.05,0.08c0.02,0.05,0.06,0.09,0.09,0.13c0.03-0.04,0.06-0.08,0.09-0.12
				C150.82,58.27,150.77,58.24,150.73,58.21z"/>
			<path class="st2" d="M169.56,50.09c-0.03,0.01-0.05,0.03-0.08,0.04c0.01,0.02,0.03,0.06,0.04,0.06c0.03,0,0.05-0.02,0.08-0.03
				C169.59,50.14,169.58,50.12,169.56,50.09z"/>
			<polygon class="st2" points="164.77,49.89 164.84,49.84 164.76,49.83 			"/>
			<path class="st2" d="M162.78,47.08c0.04,0.01,0.08,0.01,0.12,0.02c-0.01-0.02-0.03-0.04-0.04-0.06
				C162.84,47.05,162.81,47.06,162.78,47.08z"/>
			<polygon class="st2" points="145.61,50.79 145.51,50.78 145.53,50.85 			"/>
			<path class="st2" d="M159.42,46.69c0.01,0.02,0.02,0.06,0.03,0.06c0.03,0.01,0.06,0,0.09,0c-0.02-0.03-0.03-0.07-0.05-0.1
				C159.47,46.66,159.45,46.68,159.42,46.69z"/>
			<path class="st2" d="M158.73,44.87c-0.02-0.04-0.04-0.07-0.05-0.11c-0.03,0.02-0.05,0.04-0.08,0.05
				c0.01,0.02,0.02,0.05,0.04,0.06C158.67,44.89,158.7,44.88,158.73,44.87z"/>
			<polygon class="st2" points="159.49,42.6 159.57,42.56 159.48,42.53 			"/>
			<path class="st2" d="M163.09,40.12c0.06,0.01,0.13,0.03,0.19,0.03c0.02,0,0.04-0.05,0.06-0.08c-0.07-0.01-0.13-0.03-0.2-0.04"/>
		</g>
	</g>
</g>
<g>
	<g>
		<path class="st0" d="M21.72,12.52L9.57,52.89C8,58.12,10.99,63.68,16.21,65.25l40.37,12.15c5.22,1.57,10.79-1.42,12.36-6.64
			L81.1,30.39c1.57-5.22-1.42-10.79-6.64-12.36L34.08,5.88C28.86,4.31,23.3,7.29,21.72,12.52z"/>
		<path class="st1" d="M9.95,28.54l9.41,41.1c1.22,5.32,6.57,8.67,11.88,7.46l41.1-9.41c5.32-1.22,8.67-6.57,7.46-11.88l-9.41-41.1
			c-1.22-5.32-6.57-8.67-11.88-7.46l-41.1,9.41C12.09,17.87,8.73,23.22,9.95,28.54z"/>
		<g>
			<path class="st2" d="M32.9,7.43c0.16,0,0.29,0.03,0.4-0.01c0.12-0.04,0.24-0.14,0.33-0.24c0.03-0.03-0.03-0.2-0.05-0.2
				c-0.33-0.02-0.51-0.28-0.76-0.44c-0.02-0.01-0.07,0.01-0.11,0.01C32.68,6.71,32.66,6.84,32.64,7c0.04,0.06,0.08,0.12,0.13,0.19
				C32.8,7.26,32.84,7.33,32.9,7.43z"/>
			<path class="st2" d="M79.54,28.36c-0.11-0.27,0.2-0.13,0.22-0.27c-0.09-0.06-0.2-0.11-0.29-0.19c-0.23-0.2-0.22-0.21-0.52-0.03
				c0.1,0.18,0.18,0.34,0.28,0.49C79.3,28.48,79.58,28.44,79.54,28.36z"/>
			<path class="st2" d="M17.42,41.98c0.23-0.02,0.4-0.03,0.59-0.05c0.03-0.2,0.3-0.35,0.08-0.63C17.83,41.48,17.4,41.43,17.42,41.98
				z"/>
			<path class="st2" d="M30.15,16.41c-0.07-0.12-0.15-0.25-0.23-0.39c-0.24,0.08-0.35,0.22-0.39,0.47c0.11,0.03,0.22,0.07,0.34,0.09
				C29.99,16.61,30.1,16.57,30.15,16.41z"/>
			<path class="st2" d="M51.09,72.27c0.21,0,0.34-0.1,0.37-0.34c-0.24,0-0.48,0-0.78,0C50.74,72.23,50.9,72.28,51.09,72.27z"/>
			<path class="st2" d="M18.52,51.61c0.13-0.12,0.23-0.22,0.37-0.35c-0.13-0.08-0.22-0.14-0.33-0.21c-0.1,0.12-0.19,0.22-0.29,0.33
				C18.36,51.46,18.43,51.52,18.52,51.61z"/>
			<path class="st2" d="M15.63,41.13c0.08,0.01,0.16,0.01,0.23,0c0.02,0,0.04-0.06,0.08-0.12c-0.12-0.09-0.24-0.18-0.38-0.29
				C15.33,41.08,15.33,41.08,15.63,41.13z"/>
			<path class="st2" d="M38.58,22.98c0,0.07,0.02,0.15,0.03,0.22c0.26,0,0.32-0.16,0.35-0.39C38.61,22.72,38.59,22.73,38.58,22.98z"
				/>
			<path class="st2" d="M63.69,11.46c-0.19-0.12-0.35-0.1-0.49-0.05c-0.06,0.02-0.12,0.1-0.15,0.16c-0.01,0.04,0.03,0.13,0.07,0.15
				c0.07,0.03,0.17,0.04,0.23,0.01C63.46,11.66,63.56,11.56,63.69,11.46z"/>
			<path class="st2" d="M24.18,63.76c-0.02-0.02-0.07-0.01-0.11-0.01c-0.12,0.14-0.01,0.26,0.06,0.36c0.07,0.1,0.16,0.08,0.33-0.07
				C24.37,63.95,24.28,63.85,24.18,63.76z"/>
			<path class="st2" d="M17.58,48.13c0.12-0.18,0.21-0.31,0.35-0.53c-0.16,0.03-0.25,0.02-0.29,0.06c-0.08,0.07-0.16,0.17-0.2,0.27
				C17.42,47.96,17.51,48.03,17.58,48.13z"/>
			<path class="st2" d="M64.78,9.94c0,0.16-0.02,0.27,0,0.38c0.01,0.04,0.08,0.1,0.12,0.11c0.04,0,0.09-0.06,0.12-0.1
				c0.04-0.07,0.06-0.14,0.09-0.24C65,10.03,64.91,10,64.78,9.94z"/>
			<path class="st2" d="M63.75,11.79c-0.04-0.03-0.12-0.04-0.16-0.02c-0.11,0.06-0.1,0.16-0.06,0.26c0.02,0.05,0.06,0.1,0.13,0.2
				c0.08-0.09,0.12-0.13,0.15-0.18C63.87,11.94,63.83,11.85,63.75,11.79z"/>
			<path class="st2" d="M15.82,25.79c-0.04-0.05-0.14-0.07-0.21-0.06c-0.1,0.01-0.18,0.09-0.17,0.2c0.01,0.07,0.05,0.14,0.1,0.25
				c0.11-0.08,0.16-0.11,0.2-0.15C15.82,25.97,15.91,25.89,15.82,25.79z"/>
			<path class="st2" d="M12.93,55.22c0,0.04-0.01,0.08-0.01,0.15c0.12,0,0.25,0.03,0.36-0.01c0.11-0.03,0.21,0.2,0.32-0.04
				c-0.07-0.04-0.14-0.03-0.22-0.04c-0.14-0.03-0.27-0.07-0.41-0.1C12.96,55.18,12.94,55.21,12.93,55.22z"/>
			<path class="st2" d="M58.38,29.78c-0.09,0.06-0.07,0.12,0.01,0.18c0.12-0.04,0.25-0.08,0.43-0.14
				C58.57,29.64,58.57,29.64,58.38,29.78z"/>
			<path class="st2" d="M57.04,52.12c0.17,0.12,0.34,0.25,0.61,0.11C57.44,52.05,57.25,52.08,57.04,52.12z"/>
			<path class="st2" d="M49.72,24.45c-0.04-0.08-0.14-0.12-0.22-0.2c-0.05,0.08-0.1,0.13-0.1,0.18c-0.01,0.12,0.08,0.18,0.19,0.17
				C49.68,24.6,49.75,24.53,49.72,24.45z"/>
			<path class="st2" d="M53.18,21.94c-0.11,0.07-0.15,0.18,0,0.32c0.09-0.04,0.2-0.08,0.37-0.15C53.4,21.96,53.31,21.86,53.18,21.94
				z"/>
			<path class="st2" d="M9.95,51.19c0.11,0,0.22-0.11,0.17-0.18c-0.04-0.06-0.11-0.09-0.19-0.14c-0.07,0.06-0.14,0.1-0.17,0.16
				C9.72,51.1,9.84,51.2,9.95,51.19z"/>
			<path class="st2" d="M47.71,11.95c0.08-0.04,0.17-0.09,0.28-0.16c-0.07-0.06-0.11-0.12-0.16-0.12c-0.11,0-0.19,0.07-0.18,0.19
				C47.65,11.9,47.71,11.96,47.71,11.95z"/>
			<path class="st2" d="M21.02,59.63c-0.13-0.12-0.28-0.14-0.52-0.17C20.69,59.68,20.85,59.66,21.02,59.63z"/>
			<path class="st2" d="M61.8,17.02c-0.07,0.01-0.12,0.06-0.19,0.1c0.03,0.04,0.05,0.12,0.08,0.12c0.06,0,0.13-0.03,0.24-0.06
				C61.87,17.09,61.83,17.01,61.8,17.02z"/>
			<path class="st2" d="M60.3,12.82c0.12,0,0.08-0.1,0.08-0.18c0-0.04-0.02-0.08-0.03-0.12c-0.05,0-0.15-0.02-0.16,0
				c-0.03,0.06-0.04,0.14-0.02,0.21C60.17,12.78,60.25,12.83,60.3,12.82z"/>
			<path class="st2" d="M28.01,8.77c-0.05,0-0.11,0.04-0.16,0.05c0,0.03,0,0.06,0.01,0.06c0.06,0.04,0.12,0.09,0.18,0.1
				c0.03,0.01,0.1-0.06,0.12-0.1C28.18,8.78,28.08,8.77,28.01,8.77z"/>
			<path class="st2" d="M45.95,28.02c0.15,0.12,0.29,0.08,0.51-0.06C46.13,27.92,46.13,27.92,45.95,28.02z"/>
			<path class="st2" d="M15.82,45.88c-0.03-0.06-0.08-0.12-0.12-0.18c-0.04,0.04-0.11,0.1-0.1,0.12c0.02,0.06,0.08,0.11,0.13,0.17
				C15.78,45.93,15.83,45.89,15.82,45.88z"/>
			<path class="st2" d="M33.21,59.07c-0.04,0.01-0.1,0.02-0.1,0.04c-0.01,0.07-0.01,0.14,0,0.21c0,0.02,0.07,0.03,0.1,0.04
				c0.02-0.03,0.06-0.06,0.06-0.09C33.26,59.21,33.23,59.14,33.21,59.07z"/>
			<path class="st2" d="M15.75,40.56c0.04-0.05,0.08-0.1,0.12-0.15c-0.04-0.05-0.06-0.08-0.08-0.11c-0.05,0.05-0.1,0.1-0.15,0.14
				C15.67,40.49,15.71,40.53,15.75,40.56z"/>
			<path class="st2" d="M45.57,32.5c-0.1-0.04-0.19-0.02-0.23,0.08c-0.01,0.02,0.02,0.09,0.03,0.09c0.08,0,0.16-0.02,0.25-0.03
				C45.59,32.56,45.59,32.51,45.57,32.5z"/>
			<path class="st2" d="M64.04,11.11c0.04,0.01,0.08-0.04,0.15-0.08c-0.07-0.09-0.13-0.16-0.18-0.23c-0.04,0.03-0.1,0.06-0.11,0.1
				C63.89,11,63.93,11.09,64.04,11.11z"/>
			<path class="st2" d="M58.51,14.54c0.01-0.03,0.04-0.07,0.03-0.1c-0.02-0.08-0.05-0.16-0.16-0.14c-0.02,0-0.04,0.07-0.03,0.1
				C58.38,14.47,58.4,14.57,58.51,14.54z"/>
			<path class="st2" d="M18.15,39.14c0.03,0.02,0.13-0.03,0.14-0.06c0.02-0.1-0.02-0.19-0.13-0.23c-0.02-0.01-0.04-0.01-0.06-0.01
				c-0.01,0.02-0.02,0.03-0.03,0.05C18.02,39,18.06,39.09,18.15,39.14z"/>
			<path class="st2" d="M26.41,28.7c0.06-0.08,0.12-0.13,0.11-0.15c-0.02-0.05-0.07-0.1-0.12-0.11c-0.04-0.01-0.1,0.04-0.14,0.06
				C26.31,28.56,26.35,28.62,26.41,28.7z"/>
			<path class="st2" d="M50.22,31.27c-0.04,0.03-0.07,0.05-0.1,0.08c0.03,0.04,0.06,0.09,0.1,0.1c0.03,0.01,0.07-0.05,0.11-0.08
				C50.3,31.33,50.26,31.3,50.22,31.27z"/>
			<path class="st2" d="M45.93,34.05c0.02,0,0.03-0.02,0.08-0.05c-0.04-0.04-0.04-0.07-0.06-0.07c-0.09-0.02-0.17-0.13-0.26-0.02
				c-0.01,0.01-0.01,0.04-0.01,0.06C45.72,34.09,45.83,34.07,45.93,34.05z"/>
			<path class="st2" d="M44.8,41.21c0.02,0.04,0.05,0.1,0.09,0.11c0.04,0.01,0.09-0.03,0.19-0.07c-0.1-0.06-0.16-0.1-0.22-0.12
				C44.86,41.12,44.8,41.19,44.8,41.21z"/>
			<path class="st2" d="M44.25,52.75c-0.26-0.06-0.26-0.06-0.44,0.01C43.96,52.83,44.1,52.86,44.25,52.75z"/>
			<path class="st2" d="M9.04,54.62c-0.12-0.03-0.19-0.07-0.25-0.06c-0.03,0-0.05,0.09-0.07,0.15c0.05,0.02,0.11,0.06,0.16,0.06
				C8.91,54.76,8.95,54.7,9.04,54.62z"/>
			<path class="st2" d="M54.64,54.86c-0.06-0.04-0.1-0.09-0.14-0.09c-0.05,0-0.1,0.03-0.15,0.05c0.05,0.05,0.09,0.11,0.14,0.14
				C54.51,54.97,54.57,54.91,54.64,54.86z"/>
			<path class="st2" d="M29.73,67.82c0.01-0.01-0.03-0.06-0.06-0.11c-0.05,0.04-0.09,0.07-0.13,0.11c-0.01,0.01,0.04,0.06,0.06,0.09
				C29.65,67.88,29.7,67.86,29.73,67.82z"/>
			<path class="st2" d="M50.24,72.25c0.02,0,0.05-0.08,0.04-0.1c-0.03-0.04-0.07-0.1-0.12-0.11c-0.05-0.01-0.11,0.02-0.18,0.03
				c0.04,0.06,0.05,0.13,0.09,0.16C50.12,72.26,50.19,72.26,50.24,72.25z"/>
			<path class="st2" d="M58.01,72.68c0.18,0.12,0.26,0.17,0.35,0.23C58.34,72.7,58.34,72.7,58.01,72.68z"/>
			<path class="st2" d="M46.42,35.97c0.04,0.01,0.08,0.04,0.11,0.03c0.04-0.01,0.08-0.05,0.12-0.08c-0.04-0.03-0.08-0.06-0.14-0.1
				C46.47,35.88,46.44,35.92,46.42,35.97z"/>
			<path class="st2" d="M53.22,11.92c0.02,0.01,0.06-0.01,0.1-0.01c-0.02-0.04-0.04-0.09-0.06-0.13c-0.04,0.02-0.07,0.04-0.1,0.05
				C53.18,11.86,53.2,11.91,53.22,11.92z"/>
			<path class="st2" d="M26.64,11.72c-0.04,0.02-0.09,0.03-0.13,0.05c0.02,0.03,0.04,0.06,0.05,0.08c0.04-0.01,0.07-0.02,0.11-0.03
				C26.66,11.78,26.65,11.75,26.64,11.72z"/>
			<path class="st2" d="M10.95,37.65c0.05-0.01,0.09-0.04,0.14-0.06c-0.03-0.05-0.04-0.08-0.06-0.11c-0.04,0.03-0.09,0.05-0.13,0.09
				C10.89,37.57,10.94,37.66,10.95,37.65z"/>
			<path class="st2" d="M51.11,33.04c0.01-0.03,0.04-0.08,0.03-0.1c-0.01-0.03-0.06-0.04-0.09-0.06c-0.01,0.03-0.04,0.08-0.03,0.1
				C51.03,33.02,51.08,33.03,51.11,33.04z"/>
			<path class="st2" d="M70.47,30.92c0.03,0.01,0.07,0.01,0.11,0.01c-0.02-0.03-0.04-0.06-0.06-0.08c-0.01-0.01-0.05,0.01-0.07,0.02
				C70.45,30.89,70.46,30.92,70.47,30.92z"/>
			<path class="st2" d="M49.07,13.18c0.05-0.01,0.08-0.05,0.16-0.1c-0.08-0.05-0.12-0.07-0.17-0.1c-0.03,0.04-0.06,0.09-0.07,0.13
				C48.99,13.13,49.05,13.18,49.07,13.18z"/>
			<path class="st2" d="M49.59,12.22c-0.01,0.04,0.04,0.08,0.07,0.13c0.04-0.03,0.09-0.06,0.16-0.11c-0.05-0.05-0.09-0.11-0.12-0.11
				C49.66,12.13,49.6,12.18,49.59,12.22z"/>
			<path class="st2" d="M13.84,21.81c0.02-0.01,0.05-0.01,0.05-0.02c0.02-0.07,0.04-0.14,0.06-0.21c-0.05,0-0.1-0.01-0.15-0.01
				c0,0.07,0,0.14,0,0.21C13.8,21.79,13.83,21.8,13.84,21.81z"/>
			<path class="st2" d="M18.38,20.58c-0.07-0.04-0.12-0.09-0.15-0.08c-0.04,0.01-0.07,0.07-0.1,0.11c0.04,0.03,0.08,0.08,0.12,0.08
				C18.28,20.69,18.32,20.63,18.38,20.58z"/>
			<path class="st2" d="M40.78,63.13c0.04-0.06,0.09-0.11,0.08-0.14c-0.01-0.04-0.08-0.09-0.11-0.08c-0.04,0.01-0.09,0.07-0.09,0.11
				C40.65,63.05,40.72,63.08,40.78,63.13z"/>
			<path class="st2" d="M28.45,69.78c-0.03,0.02-0.04,0.09-0.06,0.13c0.03,0.01,0.07,0.04,0.1,0.03c0.04-0.02,0.07-0.06,0.14-0.11
				C28.55,69.8,28.49,69.76,28.45,69.78z"/>
			<path class="st2" d="M15.35,59.03c-0.12,0.07-0.12,0.16,0,0.36C15.35,59.19,15.35,59.12,15.35,59.03z"/>
			<path class="st2" d="M56.36,27.52c-0.01-0.02-0.03-0.06-0.04-0.07c-0.05,0-0.1,0.01-0.23,0.02c0.12,0.04,0.17,0.06,0.22,0.07
				C56.33,27.54,56.34,27.53,56.36,27.52z"/>
			<path class="st2" d="M15.91,45.2c0.01-0.01,0.03-0.03,0.03-0.04c-0.02-0.04-0.04-0.08-0.06-0.13c-0.02,0.02-0.05,0.04-0.09,0.07
				C15.83,45.14,15.87,45.17,15.91,45.2z"/>
			<path class="st2" d="M43.13,48.45c-0.01-0.02-0.01-0.05-0.02-0.05c-0.03,0-0.07,0-0.1,0c0,0.02,0.01,0.05,0.01,0.05
				C43.06,48.46,43.09,48.46,43.13,48.45z"/>
			<path class="st2" d="M64.92,19.86c-0.02,0.01-0.05,0.06-0.04,0.09c0.01,0.02,0.06,0.03,0.09,0.04c0.02-0.03,0.03-0.07,0.05-0.1
				C64.99,19.88,64.95,19.85,64.92,19.86z"/>
			<path class="st2" d="M23.67,42.85c0.05,0,0.11-0.01,0.16-0.02c0-0.02-0.01-0.04-0.01-0.06c-0.06,0.01-0.12,0.03-0.19,0.04
				C23.65,42.82,23.66,42.85,23.67,42.85z"/>
			<path class="st2" d="M15.17,42.23c0.01,0.02,0.02,0.03,0.02,0.05c0.02,0,0.04,0.01,0.05,0c0.01-0.01,0-0.03,0-0.05
				C15.22,42.23,15.2,42.23,15.17,42.23z"/>
			<path class="st2" d="M32.93,51.17c0-0.02,0-0.03,0-0.05c-0.07,0-0.14,0-0.2,0c0,0.02,0,0.03,0,0.05
				C32.79,51.17,32.86,51.17,32.93,51.17z"/>
			<path class="st2" d="M11.17,56.14c-0.02-0.02-0.04-0.04-0.06-0.06c-0.02,0.02-0.04,0.05-0.06,0.07c0.01,0.01,0.03,0.03,0.04,0.03
				C11.11,56.18,11.14,56.16,11.17,56.14z"/>
			<path class="st2" d="M18.6,60.08c0.04,0.01,0.08,0.03,0.12,0.04c0.01,0,0.02-0.05,0.04-0.08C18.72,60.02,18.69,60,18.66,60
				C18.64,60.01,18.62,60.05,18.6,60.08z"/>
			<polygon class="st2" points="18.08,62.71 18.11,62.73 18.11,62.69 			"/>
			<path class="st2" d="M23.54,63.02c0.01,0.03,0.03,0.06,0.04,0.09c0.03-0.01,0.07-0.02,0.1-0.03C23.67,63.05,23.66,63,23.64,63
				C23.61,62.99,23.57,63.01,23.54,63.02z"/>
			<path class="st2" d="M16.93,41.28c0.03,0.03,0.08,0.05,0.13,0.08c0.01-0.05,0.04-0.1,0.03-0.11c-0.04-0.03-0.09-0.05-0.13-0.07
				C16.94,41.22,16.91,41.27,16.93,41.28z"/>
			<path class="st2" d="M13.38,54.36c-0.01,0.03-0.01,0.07-0.02,0.1c0.03-0.01,0.06-0.01,0.09-0.02c-0.01-0.03-0.02-0.07-0.02-0.1
				C13.42,54.34,13.39,54.35,13.38,54.36z"/>
			<path class="st2" d="M32.93,67.16c-0.03,0-0.08,0.01-0.1,0.04c-0.01,0.02,0.01,0.06,0.02,0.1c0.05-0.02,0.09-0.04,0.14-0.07
				C32.97,67.2,32.95,67.16,32.93,67.16z"/>
			<path class="st2" d="M21.45,67.73c-0.03,0.02-0.06,0.05-0.08,0.07c0.03,0.02,0.06,0.06,0.09,0.06c0.03,0,0.06-0.04,0.09-0.06
				C21.51,67.78,21.48,67.76,21.45,67.73z"/>
			<path class="st2" d="M43.47,67.88c0.01,0.03,0.02,0.06,0.04,0.08c0.02-0.02,0.04-0.05,0.07-0.07c-0.02-0.02-0.05-0.04-0.07-0.05
				C43.5,67.84,43.47,67.87,43.47,67.88z"/>
			<path class="st2" d="M49.44,68.68c-0.01-0.02-0.03-0.05-0.04-0.07c-0.03,0.01-0.06,0.03-0.09,0.04c0.01,0.01,0.02,0.04,0.03,0.04
				C49.37,68.69,49.41,68.69,49.44,68.68z"/>
			<path class="st2" d="M38.9,70.72c0,0.03,0.06,0.06,0.09,0.09c0.02-0.05,0.05-0.09,0.07-0.14c-0.03-0.03-0.06-0.05-0.08-0.08
				C38.95,70.64,38.91,70.68,38.9,70.72z"/>
			<path class="st2" d="M53.2,26.52c-0.02-0.03-0.04-0.07-0.07-0.09c-0.02-0.01-0.06,0-0.09,0c0.02,0.04,0.03,0.09,0.06,0.11
				C53.12,26.57,53.17,26.54,53.2,26.52z"/>
			<path class="st2" d="M71.6,16.45c0.03,0.04,0.08,0.06,0.12,0.08c0.01,0,0.04-0.03,0.04-0.04c-0.01-0.05-0.02-0.1-0.04-0.14
				c-0.02-0.02-0.07-0.01-0.11-0.02l0,0.01C71.6,16.38,71.58,16.43,71.6,16.45z"/>
			<path class="st2" d="M59.09,72.68c-0.03,0-0.07,0-0.1,0c0,0.01,0,0.03,0,0.04c0.03,0,0.07,0,0.1,0
				C59.09,72.72,59.09,72.7,59.09,72.68z"/>
			<path class="st2" d="M19.37,41.12c0.02-0.02,0.04-0.04,0.09-0.08c-0.05-0.02-0.09-0.05-0.14-0.06c-0.01,0-0.03,0.02-0.05,0.03
				C19.3,41.05,19.33,41.08,19.37,41.12z"/>
			<path class="st2" d="M51.54,39.97c-0.03,0-0.07,0-0.1,0.01c0.01,0.02,0.03,0.04,0.04,0.06c0.03-0.01,0.06-0.02,0.1-0.03
				C51.56,39.99,51.55,39.97,51.54,39.97z"/>
			<path class="st2" d="M47.19,20.9c0.03,0.02,0.05,0.04,0.08,0.07c0.01-0.01,0.03-0.03,0.03-0.03c-0.02-0.02-0.05-0.04-0.07-0.06
				C47.22,20.87,47.2,20.89,47.19,20.9z"/>
			<path class="st2" d="M47.11,32.38c-0.03-0.01-0.07-0.01-0.1-0.02c0,0.02,0.01,0.05,0.01,0.07c0.03-0.01,0.07-0.01,0.1-0.02
				C47.12,32.4,47.12,32.38,47.11,32.38z"/>
			<path class="st2" d="M46.56,22.3c0.01-0.01,0.04-0.02,0.04-0.03c0.01-0.02,0-0.04,0-0.06c-0.02,0.01-0.05,0.03-0.07,0.04
				C46.54,22.26,46.55,22.28,46.56,22.3z"/>
			<path class="st2" d="M47.24,22.37c0.01,0,0.01-0.02,0.02-0.04c-0.02-0.01-0.03-0.02-0.05-0.02c-0.01,0-0.01,0.02-0.02,0.04
				C47.2,22.37,47.22,22.38,47.24,22.37z"/>
			<path class="st2" d="M24.18,45.28c0.02,0,0.03-0.01,0.05-0.01c0-0.01-0.01-0.02-0.01-0.04c-0.02,0-0.03,0.01-0.05,0.01
				C24.18,45.26,24.18,45.28,24.18,45.28z"/>
			<polygon class="st2" points="22.36,49.7 22.36,49.66 22.32,49.68 			"/>
			<polygon class="st2" points="20.98,50.21 20.97,50.18 20.95,50.21 			"/>
			<path class="st2" d="M23.22,18.29c-0.01-0.01-0.03-0.01-0.04-0.02c-0.01,0.01-0.04,0.02-0.04,0.03c0,0.01,0.01,0.03,0.02,0.04
				C23.18,18.32,23.2,18.31,23.22,18.29z"/>
			<path class="st2" d="M16.63,43.61c0,0.02-0.01,0.03-0.01,0.05c0,0,0.03,0.01,0.04,0.01c0-0.02,0.01-0.03,0.01-0.05
				C16.67,43.61,16.65,43.61,16.63,43.61z"/>
			<path class="st2" d="M32,52.69c-0.03,0.01-0.06,0.03-0.09,0.04c0.01,0.01,0.03,0.04,0.03,0.04c0.03-0.01,0.06-0.02,0.09-0.04
				C32.02,52.72,32.01,52.69,32,52.69z"/>
			<polygon class="st2" points="18.41,58.18 18.38,58.18 18.39,58.22 			"/>
			<path class="st2" d="M16.9,45.33c-0.01,0-0.03,0.02-0.04,0.02c0.02,0.02,0.03,0.04,0.05,0.06c0.01-0.02,0.01-0.03,0.02-0.05
				C16.92,45.36,16.91,45.34,16.9,45.33z"/>
			<path class="st2" d="M18.83,60.98c0.02-0.01,0.03-0.01,0.05-0.02c0-0.01,0-0.04-0.01-0.04c-0.01-0.01-0.03-0.01-0.05-0.01
				C18.82,60.94,18.83,60.96,18.83,60.98z"/>
			<path class="st2" d="M24.33,60.99c0.03-0.02,0.06-0.03,0.1-0.05c-0.01-0.02-0.02-0.04-0.04-0.04c-0.03,0-0.07,0.01-0.1,0.02
				C24.3,60.94,24.31,60.96,24.33,60.99z"/>
			<polygon class="st2" points="27.68,61.29 27.71,61.3 27.71,61.26 			"/>
			<polygon class="st2" points="38.92,23.43 38.88,23.45 38.92,23.46 			"/>
			<path class="st2" d="M71.47,16.35c0.05,0,0.09-0.01,0.14-0.01c0,0,0-0.01,0-0.01C71.56,16.34,71.52,16.35,71.47,16.35z"/>
			<path class="st2" d="M47.29,26.57c0.01,0,0.03-0.01,0.04-0.01c0-0.02-0.01-0.03-0.01-0.05C47.31,26.53,47.3,26.55,47.29,26.57z"
				/>
			<path class="st2" d="M29.22,15.33c-0.02,0-0.03,0.01-0.05,0.02c0.01,0.01,0.03,0.02,0.04,0.03c0.02-0.01,0.03-0.01,0.05-0.02
				C29.25,15.35,29.24,15.33,29.22,15.33z"/>
			<path class="st2" d="M27.44,26.64c-0.01-0.01-0.03-0.04-0.04-0.04c-0.03,0.01-0.06,0.03-0.09,0.04c0.01,0.01,0.03,0.04,0.04,0.04
				C27.38,26.67,27.41,26.65,27.44,26.64z"/>
			<path class="st2" d="M52.09,27.09c-0.04,0.02-0.07,0.03-0.1,0.05c0.01,0.01,0.03,0.04,0.04,0.03c0.03-0.01,0.06-0.03,0.1-0.04
				C52.11,27.12,52.1,27.1,52.09,27.09z"/>
			<polygon class="st2" points="25.99,63.42 26.04,63.41 26,63.38 			"/>
			<path class="st2" d="M34.88,63.4c0.02,0.02,0.04,0.05,0.07,0.05c0.02,0,0.04-0.04,0.06-0.06c-0.03-0.01-0.06-0.02-0.1-0.03
				C34.9,63.36,34.88,63.4,34.88,63.4z"/>
			<path class="st2" d="M29.84,13.26c0.01,0.01,0.02,0.03,0.03,0.04c0.02-0.02,0.05-0.03,0.07-0.05c-0.02-0.01-0.03-0.01-0.05-0.02
				C29.87,13.25,29.86,13.26,29.84,13.26z"/>
			<path class="st2" d="M13.52,51.38c-0.02-0.01-0.03-0.01-0.05-0.01c-0.01,0-0.01,0.02-0.02,0.03c0.02,0.01,0.03,0.01,0.05,0.01
				C13.51,51.41,13.51,51.39,13.52,51.38z"/>
			<path class="st2" d="M42.66,12.56c-0.01,0.01-0.03,0.03-0.03,0.04c0,0.02,0.01,0.03,0.02,0.05c0.01-0.01,0.02-0.03,0.03-0.04
				C42.67,12.59,42.66,12.57,42.66,12.56z"/>
			<polygon class="st2" points="50.35,27.92 50.39,27.93 50.37,27.88 			"/>
			<path class="st2" d="M46.67,12.21c0,0.02,0.01,0.03,0.01,0.05c0.01,0,0.02-0.01,0.03-0.01c0-0.02-0.01-0.03-0.01-0.05
				C46.7,12.2,46.67,12.2,46.67,12.21z"/>
			<path class="st2" d="M18.1,64.29c0,0,0.03-0.02,0.04-0.03c-0.01-0.01-0.02-0.04-0.03-0.04c-0.02,0-0.04,0-0.05,0.01
				C18.07,64.25,18.08,64.27,18.1,64.29z"/>
			<path class="st2" d="M29.22,66.36c0.02,0,0.03-0.01,0.05-0.02c-0.01-0.01-0.03-0.03-0.04-0.03c-0.02,0-0.03,0.01-0.05,0.02
				C29.19,66.34,29.2,66.36,29.22,66.36z"/>
			<path class="st2" d="M64.58,9.77c-0.01,0.03-0.03,0.06-0.04,0.1c0,0.01,0.03,0.02,0.04,0.03c0.01-0.03,0.03-0.06,0.04-0.1"/>
			<path class="st2" d="M18.07,47.61c-0.02,0.02-0.06,0.05-0.05,0.07c0,0.03,0.04,0.05,0.06,0.07c0.01-0.03,0.03-0.07,0.03-0.1
				C18.11,47.64,18.08,47.62,18.07,47.61z"/>
			<path class="st2" d="M53.13,24.18c-0.02-0.01-0.03-0.01-0.05-0.02c0,0.01-0.01,0.03-0.01,0.04c0.02,0,0.03,0.01,0.05,0.01
				C53.12,24.21,53.12,24.19,53.13,24.18z"/>
			<path class="st2" d="M38.84,67.91c-0.04-0.01-0.07-0.04-0.1-0.03c-0.02,0-0.04,0.04-0.05,0.07c0.03,0.01,0.06,0.03,0.09,0.03
				C38.81,67.97,38.82,67.94,38.84,67.91z"/>
			<polygon class="st2" points="39.82,29.09 39.79,29.07 39.78,29.1 			"/>
			<path class="st2" d="M13.88,55.97c0.02,0,0.03,0,0.04,0c0.01-0.01,0.01-0.03,0.01-0.04c-0.01-0.01-0.03-0.01-0.04-0.02
				C13.89,55.92,13.88,55.95,13.88,55.97z"/>
			<path class="st2" d="M13.94,57.79c0.01-0.02,0.02-0.03,0.02-0.05c-0.01-0.01-0.02-0.04-0.03-0.04c-0.01,0-0.03,0.02-0.04,0.03
				C13.91,57.75,13.92,57.77,13.94,57.79z"/>
			<path class="st2" d="M56.81,21.24c0,0.02,0.01,0.03,0.01,0.05c0.02-0.01,0.05-0.03,0.07-0.04c-0.01-0.01-0.03-0.03-0.04-0.03
				C56.84,21.21,56.82,21.23,56.81,21.24z"/>
			<polygon class="st2" points="24.32,70.37 24.31,70.4 24.36,70.39 			"/>
			<path class="st2" d="M22.09,20.27c-0.01-0.02-0.02-0.04-0.03-0.04c-0.03,0-0.07,0.02-0.1,0.03c0.01,0.01,0.03,0.04,0.04,0.04
				C22.02,20.29,22.05,20.28,22.09,20.27z"/>
			<path class="st2" d="M48.44,20.87c0.01,0.01,0.03,0.04,0.04,0.04c0.03-0.01,0.07-0.02,0.1-0.04c-0.01-0.01-0.03-0.04-0.04-0.04
				C48.5,20.83,48.47,20.85,48.44,20.87z"/>
			<path class="st2" d="M18.61,31.81c0.02,0,0.04,0,0.05-0.01c0.01-0.01,0.01-0.03,0.01-0.04c-0.02-0.01-0.03-0.02-0.05-0.02
				C18.61,31.76,18.61,31.78,18.61,31.81z"/>
			<path class="st2" d="M52.08,72.96c-0.04-0.01-0.06-0.01-0.08-0.02c0,0.01,0.01,0.03,0.01,0.03
				C52.03,72.98,52.04,72.97,52.08,72.96z"/>
			<polygon class="st2" points="22.6,34.22 22.6,34.25 22.64,34.24 			"/>
			<path class="st2" d="M39.99,35.18c0-0.02-0.01-0.03-0.02-0.05c-0.01,0.01-0.03,0.03-0.03,0.04c0,0.01,0.01,0.03,0.02,0.05
				C39.97,35.21,39.99,35.2,39.99,35.18z"/>
			<polygon class="st2" points="49.59,35.81 49.54,35.82 49.58,35.84 			"/>
			<path class="st2" d="M21.19,40.12c0,0.01-0.01,0.03-0.01,0.04c0.02-0.01,0.03-0.02,0.05-0.03
				C21.22,40.13,21.21,40.12,21.19,40.12z"/>
			<path class="st2" d="M26.93,40.62c-0.01-0.01-0.03-0.04-0.03-0.04c-0.03,0.01-0.05,0.03-0.08,0.04c0.03,0.01,0.05,0.03,0.08,0.04
				C26.9,40.66,26.92,40.63,26.93,40.62z"/>
		</g>
		<g>
			<path class="st2" d="M62.16,73.05c0.13,0.16,0.29,0.35,0.47,0.4c0.17,0.05,0.38-0.07,0.62-0.12c-0.23-0.3-0.42-0.55-0.65-0.84
				c-0.14,0.08-0.3,0.15-0.41,0.26C62.13,72.8,62.11,72.99,62.16,73.05z"/>
			<path class="st2" d="M65.19,43.68c0,0.01,0.01,0.01,0.01,0.02c0,0,0-0.01,0.01-0.01c0,0.01-0.01,0.01-0.01,0.01
				c0.01,0,0.02,0,0.03,0c0-0.01-0.01-0.01-0.01-0.02l0,0C65.21,43.68,65.2,43.68,65.19,43.68z"/>
			<path class="st2" d="M68.48,23.62c0.28-0.05,0.55-0.09,0.82-0.14c-0.15-0.23-0.29-0.46-0.44-0.71
				C68.44,22.97,68.28,23.19,68.48,23.62z"/>
			<path class="st2" d="M72.52,61.18c-0.36-0.3-0.6-0.05-0.91,0.24c0.31,0.14,0.57,0.26,0.83,0.38
				C72.64,61.3,72.65,61.28,72.52,61.18z"/>
			<path class="st2" d="M60.96,60.72c0.7-0.36,0.7-0.36,0.48-0.84C61.05,59.98,60.96,60.28,60.96,60.72z"/>
			<path class="st2" d="M62.47,75c-0.14-0.22-0.32-0.26-0.49-0.13c-0.1,0.07-0.13,0.23-0.19,0.35c0.13,0.03,0.28,0.11,0.38,0.07
				C62.29,75.25,62.38,75.1,62.47,75z"/>
			<path class="st2" d="M75.74,58.01c0.29-0.07,0.54-0.12,0.89-0.2C75.88,57.6,75.88,57.6,75.74,58.01z"/>
			<path class="st2" d="M10.98,48.09c-0.34-0.39-0.34-0.39-0.87-0.35C10.58,48.36,10.58,48.36,10.98,48.09z"/>
			<path class="st2" d="M68.29,64.43c-0.08-0.03-0.24,0.09-0.32,0.19c-0.05,0.06-0.02,0.19-0.03,0.49c0.21-0.21,0.3-0.27,0.34-0.35
				C68.34,64.65,68.51,64.51,68.29,64.43z"/>
			<path class="st2" d="M80.23,29.6c-0.42,0.14-0.42,0.14-0.29,0.71C80.51,30.25,80.05,29.83,80.23,29.6z"/>
			<path class="st2" d="M56.71,75.16c0.02,0.04,0.04,0.07,0.06,0.11c0.17-0.04,0.35-0.06,0.5-0.13c0.06-0.03,0.08-0.16,0.11-0.24
				c-0.06-0.02-0.15-0.09-0.19-0.06C57.02,74.93,56.87,75.05,56.71,75.16z"/>
			<path class="st2" d="M66.74,58.26c-0.13,0.01-0.26,0.08-0.4,0.13c0,0.07,0,0.13,0.01,0.2c0.13,0.02,0.26,0.05,0.39,0.06
				c0.15,0,0.31-0.03,0.25-0.23C66.96,58.33,66.82,58.25,66.74,58.26z"/>
			<path class="st2" d="M65.47,60.62c0.05-0.03,0.1-0.04,0.11-0.07c0.04-0.1,0.1-0.21,0.08-0.29c-0.05-0.16-0.39-0.24-0.46-0.12
				c-0.04,0.07-0.02,0.21,0.02,0.29C65.28,60.51,65.39,60.56,65.47,60.62z"/>
			<path class="st2" d="M65.96,43.59c-0.29,0.04-0.51,0.08-0.73,0.11C65.49,44.12,65.5,44.11,65.96,43.59z"/>
			<path class="st2" d="M79.21,36.1c0,0.05,0.07,0.1,0.11,0.16c0.06-0.07,0.14-0.13,0.18-0.22c0.01-0.03-0.07-0.1-0.23-0.3
				C79.24,35.91,79.21,36.01,79.21,36.1z"/>
			<path class="st2" d="M47.04,45.7c-0.06-0.01-0.16-0.05-0.18-0.02c-0.06,0.06-0.09,0.16-0.14,0.24c0.06,0.01,0.12,0.03,0.2,0.04
				C46.96,45.87,47,45.78,47.04,45.7z"/>
			<path class="st2" d="M70.34,48.79c0.41,0.19,0.41,0.19,0.66-0.15C70.77,48.69,70.59,48.73,70.34,48.79z"/>
			<path class="st2" d="M78.92,38.27c-0.01-0.04-0.15-0.05-0.23-0.08c-0.02,0.09-0.05,0.19-0.05,0.28c0,0.02,0.12,0.04,0.21,0.06
				C78.88,38.44,78.93,38.35,78.92,38.27z"/>
			<path class="st2" d="M13.93,57.57c0.24,0.18,0.41,0.09,0.58-0.13C14.24,57.29,14.07,57.37,13.93,57.57z"/>
			<path class="st2" d="M66.01,46.26c-0.25,0.1-0.38,0.12-0.48,0.19c-0.04,0.03-0.04,0.13-0.05,0.19c0.09,0.01,0.2,0.04,0.25,0.01
				C65.82,46.59,65.86,46.48,66.01,46.26z"/>
			<path class="st2" d="M62.9,47.66c0.03,0.07,0.09,0.18,0.14,0.18c0.08,0,0.16-0.07,0.29-0.14c-0.13-0.07-0.21-0.14-0.3-0.16
				C63,47.54,62.89,47.64,62.9,47.66z"/>
			<path class="st2" d="M15.5,61.81c0.1,0.07,0.2,0.14,0.34,0.24c0.08-0.16,0.17-0.25,0.17-0.34c-0.02-0.22-0.2-0.17-0.33-0.12
				C15.6,61.62,15.56,61.74,15.5,61.81z"/>
			<path class="st2" d="M70.2,47.41c-0.12,0.04-0.24,0.09-0.37,0.13c0.03,0.06,0.09,0.17,0.09,0.17c0.11-0.05,0.22-0.11,0.33-0.16
				C70.24,47.5,70.22,47.46,70.2,47.41z"/>
			<path class="st2" d="M11.66,38.89c-0.02,0.14,0.21,0.34,0.35,0.3c0.04-0.01,0.05-0.11,0.11-0.22c-0.11-0.06-0.21-0.13-0.33-0.18
				C11.76,38.78,11.67,38.85,11.66,38.89z"/>
			<path class="st2" d="M70.93,56.02c0.08-0.04,0.14-0.14,0.2-0.21c-0.09-0.03-0.17-0.06-0.31-0.11c-0.04,0.11-0.07,0.19-0.1,0.27
				C70.8,55.99,70.89,56.04,70.93,56.02z"/>
			<path class="st2" d="M72.54,55.98c0.21-0.05,0.37-0.08,0.52-0.12C72.87,55.76,72.68,55.69,72.54,55.98z"/>
			<path class="st2" d="M77.08,42.37c0.07,0,0.14,0.03,0.19,0c0.04-0.02,0.05-0.11,0.08-0.17c-0.06,0-0.14-0.03-0.18-0.01
				C77.13,42.23,77.11,42.31,77.08,42.37z"/>
			<path class="st2" d="M59.83,47.33c-0.03-0.01-0.07-0.05-0.09-0.04c-0.04,0.02-0.06,0.06-0.09,0.1c0.03,0,0.06,0,0.1,0
				C59.78,47.37,59.81,47.35,59.83,47.33z"/>
			<path class="st2" d="M72.35,45.71c-0.1-0.01-0.18-0.04-0.21-0.01c-0.05,0.04-0.08,0.12-0.09,0.18c0,0.01,0.13,0.08,0.14,0.07
				C72.25,45.89,72.29,45.81,72.35,45.71z"/>
			<path class="st2" d="M54.4,51.33c0.03-0.01,0.05-0.03,0.08-0.04c0-0.04,0.01-0.07,0.01-0.11c-0.04,0.02-0.09,0.03-0.12,0.05
				C54.36,51.24,54.39,51.3,54.4,51.33z"/>
			<path class="st2" d="M65.56,55.17c-0.13,0.01-0.23,0.01-0.33,0.02c-0.02,0-0.03,0.06-0.05,0.09c0.09,0.02,0.18,0.05,0.27,0.04
				C65.48,55.32,65.51,55.24,65.56,55.17z"/>
			<path class="st2" d="M66.83,59.64c-0.11,0.04-0.21,0.09-0.31,0.13c0.02,0.04,0.03,0.08,0.05,0.12c0.11-0.04,0.22-0.08,0.33-0.13
				C66.87,59.73,66.84,59.64,66.83,59.64z"/>
			<path class="st2" d="M54.88,63.36c-0.04-0.05-0.08-0.12-0.13-0.14c-0.03-0.01-0.1,0.05-0.15,0.08c0.05,0.06,0.1,0.13,0.16,0.19
				C54.8,63.44,54.84,63.4,54.88,63.36z"/>
			<path class="st2" d="M72.04,62.71c-0.06-0.01-0.13-0.01-0.19-0.02c-0.02,0.02-0.05,0.05-0.07,0.07c0.05,0.03,0.11,0.08,0.16,0.07
				C71.97,62.83,72,62.76,72.04,62.71z"/>
			<path class="st2" d="M58.69,45.61c-0.05-0.07-0.11-0.17-0.12-0.17c-0.08,0.04-0.17,0.09-0.23,0.16c-0.01,0.01,0.07,0.11,0.1,0.17
				C58.53,45.72,58.61,45.67,58.69,45.61z"/>
			<path class="st2" d="M56.25,66.36c0,0.03-0.01,0.05-0.01,0.08c0.02-0.02,0.05-0.04,0.07-0.07
				C56.29,66.37,56.27,66.37,56.25,66.36z"/>
			<path class="st2" d="M64.89,63.82c0.03,0.03,0.06,0.07,0.1,0.09c0.01,0,0.04-0.04,0.07-0.07c-0.02-0.02-0.04-0.05-0.07-0.05
				C64.96,63.79,64.93,63.81,64.89,63.82z"/>
			<path class="st2" d="M63.06,61.37c0.05-0.01,0.08-0.08,0.11-0.12c-0.06-0.01-0.12-0.02-0.18-0.02c-0.02,0-0.04,0.05-0.06,0.07
				C62.97,61.33,63.03,61.38,63.06,61.37z"/>
			<path class="st2" d="M50.91,59.36c0,0.05,0.01,0.11,0.02,0.16c0.05-0.02,0.09-0.04,0.14-0.06c-0.03-0.05-0.07-0.1-0.1-0.15
				C50.95,59.32,50.91,59.34,50.91,59.36z"/>
			<path class="st2" d="M54.82,58.21c-0.02,0.03-0.06,0.06-0.05,0.08c0.02,0.05,0.06,0.09,0.09,0.13c0.03-0.04,0.06-0.08,0.09-0.12
				C54.91,58.27,54.87,58.24,54.82,58.21z"/>
			<path class="st2" d="M73.66,50.09c-0.03,0.01-0.05,0.03-0.08,0.04c0.01,0.02,0.03,0.06,0.04,0.06c0.03,0,0.05-0.02,0.08-0.03
				C73.68,50.14,73.67,50.12,73.66,50.09z"/>
			<polygon class="st2" points="68.86,49.89 68.93,49.84 68.85,49.83 			"/>
			<path class="st2" d="M66.88,47.08c0.04,0.01,0.08,0.01,0.12,0.02c-0.01-0.02-0.03-0.04-0.04-0.06
				C66.93,47.05,66.9,47.06,66.88,47.08z"/>
			<polygon class="st2" points="49.7,50.79 49.6,50.78 49.62,50.85 			"/>
			<path class="st2" d="M63.51,46.69c0.01,0.02,0.02,0.06,0.03,0.06c0.03,0.01,0.06,0,0.09,0c-0.02-0.03-0.03-0.07-0.05-0.1
				C63.56,46.66,63.54,46.68,63.51,46.69z"/>
			<path class="st2" d="M62.82,44.87c-0.02-0.04-0.04-0.07-0.05-0.11c-0.03,0.02-0.05,0.04-0.08,0.05c0.01,0.02,0.02,0.05,0.04,0.06
				C62.76,44.89,62.79,44.88,62.82,44.87z"/>
			<polygon class="st2" points="63.58,42.6 63.66,42.56 63.57,42.53 			"/>
			<path class="st2" d="M67.19,40.12c0.06,0.01,0.13,0.03,0.19,0.03c0.02,0,0.04-0.05,0.06-0.08c-0.07-0.01-0.13-0.03-0.2-0.04"/>
		</g>
	</g>
</g>
<g>
	<rect x="24.81" y="33.67" class="st2" width="8.7" height="27.56"/>
	<path class="st2" d="M29.16,22.06c-2.61,0-4.35,1.55-4.35,3.58c0,2.03,1.74,3.67,4.35,3.67c2.73,0,4.35-1.64,4.35-3.67
		C33.41,23.62,31.77,22.06,29.16,22.06z"/>
	<path class="st2" d="M54.99,33.67c-5.63,0-8.43,3.71-8.43,3.71v-3.71h-8.7v27.56h8.7c0,0,0-13.18,0-14.5
		c0-2.87,1.45-5.86,4.96-5.86h0.12c3.63,0.06,5.08,2.96,5.08,5.86c0,1.07,0,14.5,0,14.5h8.7V45.65
		C65.42,37.63,60.75,33.67,54.99,33.67z"/>
</g>
<path class="st2" d="M134.23,62.77c0.67-0.29,1.14-0.95,1.14-1.73v-5.09c0-0.19,0.02-0.38,0.04-0.57c-0.01,0-0.03,0.01-0.04,0.01
	c0,0-2.83,0-3.39,0c-1.41,0-2.64-0.57-3.2-1.7c-0.66-1.23-0.94-3.3-2.64-4.43c-0.28-0.19-0.09-0.47,0.47-0.47
	c0.57,0.09,1.79,0.85,2.54,1.88c0.85,1.04,1.7,1.88,3.2,1.88c2.34,0,3.6-0.12,4.36-0.52c0.88-1.31,2.1-2.3,3.37-2.3v-0.02
	c-5.34-0.17-8.75-1.95-10.34-4.69c-3.45,0.04-6.46,0.38-8.18,0.67c-0.05-0.31-0.1-0.62-0.14-0.93c1.69-0.28,4.56-0.61,7.86-0.67
	c-0.11-0.26-0.2-0.53-0.27-0.8c-3.31-0.17-6.16-0.04-7.72,0.09c-0.02-0.31-0.04-0.62-0.05-0.94c1.55-0.13,4.33-0.25,7.56-0.1
	c-0.07-0.47-0.12-0.95-0.12-1.45c0-1.6,0.57-3.3,1.6-4.71c-0.47-1.6-1.13-4.99,0.19-6.22c2.54,0,4.34,1.23,5.18,1.98
	c1.6-0.66,3.39-1.04,5.37-1.04c1.98,0,3.77,0.38,5.28,1.04c0.85-0.75,2.64-1.98,5.18-1.98c1.41,1.32,0.66,4.71,0.19,6.22
	c1.04,1.41,1.6,3.02,1.51,4.71c0,0.46-0.04,0.9-0.1,1.33c3.3-0.16,6.15-0.03,7.73,0.1c0,0.32-0.03,0.63-0.05,0.94
	c-1.57-0.13-4.5-0.26-7.88-0.08c-0.08,0.32-0.19,0.62-0.31,0.92c3.34,0.04,6.28,0.37,8.06,0.65c-0.04,0.31-0.09,0.62-0.14,0.93
	c-1.8-0.29-4.87-0.63-8.37-0.64c-1.57,2.71-4.92,4.48-10.16,4.69v0.03c2.45,0,4.71,3.68,4.71,6.22v5.09c0,0.78,0.47,1.44,1.14,1.73
	c8.63-2.86,14.88-11,14.88-20.58c0-11.95-9.72-21.68-21.68-21.68s-21.68,9.72-21.68,21.68C119.35,51.77,125.6,59.91,134.23,62.77z"
	/>
</svg>
