<?xml version="1.0" encoding="utf-8"?>
<!-- Generator: Adobe Illustrator 26.0.1, SVG Export Plug-In . SVG Version: 6.00 Build 0)  -->
<svg version="1.1" id="Слой_1" xmlns="http://www.w3.org/2000/svg" xmlns:xlink="http://www.w3.org/1999/xlink" x="0px" y="0px"
	 viewBox="0 0 62.4 40" style="enable-background:new 0 0 62.4 40;" xml:space="preserve">
<style type="text/css">
	.st0{fill:#723F12;}
</style>
<g>
	<g>
		<g>
			<path class="st0" d="M240.2,7.2c-0.1-1.7-0.5-3.3-1-4.9c0-0.1,0.2-2.1,1.1-2.9c0.1-0.1,0.1-0.2,0-0.3C240.2-1,240.2-1,240.1-1
				c-1.2,0.2-2.9-1.2-2.9-1.2l0,0c-0.6-1-1.2-1.9-1.9-2.8c0,0,0,0,0-0.1l0.9-3.9c0-0.1,0-0.1-0.1-0.2c-0.1-0.1-0.1-0.1-0.2-0.1
				l-3.9,1l0,0c-1.1-0.9-2.2-1.6-3.4-2.3c-0.1-0.1-1.3-1.7-1.2-2.9c0-0.1-0.1-0.2-0.1-0.2c-0.1,0-0.2,0-0.2,0.1
				c-0.7,0.9-2.9,1.1-2.9,1.1l0,0c-1.4-0.3-2.9-0.5-4.4-0.7l-1.6-8.5c0-0.1-0.1-0.2-0.2-0.2c-0.1,0-0.2,0.1-0.2,0.2l-1.6,8.5
				c-1.5,0.1-2.9,0.4-4.3,0.8l0,0c0,0-2.2-0.2-2.9-1.1c-0.1-0.1-0.2-0.1-0.2-0.1c-0.1,0-0.1,0.1-0.1,0.2c0.1,1.2-1.1,2.8-1.2,2.9
				c-1.2,0.7-2.3,1.4-3.4,2.3l0,0l-3.9-1c-0.1,0-0.1,0-0.2,0.1c-0.1,0.1-0.1,0.1-0.1,0.2l0.9,3.9l0,0c-0.7,0.9-1.4,1.8-1.9,2.8h-0.1
				c0,0-1.7,1.4-2.9,1.2c-0.1,0-0.2,0-0.2,0.1s0,0.2,0,0.3c0.9,0.9,1.1,2.9,1.1,3l0,0c-0.5,1.6-0.8,3.2-0.9,4.9l-8.7,1.6
				c-0.1,0-0.2,0.1-0.2,0.2s0.1,0.2,0.2,0.2l8.5,1.6c0.1,1.7,0.5,3.3,0.9,4.9l0,0c0,0-0.2,2.1-1.1,3c-0.1,0.1-0.1,0.2,0,0.3
				c0,0.1,0.1,0.1,0.2,0.1c1.2-0.2,2.9,1.2,2.9,1.2h0.1c0.6,1,1.2,1.8,1.9,2.7l-0.9,3.8c0,0.1,0,0.1,0.1,0.2c0,0,0.1,0.1,0.2,0.1
				c0,0,0,0,0.1,0l3.7-0.9c1.1,0.9,2.3,1.7,3.6,2.4c0.1,0.1,1.3,1.7,1.2,2.9c0,0.1,0.1,0.2,0.1,0.2h0.1c0.1,0,0.1,0,0.2-0.1
				c0.7-0.9,2.9-1.1,2.9-1.1l0,0c1.4,0.4,2.8,0.7,4.3,0.8l1.6,8.5c0,0.1,0.1,0.2,0.2,0.2c0.1,0,0.2-0.1,0.2-0.2l1.6-8.5
				c1.5-0.1,2.9-0.4,4.3-0.8l0,0c0,0,2.2,0.2,2.9,1.1c0,0.1,0.1,0.1,0.2,0.1h0.1c0.1,0,0.1-0.1,0.1-0.2c-0.1-1.2,1.1-2.8,1.2-2.9
				c1.3-0.7,2.5-1.5,3.6-2.5l3.7,0.9c0,0,0,0,0.1,0c0.1,0,0.1,0,0.2-0.1c0.1-0.1,0.1-0.1,0.1-0.2l-0.9-3.9c0.7-0.8,1.3-1.7,1.8-2.7
				c0,0,0,0,0.1,0c0,0,1.7-1.4,2.9-1.2c0.1,0,0.2,0,0.2-0.1s0-0.2,0-0.3c-0.9-0.8-1.1-2.9-1.1-2.9c0.5-1.6,0.8-3.2,1-4.9l8.5-1.6
				c0.1,0,0.2-0.1,0.2-0.2s-0.1-0.2-0.2-0.2L240.2,7.2z M198.2,19.5c-0.5-0.3-1.3-0.8-2.1-0.9c0.4-0.6,0.7-1.4,0.8-2
				C197.3,17.6,197.7,18.5,198.2,19.5L198.2,19.5z M198.2-1.4v0.1c-0.5,0.9-0.9,1.8-1.2,2.8c-0.1-0.6-0.4-1.4-0.8-2
				C196.9-0.6,197.7-1,198.2-1.4z M200.2-8.7l3.4,0.8l1.4,4.1L200.2-8.7L200.2-8.7z M235.8-8.7L235.8-8.7l-4.8,5l1.4-4.1L235.8-8.7z
				 M238,10.4c1.5-0.2,2.9-0.4,4.4-0.6c-1.4,0.3-2.9,0.6-4.3,0.9c-0.7,0.1-1.5,0.3-2.2,0.4l-2.2,0.4l-2.2,0.4
				c-0.7,0.1-1.5,0.2-2.2,0.4c-1.5,0.2-2.9,0.4-4.4,0.6c1.4-0.3,2.9-0.6,4.3-0.9c0.7-0.1,1.4-0.3,2.2-0.4l2.2-0.4l2.2-0.4
				C236.6,10.6,237.3,10.5,238,10.4z M219.2,30.6c0.1-0.8,0.3-1.6,0.4-2.4l0.4-2.4l0.4-2.4c0.2-0.8,0.3-1.6,0.5-2.4
				c0.3-1.6,0.6-3.2,1-4.8c-0.2,1.6-0.5,3.2-0.7,4.8c-0.1,0.8-0.3,1.6-0.4,2.4l-0.4,2.4l-0.4,2.4c-0.2,0.8-0.3,1.6-0.5,2.4
				c-0.3,1.6-0.6,3.2-1,4.8C218.7,33.8,219,32.2,219.2,30.6z M198.4,10.4l2.4,0.4l2.4,0.4c0.8,0.1,1.6,0.3,2.4,0.4
				c1.6,0.3,3.2,0.6,4.8,0.9c-1.6-0.2-3.3-0.4-4.9-0.7c-0.8-0.1-1.6-0.2-2.4-0.4l-2.3-0.3l-2.4-0.4c-0.8-0.1-1.6-0.3-2.4-0.4
				c-1.6-0.3-3.2-0.6-4.8-0.9c1.6,0.2,3.3,0.4,4.9,0.7C196.8,10.1,197.6,10.2,198.4,10.4z M202.1-5c0.3,0.1,0.5,0.2,0.8,0.3
				c0.3,0.1,0.5,0.2,0.8,0.4l0.4,0.2c0.1,0.1,0.3,0.1,0.4,0.2c-0.1,0-0.3-0.1-0.4-0.1l-0.4-0.2c-0.3-0.1-0.5-0.2-0.8-0.3
				C202.6-4.6,202.3-4.8,202.1-5c-0.3,0-0.6-0.2-0.8-0.3C201.5-5.2,201.8-5.1,202.1-5z M219.3-10.4l-0.3-1.9c0-0.5-0.1-1.2-0.2-1.8
				c-0.2-1.2-0.3-2.5-0.4-3.7c0.3,1.2,0.5,2.5,0.7,3.7c0.1,0.6,0.2,1.2,0.3,1.8l0.3,1.8l0.3,1.9c0.1,0.6,0.2,1.2,0.3,1.9
				c0.2,1.2,0.3,2.5,0.4,3.7c-0.3-1.2-0.5-2.5-0.7-3.7c-0.1-0.6-0.2-1.2-0.3-1.8L219.3-10.4z M233.9-5c0.3-0.1,0.5-0.2,0.8-0.3
				C234.5-5.1,234.2-5,233.9-5c-0.2,0.2-0.5,0.3-0.8,0.4s-0.5,0.2-0.8,0.3l-0.4,0.2c-0.1,0-0.3,0.1-0.4,0.1c0.1-0.1,0.3-0.1,0.4-0.2
				l0.4-0.2c0.3-0.1,0.5-0.2,0.8-0.4C233.4-4.7,233.7-4.8,233.9-5z M234.6,16.6l-7-2.4l6.7,3.1c-0.8,1.5-1.7,2.9-2.8,4.1l-0.7-0.3
				c-0.1,0-0.2,0-0.2,0c-0.1,0.1-0.1,0.1-0.1,0.2l0.3,0.8c-1,1-2.2,1.9-3.5,2.6l-4-7.1l3.3,7.4c-1.8,1-3.8,1.7-5.9,2l2.1-11.1
				l6.8,4.6h0.1c0.1,0,0.1,0,0.2-0.1c0.1-0.1,0.1-0.2,0-0.3l-4.6-6.5l10.8-2.1C235.8,13.4,235.3,15.1,234.6,16.6z M208.8,24.8
				c-1.3-0.7-2.4-1.6-3.5-2.6l0.3-0.9c0-0.1,0-0.2-0.1-0.2c-0.1-0.1-0.1-0.1-0.2,0l-0.8,0.3c-1.1-1.2-2.1-2.6-2.8-4.1l6.7-3.1
				l-7,2.4c-0.7-1.5-1.1-3.2-1.4-4.9l11,2.1l-4.6,6.5c-0.1,0.1-0.1,0.2,0,0.3c0,0,0.1,0.1,0.2,0.1h0.1l6.6-4.4l2.1,11
				c-2.1-0.3-4.1-1-5.9-2l3.3-7.4L208.8,24.8z M197.5,6.6c0.3-1.9,0.8-3.9,1.7-5.6c-0.7,1.9-1.1,3.9-1.2,5.9h-0.6
				C197.4,6.8,197.4,6.7,197.5,6.6z M199.3,1.9c-0.5,1.6-0.8,3.2-0.9,4.8l-0.5,0.1C198.2,5.1,198.6,3.5,199.3,1.9z M199.5,2.9
				c-0.4,1.2-0.5,2.5-0.6,3.7l-0.4,0.1C198.7,5.4,199,4.1,199.5,2.9z M199.8,3.9c-0.2,0.9-0.3,1.8-0.4,2.7L199,6.7
				C199.2,5.7,199.4,4.7,199.8,3.9z M201.3,1.6l7,2.4l-6.6-3.1c0.8-1.6,1.8-3,3-4.3l0.7,0.2c0,0,0,0,0.1,0c0.1,0,0.1,0,0.2-0.1
				s0.1-0.1,0.1-0.2l-0.4-0.6c1-1,2.2-1.8,3.4-2.5l4,7.1l-3.3-7.4c1.8-1,3.8-1.7,5.9-2l-2.1,11.1l-6.6-4.4c-0.1-0.1-0.2,0-0.3,0
				c-0.1,0.1-0.1,0.2,0,0.3l4.5,6.3L200,6.5C200.2,4.7,200.6,3.1,201.3,1.6z M211.3-9.7c-0.5,0.2-1.1,0.4-1.6,0.7
				c-0.5,0.2-1,0.5-1.5,0.8c-0.5,0.3-1,0.6-1.5,0.8c0.5-0.3,0.9-0.7,1.4-1s1-0.6,1.5-0.8s1.1-0.5,1.6-0.6c0.6-0.2,1.1-0.3,1.7-0.4
				C212.4-10.1,211.9-9.9,211.3-9.7z M212-9.4c-0.4,0.2-0.7,0.3-1.1,0.5s-0.7,0.3-1.1,0.5c-0.4,0.2-0.7,0.3-1.1,0.5
				c-0.3,0.2-0.7,0.3-1.1,0.5c0.3-0.2,0.6-0.4,1-0.6c0.3-0.2,0.7-0.4,1-0.5c0.4-0.2,0.7-0.3,1.1-0.4C211.3-9.2,211.6-9.3,212-9.4z
				 M213.9-11.2c-0.7,0.2-1.5,0.5-2.2,0.7c-0.7,0.3-1.4,0.6-2.1,0.9c-0.7,0.3-1.4,0.7-2,1.1c-0.7,0.4-1.3,0.8-2,1.2
				c0.6-0.5,1.3-0.9,1.9-1.3c0.7-0.4,1.3-0.8,2-1.1c0.7-0.3,1.4-0.6,2.2-0.8C212.4-10.9,213.1-11.1,213.9-11.2z M212.4,4.9
				c-0.1,0.1-0.2,0.2-0.3,0.3L208.3,0L212.4,4.9z M213,4.1l-5.6-5.4l6.7,4.5C213.7,3.5,213.3,3.8,213,4.1z M218,2.5
				c1.8,0,3.5,0.7,4.7,1.9c-0.1-0.1-0.2-0.1-0.2-0.2c-0.1-0.1-0.2-0.2-0.3-0.2c-0.1-0.1-0.2-0.1-0.3-0.2c-0.4-0.2-0.9-0.4-1.4-0.5
				c0.2,0.1,0.4,0.2,0.6,0.4l0.2,0.1l0.1,0.1c0.1,0.1,0.2,0.1,0.3,0.2c0.4,0.3,0.7,0.6,1,1c0.1,0.1,0.1,0.2,0.2,0.3l0.1,0.1
				c-0.1-0.1-0.2-0.3-0.3-0.4L222.6,5l-0.3-0.1c-0.1-0.1-0.2-0.2-0.3-0.2l-0.2-0.3l-0.3-0.2c-0.4-0.2-0.8-0.4-1.3-0.6
				c0.4,0.2,0.8,0.5,1.1,0.7c0.4,0.3,0.7,0.6,0.9,1c0.1,0.1,0.1,0.2,0.2,0.3l0.2,0.3c-0.1-0.2-0.2-0.4-0.4-0.5
				c-0.6-0.6-1.4-1.1-2.2-1.4c0.4,0.2,0.7,0.4,1.1,0.7c0.3,0.3,0.6,0.6,0.9,0.9c0.1,0.1,0.2,0.3,0.3,0.5c-0.1-0.2-0.2-0.3-0.3-0.5
				c-0.6-0.6-1.3-1-2.1-1.3c0.7,0.4,1.4,0.9,1.9,1.5c0.1,0.1,0.1,0.2,0.1,0.2c-0.1-0.1-0.1-0.2-0.2-0.2c-0.5-0.6-1.3-1-2-1.2
				c0.5,0.3,0.9,0.7,1.3,1c-0.8-0.7-1.8-1.1-2.9-1.1c-2.5,0-4.5,2-4.5,4.5c0,1.1,0.5,2.1,1.1,2.9c-0.3-0.3-0.6-0.6-0.9-0.9
				c0.2,0.7,0.7,1.4,1.3,1.9c-0.6-0.4-1.1-0.9-1.5-1.5c0.3,0.8,0.9,1.4,1.5,2c0.1,0.1,0.2,0.1,0.4,0.2c-0.1,0-0.1,0-0.2-0.1
				c-0.7-0.4-1.4-1-1.9-1.7c0.4,0.8,1,1.5,1.7,2c0.1,0.1,0.3,0.1,0.4,0.2c-0.1,0-0.2,0-0.2-0.1c-0.8-0.4-1.5-1-2.1-1.7
				c0.4,0.8,1.1,1.5,1.9,2c0.1,0.1,0.2,0.1,0.3,0.1h-0.1l-0.3-0.2c-0.1-0.1-0.2-0.1-0.3-0.2h-0.4l-0.3-0.2l-0.3-0.2
				c-0.1-0.1-0.2-0.2-0.3-0.2l-0.3-0.2c-0.1-0.1-0.2-0.2-0.3-0.3c0.2,0.5,0.4,0.9,0.8,1.3c-1.4-1.2-2.3-3-2.3-4.9
				C211.4,5.5,214.4,2.5,218,2.5z M207.4,19.6l4.7-6.7c0.3,0.4,0.6,0.8,1,1.2L207.4,19.6L207.4,19.6z M210.5,17.3
				c0.7-0.6,1.4-1.2,2.1-1.8l1-0.9c0.1,0.1,0.2,0.2,0.4,0.3c0,0,0,0-0.1,0l-1.2,0.8C212.1,16.3,211.3,16.8,210.5,17.3z M221.4,6.1
				c0.3,0.3,0.5,0.7,0.6,1c-0.2-0.4-0.5-0.8-0.8-1.1C221.3,6,221.3,6,221.4,6.1z M222.4,9.5v0.1v0.3c0,0.1,0,0.2-0.1,0.3
				c0,0,0,0,0,0.1C222.3,10,222.4,9.7,222.4,9.5L222.4,9.5z M221.8,11.5L221.8,11.5l-0.2,0.2l-0.1,0.1c0.1-0.1,0.2-0.3,0.3-0.5V11.5
				z M220.3,12.8c0.1,0,0.1-0.1,0.2-0.1C220.5,12.8,220.4,12.8,220.3,12.8z M218.4,13.5c0.1,0,0.2,0,0.2-0.1
				C218.5,13.5,218.4,13.5,218.4,13.5z M217.3,13.5c-0.2,0-0.4-0.1-0.6-0.2c0.3,0.1,0.6,0.1,0.9,0.2
				C217.5,13.5,217.4,13.5,217.3,13.5z M223.4,15.7l-1.2-0.8c-0.1,0-0.1-0.1-0.2-0.1c0.1-0.1,0.3-0.2,0.4-0.3l0.1,0.1l1.1,0.9
				c0.7,0.6,1.4,1.2,2.1,1.8C224.9,16.8,224.2,16.3,223.4,15.7z M222.3,8c0,0.2,0,0.3,0,0.5c0-0.3-0.1-0.5-0.2-0.8
				C222.3,7.8,222.3,7.9,222.3,8z M222.1,9.1c0,2.3-1.8,4.1-4.1,4.1c-1.3,0-2.3-0.6-3.1-1.5c0.3,0.3,0.5,0.5,0.9,0.7
				c0.4,0.2,0.9,0.4,1.4,0.4c-0.6-0.2-1-0.6-1.4-1c0.1,0.1,0.2,0.2,0.3,0.2c0.4,0.2,0.8,0.3,1.2,0.3c-0.5-0.2-0.9-0.5-1.3-0.9
				c0.1,0.1,0.2,0.2,0.3,0.2c0.3,0.2,0.7,0.3,1.1,0.3c-0.4-0.2-0.8-0.5-1.1-0.8c0.1,0.1,0.1,0.1,0.2,0.2c0.3,0.1,0.6,0.2,1,0.2
				c-0.3-0.1-0.4-0.4-0.6-0.5c0.2,0.1,0.5,0.1,0.7,0.1c-0.5-0.3-0.8-0.6-1.1-1V10v0.1c0.3,0.5,0.9,0.8,1.5,0.8c1,0,1.8-0.8,1.9-1.7
				c0-0.1,0-0.1,0-0.2c0-1-0.8-1.9-1.9-1.9c-0.5,0-1,0.2-1.3,0.5c0,0,0,0,0-0.1c0.3-0.4,0.7-0.6,1.3-0.8c-0.3-0.1-0.6-0.1-0.8,0
				c-0.1,0-0.1,0.1-0.2,0.1c0.1-0.1,0.2-0.2,0.3-0.2c0.2-0.1,0.3-0.1,0.5-0.2l-0.1-0.1c-0.2,0-0.4,0-0.6,0c-0.1,0-0.2,0-0.3,0.1
				c0.1,0,0.1-0.1,0.2-0.2c0.2-0.1,0.4-0.2,0.6-0.2l0.1-0.1c-0.2,0-0.5,0-0.7,0c-0.1,0-0.3,0.1-0.4,0.1c0.1,0,0.1-0.1,0.2-0.1
				c0.2-0.1,0.4-0.2,0.7-0.3c0.1,0,0.2-0.1,0.3-0.1c-0.3,0-0.5,0-0.8,0c-0.2,0-0.3,0.1-0.5,0.1c0,0-0.1,0-0.1,0.1
				c0.1,0,0.1-0.1,0.2-0.1c0.4-0.2,0.8-0.3,1.3-0.4c-0.5-0.1-0.9,0-1.4,0.1c-0.4,0.1-0.7,0.3-1,0.5c0.7-0.6,1.6-1,2.6-1
				C220.2,5,222.1,6.8,222.1,9.1z M218,7.6c0.8,0,1.4,0.6,1.4,1.4l-0.1-0.1c0,0.3-0.4,0.6-0.6,0.5s-0.3-0.5,0-0.8
				c-1-0.3-1.7,0.2-2,1.1c-0.1-0.2-0.2-0.4-0.2-0.6C216.5,8.3,217.2,7.6,218,7.6z M217.2,9.8c0-0.1,0.2-0.1,0.4,0s0.3,0.3,0.3,0.3
				c0,0.1-0.2,0.1-0.4,0C217.2,10.1,217.1,9.9,217.2,9.8z M215.1,6.2L215.1,6.2L215.1,6.2z M216,13.1c-0.2-0.1-0.5-0.2-0.7-0.4
				c-0.1-0.1-0.2-0.2-0.3-0.3C215.3,12.7,215.6,12.9,216,13.1z M215.4,13.2c-0.1,0-0.1,0-0.2-0.1c-0.1,0-0.1-0.1-0.2-0.1
				C215.2,13.1,215.3,13.2,215.4,13.2z M228.8,19.6l-5.8-5.7c0.3-0.4,0.6-0.8,0.9-1.2L228.8,19.6z M227.7-8.8
				c-0.6-0.3-1.2-0.6-1.9-0.9c-1.3-0.5-2.6-0.9-4-1.3c0.7,0.1,1.4,0.2,2.1,0.4s1.4,0.4,2,0.7c0.7,0.3,1.3,0.6,1.9,1
				c0.6,0.4,1.2,0.8,1.7,1.3C228.9-8.1,228.3-8.5,227.7-8.8z M227.8-8.1c-0.4-0.2-0.8-0.4-1.2-0.5c-0.4-0.2-0.8-0.3-1.2-0.5
				c-0.4-0.2-0.8-0.3-1.2-0.5c-0.4-0.1-0.8-0.3-1.2-0.4c0.4,0.1,0.8,0.2,1.3,0.3c0.4,0.1,0.8,0.3,1.2,0.4c0.4,0.2,0.8,0.3,1.2,0.6
				C227-8.6,227.4-8.3,227.8-8.1z M228.8-1.2l-5.7,5.6c-0.3-0.4-0.7-0.7-1.1-1L228.8-1.2L228.8-1.2z M223.7,5l4.2-5l-4,5.3
				C223.8,5.2,223.7,5.1,223.7,5z M229.8-2c0.1-0.1,0.1-0.2,0-0.3c-0.1-0.1-0.2-0.1-0.3,0l-6.7,4.6l-2.1-11.2c2.1,0.3,4.1,1,5.9,2
				l-3.3,7.4l4-7.1c1.2,0.7,2.4,1.6,3.5,2.6l-0.2,0.7c0,0.1,0,0.2,0.1,0.2c0,0,0.1,0.1,0.2,0.1c0,0,0,0,0.1,0l0.6-0.2
				c1.2,1.3,2.2,2.7,3,4.3l-6.7,3.1l7-2.4c0.7,1.5,1.1,3.2,1.4,4.9l-10.7-2L229.8-2z M236.2,3.9c0.3,0.9,0.6,1.8,0.7,2.8l-0.4-0.1
				C236.5,5.6,236.4,4.7,236.2,3.9z M236.4,2.9c0.5,1.2,0.8,2.5,1.1,3.8l-0.4-0.1C236.9,5.4,236.8,4.1,236.4,2.9z M236.6,1.9
				c0.7,1.5,1.1,3.2,1.4,4.9l-0.5-0.1C237.4,5.1,237.2,3.5,236.6,1.9z M236.8,1c0.8,1.8,1.4,3.7,1.7,5.6c0,0.1,0,0.2,0,0.3L238,6.8
				C237.9,4.8,237.6,2.9,236.8,1z M197.9,11.4c0.3,1.7,0.7,3.3,1.4,4.9c-0.5-1.6-0.8-3.2-0.9-4.8l0,0c0.2,1.3,0.6,2.6,1.1,3.8
				c-0.3-1.2-0.5-2.5-0.6-3.7h0.1c0.2,0.9,0.3,1.9,0.7,2.7c-0.1-0.5-0.1-1.1-0.1-1.6c0.7,3.4,2.3,6.4,4.5,8.9l-2,0.7
				c-2.4-2.9-4.1-6.5-4.6-10.4c0.3,1.8,0.8,3.7,1.6,5.3C198.4,15.3,198.1,13.3,197.9,11.4z M205.2,22.7c2.8,2.6,6.3,4.3,10.3,4.9
				v0.1c-0.9-0.1-1.8-0.2-2.7-0.4c0.9,0.3,1.8,0.6,2.8,0.7v0.1c-1.3-0.1-2.5-0.3-3.7-0.6c1.2,0.5,2.5,0.8,3.8,1.1v0.1
				c-1.6-0.1-3.2-0.4-4.8-0.9c1.5,0.7,3.2,1.1,4.9,1.4l0,0c-2-0.1-4-0.5-5.9-1.2c1.8,0.8,3.7,1.4,5.6,1.7c-4.2-0.5-8-2.2-11-4.9
				L205.2,22.7z M220.3,29.1c1.7-0.3,3.3-0.7,4.9-1.4c-1.6,0.5-3.2,0.8-4.8,0.9l0,0c1.3-0.2,2.6-0.6,3.8-1.1
				c-1.2,0.3-2.5,0.5-3.7,0.6V28c0.9-0.2,1.9-0.3,2.7-0.7c-0.5,0.1-1.1,0.1-1.6,0.1c3.6-0.7,6.8-2.4,9.3-4.8l0.7,2.1
				c-3,2.6-6.7,4.3-10.8,4.9c1.8-0.3,3.7-0.8,5.3-1.6C224.2,28.7,222.2,29,220.3,29.1z M231.9,21.5c2.4-2.7,4.1-6.1,4.6-9.9h0.1
				c-0.1,0.9-0.1,1.8-0.3,2.7c0.3-0.9,0.6-1.8,0.7-2.8h0.1c-0.1,1.3-0.3,2.5-0.6,3.7c0.5-1.2,0.8-2.5,1.1-3.8l0,0
				c-0.1,1.6-0.4,3.2-0.9,4.8c0.7-1.5,1.1-3.2,1.4-4.9c-0.1,2-0.5,3.9-1.2,5.8c0.8-1.7,1.3-3.5,1.6-5.3c-0.5,3.9-2.2,7.5-4.6,10.4
				L231.9,21.5z M239,7c-0.4-4.3-2.1-8.3-4.8-11.4l0.8-0.3c2.7,3.3,4.4,7.4,4.8,11.9L239,7z M237.7-1.4c0.5,0.3,1.3,0.8,2.1,0.8
				c-0.4,0.6-0.7,1.4-0.8,2C238.6,0.5,238.2-0.5,237.7-1.4z M225.1-12.1c0.6-0.1,1.4-0.4,2-0.8c0.1,0.7,0.5,1.4,0.8,2
				C227-11.4,226-11.8,225.1-12.1z M231.9-7.8L231.6-7c-3.2-2.7-7.2-4.5-11.6-4.9l-0.2-0.8C224.5-12.3,228.6-10.6,231.9-7.8z
				 M218,2.1c-1.3,0-2.4,0.4-3.5,1l-0.9-0.6l4.4-22.9V2.1z M215.9-11.9c-4.4,0.4-8.4,2.2-11.5,4.9l-0.3-0.8c3.3-2.7,7.4-4.5,12-4.9
				L215.9-11.9z M208.1-11c0.3-0.5,0.7-1.2,0.8-2c0.6,0.4,1.4,0.7,2,0.8C209.9-11.8,209-11.4,208.1-11z M201-4.7l0.8,0.3
				c-2.7,3.2-4.4,7.1-4.8,11.5l-0.8,0.2C196.6,2.7,198.3-1.4,201-4.7z M211.1,4.8l0.7,1c-0.5,1-0.9,2.1-0.9,3.3h-22.5L211.1,4.8z
				 M197,11.2c0.4,4.3,2.1,8.1,4.7,11.3l-0.8,0.3c-2.6-3.3-4.3-7.3-4.7-11.7L197,11.2z M201,23.1l4-1.5l0,0l-4.8,5L201,23.1z
				 M210.9,30.3c-0.6,0.1-1.4,0.4-2,0.8c-0.1-0.7-0.5-1.4-0.8-2C209,29.6,209.9,29.9,210.9,30.3z M204,26l0.3-0.8
				c3.2,2.7,7.2,4.5,11.6,4.9l0.2,0.8C211.5,30.5,207.4,28.7,204,26z M213.6,15.9l1-0.7c1,0.5,2.1,0.9,3.3,0.9v22.6L213.6,15.9z
				 M220.1,30.1c4.4-0.4,8.4-2.2,11.6-5l0.3,0.8c-3.3,2.8-7.5,4.6-12.1,5L220.1,30.1z M227.9,29.1c-0.3,0.5-0.7,1.2-0.8,2
				c-0.6-0.4-1.4-0.7-2-0.8C226,29.9,227,29.6,227.9,29.1z M231,21.7L231,21.7l4,1.5l0.8,3.5L231,21.7z M239,16.7
				c0.1,0.6,0.4,1.4,0.8,2c-0.7,0.1-1.5,0.5-2.1,0.8C238.2,18.6,238.6,17.7,239,16.7z M235.1,22.7l-0.8-0.3c2.6-3.1,4.2-7,4.7-11.3
				l0.8-0.2C239.4,15.4,237.7,19.4,235.1,22.7z M225,9.1c0-1.1-0.3-2.2-0.8-3.1l0.8-1.2l22.5,4.3H225z"/>
		</g>
	</g>
</g>
<g>
	<path class="st0" d="M179.9,139c0,0.1-0.1,0.1-0.1,0.2c0-0.4-0.9-0.9-1.2-1c-0.2-0.1-0.5-0.2-0.7-0.3c-1.2-0.3-2.2,0.4-3.4,0.8
		c-1.6,0.6-3.4,0.4-4.9-0.3c-2.1-0.9-4.1-2.9-4.1-5.2v-28.9c0-1.3-0.8-2.5-2-3h8.4c-0.6,0.2-1.1,0.6-1.5,1.2
		c-0.1,0.1-0.1,0.2-0.2,0.3c-0.2,0.5-0.4,1-0.4,1.5c0,0,0,2.5,0,6c0.4,0.1,0.8,0.1,1.2-0.1c1.6-0.5,3.1-2.2,4.9-1.4
		c1.8,0.8,1.2,2.5,1.2,2.5s-1.1-0.9-2.4-0.2c-0.1,0.1-0.2,0.1-0.2,0.1c-1.4,0.7-3.1,0.8-4.7,0.4c0,9,0,23,0,23.1
		c0,0.9,0.1,3.4,1.5,3.3c0.9,0,1.8-1,2.4-1.6c1.2-1.4,2.9-3.2,5-2.1C180.2,135.1,180.6,137.4,179.9,139z"/>
	<path class="st0" d="M202.7,139.1H198c-0.2-0.6-0.3-1.2-0.5-1.7v-0.1c-0.3-1.1-3-10-2-14.8c0.1-0.5,0.2-1.3,0.3-2.1
		c0.6-3.8-1.2-6.2-3.4-6.5c-0.1,0-0.6,0-0.7,0c-1.1,0.4-1.9,1.2-2.5,2.2c-0.4,0.6-0.6,1.5-0.8,2.4c0,0.2,0,0.3,0,0.5
		c0,2.2,0,4.4,0,6.6c0,2.7,0,5.5,0,8.2c0,0.8,0,1.5,0,2.2c0,0.3,0,0.5,0.1,0.8c0.1,0.5,0.5,0.9,0.8,1.4c0.3,0.3,0.7,0.8,1.1,1
		c0,0,0,0,0.1,0l0,0l0,0h-8.4l0,0l0,0c0,0,0,0,0.1,0l1.2-1.1l0.1-0.1c0.5-0.5,0.8-1.3,0.8-2c0-1.6,0-3.3,0-5c0-2.8,0-5.7,0-8.4
		c0-2.6,0-5.3,0-7.9c0-1.2,0-2.4,0-3.5c0-0.1,0-0.1,0-0.2c0.1-4,1.8-5,2.5-5.3c1.4-0.6,2.5-1.4,2.5-3l0,0c0-0.7-0.2-1.2-0.2-1.3l0,0
		c1.6,0.3,3.4,1.2,3.6,3c0.1,0.6,0,1.3-0.4,2.1c-1.2,3-3.7,1.5-3.8,5.4c0,0.1,0,0.1,0,0.1v3.2c0.1-0.2,0.2-0.4,0.3-0.5
		c1.5-2.1,4.7-4.1,7.2-2.6c0,0,0.1,0,0.1,0.1c1.6,1,2.9,2.9,3.6,5.4c0.1,5.5-2.4,5.7-2.4,10.2c0,0.4,0.1,0.8,0.2,1.2
		c0.5,2.2,1.8,4,3.1,5.8C201.5,136.1,202.3,137.5,202.7,139.1z"/>
	<path class="st0" d="M220.6,135.9c-2.6,3.5-7.1,3.3-9.1,3.3h-0.1c-5.1-0.4-8.9-3.9-9.9-8.9c-0.9-4.7,1.1-10.7,5.8-12.5
		c0.5-0.2,0.8-0.2,0.8-0.2c-0.3-0.1-0.5-0.2-0.8-0.3c-3-1.5-3.9-5.5-3.4-8.5c0.2-1.1,0.5-2,1.1-2.9c1.4-2.1,3.6-3.4,6.1-3.8
		c1.2-0.3,2.5-0.4,3.8-0.1s2.8,1.2,4.1,0.5c0.3-0.2,1.2-0.6,1.2-1c0,0.1,0.1,0.1,0.1,0.2c0.2,0.4,0.3,0.9,0.4,1.4
		c0.1,2.2-1.7,4.7-3.9,3.4c-1.5-0.8-2.7-2.8-4.5-2.9c-3.3-0.1-6.3,2.4-6.3,5.7c0,2.6,0.8,4.2,1.8,5.3c1.1,1.1,2.6,1.5,3.6,1.6
		c0.9,0.1,1.5,0.9,1.5,1.7c0,0.6-0.4,1.3-1,1.6c-1.5,0.7-6.2,1.6-6.2,9.1c0,12.9,11.9,9.8,13.7,6.3c0.5-0.9,0.6-2,0.4-3
		c-0.6-2.2-3.1-4.4-2-6.9c1.2-2.5,3.5-1.6,3.5-1.6s-1.3,1.6-0.2,3.3c0.1,0.1,0.1,0.2,0.2,0.3C222.8,129.5,222.5,133.3,220.6,135.9z"
		/>
</g>
<g>
	<path class="st0" d="M18.2,38.9c0,0.1-0.1,0.1-0.1,0.2c0-0.4-0.9-0.9-1.2-1c-0.2-0.1-0.5-0.2-0.7-0.3c-1.2-0.3-2.2,0.4-3.4,0.8
		c-1.6,0.6-3.4,0.4-4.9-0.3c-2.1-0.9-4.1-2.9-4.1-5.2V4.2c0-1.3-0.8-2.5-2-3h8.4C9.6,1.4,9.1,1.8,8.7,2.4C8.6,2.5,8.6,2.6,8.5,2.7
		c-0.2,0.5-0.4,1-0.4,1.5c0,0,0,2.5,0,6c0.4,0.1,0.8,0.1,1.2-0.1c1.6-0.5,3.1-2.2,4.9-1.4c1.8,0.8,1.2,2.5,1.2,2.5S14.3,10.3,13,11
		c-0.1,0.1-0.2,0.1-0.2,0.1c-1.4,0.7-3.1,0.8-4.7,0.4c0,9,0,23,0,23.1c0,0.9,0.1,3.4,1.5,3.3c0.9,0,1.8-1,2.4-1.6
		c1.2-1.4,2.9-3.2,5-2.1C18.5,35,18.9,37.3,18.2,38.9z"/>
	<path class="st0" d="M41,39h-4.7c-0.2-0.6-0.3-1.2-0.5-1.7v-0.1c-0.3-1.1-3-10-2-14.8c0.1-0.5,0.2-1.3,0.3-2.1
		c0.6-3.8-1.2-6.2-3.4-6.5c-0.1,0-0.6,0-0.7,0c-1.1,0.4-1.9,1.2-2.5,2.2c-0.4,0.6-0.6,1.5-0.8,2.4c0,0.2,0,0.3,0,0.5
		c0,2.2,0,4.4,0,6.6c0,2.7,0,5.5,0,8.2c0,0.8,0,1.5,0,2.2c0,0.3,0,0.5,0.1,0.8c0.1,0.5,0.5,0.9,0.8,1.4c0.3,0.3,0.7,0.8,1.1,1
		c0,0,0,0,0.1,0l0,0l0,0h-8.4l0,0l0,0c0,0,0,0,0.1,0l1.2-1.1l0.1-0.1c0.5-0.5,0.8-1.3,0.8-2c0-1.6,0-3.3,0-5c0-2.8,0-5.7,0-8.4
		c0-2.6,0-5.3,0-7.9c0-1.2,0-2.4,0-3.5c0-0.1,0-0.1,0-0.2c0.1-4,1.8-5,2.5-5.3c1.4-0.6,2.5-1.4,2.5-3l0,0c0-0.7-0.2-1.2-0.2-1.3l0,0
		c1.6,0.3,3.4,1.2,3.6,3c0.1,0.6,0,1.3-0.4,2.1c-1.2,3-3.7,1.5-3.8,5.4c0,0.1,0,0.1,0,0.1v3.2c0.1-0.2,0.2-0.4,0.3-0.5
		c1.5-2.1,4.7-4.1,7.2-2.6c0,0,0.1,0,0.1,0.1c1.6,1,2.9,2.9,3.6,5.4c0.1,5.5-2.4,5.7-2.4,10.2c0,0.4,0.1,0.8,0.2,1.2
		c0.5,2.2,1.8,4,3.1,5.8C39.8,36,40.6,37.4,41,39z"/>
	<path class="st0" d="M58.9,35.8c-2.6,3.5-7.1,3.3-9.1,3.3h-0.1c-5.1-0.4-8.9-3.9-9.9-8.9c-0.9-4.7,1.1-10.7,5.8-12.5
		c0.5-0.2,0.8-0.2,0.8-0.2c-0.3-0.1-0.5-0.2-0.8-0.3c-3-1.5-3.9-5.5-3.4-8.5c0.2-1.1,0.5-2,1.1-2.9c1.4-2.1,3.6-3.4,6.1-3.8
		c1.2-0.3,2.5-0.4,3.8-0.1s2.8,1.2,4.1,0.5c0.3-0.2,1.2-0.6,1.2-1c0,0.1,0.1,0.1,0.1,0.2C58.8,2,58.9,2.5,59,3
		c0.1,2.2-1.7,4.7-3.9,3.4c-1.5-0.8-2.7-2.8-4.5-2.9c-3.3-0.1-6.3,2.4-6.3,5.7c0,2.6,0.8,4.2,1.8,5.3c1.1,1.1,2.6,1.5,3.6,1.6
		c0.9,0.1,1.5,0.9,1.5,1.7c0,0.6-0.4,1.3-1,1.6C48.7,20.1,44,21,44,28.5c0,12.9,11.9,9.8,13.7,6.3c0.5-0.9,0.6-2,0.4-3
		c-0.6-2.2-3.1-4.4-2-6.9c1.2-2.5,3.5-1.6,3.5-1.6s-1.3,1.6-0.2,3.3c0.1,0.1,0.1,0.2,0.2,0.3C61.1,29.4,60.8,33.2,58.9,35.8z"/>
</g>
</svg>
