<?xml version="1.0" encoding="utf-8"?>
<!-- Generator: Adobe Illustrator 26.0.1, SVG Export Plug-In . SVG Version: 6.00 Build 0)  -->
<svg version="1.1" id="Слой_1" xmlns="http://www.w3.org/2000/svg" xmlns:xlink="http://www.w3.org/1999/xlink" x="0px" y="0px"
	 viewBox="0 0 232.2 77.5" style="enable-background:new 0 0 232.2 77.5;" xml:space="preserve">
<style type="text/css">
	.st0{fill:#44403C;}
	.st1{fill:#723F12;}
</style>
<g>
	<g>
		<g>
			<path class="st0" d="M104.4,52.6c-3.1,0-6.3-2.4-7.4-5c-0.5-1.3-0.7-2.6-0.7-4c0-1.2,0.3-2.4,0.8-3.4c0.1-0.1,0.1-0.2,0.2-0.3
				c1-1.6-0.2-3.2-0.2-3.2s1.1-0.4,2.2,0.2c0.4,0.3,0.8,0.7,1.1,1.4c0.6,1.3,0.2,2.4-0.3,3.6C99.6,43,98.9,44,98.6,45
				s-0.1,2,0.3,2.9c1,1.9,2.8,2.9,4.5,2.8c0.8,0,1.6-0.2,2.3-0.6c2.8-1.2,4.7-5.1,4.2-8.2c-0.5-3-3.2-5.2-5.6-6.5
				c-1.7-0.9-3.6-2.2-5.2-3.7c-3.8-3.7-4.7-8.9-0.2-13.4c1.7-1.7,4.2-2.1,6.5-1.7c1.3,0.2,2.6,0.8,4,0.9c1.5,0,2.9-0.6,3.9-1.7
				c0,1.3-0.2,2.6-0.7,3.7c-0.6,1.1-1.7,2-2.9,2c-2-0.1-3.2-2.3-5.1-3.1c-1.9-0.8-3.9-0.6-5.2,0.8c-1.7,1.9-0.7,5.1,0.8,7.1
				c1.5,1.9,3.7,3.2,5.8,4.4c1.9,1.1,4.1,2.2,5.6,4c0.2,0.3,0.4,0.5,0.6,0.8C116.9,42.1,113,52.6,104.4,52.6z"/>
			<path class="st0" d="M131.2,52.5c0,0,0,0.1-0.1,0.1c0-0.4-0.9-0.8-1.2-1c-0.2-0.1-0.5-0.2-0.7-0.3c-1.2-0.3-2.2,0.4-3.4,0.8
				c-1.6,0.6-3.3,0.4-4.8-0.3c-2-0.9-4-2.8-4-5.1V18.5c0-1.3-0.8-2.4-2-2.9h8.2c-0.6,0.2-1.1,0.7-1.4,1.2c-0.1,0.1-0.1,0.2-0.2,0.3
				c-0.2,0.5-0.4,1-0.4,1.5c0,0,0,2.4,0,5.8c0.4,0.1,0.8,0.1,1.2-0.1c1.5-0.5,3-2.2,4.8-1.4c1.7,0.8,1.1,2.4,1.1,2.4
				s-1.1-0.9-2.3-0.1c-0.1,0-0.1,0.1-0.2,0.1c-1.4,0.7-3.1,0.8-4.6,0.3c0,8.8,0,22.5,0,22.5c0,0.9,0,3.3,1.4,3.2
				c0.9,0,1.7-1,2.3-1.6c1.2-1.4,2.8-3.1,4.9-2C131.4,48.7,131.9,50.9,131.2,52.5z"/>
			<path class="st0" d="M152.1,42c0.2,1.1,0.2,2.5,0,4c-0.5,3.6-3.5,5.5-6.9,6.3c-0.2,0-0.4,0.1-0.6,0.1l0,0
				c-1.6,0.3-3.2,0.3-4.8-0.1c-0.1,0-0.1,0-0.1,0c-0.8-0.2-1.7-0.5-2.5-0.8c-2.5-1-4.1-2.9-4.5-5.5c-0.1-0.8-0.2-1.8-0.1-2.5
				c0.1-3.6,1.9-5.4,1.9-9c0-1.1-0.1-2.3-0.5-3.9c-0.2-0.6-0.4-1.2-0.6-1.9c-0.3-0.8-0.5-1.6-0.6-2.5c-0.4-2.5,0.1-5.2,1.7-7.2
				c1.2-1.4,2.9-2.5,4.9-3.2c0.4-0.1,0.7-0.2,1.1-0.4c1.8-0.5,3.7-0.5,5.5,0.2l0,0c0.2,0.1,0.4,0.1,0.5,0.2c4.9,2.1,7.1,7.9,5,12.9
				c-1.4,3.4-1.3,5.7-0.8,7.8C151,38.3,151.8,40,152.1,42z M146.4,29.4c0.8-2.7,2.5-7.1,0.8-9.8c0,0,0,0,0-0.1
				c-2.1-3.4-7.2-3.4-9.3,0c0,0,0,0,0,0.1c-1.6,2.7,0.1,7.1,0.8,9.8s1.1,5.5,0.7,8.3c-0.3,2-1.3,3.9-1.8,5.9
				c-0.4,1.9-0.3,4.7,1.1,6.3l0,0c2,2.2,5.4,2.2,7.5,0.1c0.1-0.1,0.1-0.1,0.2-0.2c1.4-1.6,1.5-4.3,1.1-6.3s-1.5-3.8-1.8-5.9
				C145.3,34.9,145.7,32.1,146.4,29.4z"/>
			<path class="st0" d="M167.6,20.4c-2,1.1-3.6-0.6-4.9-2c-0.5-0.6-1.4-1.6-2.3-1.6c-1.4,0-1.4,2.3-1.4,3.2c0,0.1,0,29.7,0,29.7
				c0,0.5,0.1,1.1,0.4,1.5c0,0.1,0.1,0.2,0.2,0.3c0.3,0.5,0.8,0.9,1.4,1.2h-8.2c1.2-0.5,2-1.6,2-2.9V21.6c0-2.3,2-4.3,4-5.1
				c1.5-0.7,3.3-0.9,4.8-0.3c1.2,0.4,2.2,1.1,3.4,0.8c0.2-0.1,0.4-0.1,0.7-0.3c0.3-0.2,1.2-0.6,1.2-1l0.1,0.1
				C169.6,17.3,169.2,19.5,167.6,20.4z"/>
			<path class="st0" d="M176.9,51.5l1.2,1.1h-8.2l1.2-1.1c0.5-0.5,0.8-1.1,0.8-1.8V25.2c0-0.7-0.3-1.3-0.8-1.8l-1.2-1.1h8.2
				l-1.2,1.1c-0.5,0.5-0.8,1.1-0.8,1.8v24.5C176.1,50.4,176.4,51.1,176.9,51.5z M172.9,20.6c-1.3-0.5-2-2.1-1.4-3.4
				c0.5-1.3,2.1-2,3.4-1.4c1.3,0.6,2,2.1,1.4,3.4C175.8,20.5,174.3,21.2,172.9,20.6z"/>
			<path class="st0" d="M197.4,49.4c-2.6,3.4-6.9,3.2-8.9,3.2c0,0,0,0-0.1,0c-5-0.3-8.7-3.8-9.7-8.7c-0.9-4.5,1-10.5,5.7-12.2
				c0.5-0.2,0.8-0.2,0.8-0.2c-0.3-0.1-0.5-0.2-0.8-0.3c-2.9-1.5-3.8-5.4-3.4-8.4c0.2-1,0.5-2,1.1-2.8c1.3-2.1,3.6-3.3,5.9-3.8
				c1.2-0.2,2.5-0.2,3.7,0c1.3,0.2,2.8,1.2,4,0.5c0.3-0.2,1.2-0.6,1.2-1l0.1,0.1c0.2,0.4,0.3,0.9,0.3,1.3c0.1,2.1-1.7,4.5-3.8,3.3
				c-1.4-0.8-2.6-2.7-4.4-2.8c-3.2-0.1-6.2,2.3-6.2,5.6c0,2.5,0.8,4.1,1.8,5.2c1.1,1.1,2.5,1.5,3.6,1.6c0.8,0.1,1.5,0.8,1.5,1.7
				c0,0.7-0.4,1.2-1,1.5c-1.5,0.7-6.1,1.6-6.1,8.9c0,12.6,11.6,9.6,13.4,6.2c0.5-0.9,0.6-1.9,0.4-2.9c-0.6-2.2-3.1-4.3-1.9-6.7
				c1.1-2.4,3.4-1.6,3.4-1.6s-1.3,1.6-0.2,3.2c0.1,0.1,0.1,0.2,0.2,0.3C199.6,43.2,199.3,46.9,197.4,49.4z"/>
			<path class="st0" d="M209.2,52.6c-3.1,0-6.3-2.4-7.4-5c-0.5-1.3-0.7-2.6-0.7-4c0-1.2,0.3-2.4,0.8-3.4c0.1-0.1,0.1-0.2,0.2-0.3
				c1-1.6-0.2-3.2-0.2-3.2s1.1-0.4,2.2,0.2c0.4,0.3,0.8,0.7,1.1,1.4c0.6,1.3,0.2,2.4-0.3,3.6c-0.5,1.1-1.2,2.1-1.5,3.1
				s-0.1,2,0.3,2.9c1,1.9,2.8,2.9,4.5,2.8c0.8,0,1.6-0.2,2.3-0.6c2.8-1.2,4.7-5.1,4.2-8.2c-0.5-3-3.2-5.2-5.6-6.5
				c-1.7-0.9-3.6-2.2-5.2-3.7c-3.8-3.7-4.7-8.9-0.2-13.4c1.7-1.7,4.2-2.1,6.5-1.7c1.3,0.2,2.6,0.8,4,0.9c1.5,0,2.9-0.6,3.9-1.7
				c0,1.3-0.2,2.6-0.7,3.7c-0.6,1.1-1.7,2-2.9,2c-2-0.1-3.2-2.3-5.1-3.1c-1.9-0.8-3.9-0.6-5.2,0.8c-1.7,1.9-0.7,5.1,0.8,7.1
				c1.5,1.9,3.7,3.2,5.8,4.4c1.9,1.1,4.1,2.2,5.6,4c0.2,0.3,0.4,0.5,0.6,0.8C221.7,42.1,217.8,52.6,209.2,52.6z"/>
		</g>
		<g>
			<path class="st1" d="M38.3,69.6c0,0.1-0.1,0.2-0.1,0.3c0-0.7-1.5-1.5-2.1-1.7c-0.4-0.2-0.8-0.4-1.2-0.5c-2-0.5-3.8,0.7-5.8,1.4
				c-2.7,1-5.8,0.6-8.4-0.5c-3.5-1.5-7-4.9-7-8.9V10.6c0-2.2-1.4-4.3-3.4-5.1h14.3c-1,0.4-1.9,1.1-2.5,2C22,7.6,21.9,7.8,21.8,8
				c-0.4,0.8-0.7,1.7-0.7,2.6c0,0,0,4.2,0,10.2c0.7,0.1,1.4,0.1,2.1-0.1c2.7-0.8,5.3-3.8,8.3-2.4s2,4.2,2,4.2s-1.9-1.6-4-0.3
				c-0.1,0.1-0.3,0.2-0.4,0.2c-2.4,1.2-5.3,1.4-8,0.6c0,15.3,0,39.1,0,39.2c0,1.6,0.1,5.7,2.5,5.6c1.6,0,3-1.7,4-2.8
				c2.1-2.4,4.9-5.5,8.5-3.5C38.9,63,39.6,66.9,38.3,69.6z"/>
			<path class="st1" d="M77.1,69.8h-7.9c-0.3-1-0.5-2-0.8-2.9v-0.1c-0.5-1.9-5.1-17-3.4-25.2c0.2-0.9,0.4-2.2,0.5-3.6
				c1.1-6.4-2-10.5-5.8-11.1c-0.2,0-1,0-1.2,0c-1.8,0.7-3.2,2-4.2,3.8c-0.6,1.1-1.1,2.5-1.3,4.1c0,0.3,0,0.5,0,0.8
				c0,3.7,0,7.4,0,11.2c0,4.6,0,9.3,0,13.9c0,1.3,0,2.5,0,3.8c0,0.5,0,0.9,0.1,1.4c0.2,0.9,0.8,1.6,1.4,2.3c0.5,0.5,1.2,1.4,1.8,1.7
				c0,0,0,0,0.1,0l0,0l0,0H42.1l0,0l0,0c0,0,0,0,0.1,0l2-1.9l0.1-0.1c0.9-0.9,1.3-2.2,1.3-3.4c0-2.8,0-5.6,0-8.5c0-4.8,0-9.6,0-14.3
				c0-4.5,0-9,0-13.5c0-2,0-4,0-5.9c0-0.1,0-0.2,0-0.4c0.1-6.8,3.1-8.5,4.3-9c2.3-1,4.3-2.3,4.3-5.1l0,0c0-1.2-0.4-2.1-0.4-2.2l0,0
				c2.7,0.5,5.8,2,6.2,5.1c0.1,1,0,2.2-0.6,3.6c-2,5.1-6.3,2.5-6.4,9.2c0,0.1,0,0.2,0,0.2v5.5c0.1-0.3,0.3-0.6,0.5-0.9
				c2.5-3.6,8-6.9,12.2-4.4c0,0,0.1,0,0.1,0.1c2.8,1.7,4.9,5,6.1,9.2c0.2,9.3-4.1,9.6-4,17.4c0,0.7,0.1,1.3,0.3,2
				c0.8,3.8,3.1,6.8,5.2,9.9C75,64.7,76.4,67.1,77.1,69.8z"/>
			<path class="st1" d="M107.5,64.3c-4.5,6-12,5.6-15.4,5.6H92c-8.7-0.6-15.1-6.7-16.8-15.2c-1.5-7.9,1.8-18.2,9.9-21.2
				c0.9-0.3,1.4-0.4,1.4-0.4c-0.5-0.1-0.9-0.3-1.3-0.5c-5.1-2.5-6.7-9.4-5.8-14.5c0.3-1.8,0.9-3.4,1.8-5c2.3-3.6,6.2-5.8,10.3-6.5
				C93.6,6.1,95.8,6,98,6.4s4.8,2,7,0.8c0.5-0.3,2.1-1.1,2.1-1.7c0,0.1,0.1,0.2,0.1,0.3c0.3,0.7,0.5,1.5,0.6,2.3
				c0.2,3.7-2.9,7.9-6.7,5.7c-2.5-1.4-4.6-4.8-7.7-4.9c-5.6-0.2-10.7,4-10.7,9.7c0,4.4,1.3,7.2,3.1,9c1.9,1.9,4.4,2.6,6.2,2.8
				c1.5,0.2,2.5,1.5,2.5,2.9c0,1.1-0.7,2.2-1.7,2.7c-2.5,1.2-10.6,2.8-10.6,15.4c0,22,20.3,16.7,23.3,10.7c0.8-1.6,1.1-3.4,0.6-5.1
				c-1.1-3.8-5.3-7.4-3.4-11.7c2-4.3,5.9-2.8,5.9-2.8s-2.2,2.7-0.4,5.6c0.1,0.2,0.2,0.4,0.3,0.5C111.3,53.5,110.8,59.9,107.5,64.3z"
				/>
		</g>
	</g>
	<g>
		<path class="st0" d="M120.4,69.9v-5.5c0-0.7-0.4-1-0.9-1s-0.9,0.3-0.9,1v5.5h-1.2V59.6h1.2V63c0.1-0.2,0.3-0.3,0.4-0.4
			c0.2-0.1,0.5-0.2,0.8-0.2c0.6,0,1,0.2,1.3,0.5s0.4,0.7,0.4,1.5v5.5C121.5,69.9,120.4,69.9,120.4,69.9z"/>
		<path class="st0" d="M123,61.1v-1.4h1.4v1.4H123z M123.1,69.9v-7.5h1.2v7.5H123.1z"/>
		<path class="st0" d="M129.2,69.4c-0.4,0.4-0.9,0.6-1.5,0.6c-0.6,0-1.1-0.2-1.5-0.6s-0.6-1-0.6-1.6h1.2c0,0.4,0.1,0.7,0.3,0.9
			c0.2,0.2,0.4,0.3,0.7,0.3s0.5-0.1,0.7-0.3c0.2-0.2,0.3-0.4,0.3-0.8c0-0.3-0.1-0.5-0.2-0.7c-0.1-0.2-0.4-0.4-0.7-0.5l-1-0.5
			c-0.5-0.2-0.8-0.5-1-0.9c-0.2-0.3-0.2-0.6-0.2-1c0-0.7,0.2-1.1,0.6-1.5s0.9-0.6,1.5-0.6s1.1,0.2,1.5,0.5c0.4,0.4,0.6,0.9,0.6,1.6
			h-1.2c0-0.4-0.1-0.7-0.3-0.9s-0.4-0.3-0.6-0.3c-0.3,0-0.5,0.1-0.7,0.2c-0.2,0.2-0.3,0.4-0.3,0.7c0,0.2,0,0.4,0.1,0.5
			c0.1,0.2,0.3,0.3,0.6,0.5l1,0.5c0.5,0.2,0.8,0.5,1.1,0.9c0.2,0.3,0.3,0.7,0.3,1.2C129.9,68.5,129.6,69.1,129.2,69.4z"/>
		<path class="st0" d="M132.1,69.5c-0.4-0.3-0.7-0.9-0.7-1.7v-4.4h-0.9v-0.9h0.9v-2.1h1.2v2.1h1.2v0.9h-1.2v4.4
			c0,0.8,0.4,1.1,1.2,1.1V70C133.1,69.9,132.6,69.9,132.1,69.5z"/>
		<path class="st0" d="M138.4,69.3c-0.4,0.5-0.9,0.7-1.6,0.7c-0.7,0-1.2-0.2-1.6-0.7c-0.5-0.6-0.5-1.6-0.5-3.2
			c0-1.5,0.1-2.6,0.5-3.2c0.4-0.5,0.9-0.7,1.6-0.7c0.7,0,1.2,0.2,1.6,0.7c0.5,0.6,0.5,1.6,0.5,3.2C138.9,67.7,138.9,68.7,138.4,69.3
			z M137.5,63.7c-0.1-0.2-0.4-0.3-0.7-0.3s-0.5,0.1-0.7,0.3c-0.3,0.4-0.3,1.1-0.3,2.5s0,2.1,0.3,2.5c0.1,0.2,0.4,0.3,0.7,0.3
			s0.5-0.1,0.7-0.3c0.3-0.4,0.3-1.1,0.3-2.5S137.8,64.1,137.5,63.7z"/>
		<path class="st0" d="M142.9,63.4c-0.8,0-1.4,0.5-1.4,1.4v5.1h-1.2v-7.5h1.1v0.8c0.1-0.2,0.3-0.4,0.5-0.5c0.3-0.2,0.8-0.4,1.2-0.4
			v1.1C143.1,63.4,142.9,63.4,142.9,63.4z"/>
		<path class="st0" d="M144.2,61.1v-1.4h1.4v1.4H144.2z M144.3,69.9v-7.5h1.2v7.5H144.3z"/>
		<path class="st0" d="M150.5,69.5c-0.4,0.4-0.9,0.5-1.5,0.5s-1.2-0.2-1.6-0.7c-0.5-0.6-0.5-1.7-0.5-3.2s0.1-2.6,0.5-3.2
			c0.4-0.5,0.9-0.7,1.6-0.7c0.6,0,1.1,0.1,1.5,0.5c0.5,0.4,0.6,1.1,0.6,1.7h-1.2c0-0.3,0-0.6-0.2-0.9c-0.2-0.2-0.4-0.3-0.7-0.3
			s-0.5,0.1-0.7,0.3c-0.3,0.4-0.3,1.1-0.3,2.5c0,1.3,0,2.1,0.3,2.5c0.1,0.2,0.4,0.3,0.7,0.3s0.5-0.1,0.6-0.3
			c0.2-0.2,0.2-0.5,0.2-0.9h1.2C151,68.5,150.9,69.1,150.5,69.5z"/>
		<path class="st0" d="M155.1,69.9v-0.7c-0.1,0.2-0.3,0.4-0.4,0.5c-0.2,0.2-0.5,0.3-0.9,0.3c-0.5,0-0.9-0.2-1.3-0.6
			c-0.3-0.3-0.5-0.9-0.5-1.7c0-0.7,0.2-1.3,0.7-1.7c0.4-0.3,0.8-0.5,1.6-0.5h0.8v-1.2c0-0.7-0.3-1.1-0.9-1.1c-0.3,0-0.4,0.1-0.6,0.2
			c-0.2,0.2-0.3,0.5-0.3,0.9h-1.2c0-0.6,0.1-1.1,0.6-1.6c0.3-0.3,0.9-0.5,1.4-0.5c0.6,0,1.1,0.2,1.5,0.5c0.4,0.4,0.6,0.9,0.6,1.6
			v5.4h-1.1V69.9z M155,66.4h-0.7c-0.4,0-0.6,0.1-0.8,0.3c-0.2,0.2-0.3,0.6-0.3,1c0,0.8,0.3,1.3,0.9,1.3c0.6,0,0.9-0.5,0.9-1.2
			L155,66.4L155,66.4z"/>
		<path class="st0" d="M158.4,69.5c-0.4-0.3-0.7-0.9-0.7-1.7v-8.2h1.2v8.1c0,0.7,0.3,1.1,1.1,1.1v1.1
			C159.4,69.9,158.8,69.8,158.4,69.5z"/>
		<path class="st0" d="M167.4,69.5c-0.3,0.4-0.7,0.6-1.2,0.6c-0.3,0-0.6-0.1-0.8-0.2c-0.1-0.1-0.4-0.3-0.4-0.5V70h-1.1V59.6h1.2v3.3
			c0.1-0.2,0.3-0.3,0.4-0.4c0.2-0.2,0.5-0.2,0.8-0.2c0.5,0,0.9,0.2,1.2,0.5c0.5,0.6,0.5,1.5,0.5,3.3C168,67.9,167.9,68.9,167.4,69.5
			z M166.5,63.7c-0.1-0.2-0.4-0.3-0.6-0.3c-0.2,0-0.4,0.1-0.6,0.2c-0.2,0.2-0.3,0.4-0.3,0.9v3.4c0,0.4,0.1,0.7,0.3,0.9
			c0.2,0.2,0.4,0.2,0.6,0.2c0.3,0,0.5-0.1,0.6-0.3c0.3-0.3,0.3-1,0.3-2.5S166.7,64,166.5,63.7z"/>
		<path class="st0" d="M172.9,69.3c-0.4,0.5-0.9,0.7-1.6,0.7c-0.7,0-1.2-0.2-1.6-0.7c-0.5-0.6-0.5-1.6-0.5-3.2
			c0-1.5,0.1-2.6,0.5-3.2c0.4-0.5,0.9-0.7,1.6-0.7c0.7,0,1.2,0.2,1.6,0.7c0.5,0.6,0.5,1.6,0.5,3.2C173.4,67.7,173.3,68.7,172.9,69.3
			z M171.9,63.7c-0.1-0.2-0.4-0.3-0.7-0.3s-0.5,0.1-0.7,0.3c-0.3,0.4-0.3,1.1-0.3,2.5s0,2.1,0.3,2.5c0.1,0.2,0.4,0.3,0.7,0.3
			s0.5-0.1,0.7-0.3c0.3-0.4,0.3-1.1,0.3-2.5S172.2,64.1,171.9,63.7z"/>
		<path class="st0" d="M177.5,69.9v-0.7c-0.1,0.2-0.3,0.4-0.4,0.5c-0.2,0.2-0.5,0.3-0.9,0.3c-0.5,0-0.9-0.2-1.3-0.6
			c-0.3-0.3-0.5-0.9-0.5-1.7c0-0.7,0.2-1.3,0.7-1.7c0.4-0.3,0.8-0.5,1.6-0.5h0.8v-1.2c0-0.7-0.3-1.1-0.9-1.1c-0.3,0-0.4,0.1-0.6,0.2
			c-0.2,0.2-0.3,0.5-0.3,0.9h-1.2c0-0.6,0.1-1.1,0.6-1.6c0.3-0.3,0.9-0.5,1.4-0.5c0.6,0,1.1,0.2,1.5,0.5c0.4,0.4,0.6,0.9,0.6,1.6
			v5.4h-1.1V69.9z M177.5,66.4h-0.7c-0.4,0-0.6,0.1-0.8,0.3c-0.2,0.2-0.3,0.6-0.3,1c0,0.8,0.3,1.3,0.9,1.3c0.6,0,0.9-0.5,0.9-1.2
			L177.5,66.4L177.5,66.4z"/>
		<path class="st0" d="M182.8,63.4c-0.8,0-1.4,0.5-1.4,1.4v5.1h-1.2v-7.5h1.1v0.8c0.1-0.2,0.3-0.4,0.5-0.5c0.3-0.2,0.8-0.4,1.2-0.4
			v1.1C183,63.4,182.8,63.4,182.8,63.4z"/>
		<path class="st0" d="M186.8,69.9v-0.6c-0.1,0.1-0.3,0.4-0.4,0.5c-0.2,0.1-0.5,0.2-0.8,0.2c-0.5,0-0.9-0.2-1.2-0.6
			c-0.5-0.5-0.5-1.6-0.5-3.3c0-1.7,0.1-2.7,0.5-3.3c0.3-0.4,0.7-0.5,1.2-0.5c0.3,0,0.6,0.1,0.8,0.2c0.1,0.1,0.3,0.3,0.4,0.4v-3.3
			h1.2v10.3H186.8z M186.8,64.4c0-0.4-0.1-0.7-0.3-0.9s-0.4-0.2-0.6-0.2c-0.3,0-0.5,0.1-0.6,0.3c-0.3,0.3-0.3,1-0.3,2.5
			s0,2.2,0.3,2.5c0.1,0.2,0.4,0.3,0.6,0.3c0.2,0,0.4-0.1,0.6-0.2c0.2-0.2,0.3-0.5,0.3-0.9V64.4z"/>
		<path class="st0" d="M193.6,70.1c0,1.1-0.2,1.7-0.6,2.1c-0.3,0.4-0.9,0.6-1.5,0.6s-1.1-0.2-1.5-0.5c-0.4-0.4-0.6-1-0.6-1.6h1.2
			c0,0.4,0,0.7,0.2,0.9c0.2,0.2,0.4,0.2,0.6,0.2c0.3,0,0.5-0.1,0.6-0.3c0.2-0.2,0.3-0.6,0.3-1.3V69c-0.1,0.2-0.3,0.3-0.4,0.4
			c-0.2,0.2-0.5,0.2-0.8,0.2c-0.5,0-0.9-0.2-1.2-0.5c-0.5-0.5-0.6-1.4-0.6-3.1s0.1-2.6,0.6-3.1c0.3-0.4,0.7-0.5,1.2-0.5
			c0.3,0,0.6,0.1,0.8,0.2c0.2,0.1,0.3,0.3,0.4,0.4v-0.5h1.1v7.6H193.6z M192.4,64.4c0-0.4-0.1-0.7-0.3-0.9s-0.4-0.2-0.6-0.2
			c-0.3,0-0.5,0.1-0.6,0.3c-0.3,0.3-0.3,0.9-0.3,2.3s0,2,0.3,2.3c0.1,0.2,0.4,0.3,0.6,0.3c0.2,0,0.4-0.1,0.6-0.2
			c0.2-0.2,0.3-0.4,0.3-0.9V64.4z"/>
		<path class="st0" d="M197.9,69.9v-0.7c-0.1,0.2-0.3,0.4-0.4,0.5c-0.2,0.2-0.5,0.3-0.9,0.3c-0.5,0-0.9-0.2-1.3-0.6
			c-0.3-0.3-0.5-0.9-0.5-1.7c0-0.7,0.2-1.3,0.7-1.7c0.4-0.3,0.8-0.5,1.6-0.5h0.8v-1.2c0-0.7-0.3-1.1-0.9-1.1c-0.3,0-0.4,0.1-0.6,0.2
			c-0.2,0.2-0.3,0.5-0.3,0.9H195c0-0.6,0.1-1.1,0.6-1.6c0.3-0.3,0.9-0.5,1.4-0.5c0.6,0,1.1,0.2,1.5,0.5c0.4,0.4,0.6,0.9,0.6,1.6v5.4
			h-1.2V69.9z M197.9,66.4h-0.7c-0.4,0-0.6,0.1-0.8,0.3c-0.2,0.2-0.3,0.6-0.3,1c0,0.8,0.3,1.3,0.9,1.3c0.6,0,0.9-0.5,0.9-1.2
			L197.9,66.4L197.9,66.4z"/>
		<path class="st0" d="M206.5,69.9v-5.5c0-0.7-0.4-1-0.9-1s-0.9,0.3-0.9,1v5.5h-1.2v-5.5c0-0.7-0.4-1-0.9-1s-0.9,0.3-0.9,1v5.5h-1.2
			v-7.5h1.1V63c0.1-0.2,0.3-0.4,0.5-0.5s0.5-0.2,0.8-0.2c0.6,0,1.1,0.3,1.4,0.8c0.2-0.2,0.4-0.4,0.6-0.5c0.2-0.1,0.6-0.2,0.9-0.2
			c0.7,0,1,0.2,1.3,0.5s0.4,0.7,0.4,1.5v5.5C207.5,69.9,206.5,69.9,206.5,69.9z"/>
		<path class="st0" d="M210.3,66.4c0,1.2,0,1.9,0.3,2.2c0.1,0.2,0.4,0.3,0.7,0.3s0.5-0.1,0.7-0.3c0.2-0.2,0.2-0.5,0.2-0.9h1.2
			c0,0.7-0.2,1.2-0.6,1.7c-0.4,0.4-0.9,0.5-1.5,0.5s-1.1-0.2-1.5-0.6c-0.6-0.6-0.7-1.7-0.7-3.3c0-1.6,0.1-2.7,0.7-3.3
			c0.4-0.4,0.9-0.6,1.5-0.6s1.1,0.2,1.5,0.6c0.6,0.6,0.7,1.7,0.7,3.6h-3.2V66.4z M211.9,63.7c-0.1-0.2-0.3-0.3-0.7-0.3
			c-0.3,0-0.5,0.1-0.7,0.3c-0.2,0.3-0.3,0.8-0.3,1.9h1.9C212.1,64.5,212.1,63.9,211.9,63.7z"/>
		<path class="st0" d="M218,69.4c-0.4,0.4-0.9,0.6-1.5,0.6s-1.1-0.2-1.5-0.6s-0.6-1-0.6-1.6h1.2c0,0.4,0.1,0.7,0.3,0.9
			c0.2,0.2,0.4,0.3,0.7,0.3s0.5-0.1,0.7-0.3c0.2-0.2,0.3-0.4,0.3-0.8c0-0.3-0.1-0.5-0.2-0.7c-0.1-0.2-0.4-0.4-0.7-0.5l-1-0.5
			c-0.5-0.2-0.8-0.5-1-0.9c-0.2-0.3-0.2-0.6-0.2-1c0-0.7,0.2-1.1,0.6-1.5c0.4-0.4,0.9-0.6,1.5-0.6s1.1,0.2,1.5,0.5
			c0.4,0.4,0.6,0.9,0.6,1.6h-1.2c0-0.4-0.1-0.7-0.3-0.9s-0.4-0.3-0.6-0.3c-0.3,0-0.5,0.1-0.7,0.2c-0.2,0.2-0.3,0.4-0.3,0.7
			c0,0.2,0,0.4,0.1,0.5c0.1,0.2,0.3,0.3,0.6,0.5l1,0.5c0.5,0.2,0.8,0.5,1.1,0.9c0.2,0.3,0.3,0.7,0.3,1.2
			C218.6,68.5,218.4,69.1,218,69.4z"/>
	</g>
</g>
</svg>
