<?xml version="1.0" encoding="utf-8"?>
<!-- Generator: Adobe Illustrator 26.0.1, SVG Export Plug-In . SVG Version: 6.00 Build 0)  -->
<svg version="1.1" id="Слой_1" xmlns="http://www.w3.org/2000/svg" xmlns:xlink="http://www.w3.org/1999/xlink" x="0px" y="0px"
	 viewBox="0 0 65.6 42.8" style="enable-background:new 0 0 65.6 42.8;" xml:space="preserve">
<style type="text/css">
	.st0{fill:#DE7C29;}
</style>
<rect x="94" y="-5" class="st0" width="70.2" height="70.2"/>
<g>
	<g>
		<g>
			<path class="st0" d="M43,149.3c-0.1-1.7-0.5-3.3-1-4.9c0-0.1,0.2-2.1,1.1-2.9c0.1-0.1,0.1-0.2,0-0.3c-0.1-0.1-0.1-0.1-0.2-0.1
				c-1.2,0.2-2.9-1.2-2.9-1.2l0,0c-0.6-1-1.2-1.9-1.9-2.8c0,0,0,0,0-0.1l0.9-3.9c0-0.1,0-0.1-0.1-0.2s-0.1-0.1-0.2-0.1l-3.9,1l0,0
				c-1.1-0.9-2.2-1.6-3.4-2.3c-0.1-0.1-1.3-1.7-1.2-2.9c0-0.1-0.1-0.2-0.1-0.2c-0.1,0-0.2,0-0.2,0.1c-0.7,0.9-2.9,1.1-2.9,1.1l0,0
				c-1.4-0.3-2.9-0.5-4.4-0.7l-1.6-8.5c0-0.1-0.1-0.2-0.2-0.2s-0.2,0.1-0.2,0.2l-1.6,8.5c-1.5,0.1-2.9,0.4-4.3,0.8l0,0
				c0,0-2.2-0.2-2.9-1.1c-0.1-0.1-0.2-0.1-0.2-0.1c-0.1,0-0.1,0.1-0.1,0.2c0.1,1.2-1.1,2.8-1.2,2.9c-1.2,0.7-2.3,1.4-3.4,2.3l0,0
				l-3.9-1c-0.1,0-0.1,0-0.2,0.1c-0.1,0.1-0.1,0.1-0.1,0.2l0.9,3.9l0,0c-0.7,0.9-1.4,1.8-1.9,2.8H1.6c0,0-1.7,1.4-2.9,1.2
				c-0.1,0-0.2,0-0.2,0.1c0,0.1,0,0.2,0,0.3c0.9,0.9,1.1,2.9,1.1,3l0,0c-0.5,1.6-0.8,3.2-0.9,4.9l-8.7,1.6c-0.1,0-0.2,0.1-0.2,0.2
				c0,0.1,0.1,0.2,0.2,0.2l8.5,1.6c0.1,1.7,0.5,3.3,0.9,4.9l0,0c0,0-0.2,2.1-1.1,3c-0.1,0.1-0.1,0.2,0,0.3c0,0.1,0.1,0.1,0.2,0.1
				c1.2-0.2,2.9,1.2,2.9,1.2h0.1c0.6,1,1.2,1.8,1.9,2.7l-0.9,3.8c0,0.1,0,0.1,0.1,0.2c0,0,0.1,0.1,0.2,0.1c0,0,0,0,0.1,0l3.7-0.9
				c1.1,0.9,2.3,1.7,3.6,2.4c0.1,0.1,1.3,1.7,1.2,2.9c0,0.1,0.1,0.2,0.1,0.2h0.1c0.1,0,0.1,0,0.2-0.1c0.7-0.9,2.9-1.1,2.9-1.1l0,0
				c1.4,0.4,2.8,0.7,4.3,0.8l1.6,8.5c0,0.1,0.1,0.2,0.2,0.2s0.2-0.1,0.2-0.2l1.6-8.5c1.5-0.1,2.9-0.4,4.3-0.8l0,0
				c0,0,2.2,0.2,2.9,1.1c0,0.1,0.1,0.1,0.2,0.1h0.1c0.1,0,0.1-0.1,0.1-0.2c-0.1-1.2,1.1-2.8,1.2-2.9c1.3-0.7,2.5-1.5,3.6-2.5
				l3.7,0.9c0,0,0,0,0.1,0s0.1,0,0.2-0.1c0.1-0.1,0.1-0.1,0.1-0.2l-0.9-3.9c0.7-0.8,1.3-1.7,1.8-2.7c0,0,0,0,0.1,0
				c0,0,1.7-1.4,2.9-1.2c0.1,0,0.2,0,0.2-0.1c0-0.1,0-0.2,0-0.3c-0.9-0.8-1.1-2.9-1.1-2.9c0.5-1.6,0.8-3.2,1-4.9l8.5-1.6
				c0.1,0,0.2-0.1,0.2-0.2s-0.1-0.2-0.2-0.2L43,149.3z M1,161.6c-0.5-0.3-1.3-0.8-2.1-0.9c0.4-0.6,0.7-1.4,0.8-2
				C0.1,159.8,0.5,160.6,1,161.6L1,161.6z M1,140.8L1,140.8c-0.5,1-0.9,1.9-1.2,2.9c-0.1-0.6-0.4-1.4-0.8-2
				C-0.3,141.6,0.5,141.1,1,140.8z M3,133.4l3.4,0.8l1.4,4.1L3,133.4L3,133.4z M38.6,133.4L38.6,133.4l-4.8,5l1.4-4.1L38.6,133.4z
				 M40.8,152.6c1.5-0.2,2.9-0.4,4.4-0.6c-1.4,0.3-2.9,0.6-4.3,0.9c-0.7,0.1-1.5,0.3-2.2,0.4l-2.2,0.4l-2.2,0.4
				c-0.7,0.1-1.5,0.2-2.2,0.4c-1.5,0.2-2.9,0.4-4.4,0.6c1.4-0.3,2.9-0.6,4.3-0.9c0.7-0.1,1.4-0.3,2.2-0.4l2.2-0.4l2.2-0.4
				C39.4,152.8,40.1,152.6,40.8,152.6z M22,172.8c0.1-0.8,0.3-1.6,0.4-2.4l0.4-2.4l0.4-2.4c0.2-0.8,0.3-1.6,0.5-2.4
				c0.3-1.6,0.6-3.2,1-4.8c-0.2,1.6-0.5,3.2-0.7,4.8c-0.1,0.8-0.3,1.6-0.4,2.4l-0.4,2.4l-0.4,2.4c-0.2,0.8-0.3,1.6-0.5,2.4
				c-0.3,1.6-0.6,3.2-1,4.8C21.5,175.9,21.8,174.3,22,172.8z M1.2,152.6l2.4,0.4l2.4,0.4c0.8,0.1,1.6,0.3,2.4,0.4
				c1.6,0.3,3.2,0.6,4.8,0.9c-1.6-0.2-3.3-0.4-4.9-0.7c-0.8-0.1-1.6-0.2-2.4-0.4l-2.3-0.3l-2.4-0.4c-0.8-0.1-1.6-0.3-2.4-0.4
				c-1.6-0.3-3.2-0.6-4.8-0.9c1.6,0.2,3.3,0.4,4.9,0.7C-0.4,152.2,0.4,152.3,1.2,152.6z M4.9,137.1c0.3,0.1,0.5,0.2,0.8,0.3
				c0.3,0.1,0.5,0.2,0.8,0.4l0.4,0.2c0.1,0.1,0.3,0.1,0.4,0.2c-0.1,0-0.3-0.1-0.4-0.1l-0.4-0.2c-0.3-0.1-0.5-0.2-0.8-0.3
				C5.4,137.6,5.1,137.3,4.9,137.1c-0.3,0-0.6-0.2-0.8-0.3C4.3,136.9,4.6,137.1,4.9,137.1z M22.1,131.8l-0.3-1.9
				c0-0.5-0.1-1.2-0.2-1.8c-0.2-1.2-0.3-2.5-0.4-3.7c0.3,1.2,0.5,2.5,0.7,3.7c0.1,0.6,0.2,1.2,0.3,1.8l0.3,1.8l0.3,1.9
				c0.1,0.6,0.2,1.2,0.3,1.9c0.2,1.2,0.3,2.5,0.4,3.7c-0.3-1.2-0.5-2.5-0.7-3.7c-0.1-0.6-0.2-1.2-0.3-1.8L22.1,131.8z M36.7,137.1
				c0.3-0.1,0.5-0.2,0.8-0.3C37.3,137.1,37,137.1,36.7,137.1c-0.2,0.2-0.5,0.3-0.8,0.4c-0.3,0.1-0.5,0.2-0.8,0.3l-0.4,0.2
				c-0.1,0-0.3,0.1-0.4,0.1c0.1-0.1,0.3-0.1,0.4-0.2l0.4-0.2c0.3-0.1,0.5-0.2,0.8-0.4C36.2,137.4,36.5,137.3,36.7,137.1z
				 M37.4,158.8l-7-2.4l6.7,3.1c-0.8,1.5-1.7,2.9-2.8,4.1l-0.7-0.3c-0.1,0-0.2,0-0.2,0c-0.1,0.1-0.1,0.1-0.1,0.2l0.3,0.8
				c-1,1-2.2,1.9-3.5,2.6l-4-7.1l3.3,7.4c-1.8,1-3.8,1.7-5.9,2l2.1-11.1l6.8,4.6h0.1c0.1,0,0.1,0,0.2-0.1c0.1-0.1,0.1-0.2,0-0.3
				l-4.6-6.5l10.8-2.1C38.6,155.6,38.1,157.2,37.4,158.8z M11.6,166.9c-1.3-0.7-2.4-1.6-3.5-2.6l0.3-0.9c0-0.1,0-0.2-0.1-0.2
				c-0.1-0.1-0.1-0.1-0.2,0l-0.8,0.3c-1.1-1.2-2.1-2.6-2.8-4.1l6.7-3.1l-7,2.4c-0.7-1.5-1.1-3.2-1.4-4.9l11,2.1l-4.6,6.5
				c-0.1,0.1-0.1,0.2,0,0.3c0,0,0.1,0.1,0.2,0.1h0.1l6.6-4.4l2.1,11c-2.1-0.3-4.1-1-5.9-2l3.3-7.4L11.6,166.9z M0.3,148.8
				c0.3-1.9,0.8-3.9,1.7-5.6c-0.7,1.9-1.1,3.9-1.2,5.9H0.2C0.2,148.9,0.2,148.8,0.3,148.8z M2.1,144.1c-0.5,1.6-0.8,3.2-0.9,4.8
				l-0.5,0.1C1,147.2,1.4,145.6,2.1,144.1z M2.3,145.1c-0.4,1.2-0.5,2.5-0.6,3.7l-0.4,0.1C1.5,147.6,1.8,146.2,2.3,145.1z
				 M2.6,146.1c-0.2,0.9-0.3,1.8-0.4,2.7l-0.4,0.1C2,147.8,2.2,146.8,2.6,146.1z M4.1,143.8l7,2.4l-6.6-3.1c0.8-1.6,1.8-3,3-4.3
				l0.7,0.2c0,0,0,0,0.1,0s0.1,0,0.2-0.1c0.1-0.1,0.1-0.1,0.1-0.2l-0.4-0.6c1-1,2.2-1.8,3.4-2.5l4,7.1l-3.3-7.4c1.8-1,3.8-1.7,5.9-2
				l-2.1,11.1l-6.6-4.4c-0.1-0.1-0.2,0-0.3,0c-0.1,0.1-0.1,0.2,0,0.3l4.5,6.3l-10.9,2.1C3,146.8,3.4,145.2,4.1,143.8z M14.1,132.4
				c-0.5,0.2-1.1,0.4-1.6,0.7c-0.5,0.2-1,0.5-1.5,0.8s-1,0.6-1.5,0.8c0.5-0.3,0.9-0.7,1.4-1s1-0.6,1.5-0.8s1.1-0.5,1.6-0.6
				c0.6-0.2,1.1-0.3,1.7-0.4C15.2,132.1,14.7,132.2,14.1,132.4z M14.8,132.8c-0.4,0.2-0.7,0.3-1.1,0.5s-0.7,0.3-1.1,0.5
				s-0.7,0.3-1.1,0.5c-0.3,0.2-0.7,0.3-1.1,0.5c0.3-0.2,0.6-0.4,1-0.6c0.3-0.2,0.7-0.4,1-0.5c0.4-0.2,0.7-0.3,1.1-0.4
				C14.1,132.9,14.4,132.8,14.8,132.8z M16.7,130.9c-0.7,0.2-1.5,0.5-2.2,0.7c-0.7,0.3-1.4,0.6-2.1,0.9c-0.7,0.3-1.4,0.7-2,1.1
				c-0.7,0.4-1.3,0.8-2,1.2c0.6-0.5,1.3-0.9,1.9-1.3c0.7-0.4,1.3-0.8,2-1.1s1.4-0.6,2.2-0.8C15.2,131.2,15.9,131.1,16.7,130.9z
				 M15.2,147.1c-0.1,0.1-0.2,0.2-0.3,0.3l-3.8-5.2L15.2,147.1z M15.8,146.2l-5.6-5.4l6.7,4.5C16.5,145.6,16.1,145.9,15.8,146.2z
				 M20.8,144.6c1.8,0,3.5,0.7,4.7,1.9c-0.1-0.1-0.2-0.1-0.2-0.2c-0.1-0.1-0.2-0.2-0.3-0.2c-0.1-0.1-0.2-0.1-0.3-0.2
				c-0.4-0.2-0.9-0.4-1.4-0.5c0.2,0.1,0.4,0.2,0.6,0.4l0.2,0.1l0.1,0.1c0.1,0.1,0.2,0.1,0.3,0.2c0.4,0.3,0.7,0.6,1,1
				c0.1,0.1,0.1,0.2,0.2,0.3l0.1,0.1c-0.1-0.1-0.2-0.3-0.3-0.4l-0.1-0.1l-0.3-0.1c-0.1-0.1-0.2-0.2-0.3-0.2l-0.2-0.3l-0.3-0.2
				c-0.4-0.2-0.8-0.4-1.3-0.6c0.4,0.2,0.8,0.5,1.1,0.7c0.4,0.3,0.7,0.6,0.9,1c0.1,0.1,0.1,0.2,0.2,0.3l0.2,0.3
				c-0.1-0.2-0.2-0.4-0.4-0.5c-0.6-0.6-1.4-1.1-2.2-1.4c0.4,0.2,0.7,0.4,1.1,0.7c0.3,0.3,0.6,0.6,0.9,0.9c0.1,0.1,0.2,0.3,0.3,0.5
				c-0.1-0.2-0.2-0.3-0.3-0.5c-0.6-0.6-1.3-1-2.1-1.3c0.7,0.4,1.4,0.9,1.9,1.5c0.1,0.1,0.1,0.2,0.1,0.2c-0.1-0.1-0.1-0.2-0.2-0.2
				c-0.5-0.6-1.3-1-2-1.2c0.5,0.3,0.9,0.7,1.3,1c-0.8-0.7-1.8-1.1-2.9-1.1c-2.5,0-4.5,2-4.5,4.5c0,1.1,0.5,2.1,1.1,2.9
				c-0.3-0.3-0.6-0.6-0.9-0.9c0.2,0.7,0.7,1.4,1.3,1.9c-0.6-0.4-1.1-0.9-1.5-1.5c0.3,0.8,0.9,1.4,1.5,2c0.1,0.1,0.2,0.1,0.4,0.2
				c-0.1,0-0.1,0-0.2-0.1c-0.7-0.4-1.4-1-1.9-1.7c0.4,0.8,1,1.5,1.7,2c0.1,0.1,0.3,0.1,0.4,0.2c-0.1,0-0.2,0-0.2-0.1
				c-0.8-0.4-1.5-1-2.1-1.7c0.4,0.8,1.1,1.5,1.9,2c0.1,0.1,0.2,0.1,0.3,0.1h-0.1l-0.3-0.2c-0.1-0.1-0.2-0.1-0.3-0.2h-0.4l-0.3-0.2
				l-0.3-0.2c-0.1-0.1-0.2-0.2-0.3-0.2l-0.3-0.2c-0.1-0.1-0.2-0.2-0.3-0.3c0.2,0.5,0.4,0.9,0.8,1.3c-1.4-1.2-2.3-3-2.3-4.9
				C14.2,147.6,17.2,144.6,20.8,144.6z M10.2,161.8l4.7-6.7c0.3,0.4,0.6,0.8,1,1.2L10.2,161.8L10.2,161.8z M13.3,159.4
				c0.7-0.6,1.4-1.2,2.1-1.8l1-0.9c0.1,0.1,0.2,0.2,0.4,0.3c0,0,0,0-0.1,0l-1.2,0.8C14.9,158.4,14.1,158.9,13.3,159.4z M24.2,148.2
				c0.3,0.3,0.5,0.7,0.6,1c-0.2-0.4-0.5-0.8-0.8-1.1C24.1,148.1,24.1,148.1,24.2,148.2z M25.2,151.6v0.1v0.3c0,0.1,0,0.2-0.1,0.3
				c0,0,0,0,0,0.1C25.1,152.1,25.2,151.8,25.2,151.6L25.2,151.6z M24.6,153.6L24.6,153.6l-0.2,0.2l-0.1,0.1c0.1-0.1,0.2-0.3,0.3-0.5
				V153.6z M23.1,154.9c0.1,0,0.1-0.1,0.2-0.1C23.3,154.9,23.2,154.9,23.1,154.9z M21.2,155.6c0.1,0,0.2,0,0.2-0.1
				C21.3,155.6,21.2,155.6,21.2,155.6z M20.1,155.6c-0.2,0-0.4-0.1-0.6-0.2c0.3,0.1,0.6,0.1,0.9,0.2
				C20.3,155.6,20.2,155.6,20.1,155.6z M26.2,157.8l-1.2-0.8c-0.1,0-0.1-0.1-0.2-0.1c0.1-0.1,0.3-0.2,0.4-0.3l0.1,0.1l1.1,0.9
				c0.7,0.6,1.4,1.2,2.1,1.8C27.7,158.9,27,158.4,26.2,157.8z M25.1,150.1c0,0.2,0,0.3,0,0.5c0-0.3-0.1-0.5-0.2-0.8
				C25.1,149.9,25.1,150.1,25.1,150.1z M24.9,151.2c0,2.3-1.8,4.1-4.1,4.1c-1.3,0-2.3-0.6-3.1-1.5c0.3,0.3,0.5,0.5,0.9,0.7
				c0.4,0.2,0.9,0.4,1.4,0.4c-0.6-0.2-1-0.6-1.4-1c0.1,0.1,0.2,0.2,0.3,0.2c0.4,0.2,0.8,0.3,1.2,0.3c-0.5-0.2-0.9-0.5-1.3-0.9
				c0.1,0.1,0.2,0.2,0.3,0.2c0.3,0.2,0.7,0.3,1.1,0.3c-0.4-0.2-0.8-0.5-1.1-0.8c0.1,0.1,0.1,0.1,0.2,0.2c0.3,0.1,0.6,0.2,1,0.2
				c-0.3-0.1-0.4-0.4-0.6-0.5c0.2,0.1,0.5,0.1,0.7,0.1c-0.5-0.3-0.8-0.6-1.1-1v-0.1v0.1c0.3,0.5,0.9,0.8,1.5,0.8
				c1,0,1.8-0.8,1.9-1.7c0-0.1,0-0.1,0-0.2c0-1-0.8-1.9-1.9-1.9c-0.5,0-1,0.2-1.3,0.5c0,0,0,0,0-0.1c0.3-0.4,0.7-0.6,1.3-0.8
				c-0.3-0.1-0.6-0.1-0.8,0c-0.1,0-0.1,0.1-0.2,0.1c0.1-0.1,0.2-0.2,0.3-0.2c0.2-0.1,0.3-0.1,0.5-0.2l-0.1-0.1c-0.2,0-0.4,0-0.6,0
				c-0.1,0-0.2,0-0.3,0.1c0.1,0,0.1-0.1,0.2-0.2c0.2-0.1,0.4-0.2,0.6-0.2l0.1-0.1c-0.2,0-0.5,0-0.7,0c-0.1,0-0.3,0.1-0.4,0.1
				c0.1,0,0.1-0.1,0.2-0.1c0.2-0.1,0.4-0.2,0.7-0.3c0.1,0,0.2-0.1,0.3-0.1c-0.3,0-0.5,0-0.8,0c-0.2,0-0.3,0.1-0.5,0.1
				c0,0-0.1,0-0.1,0.1c0.1,0,0.1-0.1,0.2-0.1c0.4-0.2,0.8-0.3,1.3-0.4c-0.5-0.1-0.9,0-1.4,0.1c-0.4,0.1-0.7,0.3-1,0.5
				c0.7-0.6,1.6-1,2.6-1C23,147.1,24.9,148.9,24.9,151.2z M20.8,149.8c0.8,0,1.4,0.6,1.4,1.4l-0.1-0.1c0,0.3-0.4,0.6-0.6,0.5
				c-0.2-0.1-0.3-0.5,0-0.8c-1-0.3-1.7,0.2-2,1.1c-0.1-0.2-0.2-0.4-0.2-0.6C19.3,150.4,20,149.8,20.8,149.8z M20,151.9
				c0-0.1,0.2-0.1,0.4,0c0.2,0.1,0.3,0.3,0.3,0.3c0,0.1-0.2,0.1-0.4,0C20,152.2,19.9,152.1,20,151.9z M17.9,148.3L17.9,148.3
				L17.9,148.3z M18.8,155.2c-0.2-0.1-0.5-0.2-0.7-0.4c-0.1-0.1-0.2-0.2-0.3-0.3C18.1,154.8,18.4,155.1,18.8,155.2z M18.2,155.3
				c-0.1,0-0.1,0-0.2-0.1c-0.1,0-0.1-0.1-0.2-0.1C18,155.2,18.1,155.3,18.2,155.3z M31.6,161.8l-5.8-5.7c0.3-0.4,0.6-0.8,0.9-1.2
				L31.6,161.8z M30.5,133.3c-0.6-0.3-1.2-0.6-1.9-0.9c-1.3-0.5-2.6-0.9-4-1.3c0.7,0.1,1.4,0.2,2.1,0.4c0.7,0.2,1.4,0.4,2,0.7
				C29.4,132.6,30,132.8,30.5,133.3c0.7,0.3,1.3,0.7,1.8,1.2C31.7,134.1,31.1,133.6,30.5,133.3z M30.6,134.1
				c-0.4-0.2-0.8-0.4-1.2-0.5c-0.4-0.2-0.8-0.3-1.2-0.5c-0.4-0.2-0.8-0.3-1.2-0.5c-0.4-0.1-0.8-0.3-1.2-0.4c0.4,0.1,0.8,0.2,1.3,0.3
				c0.4,0.1,0.8,0.3,1.2,0.4c0.4,0.2,0.8,0.3,1.2,0.6C29.8,133.6,30.2,133.8,30.6,134.1z M31.6,140.9l-5.7,5.6
				c-0.3-0.4-0.7-0.7-1.1-1L31.6,140.9L31.6,140.9z M26.5,147.1l4.2-5l-4,5.3C26.6,147.3,26.5,147.2,26.5,147.1z M32.6,140.1
				c0.1-0.1,0.1-0.2,0-0.3c-0.1-0.1-0.2-0.1-0.3,0l-6.7,4.6l-2.1-11.2c2.1,0.3,4.1,1,5.9,2l-3.3,7.4l4-7.1c1.2,0.7,2.4,1.6,3.5,2.6
				l-0.2,0.7c0,0.1,0,0.2,0.1,0.2c0,0,0.1,0.1,0.2,0.1c0,0,0,0,0.1,0l0.6-0.2c1.2,1.3,2.2,2.7,3,4.3l-6.7,3.1l7-2.4
				c0.7,1.5,1.1,3.2,1.4,4.9l-10.7-2L32.6,140.1z M39,146.1c0.3,0.9,0.6,1.8,0.7,2.8l-0.4-0.1C39.3,147.8,39.2,146.8,39,146.1z
				 M39.2,145.1c0.5,1.2,0.8,2.5,1.1,3.8l-0.4-0.1C39.7,147.6,39.6,146.2,39.2,145.1z M39.4,144.1c0.7,1.5,1.1,3.2,1.4,4.9l-0.5-0.1
				C40.2,147.2,40,145.6,39.4,144.1z M39.6,143.1c0.8,1.8,1.4,3.7,1.7,5.6c0,0.1,0,0.2,0,0.3l-0.5-0.1
				C40.7,146.9,40.4,145.1,39.6,143.1z M0.7,153.6c0.3,1.7,0.7,3.3,1.4,4.9c-0.5-1.6-0.8-3.2-0.9-4.8l0,0c0.2,1.3,0.6,2.6,1.1,3.8
				c-0.3-1.2-0.5-2.5-0.6-3.7h0.1c0.2,0.9,0.3,1.9,0.7,2.7c-0.1-0.5-0.1-1.1-0.1-1.6c0.7,3.4,2.3,6.4,4.5,8.9l-2,0.7
				c-2.4-2.9-4.1-6.5-4.6-10.4c0.3,1.8,0.8,3.7,1.6,5.3C1.2,157.4,0.9,155.4,0.7,153.6z M8,164.8c2.8,2.6,6.3,4.3,10.3,4.9v0.1
				c-0.9-0.1-1.8-0.2-2.7-0.4c0.9,0.3,1.8,0.6,2.8,0.7v0.1c-1.3-0.1-2.5-0.3-3.7-0.6c1.2,0.5,2.5,0.8,3.8,1.1v0.1
				c-1.6-0.1-3.2-0.4-4.8-0.9c1.5,0.7,3.2,1.1,4.9,1.4l0,0c-2-0.1-4-0.5-5.9-1.2c1.8,0.8,3.7,1.4,5.6,1.7c-4.2-0.5-8-2.2-11-4.9
				L8,164.8z M23.1,171.2c1.7-0.3,3.3-0.7,4.9-1.4c-1.6,0.5-3.2,0.8-4.8,0.9l0,0c1.3-0.2,2.6-0.6,3.8-1.1c-1.2,0.3-2.5,0.5-3.7,0.6
				v-0.1c0.9-0.2,1.9-0.3,2.7-0.7c-0.5,0.1-1.1,0.1-1.6,0.1c3.6-0.7,6.8-2.4,9.3-4.8l0.7,2.1c-3,2.6-6.7,4.3-10.8,4.9
				c1.8-0.3,3.7-0.8,5.3-1.6C27,170.8,25,171.1,23.1,171.2z M34.7,163.6c2.4-2.7,4.1-6.1,4.6-9.9h0.1c-0.1,0.9-0.1,1.8-0.3,2.7
				c0.3-0.9,0.6-1.8,0.7-2.8h0.1c-0.1,1.3-0.3,2.5-0.6,3.7c0.5-1.2,0.8-2.5,1.1-3.8l0,0c-0.1,1.6-0.4,3.2-0.9,4.8
				c0.7-1.5,1.1-3.2,1.4-4.9c-0.1,2-0.5,3.9-1.2,5.8c0.8-1.7,1.3-3.5,1.6-5.3c-0.5,3.9-2.2,7.5-4.6,10.4L34.7,163.6z M41.8,149.1
				c-0.4-4.3-2.1-8.3-4.8-11.4l0.8-0.3c2.7,3.3,4.4,7.4,4.8,11.9L41.8,149.1z M40.5,140.8c0.5,0.3,1.3,0.8,2.1,0.8
				c-0.4,0.6-0.7,1.4-0.8,2C41.4,142.6,41,141.6,40.5,140.8z M27.9,130.1c0.6-0.1,1.4-0.4,2-0.8c0.1,0.7,0.5,1.4,0.8,2
				C29.8,130.8,28.8,130.3,27.9,130.1z M34.7,134.3l-0.3,0.8c-3.2-2.7-7.2-4.5-11.6-4.9l-0.2-0.8C27.3,129.8,31.4,131.6,34.7,134.3z
				 M20.8,144.2c-1.3,0-2.4,0.4-3.5,1l-0.9-0.6l4.4-22.9V144.2z M18.7,130.2c-4.4,0.4-8.4,2.2-11.5,4.9l-0.3-0.8
				c3.3-2.7,7.4-4.5,12-4.9L18.7,130.2z M10.9,131.1c0.3-0.5,0.7-1.2,0.8-2c0.6,0.4,1.4,0.7,2,0.8C12.7,130.3,11.8,130.8,10.9,131.1
				z M3.8,137.4l0.8,0.3c-2.7,3.2-4.4,7.1-4.8,11.5l-0.8,0.2C-0.6,144.8,1.1,140.8,3.8,137.4z M13.9,146.9l0.7,1
				c-0.5,1-0.9,2.1-0.9,3.3H-8.8L13.9,146.9z M-0.2,153.3c0.4,4.3,2.1,8.1,4.7,11.3l-0.8,0.3c-2.6-3.3-4.3-7.3-4.7-11.7L-0.2,153.3z
				 M3.8,165.2l4-1.5l0,0l-4.8,5L3.8,165.2z M13.7,172.4c-0.6,0.1-1.4,0.4-2,0.8c-0.1-0.7-0.5-1.4-0.8-2
				C11.8,171.8,12.7,172.1,13.7,172.4z M6.8,168.1l0.3-0.8c3.2,2.7,7.2,4.5,11.6,4.9l0.2,0.8C14.3,172.6,10.2,170.8,6.8,168.1z
				 M16.4,158.1l1-0.7c1,0.5,2.1,0.9,3.3,0.9v22.6L16.4,158.1z M22.9,172.2c4.4-0.4,8.4-2.2,11.6-5l0.3,0.8c-3.3,2.8-7.5,4.6-12.1,5
				L22.9,172.2z M30.7,171.2c-0.3,0.5-0.7,1.2-0.8,2c-0.6-0.4-1.4-0.7-2-0.8C28.8,172.1,29.8,171.8,30.7,171.2z M33.8,163.8
				L33.8,163.8l4,1.5l0.8,3.5L33.8,163.8z M41.8,158.8c0.1,0.6,0.4,1.4,0.8,2c-0.7,0.1-1.5,0.5-2.1,0.8
				C41,160.8,41.4,159.8,41.8,158.8z M37.9,164.8l-0.8-0.3c2.6-3.1,4.2-7,4.7-11.3l0.8-0.2C42.2,157.6,40.5,161.6,37.9,164.8z
				 M27.8,151.2c0-1.1-0.3-2.2-0.8-3.1l0.8-1.2l22.5,4.3H27.8z"/>
		</g>
	</g>
</g>
<g>
	<path class="st0" d="M20.8,39.8c0,0.1-0.1,0.1-0.1,0.2c0-0.4-0.9-0.9-1.2-1c-0.2-0.1-0.5-0.2-0.7-0.3c-1.2-0.3-2.2,0.4-3.4,0.8
		c-1.6,0.6-3.4,0.4-4.9-0.3c-2.1-0.9-4.1-2.9-4.1-5.2V5.1c0-1.3-0.8-2.5-2-3h8.4c-0.6,0.2-1.1,0.6-1.5,1.2c-0.1,0.1-0.1,0.2-0.2,0.3
		c-0.2,0.5-0.4,1-0.4,1.5c0,0,0,2.5,0,6c0.4,0.1,0.8,0.1,1.2-0.1c1.6-0.5,3.1-2.2,4.9-1.4c1.8,0.8,1.2,2.5,1.2,2.5s-1.1-0.9-2.4-0.2
		C15.5,12,15.4,12,15.4,12c-1.4,0.7-3.1,0.8-4.7,0.4c0,9,0,23,0,23.1c0,0.9,0.1,3.4,1.5,3.3c0.9,0,1.8-1,2.4-1.6
		c1.2-1.4,2.9-3.2,5-2.1C21.1,35.9,21.5,38.2,20.8,39.8z"/>
	<path class="st0" d="M43.6,39.9h-4.7c-0.2-0.6-0.3-1.2-0.5-1.7v-0.1c-0.3-1.1-3-10-2-14.8c0.1-0.5,0.2-1.3,0.3-2.1
		c0.6-3.8-1.2-6.2-3.4-6.5c-0.1,0-0.6,0-0.7,0c-1.1,0.4-1.9,1.2-2.5,2.2c-0.4,0.6-0.6,1.5-0.8,2.4c0,0.2,0,0.3,0,0.5
		c0,2.2,0,4.4,0,6.6c0,2.7,0,5.5,0,8.2c0,0.8,0,1.5,0,2.2c0,0.3,0,0.5,0.1,0.8c0.1,0.5,0.5,0.9,0.8,1.4c0.3,0.3,0.7,0.8,1.1,1
		c0,0,0,0,0.1,0l0,0l0,0H23l0,0l0,0c0,0,0,0,0.1,0l1.2-1.1l0.1-0.1c0.5-0.5,0.8-1.3,0.8-2c0-1.6,0-3.3,0-5c0-2.8,0-5.7,0-8.4
		c0-2.6,0-5.3,0-7.9c0-1.2,0-2.4,0-3.5c0-0.1,0-0.1,0-0.2c0.1-4,1.8-5,2.5-5.3c1.4-0.6,2.5-1.4,2.5-3l0,0c0-0.7-0.2-1.2-0.2-1.3l0,0
		c1.6,0.3,3.4,1.2,3.6,3c0.1,0.6,0,1.3-0.4,2.1c-1.2,3-3.7,1.5-3.8,5.4c0,0.1,0,0.1,0,0.1V16c0.1-0.2,0.2-0.4,0.3-0.5
		c1.5-2.1,4.7-4.1,7.2-2.6c0,0,0.1,0,0.1,0.1c1.6,1,2.9,2.9,3.6,5.4c0.1,5.5-2.4,5.7-2.4,10.2c0,0.4,0.1,0.8,0.2,1.2
		c0.5,2.2,1.8,4,3.1,5.8C42.4,36.9,43.2,38.3,43.6,39.9z"/>
	<path class="st0" d="M61.5,36.7c-2.6,3.5-7.1,3.3-9.1,3.3h-0.1c-5.1-0.4-8.9-3.9-9.9-8.9c-0.9-4.7,1.1-10.7,5.8-12.5
		c0.5-0.2,0.8-0.2,0.8-0.2c-0.3-0.1-0.5-0.2-0.8-0.3c-3-1.5-3.9-5.5-3.4-8.5c0.2-1.1,0.5-2,1.1-2.9c1.4-2.1,3.6-3.4,6.1-3.8
		c1.2-0.3,2.5-0.4,3.8-0.1s2.8,1.2,4.1,0.5c0.3-0.2,1.2-0.6,1.2-1c0,0.1,0.1,0.1,0.1,0.2c0.2,0.4,0.3,0.9,0.4,1.4
		c0.1,2.2-1.7,4.7-3.9,3.4c-1.5-0.8-2.7-2.8-4.5-2.9c-3.3-0.1-6.3,2.4-6.3,5.7c0,2.6,0.8,4.2,1.8,5.3c1.1,1.1,2.6,1.5,3.6,1.6
		c0.9,0.1,1.5,0.9,1.5,1.7c0,0.6-0.4,1.3-1,1.6c-1.5,0.7-6.2,1.6-6.2,9.1c0,12.9,11.9,9.8,13.7,6.3c0.5-0.9,0.6-2,0.4-3
		c-0.6-2.2-3.1-4.4-2-6.9c1.2-2.5,3.5-1.6,3.5-1.6s-1.3,1.6-0.2,3.3c0.1,0.1,0.1,0.2,0.2,0.3C63.7,30.3,63.4,34.1,61.5,36.7z"/>
</g>
</svg>
