<?xml version="1.0" encoding="utf-8"?>
<!-- Generator: Adobe Illustrator 26.0.1, SVG Export Plug-In . SVG Version: 6.00 Build 0)  -->
<svg version="1.1" id="Слой_1" xmlns="http://www.w3.org/2000/svg" xmlns:xlink="http://www.w3.org/1999/xlink" x="0px" y="0px"
	 viewBox="0 0 1824 339" style="enable-background:new 0 0 1824 339;" xml:space="preserve">
<style type="text/css">
	.st0{fill:#44403C;}
	.st1{fill:#723F12;}
</style>
<g>
	<g>
		<g>
			<path class="st0" d="M459.5,236.3c-14.5,0-29.6-11.1-34.5-23.5c-2.3-5.9-3.4-12.4-3.2-18.7c0.2-5.6,1.5-11.1,3.9-15.9
				c0.3-0.5,0.5-1,0.8-1.5c4.9-7.7-0.9-15.1-0.9-15.1s5.3-2,10.2,1.1c1.9,1.2,3.7,3.2,5.2,6.4c2.7,5.9,1,11.4-1.6,16.7
				c-2.4,5-5.7,9.8-7.1,14.8c-1.3,4.6-0.5,9.4,1.6,13.6c4.5,9.1,13,13.8,21.2,13.3c3.8-0.2,7.5-1.1,11-2.6
				c13.2-5.8,22.1-24,19.6-38.6c-2.5-14.1-14.8-24.3-26.1-30.7c-7.8-4.4-16.8-10.1-24.3-17.2c-18-17.1-22-41.6-1.1-62.6
				c7.7-7.8,19.8-9.9,30.4-8c6.3,1.1,12.3,3.9,18.7,4c6.8,0.1,13.6-2.9,18.2-8.2c-0.2,6-0.7,12.1-3.4,17.4
				c-2.7,5.3-7.9,9.5-13.6,9.2c-9.3-0.5-15.1-10.9-23.7-14.6c-8.9-3.8-18.4-2.8-24.2,3.7c-8,9-3.5,24,3.7,33.2
				c7.1,9.1,17.5,14.9,27.1,20.5c9.1,5.3,19.4,10.4,26.5,18.7c1.1,1.2,2,2.5,2.9,3.9C518,187.2,499.8,236.4,459.5,236.3z"/>
			<path class="st0" d="M584.9,235.9c-0.1,0.2-0.2,0.5-0.3,0.7c0-1.8-4.2-3.9-5.6-4.7c-1.1-0.6-2.1-1-3.2-1.2
				c-5.5-1.3-10.3,1.8-15.7,3.9c-7.4,2.8-15.5,1.7-22.6-1.4c-9.4-4-18.8-13.2-18.8-24c0-0.1,0-132.2,0-132.2c0-6-3.7-11.5-9.3-13.7
				H548c-2.8,1.1-5.1,3.1-6.7,5.4c-0.3,0.4-0.5,0.8-0.7,1.2c-1.2,2.1-1.8,4.5-1.8,7.1c0,0,0,11.3,0,27.4c1.8,0.3,3.7,0.3,5.5-0.3
				c7.2-2.1,14.2-10.2,22.3-6.4c8.1,3.8,5.3,11.3,5.3,11.3s-5.2-4.3-10.7-0.7c-0.3,0.2-0.7,0.4-1,0.6c-6.4,3.3-14.3,3.7-21.5,1.6
				c0,41.1,0,105.4,0,105.6c0,4.3,0.2,15.2,6.6,15c4.2-0.1,8.2-4.7,10.7-7.5c5.8-6.5,13.3-14.7,22.8-9.4
				C586.3,218.3,588.4,228.6,584.9,235.9z"/>
			<path class="st0" d="M683,187c0.7,5.1,0.9,11.9,0,18.5c-2.3,16.9-16.4,25.6-32.4,29.5c-0.9,0.2-1.8,0.4-2.7,0.6c0,0-0.1,0-0.1,0
				c-7.4,1.5-15,1.3-22.3-0.5c-0.2-0.1-0.5-0.1-0.7-0.2c-4-1-7.8-2.2-11.5-3.8c-11.6-4.8-19.4-13.5-21.1-25.7
				c-0.5-4-0.7-8.7-0.6-11.9c0.6-17,8.7-25.4,8.9-42c0.1-5.1-0.6-10.9-2.5-18.1c-0.7-2.8-1.7-5.7-2.8-8.9c-1.4-3.8-2.4-7.7-3-11.6
				c-1.8-11.8,0.2-24.5,8.2-33.9c5.6-6.7,13.7-11.7,22.8-15.1c1.6-0.6,3.3-1.2,5-1.6c8.4-2.4,17.4-2.1,25.6,0.9c0,0,0.1,0,0.1,0
				c0.8,0.3,1.7,0.6,2.5,1c22.9,10.1,33.3,37.2,23.6,60.3c-6.8,16.1-6.3,26.9-3.9,36.6C678.2,169.7,681.6,177.3,683,187z
				 M656.5,127.8c3.5-12.8,11.6-33.5,3.8-46.2c-0.1-0.1-0.1-0.2-0.2-0.3c-10-16.2-33.7-16.2-43.8,0c0,0.1-0.1,0.2-0.2,0.2
				c-7.7,12.7,0.3,33.4,3.8,46.2c3.5,12.7,5.3,25.9,3.3,38.9c-1.5,9.5-6.3,18-8.3,27.4c-1.9,9.1-1.4,22.1,5.3,29.5
				c0,0.1,0.1,0.1,0.1,0.1c9.3,10.1,25.4,10.4,35,0.6c0.2-0.2,0.5-0.5,0.7-0.7c6.7-7.4,7.2-20.3,5.3-29.5c-2-9.4-6.8-17.9-8.3-27.4
				C651.2,153.7,653,140.5,656.5,127.8z"/>
			<path class="st0" d="M755.6,85.6c-9.5,5.3-17.1-2.9-22.8-9.4c-2.5-2.9-6.5-7.4-10.7-7.5c-6.4-0.2-6.6,10.8-6.6,15
				c0,0.3,0,139.1,0,139.1c0,2.5,0.6,4.9,1.8,7.1c0.2,0.4,0.5,0.8,0.7,1.2c1.6,2.4,3.9,4.3,6.7,5.5h-38.6c5.6-2.3,9.3-7.7,9.3-13.7
				c0,0,0-132.1,0-132.2c0-10.8,9.5-20,18.8-24c7.1-3.1,15.3-4.2,22.6-1.4c5.5,2.1,10.2,5.2,15.7,3.9c1-0.2,2.1-0.6,3.2-1.2
				c1.4-0.8,5.5-2.8,5.5-4.7c0.1,0.2,0.2,0.5,0.3,0.7C765.2,71.3,763.1,81.5,755.6,85.6z"/>
			<path class="st0" d="M799.2,231.5l5.5,5.2h-38.6l5.5-5.2c2.3-2.2,3.8-5.3,3.8-8.5V108.3c0-3.2-1.4-6.3-3.8-8.5l-5.5-5.2h38.6
				l-5.5,5.2c-2.3,2.2-3.8,5.3-3.8,8.5V223C795.4,226.3,796.8,229.3,799.2,231.5z M780.7,86.7c-6.2-2.6-9.2-9.7-6.6-15.9
				c2.6-6.2,9.7-9.2,15.9-6.6c6.2,2.6,9.2,9.7,6.6,15.9C794.1,86.3,787,89.3,780.7,86.7z"/>
			<path class="st0" d="M895.4,221.6c-12,16.1-32.3,15-41.6,15c-0.1,0-0.2,0-0.3,0c-23.3-1.6-40.8-18-45.2-41
				c-4.2-21.3,4.8-49.1,26.7-57.1c2.3-0.9,3.8-1.1,3.8-1.1c-1.3-0.4-2.5-0.8-3.6-1.4c-13.6-6.9-18-25.2-15.7-39.2
				c0.8-4.7,2.4-9.3,5-13.3c6.1-9.7,16.7-15.6,27.7-17.6c5.7-1,11.7-1.1,17.4-0.2c6,1,13,5.4,18.9,2.2c1.4-0.8,5.5-2.8,5.5-4.7
				c0.1,0.2,0.2,0.5,0.3,0.7c0.9,1.9,1.5,4.1,1.6,6.3c0.7,9.9-7.8,21.2-18,15.3c-6.6-3.8-12.4-12.9-20.6-13.2
				c-14.9-0.6-28.8,10.7-28.8,26c0,11.9,3.6,19.4,8.4,24.2c5.2,5.1,11.8,7,16.7,7.7c3.9,0.5,6.9,3.9,6.9,7.9c0,3.1-1.8,5.9-4.5,7.2
				c-6.8,3.3-28.6,7.7-28.6,41.5c0,59.2,54.6,44.9,62.8,28.9c2.2-4.3,3-9,1.7-13.6c-3-10.2-14.4-20.1-9-31.5
				c5.4-11.5,15.9-7.5,15.9-7.5s-6,7.4-1,15.1c0.3,0.5,0.6,1,0.8,1.5C905.5,192.7,904.1,209.9,895.4,221.6z"/>
			<path class="st0" d="M950.8,236.3c-14.5,0-29.6-11.1-34.5-23.5c-2.3-5.9-3.4-12.4-3.2-18.7c0.2-5.6,1.5-11.1,3.9-15.9
				c0.3-0.5,0.5-1,0.8-1.5c4.9-7.7-0.9-15.1-0.9-15.1s5.3-2,10.2,1.1c1.9,1.2,3.7,3.2,5.2,6.4c2.7,5.9,1,11.4-1.6,16.7
				c-2.4,5-5.7,9.8-7.1,14.8c-1.3,4.6-0.5,9.4,1.6,13.6c4.5,9.1,13,13.8,21.2,13.3c3.8-0.2,7.5-1.1,11-2.6
				c13.2-5.8,22.1-24,19.6-38.6c-2.5-14.1-14.8-24.3-26.1-30.7c-7.8-4.4-16.8-10.1-24.3-17.2c-18-17.1-22-41.6-1.1-62.6
				c7.7-7.8,19.8-9.9,30.4-8c6.3,1.1,12.3,3.9,18.7,4c6.8,0.1,13.6-2.9,18.2-8.2c-0.2,6-0.7,12.1-3.4,17.4
				c-2.7,5.3-7.9,9.5-13.6,9.2c-9.3-0.5-15.1-10.9-23.7-14.6c-8.9-3.8-18.4-2.8-24.2,3.7c-8,9-3.5,24,3.7,33.2
				c7.1,9.1,17.5,14.9,27.1,20.5c9.1,5.3,19.4,10.4,26.5,18.7c1.1,1.2,2,2.5,2.9,3.9C1009.3,187.2,991,236.4,950.8,236.3z"/>
		</g>
		<g>
			<path class="st1" d="M150,316.1c-0.2,0.4-0.4,0.8-0.6,1.2c0-3.2-7.2-6.8-9.7-8.1c-1.9-1-3.7-1.7-5.5-2.1
				c-9.6-2.3-17.8,3.2-27.3,6.8c-12.8,4.9-27,3-39.4-2.4c-16.3-7-32.8-23-32.8-41.8c0-0.1,0-230.1,0-230.1c0-10.5-6.4-20-16.1-23.9
				h67.1c-4.9,2-8.9,5.3-11.7,9.5c-0.5,0.7-0.9,1.4-1.3,2.1c-2,3.7-3.1,7.9-3.1,12.3c0,0,0,19.6,0,47.7c3.2,0.6,6.4,0.5,9.6-0.5
				C91.8,83,104,69,118,75.6c14.1,6.6,9.3,19.7,9.3,19.7s-9.1-7.4-18.6-1.2c-0.6,0.4-1.2,0.7-1.8,1c-11.2,5.8-25,6.4-37.3,2.8
				c0,71.5,0,183.4,0,183.7c0,7.4,0.4,26.5,11.5,26.2c7.3-0.2,14.2-8.1,18.7-13.1c10-11.3,23.1-25.5,39.7-16.3
				C152.4,285.5,156.1,303.3,150,316.1z"/>
			<path class="st1" d="M331.6,317.3h-37.1c-1.3-4.8-2.5-9.3-3.6-13.6c0-0.1-0.1-0.3-0.1-0.4c-2.2-8.8-23.8-79.6-15.9-118.3
				c0.9-4.4,1.8-10.3,2.6-17c5.2-30.2-9.3-49.4-27.1-52.2c-0.9-0.1-4.8-0.2-5.8,0.2c-8.3,3.2-15.2,9.1-19.9,17.9
				c-2.9,5.3-4.9,11.7-6,19.2c0,1.2,0,2.4,0,3.6c0,17.4,0,34.8,0,52.3c0,21.8,0,43.5,0,65.3c0,5.9,0,11.8,0,17.6
				c0,2.3,0.1,4.4,0.7,6.6c1.2,4.1,3.7,7.5,6.6,10.6c2.3,2.4,5.7,6.6,8.6,8.1c0.1,0,0.2,0.1,0.2,0.1h-0.1l0.1,0.1h-67.1l0.1-0.1
				h-0.1c0.1,0,0.2-0.1,0.2-0.1l9.3-8.8c0.2-0.2,0.4-0.4,0.6-0.6c4.4-4,5.9-10.3,5.9-16c0.1-13.2,0-26.4,0-39.7
				c0-22.4,0-44.8,0-67.2c0-21.1,0-42.2,0-63.3c0-9.3,0-18.6,0-27.9c0-0.6,0-1.2,0-1.7c0.5-32,14.5-39.8,20-42.1
				c10.7-4.5,20-10.9,20-23.9c0,0,0-0.1,0-0.1c0-5.7-1.7-10-1.8-10.4c0,0,0,0,0.1,0c12.9,2.6,27.2,9.4,29,24.1
				c0.6,4.7,0,10.4-2.6,17.1c-9.1,23.9-29.4,11.6-29.9,42.9c0,0.3,0,0.7,0,1.1v25.7c0.6-1.3,1.4-2.8,2.5-4.4
				c11.5-16.9,37.3-32.5,57.1-20.5c0.1,0.1,0.3,0.2,0.4,0.2c13,8,23,23.3,28.4,43.2c1.1,43.7-19,44.8-18.5,81.3
				c0,3.1,0.7,6.3,1.4,9.4c4,17.6,14.7,31.8,24.5,46.4C321.7,293.1,328.5,304.2,331.6,317.3z"/>
			<path class="st1" d="M474.2,291.1c-20.9,27.9-56.1,26.2-72.4,26.2c-0.2,0-0.3,0-0.5,0c-40.6-2.7-70.9-31.4-78.7-71.3
				c-7.2-37.1,8.3-85.5,46.5-99.4c4.1-1.5,6.7-1.9,6.7-1.9c-2.2-0.6-4.3-1.5-6.3-2.5c-23.7-11.9-31.3-43.9-27.4-68.1
				c1.3-8.2,4.2-16.2,8.6-23.2c10.6-16.9,29-27.2,48.3-30.6c10-1.8,20.3-1.9,30.4-0.3c10.4,1.7,22.6,9.4,32.9,3.8
				c2.4-1.3,9.6-4.9,9.7-8.1c0.2,0.4,0.4,0.8,0.6,1.2c1.6,3.4,2.5,7.1,2.8,10.9c1.2,17.2-13.5,36.9-31.3,26.7
				c-11.5-6.6-21.6-22.4-35.9-23c-26-1-50.2,18.5-50.2,45.3c0,20.7,6.3,33.8,14.7,42c9.1,8.9,20.6,12.2,29.1,13.3
				c6.9,0.9,11.9,6.8,11.9,13.7c0,5.3-3.1,10.2-7.9,12.5c-11.9,5.7-49.8,13.4-49.8,72.2c0,103.1,94.9,78.2,109.4,50.3
				c3.8-7.4,5.3-15.7,2.9-23.7c-5.3-17.7-25-34.9-15.7-54.7c9.3-19.9,27.7-13.1,27.7-13.1s-10.5,12.8-1.7,26.2
				c0.5,0.8,1,1.7,1.5,2.6C491.8,240.8,489.4,270.9,474.2,291.1z"/>
		</g>
	</g>
	<g>
		<path class="st0" d="M534.5,317.7v-25.8c0-3.3-1.9-4.9-4.2-4.9c-2.3,0-4.1,1.6-4.1,4.9v25.8h-5.5v-48.3h5.5v15.7
			c0.5-0.7,1.3-1.6,2-2c1.1-0.7,2.4-1.1,3.8-1.1c2.6,0,4.5,0.9,6,2.6c1.4,1.6,2.1,3.5,2.1,7.3v25.8H534.5z"/>
		<path class="st0" d="M546.9,276.3v-6.4h6.4v6.4H546.9z M547.4,317.7v-35.1h5.5v35.1H547.4z"/>
		<path class="st0" d="M576,315.4c-1.9,2-4.3,2.8-7.2,2.8c-2.8,0-5.4-0.9-7-2.7c-2-2.1-3-4.5-3-7.7h5.4c0,1.8,0.5,3.2,1.5,4.3
			c0.8,0.8,2,1.2,3.1,1.2c1.4,0,2.4-0.4,3.3-1.3c0.8-0.8,1.4-2.1,1.4-3.5c0-1.2-0.3-2.2-0.9-3.2c-0.7-1-1.7-1.8-3.1-2.5l-4.5-2.3
			c-2.3-1.2-3.9-2.6-4.8-4.1c-0.7-1.3-1.1-2.8-1.1-4.6c0-3.1,1.2-5.4,2.9-7.1c1.8-1.8,4.2-2.6,6.9-2.6c2.8,0,5.2,0.8,6.8,2.5
			c1.8,1.8,2.8,4.3,2.8,7.7h-5.4c0-2-0.4-3.3-1.3-4.2c-0.8-0.9-1.9-1.2-3-1.2c-1.3,0-2.3,0.4-3.1,1.2c-0.9,0.9-1.3,2.1-1.3,3.4
			c0,1,0.2,1.8,0.6,2.6c0.5,0.8,1.5,1.6,2.9,2.3l4.5,2.2c2.4,1.2,3.9,2.4,4.9,4c1,1.4,1.5,3.4,1.5,5.6
			C579,311.2,577.8,313.7,576,315.4z"/>
		<path class="st0" d="M589.3,315.5c-2-1.6-3.1-4.2-3.1-7.9v-20.8h-4v-4.3h4v-9.6h5.5v9.6h5.4v4.3h-5.4v20.6c0,3.7,2,5.3,5.6,5.3
			v4.9C594.2,317.7,591.5,317.4,589.3,315.5z"/>
		<path class="st0" d="M618.9,315c-1.8,2.4-4.3,3.3-7.5,3.3c-3.1,0-5.6-0.9-7.4-3.3c-2.2-2.8-2.6-7.7-2.6-14.8
			c0-7.1,0.4-12.1,2.6-14.8c1.8-2.4,4.3-3.3,7.4-3.3c3.1,0,5.7,0.9,7.5,3.3c2.2,2.8,2.5,7.7,2.5,14.8
			C621.4,307.2,621.1,312.2,618.9,315z M614.6,288.5c-0.7-0.9-1.8-1.5-3.1-1.5s-2.4,0.5-3.1,1.5c-1.3,1.8-1.4,5.4-1.4,11.7
			c0,6.3,0.1,9.9,1.4,11.7c0.7,1,1.8,1.5,3.1,1.5s2.4-0.5,3.1-1.5c1.3-1.8,1.4-5.4,1.4-11.7C615.9,293.8,615.9,290.2,614.6,288.5z"
			/>
		<path class="st0" d="M639.9,287.3c-3.7,0-6.4,2.4-6.4,6.4v23.9h-5.5v-35.1h5.3v3.7c0.5-0.9,1.6-1.9,2.4-2.5
			c1.6-1.2,3.5-1.8,5.8-1.8v5.3H639.9z"/>
		<path class="st0" d="M646,276.3v-6.4h6.4v6.4H646z M646.5,317.7v-35.1h5.5v35.1H646.5z"/>
		<path class="st0" d="M675.5,315.8c-1.7,1.7-4.1,2.4-6.9,2.4c-3,0-5.6-0.9-7.4-3.3c-2.2-2.8-2.6-7.8-2.6-14.8
			c0-7.1,0.4-12.1,2.6-14.8c1.8-2.4,4.4-3.3,7.4-3.3c2.8,0,5,0.6,6.8,2.4c2.2,2,2.7,4.9,2.8,7.9h-5.5c0-1.4-0.1-2.9-1.1-4.1
			c-0.7-0.9-1.7-1.3-3.1-1.3c-1.3,0-2.4,0.5-3.1,1.5c-1.3,1.7-1.4,5.3-1.4,11.7c0,6.3,0.1,9.9,1.4,11.7c0.7,1,1.8,1.5,3.1,1.5
			c1.2,0,2.3-0.5,3-1.3c0.9-1.1,1.2-2.5,1.2-4.1h5.5C678.1,311.2,677.3,313.9,675.5,315.8z"/>
		<path class="st0" d="M697,317.7v-3.1c-0.5,0.9-1.4,1.8-2,2.4c-1.1,0.8-2.2,1.3-4.1,1.3c-2.6,0-4.4-0.8-6-2.6
			c-1.4-1.6-2.2-4.2-2.2-7.9c0-3.3,1.1-6.1,3.1-7.9c1.8-1.6,3.8-2.4,7.5-2.4h3.6v-5.6c0-3.3-1.4-5-4.1-5c-1.2,0-2,0.5-2.7,1.2
			c-1,1-1.3,2.2-1.3,4.1h-5.5c0-2.7,0.6-5.4,2.7-7.5c1.6-1.6,4.1-2.6,6.8-2.6c2.8,0,5.2,0.8,6.8,2.4c1.7,1.8,2.8,4.1,2.8,7.7v25.5
			H697z M696.7,301.4h-3.1c-1.7,0-2.8,0.3-3.9,1.3c-1,0.9-1.6,2.9-1.6,4.8c0,3.7,1.4,5.9,4.3,5.9c2.6,0,4.4-2.2,4.4-5.5V301.4z"/>
		<path class="st0" d="M712.5,315.5c-1.9-1.6-3.1-4-3.1-7.9v-38.2h5.5v38c0,3.5,1.6,5.3,5.2,5.3v4.9
			C717.1,317.7,714.6,317.3,712.5,315.5z"/>
		<path class="st0" d="M754.9,315.6c-1.6,1.8-3.4,2.6-5.8,2.6c-1.5,0-2.7-0.4-3.8-1.1c-0.7-0.5-1.7-1.4-2.1-2.2v2.7h-5.4v-48.3h5.5
			V285c0.5-0.7,1.3-1.4,2-1.9c1.1-0.7,2.3-1.1,3.8-1.1c2.4,0,4.3,0.7,5.8,2.6c2.3,2.6,2.6,7.3,2.6,15.5
			C757.5,308.4,757.2,312.9,754.9,315.6z M750.5,288.4c-0.7-0.9-1.7-1.4-3-1.4c-1.2,0-2.1,0.3-2.8,1.1c-0.9,0.9-1.4,2.1-1.4,4v16.1
			c0,1.9,0.5,3.2,1.4,4.1c0.7,0.7,1.7,1.1,2.8,1.1c1.3,0,2.3-0.5,3-1.4c1.2-1.5,1.4-4.5,1.4-11.7
			C751.9,292.9,751.7,289.9,750.5,288.4z"/>
		<path class="st0" d="M780.4,315c-1.8,2.4-4.3,3.3-7.5,3.3c-3.1,0-5.6-0.9-7.4-3.3c-2.2-2.8-2.6-7.7-2.6-14.8
			c0-7.1,0.4-12.1,2.6-14.8c1.8-2.4,4.3-3.3,7.4-3.3c3.1,0,5.7,0.9,7.5,3.3c2.2,2.8,2.5,7.7,2.5,14.8
			C782.9,307.2,782.6,312.2,780.4,315z M776.1,288.5c-0.7-0.9-1.8-1.5-3.1-1.5c-1.3,0-2.4,0.5-3.1,1.5c-1.3,1.8-1.4,5.4-1.4,11.7
			c0,6.3,0.1,9.9,1.4,11.7c0.7,1,1.8,1.5,3.1,1.5c1.3,0,2.4-0.5,3.1-1.5c1.3-1.8,1.4-5.4,1.4-11.7
			C777.4,293.8,777.3,290.2,776.1,288.5z"/>
		<path class="st0" d="M802.3,317.7v-3.1c-0.5,0.9-1.4,1.8-2,2.4c-1.1,0.8-2.2,1.3-4.1,1.3c-2.6,0-4.4-0.8-6-2.6
			c-1.4-1.6-2.2-4.2-2.2-7.9c0-3.3,1.1-6.1,3.1-7.9c1.8-1.6,3.8-2.4,7.5-2.4h3.6v-5.6c0-3.3-1.4-5-4.1-5c-1.2,0-2,0.5-2.7,1.2
			c-1,1-1.3,2.2-1.3,4.1h-5.5c0-2.7,0.6-5.4,2.7-7.5c1.6-1.6,4.1-2.6,6.8-2.6c2.8,0,5.2,0.8,6.8,2.4c1.7,1.8,2.8,4.1,2.8,7.7v25.5
			H802.3z M802,301.4h-3.1c-1.7,0-2.8,0.3-3.9,1.3c-1,0.9-1.6,2.9-1.6,4.8c0,3.7,1.4,5.9,4.3,5.9c2.6,0,4.4-2.2,4.4-5.5V301.4z"/>
		<path class="st0" d="M826.8,287.3c-3.7,0-6.4,2.4-6.4,6.4v23.9H815v-35.1h5.3v3.7c0.5-0.9,1.6-1.9,2.4-2.5
			c1.6-1.2,3.5-1.8,5.8-1.8v5.3H826.8z"/>
		<path class="st0" d="M845.9,317.7V315c-0.3,0.7-1.5,1.8-2.1,2.2c-1.2,0.7-2.4,1.1-3.8,1.1c-2.4,0-4.3-0.8-5.8-2.6
			c-2.2-2.6-2.6-7.3-2.6-15.5c0-8.1,0.3-12.9,2.6-15.5c1.4-1.7,3.3-2.6,5.8-2.6c1.4,0,2.6,0.3,3.8,1c0.7,0.4,1.4,1.2,2,2v-15.6h5.5
			v48.3H845.9z M845.7,292c0-1.9-0.5-3.1-1.4-4c-0.7-0.7-1.7-1.1-2.8-1.1c-1.3,0-2.3,0.5-3,1.4c-1.2,1.5-1.4,4.5-1.4,11.7
			c0,7.3,0.2,10.2,1.4,11.7c0.7,0.9,1.7,1.4,3,1.4c1.2,0,2.1-0.3,2.8-1.1c0.9-0.9,1.4-2.2,1.4-4.1V292z"/>
		<path class="st0" d="M877.5,318.5c0,5.2-0.9,7.8-2.8,9.8c-1.6,1.7-4.2,2.7-6.9,2.7s-5.3-0.8-7.1-2.5c-2-2-2.6-4.5-2.6-7.6h5.5
			c0,1.7,0.2,3.1,1.2,4.2c0.7,0.7,1.8,1.2,3,1.2c1.3,0,2.3-0.5,3-1.3c1-1.1,1.4-2.9,1.4-6.2v-5.4c-0.5,0.7-1.2,1.5-2,2
			c-1,0.7-2.2,1.1-3.7,1.1c-2.4,0-4.3-0.8-5.8-2.6c-2.2-2.5-2.8-6.4-2.8-14.7c0-8.3,0.5-12.1,2.8-14.7c1.5-1.7,3.3-2.5,5.8-2.5
			c1.5,0,2.7,0.3,3.8,1.1c0.7,0.5,1.5,1.2,2,1.9v-2.4h5.4V318.5z M872,292c0-1.9-0.5-3.1-1.4-4c-0.7-0.7-1.7-1.1-2.8-1.1
			c-1.3,0-2.3,0.5-3,1.4c-1.2,1.5-1.4,4.2-1.4,10.9s0.2,9.4,1.4,11c0.7,0.8,1.7,1.4,3,1.4c1.2,0,2.1-0.4,2.8-1.2
			c0.9-0.9,1.4-2.1,1.4-4V292z"/>
		<path class="st0" d="M897.9,317.7v-3.1c-0.5,0.9-1.4,1.8-2,2.4c-1.1,0.8-2.2,1.3-4.1,1.3c-2.6,0-4.4-0.8-6-2.6
			c-1.4-1.6-2.2-4.2-2.2-7.9c0-3.3,1.1-6.1,3.1-7.9c1.8-1.6,3.8-2.4,7.5-2.4h3.6v-5.6c0-3.3-1.4-5-4.1-5c-1.2,0-2,0.5-2.7,1.2
			c-1,1-1.3,2.2-1.3,4.1H884c0-2.7,0.6-5.4,2.7-7.5c1.6-1.6,4.1-2.6,6.8-2.6c2.8,0,5.2,0.8,6.8,2.4c1.7,1.8,2.8,4.1,2.8,7.7v25.5
			H897.9z M897.7,301.4h-3.1c-1.7,0-2.8,0.3-3.9,1.3c-1,0.9-1.6,2.9-1.6,4.8c0,3.7,1.4,5.9,4.3,5.9c2.6,0,4.4-2.2,4.4-5.5V301.4z"/>
		<path class="st0" d="M938.2,317.7v-25.8c0-3.2-1.8-4.8-4.1-4.8s-4.1,1.6-4.1,4.8v25.8h-5.5v-25.8c0-3.2-1.9-4.8-4.2-4.8
			s-4.1,1.6-4.1,4.8v25.8h-5.5v-35.1h5.3v2.7c0.5-0.8,1.4-1.7,2.2-2.2c1.1-0.7,2.4-1.1,3.8-1.1c2.7,0,5.3,1.5,6.7,3.7
			c0.7-0.9,1.8-2,2.8-2.6c1.1-0.7,2.7-1.1,4-1.1c3.1,0,4.8,0.9,6.3,2.6c1.4,1.6,2,3.5,2,7.3v25.8H938.2z"/>
		<path class="st0" d="M955.6,301.4c0,5.6,0.2,8.8,1.4,10.4c0.6,0.9,1.7,1.5,3.1,1.5c1.2,0,2.2-0.3,3.1-1.4c0.9-1,1.2-2.4,1.2-4.1
			h5.5c-0.1,3.3-0.9,5.7-2.8,7.8c-1.7,1.8-4.1,2.6-6.9,2.6c-3,0-5.2-0.7-7-2.7c-2.6-2.8-3.1-8.1-3.1-15.4c0-7.4,0.5-12.6,3.1-15.4
			c1.8-2,4.1-2.7,6.9-2.7c2.8,0,5.1,0.7,6.9,2.7c2.6,2.8,3.1,8,3.1,16.7H955.6z M963.1,288.4c-0.7-0.9-1.6-1.4-3.1-1.4
			c-1.5,0-2.4,0.5-3.1,1.4c-1.1,1.3-1.4,3.8-1.4,8.9h8.9C964.5,292.2,964.2,289.7,963.1,288.4z"/>
		<path class="st0" d="M991.8,315.4c-1.9,2-4.3,2.8-7.2,2.8c-2.8,0-5.4-0.9-7-2.7c-2-2.1-3-4.5-3-7.7h5.4c0,1.8,0.5,3.2,1.5,4.3
			c0.8,0.8,2,1.2,3.1,1.2c1.4,0,2.4-0.4,3.3-1.3c0.8-0.8,1.4-2.1,1.4-3.5c0-1.2-0.3-2.2-0.9-3.2c-0.7-1-1.7-1.8-3.1-2.5l-4.5-2.3
			c-2.3-1.2-3.9-2.6-4.8-4.1c-0.7-1.3-1.1-2.8-1.1-4.6c0-3.1,1.2-5.4,2.9-7.1c1.8-1.8,4.2-2.6,6.9-2.6c2.8,0,5.2,0.8,6.8,2.5
			c1.8,1.8,2.8,4.3,2.8,7.7H989c0-2-0.4-3.3-1.3-4.2c-0.8-0.9-1.9-1.2-3-1.2c-1.3,0-2.3,0.4-3.1,1.2c-0.9,0.9-1.3,2.1-1.3,3.4
			c0,1,0.2,1.8,0.6,2.6c0.5,0.8,1.5,1.6,2.9,2.3l4.5,2.2c2.4,1.2,3.9,2.4,4.9,4c1,1.4,1.5,3.4,1.5,5.6
			C994.8,311.2,993.6,313.7,991.8,315.4z"/>
	</g>
</g>
</svg>
