<svg id="Слой_1" data-name="Слой 1" xmlns="http://www.w3.org/2000/svg" viewBox="0 0 400 400"><defs><style>.cls-1,.cls-4{fill:#713f13;}.cls-1,.cls-2,.cls-3{fill-rule:evenodd;}.cls-2{fill:#fff;}.cls-3,.cls-5{fill:#de7c29;}</style></defs><path class="cls-1" d="M313.85,272.35l-1-.07a13.23,13.23,0,0,1-2.21.54,12.36,12.36,0,0,1-3.38,0c-.32.07-.66.14-1,.18a11.69,11.69,0,0,1-4-.07l-.64.11-.41.05a11.11,11.11,0,0,1-5.28-.52,11,11,0,0,1-5.78,2.53,12.31,12.31,0,0,1-3.59,0,10.61,10.61,0,0,1-6.82,3.6,11,11,0,0,1-6-.7l-.57.33-.26.2a11.24,11.24,0,0,1-7.69,2.41,11.79,11.79,0,0,1-3.88,1.23,13.55,13.55,0,0,1-2.08.12,12.55,12.55,0,0,1-2,.47,12.93,12.93,0,0,1-2.68.1,9.26,9.26,0,0,1-2.47.64,45.35,45.35,0,0,1-4.88,1.12,10.75,10.75,0,0,1-3,0,12.46,12.46,0,0,1-3.13.88,13.56,13.56,0,0,1-2,.12,13.65,13.65,0,0,1-1.93.44,11.65,11.65,0,0,1-4.45-.19,12.25,12.25,0,0,1-3,.84,12,12,0,0,1-4.31-.15,12.85,12.85,0,0,1-1.75.38,11.11,11.11,0,0,1-5.32-.46c-2.25,1.84-4.37,3.86-6.43,5.86a128.09,128.09,0,0,0,12.39,15.5c2.9,3,6.58,1,10.12.09,2.47-.64,5.08-1.17,7.2-1.6,4.68-.95,10-2.57,14.47-2.85,3.22-.2,6.62.73,10.12.76,3.34,0,6.68-.15,9.8,0a38.21,38.21,0,0,0,9.4-.4c2.78-.56,5.11-1.89,8-2.91a10.78,10.78,0,0,1,2.31-.61,36.55,36.55,0,0,1,8.8,2.11c2.24.91,3.82,3.16,6.1,3,1-.63,1.29-1.6,2.09-2.49s1.77-1.27,2.37-2.26a36.23,36.23,0,0,0,3.31-10.34c.19-1.42-.14-3,.11-4.63a52.26,52.26,0,0,1,1.77-7.39c.33-1,.7-2.11,1.09-3.19A18.42,18.42,0,0,1,313.85,272.35Z"/><path class="cls-2" d="M318.58,274.76c.3.36-.23,1.22-.26,1.77-14.34,1-27,5-41.28,6.57,6.73-1.34,13.33-3.52,20.14-5s13.93-1.89,21.05-3.27C318.41,274.91,318.52,274.88,318.58,274.76Z"/><path class="cls-3" d="M316.92,277.52c-.72,4.06-3.95,8-5.64,11.78-.79-.3-.81-.55-1.69-.57.66.74,1.39,1.6.66,2.81-.79,0-1.35-1.9-2.61-1.62,0,1,1.69,2,1.87,3.28-.68.1-.88-1.12-2-1.16-.38.81,1.09,1.65,1.39,2.5-.53.88-.76,2.24-1.26,3.18-3.88-2.86-7.15-4.81-13.46-5.54-2.11-.25-4.78,2.57-6.71,3-1.11.27-2.5.11-3.72.27-3.38.46-7,1.43-10.37,1.68,1.42-1.48,2.29-3.85,3.39-5.84-1.74,1.41-3.75,3.47-4.29,6.12-.94-.16-1.56.22-2.51.06a17.83,17.83,0,0,0,3.44-5.32c-1.72.82-3.86,3.76-3.79,5.41-11.92,1.13-27.27-.74-40.49-.23-1.86.07-4.43.54-5.68.14-1.78-.57-3-2.71-4.27-3.68,7.14-.95,14.18-2.09,21.57-2.65.39.38-.49.49-.42,1.07.57-.17.78-.91,1.28-1.19,6.45-1.1,13.06-1,19.26-2.71A147.37,147.37,0,0,1,279,284.06c12.53-1.84,24.88-4.63,37.8-6.57ZM305,284.82c-.52,1.14-1.75,2.5-1,3.41a15,15,0,0,0,3.18-7c0-.13-.09-.22-.28-.24A16.25,16.25,0,0,0,305,284.82Zm1.73-.26c-.46.89-1.38,2.24-.72,3a11.46,11.46,0,0,0,2.37-5.75C308.11,282.63,307.29,283.53,306.77,284.56Zm-4.84,2.83c1,.09.81-1.2,1.16-2.05.63-1.54,2-3.07,1.48-4.13C303.44,282.73,301.71,285.05,301.93,287.39Zm5.81.73c1,.15,1.61-2.59,1.5-2.8C309,286.48,307.49,286.78,307.74,288.12Zm-15.6-3.57c.42.65,1.73.81,2.12.18C294.9,282.9,291.66,282.59,292.14,284.55Zm13,7.44c1.48.24.82,2.86,2.49,3.42C308.27,294,306.51,291.7,305.16,292ZM286,289.9c3.24.27-.25-5.42-1.26-1C285.29,289.44,285.23,289.84,286,289.9Zm-4.58.4c.87-.19,1.1-1.41,1.43-2.48C281.63,285.57,278.88,289.71,281.46,290.3Zm-14,6.46c1.9-.69,3.25-4.17,4.56-6.56-.2-.06-.17-.25-.44-.27C270.18,292.16,268.4,293.77,267.46,296.76Zm1.11-6.05c-1.2,1.25-4.07,3.59-3.47,5.48a27.89,27.89,0,0,0,3.94-5.37Zm-8.19.2c.07,1.43-.34,3.15.9,3.87C262.66,294.08,262.09,289.74,260.38,290.91Zm-1.84,4.21a3.5,3.5,0,0,0,.28-3.26C256.5,291.48,257.92,294.48,258.54,295.12Z"/><path class="cls-2" d="M315.58,284.51a34.74,34.74,0,0,1-2,6.84c-1.13-.5,0-2.12.44-3.21A32.19,32.19,0,0,0,315.58,284.51Z"/><path class="cls-2" d="M313.39,292.3a33.7,33.7,0,0,1-3.26,7.36c-.62-1,.26-2.52.75-3.81s1.13-2.57,1.52-3.62C312.86,292.45,312.94,292.07,313.39,292.3Z"/><path class="cls-2" d="M295.47,295.65l.78.19a10.39,10.39,0,0,1,.14,2.19c-.54-.16-1,.46-1.33,0C295.38,297.14,295.12,296.58,295.47,295.65Z"/><path class="cls-2" d="M298.3,296.33l.47.11c0,.48,0,1,0,1.49C298,297.78,298.24,297,298.3,296.33Z"/><path class="cls-2" d="M256.61,286.52c.22,1.25-2.31,1.74-3.74,1.76A6.61,6.61,0,0,1,256.61,286.52Z"/><path class="cls-2" d="M293.55,295.36a14.82,14.82,0,0,0-.6,3.18,23.54,23.54,0,0,1-3.44.5C290.09,296.56,291.43,295.34,293.55,295.36Z"/><path class="cls-2" d="M300.27,297.13a9,9,0,0,1,2.4,1.07l-.23.95a18.78,18.78,0,0,1-2.75-1C299.78,297.65,300.23,297.73,300.27,297.13Z"/><path class="cls-2" d="M304,298.7c.92.38,1.54.93,1.55,1.87.58-.36.7-.29,1.3.14-.05.29-.28.29-.31.59-1-.44-1.8-1-2.8-1.5Z"/><path class="cls-2" d="M252.31,287.15c.51.46-1.32.71-1.76,1.07s-.72.72-1.44.49C250.1,288.06,251,287.2,252.31,287.15Z"/><path class="cls-2" d="M289,296.93c.51.41-.6,1.73-.76,2.48-.46.13-1.06,0-1.41.32A2.67,2.67,0,0,1,289,296.93Z"/><path class="cls-2" d="M308.94,302.53c-.35.21-1.31-.35-1.3-.81C308.13,301.52,308.48,302.3,308.94,302.53Z"/><path class="cls-2" d="M248.55,287.58c-1,.49-1.61,1.6-2.88,1.63A9.54,9.54,0,0,1,248.55,287.58Z"/><path class="cls-2" d="M245.53,287.68c.3.54-1.55,1.22-2.33,1.44a3.17,3.17,0,0,0,1-1.27A1.86,1.86,0,0,0,245.53,287.68Z"/><path class="cls-2" d="M286,297.86c.41.45-.68,2.05-1.23,2.37C284.63,299.46,285.27,298,286,297.86Z"/><path class="cls-2" d="M243.5,287.86c.28,1.36-1.95,2.34-3.51,2.15A25.18,25.18,0,0,1,243.5,287.86Z"/><path class="cls-2" d="M240.44,288.13c.26.81-2.13,1-2.52,2.22-.94,0-1.77.18-2.71.18C236.91,289.65,238.2,288.11,240.44,288.13Z"/><path class="cls-2" d="M283.66,298.47c.35.55-.65,2.55-1.7,2.26.36-.66.64-1.44,1-2.09A.71.71,0,0,0,283.66,298.47Z"/><path class="cls-2" d="M281.32,299.24c-.56.39-.53,1.75-1.4,1.66C280.21,300.06,280.29,298.88,281.32,299.24Z"/><path class="cls-2" d="M278.93,299.5c.21.36-.47,1.12-.69,1.5l-.95-.23.23-.94C278,299.66,278.51,299.69,278.93,299.5Z"/><path class="cls-2" d="M276.15,300c0,1-.94.66-1.64.6C274.63,299.7,275.47,300,276.15,300Z"/><path class="cls-2" d="M230.05,286.64c1.78-.12,3.56-.28,5.34-.45a11.54,11.54,0,0,1-2.69-.31A11.7,11.7,0,0,1,230.05,286.64Z"/><path class="cls-2" d="M227,286.82a10.4,10.4,0,0,1-1.61-.26,11.63,11.63,0,0,1-1.76.39,11.3,11.3,0,0,1-5.33-.45c-1.19,1-2.35,2-3.48,3.05a17.5,17.5,0,0,1,1.49,1.6c1.81-2.58,6.1-2.29,8.43-3.3-1.82.16-4.36.32-5.76.45C221.37,286.89,224.24,286.89,227,286.82Z"/><path class="cls-2" d="M314,271.77l-1-.07a12,12,0,0,1-2.2.53,11.8,11.8,0,0,1-3.46,0c-.31.07-.6.15-.93.2a11.9,11.9,0,0,1-4-.07c-.21,0-.42.08-.64.1l-.41.06a11.36,11.36,0,0,1-5.28-.52,11,11,0,0,1-5.78,2.52,12,12,0,0,1-3.59,0,10.63,10.63,0,0,1-6.82,3.59,11.05,11.05,0,0,1-6-.69l-.57.33a1.64,1.64,0,0,0-.26.2,11.29,11.29,0,0,1-7.7,2.4,11.66,11.66,0,0,1-3.87,1.24,12.92,12.92,0,0,1-2.12.12,11.71,11.71,0,0,1-4.63.55,8.67,8.67,0,0,1-2.51.65,43.25,43.25,0,0,1-4.89,1.12,10.32,10.32,0,0,1-3,0,12.17,12.17,0,0,1-3.13.89,15.27,15.27,0,0,1-2,.12,13,13,0,0,1-1.3.31c5.25-.54,10.45-1.12,15.62-1.2,1.72,0,3.49.16,5.29.1,3.16-.1,6.21-1.58,8.68-2.24,3.33-.89,6.71-1.4,10.13-2.06,12.64-2.45,26.08-6.11,39.38-6.63A17.54,17.54,0,0,1,314,271.77Z"/><path class="cls-2" d="M266.24,285.16a49.37,49.37,0,0,1-8.71,2.4C259.64,285.47,263.36,286,266.24,285.16Z"/><path class="cls-2" d="M231.24,289.08c-.61.68-1.59.75-2.18,1.47,2.68.95,3.93-2.33,6.76-1.87-.65.83-1.95.6-2.17,2.14A26.47,26.47,0,0,0,225.9,292C227.15,291,228.84,288.89,231.24,289.08Z"/><path class="cls-2" d="M222.67,290.19c.08.82-2.14.83-1.7,2.25,2.5-.08,3.33-2.87,5.85-2.92-.33.85-2,1.45-2.72,2.34-.07.41.32-.15.62.15-1.91.74-4.2.87-6.29,1.31a5.78,5.78,0,0,1-1.83-2.09c1.19,0,1.86-.76,2.89-1-.36,1-1.53,1.13-1.39,2.32C220.14,292.62,220.6,290.09,222.67,290.19Z"/><path class="cls-2" d="M226,302.77c4-.52,8.47-.32,12.49-.82.18.48-.56.27-.74.31-1.91.46-4.32.75-6.61,1.25a17.24,17.24,0,0,1-2.5.73C227.5,304.08,227.11,302.76,226,302.77Z"/><path class="cls-1" d="M314.74,197.75c.2-2.6,1.59-6.17,2.49-9.43s1.89-6.62,2.82-9.53c2.45-7.59,8.16-18.57,1.64-23.36-1.68-5.24-4.92-10.8-7.71-16.65-4.55-9.53-10-15.71-11.46-25.35-.54-3.64,0-7.64-3.61-8.94-12.59-4.56-26.47-4-39.5-6.11-.91.84.9,1.05.78,1.7-9.07-.69-18,.68-27.9-1.69-.23,0-.39,0-.58,0-6-1.93-11.26-3.71-17.07-4.44-5.59-.71-11.11-1.35-16.55-2.3-2.05-.36-4.57-1.51-5.86-.88-1.59.79-1.26,2.36-2.45,4-1.34,1.82-5.05,4.07-7.63,6s-5.61,3.75-7.81,5.24c-5.32,3.59-10.61,8.63-15.27,11.9-1.61,1.13-3.71,1.86-5.64,3.22s-3.78,2.49-5.7,3.79c-3.46,2.36-9.1,6.78-10.49,10.59-.55,1.5.29,3.86.19,5.6-.14,2.79-1.35,6.08-1.35,8.61,0,3.17.78,7.23,1.24,10.82.48,3.82,2.28,7.71,2,10.65a16.51,16.51,0,0,1-.63,3,17.26,17.26,0,0,1,11.19,2.56,18.74,18.74,0,0,1,8.73-5.27,7.1,7.1,0,0,1,.73-.91,7,7,0,0,1,2.57-2.26,8.68,8.68,0,0,1,10.66-4.75,8.55,8.55,0,0,1,5.92,5.32,8.84,8.84,0,0,1,1.16,3.49c.3.25.61.49.9.75a9.49,9.49,0,0,1,2,3.42h0l1.41,1.95a9.44,9.44,0,0,1,1.16,4.65c-.13.83-.26,1.66-.38,2.49,0,.13-.08.25-.12.37l.69.14a24.17,24.17,0,0,0,6.76.51c-1.08,0-.55,0,.16-.09a13.78,13.78,0,0,1,1.17-1c5.45-4.82,14.62-3.74,20.24-.22a16.61,16.61,0,0,1,6.66,7.77,30,30,0,0,1,3.06-1.49,13.48,13.48,0,0,1,5-2.4c2.7-.63,5.4-1.28,8.12-1.77,9.72-1.77,16.11,4.11,18.34,11.65a35.7,35.7,0,0,0,5.39,2,35.17,35.17,0,0,0,11.17,1.62l.29-.39.33-.42c.31-.37.63-.73,1-1.07l.32-.3c.26-.25.53-.5.82-.74l.4-.33c.29-.23.59-.44.9-.65l.35-.25c.43-.27.87-.53,1.33-.77l.24-.11a12.85,12.85,0,0,1,1.2-.53l.46-.17a10.79,10.79,0,0,1,1.14-.36c.15,0,.29-.09.44-.12.53-.13,1.08-.24,1.64-.32l.17,0a15.42,15.42,0,0,1,1.55-.13h.54l1.33,0,.56,0a18.81,18.81,0,0,1,1.91.24,19.39,19.39,0,0,1,2.55.64l.67.22a18.73,18.73,0,0,1,1.77.73l.5.23a16.42,16.42,0,0,1,2,1.18l.32.25a16.45,16.45,0,0,1,1.42,1.18l.4.39c.4.4.76.83,1.12,1.27a12.4,12.4,0,0,1,4.07-.6c4.12.12,8.26-.46,12.37-.51A11.21,11.21,0,0,1,314.74,197.75Z"/><path class="cls-2" d="M297.06,109.44a11.51,11.51,0,0,1,.8,4.15C296.93,113.21,296.33,110.23,297.06,109.44Z"/><path class="cls-2" d="M304.76,134c.75.51.59,1.24,1.35,1.75-2.52,7.5-2,15.29-3.13,21.84-1.19-1.45-.7-3.79-.55-5.53A137.09,137.09,0,0,1,304.76,134Z"/><path class="cls-2" d="M295.13,128.36c-.24,8.54-3,17.67-3.75,26.32a3.09,3.09,0,0,1-2.23.15c2-8.25,2-16,5.47-24.65.42-.73-1.22-1-.42-1.78C294.49,128.32,294.88,128.64,295.13,128.36Z"/><path class="cls-2" d="M282.69,124.34c-.38,8.87-3.47,18.4-5.16,27.59A103.85,103.85,0,0,1,282.69,124.34Z"/><path class="cls-2" d="M272.3,119.45c-.35,9.43-4.07,19.67-6,29.49,1.22-7.52,1.92-18.75,4.39-26.85A5.35,5.35,0,0,1,272.3,119.45Z"/><path class="cls-2" d="M252,151.38a133.78,133.78,0,0,1,6.3-33.89,1.46,1.46,0,0,1,1,.32c-1.58,8.2-3.23,17.14-4.86,25.64C253.9,146.2,253.61,149.3,252,151.38Z"/><path class="cls-2" d="M246.78,115.87c.21.08.15.22.08.36.22.07.16.22.09.36-.25,7-2.61,14.83-4.46,22.53-.56,2.28-.61,5.15-2.36,6.77-1-2.29,0-4.95.54-7.28,1.54-7.15,3.63-14.93,5.13-22.13C246,115.78,246.51,116.31,246.78,115.87Z"/><path class="cls-2" d="M233.05,112l.66.41c-.41.93-1.06.83-1.45,1.85C231.46,113.45,232.48,112.65,233.05,112Z"/><path class="cls-2" d="M232.9,116.14c1,1.8-.73,3.27-2.14,4.46C229.93,118.88,231.79,117.77,232.9,116.14Z"/><path class="cls-2" d="M220.4,110.25a1.42,1.42,0,0,1,0,1.51,1.42,1.42,0,0,0-1.43.34C218.62,111.17,220,110.92,220.4,110.25Z"/><path class="cls-2" d="M232.08,121.42c.4.16.25.45.53.63-.68,1.14-1.74.63-2.39,1.88C230,122.78,231.61,122.4,232.08,121.42Z"/><path class="cls-2" d="M219.1,114.32c.74.45-.18,1.3.06,1.87-.46.44-.93.84-1.56.56A4.39,4.39,0,0,1,219.1,114.32Z"/><path class="cls-2" d="M231.41,125c.36,2.39-.67,4.11-2.74,5.92C228.13,128.9,229.69,126.66,231.41,125Z"/><path class="cls-2" d="M203.26,107.89c.28.12.36.29.31.5-.35,6.68-.86,14.39-4.23,21.15,1,1.87-.5,5.67-1.3,8C198.77,127.92,201.17,117.87,203.26,107.89Z"/><path class="cls-2" d="M218.38,118.45c.41,1.2-.24,3.42-1.52,3.93A4.22,4.22,0,0,1,218.38,118.45Z"/><path class="cls-2" d="M214,116.66l.66.4c-1.29,5.37-7.86,6.4-11.63,9C203.72,120.27,210.41,119.9,214,116.66Z"/><path class="cls-2" d="M190.3,103.24c.39.16.24.44.52.62-1.54,9.72-2.74,20.37-5.94,29.85-.24-6.4,1.51-14.16,2.63-21.53C188,108.83,187.36,105.54,190.3,103.24Z"/><path class="cls-2" d="M199.6,112.34c.14,5.09-6.09,6.38-9.49,8.46C190.54,115.45,196.27,114.83,199.6,112.34Z"/><path class="cls-2" d="M230.26,131.27A35.63,35.63,0,0,1,227,144.48c-2.13-.18-.74-3.14-.38-4.81C227.25,136.67,227.36,133.75,230.26,131.27Z"/><path class="cls-2" d="M217.06,124c.09,1-.15,3.91-1.9,3.09C215.48,125.9,215.85,124.51,217.06,124Z"/><path class="cls-2" d="M213.18,121.94c.73.77-.4,2-.26,2.88-3.46,1.85-7.12,2.84-10.39,5.48C204.24,126,209.92,125,213.18,121.94Z"/><path class="cls-2" d="M186.11,107.05c-.83,10.24-5.53,21.4-3.24,30.91.95.54,1.64-.49,1.75-1.36.85,2.24-2.82,2.57-4.05,3.6,2.2,1.84,4.49-.93,6.48-2.1a49,49,0,0,0,6.41-4c-2-.94-4.58,2.38-7,2.4,2.09-4.21,6.22-5.13,9.3-7.67.17,2.29-.77,4.83-.76,7.15-5.08,2.94-10.12,6-15.4,8.17,2.62,1.71,5.42-.87,7.77-2.22a70.12,70.12,0,0,0,7.39-4.57c.76.38-.06,1.14.56,1.56-3.77,1.58-7.35,4-11.1,5.64-.1.34.18.59,0,.94,5,.06,8.66-5.84,13.76-5.52.1.66-1,1.62.29,2-2.74,2-5.55,3.61-8.3,5.54-8.71-2.57-17.13-3.94-25.67-5.79-.48-.83.93-.23,1-1.19-1.86-1.2-3.13.07-4.85-.55.6-1.08,1.82-2.31,1-3.06-1.16-.11-1.87,1.65-2.7,2.9-1.53-2.14,3-5.72,1.87-8,.51-.93,1.53-2,1.06-2.69-.71-.62-1.08.23-1.48.91,2.74-5.16,9.47-7.23,13.62-11.7-.87,6.86-2.27,13.85-1.23,20.26.68,0,.17-.63.9-1,1,.14-.33.83.25,1.07,2.93-3.57,3-8.62,4.08-13,1.08-4.57,2.2-9.09,2.84-13.48C182.52,110.46,184.37,109,186.11,107.05Zm2.62,38.19c1.69.66,4.88-.49,4.83-1.9A28.32,28.32,0,0,1,188.73,145.24Z"/><path class="cls-2" d="M198.07,117.79c-.43,3.69-6.17,4.38-8.59,7.49-.83-.81.27-2.07.39-3.11C193,122.28,195.41,119.58,198.07,117.79Z"/><path class="cls-2" d="M212.13,127.08c.27,4.64-8,6.52-11.13,8.66C202.73,130.2,208.47,129.61,212.13,127.08Z"/><path class="cls-2" d="M215.88,129.4c-.31,1.36-.34,3.68-2,4.24C213.49,132.17,214.15,129.85,215.88,129.4Z"/><path class="cls-2" d="M179.69,108.57c.53.94-1.91,2.38-2.62,3.26a1.46,1.46,0,0,0-.75-.77C177.39,110,178.65,109.78,179.69,108.57Z"/><path class="cls-2" d="M197.4,121.33c.09,4.82-6.24,5.29-9,8.16C189,125.51,194.75,124.43,197.4,121.33Z"/><path class="cls-2" d="M296.2,183.87l1.1.68a34.77,34.77,0,0,0-3.77,3.15C292.92,186.19,295.64,185.66,296.2,183.87Z"/><path class="cls-2" d="M298.36,185.81c.7.4.88.92,1.27,1.39-1.21,1-2.52,1.57-3.64,2.93-.77-.25-.67-.72-1.19-1A22.15,22.15,0,0,1,298.36,185.81Z"/><path class="cls-2" d="M210.64,132c.37,5.81-7.27,5.76-10.47,9.07C200.63,135.78,207.43,135.51,210.64,132Z"/><path class="cls-2" d="M214.21,135.06c-.57,2.72-1.25,6.45-2.65,8.73-1.24-.78.34-1.77.57-2.39a24.69,24.69,0,0,0,1.09-5.72C213.44,135,213.94,135.51,214.21,135.06Z"/><path class="cls-2" d="M300.24,188.19a4.21,4.21,0,0,1,1.71,1.66,27.52,27.52,0,0,0-3.86,2.8c-.59-.24-.23-.69-1-.9C298,190,299.28,189.71,300.24,188.19Z"/><path class="cls-2" d="M196.55,125.68c.35.48-.25,1.19-.16,1.74-3.06,1.15-5.83,3.51-8.91,4.55C190.39,129.41,193.61,128.14,196.55,125.68Z"/><path class="cls-2" d="M177.56,115.48a3.13,3.13,0,0,1-.43,2.18A2.45,2.45,0,0,1,177.56,115.48Z"/><path class="cls-2" d="M209.47,137.32c.43,1.4-.68,3.17-.42,4.62-4.56,2.22-9.17,4.21-13.56,7.16-1-.34-2-.63-3.06-1C198.07,144.37,203.77,140.82,209.47,137.32Z"/><path class="cls-2" d="M269.65,177.53c-.44,1-1.39,0-2.17-.43.27-.38,0-.63.32-1C268.33,176,270,176.8,269.65,177.53Z"/><path class="cls-2" d="M208.45,143.4c.78.88-.1,2.16.9,3-3.74.91-6.58,5.61-11.11,3.19C201.63,147.47,205.14,145.83,208.45,143.4Z"/><path class="cls-2" d="M246.1,172.74c1.91,2.06,3.12,4.28,5.26,6.29a3.49,3.49,0,0,1-2.2,1.08c-1.36-1.62-1.51-3.54-3.63-5-.78-.11-1.28.45-1.39,1.27-1-.93-2.91-1.18-2.8.1-2.11.1-3.78,2.06-5.73,2.86,0-2.17,2.81-2.52,4.49-3.32C242.18,175.05,244,173.66,246.1,172.74Z"/><path class="cls-2" d="M253.15,181.05c-.89.71-1.71,1.77-2.9,1.25C250.43,181.42,251.91,180,253.15,181.05Z"/><path class="cls-2" d="M254.2,182.31c.16.4.69.72.84,1.13-1.09.45-2,1.59-3.35,1C251.69,183,253.45,183.13,254.2,182.31Z"/><path class="cls-2" d="M256.83,185.45c-1.13.55-2.19,1.34-3.48,1.21.13-.22-.17-.34-.31-.5C254.14,185.58,255.86,184,256.83,185.45Z"/><path class="cls-2" d="M258.85,187.61c-.77.5-1.72.14-2.33,1.31.63,1.32,2.34.38,3.16-.18.74,1.64-1.67,1.36-2.21,2.59,1.15,1.5,2.79-1.32,4.45-.29-.77,1.53-1.87,1.65-2.88,2.18-2.19-1.49-2.94-3.32-4.56-4.95C255.79,187.63,257.59,186,258.85,187.61Z"/><path class="cls-2" d="M195.23,156c2.54-.91,4.64-3.7,7.67-2.58.43.16.31.43.17.72C200.36,154.29,198,155.8,195.23,156Z"/><path class="cls-2" d="M228.66,169.89c-.73.84-2.45-.47-1.85-1.45A2,2,0,0,1,228.66,169.89Z"/><path class="cls-2" d="M197.45,151.84c-.19.73-3.1,1.39-4.69,1.67-1.79.33-4,.62-5.68-.16C190.6,153.11,193.7,151.11,197.45,151.84Z"/><path class="cls-2" d="M187.13,148.82c0,1-3.4.91-4.86,1-1,.17-1.74,1.12-2.94.32A33.55,33.55,0,0,1,187.13,148.82Z"/><path class="cls-2" d="M157.21,130.65c-.7,2.6-3.18,4.54-4.57,6.92-1.85-.89-3.26,0-5-.33C150.84,135,154.06,133,157.21,130.65Z"/><path class="cls-2" d="M182.34,147.69c-2.09,1-6.09.79-9.12.46C176.24,147.89,179.08,146.88,182.34,147.69Z"/><path class="cls-2" d="M233,179.6c-.21,2-2.46,2.31-3.56,3.28C229.15,181.33,232,180.47,233,179.6Z"/><path class="cls-2" d="M211.83,169.31c-1.73,1.5-3.83,5.45-5.78,3.44.86-.94,2.46-2.88,2.68-3.83a3.82,3.82,0,0,1-3.54,1.77c-5.74,3.33-11.26,7.61-17.45,9-4.17-3.95-6.3-9.55-10.05-13.82-2.09-2.38-5.46-3.58-6.86-6.67-.74.68.16,1-.37,1.6-7.76,4.08-15.42,8.61-22.65,15a3.72,3.72,0,0,0,3.05.2,18.63,18.63,0,0,1,7.52-4.09,7.44,7.44,0,0,1,.75-.93,7.06,7.06,0,0,1,2.56-2.26A8.69,8.69,0,0,1,172.36,164a8.49,8.49,0,0,1,5.95,5.45,8.78,8.78,0,0,1,1.17,3.39c.28.24.57.47.85.72a9.19,9.19,0,0,1,2,3.42h0l1.41,1.94a9.37,9.37,0,0,1,1.16,4.66l-.18,1.2c4.49-2.74,9.31-4.78,14-7.06s9.91-3.8,13.69-7.39C212.19,170,212.09,169.63,211.83,169.31Z"/><path class="cls-2" d="M214.83,173.54c-.32.25-.67.35-1,.61-.65-.54-1.08-1.13-.29-2C214.3,172,214.35,173.06,214.83,173.54Z"/><path class="cls-2" d="M192.23,160.8c1,.4-.49,1.37-.65,2-.86-.36-.75-1-.91-1.47C191,160.55,191.73,161.1,192.23,160.8Z"/><path class="cls-2" d="M215.83,175.37a11.13,11.13,0,0,1,1.44,2.11c-.24.59-.7.23-.9,1a11.28,11.28,0,0,1-1.44-2.11C215.17,175.75,215.63,176.11,215.83,175.37Z"/><path class="cls-2" d="M160.05,141.85c.95.35-.4,1.72-.9,1A1.7,1.7,0,0,1,160.05,141.85Z"/><path class="cls-2" d="M226,183.51c0,1.38-1.77,2.55-2.62,3.25-1-.64-1.18-1.47-2-2.16C223.22,185.36,224.65,184.52,226,183.51Z"/><path class="cls-2" d="M218.27,179.32c.39.91,1.43,1.67,1,2.77-1.1-.49-1-1.28-1.93-1.81C217.57,179.55,218,179.9,218.27,179.32Z"/><path class="cls-2" d="M151.19,139.42c-2.29.14-4.41,1-6.81.67C146.57,139.53,148.67,138.56,151.19,139.42Z"/><path class="cls-2" d="M221.64,183.23c.21.2-.12.53.17.71-.29.36-.68.27-1.15-.1C220.87,183.14,221.37,183.67,221.64,183.23Z"/><path class="cls-2" d="M161,147.28c.43.78-.36,1.85-.84,2.84-.6-.46-1,.08-1.59-.38.82-1,.53-1.63,1.27-2.56C160.13,147,160.68,147.67,161,147.28Z"/><path class="cls-2" d="M186.58,164c.68.35.93,1.77,1.85,1.44-.33,1.28-2.59,1.23-3.58,2.36-.7-.59-.82-1.32-1.58-1.89C184.32,165.05,185.52,164.82,186.58,164Z"/><path class="cls-2" d="M157.41,146.61l.67.42c-1,1-.76,2.44-1.77,2.86C156,149,157.07,147.7,157.41,146.61Z"/><path class="cls-2" d="M149,142c.88.24-.08.91-.24,1.38-1.48-.18-2.94-.21-4.06,1.15a7.15,7.15,0,0,1-.7-1.34C145.57,142.46,147.41,142.82,149,142Z"/><path class="cls-2" d="M149.74,145.23c.88,1.61-1.79,4.06-1.81,5.89-.77.29-.69-1.21-1.13-1.61C148,148.06,148.7,145.47,149.74,145.23Z"/><path class="cls-2" d="M159.61,151.93c-.45.73-1.14.46-1.86.07C158.22,151.35,159,151.79,159.61,151.93Z"/><path class="cls-2" d="M147.21,144.88c.91.6-.83,1.83-1.06,2.7-.28-.74-.79-1.44-1.08-2.19C145.69,144.82,146.56,145.31,147.21,144.88Z"/><path class="cls-2" d="M166.71,157.23c.06,1.09-1.74,1.11-2.38,1.88C164.3,158.19,166,157.9,166.71,157.23Z"/><path class="cls-2" d="M161.14,154.4c0,1.73-3.63,1.54-5.35,1.27C157.46,153.07,159.23,155.15,161.14,154.4Z"/><path class="cls-2" d="M162.75,157.22a4.62,4.62,0,0,1-4.83,1.9A5.85,5.85,0,0,1,162.75,157.22Z"/><path class="cls-2" d="M157.06,157.06c0,1.71-3.33,2.81-5,2.69C152.7,157.75,155.23,156.75,157.06,157.06Z"/><path class="cls-2" d="M149.76,154.08c.48.6-.64.9-.82,1.32-.76-.33-.21-1-.69-1.34C148.64,153.62,149.44,154.84,149.76,154.08Z"/><path class="cls-2" d="M141.75,151.26c.93.54,1.49,2.79.65,4.37C141.42,154.35,142.38,152.62,141.75,151.26Z"/><path class="cls-2" d="M152.65,160.74c.41.51-.78.85-1,1.19-.21-.4-.5-.77-.12-1.3A1.11,1.11,0,0,0,152.65,160.74Z"/><path class="cls-2" d="M156.08,164.07c-1.09,1-3.43,3.55-5.51,3a8.73,8.73,0,0,0,1.42-2.78A13.26,13.26,0,0,0,156.08,164.07Z"/><path class="cls-2" d="M144.34,167.79c.09,1-1.33,2.33-1.83,3.45C141.52,169.47,143,168.87,144.34,167.79Z"/><path class="cls-3" d="M302.57,131.13a178.72,178.72,0,0,0-2.8,20.81c-.27,3.11-1.4,7.7,3.45,8.23.38.47-.88,1.34.2,1.65,2.89-3,2.34-7.63,2.77-11.4.45-3.93.56-8,.82-11.68,3.26,4.69,5,11.38,8.63,16.61-.82,4.59-2.73,9.43-3.47,14-13.09-1.11-26.6-2.52-40.09-4.64-4.62-.73-9.07-2.09-13.79-3.33-18.32-4.87-36.48-5.71-54.38-10.13,2.35-1.78,6.3-2.46,7.06-6a5.44,5.44,0,0,0,1.67.74c3.45-2.13,3.65-7.35,4.69-12,2.17-9.73,5.92-20.93,5.23-29.68-.5,1.41-1.6,1.33-3,.9-3.07,1.8-4.14,6.32-4.43,9.14-3.7,1.89-7.24,4.43-11,6,1.3-4.39,2-8.65,1.37-12.57-.83-.93-2.65-1.64-1.83-2.95-2.49.43-3,4-3.46,6.09-3,1.5-6.17,2.06-8.65,5.62.52-4.52,2-9.26,2.75-13.83-.44-.6-1.44-1.46-2.12-1,.26-1.06,2.12-2.18,3-3.34,15.37.53,29.81,5.66,44.64,7.15,7.18.72,14.57.6,21.69.9,3.67.15,7.22.2,10.8.27s6.86-.46,10.41-.58c2.6-.09,7.05,2.47,9.8,2.39,1.16,2.7-.57,5,.12,7.7.61,2.37,2.86,5.26,4.44,7.61C298.79,126.34,300.9,128.68,302.57,131.13Zm-9.86-4.26c-1,1.17-1.22,5.51-1.75,7.75-1.45,6.22-2.27,10.11-3.4,15.88-.49,2.5-1.94,6.73-.45,7.64s7.14-1.7,5.74-4.37a33.46,33.46,0,0,1,1,3.34c1.64-3.17,1.61-5.85,2-9.13.88-7.62,2-15.51,2-22.52l-.65-.41C297,127.54,294.15,125.21,292.71,126.87ZM270.13,150.1c1.65.59,2.89-.55,4-2.08-.38-.42-.29-.94-1.05-1.27C272,147,269.21,148.88,270.13,150.1Zm.41-31.74c-1.68,1.8-2.44,6.23-3,8.8-1.32,6.11-2.07,11.29-2.93,17.09-.38,2.57-1.9,7.27-.28,8.35.78.53,3.8,0,4.77-1.31,1.17-1.6,1.24-5.38,1.75-7.76,1.81-8.55,3.57-18.08,4.45-25-.72-1,.25-2.32-1.12-3.13C273.89,117.68,271.89,116.9,270.54,118.36Zm9.64,4.12c-.43.54,1.36.56.47,1.21-3.39,8.76-4.63,18-5.49,26.16-.26,2.51-1.79,6.58,1.36,8.16,3.84-2.86,4.05-7.18,5-11.55,1.68-7.71,4.35-16.13,4.51-23.11C284.48,121,281.82,120.77,280.18,122.48Zm-24.91-6.54c-.68.85.87,1.18.29,2-2.66,8.13-4.35,18.63-5.73,27.54-.51,3.26-2.16,11.82,3.09,8.31.53,1,1.27.75,2,.65,2.77-13,7.51-26.39,6.72-38.51A6.2,6.2,0,0,0,255.27,115.94Zm-6.61,6.27c.25-1.39,1.8-6.95.5-8.22s-3.71-.49-4.59.52c-1.56,1.81-1.89,5.67-2.45,7.93-2,8.08-3.63,16.74-5.29,23.85,1.13.56-.26,1.7,1.09,2.2.85.71,1.26-.51,1.91-.65.39.71,1.07.88,2,1.23.7-1,1.64-1,2.38-1.88C245.49,139,247.11,130.8,248.66,122.21Zm-18-13.84c-.58,1.53-1.6,1.2-2.21,2.6,0,.85.72.5.83,1.13-2.51,11-5.78,22.21-6.55,32.81a1.17,1.17,0,0,1,.61,1c1.18.34,3.06.24,3.44,1.82,3.95-1.78,3.94-7.64,4.64-11.45,1.57-8.58,4-18.53,4.2-26.05C234.22,109.25,232.68,109.1,230.69,108.37Zm80.78,53.24c-2.22,1.81-5.7,2.38-7.26,4.35.82.8,1.15-.43,1.87-.06,2,1.83,4.55-1,6.31-2.81-.28-.25,0-.64,0-.94Zm-84.14-9.3c-2.12,5.65,10.59.13,4.6-2A4.1,4.1,0,0,0,227.33,152.31Z"/><path class="cls-3" d="M283.94,183c.21-1.81,2.08-3.41,3.17-4.14.36-.58-.27-.94-.35-1.43-1.77-.87-2.9,1-4.16,2.31.78.89,1-.57,1.74.15-2.12,3-4.36,5.48-7,6.36.67-1.65,2.81-4,4.11-5.68-4.35.73-7.05,8.41-11.24,9.81,1.16-2.31,4.56-6.16,5.92-7.61-.58-.59-.74.59-1.37-.24-3.9,2.89-8.28,3.77-12.3,6.11-.76-.32-.29-.94-.35-1.43-5.57-4.21-8.89-10.57-12.78-15.81a3.43,3.43,0,0,0-2-.65c-.82-.24.15-.91-.47-1.21C238.6,172.07,231.38,179,223,181c.37-.59.87-1.2.74-1.68-.7-.6-1.37.6-1.6-.38-1.61-4.39-3.47-8.72-8.56-12.29-.53-.18-.23-.57,0-.93-1.41-.33-1.66-.7-3.05-1-7,2-13.23,7.26-20.18,9.48-1.09-.66.1-1.13.51-1.82-.74-.23-1.16.93-2,.29a11.82,11.82,0,0,0-2.85-3.29c1.4-1.53,3.08-1.83,4.4-3.68,1.34.34,2.65.54,3.66-.48-.52-1.51,1-3.5.33-5-1.46.07-2-1.22-2.78-1.41-2.34-.54-2.63,1.21-4.44,2.74a13.63,13.63,0,0,1-3.18,1.7c-1.05.47-2.42,1.52-3.16.18,1.11-1.14,2.51-1.05,3.84-1.29.77-1.81,1.91-2,2.76-3.47-1.94-.13-5.4,0-7.58,1.41-.92.78.39,1-.16,1.73-.85-.42-1.07-1-1.49-1.53,1.78-1.39,5.43-2.87,5.72-5.3-3.24,1.43-6,5-10,3.29.87-1,3-1.75,2.62-3.26-1.39.44-2.95,2.25-5.13,1.41.21-.7.71-.18,1-.61.35-.65-.68-1-1.28-1.4.26-.78.87,0,1.12-.83-3.27-2.42-6-2.42-8.89-3.36l1.22-2c7.8,2.1,18.67,4.2,25.81,9.53,15.95,2.72,32.21,5,48.51,6.8,16.11,1.76,32.42,7.82,48.38,7,.61.46,1-.08,1.59.38.53.12.93-.36,1.43-.35,7.3,2,14.08,1.65,20.84,1.3-1,4.89-2.31,9.84-2.59,14.55-2.25,2.33.16,5.07-1.16,7.81-2-.34-3.19,2.44-5.1,2.34-.15-2,3.72-3.34,4.2-5.33-2.47-1.14-4,1.81-5.87,3.08a10.18,10.18,0,0,1-1.27-1.39c1.31-1.36,2.58-2.91,4.13-3.24-.67-2.27-2.76-6.86-5.45-7.94-2.45-1-4,1.61-6.22,3.17l-1.33-.82c1.55-1.91,4.18-2.76,5-5.14-2.44-.61-5,2.17-6.1,4.46-.78-.39-1.37-.81-1.27-1.4-.91.4-2.05-.15-2.85.68C287,182.34,285.86,180.82,283.94,183Zm18.83,1.57c1.85.49,3.74-3.15,3.94-4.88-.45-.7-1.5-.09-1.33-.82a7.1,7.1,0,0,0,.67-3.55l-1.1-.67C302.25,177.68,302.23,181.68,302.77,184.57Zm-35.53-10.06c-.93.24-1.95,1.89-2.12,3,.63,1.76,3.7,3.35,5.42,3.05a5.68,5.68,0,0,0,1.3-4.08C270,175.14,268.61,175.54,267.24,174.51Zm-41.78-7.82c-1.62,1.31-2.59,3.8-.91,4.93a6.13,6.13,0,0,1,3.72,1.38c1.45-.23,2.67-1.45,3.69-3.51C231.4,166.36,227.54,166.88,225.46,166.69Z"/><path class="cls-2" d="M293.85,169.92c-8.54,1.14-19.65-1.29-30-3.27-6.88-1.32-13.72-3-20.57-4.18-13.78-2.42-27.4-3-40.32-4.78.28-1.24,2.56-.86,3.45-2.14-2.08-.86-4.92,2-7.57,1.42-.15-.87,1.83-.87,2.9-1.25,1.33-.47,2.53-1.36,3.62-1.43,17.1,6.18,34.28,3.14,51.61,8.71A146.3,146.3,0,0,0,293.85,169.92Z"/><path class="cls-2" d="M175.61,111.23a11.68,11.68,0,0,1-.56,2.4c-4.61,3.08-9.17,6.39-13.78,9.47A128.42,128.42,0,0,1,175.61,111.23Z"/><path class="cls-2" d="M267.85,189.82c-.3,2.37-3.89,5.34-6.71,5.92.4-1,1-1.13,1.45-1.85.51.57.77,0,1.24.46A41.88,41.88,0,0,0,267.85,189.82Z"/><path class="cls-2" d="M192.45,150.58a52,52,0,0,1-8.73,1.31C185.93,151.68,189.2,149.07,192.45,150.58Z"/><path class="cls-2" d="M176.76,146.37c-3,.56-6.26.11-9.34.33A17.7,17.7,0,0,1,176.76,146.37Z"/><path class="cls-2" d="M167,155.27c-.53,1-3.32-.74-4.46.3C162.89,153.83,165.68,155.58,167,155.27Z"/><path class="cls-2" d="M305.92,201.66a3.71,3.71,0,0,1-.56-.56c-.23-1.65,2.61-2.7,1.94-4.6-1.07,1.38-2.37,1.71-3.34,3.43a5.56,5.56,0,0,0,.91,1.75Z"/><path class="cls-2" d="M291.09,197.87a18.92,18.92,0,0,1,1.78.73l.5.23a17.25,17.25,0,0,1,2,1.18l.32.25a16.26,16.26,0,0,1,1.42,1.19l.4.38a16.53,16.53,0,0,1,1.11,1.27,12.32,12.32,0,0,1,3.77-.58,36.82,36.82,0,0,1-4.63-4.51c-.68,1,1.19,2.34-.26,2.88-.92-2.74-3.3-4.9-5.29-7.22a36.38,36.38,0,0,0-7.29-6.94A221.06,221.06,0,0,1,263,198.5c-.78.81-.39,1.92-1.36,2.2-10.63-3.79-13.81-13.49-18.77-20.42-4.2,2.77-8.55,4.81-12.78,7.35-2.25,1.36-4.86,3.71-6.76,4.05-3.07.54-7.36-5.58-9.06-8-2.1-3.05-3.18-5.9-5-8.6-7.76,4.09-15.29,9.17-23.49,11.39a2.1,2.1,0,0,0-.44.41,24,24,0,0,0,6.41.45c-1.08,0-.56,0,.15-.09a14.55,14.55,0,0,1,1.18-1c5.45-4.82,14.62-3.74,20.24-.22a16.73,16.73,0,0,1,6.66,7.77,28.12,28.12,0,0,1,3.06-1.49,13.41,13.41,0,0,1,5-2.4c2.7-.63,5.39-1.27,8.12-1.77,9.72-1.77,16.11,4.11,18.34,11.65A40.41,40.41,0,0,0,271,203.39l.28-.38.51-.61c.17-.21.35-.4.54-.6l.53-.55.64-.58c.18-.15.35-.31.54-.46s.57-.43.87-.64l.41-.29a13,13,0,0,1,1.36-.79c.16-.09.33-.15.49-.23.33-.16.66-.31,1-.44l.62-.22c.32-.11.64-.22,1-.31l.68-.16c.34-.08.68-.15,1-.2l.7-.11,1.11-.09c.24,0,.47,0,.71,0,.42,0,.85,0,1.28,0l.63,0c.65.05,1.31.13,2,.25a19.24,19.24,0,0,1,2.54.64Z"/><path class="cls-2" d="M139,146.83a14.94,14.94,0,0,1-.09,3.59A6.48,6.48,0,0,1,139,146.83Z"/><path class="cls-2" d="M153.6,163.15c.68-1.6,4.2-4,5.27-1.62.76.29,1.32-.29,1.92-.64.55.28-1.81,1.1-2.38,1.88C156.72,162.54,155.21,163.05,153.6,163.15Z"/><path class="cls-4" d="M74.45,255.23a58.28,58.28,0,0,1,4.9-7c1.57-1.88,2.67-2.81,3.28-2.8,1.94,0,3,.91,3.19,2.6s-.55,3.61-2.23,5.77q-3.78,4.82-3.09,6.13c.47.88,2.62,1,6.47.22q6.91-1.29,6.86,1.3,0,2-3.93,7.65a94.57,94.57,0,0,1-8.35,10.52q-4.47,4.88-6.08,4.92c-1.94.06-2.87-.81-2.78-2.59.1-2,1.41-4.36,3.91-7l1.53-1.69a4.15,4.15,0,0,0,.76-1.13c.16-.38.2-.64.13-.77a1.59,1.59,0,0,0-.8-.4,5.86,5.86,0,0,0-1.52-.22l-2.53-.06a15.33,15.33,0,0,1-3.2-.34,3.62,3.62,0,0,1-1.86-1,2.5,2.5,0,0,1-.61-1.77,9.16,9.16,0,0,1,.72-2.86,34.77,34.77,0,0,1,1.93-4.05Q72.38,258.48,74.45,255.23Z"/><path class="cls-4" d="M98.68,270.13c-1.29.66-2.29.76-3,.31s-.67-1.58.11-3.4a33.09,33.09,0,0,1,3.7-6.19q2.53-3.47,5.25-6.85c1.81-2.26,3.42-4.13,4.83-5.63s2.22-2.25,2.42-2.24q1.23,0,9.62,11.35T130,270.41c0,1.64-.94,2.15-2.71,1.55q-3.12-1.06-5.71-4.95c-.34-.57-.66-1.14-1-1.7-1.22-2.48-2-3.72-2.36-3.73-.56,0-1.06,2.91-1.5,8.61-.07,1.07-.16,2.55-.25,4.43q-.58,8.88-1.54,12.22c-.64,2.23-1.59,3.33-2.87,3.3s-2.19-1-2.61-3-.56-5.62-.44-10.92a96.56,96.56,0,0,0-.2-9.84c-.22-2.74-.52-4.11-.9-4.12s-1.12.46-2.22,1.41a31.61,31.61,0,0,0-3.36,3.44A12.32,12.32,0,0,1,98.68,270.13Z"/><path class="cls-4" d="M134.65,275.27q3.38-5.06,8-11.08a131.39,131.39,0,0,1,8.77-10.32c2.74-2.87,4.45-4.3,5.11-4.28,1,0,2.63,1.85,5,5.65a93.3,93.3,0,0,1,6.38,12.47q2.87,6.77,2.74,9.44-.06,2.37-5.4,8.64a101.5,101.5,0,0,1-11.56,11.53q-6.19,5.25-8.5,5.2c-1.17,0-2.9-1.43-5.18-4.21a53.37,53.37,0,0,1-6.1-9.28q-2.69-5.11-2.63-7.72C131.28,280.65,132.41,278.63,134.65,275.27Zm26.6-6.6a25.51,25.51,0,0,0-2.84-4.69,7.07,7.07,0,0,0-2.82-2.48,3.22,3.22,0,0,0-2.33.06,3.52,3.52,0,0,0-1.68,1.38,2.83,2.83,0,0,0,.91,3.85c.9.58,1.54,1.92,1.9,4a14.51,14.51,0,0,1-.14,5.93c-.45,1.86-1.13,2.77-2.05,2.75a2,2,0,0,1-1.62-1.07,4.09,4.09,0,0,1-.67-2.43c.05-2.24-.72-3.43-2.29-3.57q-2.84-.14-5.67,3.55a22.64,22.64,0,0,0-1.27,1.88q-2,3.63-1.89,5.78t2.54,6c2.22,3.58,4.62,4.84,7.23,3.8s6-4.65,10.23-10.83q3.48-5.12,3.92-7.49T161.25,268.67Z"/><path class="cls-4" d="M199.72,246.12a9.78,9.78,0,0,1,4.58-1.2,7.35,7.35,0,0,1,4,1,3,3,0,0,1,1.54,2.68c0,.66-.64,2-1.88,4a70.18,70.18,0,0,1-4.63,6.44c-1.15,1.46-2,2.56-2.6,3.31a19.25,19.25,0,0,0-1.54,2.34,6.75,6.75,0,0,0-.77,1.74,2.81,2.81,0,0,0,.2,1.35,2.72,2.72,0,0,0,.89,1.28c.4.32,1,.79,1.73,1.42a44.82,44.82,0,0,0,5.32,3.22,58.31,58.31,0,0,0,6.63,3.06,19.55,19.55,0,0,1,5.33,2.95q2.22,1.77,2.19,3c0,1.58-.28,2.44-.75,2.58q-1.16.43-8.58-3.18-1.35-.65-4.77-2.32a85.13,85.13,0,0,0-9.09-4q-4.11-1.47-4.84-1.07t-.87,3.12a32.84,32.84,0,0,0,.32,6q.74,4.91.2,6.51c-.36,1.06-1.3,1.57-2.83,1.54a3,3,0,0,1-2.94-2c-.53-1.29-.76-3.61-.68-7a83.31,83.31,0,0,0-1.09-16.25q-.9-4.55-1.75-5.44c-.58-.6-1.56-.38-3,.66s-2.36,1.53-3.17,1.46a4.7,4.7,0,0,1-2.79-1.9c-1.05-1.2-1.57-2.09-1.55-2.67s.58-1.05,1.71-1.38a14.68,14.68,0,0,0,3.18-1.77,28.43,28.43,0,0,0,3.59-2.9,14.67,14.67,0,0,1,4.27-2.7,15.39,15.39,0,0,1,5-1.38,28,28,0,0,0,5-.92A20.19,20.19,0,0,0,199.72,246.12Zm-4,11a2,2,0,0,0-.57-1.58,2.38,2.38,0,0,0-1.68-.62,1.92,1.92,0,0,0-1.66,1,4.64,4.64,0,0,0-.71,2.59c0,1.73.46,2.55,1.51,2.44a4.36,4.36,0,0,0,3.11-3.79Z"/><path class="cls-4" d="M232.84,254.14a27.64,27.64,0,0,1,5.38-4.78c1.82-1.18,3.15-1.61,4-1.28q1.74.72,4.77,5.31a68.27,68.27,0,0,1,5.37,9.84c1.55,3.51,2.31,6.07,2.27,7.71-.05,2.55-.72,3.76-2,3.62s-2.67-1.48-4-4.22a16.59,16.59,0,0,1-1.23-3.09c-1.2-3.6-2.07-5.43-2.63-5.49-.36-.06-.81.47-1.34,1.57-.11.26-.24.56-.4.91a24.32,24.32,0,0,0-1.43,5.56,48.94,48.94,0,0,0-.69,7q-.15,6.18.62,6.29c.35.05,1.11-.62,2.26-2a12,12,0,0,1,5.83-3.92c1.86-.63,2.69-.43,2.51.59q-.27,1.91-5,13.59c-3.14,7.78-5,11.93-5.49,12.42s-2.25-1.22-5.2-5a120.73,120.73,0,0,1-8.27-12.09q-3.83-6.4-2.89-7.3a1.66,1.66,0,0,1,1.76-.23,5.84,5.84,0,0,1,2.34,1.63c2.64,2.71,4.42,3.28,5.32,1.72.8-1.36,1.26-4.66,1.37-9.92l.25-10.94-5.74,6.84a23,23,0,0,1-4.58,4.37c-1.43,1-2.41,1.19-3,.66-1.1-1.09-.72-3.48,1.12-7.17A59,59,0,0,1,232.84,254.14Z"/><path class="cls-4" d="M266.45,267a67.8,67.8,0,0,1,8.62-7.19c2.83-1.95,4.82-2.91,6-2.89,2.5.06,3.76.5,3.8,1.31q0,1.62-6.74,7-6,4.91-5.46,7.91c.31,1.59,2,2.26,5,2a22.72,22.72,0,0,1,7.27.2c1.47.42,2.19,1.23,2.16,2.46,0,.66-.76,1.22-2.25,1.67a17.32,17.32,0,0,1-5.3.61l-7.58,0,6.23,5.34a22.71,22.71,0,0,1,4.45,5c1.2,1.83,1.8,3.29,1.77,4.36-.07,3.32-1.63,4.53-4.67,3.65q-5.4-1.57-13.77-10.57L256,277.17Z"/><path class="cls-4" d="M294.7,260.21a57.16,57.16,0,0,1,4.9-7c1.57-1.88,2.67-2.81,3.28-2.8,1.93.05,3,.91,3.19,2.6s-.55,3.61-2.23,5.77c-2.53,3.2-3.55,5.25-3.09,6.13s2.62.95,6.46.22c4.62-.87,6.9-.43,6.86,1.3q0,2-3.92,7.64a95.87,95.87,0,0,1-8.35,10.53q-4.47,4.88-6.08,4.91c-1.94.06-2.87-.8-2.78-2.58q.15-3.06,3.91-7l1.53-1.68a4.26,4.26,0,0,0,.75-1.13c.17-.38.21-.64.14-.77a1.55,1.55,0,0,0-.8-.4,5.46,5.46,0,0,0-1.52-.22l-2.53-.06a15.43,15.43,0,0,1-3.21-.34,3.55,3.55,0,0,1-1.85-1,2.45,2.45,0,0,1-.61-1.77,8.89,8.89,0,0,1,.72-2.86,35.42,35.42,0,0,1,1.92-4Q292.64,263.45,294.7,260.21Z"/><path class="cls-4" d="M81.8,193.85q1.73-4.71,3.9-6.49a3.27,3.27,0,0,1,4.34-.25c1.43,1,2.64,3.06,3.65,6.09.9,2.83,2,4.72,3.16,5.66s3.13,1.45,5.78,1.51a10.19,10.19,0,0,1,4.76,1.07,3.58,3.58,0,0,1,2,2.22,2.83,2.83,0,0,1-1.13,2.54,8.65,8.65,0,0,1-4.14,1.93,13,13,0,0,0-2.47.75,4.83,4.83,0,0,0-1.48,1.08,3.75,3.75,0,0,0-.81,2.12c-.12,1-.2,2.06-.23,3.25s0,2.87.2,5q.42,8.51-.44,9.18c-.37.4-1.25,0-2.65-1.21a11.12,11.12,0,0,1-3.57-8q.12-8.86-3.3-10.1-3-1.06-6.68,4.52A41.16,41.16,0,0,0,78.77,223,38.7,38.7,0,0,1,76,229.5q-1.52,2.69-2.28,2.67-2.91-.06-3.33-3.56c-.28-2.33.32-5.39,1.78-9.18a24.29,24.29,0,0,0,2-7,5.18,5.18,0,0,0-1.48-3.93,8.73,8.73,0,0,1-2.55-4.31,3.22,3.22,0,0,1,.84-3.31c.86-.75,2.1-.9,3.73-.45s3.06.31,4-.56S80.66,197,81.8,193.85Z"/><path class="cls-5" d="M155.45,206.92q10.59-8.17,13.21-9a2.7,2.7,0,0,1,3.42,1.3,1.66,1.66,0,0,1,.29.47q.52.85-1.87,3.33a38.65,38.65,0,0,1-6.27,5.06,42,42,0,0,0-6.43,5.13q-2.55,2.55-2.23,3.51c.22.65,1.25,1.32,3.1,2a32,32,0,0,0,6.43,1.63,24,24,0,0,1,6.53,1.95c1.92.91,3,1.8,3.31,2.68q.8,2.24-1.2,2.34a20.82,20.82,0,0,1-5.26-.73c-2.09-.45-4.78-.87-8.09-1.25s-6.19-.6-8.64-.65q-16.22-.37-1.76-13.29Q152.33,209.38,155.45,206.92Z"/><path class="cls-4" d="M230.75,197q1.71-4.71,3.89-6.5a3.26,3.26,0,0,1,4.33-.25c1.44,1,2.65,3.06,3.66,6.09.9,2.83,2,4.72,3.16,5.66s3.13,1.45,5.78,1.51a10.19,10.19,0,0,1,4.76,1.07,3.55,3.55,0,0,1,2,2.22,2.83,2.83,0,0,1-1.13,2.54,8.6,8.6,0,0,1-4.14,1.94,12.44,12.44,0,0,0-2.47.74,5,5,0,0,0-1.48,1.08,3.82,3.82,0,0,0-.81,2.13,30.42,30.42,0,0,0-.22,3.24c0,1.2,0,2.88.19,5q.42,8.5-.44,9.18c-.37.4-1.25,0-2.65-1.21a11.12,11.12,0,0,1-3.57-8q.12-8.86-3.29-10.1-3-1-6.69,4.52a41.69,41.69,0,0,0-3.94,8.26,39.2,39.2,0,0,1-2.82,6.48c-1,1.78-1.77,2.67-2.28,2.66q-2.91-.06-3.33-3.56t1.78-9.18a23.89,23.89,0,0,0,2-7,5.18,5.18,0,0,0-1.48-3.93,8.63,8.63,0,0,1-2.54-4.31,3.21,3.21,0,0,1,.83-3.31c.86-.75,2.1-.9,3.73-.45s3.06.31,4-.56S229.61,200.16,230.75,197Z"/><path class="cls-4" d="M270.11,202.81a67.11,67.11,0,0,1,8.62-7.19c2.83-2,4.82-2.91,6-2.89,2.5.06,3.76.5,3.79,1.31q0,1.62-6.74,7.05-6,4.91-5.46,7.91c.32,1.59,2,2.26,5,2a22.73,22.73,0,0,1,7.27.2c1.46.42,2.19,1.23,2.16,2.46,0,.66-.77,1.22-2.26,1.67a17.21,17.21,0,0,1-5.29.61l-7.58,0,6.23,5.35a23,23,0,0,1,4.45,5,8.61,8.61,0,0,1,1.77,4.36c-.08,3.32-1.63,4.53-4.67,3.65q-5.42-1.59-13.77-10.57L259.7,213Z"/><path class="cls-4" d="M295.52,214.64q3.36-5.05,8-11.07a131.37,131.37,0,0,1,8.77-10.33c2.74-2.87,4.45-4.3,5.11-4.28,1,0,2.62,1.85,5,5.66a93.87,93.87,0,0,1,6.38,12.47q2.87,6.75,2.73,9.43,0,2.39-5.4,8.65a100.51,100.51,0,0,1-11.55,11.52q-6.19,5.25-8.5,5.2c-1.17,0-2.9-1.43-5.18-4.21a54,54,0,0,1-6.11-9.28c-1.78-3.41-2.66-6-2.62-7.72Q292.16,219.69,295.52,214.64Zm26.6-6.6a25.33,25.33,0,0,0-2.85-4.69,6.87,6.87,0,0,0-2.81-2.47,3.12,3.12,0,0,0-2.33.06,3.42,3.42,0,0,0-1.68,1.38,2.8,2.8,0,0,0-.36,2,2.77,2.77,0,0,0,1.26,1.82c.91.59,1.54,1.93,1.91,4a14.47,14.47,0,0,1-.14,5.92c-.45,1.86-1.13,2.77-2.05,2.75a2,2,0,0,1-1.62-1.07,4.08,4.08,0,0,1-.67-2.42q.08-3.37-2.3-3.58-2.82-.14-5.66,3.55a20.42,20.42,0,0,0-1.27,1.88q-2,3.63-1.89,5.78c.07,1.43.91,3.44,2.54,6q3.33,5.35,7.22,3.8T319.66,222q3.48-5.13,3.92-7.49C323.87,212.93,323.38,210.78,322.12,208Z"/><path class="cls-4" d="M135.32,180.51a10.9,10.9,0,0,1,5.09-1.45,8.11,8.11,0,0,1,4.49,1,3.31,3.31,0,0,1,1.8,3c0,.74-.67,2.23-2,4.49a77.9,77.9,0,0,1-5,7.31c-1.25,1.66-2.19,2.91-2.82,3.77a22.57,22.57,0,0,0-1.67,2.65,7.57,7.57,0,0,0-.81,2,3.07,3.07,0,0,0,.26,1.5,3,3,0,0,0,1,1.41c.46.34,1.12.86,2,1.54a49.34,49.34,0,0,0,6,3.47,64.34,64.34,0,0,0,7.48,3.25,22.22,22.22,0,0,1,6,3.16q2.52,1.93,2.52,3.3c0,1.77-.26,2.74-.77,2.91q-1.29.51-9.67-3.34c-1-.45-2.82-1.28-5.39-2.48a94.26,94.26,0,0,0-10.27-4.19q-4.62-1.54-5.43-1.07t-.9,3.51a35.41,35.41,0,0,0,.51,6.71q.94,5.48.39,7.28c-.38,1.2-1.42,1.79-3.13,1.79a3.36,3.36,0,0,1-3.34-2.14c-.62-1.42-.94-4-.94-7.78a93.09,93.09,0,0,0-1.62-18.14c-.75-3.37-1.44-5.38-2.1-6s-1.75-.38-3.29.82-2.6,1.76-3.51,1.71-2-.74-3.17-2.06-1.8-2.29-1.8-2.95.63-1.18,1.89-1.58a16.34,16.34,0,0,0,3.51-2.06,32.57,32.57,0,0,0,3.93-3.33,16.61,16.61,0,0,1,4.71-3.13,17.17,17.17,0,0,1,5.52-1.67,31.37,31.37,0,0,0,5.6-1.15A22.75,22.75,0,0,0,135.32,180.51Zm-4.19,12.41a2.27,2.27,0,0,0-.69-1.75,2.61,2.61,0,0,0-1.88-.64,2.14,2.14,0,0,0-1.84,1.11,5.27,5.27,0,0,0-.73,2.91c0,1.94.59,2.84,1.76,2.69a4.9,4.9,0,0,0,3.38-4.32Z"/><path class="cls-4" d="M197,192.71a7.63,7.63,0,0,1-.41-4c.25-1,1-1.12,2.26-.3a20.52,20.52,0,0,1,4.34,4.17c1.64,2,3.26,4,4.88,6.18s3,4.07,4,5.78a12.79,12.79,0,0,1,1.64,3q.07,1.67-6.87,14.55t-8,13.07q-1.62.26-1.2-3.47a20.88,20.88,0,0,1,2.9-8.39c.35-.55.71-1.05,1.06-1.53,1.56-2,2.33-3.22,2.31-3.7q-.09-1.14-5.8-.87c-.71.05-1.69.13-2.95.26-3.93.27-6.66.13-8.18-.44a3.46,3.46,0,0,1-2.37-3.44,4.14,4.14,0,0,1,1.81-3.93q1.92-1.26,7.2-2.08a34.73,34.73,0,0,0,6.5-1.59c1.79-.67,2.68-1.26,2.66-1.78a8.46,8.46,0,0,0-1.08-2.81,34.42,34.42,0,0,0-2.5-4.1A16.46,16.46,0,0,1,197,192.71Z"/><path class="cls-4" d="M190.19,227.81a6.31,6.31,0,0,1,.33,3.28c-.21.83-.82.91-1.85.24a16.93,16.93,0,0,1-3.54-3.41c-1.34-1.6-2.67-3.29-4-5s-2.42-3.33-3.3-4.73a10.39,10.39,0,0,1-1.34-2.43q-.06-1.36,5.62-11.9t6.54-10.67c.88-.14,1.21.8,1,2.83a17,17,0,0,1-2.37,6.86c-.29.44-.58.86-.87,1.24q-1.91,2.44-1.89,3c.05.62,1.63.86,4.74.71.58,0,1.39-.11,2.41-.21,3.22-.22,5.44-.1,6.68.36a2.83,2.83,0,0,1,1.94,2.81A3.36,3.36,0,0,1,198.8,214a16.54,16.54,0,0,1-5.88,1.7,28.65,28.65,0,0,0-5.31,1.3c-1.46.55-2.19,1-2.17,1.46a6.86,6.86,0,0,0,.88,2.29,28.91,28.91,0,0,0,2,3.35A13.71,13.71,0,0,1,190.19,227.81Z"/></svg>