<svg id="Слой_1" data-name="Слой 1" xmlns="http://www.w3.org/2000/svg" viewBox="0 0 400 400"><defs><style>.cls-1{fill:#713f13;}.cls-2{fill:#ca8b0c;}</style></defs><path class="cls-1" d="M162.62,214.37v-14.9h-3.78l-5.41,5.42L148,199.47h-3.78v14.88h-5.46v-2.19H142v-1.37h-3.27v-2.21H142v-9.11h-3v-2.19h3v-9.11h-3.27V186H142v-1.37h-3.27V182.4h5.46v14.88H148l5.42-5.41,5.41,5.41h3.78V182.4h5.49v2.19h-3.28V186h3.28v2.21h-3.28v9.11h3v2.19h-3v9.11h3.28v2.21h-3.28v1.37h3.28v2.19Zm-9.19-12.58,3.42-3.43-3.42-3.4-3.41,3.4Z"/><path class="cls-1" d="M193.26,214.37H170.32v-2.19h6.52l-6.06-2.63V187.24l6-2.63h-6.45v-2.18h22.94v2.18h-5.81l5.33,2.35-.89,2-9.79-4.27-9.13,4v5h8.89v2.19H173v1.5h11.94l2.19-2.69,1.7,1.37-2,2.43,2,2.43-1.7,1.37-2.19-2.72H173V201h8.89v2.21H173v4.9l9.13,4,9.79-4.28.89,2-5.4,2.34h5.88Z"/><path class="cls-1" d="M222.62,214.37h-6.3V206l-14.13-6.17v8.49l4.54,4.53-1.55,1.55-3-3v3H200v-3l-3,3-1.57-1.55,4.54-4.53v-18.5l-2.9,1.26-.86-2L200,187.4v-5h2.18v4l9.13-4q5.69,2.45,11.34,5v11.45l-8.6,3.76,4.45,1.94v3.89h4.11v2.19h-4.11v1.55h4.11Zm-20.43-19.08,2.17-2.16L202.19,191Zm8.05,5.64V185.3l-7.36,3.23,4.6,4.6-4.6,4.59Zm2.19,0,7.36-3.21-4.6-4.59,4.6-4.6-7.36-3.23Zm8-5.64V191l-2.16,2.17Z"/><path class="cls-1" d="M234.56,214.37l-3-3v3h-2.21v-3l-3,3-1.55-1.55,4.51-4.53V188.48L224.87,184l1.55-1.55,3,3v-3h2.21v3l3-3,1.57,1.55c-1.52,1.5-3,3-4.54,4.53v19.81l4.54,4.53Z"/><path class="cls-1" d="M258.61,188.77h-12v-2.19h4.88v-2h-11v2.08h-2.18V182.4h28.58v4.27h-2.19v-2.08h-11v2h4.89Zm-1.9,25.6-3-3v3h-2.19v-3l-3,3L247,212.82l4.53-4.53V192.6h-4.88v-2.19h12v2.19h-4.89v15.69l4.53,4.53Z"/><path class="cls-1" d="M298.2,214.37,289,196l-1.59,3.16L292.85,210H279.47l5.46-10.88L283.34,196l-9.21,18.39h-5v-2.21h3.65l1-1.95h-2.92V208h4l9.53-19h-4.62v-2.19h4.62l-1.74-3.47,2-1,1.55,3.12,1.57-3.12,2,1-1.75,3.47h4.62V189h-4.62l9.53,19h4v2.19h-2.92l1,1.95h3.64v2.19Zm-8.91-6.54-3.12-6.24L283,207.83Zm-3.12-11.1,1.57-3.18-1.59-3.17-1.57,3.17Z"/><path class="cls-1" d="M321.39,214.37a15.55,15.55,0,0,1-6.21-1.25,16.06,16.06,0,0,1-5.09-3.44,16.34,16.34,0,0,1-3.44-5.09,16.17,16.17,0,0,1,0-12.42,16.2,16.2,0,0,1,8.53-8.52,15.55,15.55,0,0,1,6.21-1.25,16.2,16.2,0,0,1,8.33,2.35,11.1,11.1,0,0,1,3.69,3.2,3.47,3.47,0,0,1,.67,2,3.5,3.5,0,0,1-7,0,3.49,3.49,0,0,1,1.86-3.09,13.44,13.44,0,0,0-7.56-2.26,13.16,13.16,0,0,0-5.35,1.09,14.1,14.1,0,0,0-4.39,3,13.55,13.55,0,0,0-3,4.39,13.4,13.4,0,0,0-1.07,5.36,14.24,14.24,0,0,0,.24,2.61l29.29,0a19.2,19.2,0,0,1-1.88,5.54,14.29,14.29,0,0,1-3.89,4.41,16.42,16.42,0,0,1-4.65,2.54A15.77,15.77,0,0,1,321.39,214.37Zm10.25-6.65a12.29,12.29,0,0,0,2.75-4.54H308.48a13.5,13.5,0,0,0,2.78,4.54Zm-10.25,4.44a13.76,13.76,0,0,0,7.6-2.23H313.87A13.36,13.36,0,0,0,321.39,212.16Zm9.19-20.94a1.26,1.26,0,0,0,.93-.37,1.24,1.24,0,0,0,.38-.91,1.2,1.2,0,0,0-.39-.9,1.28,1.28,0,0,0-.92-.38,1.28,1.28,0,0,0,0,2.56Z"/><path class="cls-1" d="M362.31,214.37H339.36v-2.19h6.52l-6.06-2.63V187.24l6-2.63h-6.45v-2.18h22.95v2.18h-5.82l5.33,2.35-.89,2-9.79-4.27-9.13,4v5h8.89v2.19H342v1.5H354l2.19-2.69,1.7,1.37-2,2.43,2,2.43-1.7,1.37L354,199.49H342V201h8.89v2.21H342v4.9l9.13,4,9.79-4.28.89,2-5.39,2.34h5.88Z"/><path class="cls-1" d="M187.31,256.54a18,18,0,0,1-9-2.3l0,2.13h-2.19l0-3.65c-.35-.3-.7-.61-1-.93l-.18,1.61-2.16-.24.55-5,5-.53.22,2.19-2.14.22a11.1,11.1,0,0,0,1.06,1l3.56-.82.48,2.14-1.48.33a16.37,16.37,0,0,0,7.34,1.68,14.52,14.52,0,0,0,5.86-1.15V242.62a26.93,26.93,0,0,0-3.54-.65,3.82,3.82,0,0,1-.75,1.07,3.35,3.35,0,0,1-2.48,1,3.42,3.42,0,0,1-2.49-1,3.64,3.64,0,0,1-1-1.77,18.17,18.17,0,0,1-6.5-1.72,6.16,6.16,0,0,1-3.45-5.88,7.43,7.43,0,0,1,2.05-5.2A12.47,12.47,0,0,1,181.6,225a18.38,18.38,0,0,1,3.92-.42,18.14,18.14,0,0,1,9,2.3l0-2.12,2.18,0,.05,3.65c.35.3.69.61,1,1l.17-1.61,2.17.24-.55,5-5,.53-.22-2.19,2.14-.22a12.79,12.79,0,0,0-1.08-1l-3.56.82-.49-2.14,1.51-.33a16.37,16.37,0,0,0-7.34-1.68,14.52,14.52,0,0,0-5.86,1.15v10.56a25.41,25.41,0,0,0,3.54.64,4.09,4.09,0,0,1,.73-1.06,3.45,3.45,0,0,1,2.49-1,3.4,3.4,0,0,1,2.48,1,3.45,3.45,0,0,1,.95,1.73c4.6.45,7.61,1.8,9,4a6.74,6.74,0,0,1,.93,3.63,7.58,7.58,0,0,1-2.06,5.19,12.47,12.47,0,0,1-6.54,3.47A17,17,0,0,1,187.31,256.54Zm-9.84-18.92v-8.38a5.57,5.57,0,0,0-2.25,4.45A4.14,4.14,0,0,0,177.47,237.62Zm8.95,4.27a1.26,1.26,0,0,0,.94-.39,1.33,1.33,0,0,0,0-1.88,1.26,1.26,0,0,0-.94-.39,1.29,1.29,0,0,0-.94.39,1.35,1.35,0,0,0,0,1.88A1.29,1.29,0,0,0,186.42,241.89Zm9,10a5.55,5.55,0,0,0,2.25-4.44,4.18,4.18,0,0,0-2.25-4Z"/><path class="cls-1" d="M222.61,230.94h-12v-2.18h4.89v-2h-11v2.08h-2.19v-4.27h28.58v4.27h-2.19v-2.08h-11v2h4.88Zm-1.9,25.6-3-3v3h-2.19v-3l-3,3L211,255l4.53-4.54V234.77h-4.89v-2.19h12v2.19h-4.88v15.69l4.53,4.54Z"/><path class="cls-1" d="M249.12,256.54a15.4,15.4,0,0,1-6.22-1.25,16.11,16.11,0,0,1-8.53-8.52,16.17,16.17,0,0,1,0-12.42,16,16,0,0,1,3.44-5.09,16.31,16.31,0,0,1,5.09-3.43,16.05,16.05,0,0,1,12.42,0,16.11,16.11,0,0,1,8.53,8.52,16,16,0,0,1,0,12.41,16.08,16.08,0,0,1-8.53,8.53A15.44,15.44,0,0,1,249.12,256.54Zm-9-5.52,7.87-5.55v-9.82l-7.87-5.55a13.77,13.77,0,0,0-4.77,9.36h4.17l-1.59-2,1.7-1.37,3.61,4.44L239.65,245l-1.7-1.37,1.62-2h-4.2A13.74,13.74,0,0,0,240.14,251Zm9-17.27,7.09-5a16.61,16.61,0,0,0-1.52-.77l-5.57,3.93-5.6-3.93a16.61,16.61,0,0,0-1.52.77Zm5.57,19.41a11.4,11.4,0,0,0,1.52-.77l-7.09-5-7.12,5a11.4,11.4,0,0,0,1.52.77l5.6-3.93Zm-5.57-23.94,3-2.12a13.85,13.85,0,0,0-6,0Zm0,25.13a13.52,13.52,0,0,0,3-.33l-3-2.12-3,2.12A13.55,13.55,0,0,0,249.12,254.35Zm9-3.33a13.68,13.68,0,0,0,4.75-9.35h-4.17l1.59,2-1.7,1.37L255,240.56l3.61-4.44,1.7,1.37-1.59,2h4.17a13.7,13.7,0,0,0-4.75-9.36l-7.89,5.55v9.82Z"/><path class="cls-1" d="M294.45,256.54h-6.3v-8.4L274,242v8.49l4.53,4.54L277,256.54l-3-3v3h-2.19v-3l-3,3L267.31,255l4.53-4.54V232l-2.9,1.26-.86-2,3.76-1.64v-5H274v4l9.13-4q5.68,2.46,11.34,4.95V241l-8.6,3.76,4.44,1.95v3.89h4.11v2.19h-4.11v1.54h4.11ZM274,237.47l2.17-2.17L274,233.13Zm8.05,5.63V227.47l-7.37,3.23,4.6,4.6-4.6,4.6Zm2.18,0,7.37-3.2-4.6-4.6,4.6-4.6-7.37-3.23Zm8.05-5.63v-4.34l-2.17,2.17Z"/><path class="cls-1" d="M306.39,256.54l-3-3v3h-2.21v-3l-3,3L296.71,255l4.51-4.54v-19.8l-4.51-4.53,1.55-1.55,3,3v-3h2.21v3l3-3,1.57,1.55q-2.28,2.25-4.53,4.53v19.8L308,255Z"/><path class="cls-1" d="M333.12,256.54H310.17v-2.19h6.52l-6.05-2.63v-22.3l6-2.63h-6.46V224.6h22.95v2.19H327.3l5.33,2.34-.88,2L322,226.85l-9.13,4v5h8.88V238h-8.88v1.51h11.93l2.19-2.7,1.7,1.37-2,2.43,2,2.43-1.7,1.37-2.19-2.71H312.83v1.5h8.88v2.21h-8.88v4.91l9.13,4,9.79-4.29.88,2-5.39,2.34h5.88Z"/><path class="cls-1" d="M349.94,256.54a18,18,0,0,1-9-2.3l0,2.13h-2.19l0-3.65c-.35-.3-.7-.61-1-.93l-.18,1.61-2.16-.24.55-5,5-.53.22,2.19L339,250a12.44,12.44,0,0,0,1.06,1l3.56-.82.48,2.14-1.48.33a16.37,16.37,0,0,0,7.34,1.68,14.52,14.52,0,0,0,5.86-1.15V242.62a26.93,26.93,0,0,0-3.54-.65,3.82,3.82,0,0,1-.75,1.07,3.34,3.34,0,0,1-2.47,1,3.43,3.43,0,0,1-2.5-1,3.64,3.64,0,0,1-.95-1.77,18.17,18.17,0,0,1-6.5-1.72,6.16,6.16,0,0,1-3.45-5.88,7.4,7.4,0,0,1,2.06-5.2,12.4,12.4,0,0,1,6.52-3.49,18.77,18.77,0,0,1,12.95,1.88l0-2.12,2.19,0,0,3.65c.35.3.69.61,1,1l.17-1.61,2.17.24-.55,5-5,.53-.22-2.19,2.14-.22a12.79,12.79,0,0,0-1.08-1l-3.56.82-.49-2.14,1.51-.33a16.37,16.37,0,0,0-7.34-1.68,14.52,14.52,0,0,0-5.86,1.15v10.56a25.41,25.41,0,0,0,3.54.64,4.09,4.09,0,0,1,.73-1.06,3.46,3.46,0,0,1,2.5-1,3.39,3.39,0,0,1,2.47,1,3.45,3.45,0,0,1,1,1.73c4.6.45,7.61,1.8,9,4a6.74,6.74,0,0,1,.93,3.63,7.62,7.62,0,0,1-2.05,5.19,12.54,12.54,0,0,1-6.55,3.47A17,17,0,0,1,349.94,256.54Zm-9.84-18.92v-8.38a5.57,5.57,0,0,0-2.25,4.45A4.14,4.14,0,0,0,340.1,237.62Zm9,4.27a1.29,1.29,0,0,0,.94-.39,1.35,1.35,0,0,0,0-1.88,1.29,1.29,0,0,0-.94-.39,1.26,1.26,0,0,0-.94.39,1.33,1.33,0,0,0,0,1.88A1.26,1.26,0,0,0,349.06,241.89Zm8.95,10a5.55,5.55,0,0,0,2.25-4.44,4.18,4.18,0,0,0-2.25-4Z"/><path class="cls-1" d="M141.41,257.27l-33-65.83-5.7,11.33,19.57,39H74.31l19.57-39-5.71-11.4-33,65.9H37.24v-7.92H50.31l3.49-7H43.34v-7.84H57.76l34.14-68H75.34v-7.84H91.9l-6.26-12.44,7-3.48,5.54,11.17,5.63-11.17,7,3.48-6.26,12.44h16.56v7.84H104.65l34.14,68h14.42v7.84H142.75l3.49,7h13.07v7.84Zm-31.93-23.45L98.31,211.49,87.06,233.82ZM98.31,194.06l5.63-11.41-5.71-11.33-5.62,11.33Z"/><path class="cls-2" d="M182.56,231.7a1.48,1.48,0,0,1-1.09-.45,1.44,1.44,0,0,1-.44-1.06,1.49,1.49,0,0,1,.44-1.08,1.51,1.51,0,0,1,1.09-.44,1.5,1.5,0,0,1,1.5,1.52,1.52,1.52,0,0,1-1.5,1.51Z"/><path class="cls-2" d="M182.56,236.87a1.51,1.51,0,0,1-1.09-.44,1.51,1.51,0,0,1,0-2.13,1.51,1.51,0,0,1,1.09-.44,1.51,1.51,0,0,1,0,3Z"/><path class="cls-2" d="M190.29,247.26a1.51,1.51,0,0,1,0-3,1.51,1.51,0,0,1,0,3Z"/><path class="cls-2" d="M190.29,252.43a1.46,1.46,0,0,1-1.06-.43,1.51,1.51,0,0,1,1.06-2.57,1.5,1.5,0,0,1,1.06,2.57A1.45,1.45,0,0,1,190.29,252.43Z"/><path class="cls-2" d="M212.15,239.06a1.5,1.5,0,0,1-1.5-1.51,1.49,1.49,0,0,1,1.5-1.5,1.5,1.5,0,0,1,1.51,1.5,1.52,1.52,0,0,1-1.51,1.51Z"/><path class="cls-2" d="M212.15,243.68a1.51,1.51,0,1,1,0-3,1.51,1.51,0,1,1,0,3Z"/><path class="cls-2" d="M221.11,239.06a1.43,1.43,0,0,1-1.06-.45,1.41,1.41,0,0,1-.45-1.06,1.52,1.52,0,0,1,1.51-1.5,1.5,1.5,0,0,1,1.5,1.5,1.52,1.52,0,0,1-1.5,1.51Z"/><path class="cls-2" d="M221.11,243.68a1.51,1.51,0,0,1,0-3,1.51,1.51,0,0,1,0,3Z"/><path class="cls-2" d="M245.65,242.06a1.44,1.44,0,0,1-1.07-.44,1.5,1.5,0,0,1,0-2.12,1.51,1.51,0,0,1,2.13,0,1.5,1.5,0,0,1,0,2.12A1.44,1.44,0,0,1,245.65,242.06Z"/><path class="cls-2" d="M252.56,242.06a1.44,1.44,0,0,1-1.06-.44,1.5,1.5,0,0,1,0-2.12,1.52,1.52,0,0,1,2.14,0,1.52,1.52,0,0,1,0,2.12A1.43,1.43,0,0,1,252.56,242.06Z"/><path class="cls-2" d="M279.38,233.13a1.5,1.5,0,1,1,1.06-2.56,1.5,1.5,0,0,1,0,2.12A1.44,1.44,0,0,1,279.38,233.13Z"/><path class="cls-2" d="M279.38,240.47a1.52,1.52,0,0,1-1.53-1.5,1.4,1.4,0,0,1,.45-1.07,1.55,1.55,0,0,1,2.14,0,1.43,1.43,0,0,1,.44,1.07,1.46,1.46,0,0,1-.44,1.06A1.44,1.44,0,0,1,279.38,240.47Z"/><path class="cls-2" d="M287,233.13a1.52,1.52,0,1,1,1.08-.44A1.42,1.42,0,0,1,287,233.13Z"/><path class="cls-2" d="M287,240.47a1.5,1.5,0,0,1-1.5-1.5,1.4,1.4,0,0,1,.44-1.07,1.55,1.55,0,0,1,2.14,0,1.4,1.4,0,0,1,.45,1.07,1.52,1.52,0,0,1-1.53,1.5Z"/><path class="cls-2" d="M321.64,232.18a1.5,1.5,0,0,1-1.52-1.5,1.43,1.43,0,0,1,.44-1.07,1.49,1.49,0,0,1,1.08-.43,1.47,1.47,0,0,1,1.07.43,1.43,1.43,0,0,1,.44,1.07,1.46,1.46,0,0,1-.44,1.06A1.44,1.44,0,0,1,321.64,232.18Z"/><path class="cls-2" d="M321.64,252a1.5,1.5,0,0,1-1.08-.44,1.52,1.52,0,0,1,0-2.14,1.54,1.54,0,0,1,1.08-.43,1.51,1.51,0,0,1,1.07.43,1.51,1.51,0,0,1-1.07,2.58Z"/><path class="cls-2" d="M345.19,231.7a1.48,1.48,0,0,1-1.09-.45,1.44,1.44,0,0,1-.44-1.06,1.49,1.49,0,0,1,.44-1.08,1.51,1.51,0,0,1,1.09-.44,1.5,1.5,0,0,1,1.5,1.52,1.52,1.52,0,0,1-1.5,1.51Z"/><path class="cls-2" d="M345.19,236.87a1.51,1.51,0,0,1-1.09-.44,1.51,1.51,0,0,1,0-2.13,1.51,1.51,0,0,1,1.09-.44,1.51,1.51,0,0,1,0,3Z"/><path class="cls-2" d="M352.92,247.26a1.51,1.51,0,0,1,0-3,1.51,1.51,0,0,1,0,3Z"/><path class="cls-2" d="M352.92,252.43a1.46,1.46,0,0,1-1.06-.43,1.51,1.51,0,0,1,1.06-2.57,1.4,1.4,0,0,1,1.06.44,1.5,1.5,0,0,1-1.06,2.56Z"/><path class="cls-2" d="M148.48,193.59a1.52,1.52,0,0,1-1.51-1.5,1.54,1.54,0,0,1,1.51-1.51,1.52,1.52,0,0,1,1.5,1.51,1.5,1.5,0,0,1-1.5,1.5Z"/><path class="cls-2" d="M148.48,206.17a1.54,1.54,0,0,1-1.51-1.51,1.52,1.52,0,0,1,1.51-1.5,1.5,1.5,0,0,1,1.5,1.5,1.52,1.52,0,0,1-1.5,1.51Z"/><path class="cls-2" d="M153.43,190.58A1.5,1.5,0,1,1,154.5,188a1.52,1.52,0,0,1,0,2.12A1.41,1.41,0,0,1,153.43,190.58Z"/><path class="cls-2" d="M153.43,199.89a1.46,1.46,0,0,1-1.06-.44,1.48,1.48,0,0,1-.45-1.09,1.51,1.51,0,0,1,2.58-1.06,1.46,1.46,0,0,1,.43,1.06,1.5,1.5,0,0,1-.43,1.09A1.45,1.45,0,0,1,153.43,199.89Z"/><path class="cls-2" d="M153.43,209.17a1.5,1.5,0,1,1,1.07-2.56,1.52,1.52,0,0,1,0,2.12A1.41,1.41,0,0,1,153.43,209.17Z"/><path class="cls-2" d="M158.4,193.59a1.5,1.5,0,0,1-1.5-1.5,1.49,1.49,0,0,1,2.56-1.06,1.41,1.41,0,0,1,.45,1.06,1.52,1.52,0,0,1-1.51,1.5Z"/><path class="cls-2" d="M158.4,206.17a1.52,1.52,0,0,1-1.5-1.51,1.5,1.5,0,0,1,1.5-1.5,1.52,1.52,0,0,1,1.51,1.5,1.41,1.41,0,0,1-.45,1.06A1.43,1.43,0,0,1,158.4,206.17Z"/><path class="cls-2" d="M181.79,190a1.47,1.47,0,0,1-1.08-.44,1.52,1.52,0,0,1,0-2.14,1.55,1.55,0,0,1,2.14,0,1.52,1.52,0,0,1,0,2.14A1.46,1.46,0,0,1,181.79,190Z"/><path class="cls-2" d="M181.79,209.81a1.5,1.5,0,0,1-1.52-1.5,1.41,1.41,0,0,1,.44-1.07,1.55,1.55,0,0,1,2.14,0,1.51,1.51,0,0,1-1.06,2.57Z"/><path class="cls-2" d="M207.54,191a1.47,1.47,0,0,1-1.08-.44,1.51,1.51,0,0,1,0-2.13,1.52,1.52,0,0,1,2.14,0,1.51,1.51,0,0,1-1.06,2.57Z"/><path class="cls-2" d="M207.54,198.3a1.47,1.47,0,0,1-1.08-.44,1.44,1.44,0,0,1-.44-1.07,1.43,1.43,0,0,1,.44-1.07,1.55,1.55,0,0,1,2.14,0,1.44,1.44,0,0,1,.45,1.07,1.52,1.52,0,0,1-1.51,1.51Z"/><path class="cls-2" d="M215.13,191a1.51,1.51,0,1,1,0-3,1.5,1.5,0,0,1,1.08.44,1.51,1.51,0,0,1,0,2.13A1.5,1.5,0,0,1,215.13,191Z"/><path class="cls-2" d="M215.13,198.3a1.5,1.5,0,0,1-1.51-1.51,1.46,1.46,0,0,1,.44-1.07,1.51,1.51,0,0,1,1.07-.43,1.54,1.54,0,0,1,1.08.43,1.46,1.46,0,0,1,.44,1.07,1.48,1.48,0,0,1-.44,1.07A1.5,1.5,0,0,1,215.13,198.3Z"/><path class="cls-2" d="M248.15,196.88a1.41,1.41,0,0,1-1.07-.44,1.52,1.52,0,0,1,0-2.12,1.5,1.5,0,1,1,1.07,2.56Z"/><path class="cls-2" d="M248.15,201.5a1.41,1.41,0,0,1-1.07-.44,1.52,1.52,0,0,1,0-2.12,1.5,1.5,0,1,1,1.07,2.56Z"/><path class="cls-2" d="M257.1,196.88a1.44,1.44,0,0,1-1.06-.44,1.5,1.5,0,0,1,0-2.12,1.51,1.51,0,0,1,2.13,0,1.5,1.5,0,0,1,0,2.12A1.44,1.44,0,0,1,257.1,196.88Z"/><path class="cls-2" d="M257.1,201.5a1.44,1.44,0,0,1-1.06-.44,1.5,1.5,0,0,1,0-2.12,1.51,1.51,0,0,1,2.13,0,1.5,1.5,0,0,1,0,2.12A1.44,1.44,0,0,1,257.1,201.5Z"/><path class="cls-2" d="M281.24,214.35a1.45,1.45,0,0,1-1.07-.44,1.53,1.53,0,0,1,0-2.13,1.51,1.51,0,1,1,1.07,2.57Z"/><path class="cls-2" d="M286.17,214.35a1.49,1.49,0,0,1-1.08-.44,1.51,1.51,0,0,1,0-2.13,1.49,1.49,0,0,1,1.08-.44,1.51,1.51,0,0,1,0,3Z"/><path class="cls-2" d="M291.08,214.35a1.46,1.46,0,0,1-1.06-.44,1.51,1.51,0,0,1,0-2.13,1.51,1.51,0,1,1,1.06,2.57Z"/><polygon class="cls-2" points="324.53 199.93 321.28 197.3 318.03 199.93 314.8 197.3 312.24 199.38 310.87 197.66 314.8 194.5 318.03 197.1 321.28 194.5 324.53 197.1 327.75 194.5 331.69 197.66 330.32 199.38 327.75 197.3 324.53 199.93"/><path class="cls-2" d="M314.8,207a1.51,1.51,0,0,1-1.06-2.57,1.52,1.52,0,0,1,2.12,0A1.51,1.51,0,0,1,314.8,207Z"/><path class="cls-2" d="M321.28,207a1.4,1.4,0,0,1-1.06-.44,1.5,1.5,0,0,1,1.06-2.56,1.46,1.46,0,0,1,1.06.43,1.51,1.51,0,0,1-1.06,2.57Z"/><path class="cls-2" d="M327.75,207a1.44,1.44,0,0,1-1.06-.44,1.51,1.51,0,0,1,2.14-2.13,1.53,1.53,0,0,1,0,2.13A1.43,1.43,0,0,1,327.75,207Z"/><path class="cls-2" d="M350.83,190a1.47,1.47,0,0,1-1.08-.44,1.52,1.52,0,0,1,0-2.14,1.55,1.55,0,0,1,2.14,0,1.52,1.52,0,0,1,0,2.14A1.46,1.46,0,0,1,350.83,190Z"/><path class="cls-2" d="M350.83,209.81a1.5,1.5,0,0,1-1.52-1.5,1.41,1.41,0,0,1,.44-1.07,1.55,1.55,0,0,1,2.14,0,1.51,1.51,0,0,1-1.06,2.57Z"/></svg>