<svg id="Слой_1" data-name="Слой 1" xmlns="http://www.w3.org/2000/svg" viewBox="0 0 400 400"><defs><style>.cls-1,.cls-2{fill:#18181b;}.cls-2{fill-rule:evenodd;}</style></defs><path class="cls-1" d="M110.78,286.22q.43,3.64,1.38,4.92a2.5,2.5,0,0,0,2.55,1,27.62,27.62,0,0,1,4-.24l-8.33,6.91a8.09,8.09,0,0,1-5.35-1.7,10.76,10.76,0,0,1-3.12-4.83,29.28,29.28,0,0,1-1.42-7.43q-.33-4.29-.33-9.41V252.39H95l3.12-7h2a2.71,2.71,0,0,0,1.85-1.13,8.37,8.37,0,0,0,1.56-2.75,17.25,17.25,0,0,0,0-2.17c0-.76,0-1.58,0-2.46a18.57,18.57,0,0,0-1.66-8.38,11.56,11.56,0,0,0-4.12-4.78,9.21,9.21,0,0,0-5.34-1.37,10.11,10.11,0,0,0-5.35,1.85A13.19,13.19,0,0,0,83,229a15.91,15.91,0,0,0-1.66,7.57,6.73,6.73,0,0,0,1.56,4.5,15.61,15.61,0,0,0,3.46,3.07q1.89,1.23,3.45,2c1,.53,1.56,1,1.56,1.46L87,255.14a32.33,32.33,0,0,0-7.34-4.64,10.83,10.83,0,0,0-5.39-1,4.63,4.63,0,0,0-3.36,1.89,7.13,7.13,0,0,0-1.13,4.17,6.8,6.8,0,0,0,2,4.77,25.6,25.6,0,0,0,5,4q3,1.89,6.48,3.73A60.34,60.34,0,0,1,89.69,272a24,24,0,0,1,5,4.54,8.49,8.49,0,0,1,2,5.49,12.07,12.07,0,0,1-1.8,6.24,20.68,20.68,0,0,1-4.59,5.35A24,24,0,0,1,84,297.34a18.05,18.05,0,0,1-6.86,1.42,22.42,22.42,0,0,1-6.53-.95A35.49,35.49,0,0,1,65,295.63a32.14,32.14,0,0,1-5.21-3.21L64,283.33a49,49,0,0,0,6.15,4.45,37.16,37.16,0,0,0,5.2,2.65,21.59,21.59,0,0,0,4.3,1.28,14.82,14.82,0,0,0,3.46.23A9.37,9.37,0,0,0,89,289.77q2-2.46,1-4.36a10.35,10.35,0,0,0-3.74-3.64,64.75,64.75,0,0,0-6.58-3.59,68.78,68.78,0,0,1-7.37-4.12,30.06,30.06,0,0,1-6.2-5.2,12.16,12.16,0,0,1-2.27-12.45,19.54,19.54,0,0,1,3-5.25,20.22,20.22,0,0,1,4.59-4.25A14.86,14.86,0,0,1,77,244.54a7.93,7.93,0,0,1-1.42-2,10.54,10.54,0,0,1-1-3.36,11.94,11.94,0,0,1,1.66-8A23.21,23.21,0,0,1,82,224.76a29,29,0,0,1,7.86-4.3,23.29,23.29,0,0,1,7.89-1.56,15.68,15.68,0,0,1,7.1,1.32,8,8,0,0,1,3.74,4.21,23.52,23.52,0,0,1,1.46,7.43q.29,4.54.29,11.07v2.46H121l-3.22,7h-7.38v22.52A109.14,109.14,0,0,0,110.78,286.22Z"/><path class="cls-1" d="M180.94,271.69a30.33,30.33,0,0,1-1.84,10.65,23.86,23.86,0,0,1-5.54,8.66,26.21,26.21,0,0,1-9.13,5.82A34.2,34.2,0,0,1,151.9,299a33.56,33.56,0,0,1-12.4-2.13,26.27,26.27,0,0,1-9.08-5.82,24.9,24.9,0,0,1-5.63-8.66,28.87,28.87,0,0,1-1.94-10.65,28.55,28.55,0,0,1,1.94-10.54,24.49,24.49,0,0,1,5.67-8.66,27,27,0,0,1,9.13-5.82,33.33,33.33,0,0,1,12.31-2.13,33.78,33.78,0,0,1,12.48,2.13,26.31,26.31,0,0,1,9.09,5.82,24.27,24.27,0,0,1,5.58,8.66A29.36,29.36,0,0,1,180.94,271.69Zm-29,25a16.74,16.74,0,0,0,8.18-1.94,17.58,17.58,0,0,0,6-5.34,24.8,24.8,0,0,0,3.64-7.95,37.15,37.15,0,0,0,1.23-9.75,35.59,35.59,0,0,0-1.27-9.65,25.22,25.22,0,0,0-3.74-7.94,18.55,18.55,0,0,0-6-5.4,16.13,16.13,0,0,0-8-2,16.52,16.52,0,0,0-8.19,2,18.19,18.19,0,0,0-6,5.4,24.84,24.84,0,0,0-3.64,7.94,36.82,36.82,0,0,0-1.23,9.65,34.76,34.76,0,0,0,1.32,9.75,25.1,25.1,0,0,0,3.83,7.95,18.62,18.62,0,0,0,6,5.34A15.85,15.85,0,0,0,151.9,296.67Z"/><path class="cls-1" d="M198.54,298.85H188.23V257.31a5,5,0,0,0-.95-2.93,4.7,4.7,0,0,0-2.55-1.8l13.81-7.19v7.38a28.61,28.61,0,0,1,7.1-5,23.48,23.48,0,0,1,7.52-2.27,15.13,15.13,0,0,1,7.05.81,12.08,12.08,0,0,1,5.58,4.35L216.23,257a9,9,0,0,0-1.89-2.46,10.35,10.35,0,0,0-2.7-1.7,10,10,0,0,0-4.21-.76q-4.16,0-6.15,2a10.93,10.93,0,0,0-2.74,5.25Z"/><path class="cls-1" d="M243.39,245.58V275.1q0,5.11.19,8.37a38.68,38.68,0,0,0,.56,5.16,6.43,6.43,0,0,0,1,2.65,2.62,2.62,0,0,0,1.56,1,7,7,0,0,0,2.17,0,26.28,26.28,0,0,1,2.84-.14L243.39,299a8.09,8.09,0,0,1-5.35-1.7,10.68,10.68,0,0,1-3.12-4.83,30.61,30.61,0,0,1-1.47-7.43c-.25-2.87-.38-6-.38-9.41V257.12a4.94,4.94,0,0,0-.94-2.93,4.72,4.72,0,0,0-2.56-1.8Z"/><path class="cls-1" d="M253.61,276.05a24.76,24.76,0,0,1,2.5-11.07,34.29,34.29,0,0,1,6.44-9.09,35.74,35.74,0,0,1,8.84-6.57,32.4,32.4,0,0,1,9.75-3.41,21.25,21.25,0,0,1,9,.33,12,12,0,0,1,6.77,4.64l-9.56,6.24a9.17,9.17,0,0,0-1.89-2.46,10.83,10.83,0,0,0-2.69-1.7,10.29,10.29,0,0,0-4.22-.75,12.78,12.78,0,0,0-5.63,1.22,13.46,13.46,0,0,0-4.3,3.32,19.35,19.35,0,0,0-3,4.82,25.8,25.8,0,0,0-1.8,5.77h27.92l-4.45,9.84H263.54a14.9,14.9,0,0,0,4.21,7.57,18.53,18.53,0,0,0,7.76,4.59,19.94,19.94,0,0,0,9.7.38,22,22,0,0,0,10-5.06,75.41,75.41,0,0,1-5.11,6.15,44.66,44.66,0,0,1-5.16,4.73,17.28,17.28,0,0,1-5.82,3.12,11.32,11.32,0,0,1-3.5.33,20.89,20.89,0,0,1-5.2-.85,29.82,29.82,0,0,1-5.82-2.37,20.07,20.07,0,0,1-5.44-4.21,21.18,21.18,0,0,1-4-6.43A23.78,23.78,0,0,1,253.61,276.05Z"/><path class="cls-1" d="M310.94,288a37.78,37.78,0,0,0,5.21,2.65,21.4,21.4,0,0,0,4.3,1.28,14.79,14.79,0,0,0,3.46.23,9.79,9.79,0,0,0,6-2.17q2-2.46.94-4.36A10.35,10.35,0,0,0,327,282a73.25,73.25,0,0,0-6.53-3.55,71.22,71.22,0,0,1-7.33-4.12,29.07,29.07,0,0,1-6.2-5.25,12,12,0,0,1-2.13-13,19.24,19.24,0,0,1,3.59-5.67,20,20,0,0,1,5.4-4.21,13.07,13.07,0,0,1,6.29-1.66,25.28,25.28,0,0,1,5.53.52,18.87,18.87,0,0,1,3.74,1.18,12.32,12.32,0,0,1,2.75,1.61l-4.36,7.57a29.61,29.61,0,0,0-7.23-4.73,10.86,10.86,0,0,0-5.4-1,4.63,4.63,0,0,0-3.36,1.89,7.12,7.12,0,0,0-1.13,4.16,6.81,6.81,0,0,0,2,4.78,25.6,25.6,0,0,0,5,4c2,1.26,4.13,2.5,6.44,3.73a63.52,63.52,0,0,1,6.43,3.93,24.07,24.07,0,0,1,5,4.54,8.54,8.54,0,0,1,2,5.49,12.38,12.38,0,0,1-1.74,6.24,19.59,19.59,0,0,1-4.59,5.35,24.81,24.81,0,0,1-6.3,3.74,18.05,18.05,0,0,1-6.86,1.42,21.94,21.94,0,0,1-6.48-.95,36,36,0,0,1-5.53-2.18,33.31,33.31,0,0,1-5.21-3.21l4.07-9.09A51.56,51.56,0,0,0,310.94,288Z"/><path class="cls-1" d="M112.15,197.07a24.89,24.89,0,0,1,2.5-11,34,34,0,0,1,6.44-9.13,36,36,0,0,1,8.84-6.58,32.4,32.4,0,0,1,9.75-3.41,21.09,21.09,0,0,1,9,.34,12,12,0,0,1,6.77,4.63l-9.56,6.34a9,9,0,0,0-1.89-2.46,10.18,10.18,0,0,0-2.7-1.7,10,10,0,0,0-4.21-.76,12.22,12.22,0,0,0-6.9,1.94,16,16,0,0,0-4.83,5,23.11,23.11,0,0,0-2.79,6.95,33.84,33.84,0,0,0-.9,7.66,14.59,14.59,0,0,0,3,9.09,18,18,0,0,0,7.71,5.86A20.09,20.09,0,0,0,142.8,211a21.22,21.22,0,0,0,11-5.3,73.75,73.75,0,0,1-5.11,6.15,48.85,48.85,0,0,1-5.16,4.78,17,17,0,0,1-5.82,3.17,10.74,10.74,0,0,1-3.5.28,23.49,23.49,0,0,1-5.2-.85,26.45,26.45,0,0,1-5.82-2.36,20.92,20.92,0,0,1-9.46-10.7A23.78,23.78,0,0,1,112.15,197.07Z"/><path class="cls-1" d="M159.26,197.07a24.64,24.64,0,0,1,2.51-11,34.66,34.66,0,0,1,6.45-9.08,36.2,36.2,0,0,1,8.82-6.57,32.61,32.61,0,0,1,9.71-3.46,20.64,20.64,0,0,1,9.06.29,12,12,0,0,1,6.78,4.63l5.4-2.74v50.71H197.68V209.75c-.76.88-1.65,1.83-2.65,2.84s-2.07,2-3.17,2.93a30,30,0,0,1-3.46,2.56,15.58,15.58,0,0,1-3.59,1.7,10.77,10.77,0,0,1-3.5.28,23.66,23.66,0,0,1-5.21-.85,26.85,26.85,0,0,1-5.82-2.36,21.49,21.49,0,0,1-5.44-4.26,21.23,21.23,0,0,1-4-6.44A23.78,23.78,0,0,1,159.26,197.07Zm9.56-2.08a14.5,14.5,0,0,0,2.59,8.47,17.84,17.84,0,0,0,6.74,5.82,19.64,19.64,0,0,0,9.29,2,20.16,20.16,0,0,0,10.24-3.21V180.7a4.66,4.66,0,0,0-.62-2.32,5,5,0,0,0-1.65-1.75l-2.35,1.61a9.43,9.43,0,0,0-1.89-2.46,10.28,10.28,0,0,0-2.69-1.7,10,10,0,0,0-4.2-.76,12.18,12.18,0,0,0-6.88,1.94,16.53,16.53,0,0,0-4.86,5,22.42,22.42,0,0,0-2.83,6.95A34.8,34.8,0,0,0,168.82,195Z"/><path class="cls-1" d="M262.63,207.43q.42,3.65,1.37,4.92a2.51,2.51,0,0,0,2.56,1,29,29,0,0,1,4-.24l-8.33,6.91a8.07,8.07,0,0,1-5.34-1.7,10.63,10.63,0,0,1-3.12-4.83,29.28,29.28,0,0,1-1.42-7.42c-.23-2.87-.33-6-.33-9.42V173.61h-5.11l3.12-7h2a2.69,2.69,0,0,0,1.84-1.13,8.37,8.37,0,0,0,1.56-2.75,17.2,17.2,0,0,0,.05-2.17c0-.76-.05-1.58-.05-2.46a18.57,18.57,0,0,0-1.65-8.38,11.6,11.6,0,0,0-4.12-4.77,9.16,9.16,0,0,0-5.35-1.38,10.11,10.11,0,0,0-5.34,1.85,13.24,13.24,0,0,0-4.12,4.83,16,16,0,0,0-1.65,7.56,6.73,6.73,0,0,0,1.56,4.5,15.79,15.79,0,0,0,3.45,3.07,37.45,37.45,0,0,0,3.46,2c1,.53,1.56,1,1.56,1.46l-4.36,7.48a32.66,32.66,0,0,0-7.33-4.64,10.83,10.83,0,0,0-5.39-1,4.61,4.61,0,0,0-3.36,1.89,7.06,7.06,0,0,0-1.14,4.17,6.87,6.87,0,0,0,2,4.78,25.72,25.72,0,0,0,5,4c2,1.26,4.14,2.51,6.48,3.73a61.18,61.18,0,0,1,6.48,3.93,24.07,24.07,0,0,1,5,4.54,8.54,8.54,0,0,1,2,5.49,12.1,12.1,0,0,1-1.79,6.24,20.51,20.51,0,0,1-4.59,5.35,23.84,23.84,0,0,1-6.25,3.74A18.05,18.05,0,0,1,229,220a22.35,22.35,0,0,1-6.52-.95,35.25,35.25,0,0,1-5.59-2.17,32.79,32.79,0,0,1-5.2-3.22l4.16-9.08A50.29,50.29,0,0,0,222,209a36.69,36.69,0,0,0,5.21,2.65,21.4,21.4,0,0,0,4.3,1.28,14.74,14.74,0,0,0,3.45.23,9.35,9.35,0,0,0,5.87-2.17q2-2.46,1-4.35a10.33,10.33,0,0,0-3.73-3.65,64.75,64.75,0,0,0-6.58-3.59,69.91,69.91,0,0,1-7.38-4.12,30.6,30.6,0,0,1-6.2-5.2,12.21,12.21,0,0,1-2.27-12.44,19.86,19.86,0,0,1,3-5.26,20.89,20.89,0,0,1,4.59-4.25,15,15,0,0,1,5.58-2.37,8.46,8.46,0,0,1-1.42-2,10.48,10.48,0,0,1-.94-3.36,11.93,11.93,0,0,1,1.65-8,23.37,23.37,0,0,1,5.78-6.43,28.68,28.68,0,0,1,7.85-4.31,23.35,23.35,0,0,1,7.9-1.56,15.56,15.56,0,0,1,7.1,1.33,7.91,7.91,0,0,1,3.73,4.21,23.71,23.71,0,0,1,1.47,7.42q.29,4.55.28,11.07v2.46h10.6l-3.22,7H262.2v22.51A108.47,108.47,0,0,0,262.63,207.43Z"/><path class="cls-1" d="M286.61,151.94v44.37c0,3.41.07,6.2.19,8.38a40.16,40.16,0,0,0,.57,5.15,6.25,6.25,0,0,0,1,2.65,2.61,2.61,0,0,0,1.57.95,7,7,0,0,0,2.17.05,23.77,23.77,0,0,1,2.84-.15l-8.33,6.91a8.07,8.07,0,0,1-5.34-1.7,10.68,10.68,0,0,1-3.12-4.83,30.53,30.53,0,0,1-1.47-7.42q-.37-4.31-.38-9.42v-33.4a5,5,0,0,0-.94-2.93,4.76,4.76,0,0,0-2.56-1.8Z"/><path class="cls-1" d="M296.83,197.26a24.8,24.8,0,0,1,2.51-11.07,34.2,34.2,0,0,1,6.43-9.08,36.28,36.28,0,0,1,8.85-6.58,32.4,32.4,0,0,1,9.75-3.41,21.1,21.1,0,0,1,9,.34,12,12,0,0,1,6.77,4.63l-9.56,6.25a9.06,9.06,0,0,0-1.89-2.46,10.81,10.81,0,0,0-2.7-1.71,10.24,10.24,0,0,0-4.21-.75,12.61,12.61,0,0,0-5.63,1.23,13.32,13.32,0,0,0-4.3,3.31,19.53,19.53,0,0,0-3,4.82,25.72,25.72,0,0,0-1.8,5.78H335l-4.44,9.84H306.77A14.87,14.87,0,0,0,311,206a18.55,18.55,0,0,0,7.76,4.58,19.9,19.9,0,0,0,9.69.38,21.92,21.92,0,0,0,10-5.06,71.77,71.77,0,0,1-5.1,6.15,44.66,44.66,0,0,1-5.16,4.73,17.29,17.29,0,0,1-5.82,3.12,11.05,11.05,0,0,1-3.5.33,20.58,20.58,0,0,1-5.21-.85,29.93,29.93,0,0,1-5.81-2.36,20.11,20.11,0,0,1-5.44-4.21,21.06,21.06,0,0,1-4-6.44A23.78,23.78,0,0,1,296.83,197.26Z"/><path class="cls-2" d="M214.43,101H210v5.33h4.44V131.9a119.88,119.88,0,0,1,14.83-3.4c1.47-.25,3-.46,4.44-.65,1.76-.23,3.54-.42,5.33-.58,1.47-.13,2.95-.23,4.44-.32,2.44-.13,4.92-.2,7.42-.2s5,.07,7.42.2c1.49.09,3,.19,4.43.32,1.8.16,3.58.35,5.33.58,1.5.19,3,.4,4.44.65h0a118.26,118.26,0,0,1,14.84,3.41h0V106.29h4.43V101H268.07v5.33h4.44v9.34a7.12,7.12,0,0,1-4.44,6.58,6.94,6.94,0,0,1-2.66.53,7,7,0,0,1-2.67-.53,7.13,7.13,0,0,1-4.43-6.58v-9.34h4.43V101H239v5.33h4.44v9.34a7.12,7.12,0,0,1-4.44,6.58,6.94,6.94,0,0,1-2.66.53,7,7,0,0,1-2.67-.53,7.13,7.13,0,0,1-4.44-6.58v-9.34h4.44V101Z"/><path class="cls-2" d="M214.43,135.44a126,126,0,0,1,72.92,0v-1.7a127.14,127.14,0,0,0-72.92,0Z"/></svg>