<svg id="Слой_1" data-name="Слой 1" xmlns="http://www.w3.org/2000/svg" viewBox="0 0 400 400"><defs><style>.cls-1,.cls-2{fill:#44403c;}.cls-2,.cls-3{fill-rule:evenodd;}.cls-3{fill:#fff;}</style></defs><path class="cls-1" d="M106.83,147.74q3.32,0,11.23,5.6,3.36,9.72,3.36,10.39v.55q0,7.64-20.48,12.92a35.48,35.48,0,0,1,1.39,7,8.48,8.48,0,0,1,1.13,4.49l-9.83,3.37c-.18,0-.27-.09-.27-.29l-7.57.84A47.78,47.78,0,0,1,81,182l.58-2v-1.42a41.37,41.37,0,0,1,.26-5.05q0-.31-.84-8.68l-.55.27h-.29q-1,0-4.21-9c-.4,0-.68-.85-.84-2.53v-.29a35.41,35.41,0,0,1,17.41-4.76c2.34.19,3.74.29,4.21.29ZM92.52,161.49q0,2.79.84,2.79a8.34,8.34,0,0,0,2.24.29h5.89q5.34-.49,5.34-1.68a8.77,8.77,0,0,0-6.47-2.53A53.29,53.29,0,0,0,92.52,161.49Z"/><path class="cls-1" d="M148.45,146.9h8.42q.56,0,6.18,18.51,0,2.25,3.63,14V189a13.73,13.73,0,0,1-3.92,1.13h-7.57c-.39,0-1.05-1.31-2-3.92A121.46,121.46,0,0,0,135,183.93q-2.58,0-3.37,2.81,0,1.59-7.31,3.37h-3.63q-2.27-5.19-2.26-6.44v-9.29q4.08-7.14,17.67-23.56A111.46,111.46,0,0,1,148.45,146.9Zm-1.13,13.18q-.16.73-8.13,12.62,1.11.57,11.21,2a101.24,101.24,0,0,0-2.79-14.59Z"/><path class="cls-1" d="M182.19,146.35H183q3.1,8.42,3.1,9.52V164q0,3.6-.57,12h.28a155.93,155.93,0,0,1,17.13-1.4q3.92,0,3.91,2.53a54.24,54.24,0,0,1,2.26,7.86v2.52c0,.87-3.23,2.37-9.54,4.5L187.82,191l-14,1.13q-5.6-11-5.6-17.41V155.6l-.29-1.68q.94-1.71,7-5A69.41,69.41,0,0,1,182.19,146.35Z"/><path class="cls-1" d="M224.92,146.9h.29c.4,0,.77.74,1.1,2.24q7.32-.27,17.12-1.4V148l2.53,9v.29q-1,1-10.39,3.36-4.9.27-6.16.27v3.65h.27q2.43,0,14.31-2c.89,0,2,3.28,3.36,9.84a67.69,67.69,0,0,1-17.09,3.92l.26,2.81,16-1.42a84.8,84.8,0,0,1,2.81,9.83A46.5,46.5,0,0,1,231.65,191a158.15,158.15,0,0,0-16,2.53q-1.72-1.51-4.76-10.66c0-.19.09-.28.27-.28a8.47,8.47,0,0,1-.85-2.82l2.82-25.25a7.51,7.51,0,0,1-.29-2Q212.85,149.64,224.92,146.9Z"/><path class="cls-1" d="M83.94,206.77l2.81,1.68q8.41,6.11,8.42,8.71a61.08,61.08,0,0,1,2.26,6.44v.55l-9.28,3.37q-6.45-6.78-8.69-7-5.44,1.39-7,1.95l.29.58c0,.93-.09,2.33-.29,4.21l.56.26h3.94q12.19,0,16.83,4.5l4.5,14.59v2q0,.85-14.33,6.45a50.91,50.91,0,0,0-13.47-1.68H68.24q-3.06,0-12.34.84-3.49-7.41-3.94-9.55v-.26q.6-1.15,9.25-4.5c1.11,0,3.07.09,5.9.27l2-.27,7.86.55a1.9,1.9,0,0,1,.84-.28h1.11c0-1.3-1.12-2-3.37-2q-16.06-2-17.1-2Q52.24,221,52.24,218v-1.13q.7,0,3.92-2.24Q80.94,206.77,83.94,206.77Z"/><path class="cls-1" d="M132.34,209.85q3.49.28,7,.29c.81,0,2.3,4.2,4.5,12.62l.27,1.39q-1.38,1.23-8.13,4.21-30-2.79-34.51-3.36-.84-.63-3.94-9.53,8.15-3.94,13.2-3.94Q112.84,211.53,132.34,209.85Zm-14.59,17.67c.89,0,4,.75,9.25,2.26.5,0,1,.65,1.42,1.95,1.3,4.73,2,7.16,2,7.31a34.63,34.63,0,0,0-1.68,10.1q0,2.16-13.47,5.34a80.25,80.25,0,0,1-6.44-19.38,7.68,7.68,0,0,1-1.13-3.64Q108.22,231.46,117.75,227.52Z"/><path class="cls-1" d="M214.16,209.58q20.47,0,20.48,3.08,4.5,11.09,4.5,12.62,0,6.42-5,8.42c-3.13,1.27-5,2.2-5.63,2.81,6,1.74,9,3.6,9,5.61l2.52,7.57c-.46,0-1.4.84-2.81,2.53q-8.41,2.81-9,2.81-1.14-1.84-19.63-9.81l.27,3.92q0,1.83-3.92,2.52c-2.42,1.32-4,2-4.76,2q-2.82-7.95-2.82-9.54,0-7.38-.28-24.41-1.69-5.75-1.69-5.89,9.41-3.94,12.36-3.94A44.43,44.43,0,0,1,214.16,209.58Zm-4.5,12.63v4.21c10.48-.81,15.73-1.46,15.73-2a2.36,2.36,0,0,0,.26-1.13v-.26a98.77,98.77,0,0,0-14-.84Z"/><path class="cls-1" d="M255.42,207.06c2.8.8,4.21,1.36,4.21,1.68,1.68,5.68,2.52,8.76,2.52,9.26v.26a165.2,165.2,0,0,1-17.1,6.47q-2.2,0-5.62-10.1v-.29c.67-1.81,2.73-3.39,6.18-4.76A79,79,0,0,1,255.42,207.06Zm-1.11,16h.27q.84,0,2.81,7c.26.09.63.93,1.13,2.52l-.29,1.42v1.39q0,2.38.55,12.36,0,4.48-3.07,4.48-7.87,2.52-10.66,2.52-.9-.77-4.49-10.94v-.29l3.08-15.15c.21,0,1.14-.93,2.81-2.79Q247,225.57,254.31,223.05Z"/><path class="cls-1" d="M276.12,209.29h.29c.4,0,.77.75,1.11,2.24q7.31-.27,17.12-1.39v.28l2.52,9v.29q-1,1-10.39,3.37-4.9.25-6.15.26V227h.26q2.43,0,14.31-2,1.35,0,3.37,9.83a67.34,67.34,0,0,1-17.1,3.92l.27,2.81,16-1.41a87.92,87.92,0,0,1,2.81,9.83,46.77,46.77,0,0,1-17.67,3.37,156.8,156.8,0,0,0-16,2.52q-1.74-1.51-4.77-10.65c0-.19.09-.29.27-.29a8.53,8.53,0,0,1-.84-2.81l2.81-25.25a8.08,8.08,0,0,1-.29-2Q264.05,212,276.12,209.29Z"/><path class="cls-1" d="M333.71,206.77l2.82,1.68q8.42,6.11,8.41,8.71a58.39,58.39,0,0,1,2.26,6.44v.55l-9.28,3.37q-6.44-6.78-8.68-7-5.46,1.39-7,1.95l.29.58c0,.93-.1,2.33-.29,4.21l.55.26h4q12.18,0,16.83,4.5L348,246.61v2q0,.85-14.33,6.45a50.78,50.78,0,0,0-13.46-1.68H318q-3.06,0-12.33.84-3.49-7.41-3.95-9.55v-.26q.6-1.15,9.26-4.5,1.67,0,5.89.27l2-.27,7.87.55a1.9,1.9,0,0,1,.84-.28h1.1q0-2-3.36-2-16.07-2-17.1-2Q302,221,302,218v-1.13c.47,0,1.77-.75,3.92-2.24Q330.71,206.77,333.71,206.77Z"/><path class="cls-2" d="M185.75,257.05c.7.11,1.76.91,2.41.42s-.52-4.27-.68-5.79a32.87,32.87,0,0,1,.12-7.63c-.49-.12-.29-.33-.32-.53a15,15,0,0,1-.11-2.72c.08-1.65.42-3.29.44-5.19,0-4.68-.28-9.71-.08-14.17,0-1-.05-2,.06-2.81.07-.51.35-1,.48-1.57s.47-1,.35-1.68a8.76,8.76,0,0,0-1.41-2.53c-.61-1-1-1.94-1.43-2.64a31.3,31.3,0,0,0-2.67-3.35c-.89-1.09-2.09-2.75-3.35-2.62-.14,0-.13.16-.25.18s0,.12-.07.1a17.45,17.45,0,0,0-7.81,1.1c-.83.26-1.69.51-2.5.78a38.73,38.73,0,0,0-8.57,4.26c-1.32.82-3.44,1-4.62,1.89-.21.16-.36.57-.66.85s-.69.36-.9.62a10,10,0,0,0-1.22,3.21c-1.82,5.8-1.92,12.55-3.78,18.35a43.17,43.17,0,0,0-1.27,5.31,4.66,4.66,0,0,0-.15,2.09c.44,1.56,2.19,3.52,3.28,5,1.9,2.62,3.73,4.18,5.12,7,.36.72.94,3,1.44,3.44a7.38,7.38,0,0,0,2.49.72c.54,0,.86-.41,1.33-.48a25.18,25.18,0,0,1,3.84-.06,68.7,68.7,0,0,0,11.39-.69c2.21-.27,4.2-.6,6.75-.69A15.94,15.94,0,0,1,185.75,257.05Z"/><path class="cls-3" d="M180.1,207.61c.27,0,0-.53.49-.36,1.12,1.13,2,2.55,3.22,3.61.11,1.81,2.56,2.84,2.9,4.28.1.43-.2,1.1-.41,1.06-.48-.06-1.23-1.76-1.53-2.25C183.37,211.67,181.48,209.57,180.1,207.61Z"/><path class="cls-3" d="M179.15,208a.45.45,0,0,1,.25.22c0,.8-1,1.18-1.61,1.67-1.23,1-2.59,2-3.76,3.08-.56.54-.91,1.35-1.76,1.44-.08-.9.76-1.31,1.29-1.79C175.25,211.09,177.31,209.51,179.15,208Z"/><path class="cls-3" d="M173.71,208.24c-2.16.71-3.75,1.94-6,2.58a3.75,3.75,0,0,0-.19-1.53C169.6,209,171.57,208.52,173.71,208.24Z"/><path class="cls-3" d="M180.27,209.43a85.06,85.06,0,0,0-7.36,6c-.15-1,.84-1.26,1.4-1.69,1.77-1.36,3.65-3,5.47-4.33,0-.11.17,0,.14-.19C180.06,209.25,180.13,209.4,180.27,209.43Z"/><path class="cls-3" d="M180.9,210.39a63.41,63.41,0,0,0-6.51,5.55c-.23.24-.39.76-.91.62-.5-.65.14-.82.41-1.06,2-1.8,4.57-3.69,6.51-5.55C180.72,209.9,180.65,210.34,180.9,210.39Z"/><path class="cls-3" d="M167.08,209.45c.32.48.24,2-.56,2C166.15,210.58,166.29,209.52,167.08,209.45Z"/><path class="cls-3" d="M181.37,211.14c.35.6-.34.84-.6,1.05a70.68,70.68,0,0,0-6.62,5.84c-.61-.85.6-1.89,1.23-2.4,1.83-1.52,4.38-3.12,5.78-4.61A.2.2,0,0,1,181.37,211.14Z"/><path class="cls-3" d="M165.59,210c.19.68.26,1.93-.7,1.84a8.39,8.39,0,0,0,0-1.51C165.06,210.19,165.49,210.25,165.59,210Z"/><path class="cls-3" d="M172.93,211.29c.17,0,.23.11.13.1-.08,1.48-1.6,1.65-1.87,3,0,.38.39.24.5.45-.1.85.79,1.48.25,2.13.23.32.46-.12.61.16,1.7,3.49,2.21,8.48,4.9,10.69a8.28,8.28,0,0,1,.14,1.72c-2.49,1.59-6.15,2.14-7.23,5-.63.15-.9.63-1.42.88a4.54,4.54,0,0,0-1.18-.11c-2.16-4.27-5.82-6.63-8.68-10-.71-2.06-1.16-4.49-2-6.4,1.67-2.14,4.8-2.89,7.59-3.94A74.94,74.94,0,0,0,172.93,211.29ZM170.18,218c.53-.11.9-.36.56-1.26C169.58,215.71,169.21,217.17,170.18,218Zm-2.68,2.37a1,1,0,0,0-1.24-.71C164.42,220.12,168.3,222.54,167.5,220.34Zm2.1,1.5c-.33-.12-.26.13-.44.15a1.49,1.49,0,0,0,.67,1.17c1.44.27,1-1.63-.11-2C169.32,221.11,169.38,221.51,169.6,221.84Zm-4.88,1.26c.38-.07.31-.74,0-1.2-.08,0-.2,0-.22-.13C163.36,221.48,163.89,223.09,164.72,223.1Zm-4.24.73c.59-.58,1.36-1,1.53-2C160.79,221.88,160.79,223,160.48,223.83Zm1.11,1c1.33-.17,1.65-1.23,2.17-2.12C162.49,222.63,161.93,223.83,161.59,224.84Zm.83,1.38a6,6,0,0,0,2.66-2.48A2.79,2.79,0,0,0,162.42,226.22Zm1.23.31c1.24-.12,1.66-.95,2.3-1.6a.45.45,0,0,0-.28-.33C165,225.27,164.24,225.81,163.65,226.53Zm5.94,2.54c.37.39,1,.45,1.18.1a2.61,2.61,0,0,0-.31-.83C169.81,228,169.17,228.19,169.59,229.07Zm-.87,1.13c-.06-.66-.67-.72-1-1.3C164.35,228.05,168.9,232.4,168.72,230.2Zm-.86,2.33c.69-.17.71-.95,1-1.52C168.29,231.34,167.6,231.5,167.86,232.53Zm.52,1a3.24,3.24,0,0,0,1.53-2C169,231.48,168.31,232.66,168.38,233.49Z"/><path class="cls-3" d="M181.9,212.09c.23,0,.18.31.37.33-2.11,1.83-3.55,4.25-6.58,5.24a3.49,3.49,0,0,1,1.26-1.5A47.16,47.16,0,0,0,181.9,212.09Z"/><path class="cls-3" d="M164,210.69c.16.61.34,1.94-.59,1.85,0-.45,0-1,0-1.5C163.61,210.9,163.91,210.88,164,210.69Z"/><path class="cls-3" d="M182.55,213.15c.28.11.36.45.55.65-1.26,1.25-2.6,2.69-3.92,4l-.18.08c-1.31.81-3.08,1-4.06,2.25,1.48-.08,2.21-1.26,3.43-1.29.49-.33,1-1,1.84-.74,0-.27-.22-.35-.47-.35,1.09-1.19,2.53-2.08,3.6-3.29.43.78,1.25,1.47,1.42,2.24a10.88,10.88,0,0,1-.75,3.14c-.2.39-.73.42-.78.74-.19,0-.15-.35-.37-.34-2.57.77-4.16,2.42-6.46,3.44,0-.37-.28-.45-.3-.83,2.47-1.07,4.62-2.43,7-3.59-1.53-.28-2.75.56-3.86,1.16s-2.25,1.36-3.25,2c-.32-.17-.39-.67-.55-1a59.24,59.24,0,0,0,5.93-2.89,13.34,13.34,0,0,0-6,2.58c-.5-.77-.84-1.72-1.31-2.53a9.15,9.15,0,0,1,2.25-.6c.51.11-.26.23.08.71,1.06,0,1.18-1.55,2.62-1.47,0-.22-.19-.21-.34-.23C179.7,215.43,181.42,214.55,182.55,213.15Zm-1.06,4.63a5.07,5.07,0,0,0,2.09-2.42A14.26,14.26,0,0,0,181.49,217.78Z"/><path class="cls-3" d="M162.38,211.44c.28.29.51,1.89-.23,1.79C162.24,212.65,161.89,211.67,162.38,211.44Z"/><path class="cls-3" d="M160.35,212.56a2.62,2.62,0,0,1-.06,1.71C160,213.71,160,212.78,160.35,212.56Z"/><path class="cls-3" d="M159.15,213.16a1.91,1.91,0,0,1-.08,1.6A4.82,4.82,0,0,1,159.15,213.16Z"/><path class="cls-3" d="M155.7,215.16c.22.23.35,1.06-.16.89,0-.16-.06-.39-.21-.42C155.31,215.34,155.7,215.42,155.7,215.16Z"/><path class="cls-3" d="M185.48,219.44c.22,1.91-.23,3.89,0,6a2.88,2.88,0,0,0-2.49-.32c.45.83,1.81.6,2.44.52,0,2.41-.08,4.75-.14,7.12-.3.08-1.51-.95-2.09-1.4-.31-2.21-1-4-2.34-5.14.89-1.63,2.16-2.94,2.72-4.87C184.45,221.25,185.05,220.25,185.48,219.44ZM182.66,227c.07.68.91.47.79.07C183,227.08,182.94,226.89,182.66,227Z"/><path class="cls-3" d="M180.74,222.83c.25,0,.14.09.15.22a4,4,0,0,0-1,1.42c-1.12-.2-1.76.69-2.4,1.19a2.15,2.15,0,0,1-.48-.75A14.16,14.16,0,0,0,180.74,222.83Z"/><path class="cls-3" d="M156.5,221.06c.86,1.88.76,3.46,1.64,5s2.52,2.67,3.76,3.86a46.12,46.12,0,0,1,6.4,7.51,10.42,10.42,0,0,0,1.58,4.36c-1.53.83-5.33-.38-6.56.72a1.34,1.34,0,0,0-1.72.45,11.19,11.19,0,0,0-7.64,1,51.15,51.15,0,0,1-2.79-5.37,19.35,19.35,0,0,0,1.73-3.86c.67,1,1.2,2.16,1.85,3.18,0,.4-.8.08-.6.65.31,1,1.1.59,1.51.64a2.36,2.36,0,0,1,.44,1.34c.49.12.34-.33.31-.67,1,.68,1.52-.27,1.32-.89a1.1,1.1,0,0,0-1.92-.37c-.35-1.47-2.28-3.25-2.54-4.75-.15-.85.72-2.35.95-3.13C155.12,227.65,155.88,224.06,156.5,221.06ZM160,234.94a1.38,1.38,0,0,0-1.67-.55C156.44,235.31,161.34,237.43,160,234.94Zm-4.27,1a1.06,1.06,0,0,0,1.38.13C157.16,234.92,155,234.62,155.71,236Zm5.95,3.75a7.38,7.38,0,0,0,.48-3.88.24.24,0,0,0-.23-.12C161.61,236.73,160.75,238.39,161.66,239.71Zm1.18.11a6.92,6.92,0,0,0,.67-3.87l-.29,0C163.2,237.28,162.29,238.22,162.84,239.82Zm1.18-.29c.55-.58.34-1.83.46-2.77C163.7,237.07,163.77,238.53,164,239.53Zm1.4.22c.66-.42.47-1.6.39-2.68l-.29,0A4.32,4.32,0,0,0,165.42,239.75Z"/><path class="cls-3" d="M179.18,226.21a1.66,1.66,0,0,1-.52,1.36c-.22-.15,0-.54-.31-.83C178.65,226.59,178.79,226.29,179.18,226.21Z"/><path class="cls-3" d="M180.08,227.1c1.44.82.92,2.79,1.65,4.26-.73-.19-1.34-.55-2-.79C180,229.55,179.86,228.18,180.08,227.1Z"/><path class="cls-3" d="M150.83,239.54c.83,1.7,1.74,3.29,2.59,5C152.41,243.19,150.86,241.24,150.83,239.54Z"/><path class="cls-3" d="M150.53,241.43c.77,1.09,1.28,2.52,2.06,3.6.08.38-.3.36-.56.45.26.46.41-.1.77,0,2.3,3.2,4.7,6.26,6.12,10.6-2.26-2-3.39-5.07-5.21-7.71-.55-.8-1.43-1.6-1.85-2.37C151.08,244.51,151.1,243,150.53,241.43Z"/><path class="cls-3" d="M153.77,245.14a6.64,6.64,0,0,1,1.28,2A8.27,8.27,0,0,1,153.77,245.14Z"/><path class="cls-3" d="M183.15,255.5a38.83,38.83,0,0,0-4.69.49C178.52,254.63,181.76,254.39,183.15,255.5Z"/><path class="cls-3" d="M177.81,254.93c.1.81-1,1.24-2,1.33C175.56,255.3,176.63,254.85,177.81,254.93Z"/><path class="cls-3" d="M174.71,255.25c.25.37-.53,1.17-1.24,1.2A1.5,1.5,0,0,1,174.71,255.25Z"/><path class="cls-3" d="M172.3,255.64c.18,1.21-3,.4-4.13.43C169.63,256,171,255.83,172.3,255.64Z"/><path class="cls-3" d="M174.45,210.41c0,.29-.54,1-1.15.81C173.56,210.83,174.14,210.75,174.45,210.41Z"/><path class="cls-3" d="M154.58,216.47c1.07,3-.1,4.89-.68,6.87l-1.47,4.89A77.74,77.74,0,0,1,154.58,216.47Z"/><path class="cls-3" d="M182.91,220.72c.15.53-.78.78-1.3,1C181.63,221.33,182.6,221.11,182.91,220.72Z"/><path class="cls-3" d="M177.8,223.78c.11-.07-.79.71-1,.61C176.9,224,177.42,223.94,177.8,223.78Z"/><path class="cls-3" d="M179.55,224.64c.32.45-.53.52-.65.85C178.74,225.18,179.46,225,179.55,224.64Z"/><path class="cls-3" d="M183.5,244.59c-.23,1.44-3.1,1.58-4.88,2.07s-2.9.9-4.49,1.31c.41.74,1.56.13,2.12,0,2-.53,4.3-1.25,6.18-1.86-.65,1.19-2.5,1-3.87,1.47a31.05,31.05,0,0,0-3.78,1.47c.63.63,1.32,0,1.8-.14a29.56,29.56,0,0,1,5.6-1.51c.36-.44,1.38-.29,1.74-.74-.25-.27-.73-.07-.86,0a13.82,13.82,0,0,1,2.52-3,5.34,5.34,0,0,1-1.38,4.1c-.53.59-1,1.5-1.58,1.77a14.36,14.36,0,0,1-2.11.41c-1.87.48-3.81,1.13-5.77,1.59,1,.57,2.72-.14,4.2-.53s2.55-1,3.83-.86c.42-.18.56-.61,1.2-.59-.21-.45,0-.67.33-1,.13.44-.19,1.15-.25,1.68-3.71.1-6.15,1.76-9.43,2-.15.18-.12.39.08.71-1.11,0-1.87.39-3,.43.68-1.53.66-3.7,1.39-5.2-.16-.31-.08.23-.36.07.17-3.18-2-6.93-2.5-10.37.76-.4,1-1.25,1.43-2,1.33,0,1.76-.86,2.54-1.39,2.23-.15,2.88-1.71,4.26-2.63,1.92.42,3.41,1.4,5.65,1.41,1.73,1.16,1.24,3.13,1.31,5.25.05,1.42.1,2.7.19,3.84-1,.86-1.28,2.35-3.39,2.21.1-.47.6-.57,1.19-.6.09-.27-.5-.32-.42-.14-.12-.43.34-1,1-1-.38-.67.3-.77.35-1.28a16.89,16.89,0,0,0-4.42.41c-.43-.74,1.77-1.18,2.84-.95-.4-.45-1.45-.29-1.9-.28-.33-.57,1-1,1.12-1.71a7.38,7.38,0,0,0-2.54,1.79c-2.29.23-4.05.92-6.37,1.13.24.53.91.39,1.16.41,1.57.06,3.11-.92,4.55-.7.39.7-.63.54-1,.61-1.26.27-3.06.66-4.27,1,.78.68,2,.3,2.83.15,2.41-.44,5.07-1.09,7.48-1.63-.38,1-2,.83-3.48,1.09-2.35.42-4.67,1.16-6.9,1.69.52.91,1.64.33,2.26.2,2.25-.44,4.68-1.15,6.7-1.71.42.2-.33.63-.46.87a29.66,29.66,0,0,0-7,1.48,6.88,6.88,0,0,0-1.91.84c1.45.23,2.79-.39,4.15-.74s2.83-.69,4.16-1c-2.45,1-5.44,1.54-7.94,2.5.71.62,1.54.14,2.12,0,1.9-.49,4-1.2,6-1.57C182.07,245,183,245,183.5,244.59Zm-1.94-10a5.59,5.59,0,0,0-3,1.54c-.57.46-1.44.88-1.39,1.79.63.3.91-.34,1.2-.59a15,15,0,0,1,2.38-1.7c.41-.24,1-.41,1.12-.9C181.84,234.58,181.7,234.57,181.56,234.56ZM175,236c0-.12.1-.19-.15-.21-.58.69-2.17.5-2.29,1.6C173.63,237.16,174.07,236.36,175,236Zm7.1,1a4.62,4.62,0,0,0-2.52,1.48c-.51.49-1.25,1-1.28,1.8.91,0,1.43-.86,2.05-1.42a6,6,0,0,1,2.1-1.62C182.28,237.22,182.22,237.07,182.08,237Zm-7.68,2.43c.8,0,.94-1.38.6-1.86C174.87,238.28,174,238.25,174.4,239.45Zm-1.47.27c.82-.24.89-1.17,1.16-1.9C173.17,238,172.87,238.68,172.93,239.72Zm1.2,10.56c1.77.49,3.26-.21,4.67-.59.71-.19,1.48-.38,2.16-.61a7.11,7.11,0,0,0,1.91-.83A26.38,26.38,0,0,0,174.13,250.28Z"/><path class="cls-3" d="M163.26,243.78c-1.33,1.43-2.89,2.67-3.79,4.48.64.05.85-.65,1.19-1l1.14-1.21a6.72,6.72,0,0,1,2.66-2.07c.28.32-.17.52-.31.68-1.29,1.4-3.08,3-3.76,5,1.82-1.84,3.42-3.88,5.33-5.65a2.16,2.16,0,0,0,1,0c-1.62,2-3.66,3.61-5,5.89.72-.16,1.11-.85,1.58-1.36,1.4-1.56,3.09-3.11,4.5-4.72.57,0,.71-.33,1.41-.18a33,33,0,0,0-5.52,6.44c2.44-2.17,4.62-5,6.79-7.13,0,.8.68,1.73.64,2.57,0,.49-1,1.19-1.34,1.59A25.89,25.89,0,0,0,166,252c2-1.62,3.49-4.19,5.3-5.75l.33,1.34a16.87,16.87,0,0,0-2.38,2.4,6.77,6.77,0,0,0-1.89,2.84c1.11-.17,1.49-1.49,2.21-2.31a13,13,0,0,1,2.24-2.22c0,.86-.7,1.36-1.16,1.91s-1.17,1-1.08,1.81c.95-.1,1.23-1.5,2-2,.21,1.07-.28,2.19-.09,3.51-4.09.44-8.67.44-11.54,2-1.78-3.52-3.37-7.27-5.34-10.53.73-2,5.56-.6,8.09-.78C163.07,244.19,162.86,243.71,163.26,243.78Zm7.24.85c.1,0,.05-.12-.13-.12a25.84,25.84,0,0,0-5.08,5.48,4.16,4.16,0,0,0-1.18,2.2C166.34,249.76,168.51,247.27,170.5,244.63Zm-10.85,2c-.47.93-2.36,1.7-1.74,3.06a18.35,18.35,0,0,0,2-3Z"/><path class="cls-3" d="M183.64,250.53c.51.51-.68.81-.6,1.45.4.72.54-.62.76,0a3.47,3.47,0,0,0-.28,1.18c-1.09,0-2-.26-3.07-.38.14-.32.68-.29.8-.63a24.26,24.26,0,0,1-4.84.67C178.68,251.92,181.5,251.53,183.64,250.53Z"/><path class="cls-2" d="M177.5,243a13.44,13.44,0,0,1,0-3.07c-.19-.05-.11-.14-.13-.22a6.79,6.79,0,0,1,0-1.09c0-.67.17-1.33.18-2.09,0-1.89-.12-3.91,0-5.71,0-.4,0-.81,0-1.13s.14-.41.19-.63.19-.42.14-.68a3.6,3.6,0,0,0-.56-1c-.25-.4-.41-.78-.58-1.06a12.76,12.76,0,0,0-1.08-1.35c-.35-.44-.84-1.11-1.35-1.06-.05,0-.05.07-.09.08s0,0,0,0a7.17,7.17,0,0,0-3.15.45c-.33.1-.68.2-1,.31a15.74,15.74,0,0,0-3.46,1.72c-.53.33-1.38.4-1.86.76-.08.06-.15.23-.26.34s-.28.15-.37.25a4.28,4.28,0,0,0-.49,1.29c-.73,2.34-.77,5.06-1.52,7.39a18.71,18.71,0,0,0-.51,2.14,1.78,1.78,0,0,0-.06.84,8.33,8.33,0,0,0,1.32,2,20.08,20.08,0,0,1,2.06,2.82,8.94,8.94,0,0,0,.58,1.39,3,3,0,0,0,1,.29c.22,0,.35-.17.54-.2a11,11,0,0,1,1.54,0,26.76,26.76,0,0,0,4.59-.28c.89-.11,1.7-.24,2.72-.28a8.68,8.68,0,0,1,1-.07c.28.05.71.37,1,.17S177.56,243.65,177.5,243Z"/><path class="cls-3" d="M175.37,241.09a8.85,8.85,0,0,1,0-2.14c-.14,0-.08-.09-.09-.14a4.06,4.06,0,0,1,0-.77c0-.46.12-.91.12-1.45,0-1.31-.08-2.71,0-4,0-.28,0-.56,0-.79s.09-.28.13-.44.13-.28.1-.47a2.67,2.67,0,0,0-.39-.71c-.18-.27-.29-.54-.41-.73a10.12,10.12,0,0,0-.74-.94c-.25-.3-.59-.77-.94-.73,0,0,0,0-.07.05s0,0,0,0a5,5,0,0,0-2.18.31l-.7.22a11,11,0,0,0-2.4,1.19c-.37.23-1,.28-1.29.53-.06.05-.1.16-.19.24s-.19.1-.25.17a2.91,2.91,0,0,0-.34.9c-.51,1.62-.54,3.51-1.06,5.13a13.11,13.11,0,0,0-.35,1.49,1.2,1.2,0,0,0-.05.58,6.18,6.18,0,0,0,.92,1.41A13.16,13.16,0,0,1,166.6,242a6.29,6.29,0,0,0,.41,1,2.18,2.18,0,0,0,.69.2c.15,0,.24-.12.38-.14a7.49,7.49,0,0,1,1.07,0,18.84,18.84,0,0,0,3.18-.2c.62-.07,1.18-.16,1.9-.19a3.92,3.92,0,0,1,.65,0c.2,0,.49.25.68.12S175.41,241.51,175.37,241.09Z"/><path class="cls-2" d="M185.75,257.05c.7.11,1.76.91,2.41.42s-.52-4.27-.68-5.79a32.87,32.87,0,0,1,.12-7.63c-.49-.12-.29-.33-.32-.53a15,15,0,0,1-.11-2.72c.08-1.65.42-3.29.44-5.19,0-4.68-.28-9.71-.08-14.17,0-1-.05-2,.06-2.81.07-.51.35-1,.48-1.57s.47-1,.35-1.68a8.76,8.76,0,0,0-1.41-2.53c-.61-1-1-1.94-1.43-2.64a31.3,31.3,0,0,0-2.67-3.35c-.89-1.09-2.09-2.75-3.35-2.62-.14,0-.13.16-.25.18s0,.12-.07.1a17.45,17.45,0,0,0-7.81,1.1c-.83.26-1.69.51-2.5.78a38.73,38.73,0,0,0-8.57,4.26c-1.32.82-3.44,1-4.62,1.89-.21.16-.36.57-.66.85s-.69.36-.9.62a10,10,0,0,0-1.22,3.21c-1.82,5.8-1.92,12.55-3.78,18.35a43.17,43.17,0,0,0-1.27,5.31,4.66,4.66,0,0,0-.15,2.09c.44,1.56,2.19,3.52,3.28,5,1.9,2.62,3.73,4.18,5.12,7,.36.72.94,3,1.44,3.44a7.38,7.38,0,0,0,2.49.72c.54,0,.86-.41,1.33-.48a25.18,25.18,0,0,1,3.84-.06,68.7,68.7,0,0,0,11.39-.69c2.21-.27,4.2-.6,6.75-.69A15.94,15.94,0,0,1,185.75,257.05Z"/><path class="cls-3" d="M180.1,207.61c.27,0,0-.53.49-.36,1.12,1.13,2,2.55,3.22,3.61.11,1.81,2.56,2.84,2.9,4.28.1.43-.2,1.1-.41,1.06-.48-.06-1.23-1.76-1.53-2.25C183.37,211.67,181.48,209.57,180.1,207.61Z"/><path class="cls-3" d="M179.15,208a.45.45,0,0,1,.25.22c0,.8-1,1.18-1.61,1.67-1.23,1-2.59,2-3.76,3.08-.56.54-.91,1.35-1.76,1.44-.08-.9.76-1.31,1.29-1.79C175.25,211.09,177.31,209.51,179.15,208Z"/><path class="cls-3" d="M173.71,208.24c-2.16.71-3.75,1.94-6,2.58a3.75,3.75,0,0,0-.19-1.53C169.6,209,171.57,208.52,173.71,208.24Z"/><path class="cls-3" d="M180.27,209.43a85.06,85.06,0,0,0-7.36,6c-.15-1,.84-1.26,1.4-1.69,1.77-1.36,3.65-3,5.47-4.33,0-.11.17,0,.14-.19C180.06,209.25,180.13,209.4,180.27,209.43Z"/><path class="cls-3" d="M180.9,210.39a63.41,63.41,0,0,0-6.51,5.55c-.23.24-.39.76-.91.62-.5-.65.14-.82.41-1.06,2-1.8,4.57-3.69,6.51-5.55C180.72,209.9,180.65,210.34,180.9,210.39Z"/><path class="cls-3" d="M167.08,209.45c.32.48.24,2-.56,2C166.15,210.58,166.29,209.52,167.08,209.45Z"/><path class="cls-3" d="M181.37,211.14c.35.6-.34.84-.6,1.05a70.68,70.68,0,0,0-6.62,5.84c-.61-.85.6-1.89,1.23-2.4,1.83-1.52,4.38-3.12,5.78-4.61A.2.2,0,0,1,181.37,211.14Z"/><path class="cls-3" d="M165.59,210c.19.68.26,1.93-.7,1.84a8.39,8.39,0,0,0,0-1.51C165.06,210.19,165.49,210.25,165.59,210Z"/><path class="cls-3" d="M172.93,211.29c.17,0,.23.11.13.1-.08,1.48-1.6,1.65-1.87,3,0,.38.39.24.5.45-.1.85.79,1.48.25,2.13.23.32.46-.12.61.16,1.7,3.49,2.21,8.48,4.9,10.69a8.28,8.28,0,0,1,.14,1.72c-2.49,1.59-6.15,2.14-7.23,5-.63.15-.9.63-1.42.88a4.54,4.54,0,0,0-1.18-.11c-2.16-4.27-5.82-6.63-8.68-10-.71-2.06-1.16-4.49-2-6.4,1.67-2.14,4.8-2.89,7.59-3.94A74.94,74.94,0,0,0,172.93,211.29ZM170.18,218c.53-.11.9-.36.56-1.26C169.58,215.71,169.21,217.17,170.18,218Zm-2.68,2.37a1,1,0,0,0-1.24-.71C164.42,220.12,168.3,222.54,167.5,220.34Zm2.1,1.5c-.33-.12-.26.13-.44.15a1.49,1.49,0,0,0,.67,1.17c1.44.27,1-1.63-.11-2C169.32,221.11,169.38,221.51,169.6,221.84Zm-4.88,1.26c.38-.07.31-.74,0-1.2-.08,0-.2,0-.22-.13C163.36,221.48,163.89,223.09,164.72,223.1Zm-4.24.73c.59-.58,1.36-1,1.53-2C160.79,221.88,160.79,223,160.48,223.83Zm1.11,1c1.33-.17,1.65-1.23,2.17-2.12C162.49,222.63,161.93,223.83,161.59,224.84Zm.83,1.38a6,6,0,0,0,2.66-2.48A2.79,2.79,0,0,0,162.42,226.22Zm1.23.31c1.24-.12,1.66-.95,2.3-1.6a.45.45,0,0,0-.28-.33C165,225.27,164.24,225.81,163.65,226.53Zm5.94,2.54c.37.39,1,.45,1.18.1a2.61,2.61,0,0,0-.31-.83C169.81,228,169.17,228.19,169.59,229.07Zm-.87,1.13c-.06-.66-.67-.72-1-1.3C164.35,228.05,168.9,232.4,168.72,230.2Zm-.86,2.33c.69-.17.71-.95,1-1.52C168.29,231.34,167.6,231.5,167.86,232.53Zm.52,1a3.24,3.24,0,0,0,1.53-2C169,231.48,168.31,232.66,168.38,233.49Z"/><path class="cls-3" d="M181.9,212.09c.23,0,.18.31.37.33-2.11,1.83-3.55,4.25-6.58,5.24a3.49,3.49,0,0,1,1.26-1.5A47.16,47.16,0,0,0,181.9,212.09Z"/><path class="cls-3" d="M164,210.69c.16.61.34,1.94-.59,1.85,0-.45,0-1,0-1.5C163.61,210.9,163.91,210.88,164,210.69Z"/><path class="cls-3" d="M182.55,213.15c.28.11.36.45.55.65-1.26,1.25-2.6,2.69-3.92,4l-.18.08c-1.31.81-3.08,1-4.06,2.25,1.48-.08,2.21-1.26,3.43-1.29.49-.33,1-1,1.84-.74,0-.27-.22-.35-.47-.35,1.09-1.19,2.53-2.08,3.6-3.29.43.78,1.25,1.47,1.42,2.24a10.88,10.88,0,0,1-.75,3.14c-.2.39-.73.42-.78.74-.19,0-.15-.35-.37-.34-2.57.77-4.16,2.42-6.46,3.44,0-.37-.28-.45-.3-.83,2.47-1.07,4.62-2.43,7-3.59-1.53-.28-2.75.56-3.86,1.16s-2.25,1.36-3.25,2c-.32-.17-.39-.67-.55-1a59.24,59.24,0,0,0,5.93-2.89,13.34,13.34,0,0,0-6,2.58c-.5-.77-.84-1.72-1.31-2.53a9.15,9.15,0,0,1,2.25-.6c.51.11-.26.23.08.71,1.06,0,1.18-1.55,2.62-1.47,0-.22-.19-.21-.34-.23C179.7,215.43,181.42,214.55,182.55,213.15Zm-1.06,4.63a5.07,5.07,0,0,0,2.09-2.42A14.26,14.26,0,0,0,181.49,217.78Z"/><path class="cls-3" d="M162.38,211.44c.28.29.51,1.89-.23,1.79C162.24,212.65,161.89,211.67,162.38,211.44Z"/><path class="cls-3" d="M160.35,212.56a2.62,2.62,0,0,1-.06,1.71C160,213.71,160,212.78,160.35,212.56Z"/><path class="cls-3" d="M159.15,213.16a1.91,1.91,0,0,1-.08,1.6A4.82,4.82,0,0,1,159.15,213.16Z"/><path class="cls-3" d="M155.7,215.16c.22.23.35,1.06-.16.89,0-.16-.06-.39-.21-.42C155.31,215.34,155.7,215.42,155.7,215.16Z"/><path class="cls-3" d="M185.48,219.44c.22,1.91-.23,3.89,0,6a2.88,2.88,0,0,0-2.49-.32c.45.83,1.81.6,2.44.52,0,2.41-.08,4.75-.14,7.12-.3.08-1.51-.95-2.09-1.4-.31-2.21-1-4-2.34-5.14.89-1.63,2.16-2.94,2.72-4.87C184.45,221.25,185.05,220.25,185.48,219.44ZM182.66,227c.07.68.91.47.79.07C183,227.08,182.94,226.89,182.66,227Z"/><path class="cls-3" d="M180.74,222.83c.25,0,.14.09.15.22a4,4,0,0,0-1,1.42c-1.12-.2-1.76.69-2.4,1.19a2.15,2.15,0,0,1-.48-.75A14.16,14.16,0,0,0,180.74,222.83Z"/><path class="cls-3" d="M156.5,221.06c.86,1.88.76,3.46,1.64,5s2.52,2.67,3.76,3.86a46.12,46.12,0,0,1,6.4,7.51,10.42,10.42,0,0,0,1.58,4.36c-1.53.83-5.33-.38-6.56.72a1.34,1.34,0,0,0-1.72.45,11.19,11.19,0,0,0-7.64,1,51.15,51.15,0,0,1-2.79-5.37,19.35,19.35,0,0,0,1.73-3.86c.67,1,1.2,2.16,1.85,3.18,0,.4-.8.08-.6.65.31,1,1.1.59,1.51.64a2.36,2.36,0,0,1,.44,1.34c.49.12.34-.33.31-.67,1,.68,1.52-.27,1.32-.89a1.1,1.1,0,0,0-1.92-.37c-.35-1.47-2.28-3.25-2.54-4.75-.15-.85.72-2.35.95-3.13C155.12,227.65,155.88,224.06,156.5,221.06ZM160,234.94a1.38,1.38,0,0,0-1.67-.55C156.44,235.31,161.34,237.43,160,234.94Zm-4.27,1a1.06,1.06,0,0,0,1.38.13C157.16,234.92,155,234.62,155.71,236Zm5.95,3.75a7.38,7.38,0,0,0,.48-3.88.24.24,0,0,0-.23-.12C161.61,236.73,160.75,238.39,161.66,239.71Zm1.18.11a6.92,6.92,0,0,0,.67-3.87l-.29,0C163.2,237.28,162.29,238.22,162.84,239.82Zm1.18-.29c.55-.58.34-1.83.46-2.77C163.7,237.07,163.77,238.53,164,239.53Zm1.4.22c.66-.42.47-1.6.39-2.68l-.29,0A4.32,4.32,0,0,0,165.42,239.75Z"/><path class="cls-3" d="M179.18,226.21a1.66,1.66,0,0,1-.52,1.36c-.22-.15,0-.54-.31-.83C178.65,226.59,178.79,226.29,179.18,226.21Z"/><path class="cls-3" d="M180.08,227.1c1.44.82.92,2.79,1.65,4.26-.73-.19-1.34-.55-2-.79C180,229.55,179.86,228.18,180.08,227.1Z"/><path class="cls-3" d="M150.83,239.54c.83,1.7,1.74,3.29,2.59,5C152.41,243.19,150.86,241.24,150.83,239.54Z"/><path class="cls-3" d="M150.53,241.43c.77,1.09,1.28,2.52,2.06,3.6.08.38-.3.36-.56.45.26.46.41-.1.77,0,2.3,3.2,4.7,6.26,6.12,10.6-2.26-2-3.39-5.07-5.21-7.71-.55-.8-1.43-1.6-1.85-2.37C151.08,244.51,151.1,243,150.53,241.43Z"/><path class="cls-3" d="M153.77,245.14a6.64,6.64,0,0,1,1.28,2A8.27,8.27,0,0,1,153.77,245.14Z"/><path class="cls-3" d="M183.15,255.5a38.83,38.83,0,0,0-4.69.49C178.52,254.63,181.76,254.39,183.15,255.5Z"/><path class="cls-3" d="M177.81,254.93c.1.81-1,1.24-2,1.33C175.56,255.3,176.63,254.85,177.81,254.93Z"/><path class="cls-3" d="M174.71,255.25c.25.37-.53,1.17-1.24,1.2A1.5,1.5,0,0,1,174.71,255.25Z"/><path class="cls-3" d="M172.3,255.64c.18,1.21-3,.4-4.13.43C169.63,256,171,255.83,172.3,255.64Z"/><path class="cls-3" d="M174.45,210.41c0,.29-.54,1-1.15.81C173.56,210.83,174.14,210.75,174.45,210.41Z"/><path class="cls-3" d="M154.58,216.47c1.07,3-.1,4.89-.68,6.87l-1.47,4.89A77.74,77.74,0,0,1,154.58,216.47Z"/><path class="cls-3" d="M182.91,220.72c.15.53-.78.78-1.3,1C181.63,221.33,182.6,221.11,182.91,220.72Z"/><path class="cls-3" d="M177.8,223.78c.11-.07-.79.71-1,.61C176.9,224,177.42,223.94,177.8,223.78Z"/><path class="cls-3" d="M179.55,224.64c.32.45-.53.52-.65.85C178.74,225.18,179.46,225,179.55,224.64Z"/><path class="cls-3" d="M183.5,244.59c-.23,1.44-3.1,1.58-4.88,2.07s-2.9.9-4.49,1.31c.41.74,1.56.13,2.12,0,2-.53,4.3-1.25,6.18-1.86-.65,1.19-2.5,1-3.87,1.47a31.05,31.05,0,0,0-3.78,1.47c.63.63,1.32,0,1.8-.14a29.56,29.56,0,0,1,5.6-1.51c.36-.44,1.38-.29,1.74-.74-.25-.27-.73-.07-.86,0a13.82,13.82,0,0,1,2.52-3,5.34,5.34,0,0,1-1.38,4.1c-.53.59-1,1.5-1.58,1.77a14.36,14.36,0,0,1-2.11.41c-1.87.48-3.81,1.13-5.77,1.59,1,.57,2.72-.14,4.2-.53s2.55-1,3.83-.86c.42-.18.56-.61,1.2-.59-.21-.45,0-.67.33-1,.13.44-.19,1.15-.25,1.68-3.71.1-6.15,1.76-9.43,2-.15.18-.12.39.08.71-1.11,0-1.87.39-3,.43.68-1.53.66-3.7,1.39-5.2-.16-.31-.08.23-.36.07.17-3.18-2-6.93-2.5-10.37.76-.4,1-1.25,1.43-2,1.33,0,1.76-.86,2.54-1.39,2.23-.15,2.88-1.71,4.26-2.63,1.92.42,3.41,1.4,5.65,1.41,1.73,1.16,1.24,3.13,1.31,5.25.05,1.42.1,2.7.19,3.84-1,.86-1.28,2.35-3.39,2.21.1-.47.6-.57,1.19-.6.09-.27-.5-.32-.42-.14-.12-.43.34-1,1-1-.38-.67.3-.77.35-1.28a16.89,16.89,0,0,0-4.42.41c-.43-.74,1.77-1.18,2.84-.95-.4-.45-1.45-.29-1.9-.28-.33-.57,1-1,1.12-1.71a7.38,7.38,0,0,0-2.54,1.79c-2.29.23-4.05.92-6.37,1.13.24.53.91.39,1.16.41,1.57.06,3.11-.92,4.55-.7.39.7-.63.54-1,.61-1.26.27-3.06.66-4.27,1,.78.68,2,.3,2.83.15,2.41-.44,5.07-1.09,7.48-1.63-.38,1-2,.83-3.48,1.09-2.35.42-4.67,1.16-6.9,1.69.52.91,1.64.33,2.26.2,2.25-.44,4.68-1.15,6.7-1.71.42.2-.33.63-.46.87a29.66,29.66,0,0,0-7,1.48,6.88,6.88,0,0,0-1.91.84c1.45.23,2.79-.39,4.15-.74s2.83-.69,4.16-1c-2.45,1-5.44,1.54-7.94,2.5.71.62,1.54.14,2.12,0,1.9-.49,4-1.2,6-1.57C182.07,245,183,245,183.5,244.59Zm-1.94-10a5.59,5.59,0,0,0-3,1.54c-.57.46-1.44.88-1.39,1.79.63.3.91-.34,1.2-.59a15,15,0,0,1,2.38-1.7c.41-.24,1-.41,1.12-.9C181.84,234.58,181.7,234.57,181.56,234.56ZM175,236c0-.12.1-.19-.15-.21-.58.69-2.17.5-2.29,1.6C173.63,237.16,174.07,236.36,175,236Zm7.1,1a4.62,4.62,0,0,0-2.52,1.48c-.51.49-1.25,1-1.28,1.8.91,0,1.43-.86,2.05-1.42a6,6,0,0,1,2.1-1.62C182.28,237.22,182.22,237.07,182.08,237Zm-7.68,2.43c.8,0,.94-1.38.6-1.86C174.87,238.28,174,238.25,174.4,239.45Zm-1.47.27c.82-.24.89-1.17,1.16-1.9C173.17,238,172.87,238.68,172.93,239.72Zm1.2,10.56c1.77.49,3.26-.21,4.67-.59.71-.19,1.48-.38,2.16-.61a7.11,7.11,0,0,0,1.91-.83A26.38,26.38,0,0,0,174.13,250.28Z"/><path class="cls-3" d="M163.26,243.78c-1.33,1.43-2.89,2.67-3.79,4.48.64.05.85-.65,1.19-1l1.14-1.21a6.72,6.72,0,0,1,2.66-2.07c.28.32-.17.52-.31.68-1.29,1.4-3.08,3-3.76,5,1.82-1.84,3.42-3.88,5.33-5.65a2.16,2.16,0,0,0,1,0c-1.62,2-3.66,3.61-5,5.89.72-.16,1.11-.85,1.58-1.36,1.4-1.56,3.09-3.11,4.5-4.72.57,0,.71-.33,1.41-.18a33,33,0,0,0-5.52,6.44c2.44-2.17,4.62-5,6.79-7.13,0,.8.68,1.73.64,2.57,0,.49-1,1.19-1.34,1.59A25.89,25.89,0,0,0,166,252c2-1.62,3.49-4.19,5.3-5.75l.33,1.34a16.87,16.87,0,0,0-2.38,2.4,6.77,6.77,0,0,0-1.89,2.84c1.11-.17,1.49-1.49,2.21-2.31a13,13,0,0,1,2.24-2.22c0,.86-.7,1.36-1.16,1.91s-1.17,1-1.08,1.81c.95-.1,1.23-1.5,2-2,.21,1.07-.28,2.19-.09,3.51-4.09.44-8.67.44-11.54,2-1.78-3.52-3.37-7.27-5.34-10.53.73-2,5.56-.6,8.09-.78C163.07,244.19,162.86,243.71,163.26,243.78Zm7.24.85c.1,0,.05-.12-.13-.12a25.84,25.84,0,0,0-5.08,5.48,4.16,4.16,0,0,0-1.18,2.2C166.34,249.76,168.51,247.27,170.5,244.63Zm-10.85,2c-.47.93-2.36,1.7-1.74,3.06a18.35,18.35,0,0,0,2-3Z"/><path class="cls-3" d="M183.64,250.53c.51.51-.68.81-.6,1.45.4.72.54-.62.76,0a3.47,3.47,0,0,0-.28,1.18c-1.09,0-2-.26-3.07-.38.14-.32.68-.29.8-.63a24.26,24.26,0,0,1-4.84.67C178.68,251.92,181.5,251.53,183.64,250.53Z"/><path class="cls-2" d="M177.5,243a13.44,13.44,0,0,1,0-3.07c-.19-.05-.11-.14-.13-.22a6.79,6.79,0,0,1,0-1.09c0-.67.17-1.33.18-2.09,0-1.89-.12-3.91,0-5.71,0-.4,0-.81,0-1.13s.14-.41.19-.63.19-.42.14-.68a3.6,3.6,0,0,0-.56-1c-.25-.4-.41-.78-.58-1.06a12.76,12.76,0,0,0-1.08-1.35c-.35-.44-.84-1.11-1.35-1.06-.05,0-.05.07-.09.08s0,0,0,0a7.17,7.17,0,0,0-3.15.45c-.33.1-.68.2-1,.31a15.74,15.74,0,0,0-3.46,1.72c-.53.33-1.38.4-1.86.76-.08.06-.15.23-.26.34s-.28.15-.37.25a4.28,4.28,0,0,0-.49,1.29c-.73,2.34-.77,5.06-1.52,7.39a18.71,18.71,0,0,0-.51,2.14,1.78,1.78,0,0,0-.06.84,8.33,8.33,0,0,0,1.32,2,20.08,20.08,0,0,1,2.06,2.82,8.94,8.94,0,0,0,.58,1.39,3,3,0,0,0,1,.29c.22,0,.35-.17.54-.2a11,11,0,0,1,1.54,0,26.76,26.76,0,0,0,4.59-.28c.89-.11,1.7-.24,2.72-.28a8.68,8.68,0,0,1,1-.07c.28.05.71.37,1,.17S177.56,243.65,177.5,243Z"/><path class="cls-3" d="M175.37,241.09a8.85,8.85,0,0,1,0-2.14c-.14,0-.08-.09-.09-.14a4.06,4.06,0,0,1,0-.77c0-.46.12-.91.12-1.45,0-1.31-.08-2.71,0-4,0-.28,0-.56,0-.79s.09-.28.13-.44.13-.28.1-.47a2.67,2.67,0,0,0-.39-.71c-.18-.27-.29-.54-.41-.73a10.12,10.12,0,0,0-.74-.94c-.25-.3-.59-.77-.94-.73,0,0,0,0-.07.05s0,0,0,0a5,5,0,0,0-2.18.31l-.7.22a11,11,0,0,0-2.4,1.19c-.37.23-1,.28-1.29.53-.06.05-.1.16-.19.24s-.19.1-.25.17a2.91,2.91,0,0,0-.34.9c-.51,1.62-.54,3.51-1.06,5.13a13.11,13.11,0,0,0-.35,1.49,1.2,1.2,0,0,0-.05.58,6.18,6.18,0,0,0,.92,1.41A13.16,13.16,0,0,1,166.6,242a6.29,6.29,0,0,0,.41,1,2.18,2.18,0,0,0,.69.2c.15,0,.24-.12.38-.14a7.49,7.49,0,0,1,1.07,0,18.84,18.84,0,0,0,3.18-.2c.62-.07,1.18-.16,1.9-.19a3.92,3.92,0,0,1,.65,0c.2,0,.49.25.68.12S175.41,241.51,175.37,241.09Z"/><path class="cls-2" d="M257.31,186c-.22.85-1.32,2.06-.79,2.92.63,1,5.3-.15,7.2-.16a40.46,40.46,0,0,1,9.36,1c.21-.59.45-.32.7-.34a19.16,19.16,0,0,1,3.36.18c2,.3,4,.91,6.33,1.15,5.75.57,12,.78,17.44,1.54,1.21.17,2.46.18,3.45.41.61.14,1.21.54,1.87.77s1.21.7,2,.62a10.92,10.92,0,0,0,3.28-1.43c1.28-.64,2.51-1,3.41-1.46a39.46,39.46,0,0,0,4.44-2.9c1.44-1,3.61-2.24,3.6-3.81,0-.17-.18-.17-.19-.32-.08,0-.15,0-.11-.1.88-4,.08-7.11-.45-9.73-.22-1-.43-2.14-.67-3.17a47.22,47.22,0,0,0-4.24-11c-.86-1.73-.82-4.35-1.79-5.91-.17-.27-.66-.51-1-.9s-.36-.9-.66-1.19c-.88-.88-2.49-1.32-3.8-1.87-6.92-2.92-15.22-3.82-22.13-6.79a57.13,57.13,0,0,0-6.38-2.18,5.72,5.72,0,0,0-2.56-.42c-2,.36-4.58,2.28-6.55,3.45-3.43,2-5.56,4.1-9.19,5.49-.93.36-3.78.81-4.4,1.37a9.06,9.06,0,0,0-1.18,3c-.07.66.41,1.1.44,1.69a31,31,0,0,1-.38,4.72,85.14,85.14,0,0,0-.47,14.09c.08,2.76.25,5.25.07,8.39A20.88,20.88,0,0,1,257.31,186Z"/><path class="cls-3" d="M318.78,184.78c0,.33.64.08.38.64-1.52,1.25-3.37,2.21-4.81,3.54-2.24-.08-3.79,2.81-5.6,3.07-.54.08-1.33-.37-1.26-.63.13-.58,2.31-1.31,2.94-1.62C313.41,188.33,316.2,186.24,318.78,184.78Z"/><path class="cls-3" d="M318.38,183.56a.65.65,0,0,1-.31.28c-1,0-1.34-1.36-1.86-2.18-1-1.61-2.11-3.4-3.35-5-.6-.76-1.57-1.29-1.58-2.34,1.12,0,1.52,1.09,2.06,1.8C315.06,178.41,316.77,181.13,318.38,183.56Z"/><path class="cls-3" d="M318.74,176.85c-.62-2.75-1.95-4.85-2.47-7.68a4.86,4.86,0,0,0,1.9-.06C318.34,171.7,318.65,174.18,318.74,176.85Z"/><path class="cls-3" d="M316.52,184.78c-1.82-3.44-4.44-6.73-6.5-9.76,1.21-.07,1.45,1.19,1.91,1.93,1.47,2.32,3.26,4.83,4.7,7.22.13,0,0,.22.22.2C316.77,184.54,316.58,184.6,316.52,184.78Z"/><path class="cls-3" d="M315.26,185.43c-1.94-2.86-3.72-6-6.06-8.65-.27-.3-.9-.57-.67-1.18.87-.54,1,.26,1.27.63,2,2.64,4,6,6.06,8.65C315.89,185.27,315.36,185.14,315.26,185.43Z"/><path class="cls-3" d="M318,168.55c-.64.33-2.44.06-2.35-.92C316.74,167.27,318,167.57,318,168.55Z"/><path class="cls-3" d="M314.29,185.93c-.78.35-1-.52-1.23-.86a86.73,86.73,0,0,0-6.41-8.83c1.12-.64,2.26,1,2.81,1.8,1.66,2.43,3.33,5.75,5,7.64A.25.25,0,0,1,314.29,185.93Z"/><path class="cls-3" d="M317.49,166.64c-.87.17-2.41.1-2.19-1.07a10.43,10.43,0,0,0,1.86.19C317.35,166,317.23,166.5,317.49,166.64Z"/><path class="cls-3" d="M315.09,175.53c0,.21-.17.27-.15.14-1.8-.27-1.84-2.15-3.41-2.63-.46,0-.33.45-.61.56-1-.23-1.9.8-2.65.05-.41.25.1.59-.26.74-4.49,1.68-10.69,1.73-13.71,4.78a10,10,0,0,1-2.14,0c-1.67-3.24-1.92-7.8-5.29-9.47-.11-.79-.67-1.17-.91-1.84a5.43,5.43,0,0,0,.26-1.44c5.52-2.16,8.84-6.39,13.34-9.51,2.62-.64,5.65-.91,8.11-1.71,2.43,2.31,3,6.24,4,9.79A88.5,88.5,0,0,0,315.09,175.53Zm-7.91-4.16c.08.67.34,1.15,1.49.83C310,170.89,308.28,170.27,307.18,171.37Zm-2.6-3.57a1.24,1.24,0,0,0,1-1.45C305.22,164,301.79,168.52,304.58,167.8Zm-2.08,2.41c.18-.4-.14-.34-.14-.56a1.81,1.81,0,0,0-1.51.69c-.51,1.74,1.89,1.38,2.49.09C303.42,169.94,302.93,170,302.5,170.21Zm-1-6.15c.05.48.87.47,1.48.13.05-.1.05-.24.18-.26C303.67,162.58,301.61,163,301.51,164.06Zm-.4-5.3c.65.79,1.08,1.79,2.24,2.11C303.47,159.37,302.1,159.23,301.11,158.76ZM299.74,160c.05,1.65,1.32,2.17,2.35,2.91C302.35,161.37,300.94,160.54,299.74,160Zm-1.79.86a7.31,7.31,0,0,0,2.73,3.55A3.43,3.43,0,0,0,298,160.87Zm-.53,1.48c0,1.53,1,2.15,1.7,3a.54.54,0,0,0,.43-.3C298.8,164.2,298.23,163.16,297.42,162.35Zm-3.81,7c-.53.41-.68,1.18-.27,1.44a3.22,3.22,0,0,0,1.06-.28C294.87,169.75,294.74,168.94,293.61,169.35Zm-1.29-1.2c.81,0,1-.74,1.71-1.08C295.46,163,289.58,168.12,292.32,168.15Zm-2.77-1.33c.13.87,1.08,1,1.76,1.37C291,167.5,290.84,166.62,289.55,166.82Zm-1.24.54a4,4,0,0,0,2.25,2.11C290.71,168.39,289.33,167.36,288.31,167.36Z"/><path class="cls-3" d="M313.06,186.47c0,.28-.4.19-.46.42-2-2.81-4.8-4.86-5.67-8.71a4.49,4.49,0,0,1,1.7,1.73C310,182,311.38,184.61,313.06,186.47Z"/><path class="cls-3" d="M316.86,164.64c-.78.12-2.43.19-2.21-.95.55.12,1.25.12,1.85.19C316.65,164.11,316.63,164.49,316.86,164.64Z"/><path class="cls-3" d="M311.68,187.15c-.17.32-.6.39-.87.6-1.39-1.71-3-3.51-4.42-5.29a1.27,1.27,0,0,1-.08-.23c-.84-1.7-.89-3.9-2.3-5.25-.07,1.83,1.29,2.86,1.2,4.37.34.64,1.14,1.3.69,2.34.33,0,.46-.23.48-.54,1.34,1.49,2.26,3.36,3.63,4.82-1,.44-2,1.37-2.91,1.49a13.54,13.54,0,0,1-3.78-1.29c-.46-.29-.43-.95-.82-1,.06-.22.45-.14.46-.41-.65-3.26-2.5-5.4-3.48-8.35.46,0,.59-.29,1-.28,1,3.17,2.45,6,3.61,9,.52-1.84-.37-3.45-1-4.87s-1.41-2.93-2.1-4.23c.24-.38.87-.41,1.36-.56a73.16,73.16,0,0,0,2.86,7.62,16.65,16.65,0,0,0-2.47-7.68c1-.52,2.21-.83,3.26-1.31a11,11,0,0,1,.48,2.84c-.2.61-.26-.35-.88,0-.11,1.3,1.76,1.63,1.5,3.39.26,0,.28-.21.33-.39C309.21,183.38,310.09,185.59,311.68,187.15Zm-5.57-1.84a6.35,6.35,0,0,0,2.73,2.85A17.52,17.52,0,0,0,306.11,185.31Z"/><path class="cls-3" d="M316.12,162.54c-.39.3-2.38.41-2.17-.49C314.65,162.23,315.9,161.91,316.12,162.54Z"/><path class="cls-3" d="M315,159.9a3.22,3.22,0,0,1-2.09-.26C313.61,159.3,314.75,159.45,315,159.9Z"/><path class="cls-3" d="M314.38,158.36a2.32,2.32,0,0,1-2-.28A5.68,5.68,0,0,1,314.38,158.36Z"/><path class="cls-3" d="M312.32,153.89c-.31.24-1.34.31-1.07-.31.21,0,.48,0,.54-.2C312.15,153.39,312,153.86,312.32,153.89Z"/><path class="cls-3" d="M303.6,190c-2.37.06-4.75-.73-7.41-.73a3.58,3.58,0,0,0,.68-3c-1.07.45-.95,2.16-.92,2.94-3-.29-5.84-.66-8.74-1-.07-.37,1.35-1.74,2-2.4,2.76-.13,5-.73,6.59-2.29,1.91,1.29,3.37,3,5.69,3.92C301.5,188.53,302.66,189.4,303.6,190Zm-9-4.34c-.84,0-.69,1.07-.18,1C294.48,186.13,294.73,186,294.59,185.67Z"/><path class="cls-3" d="M300,183.79c-.05.31-.12.16-.29.16a5,5,0,0,0-1.62-1.39c.37-1.35-.65-2.25-1.19-3.09a2.55,2.55,0,0,1,1-.5A17.9,17.9,0,0,0,300,183.79Z"/><path class="cls-3" d="M305,154.19c-2.4.84-4.34.53-6.3,1.43s-3.57,2.79-5.18,4.18a58.08,58.08,0,0,1-10,7,12.68,12.68,0,0,0-5.55,1.43c-.84-2,1.08-6.51-.12-8.15a1.65,1.65,0,0,0-.36-2.17,13.71,13.71,0,0,0-.37-9.51A62.27,62.27,0,0,1,284,145.6a24.25,24.25,0,0,0,4.56,2.57c-1.31.7-2.81,1.23-4.13,1.91-.5,0,0-1-.73-.82-1.3.26-.85,1.29-1,1.79a3,3,0,0,1-1.71.38c-.2.59.37.46.8.47-1,1.19.15,1.9.93,1.72a1.36,1.36,0,0,0,.69-2.32c1.84-.26,4.26-2.42,6.13-2.57,1.06-.09,2.81,1.15,3.74,1.53C297,151.72,301.36,153.08,305,154.19Zm-17.47,2.67a1.71,1.71,0,0,0,.87-2C287.46,152.46,284.28,158.24,287.5,156.86Zm-.76-5.38a1.3,1.3,0,0,0-.32,1.68C287.86,153.39,288.48,150.73,286.74,151.48Zm-5.3,6.89a9.19,9.19,0,0,0,4.71,1,.28.28,0,0,0,.17-.27C285.11,158.65,283.17,157.4,281.44,158.37Zm-.27,1.44a8.53,8.53,0,0,0,4.67,1.27c0-.12.05-.24.07-.36C284.25,160.54,283.19,159.31,281.17,159.81Zm.22,1.48c.64.74,2.2.62,3.35.89C284.45,161.18,282.65,161.09,281.39,161.29ZM281,163c.44.86,1.91.76,3.25.79,0-.12.05-.24.07-.36C283.33,163.17,282.28,162.57,281,163Z"/><path class="cls-3" d="M296,181.49a2.1,2.1,0,0,1-1.61-.81c.21-.25.68,0,1.06-.28C295.6,180.79,296,181,296,181.49Z"/><path class="cls-3" d="M294.81,182.48c-1.17,1.69-3.55.82-5.43,1.54.32-.88.82-1.59,1.2-2.41C291.81,182.06,293.5,182.1,294.81,182.48Z"/><path class="cls-3" d="M282.9,145.06c-2.18.83-4.25,1.76-6.4,2.62C278.23,146.59,280.81,144.9,282.9,145.06Z"/><path class="cls-3" d="M280.62,144.48c-1.43.82-3.25,1.28-4.67,2.11-.48,0-.41-.41-.49-.73-.6.26.07.51,0,.94-4.2,2.46-8.24,5.06-13.74,6.29,2.72-2.54,6.62-3.58,10.07-5.5,1.05-.59,2.14-1.58,3.14-2C276.77,144.8,278.66,145,280.62,144.48Z"/><path class="cls-3" d="M275.68,148a8.31,8.31,0,0,1-2.64,1.34A10.73,10.73,0,0,1,275.68,148Z"/><path class="cls-3" d="M259.52,183c.29-2.23-.1-3.83-.06-5.83C261.13,177.37,261,181.38,259.52,183Z"/><path class="cls-3" d="M260.84,176.46c-1,0-1.4-1.37-1.41-2.59C260.64,173.66,261.07,175,260.84,176.46Z"/><path class="cls-3" d="M260.81,172.61c-.48.26-1.38-.78-1.33-1.66A1.86,1.86,0,0,1,260.81,172.61Z"/><path class="cls-3" d="M260.61,169.6c-1.51.09-.15-3.71-.05-5.13A51.18,51.18,0,0,0,260.61,169.6Z"/><path class="cls-3" d="M316,177.5c-.35-.05-1.19-.78-.86-1.51C315.57,176.35,315.61,177.08,316,177.5Z"/><path class="cls-3" d="M310.84,152.36c-3.8,1-6-.69-8.36-1.64l-5.85-2.38A97.3,97.3,0,0,1,310.84,152.36Z"/><path class="cls-3" d="M302.33,186.7c-.67.13-.88-1-1.06-1.7C301.73,185.07,301.88,186.29,302.33,186.7Z"/><path class="cls-3" d="M299.15,180.07c.07.14-.77-1-.63-1.31C299,178.93,299,179.58,299.15,180.07Z"/><path class="cls-3" d="M297.89,182.12c-.58.34-.58-.72-1-.9C297.33,181.06,297.49,182,297.89,182.12Z"/><path class="cls-3" d="M272.9,184.66c-1.74-.45-1.58-4-2-6.24-.39-2.1-.77-3.67-1.08-5.67-1,.41-.35,1.9-.24,2.6.42,2.48,1,5.43,1.56,7.82-1.38-.94-1-3.2-1.35-4.93a39.62,39.62,0,0,0-1.37-4.82c-.85.71-.18,1.61,0,2.23a35.49,35.49,0,0,1,1.2,7.06c.51.5.21,1.73.72,2.22.36-.27.17-.88.07-1.05,1.21.67,2.34,2.29,3.38,3.45a6.59,6.59,0,0,1-4.88-2.18c-.66-.72-1.72-1.44-2-2.15a17.17,17.17,0,0,1-.25-2.64c-.38-2.36-1-4.82-1.3-7.28-.82,1.19-.14,3.36.17,5.22s.89,3.25.61,4.81c.18.54.68.77.59,1.55.58-.2.83,0,1.16.52-.56.11-1.4-.37-2-.51.31-4.57-1.46-7.76-1.33-11.82-.21-.21-.47-.2-.88,0,.08-1.37-.27-2.34-.19-3.71,1.81,1,4.48,1.25,6.23,2.32.4-.16-.27-.14,0-.46,3.9.59,8.76-1.66,13.05-1.87.4,1,1.42,1.41,2.27,2-.12,1.64.85,2.26,1.41,3.29-.08,2.76,1.78,3.74,2.74,5.54-.73,2.32-2.12,4-2.39,6.78-1.63,2-4,1.16-6.61,1-1.75-.1-3.33-.19-4.74-.21-.94-1.33-2.75-1.85-2.32-4.43.56.17.63.81.59,1.54.33.14.46-.58.23-.5a1.14,1.14,0,0,1,1.13,1.34c.86-.39.9.46,1.52.58a20.53,20.53,0,0,0,0-5.48c1-.44,1.24,2.31.84,3.6.59-.44.52-1.75.55-2.3.75-.35,1.15,1.33,2,1.56a9.2,9.2,0,0,0-1.9-3.32c0-2.84-.67-5.09-.66-8-.68.22-.59,1.06-.63,1.38-.26,1.91.76,3.92.33,5.67-.91.39-.59-.84-.64-1.31-.18-1.57-.45-3.83-.76-5.37-.92.89-.6,2.47-.51,3.47.26,3,.75,6.37,1.14,9.4-1.22-.6-.78-2.61-.94-4.42-.25-2.94-.88-5.87-1.28-8.68-1.18.54-.59,2-.51,2.76.28,2.82.88,5.89,1.32,8.44-.28.49-.73-.49-1-.67a36.85,36.85,0,0,0-1-8.72,8.72,8.72,0,0,0-.81-2.45c-.45,1.76.16,3.48.43,5.19s.52,3.56.78,5.24c-1-3.13-1.26-6.87-2.15-10.06-.84.8-.35,1.89-.24,2.61.39,2.39,1,5,1.25,7.52C272.55,182.85,272.46,184,272.9,184.66Zm12.56-1.22a7,7,0,0,0-1.55-3.85c-.5-.75-.91-1.86-2-1.91-.44.74.31,1.16.59,1.55a19.07,19.07,0,0,1,1.81,3.11c.26.54.4,1.24,1,1.49C285.41,183.78,285.43,183.61,285.46,183.44Zm-1-8.25c.15,0,.22.14.27-.16-.78-.81-.36-2.73-1.7-3C283.19,173.38,284.12,174,284.48,175.19Zm-2.11,8.6a5.57,5.57,0,0,0-1.53-3.26c-.54-.7-1.07-1.66-2.06-1.8,0,1.13.9,1.87,1.51,2.69A7.68,7.68,0,0,1,282,184.2C282.1,184,282.3,184,282.37,183.79Zm-2.09-9.72c-.12,1,1.59,1.31,2.21,1C281.67,174.78,281.81,173.65,280.28,174.07Zm-.17-1.84c.21,1,1.34,1.22,2.21,1.65C282.25,172.72,281.41,172.27,280.11,172.23Zm-13.12.25c-.81,2.12-.13,4,.18,5.81.16.9.29,1.86.5,2.72a9.28,9.28,0,0,0,.8,2.45A32.42,32.42,0,0,0,267,172.48Z"/><path class="cls-3" d="M276.25,159.86c-1.61-1.8-2.95-3.86-5.07-5.18-.13.78.69,1.13,1.09,1.58l1.35,1.54a8.19,8.19,0,0,1,2.24,3.52c-.42.3-.62-.27-.79-.46-1.58-1.76-3.31-4.13-5.7-5.21,2.05,2.46,4.38,4.66,6.33,7.22a2.67,2.67,0,0,0-.1,1.18c-2.26-2.23-4-4.93-6.66-6.8.11.9.91,1.46,1.49,2.1,1.75,1.9,3.47,4.16,5.28,6.09-.1.69.32.9.06,1.74a40.87,40.87,0,0,0-7.28-7.53c2.38,3.25,5.6,6.26,8,9.18-1-.08-2.2.63-3.23.49-.59-.08-1.35-1.34-1.8-1.83a31.78,31.78,0,0,0-5.57-5.22c1.77,2.69,4.75,4.78,6.46,7.18l-1.68.26A21.06,21.06,0,0,0,268,166.5a8.36,8.36,0,0,0-3.28-2.66c.08,1.39,1.66,2,2.59,3a15.77,15.77,0,0,1,2.46,3c-1.06-.1-1.58-1-2.21-1.65s-1.08-1.55-2.1-1.55c0,1.18,1.7,1.69,2.27,2.69-1.34.14-2.66-.6-4.31-.51-.07-5.08.46-10.72-1.09-14.44,4.53-1.77,9.33-3.29,13.57-5.33,2.42,1.13.08,6.91,0,10C275.77,159.58,276.37,159.38,276.25,159.86Zm-1.89,8.81c0,.12.14.07.16-.15a31.82,31.82,0,0,0-6.14-6.88,5.19,5.19,0,0,0-2.58-1.71C268.54,163,271.34,165.92,274.36,168.67Zm-1.25-13.59c-1.09-.68-1.81-3.1-3.56-2.49a23.34,23.34,0,0,0,3.49,2.86C273.07,155.32,273.09,155.2,273.11,155.08Z"/><path class="cls-3" d="M265.58,184.14c-.68.58-.92-.93-1.71-.9-.93.4.7.73-.06.94a4.17,4.17,0,0,0-1.42-.48c.17-1.35.57-2.49.82-3.74.38.21.28.87.68,1.06-.07-2-.56-3.66-.26-6C264.45,177.88,264.6,181.39,265.58,184.14Z"/><path class="cls-2" d="M275.51,177.46a16.79,16.79,0,0,1,3.77.41c.08-.23.18-.13.28-.13a6.56,6.56,0,0,1,1.35.07c.81.12,1.61.37,2.55.46,2.32.23,4.82.32,7,.62.49.07,1,.08,1.39.17a7.61,7.61,0,0,1,.76.31c.29.09.49.28.81.25a4.52,4.52,0,0,0,1.32-.58c.52-.26,1-.41,1.38-.59a14.55,14.55,0,0,0,1.78-1.16c.58-.39,1.46-.91,1.45-1.54,0-.07-.07-.07-.07-.13s-.06,0-.05,0a8.54,8.54,0,0,0-.18-3.92c-.09-.42-.17-.86-.27-1.27a19.34,19.34,0,0,0-1.7-4.45c-.35-.69-.34-1.75-.73-2.38-.07-.11-.26-.2-.39-.36s-.14-.36-.26-.48a5.2,5.2,0,0,0-1.53-.75c-2.79-1.18-6.13-1.54-8.92-2.74a22,22,0,0,0-2.57-.87,2.23,2.23,0,0,0-1-.18,10.69,10.69,0,0,0-2.64,1.39,22.81,22.81,0,0,1-3.7,2.22,9.43,9.43,0,0,0-1.77.55,3.65,3.65,0,0,0-.48,1.2c0,.27.17.44.18.68a12.25,12.25,0,0,1-.15,1.9,34.58,34.58,0,0,0-.19,5.68c0,1.11.1,2.11,0,3.38a8.87,8.87,0,0,1,0,1.17c-.09.34-.54.83-.33,1.17S274.74,177.46,275.51,177.46Z"/><path class="cls-3" d="M278.15,175.07a11.31,11.31,0,0,1,2.62.28c.06-.16.13-.09.19-.09a5.8,5.8,0,0,1,1,.05c.56.08,1.11.25,1.77.32,1.61.16,3.35.22,4.88.43.33.05.68.05,1,.12s.34.15.52.21.34.2.57.18a3.31,3.31,0,0,0,.92-.41c.35-.18.7-.28,1-.4a10.92,10.92,0,0,0,1.24-.81c.4-.27,1-.63,1-1.07,0,0-.05,0-.05-.09s-.05,0,0,0a6.08,6.08,0,0,0-.13-2.72c-.06-.29-.12-.6-.19-.89a13.07,13.07,0,0,0-1.18-3.08c-.24-.49-.23-1.22-.5-1.66,0-.07-.19-.14-.27-.25s-.11-.25-.19-.33a3.38,3.38,0,0,0-1.06-.52c-1.94-.82-4.26-1.07-6.19-1.9a16.25,16.25,0,0,0-1.79-.61,1.61,1.61,0,0,0-.71-.12,7.22,7.22,0,0,0-1.84,1,16.19,16.19,0,0,1-2.57,1.54,7.43,7.43,0,0,0-1.23.38,2.45,2.45,0,0,0-.33.84c0,.18.12.31.12.47a9.26,9.26,0,0,1-.1,1.32,23.11,23.11,0,0,0-.13,3.94c0,.77.07,1.47,0,2.35a6.88,6.88,0,0,1,0,.81c-.06.24-.37.58-.22.82S277.62,175.07,278.15,175.07Z"/></svg>