<?xml version="1.0" encoding="utf-8"?>
<!-- Generator: Adobe Illustrator 26.0.1, SVG Export Plug-In . SVG Version: 6.00 Build 0)  -->
<svg version="1.1" id="Слой_1" xmlns="http://www.w3.org/2000/svg" xmlns:xlink="http://www.w3.org/1999/xlink" x="0px" y="0px"
	 viewBox="0 0 400 400" style="enable-background:new 0 0 400 400;" xml:space="preserve">
<style type="text/css">
	.st0{fill:#F8F8F8;}
	.st1{fill:#18181B;}
	.st2{fill:none;stroke:#18181B;stroke-width:2.8983;stroke-linecap:round;stroke-linejoin:round;stroke-miterlimit:4.6372;}
	.st3{fill:none;stroke:#18181B;stroke-width:2.8982;stroke-linecap:round;stroke-linejoin:round;stroke-miterlimit:7.5123;}
	.st4{fill:none;stroke:#18181B;stroke-width:2.8982;stroke-linecap:round;stroke-miterlimit:4.6372;}
	.st5{fill:none;stroke:#18181B;stroke-width:2.8982;stroke-linecap:round;stroke-linejoin:round;stroke-miterlimit:4.6372;}
	.st6{fill:none;stroke:#18181B;stroke-width:2.8982;stroke-linecap:round;stroke-miterlimit:7.5123;}
	.st7{fill:#DE7C29;}
	.st8{fill:none;stroke:#FFFFFF;stroke-width:1.8781;stroke-linecap:round;stroke-linejoin:round;stroke-miterlimit:7.5123;}
	.st9{fill:#EFEFEF;stroke:#A99E71;stroke-width:0.939;stroke-linecap:round;stroke-linejoin:round;stroke-miterlimit:7.5123;}
	.st10{fill:#EFEFEF;stroke:#A99E71;stroke-width:0.939;stroke-miterlimit:7.5123;}
	.st11{fill:#F5F0E0;stroke:#A99E71;stroke-width:0.939;stroke-linecap:round;stroke-linejoin:round;stroke-miterlimit:7.5123;}
	.st12{fill:#F5F0E0;stroke:#A99E71;stroke-width:0.939;stroke-miterlimit:7.5123;}
	.st13{fill:#FFFFFF;}
</style>
<rect x="-16" y="-17.2" class="st0" width="461.7" height="444.1"/>
<g>
	<g>
		<path class="st1" d="M32.2,39c0-9.8,5.8-13.8,13.6-13.8s12.6,3.6,12.6,9.1v0.4H50v-0.4c0-1.8-1.3-2-4.3-2c-4,0-5.6,0.6-5.6,5.2
			v1.4h0.5c1.2-1.7,3.7-3.2,8.1-3.2c6.6,0,10.1,2.4,10.1,7.9c0,5.4-4.2,8.8-12.4,8.8C36.2,52.4,32.2,48.1,32.2,39z M51.1,43.1
			c0-1.7-0.8-2.3-5.1-2.3c-4.7,0-5.5,0.6-5.5,2.3c0,1.5,0.8,2.2,5.5,2.2C50.3,45.3,51.1,44.6,51.1,43.1z"/>
		<path class="st1" d="M60.6,38.8c0-8.1,4.7-13.6,13.7-13.6S88,30.7,88,38.8s-4.7,13.6-13.7,13.6S60.6,47,60.6,38.8z M80,38.8
			c0-4.9-1.2-6.4-5.7-6.4s-5.7,1.5-5.7,6.4s1.2,6.4,5.7,6.4S80,43.7,80,38.8z"/>
		<path class="st1" d="M95.5,52V32.1h7v6h0.4c0.4-3.3,2.3-6.4,7.3-6.4c4.7,0,7,2.8,7.3,6.4h0.4c0.4-3.3,2.3-6.4,7.5-6.4
			c5.1,0,7.5,3.2,7.5,7.5V52h-7.4V42c0-2.8-0.8-3.6-3.9-3.6c-3,0-3.7,0.8-3.7,3.4V52h-7.4V42c0-2.8-0.8-3.6-3.9-3.6
			c-3,0-3.7,0.8-3.7,3.4V52H95.5z"/>
		<path class="st1" d="M135.1,30.3v-4.7h7.4v4.7H135.1z M135.1,52V32.1h7.4V52H135.1z"/>
		<path class="st1" d="M144.9,52V32.1h7v6h0.4c0.4-3.3,2.6-6.4,7.9-6.4c5.4,0,7.9,3.2,7.9,7.5V52h-7.4V42c0-2.8-1-3.6-4.3-3.6
			s-4.1,0.8-4.1,3.4V52H144.9z"/>
		<path class="st1" d="M170.3,52v-7.6h9.6V52H170.3z"/>
	</g>
	<g>
		<path class="st1" d="M312.7,52V33.9h-7.1v-5h1c2.9,0,5.1-0.6,6.6-3.3h6.9V52H312.7z"/>
		<path class="st1" d="M321.9,52v-4.7c0-4.5,2.1-6.8,7.8-8.7l7.2-2.3c1.7-0.6,2.4-1.1,2.4-2.3c0-1.3-0.5-2.2-4.5-2.2
			c-4.4,0-5.4,1.1-5.4,3.5V36H322v-0.6c0-5.3,3.6-10.2,13-10.2c8.4,0,11.7,3.7,11.7,9.1c0,5-3.3,7.3-8.1,8.5l-5.9,1.5
			c-1.7,0.4-3,0.7-3,2.1l7.4-0.9h9.4V52H321.9z"/>
		<path class="st1" d="M354.8,48.2v-6.3h-6.2v-6.1h6.2v-6.3h6.3v6.3h6.2v6.1h-6.2v6.3H354.8z"/>
	</g>
</g>
<g transform="translate(-152.15 -188.58)">
	<g transform="matrix(.66254 0 0 .66254 51.345 63.64)">
		<ellipse class="st1" cx="453.1" cy="576" rx="212" ry="150.2"/>
		<g transform="translate(387.83 384.94)">
			<g>
				<g>
					<g transform="matrix(-.43649 .43649 -.43649 -.43649 -357.89 77.305)">
						<path class="st2" d="M-474.5-947.3h31.5"/>
						<path class="st2" d="M-479.4-934.9l18.6-47.4l4.2,0l18.6,47.4"/>
					</g>
					<path class="st3" d="M294.5,247.4l3,24.1 M269.1,262.2l27-1.9 M281.8,240.1l25.3,14.6"/>
					<path class="st3" d="M219.7,71.1l16.8-24l20.9,14.6"/>
					<g transform="matrix(-.50565 .35406 -.35406 -.50565 -394.8 37.766)">
						<path class="st2" d="M-543.8-933.9v-47.4h-30.1c0,0-9.3,0-9.3,11.8s9.3,11.8,9.3,11.8h30.1"/>
						<path class="st2" d="M-585.1-933.9l16.4-23.7"/>
					</g>
					<g>
						<g transform="matrix(.55945 .26087 -.26087 .55945 138.65 -2.4751)">
							<path class="st4" d="M87.3,1.2l50.3,47.4"/>
							<path class="st4" d="M135.7,1.2L85.4,48.6"/>
						</g>
						<g transform="matrix(.30864 .53458 -.53458 .30864 18.356 140.54)">
							<path class="st4" d="M185.6-417.6l12.2,23.9c9.2,3.4,20.6,1.5,21.8,0"/>
							<path class="st5" d="M234-417.6c0,0-3.7,6.7-14.5,24.1c-10.8,17.4-12.8,24.1-21.5,24.1h-4.1"/>
						</g>
						
							<ellipse transform="matrix(0.4226 -0.9063 0.9063 0.4226 -21.8474 400.4144)" class="st6" cx="303.3" cy="217.4" rx="9.7" ry="9.7"/>
					</g>
					<g transform="matrix(-.10719 -.6079 .6079 -.10719 -95.233 -457.11)">
						<path class="st5" d="M-1091.2,461.3h-30.1c0,0-9.3,0-9.3-11.8c0-11.8,9.3-11.8,9.3-11.8h30.1V485h-39.4"/>
					</g>
					<g>
						<path class="st3" d="M36.9,4.5C33.6,0.8,28.5-1,23.5-0.1c-8,1.4-13.3,9-11.9,16.9c1.4,8,9,13.3,16.9,11.9
							c5-0.9,9.1-4.3,11-8.9"/>
						<g>
							<path class="st3" d="M77.8,12c0,0,6.9,0,6.9,7.3c0,7.3-6.9,7.3-6.9,7.3H59.2V-2.6h18.6c0,0,5.8,0,5.8,7.3S77.8,12,77.8,12
								l-18.6,0"/>
							<path class="st3" d="M103.6,13.9l22.8,4 M126.2,32.8l-25.1-4.4l5.1-28.8L131.3,4"/>
							<path class="st3" d="M140.9,36.5l10-27.5l17.5,6.4c0,0,6.5,2.4,4,9.2c-2.5,6.9-9,4.5-9,4.5l-17.5-6.4"/>
							<path class="st3" d="M262.1,109.8L284.5,91L274,78.6c0,0-6-2.5-10.8,1.6c-4.9,4.1-7.2,7.4-12.3,8.8c-5.1,1.4-9.5-3.7-9.5-3.7
								"/>
						</g>
					</g>
					<g transform="matrix(.43649 -.43649 .43649 .43649 42.304 -351.02)">
						<path class="st2" d="M-707.6,315.6h31.5"/>
						<path class="st2" d="M-712.5,328l18.6-47.4l4.2,0l18.6,47.4"/>
					</g>
					<g>
						<path class="st3" d="M-172.9,143.4c-5,0.6-9.3,3.8-11.5,8.3c-3.4,7.3-0.2,16,7.1,19.4c7.3,3.4,16,0.2,19.4-7.1
							c2.1-4.6,1.8-9.9-1-14.1"/>
						<path class="st3" d="M-161.7,130.4l-3-24.1 M-136.3,115.7l-27,1.9 M-149.1,137.7l-25.3-14.6"/>
						<path class="st3" d="M-154.4,231.5l-27.5,10l5.6,15.3c0,0,4.7,4.4,10.7,2.2c6-2.2,9.3-4.5,14.6-4.1c5.3,0.4,7.6,6.8,7.6,6.8"
							/>
					</g>
					<g transform="matrix(.53458 -.30864 .30864 .53458 91.639 -287.15)">
						<path class="st5" d="M-511,355.2v-47.4h-30.1c0,0-9.3,0-9.3,11.8c0,11.8,9.3,11.8,9.3,11.8h30.1"/>
						<path class="st5" d="M-552.3,355.2l16.4-23.7"/>
					</g>
					
						<ellipse transform="matrix(0.8191 -0.5736 0.5736 0.8191 -191.2083 -25.7014)" class="st6" cx="-136.4" cy="290.4" rx="9.7" ry="9.7"/>
					<g transform="matrix(.0538 .61493 -.61493 .0538 -249.05 180.77)">
						<path class="st5" d="M67.8-92.7v-47.4H37.7c0,0-9.3,0-9.3,11.8s9.3,11.8,9.3,11.8h30.1"/>
					</g>
					<g>
						<path class="st3" d="M-92.5,327.1l-24.2,0.9 M-105,300.5l-0.4,27.1 M-84.1,315.1l-16.8,24"/>
						<path class="st3" d="M13.2,360.2c-1-4.9-4.6-9-9.3-10.7c-7.6-2.8-16,1.1-18.7,8.7c-2.8,7.6,1.2,16,8.7,18.7
							c4.7,1.7,10,0.9,14-2.2"/>
						<path class="st3" d="M122.6,379.6l-2.5-29.1l18.5-1.6c0,0,6.9-0.6,7.5,6.7c0.6,7.3-6.3,7.9-6.3,7.9l-18.5,1.6"/>
						<path class="st3" d="M58.6,362.1c-2.3-4.5-6.7-7.5-11.7-7.9c-8-0.7-15.1,5.2-15.8,13.3c-0.7,8,5.2,15.1,13.3,15.8
							c5,0.4,9.9-1.7,12.9-5.8"/>
						<path class="st3" d="M102.1,359.8c-3-4-7.9-6.2-12.9-5.8c-8,0.7-14,7.8-13.3,15.8c0.7,8,7.8,14,15.8,13.3
							c5-0.4,9.5-3.4,11.7-7.9"/>
					</g>
				</g>
			</g>
			<g>
				<circle class="st7" cx="-55.5" cy="349.4" r="5.7"/>
				<circle class="st7" cx="186" cy="349.4" r="5.7"/>
			</g>
		</g>
		<g transform="translate(387.83 384.94)">
			<path class="st8" d="M-146.8,191.1h424.1"/>
			<path class="st8" d="M-75.6,78.9c43,24.4,91.4,37.4,140.8,37.9c49.8,0,98.7-12.8,142.1-37.1 M207.2,302.5
				c-43.4-24.3-92.3-37.1-142-37.1c-49.4,0.5-97.9,13.5-140.8,37.9"/>
		</g>
		<g transform="translate(387.65 384.94)">
			<path class="st9" d="M30.5,96.1l35-22.8v267.9l-17.5-1l-17.5-3.1L30.5,96.1z"/>
			<path class="st10" d="M48,76.7V61.4L65.4,50v23.3l-35,22.8L48,76.7z"/>
			<g transform="matrix(-1 0 0 1 -316.19 0)">
				<path class="st9" d="M-416.6,96.1l35-22.8v267.9l-17.5-1l-17.5-3.1L-416.6,96.1z"/>
				<path class="st10" d="M-399.1,76.7V61.4l17.5-11.4v23.3l-35,22.8L-399.1,76.7z"/>
			</g>
		</g>
		<g transform="translate(387.65 384.94)">
			<path class="st7" d="M54.4,93.6L41.5,102v89.7l12.9-8.4V93.6z M54.4,202l-12.9,8.4v89.7l12.9-8.4V202z"/>
			<path class="st7" d="M76.5,93.6v89.7l12.9,8.4V102L76.5,93.6z M76.5,202v89.7l12.9,8.4v-89.7L76.5,202z"/>
		</g>
		<circle class="st8" cx="453.1" cy="576" r="150.2"/>
	</g>
</g>
<rect x="-29.1" y="964.5" class="st1" width="466.6" height="147.6"/>
<g transform="translate(-152.15 -188.58)">
	<g transform="matrix(.66254 0 0 .66254 51.345 63.64)">
		<ellipse class="st1" cx="453.1" cy="1545" rx="359.4" ry="254.6"/>
		<g transform="translate(387.83 384.94)">
			<path class="st8" d="M-294.2,1160h718.9"/>
			<path class="st8" d="M-173.5,969.8c72.8,41.3,155,63.4,238.7,64.2c84.3-0.1,167.3-21.7,240.9-63 M306,1349
				c-73.5-41.2-156.4-62.8-240.7-62.9c-83.7,0.8-165.9,22.9-238.7,64.2"/>
		</g>
		<g transform="translate(387.65 384.94)">
			<path class="st11" d="M6.2,999.1l59.3-38.6v454.2l-29.6-1.7l-29.6-5.3L6.2,999.1z"/>
			<path class="st12" d="M35.8,966.1v-25.9l29.6-19.3v39.5L6.2,999.1L35.8,966.1z"/>
			<g transform="matrix(-1 0 0 1 -316.19 0)">
				<path class="st11" d="M-440.9,999.1l59.3-38.6v454.2l-29.6-1.7l-29.6-5.3L-440.9,999.1z"/>
				<path class="st12" d="M-411.2,966.1v-25.9l29.6-19.3v39.5l-59.3,38.6L-411.2,966.1z"/>
			</g>
		</g>
		<g transform="translate(387.65 384.94)">
			<path class="st13" d="M46.7,994.8l-21.8,14.2v152l21.8-14.2V994.8z M46.7,1178.6l-21.8,14.2v152l21.8-14.2V1178.6z"/>
			<path class="st13" d="M84.2,994.8v152l21.8,14.2v-152L84.2,994.8z M84.2,1178.6v152l21.8,14.2v-152L84.2,1178.6z"/>
		</g>
		<circle class="st8" cx="453.1" cy="1545" r="254.6"/>
	</g>
</g>
<g transform="translate(-152.15 -188.58)">
	<g transform="matrix(.66254 0 0 .66254 51.345 63.64)">
		<ellipse class="st1" cx="2177.7" cy="987.7" rx="359.4" ry="254.6"/>
	</g>
</g>
<g>
	<path class="st1" d="M168.7,978.8c0.7-0.3,1.4-0.4,2-0.4c2,0,4.9,0.7,8.9,2c0.7-0.6,1.1-0.8,1.2-0.8c-2.4-3.1-3.6-5-3.8-5.9h0.1
		c0.3,0,2.3,2.1,6.1,6.3c1.8,1.8,6.1,2.7,12.9,2.7c3.7,0.5,6.8,0.7,9.1,0.7c13.8-0.6,20.7-1,20.7-1.3c0.3-0.5,0.8-0.7,1.5-0.7
		c0.1,0,1.8,1.1,4.9,3.2c1,0.5,2.7,1.1,5.2,1.8c0.3-0.2,0.7-0.3,1.1-0.3c0.4,0,0.8,0.6,1.4,1.7h-6.3c-0.8-0.7-1.5-1-2-1
		c-1.7,0.2-4.2,0.7-7.6,1.4c-1.1,0-1.8,0-2.2-0.1c-4.3,0.1-7.7,0.1-10.4,0.1H208c-2.6,0-6.1,0-10.6-0.1c-0.1,0.1-0.2,0.1-0.3,0.1
		l10.1,10.6c2.1,2.2,3.1,3.5,3.1,4h-3.7c-2.7,0-4.6-0.6-5.5-1.8c-0.4-0.4-1.4-1.9-2.8-4.3c-0.9-1.1-3.1-3-6.5-5.4
		c-2.8-2.3-6.1-4-9.7-5.3c-1.5-0.9-3.5-2.4-6-4.3c-1.3-1.2-3.4-1.8-6.1-1.8C169.1,979.4,168.7,979.1,168.7,978.8z"/>
	<path class="st1" d="M168.5,951.3v-1.1c0-3.6,2.2-7.1,6.6-10.5c2.1-1.4,4.2-2.1,6.2-2.1c5.2,0,16,4.7,32.2,14.1
		c3.6,2,5.5,2.9,5.7,2.9v-0.1c0-2.4,1-5.3,3.1-8.8c0.8-1.7,1.2-3,1.2-4.2c0-0.6-0.4-0.9-1.2-1c0-1.9-1.7-4-5.1-6.3
		c-6.2-2.6-9.6-4.1-10-4.6v-1c0-0.2,0.1-0.3,0.3-0.3h0.6c0.5,0,3.7,1.2,9.7,3.5c1.7,0.5,4.3,0.9,7.9,1.3c2.1,2.3,3.2,4,3.2,5.2v0.6
		c0,1.9-1.6,6.4-4.7,13.5v0.3c0,2.2,3.5,6.5,10.5,12.7c0.5,0.7,0.8,1.1,0.8,1.4v1.1h-2c-4.7-1.6-9.6-3.9-14.8-6.8
		c-20.8-12-33.2-18-37.3-18c-3,0-5.7,1.4-8.2,4.3c-0.5,1.2-0.8,2.1-0.8,2.8v0.4c0,1.8,3.4,4.4,10.1,8c2.6,1.1,5.6,3.2,8.9,6.1
		c0,0.1,0.5,0.7,1.5,1.8c0,0.1-0.2,0.3-0.5,0.4h-1.1c-0.3,0-2.6-0.7-6.8-2.2c-1.1,0-2.2-0.4-3.5-1.3c-3.7-1.7-6.8-3.5-9.3-5.3
		C169.6,956.2,168.5,953.9,168.5,951.3z M182,952.4c0.4-0.9,1.4-1.9,2.8-3.1c1.8,1,2.8,2.2,2.8,3.6c0,0.9-0.7,1.5-2.2,1.8h-0.3
		C184.4,954.8,183.4,954,182,952.4z"/>
	<path class="st1" d="M168.5,906.1V905c0-3.6,2.2-7.1,6.6-10.5c2.1-1.4,4.2-2.1,6.2-2.1c5.2,0,16,4.7,32.2,14.1
		c3.6,2,5.5,2.9,5.7,2.9v-0.1c0-2.4,1-5.3,3.1-8.8c0.8-1.7,1.2-3,1.2-4.2c0-0.6-0.4-0.9-1.2-1c0-1.9-1.7-4-5.1-6.3
		c-6.2-2.6-9.6-4.1-10-4.6v-1c0-0.2,0.1-0.3,0.3-0.3h0.6c0.5,0,3.7,1.2,9.7,3.5c1.7,0.5,4.3,0.9,7.9,1.3c2.1,2.3,3.2,4,3.2,5.2v0.6
		c0,1.9-1.6,6.4-4.7,13.5v0.3c0,2.2,3.5,6.5,10.5,12.7c0.5,0.7,0.8,1.1,0.8,1.4v1.1h-2c-4.7-1.6-9.6-3.9-14.8-6.8
		c-20.8-12-33.2-18-37.3-18c-3,0-5.7,1.4-8.2,4.3c-0.5,1.2-0.8,2.1-0.8,2.8v0.4c0,1.8,3.4,4.4,10.1,8c2.6,1.1,5.6,3.2,8.9,6.1
		c0,0.1,0.5,0.7,1.5,1.8c0,0.1-0.2,0.3-0.5,0.4h-1.1c-0.3,0-2.6-0.7-6.8-2.2c-1.1,0-2.2-0.4-3.5-1.3c-3.7-1.7-6.8-3.5-9.3-5.3
		C169.6,911,168.5,908.7,168.5,906.1z M182,907.2c0.4-0.9,1.4-1.9,2.8-3.1c1.8,1,2.8,2.2,2.8,3.6c0,0.9-0.7,1.5-2.2,1.8h-0.3
		C184.4,909.6,183.4,908.8,182,907.2z"/>
	<path class="st1" d="M165,846.7c3.3,0.3,5.3,0.4,5.9,0.4c0.4,0,4.4-0.8,12-2.4h1.5c0.2,0,0.4,0.2,0.7,0.6c-0.6,1-2,1.8-4.1,2.5
		c-0.7,0-1.3,0.4-1.6,1.3c0.2,2.3,6.2,7.3,18.1,15.1c1.6,1,2.5,1.5,2.8,1.5c0.7-0.8,1-1.6,1-2.2c-0.8-3.5-1.2-5.7-1.2-6.7v-0.1
		c0-5.3,3.7-9.3,11-11.9c1.9-0.6,3.6-0.8,5.1-0.8h2.3c4.5,0.1,6.7,0.4,6.7,0.8c5.1,3.7,7.7,6.3,7.9,8c1.3,2.3,2,4.2,2,5.7v2.1
		c0,4.3-2.3,8.3-6.9,12.1c-3.3,1.6-5.6,2.4-6.9,2.4h-10.9c-0.6-0.7-2.9-1.3-6.9-2.1c-3.5-1.1-9-4.4-16.5-9.8
		c-3.6-2.8-8.5-6.7-14.5-11.7c-0.9-0.5-2.9-1.3-5.9-2.2C165.5,848.3,165,847.5,165,846.7z M217.7,870.2c5.2,0,8.9-1.9,10.9-5.7
		c0.6-1,0.8-2.3,0.8-3.6V860c0-5.3-2.7-8.8-8.1-10.6c-1-0.4-2.3-0.6-3.8-0.6h-0.8c-0.7,0-2.1,0.6-4.1,1.8c-4.8,0.9-7.3,2.9-7.3,6.1
		v1.1c0,6,2.6,9.9,7.8,11.7C214.5,870,216,870.2,217.7,870.2z M213.9,860.4v-0.8c0-0.6,0.6-1.3,1.8-2.1h2.6c0.6,0.6,0.8,1.5,0.8,2.7
		c0,1.2-1,1.8-3,1.8h-0.3C214.6,861.7,213.9,861.1,213.9,860.4z"/>
	<path class="st1" d="M168.5,819.1V818c0-3.6,2.2-7.1,6.6-10.5c2.1-1.4,4.2-2.1,6.2-2.1c5.2,0,16,4.7,32.2,14.1
		c3.6,2,5.5,2.9,5.7,2.9v-0.1c0-2.4,1-5.3,3.1-8.8c0.8-1.7,1.2-3,1.2-4.2c0-0.6-0.4-0.9-1.2-1c0-1.9-1.7-4-5.1-6.3
		c-6.2-2.6-9.6-4.1-10-4.6v-1c0-0.2,0.1-0.3,0.3-0.3h0.6c0.5,0,3.7,1.2,9.7,3.5c1.7,0.5,4.3,0.9,7.9,1.3c2.1,2.3,3.2,4,3.2,5.2v0.6
		c0,1.9-1.6,6.4-4.7,13.5v0.3c0,2.2,3.5,6.5,10.5,12.7c0.5,0.7,0.8,1.1,0.8,1.4v1.1h-2c-4.7-1.6-9.6-3.9-14.8-6.8
		c-20.8-12-33.2-18-37.3-18c-3,0-5.7,1.4-8.2,4.3c-0.5,1.2-0.8,2.1-0.8,2.8v0.4c0,1.8,3.4,4.4,10.1,8c2.6,1.1,5.6,3.2,8.9,6.1
		c0,0.1,0.5,0.7,1.5,1.8c0,0.1-0.2,0.3-0.5,0.4h-1.1c-0.3,0-2.6-0.7-6.8-2.2c-1.1,0-2.2-0.4-3.5-1.3c-3.7-1.7-6.8-3.5-9.3-5.3
		C169.6,824,168.5,821.7,168.5,819.1z M182,820.2c0.4-0.9,1.4-1.9,2.8-3.1c1.8,1,2.8,2.2,2.8,3.6c0,0.9-0.7,1.5-2.2,1.8h-0.3
		C184.4,822.6,183.4,821.8,182,820.2z"/>
</g>
<text transform="matrix(6.123234e-17 -1 1 6.123234e-17 607.2477 592.7836)" class="st1" style="font-family:'SatanycDemoniacSt'; font-size:71.5049px;">12262</text>
<g transform="translate(-152.15 -188.58)">
	<g transform="matrix(.66254 0 0 .66254 51.345 63.64)">
		<g transform="translate(387.65 384.94)">
			<path class="st11" d="M1730.8,8.1l59.3-38.6v454.2l-29.6-1.7l-29.6-5.3L1730.8,8.1z"/>
			<path class="st12" d="M1760.5-24.9v-25.9l29.6-19.3v39.5l-59.3,38.6L1760.5-24.9z"/>
			<g transform="matrix(-1 0 0 1 -316.19 0)">
				<path class="st11" d="M-2165.5,8.1l59.3-38.6v454.2l-29.6-1.7l-29.6-5.3L-2165.5,8.1z"/>
				<path class="st12" d="M-2135.9-24.9v-25.9l29.6-19.3v39.5l-59.3,38.6L-2135.9-24.9z"/>
			</g>
		</g>
		<g transform="translate(387.65 384.94)">
			<path class="st13" d="M1771.4,3.8l-21.8,14.2v152l21.8-14.2V3.8z M1771.4,187.6l-21.8,14.2v152l21.8-14.2V187.6z"/>
			<path class="st13" d="M1808.8,3.8v152l21.8,14.2v-152L1808.8,3.8z M1808.8,187.6v152l21.8,14.2v-152L1808.8,187.6z"/>
		</g>
	</g>
</g>
<g>
	<path class="st1" d="M752,641.9c0.7-0.3,1.4-0.4,2-0.4c2,0,4.9,0.7,8.9,2c0.7-0.6,1.1-0.8,1.2-0.8c-2.4-3.1-3.6-5-3.8-5.9h0.1
		c0.3,0,2.3,2.1,6.1,6.3c1.8,1.8,6.1,2.7,12.9,2.7c3.7,0.5,6.8,0.7,9.1,0.7c13.8-0.6,20.7-1,20.7-1.3c0.3-0.5,0.8-0.7,1.5-0.7
		c0.1,0,1.8,1.1,4.9,3.2c1,0.5,2.7,1.1,5.2,1.8c0.3-0.2,0.7-0.3,1.1-0.3c0.4,0,0.8,0.6,1.4,1.7h-6.3c-0.8-0.7-1.5-1-2-1
		c-1.7,0.2-4.2,0.7-7.6,1.4c-1.1,0-1.8,0-2.2-0.1c-4.3,0.1-7.7,0.1-10.4,0.1h-3.2c-2.6,0-6.1,0-10.6-0.1c-0.1,0.1-0.2,0.1-0.3,0.1
		l10.1,10.6c2.1,2.2,3.1,3.5,3.1,4H790c-2.7,0-4.6-0.6-5.5-1.8c-0.4-0.4-1.4-1.9-2.8-4.3c-0.9-1.1-3.1-3-6.5-5.4
		c-2.8-2.3-6.1-4-9.7-5.3c-1.5-0.9-3.5-2.4-6-4.3c-1.3-1.2-3.4-1.8-6.1-1.8C752.5,642.4,752,642.1,752,641.9z"/>
	<path class="st1" d="M751.9,614.3v-1.1c0-3.6,2.2-7.1,6.6-10.5c2.1-1.4,4.2-2.1,6.2-2.1c5.2,0,16,4.7,32.2,14.1
		c3.6,2,5.5,2.9,5.7,2.9v-0.1c0-2.4,1-5.3,3.1-8.8c0.8-1.7,1.2-3,1.2-4.2c0-0.6-0.4-0.9-1.2-1c0-1.9-1.7-4-5.1-6.3
		c-6.2-2.6-9.6-4.1-10-4.6v-1c0-0.2,0.1-0.3,0.3-0.3h0.6c0.5,0,3.7,1.2,9.7,3.5c1.7,0.5,4.3,0.9,7.9,1.3c2.1,2.3,3.2,4,3.2,5.2v0.6
		c0,1.9-1.6,6.4-4.7,13.5v0.3c0,2.2,3.5,6.5,10.5,12.7c0.5,0.7,0.8,1.1,0.8,1.4v1.1h-2c-4.7-1.6-9.6-3.9-14.8-6.8
		c-20.8-12-33.2-18-37.3-18c-3,0-5.7,1.4-8.2,4.3c-0.5,1.2-0.8,2.1-0.8,2.8v0.4c0,1.8,3.4,4.4,10.1,8c2.6,1.1,5.6,3.2,8.9,6.1
		c0,0.1,0.5,0.7,1.5,1.8c0,0.1-0.2,0.3-0.5,0.4h-1.1c-0.3,0-2.6-0.7-6.8-2.2c-1.1,0-2.2-0.4-3.5-1.3c-3.7-1.7-6.8-3.5-9.3-5.3
		C753,619.2,751.9,616.9,751.9,614.3z M765.3,615.4c0.4-0.9,1.4-1.9,2.8-3.1c1.8,1,2.8,2.2,2.8,3.6c0,0.9-0.7,1.5-2.2,1.8h-0.3
		C767.8,617.8,766.7,617,765.3,615.4z"/>
	<path class="st1" d="M751.9,569.1V568c0-3.6,2.2-7.1,6.6-10.5c2.1-1.4,4.2-2.1,6.2-2.1c5.2,0,16,4.7,32.2,14.1
		c3.6,2,5.5,2.9,5.7,2.9v-0.1c0-2.4,1-5.3,3.1-8.8c0.8-1.7,1.2-3,1.2-4.2c0-0.6-0.4-0.9-1.2-1c0-1.9-1.7-4-5.1-6.3
		c-6.2-2.6-9.6-4.1-10-4.6v-1c0-0.2,0.1-0.3,0.3-0.3h0.6c0.5,0,3.7,1.2,9.7,3.5c1.7,0.5,4.3,0.9,7.9,1.3c2.1,2.3,3.2,4,3.2,5.2v0.6
		c0,1.9-1.6,6.4-4.7,13.5v0.3c0,2.2,3.5,6.5,10.5,12.7c0.5,0.7,0.8,1.1,0.8,1.4v1.1h-2c-4.7-1.6-9.6-3.9-14.8-6.8
		c-20.8-12-33.2-18-37.3-18c-3,0-5.7,1.4-8.2,4.3c-0.5,1.2-0.8,2.1-0.8,2.8v0.4c0,1.8,3.4,4.4,10.1,8c2.6,1.1,5.6,3.2,8.9,6.1
		c0,0.1,0.5,0.7,1.5,1.8c0,0.1-0.2,0.3-0.5,0.4h-1.1c-0.3,0-2.6-0.7-6.8-2.2c-1.1,0-2.2-0.4-3.5-1.3c-3.7-1.7-6.8-3.5-9.3-5.3
		C753,574,751.9,571.7,751.9,569.1z M765.3,570.2c0.4-0.9,1.4-1.9,2.8-3.1c1.8,1,2.8,2.2,2.8,3.6c0,0.9-0.7,1.5-2.2,1.8h-0.3
		C767.8,572.6,766.7,571.8,765.3,570.2z"/>
	<path class="st1" d="M748.4,509.7c3.3,0.3,5.3,0.4,5.9,0.4c0.4,0,4.4-0.8,12-2.4h1.5c0.2,0,0.4,0.2,0.7,0.6c-0.6,1-2,1.8-4.1,2.5
		c-0.7,0-1.3,0.4-1.6,1.3c0.2,2.3,6.2,7.3,18.1,15.1c1.6,1,2.5,1.5,2.8,1.5c0.7-0.8,1-1.6,1-2.2c-0.8-3.5-1.2-5.7-1.2-6.7v-0.1
		c0-5.3,3.7-9.3,11-11.9c1.9-0.6,3.6-0.8,5.1-0.8h2.3c4.5,0.1,6.7,0.4,6.7,0.8c5.1,3.7,7.7,6.3,7.9,8c1.3,2.3,2,4.2,2,5.7v2.1
		c0,4.3-2.3,8.3-6.9,12.1c-3.3,1.6-5.6,2.4-6.9,2.4h-10.9c-0.6-0.7-2.9-1.3-6.9-2.1c-3.5-1.1-9-4.4-16.5-9.8
		c-3.6-2.8-8.5-6.7-14.5-11.7c-0.9-0.5-2.9-1.3-5.9-2.2C748.9,511.4,748.4,510.5,748.4,509.7z M801,533.2c5.2,0,8.9-1.9,10.9-5.7
		c0.6-1,0.8-2.3,0.8-3.6V523c0-5.3-2.7-8.8-8.1-10.6c-1-0.4-2.3-0.6-3.8-0.6h-0.8c-0.7,0-2.1,0.6-4.1,1.8c-4.8,0.9-7.3,2.9-7.3,6.1
		v1.1c0,6,2.6,9.9,7.8,11.7C797.9,533,799.4,533.2,801,533.2z M797.3,523.4v-0.8c0-0.6,0.6-1.3,1.8-2.1h2.6c0.6,0.6,0.8,1.5,0.8,2.7
		c0,1.2-1,1.8-3,1.8h-0.3C797.9,524.7,797.3,524.2,797.3,523.4z"/>
	<path class="st1" d="M751.9,482.1V481c0-3.6,2.2-7.1,6.6-10.5c2.1-1.4,4.2-2.1,6.2-2.1c5.2,0,16,4.7,32.2,14.1
		c3.6,2,5.5,2.9,5.7,2.9v-0.1c0-2.4,1-5.3,3.1-8.8c0.8-1.7,1.2-3,1.2-4.2c0-0.6-0.4-0.9-1.2-1c0-1.9-1.7-4-5.1-6.3
		c-6.2-2.6-9.6-4.1-10-4.6v-1c0-0.2,0.1-0.3,0.3-0.3h0.6c0.5,0,3.7,1.2,9.7,3.5c1.7,0.5,4.3,0.9,7.9,1.3c2.1,2.3,3.2,4,3.2,5.2v0.6
		c0,1.9-1.6,6.4-4.7,13.5v0.3c0,2.2,3.5,6.5,10.5,12.7c0.5,0.7,0.8,1.1,0.8,1.4v1.1h-2c-4.7-1.6-9.6-3.9-14.8-6.8
		c-20.8-12-33.2-18-37.3-18c-3,0-5.7,1.4-8.2,4.3c-0.5,1.2-0.8,2.1-0.8,2.8v0.4c0,1.8,3.4,4.4,10.1,8c2.6,1.1,5.6,3.2,8.9,6.1
		c0,0.1,0.5,0.7,1.5,1.8c0,0.1-0.2,0.3-0.5,0.4h-1.1c-0.3,0-2.6-0.7-6.8-2.2c-1.1,0-2.2-0.4-3.5-1.3c-3.7-1.7-6.8-3.5-9.3-5.3
		C753,487.1,751.9,484.8,751.9,482.1z M765.3,483.3c0.4-0.9,1.4-1.9,2.8-3.1c1.8,1,2.8,2.2,2.8,3.6c0,0.9-0.7,1.5-2.2,1.8h-0.3
		C767.8,485.6,766.7,484.8,765.3,483.3z"/>
</g>
<text transform="matrix(0.9084 -0.418 0.418 0.9084 1262.0891 292.5515)" class="st1" style="font-family:'SatanycDemoniacSt'; font-size:71.5049px;">12262</text>
</svg>
