<?xml version="1.0" encoding="utf-8"?>
<!-- Generator: Adobe Illustrator 26.0.1, SVG Export Plug-In . SVG Version: 6.00 Build 0)  -->
<svg version="1.1" id="Слой_1" xmlns="http://www.w3.org/2000/svg" xmlns:xlink="http://www.w3.org/1999/xlink" x="0px" y="0px"
	 viewBox="0 0 400 400" style="enable-background:new 0 0 400 400;" xml:space="preserve">
<style type="text/css">
	.st0{fill:#F8F8F8;}
	.st1{fill-rule:evenodd;clip-rule:evenodd;fill:#713F13;}
	.st2{fill-rule:evenodd;clip-rule:evenodd;fill:#FFFFFF;}
	.st3{fill-rule:evenodd;clip-rule:evenodd;fill:#DE7C29;}
	.st4{fill:#713F13;}
	.st5{fill:#DE7C29;}
</style>
<rect x="-16" y="-17.2" class="st0" width="461.7" height="444.1"/>
<g>
	<path class="st1" d="M361,336.7l-1.4-0.1c-1,0.3-2.1,0.6-3.1,0.8c-1.6,0.2-3.2,0.2-4.8,0c-0.5,0.1-0.9,0.2-1.4,0.3
		c-1.9,0.3-3.8,0.3-5.7-0.1l-0.9,0.2l-0.6,0.1c-2.5,0.4-5.1,0.1-7.5-0.7c-2.3,2-5.2,3.2-8.2,3.6c-1.7,0.2-3.4,0.2-5.1,0
		c-2.5,2.8-5.9,4.7-9.6,5.1c-2.9,0.5-5.8,0.1-8.5-1l-0.8,0.5l-0.4,0.3c-3.1,2.4-7,3.7-10.9,3.4c-1.7,0.9-3.6,1.5-5.5,1.7
		c-1,0.1-2,0.2-2.9,0.2c-0.9,0.3-1.9,0.5-2.8,0.7c-1.3,0.2-2.5,0.2-3.8,0.1c-1.1,0.5-2.3,0.8-3.5,0.9c-2.3,0.7-4.6,1.2-6.9,1.6
		c-1.4,0.2-2.8,0.2-4.2,0c-1.4,0.6-2.9,1-4.4,1.2c-0.9,0.1-1.9,0.2-2.8,0.2c-0.9,0.3-1.8,0.5-2.7,0.6c-2.1,0.3-4.2,0.2-6.3-0.3
		c-1.4,0.6-2.8,1-4.2,1.2c-2,0.3-4.1,0.2-6.1-0.2c-0.8,0.2-1.6,0.4-2.5,0.5c-2.5,0.4-5.1,0.2-7.5-0.7c-3.2,2.6-6.2,5.5-9.1,8.3
		c5.3,7.7,11.1,15.1,17.5,21.9c4.1,4.2,9.3,1.4,14.3,0.1c3.5-0.9,7.2-1.7,10.2-2.3c6.6-1.3,14.1-3.6,20.5-4c4.6-0.3,9.4,1,14.3,1.1
		c4.7,0,9.4-0.2,13.9,0c4.4,0.4,8.9,0.2,13.3-0.6c3.9-0.8,7.2-2.7,11.3-4.1c1.1-0.4,2.1-0.7,3.3-0.9c4.3,0.5,8.4,1.5,12.4,3
		c3.2,1.3,5.4,4.5,8.6,4.2c1.4-0.9,1.8-2.3,3-3.5c1.1-1.3,2.5-1.8,3.4-3.2c2.3-4.6,3.9-9.5,4.7-14.6c0.3-2-0.2-4.2,0.2-6.5
		c0.6-3.5,1.4-7,2.5-10.4c0.5-1.4,1-3,1.5-4.5C367.8,340.1,364.2,338.8,361,336.7z"/>
	<path class="st2" d="M367.7,340.1c0.4,0.5-0.3,1.7-0.4,2.5c-20.3,1.4-38.2,7.1-58.4,9.3c9.5-1.9,18.8-5,28.5-7.1s19.7-2.7,29.8-4.6
		C367.4,340.3,367.6,340.3,367.7,340.1z"/>
	<path class="st3" d="M365.3,344c-1,5.7-5.6,11.3-8,16.7c-1.1-0.4-1.1-0.8-2.4-0.8c0.9,1,2,2.3,0.9,4c-1.1,0-1.9-2.7-3.7-2.3
		c0,1.4,2.4,2.8,2.6,4.6c-1,0.1-1.2-1.6-2.8-1.6c-0.5,1.1,1.5,2.3,2,3.5c-0.7,1.2-1.1,3.2-1.8,4.5c-5.5-4-10.1-6.8-19-7.8
		c-3-0.4-6.8,3.6-9.5,4.2c-1.6,0.4-3.5,0.2-5.3,0.4c-4.8,0.7-9.9,2-14.7,2.4c2-2.1,3.2-5.4,4.8-8.3c-2.5,2-5.3,4.9-6.1,8.7
		c-1.3-0.2-2.2,0.3-3.5,0.1c2.1-2.2,3.7-4.7,4.9-7.5c-2.4,1.2-5.5,5.3-5.4,7.6c-16.9,1.6-38.6-1-57.2-0.3c-2.6,0.1-6.3,0.8-8,0.2
		c-2.5-0.8-4.2-3.8-6-5.2c10.1-1.3,20-3,30.5-3.7c0.6,0.5-0.7,0.7-0.6,1.5c0.8-0.2,1.1-1.3,1.8-1.7c9.1-1.6,18.5-1.4,27.2-3.8
		c8.4-2.5,17-4.5,25.6-6c17.7-2.6,35.2-6.5,53.4-9.3L365.3,344z M348.5,354.3c-0.7,1.6-2.5,3.5-1.4,4.8c2.3-2.9,3.9-6.3,4.5-9.9
		c0-0.2-0.1-0.3-0.4-0.3C350,350.6,349.1,352.4,348.5,354.3z M350.9,354c-0.7,1.3-2,3.2-1,4.2c1.8-2.3,3-5.2,3.4-8.1
		C352.8,351.2,351.7,352.5,350.9,354L350.9,354z M344.1,358c1.4,0.1,1.1-1.7,1.6-2.9c0.9-2.2,2.8-4.3,2.1-5.8
		C346.2,351.4,343.8,354.6,344.1,358L344.1,358z M352.3,359c1.4,0.2,2.3-3.7,2.1-4C354.1,356.7,352,357.1,352.3,359L352.3,359z
		 M330.2,353.9c0.6,0.9,2.4,1.1,3,0.3C334.2,351.6,329.6,351.2,330.2,353.9L330.2,353.9z M348.6,364.5c2.1,0.3,1.2,4,3.5,4.8
		C353.1,367.3,350.6,364,348.6,364.5L348.6,364.5z M321.6,361.5c4.6,0.4-0.4-7.7-1.8-1.4C320.6,360.9,320.5,361.4,321.6,361.5z
		 M315.1,362.1c1.2-0.3,1.6-2,2-3.5C315.4,355.4,311.5,361.2,315.1,362.1L315.1,362.1z M295.3,371.2c2.7-1,4.6-5.9,6.4-9.3
		c-0.3-0.1-0.2-0.4-0.6-0.4C299.2,364.7,296.7,367,295.3,371.2L295.3,371.2z M296.9,362.6c-1.7,1.8-5.8,5.1-4.9,7.7
		c2.2-2.3,4-4.8,5.6-7.6L296.9,362.6z M285.3,362.9c0.1,2-0.5,4.5,1.3,5.5C288.6,367.4,287.8,361.3,285.3,362.9L285.3,362.9z
		 M282.7,368.9c0.9-1.4,1-3.1,0.4-4.6C279.9,363.7,281.9,368,282.7,368.9L282.7,368.9z"/>
	<path class="st2" d="M363.4,353.9c-0.6,3.3-1.6,6.6-2.8,9.7c-1.6-0.7,0-3,0.6-4.5C362,357.3,362.8,355.6,363.4,353.9z"/>
	<path class="st2" d="M360.3,364.9c-1.1,3.6-2.7,7.1-4.6,10.4c-0.9-1.4,0.4-3.6,1.1-5.4s1.6-3.6,2.1-5.1
		C359.6,365.1,359.7,364.6,360.3,364.9z"/>
	<path class="st2" d="M335,369.6l1.1,0.3c0.2,1,0.2,2.1,0.2,3.1c-0.8-0.2-1.4,0.7-1.9,0C334.9,371.7,334.5,370.9,335,369.6z"/>
	<path class="st2" d="M339,370.6l0.7,0.2c0,0.7,0,1.4,0,2.1C338.6,372.6,338.9,371.5,339,370.6z"/>
	<path class="st2" d="M280,356.7c0.3,1.8-3.3,2.5-5.3,2.5C276.2,357.8,278,357,280,356.7z"/>
	<path class="st2" d="M332.3,369.2c-0.4,1.5-0.7,3-0.8,4.5c-1.6,0.4-3.2,0.6-4.9,0.7C327.4,370.9,329.3,369.2,332.3,369.2z"/>
	<path class="st2" d="M341.8,371.7c1.2,0.3,2.3,0.8,3.4,1.5l-0.3,1.3c-1.3-0.4-2.6-0.8-3.9-1.4C341.1,372.5,341.7,372.6,341.8,371.7
		z"/>
	<path class="st2" d="M347,373.9c1.3,0.5,2.2,1.3,2.2,2.6c0.8-0.5,1-0.4,1.8,0.2c-0.1,0.4-0.4,0.4-0.4,0.8c-1.4-0.6-2.5-1.4-4-2.1
		L347,373.9z"/>
	<path class="st2" d="M274,357.6c0.7,0.7-1.9,1-2.5,1.5s-1,1-2,0.7C270.8,358.9,272.1,357.7,274,357.6z"/>
	<path class="st2" d="M325.8,371.4c0.7,0.6-0.8,2.4-1.1,3.5c-0.7,0.2-1.5,0-2,0.5C322.6,373.5,324,371.8,325.8,371.4z"/>
	<path class="st2" d="M354,379.4c-0.5,0.3-1.9-0.5-1.8-1.1C352.9,377.9,353.4,379,354,379.4z"/>
	<path class="st2" d="M268.6,358.2c-1.4,0.7-2.3,2.3-4.1,2.3C265.8,359.5,267.2,358.7,268.6,358.2z"/>
	<path class="st2" d="M264.4,358.4c0.4,0.8-2.2,1.7-3.3,2c0.6-0.5,1.1-1.1,1.4-1.8C263.1,358.8,263.8,358.7,264.4,358.4z"/>
	<path class="st2" d="M321.6,372.8c0.6,0.6-1,2.9-1.7,3.4C319.7,375,320.6,373,321.6,372.8z"/>
	<path class="st2" d="M261.5,358.6c0.4,1.9-2.8,3.3-5,3C258.1,360.5,259.8,359.5,261.5,358.6z"/>
	<path class="st2" d="M257.2,359c0.4,1.1-3,1.4-3.6,3.1c-1.3,0-2.5,0.3-3.8,0.3C252.2,361.1,254,359,257.2,359z"/>
	<path class="st2" d="M318.3,373.6c0.5,0.8-0.9,3.6-2.4,3.2c0.5-0.9,0.9-2,1.4-3C317.6,374,318,373.9,318.3,373.6z"/>
	<path class="st2" d="M315,374.7c-0.8,0.6-0.7,2.5-2,2.3C313.4,375.9,313.5,374.2,315,374.7z"/>
	<path class="st2" d="M311.6,375.1c0.3,0.5-0.7,1.6-1,2.1l-1.3-0.3l0.3-1.3C310.3,375.3,311,375.3,311.6,375.1z"/>
	<path class="st2" d="M307.7,375.8c0,1.4-1.3,0.9-2.3,0.8C305.5,375.4,306.7,375.8,307.7,375.8z"/>
	<path class="st2" d="M242.5,356.9c2.5-0.2,5-0.4,7.6-0.6c-1.3,0-2.6-0.1-3.8-0.4C245,356.3,243.8,356.7,242.5,356.9z"/>
	<path class="st2" d="M238.2,357.1c-0.8-0.1-1.5-0.2-2.3-0.4c-0.8,0.2-1.6,0.4-2.5,0.6c-2.5,0.4-5.1,0.2-7.5-0.6
		c-1.7,1.4-3.3,2.8-4.9,4.3c0.7,0.7,1.5,1.5,2.1,2.3c2.6-3.6,8.6-3.2,11.9-4.7c-2.6,0.2-6.2,0.5-8.1,0.6
		C230.2,357.2,234.3,357.2,238.2,357.1z"/>
	<path class="st2" d="M361.2,335.9l-1.4-0.1c-1,0.3-2.1,0.6-3.1,0.7c-1.6,0.2-3.3,0.2-4.9,0c-0.4,0.1-0.8,0.2-1.3,0.3
		c-1.9,0.3-3.8,0.3-5.7-0.1c-0.3,0-0.6,0.1-0.9,0.1l-0.6,0.1c-2.5,0.3-5.1,0.1-7.5-0.7c-2.3,2-5.2,3.2-8.2,3.6
		c-1.7,0.3-3.4,0.3-5.1,0c-2.5,2.8-5.9,4.6-9.6,5.1c-2.9,0.5-5.8,0.1-8.5-1l-0.8,0.5c-0.1,0.1-0.3,0.2-0.4,0.3
		c-3.1,2.4-7,3.6-10.9,3.4c-1.7,0.9-3.6,1.5-5.5,1.8c-1,0.1-2,0.2-3,0.2c-2.1,0.7-4.3,1-6.5,0.8c-1.1,0.5-2.3,0.8-3.5,0.9
		c-2.3,0.7-4.6,1.2-6.9,1.6c-1.4,0.2-2.8,0.2-4.2,0c-1.4,0.6-2.9,1-4.4,1.3c-0.9,0.1-1.9,0.2-2.8,0.2c-0.6,0.2-1.2,0.3-1.8,0.4
		c7.4-0.8,14.8-1.6,22.1-1.7c2.4,0,4.9,0.2,7.5,0.1c4.5-0.1,8.8-2.2,12.3-3.2c4.7-1.3,9.5-2,14.3-2.9c17.9-3.5,36.9-8.6,55.7-9.4
		C363.9,337.5,362.5,336.7,361.2,335.9z"/>
	<path class="st2" d="M293.6,354.8c-4,1.5-8.1,2.6-12.3,3.4C284.3,355.2,289.6,356,293.6,354.8z"/>
	<path class="st2" d="M244.2,360.3c-0.9,1-2.2,1.1-3.1,2.1c3.8,1.3,5.6-3.3,9.6-2.6c-0.9,1.2-2.8,0.8-3.1,3c-3.7,0-7.4,0.6-11,1.7
		C238.4,363.1,240.8,360.1,244.2,360.3z"/>
	<path class="st2" d="M232,361.9c0.1,1.2-3,1.2-2.4,3.2c3.5-0.1,4.7-4.1,8.3-4.1c-0.5,1.2-2.8,2.1-3.8,3.3c-0.1,0.6,0.5-0.2,0.9,0.2
		c-2.7,1-5.9,1.2-8.9,1.9c-1.1-0.8-2-1.8-2.6-3c1.7,0,2.6-1.1,4.1-1.4c-0.5,1.4-2.2,1.6-2,3.3C228.5,365.3,229.1,361.8,232,361.9z"
		/>
	<path class="st2" d="M236.8,379.7c5.7-0.7,12-0.5,17.7-1.2c0.3,0.7-0.8,0.4-1,0.4c-2.7,0.7-6.1,1.1-9.3,1.8c-1.2,0.4-2.3,0.8-3.5,1
		C238.9,381.6,238.3,379.7,236.8,379.7z"/>
	<path class="st1" d="M362.2,231.2c0.3-3.7,2.2-8.7,3.5-13.3s2.7-9.4,4-13.5c3.5-10.7,11.5-26.3,2.3-33c-2.4-7.4-7-15.3-10.9-23.5
		c-6.4-13.5-14.1-22.2-16.2-35.8c-0.8-5.1,0-10.8-5.1-12.6c-17.8-6.4-37.4-5.7-55.8-8.6c-1.3,1.2,1.3,1.5,1.1,2.4
		c-12.8-1-25.5,1-39.4-2.4c-0.3,0-0.6,0-0.8,0c-8.5-2.7-15.9-5.2-24.1-6.3c-7.9-1-15.7-1.9-23.4-3.3c-2.9-0.5-6.5-2.1-8.3-1.2
		c-2.2,1.1-1.8,3.3-3.5,5.7c-1.9,2.6-7.1,5.8-10.8,8.5c-3.7,2.7-7.9,5.3-11,7.4c-7.5,5.1-15,12.2-21.6,16.8c-2.3,1.6-5.2,2.6-8,4.6
		c-2.7,1.9-5.3,3.5-8.1,5.4c-4.9,3.3-12.9,9.6-14.8,15c-0.8,2.1,0.4,5.5,0.3,7.9c-0.2,3.9-1.9,8.6-1.9,12.2c0,4.5,1.1,10.2,1.8,15.3
		c0.7,5.4,3.2,10.9,2.8,15.1c-0.2,1.4-0.5,2.9-0.9,4.2c5.5-0.6,11.1,0.6,15.8,3.6c3.3-3.6,7.6-6.2,12.3-7.5c0.3-0.5,0.7-0.9,1-1.3
		c0.9-1.3,2.2-2.4,3.6-3.2c2.5-5.8,9.1-8.7,15.1-6.7c3.9,1,7,3.8,8.4,7.5c0.9,1.5,1.4,3.2,1.6,4.9c0.4,0.4,0.9,0.7,1.3,1.1
		c1.3,1.4,2.2,3,2.8,4.8l0,0l2,2.8c1.1,2,1.7,4.3,1.6,6.6c-0.2,1.2-0.4,2.3-0.5,3.5c0,0.2-0.1,0.4-0.2,0.5l1,0.2
		c3.1,0.7,6.4,0.9,9.6,0.7c-1.5,0-0.8,0,0.2-0.1c0.5-0.5,1.1-1,1.7-1.4c7.7-6.8,20.7-5.3,28.6-0.3c4.2,2.6,7.5,6.4,9.4,11
		c1.4-0.8,2.8-1.5,4.3-2.1c2.1-1.6,4.5-2.8,7.1-3.4c3.8-0.9,7.6-1.8,11.5-2.5c13.7-2.5,22.8,5.8,25.9,16.5c2.5,1.1,5,2.1,7.6,2.8
		c5.1,1.6,10.4,2.4,15.8,2.3l0.4-0.6l0.5-0.6c0.4-0.5,0.9-1,1.4-1.5l0.5-0.4c0.4-0.4,0.7-0.7,1.2-1l0.6-0.5c0.4-0.3,0.8-0.6,1.3-0.9
		l0.5-0.4c0.6-0.4,1.2-0.7,1.9-1.1l0.3-0.2c0.6-0.3,1.1-0.5,1.7-0.7l0.7-0.2c0.5-0.2,1.1-0.4,1.6-0.5c0.2,0,0.4-0.1,0.6-0.2
		c0.7-0.2,1.5-0.3,2.3-0.5h0.2c0.7-0.1,1.5-0.2,2.2-0.2h0.8h1.9h0.8c0.9,0.1,1.8,0.2,2.7,0.3c1.2,0.2,2.4,0.5,3.6,0.9l0.9,0.3
		c0.9,0.3,1.7,0.6,2.5,1l0.7,0.3c1,0.5,1.9,1,2.8,1.7l0.5,0.4c0.7,0.5,1.4,1.1,2,1.7l0.6,0.6c0.6,0.6,1.1,1.2,1.6,1.8
		c1.9-0.6,3.8-0.9,5.8-0.8c5.8,0.2,11.7-0.7,17.5-0.7C362.7,234.6,362.3,232.9,362.2,231.2z"/>
	<path class="st2" d="M337.2,106.3c0.7,1.9,1.1,3.9,1.1,5.9C337,111.7,336.2,107.5,337.2,106.3z"/>
	<path class="st2" d="M348.1,141.1c1.1,0.7,0.8,1.8,1.9,2.5c-3.6,10.6-2.8,21.6-4.4,30.9c-1.7-2.1-1-5.4-0.8-7.8
		C345.3,158,346.5,149.5,348.1,141.1z"/>
	<path class="st2" d="M334.5,133.1c-0.3,12.1-4.2,25-5.3,37.2c-1,0.5-2.1,0.5-3.2,0.2c2.8-11.7,2.8-22.6,7.7-34.9
		c0.6-1-1.7-1.4-0.6-2.5C333.6,133,334.1,133.5,334.5,133.1z"/>
	<path class="st2" d="M316.9,127.4c-0.5,12.5-4.9,26-7.3,39C310.3,153.1,312.7,140,316.9,127.4z"/>
	<path class="st2" d="M302.2,120.5c-0.5,13.3-5.8,27.8-8.5,41.7c1.7-10.6,2.7-26.5,6.2-38C300.3,122.8,301.1,121.5,302.2,120.5z"/>
	<path class="st2" d="M273.5,165.6c0.9-16.3,3.9-32.4,8.9-47.9c0.5,0,1,0.1,1.4,0.5c-2.2,11.6-4.6,24.2-6.9,36.3
		C276.2,158.3,275.8,162.7,273.5,165.6z"/>
	<path class="st2" d="M266.1,115.4c0.3,0.1,0.2,0.3,0.1,0.5c0.3,0.1,0.2,0.3,0.1,0.5c-0.4,9.9-3.7,21-6.3,31.9
		c-0.8,3.2-0.9,7.3-3.3,9.6c-1.4-3.2,0-7,0.8-10.3c2.2-10.1,5.1-21.1,7.3-31.3C265,115.3,265.8,116.1,266.1,115.4z"/>
	<path class="st2" d="M246.7,110l0.9,0.6c-0.6,1.3-1.5,1.2-2.1,2.6C244.5,112,245.9,110.9,246.7,110z"/>
	<path class="st2" d="M246.5,115.8c1.4,2.5-1,4.6-3,6.3C242.3,119.7,244.9,118.1,246.5,115.8z"/>
	<path class="st2" d="M228.8,107.5c0.4,0.7,0.4,1.5,0,2.1c-0.7-0.2-1.5,0-2,0.5C226.3,108.8,228.3,108.4,228.8,107.5z"/>
	<path class="st2" d="M245.3,123.3c0.6,0.2,0.4,0.6,0.7,0.9c-1,1.6-2.5,0.9-3.4,2.7C242.4,125.2,244.7,124.7,245.3,123.3z"/>
	<path class="st2" d="M227,113.2c1,0.6-0.3,1.8,0.1,2.6c-0.7,0.6-1.3,1.2-2.2,0.8C225.2,115.3,225.9,114.1,227,113.2z"/>
	<path class="st2" d="M244.4,128.3c0.5,3.4-0.9,5.8-3.9,8.4C239.8,133.9,242,130.7,244.4,128.3z"/>
	<path class="st2" d="M204.6,104.2c0.4,0.2,0.5,0.4,0.4,0.7c-0.5,9.4-1.2,20.3-6,29.9c1.4,2.6-0.7,8-1.8,11.3
		C198.3,132.5,201.6,118.3,204.6,104.2z"/>
	<path class="st2" d="M226,119.1c0.6,1.7-0.3,4.8-2.1,5.6C223.5,122.5,224.3,120.4,226,119.1z"/>
	<path class="st2" d="M219.8,116.6l0.9,0.6c-1.8,7.6-11.1,9-16.4,12.7C205.3,121.7,214.7,121.1,219.8,116.6z"/>
	<path class="st2" d="M186.3,97.6c0.6,0.2,0.3,0.6,0.7,0.9c-2.2,13.7-3.9,28.8-8.4,42.2c-0.3-9,2.1-20,3.7-30.4
		C183,105.5,182.1,100.8,186.3,97.6z"/>
	<path class="st2" d="M199.4,110.4c0.2,7.2-8.6,9-13.4,12C186.6,114.8,194.7,114,199.4,110.4z"/>
	<path class="st2" d="M242.8,137.2c-0.3,6.5-1.9,12.8-4.6,18.7c-3-0.3-1-4.4-0.5-6.8C238.5,144.8,238.7,140.7,242.8,137.2z"/>
	<path class="st2" d="M224.1,126.9c0.1,1.4-0.2,5.5-2.7,4.4C221.9,129.6,222.4,127.7,224.1,126.9z"/>
	<path class="st2" d="M218.6,124c1,1.1-0.6,2.8-0.4,4.1c-4.9,2.6-10.1,4-14.7,7.7C206,129.8,214,128.3,218.6,124z"/>
	<path class="st2" d="M180.4,103c-1.2,14.5-7.8,30.3-4.6,43.7c1.3,0.8,2.3-0.7,2.5-1.9c1.2,3.2-4,3.6-5.7,5.1c3.1,2.6,6.3-1.3,9.2-3
		c3.2-1.6,6.2-3.5,9.1-5.7c-2.8-1.3-6.5,3.4-9.9,3.4c3-6,8.8-7.3,13.1-10.8c0.2,3.2-1.1,6.8-1.1,10.1c-7.2,4.2-14.3,8.5-21.8,11.6
		c3.7,2.4,7.7-1.2,11-3.1c3.6-1.9,7.1-4.1,10.4-6.5c1.1,0.5-0.1,1.6,0.8,2.2c-5.3,2.2-10.4,5.7-15.7,8c-0.1,0.5,0.3,0.8,0,1.3
		c7.1,0.1,12.2-8.3,19.5-7.8c0.1,0.9-1.4,2.3,0.4,2.8c-3.9,2.8-7.8,5.1-11.7,7.8c-12.3-3.6-24.2-5.6-36.3-8.2
		c-0.7-1.2,1.3-0.3,1.4-1.7c-2.6-1.7-4.4,0.1-6.9-0.8c0.8-1.5,2.6-3.3,1.4-4.3c-1.6-0.2-2.6,2.3-3.8,4.1c-2.2-3,4.2-8.1,2.6-11.3
		c0.7-1.3,2.2-2.8,1.5-3.8c-1-0.9-1.5,0.3-2.1,1.3c3.9-7.3,13.4-10.2,19.3-16.5c-1.2,9.7-3.2,19.6-1.7,28.6c1,0,0.2-0.9,1.3-1.4
		c1.4,0.2-0.5,1.2,0.4,1.5c4.1-5,4.2-12.2,5.8-18.4c1.5-6.5,3.1-12.9,4-19.1C175.3,107.8,177.9,105.7,180.4,103z M184.1,157
		c2.4,0.9,6.9-0.7,6.8-2.7C188.7,155.4,186.4,156.3,184.1,157z"/>
	<path class="st2" d="M197.3,118.2c-0.6,5.2-8.7,6.2-12.1,10.6c-1.2-1.1,0.4-2.9,0.6-4.4C190.1,124.5,193.5,120.7,197.3,118.2z"/>
	<path class="st2" d="M217.1,131.3c0.4,6.6-11.3,9.2-15.7,12.2C203.9,135.7,212,134.9,217.1,131.3z"/>
	<path class="st2" d="M222.4,134.6c-0.4,1.9-0.5,5.2-2.8,6C219.1,138.5,220,135.2,222.4,134.6z"/>
	<path class="st2" d="M171.3,105.1c0.7,1.3-2.7,3.4-3.7,4.6c-0.2-0.5-0.6-0.9-1.1-1.1C168,107.1,169.8,106.8,171.3,105.1z"/>
	<path class="st2" d="M196.3,123.2c0.1,6.8-8.8,7.5-12.7,11.5C184.4,129.1,192.6,127.5,196.3,123.2z"/>
	<path class="st2" d="M336,211.6l1.6,1c-1.9,1.4-3.7,2.8-5.3,4.5C331.4,214.9,335.2,214.1,336,211.6z"/>
	<path class="st2" d="M339.1,214.3c1,0.6,1.2,1.3,1.8,2c-1.7,1.4-3.6,2.2-5.1,4.1c-1.1-0.4-0.9-1-1.7-1.4
		C335.5,217.3,337.2,215.7,339.1,214.3z"/>
	<path class="st2" d="M215,138.2c0.5,8.2-10.3,8.1-14.8,12.8C200.9,143.6,210.5,143.2,215,138.2z"/>
	<path class="st2" d="M220.1,142.6c-0.8,3.8-1.8,9.1-3.7,12.3c-1.8-1.1,0.5-2.5,0.8-3.4c0.8-2.6,1.3-5.3,1.5-8.1
		C219,142.5,219.7,143.2,220.1,142.6z"/>
	<path class="st2" d="M341.7,217.7c1,0.5,1.9,1.3,2.4,2.3c-1.9,1.2-3.8,2.5-5.5,4c-0.8-0.3-0.3-1-1.4-1.3
		C338.6,220.3,340.4,219.8,341.7,217.7z"/>
	<path class="st2" d="M195.1,129.3c0.5,0.7-0.4,1.7-0.2,2.5c-4.3,1.6-8.2,5-12.6,6.4C186.4,134.6,191,132.8,195.1,129.3z"/>
	<path class="st2" d="M168.3,114.9c0.2,1.1,0,2.2-0.6,3.1C167.4,116.9,167.6,115.8,168.3,114.9z"/>
	<path class="st2" d="M213.4,145.8c0.6,2-1,4.5-0.6,6.5c-6.4,3.1-13,6-19.2,10.1c-1.4-0.5-2.8-0.9-4.3-1.4
		C197.3,155.7,205.3,150.7,213.4,145.8z"/>
	<path class="st2" d="M298.5,202.6c-0.6,1.4-2,0-3.1-0.6c0.4-0.5,0-0.9,0.5-1.4C296.6,200.5,299,201.6,298.5,202.6z"/>
	<path class="st2" d="M211.9,154.4c1.1,1.2-0.1,3.1,1.3,4.2c-5.3,1.3-9.3,7.9-15.7,4.5C202.3,160.1,207.3,157.8,211.9,154.4z"/>
	<path class="st2" d="M265.2,195.8c2.7,2.9,4.4,6.1,7.4,8.9c-0.8,0.9-1.9,1.4-3.1,1.5c-1.9-2.3-2.1-5-5.1-7.1
		c-1.1-0.2-1.8,0.6-2,1.8c-1.4-1.3-4.1-1.7-4,0.1c-3,0.1-5.3,2.9-8.1,4c0-3.1,4-3.6,6.3-4.7C259.6,199.1,262.2,197.1,265.2,195.8z"
		/>
	<path class="st2" d="M275.1,207.6c-1.3,1-2.4,2.5-4.1,1.8C271.3,208.1,273.4,206.1,275.1,207.6z"/>
	<path class="st2" d="M276.6,209.4c0.2,0.6,1,1,1.2,1.6c-1.5,0.6-2.8,2.2-4.7,1.4C273.1,210.4,275.6,210.5,276.6,209.4z"/>
	<path class="st2" d="M280.3,213.8c-1.6,0.8-3.1,1.9-4.9,1.7c0.2-0.3-0.2-0.5-0.4-0.7C276.5,214,279,211.8,280.3,213.8z"/>
	<path class="st2" d="M283.2,216.9c-1.1,0.7-2.4,0.2-3.3,1.9c0.9,1.9,3.3,0.5,4.5-0.3c1,2.3-2.4,1.9-3.1,3.7
		c1.6,2.1,3.9-1.9,6.3-0.4c-1.1,2.2-2.6,2.3-4.1,3.1c-3.1-2.1-4.2-4.7-6.4-7C278.9,216.9,281.4,214.6,283.2,216.9z"/>
	<path class="st2" d="M193.2,172.2c3.6-1.3,6.6-5.2,10.8-3.6c0.6,0.2,0.4,0.6,0.2,1C200.5,169.8,197.2,171.9,193.2,172.2z"/>
	<path class="st2" d="M240.5,191.8c-1,1.2-3.5-0.7-2.6-2.1C239.1,189.8,240.2,190.6,240.5,191.8z"/>
	<path class="st2" d="M196.4,166.3c-0.3,1-4.4,2-6.6,2.4c-2.5,0.5-5.7,0.9-8-0.2C186.7,168.1,191.1,165.3,196.4,166.3z"/>
	<path class="st2" d="M181.8,162c0,1.4-4.8,1.3-6.9,1.4c-1.4,0.2-2.5,1.6-4.2,0.5C174.4,162.8,178.1,162.2,181.8,162z"/>
	<path class="st2" d="M139.5,136.3c-1,3.7-4.5,6.4-6.5,9.8c-2.6-1.3-4.6,0-7.1-0.5C130.5,142.5,135,139.7,139.5,136.3z"/>
	<path class="st2" d="M175,160.4c-3,1.4-8.6,1.1-12.9,0.7C166.4,160.7,170.4,159.3,175,160.4z"/>
	<path class="st2" d="M246.7,205.5c-0.3,2.8-3.5,3.3-5,4.6C241.2,208,245.2,206.8,246.7,205.5z"/>
	<path class="st2" d="M216.7,191c-2.4,2.1-5.4,7.7-8.2,4.9c1.2-1.3,3.5-4.1,3.8-5.4c-1.1,1.7-3,2.7-5,2.5
		c-8.1,4.7-15.9,10.8-24.7,12.7c-5.9-5.6-8.9-13.5-14.2-19.5c-3-3.4-7.7-5.1-9.7-9.4c-1,1,0.2,1.4-0.5,2.3
		c-11,5.8-21.8,12.2-32,21.2c1.3,0.7,2.9,0.8,4.3,0.3c3-2.7,6.7-4.7,10.6-5.8c0.3-0.5,0.7-0.9,1.1-1.3c0.9-1.3,2.2-2.4,3.6-3.2
		c2.6-5.8,9.1-8.7,15.1-6.7c3.9,1,7.1,3.9,8.4,7.7c0.9,1.5,1.4,3.1,1.7,4.8c0.4,0.3,0.8,0.7,1.2,1c1.3,1.4,2.2,3,2.8,4.8l0,0l2,2.7
		c1.1,2,1.7,4.3,1.6,6.6l-0.3,1.7c6.3-3.9,13.2-6.8,19.8-10s14-5.4,19.4-10.4C217.2,192,217.1,191.4,216.7,191z"/>
	<path class="st2" d="M221,197c-0.5,0.4-0.9,0.5-1.4,0.9c-0.9-0.8-1.5-1.6-0.4-2.8C220.2,194.8,220.3,196.3,221,197z"/>
	<path class="st2" d="M189,179c1.4,0.6-0.7,1.9-0.9,2.8c-1.2-0.5-1.1-1.4-1.3-2.1C187.3,178.6,188.3,179.4,189,179z"/>
	<path class="st2" d="M222.4,199.6c0.8,0.9,1.5,1.9,2,3c-0.3,0.8-1,0.3-1.3,1.4c-0.8-0.9-1.5-1.9-2-3
		C221.4,200.1,222.1,200.6,222.4,199.6z"/>
	<path class="st2" d="M143.5,152.2c1.3,0.5-0.6,2.4-1.3,1.4C142.4,153,142.9,152.4,143.5,152.2z"/>
	<path class="st2" d="M236.8,211.1c0,2-2.5,3.6-3.7,4.6c-1.4-0.9-1.7-2.1-2.8-3.1C232.8,213.7,234.8,212.5,236.8,211.1z"/>
	<path class="st2" d="M225.8,205.1c0.6,1.3,2,2.4,1.4,3.9c-1.6-0.7-1.4-1.8-2.7-2.6C224.8,205.5,225.4,206,225.8,205.1z"/>
	<path class="st2" d="M131,148.7c-3.2,0.2-6.2,1.4-9.6,0.9C124.4,148.9,127.4,147.5,131,148.7z"/>
	<path class="st2" d="M230.6,210.7c0.3,0.3-0.2,0.7,0.2,1c-0.4,0.5-1,0.4-1.6-0.1C229.5,210.6,230.2,211.3,230.6,210.7z"/>
	<path class="st2" d="M144.8,159.8c0.6,1.1-0.5,2.6-1.2,4c-0.8-0.7-1.4,0.1-2.2-0.5c1.2-1.4,0.7-2.3,1.8-3.6
		C143.6,159.5,144.4,160.4,144.8,159.8z"/>
	<path class="st2" d="M181,183.5c1,0.5,1.3,2.5,2.6,2c-0.5,1.8-3.7,1.7-5.1,3.3c-1-0.8-1.2-1.9-2.2-2.7
		C177.8,185,179.5,184.6,181,183.5z"/>
	<path class="st2" d="M139.8,158.9l0.9,0.6c-1.4,1.4-1.1,3.4-2.5,4C137.8,162.3,139.3,160.4,139.8,158.9z"/>
	<path class="st2" d="M127.9,152.4c1.2,0.3-0.1,1.3-0.3,2c-2.1-0.3-4.2-0.3-5.7,1.6c-0.4-0.6-0.7-1.2-1-1.9
		C123,153,125.6,153.5,127.9,152.4z"/>
	<path class="st2" d="M128.9,156.9c1.2,2.3-2.5,5.7-2.6,8.3c-1.1,0.4-1-1.7-1.6-2.3C126.5,161,127.5,157.3,128.9,156.9z"/>
	<path class="st2" d="M142.9,166.4c-0.6,1-1.6,0.7-2.6,0.1C140.9,165.6,142,166.2,142.9,166.4z"/>
	<path class="st2" d="M125.3,156.5c1.3,0.8-1.2,2.6-1.5,3.8c-0.4-1-1.1-2-1.5-3.1C123.2,156.4,124.4,157.1,125.3,156.5z"/>
	<path class="st2" d="M152.9,173.9c0.1,1.5-2.5,1.6-3.4,2.7C149.5,175.3,151.9,174.9,152.9,173.9z"/>
	<path class="st2" d="M145,169.9c0,2.4-5.1,2.2-7.6,1.8C139.8,168,142.3,171,145,169.9z"/>
	<path class="st2" d="M147.3,173.9c-1.5,2.2-4.2,3.3-6.8,2.7C142.2,174.7,144.8,173.7,147.3,173.9z"/>
	<path class="st2" d="M139.3,173.7c0,2.4-4.7,4-7.1,3.8C133.1,174.7,136.7,173.2,139.3,173.7z"/>
	<path class="st2" d="M129,169.5c0.7,0.8-0.9,1.3-1.2,1.9c-1.1-0.5-0.3-1.4-1-1.9C127.4,168.8,128.5,170.5,129,169.5z"/>
	<path class="st2" d="M117.6,165.5c1.3,0.8,2.1,3.9,0.9,6.2C117.2,169.8,118.5,167.4,117.6,165.5z"/>
	<path class="st2" d="M133,178.9c0.6,0.7-1.1,1.2-1.4,1.7c-0.3-0.6-0.7-1.1-0.2-1.8C131.9,179.1,132.5,179.1,133,178.9z"/>
	<path class="st2" d="M137.9,183.6c-1.5,1.4-4.8,5-7.8,4.2c0.9-1.2,1.6-2.5,2-3.9C134,184.1,136,184,137.9,183.6z"/>
	<path class="st2" d="M121.3,188.8c0.1,1.4-1.9,3.3-2.6,4.9C117.3,191.2,119.4,190.4,121.3,188.8z"/>
	<path class="st3" d="M345,137c-1.9,9.7-3.2,19.5-4,29.4c-0.4,4.4-2,10.9,4.9,11.6c0.5,0.7-1.2,1.9,0.3,2.3
		c4.1-4.2,3.3-10.8,3.9-16.1c0.6-5.6,0.8-11.3,1.2-16.5c4.6,6.6,7.1,16.1,12.2,23.5c-1.2,6.5-3.9,13.3-4.9,19.8
		c-18.5-1.6-37.6-3.6-56.7-6.6c-6.5-1-12.8-3-19.5-4.7c-25.9-6.9-51.6-8.1-76.9-14.3c3.3-2.5,8.9-3.5,10-8.5c0.7,0.5,1.5,0.8,2.4,1
		c4.9-3,5.2-10.4,6.6-17c3.1-13.8,8.4-29.6,7.4-42c-0.7,2-2.3,1.9-4.2,1.3c-4.3,2.5-5.9,8.9-6.3,12.9c-5.2,2.7-10.2,6.3-15.6,8.5
		c1.8-6.2,2.8-12.2,1.9-17.8c-1.2-1.3-3.7-2.3-2.6-4.2c-3.5,0.6-4.2,5.7-4.9,8.6c-4.2,2.1-8.7,2.9-12.2,7.9
		c0.7-6.4,2.8-13.1,3.9-19.6c-0.6-0.8-2-2.1-3-1.4c0.4-1.5,3-3.1,4.2-4.7c21.7,0.7,42.1,8,63.1,10.1c10.2,1,20.6,0.8,30.7,1.3
		c5.2,0.2,10.2,0.3,15.3,0.4c5.1,0.1,9.7-0.7,14.7-0.8c3.7-0.1,10,3.5,13.9,3.4c1.6,3.8-0.8,7.1,0.2,10.9c0.9,3.4,4,7.4,6.3,10.8
		C339.7,130.2,342.7,133.5,345,137z M331.1,131c-1.4,1.7-1.7,7.8-2.5,11c-2.1,8.8-3.2,14.3-4.8,22.5c-0.7,3.5-2.7,9.5-0.6,10.8
		s10.1-2.4,8.1-6.2c0.6,1.5,1,3.1,1.4,4.7c2.3-4.5,2.3-8.3,2.8-12.9c1.2-10.8,2.8-21.9,2.8-31.8l-0.9-0.6
		C337.1,131.9,333.1,128.6,331.1,131L331.1,131z M299.1,163.8c2.3,0.8,4.1-0.8,5.7-2.9c-0.5-0.6-0.4-1.3-1.5-1.8
		C301.8,159.5,297.8,162.1,299.1,163.8z M299.7,119c-2.4,2.5-3.4,8.8-4.2,12.4c-1.9,8.6-2.9,16-4.1,24.2c-0.5,3.6-2.7,10.3-0.4,11.8
		c1.1,0.7,5.4,0,6.7-1.9c1.7-2.3,1.8-7.6,2.5-11c2.6-12.1,5-25.6,6.3-35.3c-1-1.4,0.4-3.3-1.6-4.4C304.5,118,301.6,116.9,299.7,119z
		 M313.4,124.8c-0.6,0.8,1.9,0.8,0.7,1.7c-4.8,12.4-6.5,25.5-7.8,37c-0.4,3.5-2.5,9.3,1.9,11.5c5.4-4,5.7-10.2,7.1-16.3
		c2.4-10.9,6.2-22.8,6.4-32.7C319.4,122.7,315.7,122.4,313.4,124.8L313.4,124.8z M278.1,115.5c-1,1.2,1.2,1.7,0.4,2.8
		c-3.8,11.5-6.2,26.3-8.1,38.9c-0.7,4.6-3.1,16.7,4.4,11.7c0.7,1.4,1.8,1.1,2.8,0.9c3.9-18.4,10.6-37.3,9.5-54.5
		C284.4,113.9,280.9,113.9,278.1,115.5L278.1,115.5z M268.8,124.4c0.4-2,2.5-9.8,0.7-11.6c-1.8-1.8-5.2-0.7-6.5,0.7
		c-2.2,2.6-2.7,8-3.5,11.2c-2.8,11.4-5.1,23.7-7.5,33.7c1.6,0.8-0.4,2.4,1.5,3.1c1.2,1,1.8-0.7,2.7-0.9c0.6,1,1.5,1.2,2.8,1.7
		c1-1.4,2.3-1.4,3.4-2.7C264.3,148.1,266.6,136.5,268.8,124.4L268.8,124.4z M243.3,104.8c-0.8,2.2-2.3,1.7-3.1,3.7
		c0,1.2,1,0.7,1.2,1.6c-3.5,15.6-8.2,31.4-9.3,46.4c0.5,0.3,0.8,0.8,0.9,1.4c1.7,0.5,4.3,0.3,4.9,2.6c5.6-2.5,5.6-10.8,6.6-16.2
		c2.2-12.1,5.7-26.2,5.9-36.8C248.4,106.1,246.2,105.9,243.3,104.8L243.3,104.8z M357.6,180.1c-3.1,2.6-8.1,3.4-10.3,6.2
		c1.2,1.1,1.6-0.6,2.6-0.1c2.8,2.6,6.4-1.4,8.9-4c-0.4-0.4,0-0.9,0-1.3L357.6,180.1z M238.6,167c-3,8,15,0.2,6.5-2.8
		C242.5,163.5,239.9,164.7,238.6,167L238.6,167z"/>
	<path class="st3" d="M318.7,210.4c0.3-2.6,2.9-4.8,4.5-5.9c0.5-0.8-0.4-1.3-0.5-2c-2.5-1.2-4.1,1.4-5.9,3.3
		c1.1,1.3,1.4-0.8,2.5,0.2c-3,4.2-6.2,7.7-9.9,9c0.9-2.3,4-5.7,5.8-8c-6.2,1-10,11.9-15.9,13.9c1.6-3.3,6.4-8.7,8.4-10.8
		c-0.8-0.8-1,0.8-1.9-0.3c-5.5,4.1-11.7,5.3-17.4,8.6c-1.1-0.5-0.4-1.3-0.5-2c-7.9-6-12.6-14.9-18.1-22.4c-0.8-0.6-1.8-0.9-2.8-0.9
		c-1.2-0.3,0.2-1.3-0.7-1.7c-11.7,3.6-21.9,13.4-33.7,16.2c0.5-0.8,1.2-1.7,1-2.4c-1-0.8-1.9,0.8-2.3-0.5
		c-2.3-6.2-4.9-12.3-12.1-17.4c-0.7-0.3-0.3-0.8,0-1.3c-2-0.5-2.3-1-4.3-1.4c-9.9,2.8-18.7,10.3-28.5,13.4c-1.5-0.9,0.1-1.6,0.7-2.6
		c-1-0.3-1.6,1.3-2.8,0.4c-1-1.8-2.4-3.4-4-4.7c2-2.2,4.4-2.6,6.2-5.2c1.9,0.5,3.7,0.8,5.2-0.7c-0.7-2.1,1.4-4.9,0.5-7.1
		c-2.1,0.1-2.8-1.7-3.9-2c-3.3-0.8-3.7,1.7-6.3,3.9c-1.4,1-2.9,1.8-4.5,2.4c-1.5,0.7-3.4,2.1-4.5,0.3c1.6-1.6,3.5-1.5,5.4-1.8
		c1.1-2.6,2.7-2.8,3.9-4.9c-2.7-0.2-7.6,0-10.7,2c-1.3,1.1,0.6,1.4-0.2,2.4c-1.2-0.6-1.5-1.4-2.1-2.2c2.5-2,7.7-4.1,8.1-7.5
		c-4.6,2-8.5,7.1-14.1,4.7c1.2-1.4,4.2-2.5,3.7-4.6c-2,0.6-4.2,3.2-7.3,2c0.3-1,1-0.3,1.4-0.9c0.5-0.9-1-1.4-1.8-2
		c0.4-1.1,1.2,0,1.6-1.2c-4.6-3.4-8.5-3.4-12.6-4.8l1.7-2.8c11,3,26.4,5.9,36.5,13.5c22.6,3.8,45.5,7.1,68.6,9.6
		c22.8,2.5,45.8,11.1,68.4,9.9c0.9,0.7,1.4-0.1,2.2,0.5c0.7,0.2,1.3-0.5,2-0.5c10.3,2.8,19.9,2.3,29.5,1.8
		c-1.4,6.9-3.3,13.9-3.7,20.6c-3.2,3.3,0.2,7.2-1.6,11c-2.8-0.5-4.5,3.4-7.2,3.3c-0.2-2.8,5.3-4.7,5.9-7.5c-3.5-1.6-5.7,2.6-8.3,4.4
		c-0.7-0.6-1.3-1.3-1.8-2c1.9-1.9,3.6-4.1,5.8-4.6c-0.9-3.2-3.9-9.7-7.7-11.2c-3.5-1.4-5.7,2.3-8.8,4.5l-1.9-1.2
		c2.2-2.7,5.9-3.9,7.1-7.3c-3.4-0.9-7.1,3.1-8.6,6.3c-1.1-0.6-1.9-1.1-1.8-2c-1.3,0.6-2.9-0.2-4,1
		C323,209.4,321.4,207.3,318.7,210.4z M345.3,212.6c2.6,0.7,5.3-4.5,5.6-6.9c-0.6-1-2.1-0.1-1.9-1.2c0.7-1.6,1.1-3.3,0.9-5l-1.6-0.9
		C344.6,202.8,344.5,208.5,345.3,212.6z M295.1,198.3c-1.3,0.3-2.8,2.7-3,4.2c0.9,2.5,5.2,4.7,7.7,4.3c1.3-1.6,2-3.7,1.8-5.8
		C299,199.2,297,199.8,295.1,198.3L295.1,198.3z M236,187.3c-2.3,1.9-3.7,5.4-1.3,7c1.9,0,3.8,0.7,5.3,2c2.1-0.3,3.8-2.1,5.2-5
		C244.4,186.8,238.9,187.6,236,187.3L236,187.3z"/>
	<path class="st2" d="M332.7,191.9c-12.1,1.6-27.8-1.8-42.4-4.6c-9.7-1.9-19.4-4.2-29.1-5.9c-19.5-3.4-38.7-4.2-57-6.8
		c0.4-1.8,3.6-1.2,4.9-3c-2.9-1.2-7,2.8-10.7,2c-0.2-1.2,2.6-1.2,4.1-1.8c1.9-0.7,3.6-1.9,5.1-2c24.2,8.7,48.5,4.4,73,12.3
		C297.4,187.6,315,190.8,332.7,191.9z"/>
	<path class="st2" d="M165.5,108.9c-0.1,1.2-0.4,2.3-0.8,3.4c-6.5,4.4-13,9-19.5,13.4C151.6,119.6,158.3,114,165.5,108.9z"/>
	<path class="st2" d="M295.9,220c-0.4,3.4-5.5,7.6-9.5,8.4c0.6-1.4,1.4-1.6,2.1-2.6c0.7,0.8,1.1,0,1.8,0.7
		C292.3,224.4,294.2,222.3,295.9,220z"/>
	<path class="st2" d="M189.3,164.5c-4.1,1-8.2,1.6-12.3,1.9C180.1,166.1,184.7,162.4,189.3,164.5z"/>
	<path class="st2" d="M167.1,158.6c-4.2,0.8-8.9,0.2-13.2,0.5C158.2,157.7,162.8,157.5,167.1,158.6z"/>
	<path class="st2" d="M153.3,171.1c-0.7,1.4-4.7-1-6.3,0.4C147.5,169.1,151.5,171.6,153.3,171.1z"/>
	<path class="st2" d="M349.8,236.7c-0.3-0.2-0.6-0.5-0.8-0.8c-0.3-2.3,3.7-3.8,2.7-6.5c-1.5,2-3.4,2.4-4.7,4.8
		c0.3,0.9,0.7,1.7,1.3,2.5H349.8z"/>
	<path class="st2" d="M328.8,231.4c0.9,0.3,1.7,0.6,2.5,1l0.7,0.3c1,0.5,1.9,1,2.8,1.7l0.5,0.4c0.7,0.5,1.4,1.1,2,1.7l0.6,0.5
		c0.6,0.6,1.1,1.2,1.6,1.8c1.7-0.5,3.5-0.8,5.3-0.8c-2.4-1.9-4.6-4.1-6.5-6.4c-1,1.4,1.7,3.3-0.4,4.1c-1.3-3.9-4.7-6.9-7.5-10.2
		c-3-3.7-6.4-7-10.3-9.8c-10,6.1-20.4,11.7-31,16.6c-1.1,1.1-0.6,2.7-1.9,3.1c-15-5.4-19.5-19.1-26.5-28.9
		c-5.9,3.9-12.1,6.8-18.1,10.4c-3.2,1.9-6.9,5.2-9.6,5.7c-4.3,0.8-10.4-7.9-12.8-11.3c-3-4.3-4.5-8.3-7.1-12.2
		c-11,5.8-21.6,13-33.2,16.1c-0.2,0.2-0.4,0.4-0.6,0.6c3,0.6,6,0.8,9.1,0.6c-1.5,0-0.8,0,0.2-0.1c0.5-0.5,1.1-1,1.7-1.4
		c7.7-6.8,20.7-5.3,28.6-0.3c4.2,2.6,7.5,6.4,9.4,11c1.4-0.8,2.8-1.5,4.3-2.1c2.1-1.6,4.5-2.8,7.1-3.4c3.8-0.9,7.6-1.8,11.5-2.5
		c13.7-2.5,22.8,5.8,25.9,16.5c7.3,3.3,15.3,5.1,23.3,5.1l0.4-0.5l0.7-0.9c0.2-0.3,0.5-0.6,0.8-0.8l0.7-0.8l0.9-0.8
		c0.3-0.2,0.5-0.4,0.8-0.7c0.3-0.2,0.8-0.6,1.2-0.9l0.6-0.4c0.6-0.4,1.3-0.8,1.9-1.1c0.2-0.1,0.5-0.2,0.7-0.3
		c0.5-0.2,0.9-0.4,1.4-0.6l0.9-0.3c0.5-0.2,0.9-0.3,1.4-0.4l1-0.2c0.5-0.1,1-0.2,1.4-0.3l1-0.2l1.6-0.1c0.3,0,0.7,0,1,0
		c0.6,0,1.2,0,1.8,0h0.9c0.9,0.1,1.9,0.2,2.8,0.4c1.2,0.2,2.4,0.5,3.6,0.9L328.8,231.4z"/>
	<path class="st2" d="M113.7,159.2c0.2,1.7,0.1,3.4-0.1,5.1C113.2,162.6,113.2,160.9,113.7,159.2z"/>
	<path class="st2" d="M134.4,182.3c1-2.3,5.9-5.7,7.5-2.3c1.1,0.4,1.9-0.4,2.7-0.9c0.8,0.4-2.6,1.6-3.4,2.7
		C138.8,181.4,136.7,182.1,134.4,182.3z"/>
	<path class="st4" d="M22.5,312.5c2.1-3.5,4.4-6.8,6.9-9.9c2.2-2.7,3.8-4,4.6-4c2.7,0,4.2,1.3,4.5,3.7c0.3,2.4-0.8,5.1-3.2,8.2
		c-3.6,4.5-5,7.4-4.4,8.7c0.7,1.2,3.7,1.4,9.1,0.3c6.5-1.2,9.7-0.6,9.7,1.8c0,1.9-1.9,5.5-5.6,10.8c-3.6,5.2-7.5,10.2-11.8,14.9
		c-4.2,4.6-7.1,6.9-8.6,7c-2.7,0.1-4.1-1.1-3.9-3.7c0.1-2.8,2-6.2,5.5-9.9l2.2-2.4c0.4-0.5,0.8-1,1.1-1.6c0.2-0.5,0.3-0.9,0.2-1.1
		c-0.3-0.3-0.7-0.5-1.1-0.6c-0.7-0.2-1.4-0.3-2.1-0.3l-3.6-0.1c-1.5,0-3-0.2-4.5-0.5c-1-0.2-1.9-0.7-2.6-1.4
		c-0.6-0.7-0.9-1.6-0.9-2.5c0.1-1.4,0.5-2.8,1-4c0.8-2,1.7-3.9,2.7-5.7C19,318.1,20.5,315.5,22.5,312.5z"/>
	<path class="st4" d="M56.7,333.5c-1.8,0.9-3.2,1.1-4.2,0.4c-1-0.6-0.9-2.2,0.2-4.8c1.4-3.1,3.2-6,5.2-8.8c2.4-3.3,4.9-6.5,7.4-9.7
		c2.6-3.2,4.8-5.8,6.8-8s3.1-3.2,3.4-3.2c1.2,0,5.7,5.3,13.6,16s11.9,16.8,11.9,18.3c0,2.3-1.3,3-3.8,2.2c-2.9-1-5.6-3.3-8.1-7
		c-0.5-0.8-0.9-1.6-1.4-2.4c-1.7-3.5-2.8-5.3-3.3-5.3c-0.8,0-1.5,4.1-2.1,12.2c-0.1,1.5-0.2,3.6-0.4,6.3c-0.5,8.4-1.3,14.1-2.2,17.3
		c-0.9,3.2-2.2,4.7-4.1,4.7c-1.8,0-3.1-1.4-3.7-4.2c-0.6-2.8-0.8-7.9-0.6-15.4c0.1-4.6,0-9.3-0.3-13.9c-0.3-3.9-0.7-5.8-1.3-5.8
		c-0.5,0-1.6,0.7-3.1,2c-1.7,1.5-3.3,3.1-4.8,4.9C60.5,331,58.7,332.5,56.7,333.5z"/>
	<path class="st4" d="M107.6,340.8c3.2-4.8,7-10,11.3-15.7c3.9-5.1,8-9.9,12.4-14.6c3.9-4.1,6.3-6.1,7.2-6.1c1.4,0,3.7,2.6,7.1,8
		c3.4,5.6,6.5,11.5,9,17.6c2.7,6.4,4,10.8,3.9,13.3c-0.1,2.2-2.6,6.3-7.6,12.2c-5,5.9-10.5,11.3-16.3,16.3c-5.8,4.9-9.8,7.4-12,7.4
		c-1.7,0-4.1-2-7.3-6c-3.3-4.1-6.2-8.5-8.6-13.1c-2.5-4.8-3.8-8.5-3.7-10.9C102.8,348.4,104.4,345.6,107.6,340.8z M145.2,331.5
		c-1.1-2.3-2.4-4.6-4-6.6c-1-1.5-2.4-2.7-4-3.5c-1.1-0.4-2.2-0.4-3.3,0.1c-1,0.4-1.8,1.1-2.4,2c-1.1,1.9-0.5,4.3,1.3,5.4
		c1.3,0.8,2.2,2.7,2.7,5.7c0.5,2.8,0.4,5.6-0.2,8.4c-0.6,2.6-1.6,3.9-2.9,3.9c-1-0.1-1.8-0.6-2.3-1.5c-0.7-1-1-2.2-0.9-3.4
		c0.1-3.2-1-4.8-3.2-5c-2.7-0.1-5.3,1.5-8,5c-0.6,0.9-1.2,1.7-1.8,2.7c-1.9,3.4-2.8,6.1-2.7,8.2c0.1,2,1.3,4.9,3.6,8.5
		c3.1,5.1,6.5,6.8,10.2,5.4c3.7-1.4,8.5-6.6,14.5-15.3c3.3-4.8,5.1-8.4,5.5-10.6S147,335.3,145.2,331.5L145.2,331.5z"/>
	<path class="st4" d="M199.6,299.6c2-1.1,4.2-1.7,6.5-1.7c2-0.1,3.9,0.4,5.7,1.4c1.4,0.8,2.2,2.2,2.2,3.8c0,0.9-0.9,2.8-2.7,5.7
		c-2,3.2-4.2,6.2-6.5,9.1c-1.6,2.1-2.8,3.6-3.7,4.7c-0.8,1-1.5,2.2-2.2,3.3c-0.5,0.8-0.8,1.6-1.1,2.5c-0.1,0.6,0,1.3,0.3,1.9
		c0.2,0.7,0.7,1.3,1.3,1.8s1.4,1.1,2.4,2c2.4,1.7,4.9,3.2,7.5,4.6c3,1.6,6.2,3.1,9.4,4.3c2.7,1,5.3,2.4,7.5,4.2
		c2.1,1.7,3.1,3.1,3.1,4.2c0,2.2-0.4,3.4-1.1,3.6c-1.1,0.4-5.1-1.1-12.1-4.5c-1.3-0.6-3.5-1.7-6.7-3.3c-4.2-2.1-8.5-4-12.9-5.7
		c-3.9-1.4-6.2-1.9-6.8-1.5c-0.7,0.4-1.1,1.8-1.2,4.4c-0.1,2.8,0,5.7,0.5,8.5c0.7,4.6,0.8,7.7,0.3,9.2s-1.8,2.2-4,2.2
		c-1.9,0.1-3.5-1.1-4.2-2.8c-0.7-1.8-1.1-5.1-1-9.9c0.2-7.7-0.3-15.4-1.5-23c-0.8-4.3-1.7-6.9-2.5-7.7c-0.8-0.8-2.2-0.5-4.2,0.9
		c-2,1.5-3.3,2.2-4.5,2.1c-1.6-0.4-3-1.3-3.9-2.7c-1.5-1.7-2.2-3-2.2-3.8s0.8-1.5,2.4-2c1.6-0.6,3.1-1.5,4.5-2.5
		c1.8-1.2,3.5-2.6,5.1-4.1c1.8-1.6,3.8-2.9,6-3.8c2.2-1,4.6-1.7,7.1-2c2.4-0.2,4.8-0.7,7.1-1.3C195.5,301.3,197.6,300.6,199.6,299.6
		z M193.9,315.2c0.1-0.8-0.2-1.6-0.8-2.2s-1.5-0.9-2.4-0.9c-1,0-1.9,0.6-2.3,1.4c-0.7,1.1-1,2.4-1,3.7c0,2.4,0.7,3.6,2.1,3.4
		C192,319.9,193.7,317.7,193.9,315.2L193.9,315.2z"/>
	<path class="st4" d="M246.4,310.9c2.2-2.6,4.8-4.8,7.6-6.8c2.6-1.7,4.5-2.3,5.7-1.8c1.6,0.7,3.9,3.2,6.7,7.5
		c2.9,4.4,5.4,9.1,7.6,13.9c2.2,5,3.3,8.6,3.2,10.9c-0.1,3.6-1,5.3-2.8,5.1s-3.8-2.1-5.7-6c-0.7-1.4-1.3-2.9-1.7-4.4
		c-1.7-5.1-2.9-7.7-3.7-7.8c-0.5-0.1-1.1,0.7-1.9,2.2c-0.2,0.4-0.3,0.8-0.6,1.3c-1,2.5-1.7,5.2-2,7.9c-0.6,3.3-0.9,6.6-1,9.9
		c-0.1,5.8,0.2,8.8,0.9,8.9c0.5,0.1,1.6-0.9,3.2-2.8c2.1-2.6,5-4.6,8.2-5.5c2.6-0.9,3.8-0.6,3.5,0.8c-0.3,1.8-2.6,8.2-7.1,19.2
		c-4.4,11-7.1,16.9-7.8,17.6s-3.2-1.7-7.4-7.1c-4.2-5.5-8.1-11.2-11.7-17.1c-3.6-6-5-9.5-4.1-10.3c0.7-0.6,1.7-0.7,2.5-0.3
		c1.3,0.5,2.4,1.3,3.3,2.3c3.7,3.8,6.2,4.6,7.5,2.4c1.1-1.9,1.8-6.6,1.9-14l0.4-15.5l-8.1,9.7c-1.9,2.3-4,4.4-6.5,6.2
		c-2,1.4-3.4,1.7-4.2,0.9c-1.6-1.5-1-4.9,1.6-10.1C237.5,321.9,241.6,316.1,246.4,310.9z"/>
	<path class="st4" d="M293.9,329.1c3.8-3.7,7.9-7.1,12.2-10.2c4-2.8,6.8-4.1,8.5-4.1c3.5,0.1,5.3,0.7,5.4,1.9c0,1.5-3.2,4.8-9.5,9.9
		c-5.7,4.6-8.2,8.4-7.7,11.2c0.4,2.2,2.8,3.2,7.1,2.8c3.4-0.5,6.9-0.4,10.3,0.3c2.1,0.6,3.1,1.7,3.1,3.5c0,0.9-1.1,1.7-3.2,2.4
		c-2.4,0.7-5,1-7.5,0.9h-10.7l8.8,7.6c2.4,2,4.6,4.4,6.3,7.1c1.7,2.6,2.5,4.7,2.5,6.2c-0.1,4.7-2.3,6.4-6.6,5.2
		c-5.1-1.5-11.6-6.5-19.5-14.9l-14.1-15.1L293.9,329.1z"/>
	<path class="st4" d="M333.9,319.5c2.1-3.5,4.4-6.8,6.9-9.9c2.2-2.7,3.8-4,4.6-4c2.7,0.1,4.2,1.3,4.5,3.7c0.3,2.4-0.8,5.1-3.2,8.2
		c-3.6,4.5-5,7.4-4.4,8.7c0.7,1.2,3.7,1.3,9.1,0.3c6.5-1.2,9.8-0.6,9.7,1.8c0,1.9-1.8,5.5-5.5,10.8c-3.6,5.2-7.5,10.2-11.8,14.9
		c-4.2,4.6-7.1,6.9-8.6,6.9c-2.7,0.1-4.1-1.1-3.9-3.6c0.1-2.9,2-6.2,5.5-9.9l2.2-2.4c0.4-0.5,0.8-1,1.1-1.6c0.2-0.5,0.3-0.9,0.2-1.1
		c-0.3-0.3-0.7-0.5-1.1-0.6c-0.7-0.2-1.4-0.3-2.1-0.3l-3.6-0.1c-1.5,0-3-0.2-4.5-0.5c-1-0.2-1.9-0.7-2.6-1.4
		c-0.6-0.7-0.9-1.6-0.9-2.5c0.1-1.4,0.5-2.8,1-4c0.8-1.9,1.7-3.8,2.7-5.7C330.4,325.2,331.9,322.6,333.9,319.5z"/>
	<path class="st4" d="M32.9,225.7c1.6-4.4,3.5-7.5,5.5-9.2c1.7-1.7,4.3-1.8,6.1-0.4c2,1.4,3.7,4.3,5.2,8.6c1.3,4,2.8,6.7,4.5,8
		c1.6,1.3,4.4,2.1,8.2,2.1c2.3,0,4.6,0.5,6.7,1.5c1.4,0.6,2.4,1.7,2.8,3.1c0.1,1.4-0.5,2.8-1.6,3.6c-1.7,1.4-3.7,2.4-5.9,2.7
		c-1.2,0.2-2.4,0.6-3.5,1.1c-0.8,0.4-1.5,0.9-2.1,1.5c-0.7,0.9-1.1,1.9-1.1,3c-0.2,1.4-0.3,2.9-0.3,4.6c0,1.7,0,4.1,0.3,7.1
		c0.4,8,0.2,12.3-0.6,13c-0.5,0.6-1.8,0-3.7-1.7c-3.2-2.9-5-7-5-11.3c0.1-8.4-1.4-13.1-4.7-14.3c-2.8-1-6,1.1-9.4,6.4
		c-2.3,3.7-4.1,7.6-5.5,11.7c-1,3.2-2.3,6.3-3.9,9.2c-1.4,2.5-2.5,3.8-3.2,3.8c-2.7-0.1-4.3-1.7-4.7-5c-0.4-3.3,0.5-7.6,2.5-13
		c1.4-3.1,2.4-6.5,2.8-9.9c0.1-2.1-0.6-4.1-2.1-5.6c-1.8-1.6-3-3.8-3.6-6.1c-0.5-1.7-0.1-3.5,1.2-4.7c1.2-1.1,3-1.3,5.3-0.6
		s4.3,0.4,5.7-0.8S31.3,230.1,32.9,225.7z"/>
	<path class="st5" d="M137,244.2c10-7.7,16.2-11.9,18.7-12.7c1.8-0.7,3.9,0.1,4.8,1.8c0.2,0.2,0.3,0.4,0.4,0.7
		c0.5,0.8-0.4,2.4-2.6,4.7c-2.7,2.7-5.7,5.1-8.9,7.2c-3.3,2.1-6.3,4.5-9.1,7.3c-2.4,2.4-3.5,4.1-3.2,5s1.8,1.9,4.4,2.8
		c2.9,1.1,6,1.9,9.1,2.3c3.2,0.5,6.3,1.4,9.2,2.8c2.7,1.3,4.2,2.5,4.7,3.8c0.8,2.1,0.2,3.2-1.7,3.3c-2.5,0-5-0.4-7.4-1
		c-3-0.6-6.8-1.2-11.4-1.8c-4.7-0.5-8.8-0.8-12.2-0.9c-15.3-0.3-16.1-6.6-2.5-18.8C131.5,248.6,134.1,246.5,137,244.2z"/>
	<path class="st4" d="M243.5,230.1c1.6-4.4,3.4-7.5,5.5-9.2c1.7-1.7,4.3-1.8,6.1-0.4c2,1.4,3.7,4.3,5.2,8.6c1.3,4,2.8,6.7,4.5,8
		c1.6,1.3,4.4,2.1,8.2,2.1c2.3,0,4.6,0.5,6.7,1.5c1.4,0.6,2.4,1.7,2.8,3.1c0.1,1.4-0.5,2.8-1.6,3.6c-1.7,1.4-3.7,2.4-5.9,2.7
		c-1.2,0.2-2.4,0.6-3.5,1c-0.8,0.4-1.5,0.9-2.1,1.5c-0.7,0.9-1.1,1.9-1.1,3c-0.2,1.5-0.3,3-0.3,4.6c0,1.7,0,4.1,0.3,7.1
		c0.4,8,0.2,12.3-0.6,13c-0.5,0.6-1.8,0-3.7-1.7c-3.2-2.9-5-7-5-11.3c0.1-8.4-1.4-13.1-4.7-14.3c-2.8-0.9-6,1.2-9.5,6.4
		c-2.3,3.7-4.1,7.6-5.6,11.7c-1.1,3.2-2.4,6.2-4,9.2c-1.4,2.5-2.5,3.8-3.2,3.8c-2.7-0.1-4.3-1.7-4.7-5c-0.4-3.3,0.4-7.6,2.5-13
		c1.4-3.1,2.4-6.5,2.8-9.9c0.1-2.1-0.6-4.1-2.1-5.6c-1.8-1.6-3-3.8-3.6-6.1c-0.5-1.7-0.1-3.5,1.2-4.7c1.2-1.1,3-1.3,5.3-0.6
		c2.3,0.6,4.3,0.4,5.7-0.8S241.9,234.6,243.5,230.1z"/>
	<path class="st4" d="M299.1,238.4c3.8-3.7,7.8-7.1,12.2-10.2c4-2.8,6.8-4.1,8.5-4.1c3.5,0.1,5.3,0.7,5.4,1.9c0,1.5-3.2,4.8-9.5,10
		c-5.7,4.6-8.2,8.4-7.7,11.2c0.5,2.2,2.8,3.2,7.1,2.8c3.4-0.5,6.9-0.4,10.3,0.3c2.1,0.6,3.1,1.7,3.1,3.5c0,0.9-1.1,1.7-3.2,2.4
		c-2.4,0.7-5,1-7.5,0.9h-10.7l8.8,7.6c2.4,2,4.6,4.4,6.3,7.1c1.4,1.8,2.3,3.9,2.5,6.2c-0.1,4.7-2.3,6.4-6.6,5.2
		c-5.1-1.5-11.6-6.5-19.5-14.9l-14-15.2L299.1,238.4z"/>
	<path class="st4" d="M335,255.1c3.2-4.8,6.9-10,11.3-15.7c3.9-5.1,8-10,12.4-14.6c3.9-4.1,6.3-6.1,7.2-6.1c1.4,0,3.7,2.6,7.1,8
		c3.4,5.6,6.5,11.5,9,17.6c2.7,6.4,4,10.8,3.9,13.3c0,2.3-2.5,6.3-7.6,12.2c-5,5.9-10.5,11.3-16.3,16.3c-5.8,4.9-9.8,7.4-12,7.4
		c-1.7,0-4.1-2-7.3-6c-3.3-4.1-6.2-8.5-8.6-13.1c-2.5-4.8-3.8-8.5-3.7-10.9C330.3,262.7,331.9,259.8,335,255.1z M372.7,245.8
		c-1.1-2.3-2.5-4.6-4-6.6c-1-1.5-2.4-2.7-4-3.5c-1.1-0.4-2.2-0.4-3.3,0.1c-1,0.4-1.8,1.1-2.4,2c-0.5,0.8-0.7,1.9-0.5,2.8
		c0.2,1.1,0.9,2,1.8,2.6c1.3,0.8,2.2,2.7,2.7,5.7c0.5,2.8,0.4,5.6-0.2,8.4c-0.6,2.6-1.6,3.9-2.9,3.9c-1-0.1-1.8-0.6-2.3-1.5
		c-0.7-1-1-2.2-0.9-3.4c0.1-3.2-1-4.9-3.3-5.1c-2.7-0.1-5.3,1.5-8,5c-0.6,0.9-1.2,1.7-1.8,2.7c-1.9,3.4-2.8,6.1-2.7,8.2
		c0.1,2,1.3,4.9,3.6,8.5c3.1,5,6.5,6.8,10.2,5.4c3.7-1.5,8.5-6.5,14.5-15.2c3.3-4.8,5.1-8.4,5.5-10.6
		C375.1,252.7,374.4,249.6,372.7,245.8L372.7,245.8z"/>
	<path class="st4" d="M108.5,206.8c2.2-1.3,4.7-2,7.2-2.1c2.2-0.2,4.4,0.3,6.3,1.4c1.6,0.8,2.6,2.5,2.5,4.2c0,1-0.9,3.2-2.8,6.3
		c-2.2,3.6-4.5,7-7.1,10.3c-1.8,2.3-3.1,4.1-4,5.3s-1.7,2.4-2.4,3.7c-0.5,0.9-0.9,1.8-1.1,2.8c-0.1,0.7,0.1,1.5,0.4,2.1
		c0.3,0.8,0.8,1.5,1.4,2c0.7,0.5,1.6,1.2,2.8,2.2c2.7,1.8,5.5,3.5,8.5,4.9c3.4,1.8,7,3.3,10.6,4.6c3,1,5.9,2.6,8.5,4.5
		c2.4,1.8,3.6,3.4,3.6,4.7c0,2.5-0.4,3.9-1.1,4.1c-1.2,0.5-5.8-1.1-13.7-4.7c-1.4-0.6-4-1.8-7.6-3.5c-4.7-2.3-9.6-4.2-14.5-5.9
		c-4.4-1.5-6.9-2-7.7-1.5c-0.8,0.4-1.2,2.1-1.3,5c-0.1,3.2,0.2,6.4,0.7,9.5c0.9,5.2,1.1,8.6,0.6,10.3c-0.5,1.7-2,2.5-4.4,2.5
		c-2.1,0.1-4-1.1-4.7-3c-0.9-2-1.3-5.7-1.3-11c0.1-8.6-0.7-17.2-2.3-25.6c-1.1-4.8-2-7.6-3-8.5c-0.9-0.9-2.5-0.5-4.7,1.2
		s-3.7,2.5-5,2.4s-2.8-1-4.5-2.9s-2.5-3.2-2.5-4.2s0.9-1.7,2.7-2.2c1.8-0.8,3.4-1.7,5-2.9c2-1.4,3.8-3,5.6-4.7
		c2-1.8,4.2-3.3,6.7-4.4c2.4-1.2,5.1-2,7.8-2.4c2.7-0.3,5.3-0.8,7.9-1.6C104,209.1,106.3,208.1,108.5,206.8z M102.6,224.4
		c0-0.9-0.3-1.8-1-2.5c-0.7-0.6-1.7-1-2.7-0.9c-1.1,0-2.1,0.6-2.6,1.6c-0.7,1.2-1.1,2.7-1,4.1c0,2.7,0.8,4,2.5,3.8
		C100.5,229.6,102.4,227.2,102.6,224.4z"/>
	<path class="st4" d="M195.7,224.1c-0.7-1.8-0.9-3.8-0.6-5.7c0.4-1.4,1.4-1.6,3.2-0.4c2.3,1.7,4.4,3.6,6.1,5.9
		c2.3,2.8,4.6,5.7,6.9,8.7c2.3,3.1,4.2,5.8,5.7,8.2c1,1.3,1.7,2.7,2.3,4.2c0.1,1.6-3.2,8.4-9.7,20.6c-6.5,12.1-10.3,18.3-11.3,18.5
		c-1.5,0.2-2.1-1.4-1.7-4.9c0.5-4.2,1.9-8.2,4.1-11.9c0.5-0.8,1-1.5,1.5-2.2c2.2-2.8,3.3-4.6,3.3-5.2c-0.1-1.1-2.8-1.5-8.2-1.2
		c-1,0.1-2.4,0.2-4.2,0.4c-5.6,0.4-9.4,0.2-11.6-0.6c-2.1-0.7-3.4-2.7-3.4-4.9c-0.3-2.2,0.7-4.3,2.6-5.6c1.8-1.2,5.2-2.2,10.2-2.9
		c3.1-0.5,6.2-1.2,9.2-2.2c2.5-0.9,3.8-1.8,3.8-2.5c-0.3-1.4-0.8-2.8-1.5-4c-1-2-2.2-3.9-3.5-5.8
		C197.5,228.6,196.4,226.4,195.7,224.1z"/>
	<path class="st4" d="M186.1,273.7c0.6,1.5,0.7,3.1,0.5,4.6c-0.3,1.2-1.2,1.3-2.6,0.3c-1.9-1.4-3.6-3-5-4.8
		c-1.9-2.3-3.8-4.7-5.7-7.1s-3.4-4.7-4.7-6.7c-0.8-1.1-1.4-2.2-1.9-3.4c-0.1-1.3,2.6-6.9,7.9-16.8c5.4-9.9,8.4-15,9.2-15.1
		c1.2-0.2,1.7,1.1,1.4,4c-0.4,3.4-1.5,6.7-3.4,9.7c-0.4,0.6-0.8,1.2-1.2,1.8c-1.8,2.3-2.7,3.7-2.7,4.2c0.1,0.9,2.3,1.2,6.7,1
		c0.8,0,2-0.2,3.4-0.3c4.6-0.3,7.7-0.1,9.4,0.5s2.8,2.2,2.7,4c0.2,1.8-0.6,3.5-2.1,4.5c-2.6,1.3-5.4,2.1-8.3,2.4
		c-2.6,0.4-5.1,1-7.5,1.8c-2.1,0.8-3.1,1.4-3.1,2.1c0.2,1.1,0.6,2.2,1.2,3.2c0.8,1.6,1.8,3.2,2.8,4.7
		C184.6,270.1,185.5,271.8,186.1,273.7z"/>
</g>
<g>
	<g>
		<path class="st5" d="M32.2,39c0-9.8,5.8-13.8,13.6-13.8c7.8,0,12.6,3.6,12.6,9.1v0.4H50v-0.4c0-1.8-1.3-2-4.3-2
			c-4,0-5.6,0.6-5.6,5.2v1.4h0.5c1.2-1.7,3.7-3.2,8.1-3.2c6.6,0,10.1,2.4,10.1,7.9c0,5.4-4.2,8.8-12.4,8.8
			C36.2,52.4,32.2,48.1,32.2,39z M51.1,43.1c0-1.7-0.8-2.3-5.1-2.3c-4.7,0-5.5,0.6-5.5,2.3c0,1.5,0.8,2.2,5.5,2.2
			C50.3,45.3,51.1,44.6,51.1,43.1z"/>
		<path class="st5" d="M60.6,38.8c0-8.1,4.7-13.6,13.7-13.6c9,0,13.7,5.5,13.7,13.6c0,8.1-4.7,13.6-13.7,13.6
			C65.3,52.4,60.6,47,60.6,38.8z M80,38.8c0-4.9-1.2-6.4-5.7-6.4c-4.5,0-5.7,1.5-5.7,6.4c0,4.9,1.2,6.4,5.7,6.4
			C78.8,45.2,80,43.7,80,38.8z"/>
		<path class="st5" d="M95.5,52V32.1h7v6h0.4c0.4-3.3,2.3-6.4,7.3-6.4c4.7,0,7,2.8,7.3,6.4h0.4c0.4-3.3,2.3-6.4,7.5-6.4
			c5.1,0,7.5,3.2,7.5,7.5V52h-7.4V42c0-2.8-0.8-3.6-3.9-3.6c-3,0-3.7,0.8-3.7,3.4V52h-7.4V42c0-2.8-0.8-3.6-3.9-3.6
			c-3,0-3.7,0.8-3.7,3.4V52H95.5z"/>
		<path class="st5" d="M135.1,30.3v-4.7h7.4v4.7H135.1z M135.1,52V32.1h7.4V52H135.1z"/>
		<path class="st5" d="M144.9,52V32.1h7v6h0.4c0.4-3.3,2.6-6.4,7.9-6.4c5.4,0,7.9,3.2,7.9,7.5V52h-7.4V42c0-2.8-1-3.6-4.3-3.6
			c-3.3,0-4.1,0.8-4.1,3.4V52H144.9z"/>
		<path class="st5" d="M170.3,52v-7.6h9.6V52H170.3z"/>
	</g>
	<g>
		<path class="st5" d="M312.7,52V33.9h-7.1v-5h1c2.9,0,5.1-0.6,6.6-3.3h6.9V52H312.7z"/>
		<path class="st5" d="M321.9,52v-4.7c0-4.5,2.1-6.8,7.8-8.7l7.2-2.3c1.7-0.6,2.4-1.1,2.4-2.3c0-1.3-0.5-2.2-4.5-2.2
			c-4.4,0-5.4,1.1-5.4,3.5V36H322v-0.6c0-5.3,3.6-10.2,13-10.2c8.4,0,11.7,3.7,11.7,9.1c0,5-3.3,7.3-8.1,8.5l-5.9,1.5
			c-1.7,0.4-3,0.7-3,2.1l7.4-0.9h9.4V52H321.9z"/>
		<path class="st5" d="M354.8,48.2v-6.3h-6.2v-6.1h6.2v-6.3h6.3v6.3h6.2v6.1h-6.2v6.3H354.8z"/>
	</g>
</g>
</svg>
