<?xml version="1.0" encoding="utf-8"?>
<!-- Generator: Adobe Illustrator 26.0.1, SVG Export Plug-In . SVG Version: 6.00 Build 0)  -->
<svg version="1.1" id="Слой_1" xmlns="http://www.w3.org/2000/svg" xmlns:xlink="http://www.w3.org/1999/xlink" x="0px" y="0px"
	 viewBox="0 0 400 400" style="enable-background:new 0 0 400 400;" xml:space="preserve">
<style type="text/css">
	.st0{fill:#F8F8F8;}
	.st1{fill:#18181B;}
	.st2{fill-rule:evenodd;clip-rule:evenodd;fill:#18181B;}
</style>
<rect x="-30.8" y="-22" class="st0" width="461.7" height="444.1"/>
<g>
	<g>
		<path class="st1" d="M32.4,34.2c0-9.8,5.8-13.8,13.6-13.8s12.6,3.6,12.6,9.1v0.4h-8.3v-0.4c0-1.8-1.3-2-4.3-2
			c-4,0-5.6,0.6-5.6,5.2v1.4h0.5c1.2-1.7,3.7-3.2,8.1-3.2c6.6,0,10.1,2.4,10.1,7.9c0,5.4-4.2,8.8-12.4,8.8
			C36.5,47.6,32.4,43.3,32.4,34.2z M51.3,38.3c0-1.7-0.8-2.3-5.1-2.3c-4.7,0-5.5,0.6-5.5,2.3c0,1.5,0.8,2.2,5.5,2.2
			C50.5,40.5,51.3,39.8,51.3,38.3z"/>
		<path class="st1" d="M60.9,34c0-8.1,4.7-13.6,13.7-13.6S88.3,25.9,88.3,34s-4.7,13.6-13.7,13.6S60.9,42.2,60.9,34z M80.3,34
			c0-4.9-1.2-6.4-5.7-6.4s-5.7,1.5-5.7,6.4s1.2,6.4,5.7,6.4C79.1,40.4,80.3,38.9,80.3,34z"/>
		<path class="st1" d="M95.7,47.2V27.3h7v6h0.4c0.4-3.3,2.3-6.4,7.3-6.4c4.7,0,7,2.8,7.3,6.4h0.4c0.4-3.3,2.3-6.4,7.5-6.4
			c5.1,0,7.5,3.2,7.5,7.5v12.8h-7.4v-10c0-2.8-0.8-3.6-3.9-3.6c-3,0-3.7,0.8-3.7,3.4v10.3h-7.4v-10c0-2.8-0.8-3.6-3.9-3.6
			c-3,0-3.7,0.8-3.7,3.4v10.3h-7.4V47.2z"/>
		<path class="st1" d="M135.3,25.5v-4.7h7.4v4.7H135.3z M135.3,47.2V27.3h7.4v19.9C142.7,47.2,135.3,47.2,135.3,47.2z"/>
		<path class="st1" d="M145.1,47.2V27.3h7v6h0.4c0.4-3.3,2.6-6.4,7.9-6.4c5.4,0,7.9,3.2,7.9,7.5v12.8h-7.4v-10c0-2.8-1-3.6-4.3-3.6
			s-4.1,0.8-4.1,3.4v10.3h-7.4V47.2z"/>
		<path class="st1" d="M170.5,47.2v-7.6h9.6v7.6H170.5z"/>
	</g>
	<g>
		<path class="st1" d="M313,47.2V29.1h-7.1v-5h1c2.9,0,5.1-0.6,6.6-3.3h6.9v26.5H313V47.2z"/>
		<path class="st1" d="M322.1,47.2v-4.7c0-4.5,2.1-6.8,7.8-8.7l7.2-2.3c1.7-0.6,2.4-1.1,2.4-2.3c0-1.3-0.5-2.2-4.5-2.2
			c-4.4,0-5.4,1.1-5.4,3.5V31h-7.3v-0.6c0-5.3,3.6-10.2,13-10.2c8.4,0,11.7,3.7,11.7,9.1c0,5-3.3,7.3-8.1,8.5l-5.9,1.5
			c-1.7,0.4-3,0.7-3,2.1l7.4-0.9h9.4v6.7H322.1z"/>
		<path class="st1" d="M355.1,43.4v-6.3h-6.2V31h6.2v-6.3h6.3V31h6.2v6.1h-6.2v6.3C361.4,43.4,355.1,43.4,355.1,43.4z"/>
	</g>
</g>
<g>
	<path class="st1" d="M97.9,349.2c0.4,2.8,0.9,4.7,1.6,5.6c0.6,1,1.9,1.4,2.9,1.1c1.5-0.2,3.1-0.3,4.6-0.3l-9.5,7.9
		c-2.2,0.1-4.4-0.6-6.2-1.9c-1.7-1.5-2.9-3.4-3.6-5.6c-0.9-2.7-1.5-5.6-1.6-8.5c-0.3-3.3-0.4-6.9-0.4-10.7v-26.4h-5.9l3.6-8h2.3
		c0.9-0.1,1.6-0.6,2.1-1.3c0.8-1,1.4-2,1.8-3.2c0.1-0.8,0.1-1.7,0-2.5c0-0.9,0-1.9,0-2.8c0.1-3.3-0.5-6.6-1.9-9.6
		c-1.1-2.2-2.6-4.1-4.8-5.5c-1.9-1.1-4-1.7-6.1-1.6c-2.2,0.1-4.3,0.9-6.2,2.1c-1.9,1.4-3.5,3.3-4.7,5.5c-1.3,2.7-2,5.6-1.9,8.6
		c-0.1,1.9,0.6,3.7,1.8,5.2c1.1,1.3,2.5,2.6,4,3.5c1.4,1,2.7,1.7,4,2.3c1.1,0.6,1.8,1.1,1.8,1.7l-5,8.6c-2.6-2.1-5.4-4-8.4-5.3
		c-1.9-0.9-4.1-1.3-6.2-1.1c-1.5,0.1-2.9,0.9-3.9,2.2c-0.9,1.4-1.4,3.1-1.3,4.8c0,2,0.9,4.1,2.3,5.5c1.7,1.8,3.6,3.3,5.7,4.6
		c2.3,1.4,4.8,2.9,7.4,4.3c2.6,1.3,5,2.8,7.4,4.5c2.1,1.5,4.1,3.2,5.7,5.2c1.5,1.8,2.3,4,2.3,6.3c0,2.6-0.7,5-2,7.1
		c-1.4,2.3-3.2,4.4-5.3,6.2c-2.2,1.8-4.6,3.3-7.2,4.2c-2.5,1.1-5.2,1.6-7.8,1.6c-2.6,0-5-0.4-7.5-1.1c-2.2-0.6-4.3-1.5-6.4-2.5
		c-2.1-1.1-4.1-2.3-6-3.7l4.8-10.4c2.2,1.9,4.6,3.6,7,5.1c1.9,1.1,3.9,2.2,6,3c1.6,0.6,3.3,1.1,4.9,1.5c1.3,0.3,2.6,0.4,4,0.3
		c2.5,0,4.8-0.9,6.8-2.5c1.5-1.9,1.9-3.5,1.1-5c-1.1-1.8-2.6-3.2-4.3-4.1c-2.5-1.5-4.9-2.9-7.6-4.1c-2.9-1.4-5.7-3-8.5-4.8
		c-2.6-1.7-5-3.7-7.1-6c-3.4-3.9-4.5-9.4-2.6-14.3c0.8-2.2,2-4.2,3.4-6c1.5-1.9,3.3-3.5,5.3-4.8c1.9-1.3,4.1-2.3,6.3-2.7
		c-0.6-0.7-1.2-1.4-1.6-2.3c-0.6-1.2-1-2.6-1.1-3.9c-0.4-3.2,0.2-6.4,1.9-9.2c1.8-2.8,4-5.4,6.6-7.4c2.7-2.1,5.7-3.8,9-4.9
		c2.9-1.1,5.9-1.8,9.1-1.8c2.8-0.2,5.6,0.4,8.1,1.5c1.9,1.1,3.5,2.7,4.3,4.8c1.1,2.7,1.6,5.6,1.7,8.5c0.3,3.4,0.4,7.7,0.4,12.7v2.8
		h12.2l-3.7,8h-8.5v25.8C97.4,340.5,97.5,344.8,97.9,349.2z"/>
	<path class="st1" d="M178.3,332.5c0,4.1-0.7,8.3-2.1,12.2c-1.4,3.7-3.5,7.1-6.3,10c-3,2.9-6.5,5.2-10.5,6.7
		c-4.6,1.8-9.4,2.6-14.4,2.5c-4.8,0.1-9.7-0.7-14.2-2.5c-3.9-1.5-7.4-3.8-10.4-6.7c-2.8-2.8-5-6.2-6.4-10c-1.5-3.9-2.3-8-2.2-12.2
		c0-4.1,0.7-8.2,2.2-12.1c1.4-3.7,3.6-7.1,6.5-10c3-2.9,6.5-5.2,10.5-6.7c4.5-1.7,9.3-2.6,14.1-2.5c4.8-0.1,9.7,0.7,14.3,2.5
		c3.9,1.5,7.4,3.8,10.4,6.7c2.8,2.8,5,6.2,6.4,10C177.4,324.4,178.3,328.4,178.3,332.5z M145,361.2c3.3,0.1,6.5-0.7,9.3-2.2
		c2.7-1.5,5.1-3.6,6.9-6.1c1.9-2.7,3.3-5.8,4.1-9.1c1-3.6,1.4-7.4,1.4-11.2c0-3.7-0.4-7.5-1.5-11.1c-0.9-3.3-2.4-6.3-4.3-9.1
		c-1.9-2.6-4.1-4.7-6.9-6.2c-2.8-1.6-6-2.4-9.2-2.3c-3.3-0.1-6.5,0.7-9.4,2.3c-2.7,1.5-5.1,3.6-6.9,6.2c-1.9,2.7-3.3,5.8-4.1,9.1
		c-1,3.6-1.4,7.3-1.4,11.1c0,3.8,0.4,7.6,1.5,11.2c0.9,3.3,2.4,6.3,4.4,9.1c1.9,2.6,4.1,4.6,6.9,6.1
		C138.7,360.4,141.8,361.2,145,361.2L145,361.2z"/>
	<path class="st1" d="M198.4,363.7h-11.8v-47.6c0-1.2-0.4-2.4-1.1-3.3c-0.7-1-1.8-1.8-2.9-2l15.9-8.3v8.5c2.4-2.3,5.1-4.2,8.1-5.7
		c2.7-1.3,5.6-2.2,8.6-2.6c2.7-0.4,5.5,0,8.1,1c2.6,1,4.8,2.7,6.4,5l-10.9,7.2c-0.5-1.1-1.3-2-2.2-2.8c-0.9-0.8-1.9-1.5-3.1-1.9
		c-1.5-0.6-3.2-1-4.8-0.9c-3.2,0-5.6,0.8-7,2.3c-1.6,1.7-2.6,3.8-3.2,6L198.4,363.7L198.4,363.7L198.4,363.7z"/>
	<path class="st1" d="M249.8,302.6v33.8c0,3.9,0.1,7.1,0.2,9.6c0.1,2,0.3,4,0.6,5.9c0.2,1.1,0.5,2.1,1.1,3c0.4,0.6,1.1,1,1.8,1.1
		c0.8,0.1,1.7,0.1,2.5,0c1.1-0.1,2.2-0.2,3.3-0.2l-9.5,7.8c-2.2,0.1-4.4-0.6-6.2-1.9c-1.7-1.5-2.9-3.4-3.6-5.6
		c-0.9-2.7-1.5-5.6-1.7-8.5c-0.3-3.3-0.4-6.9-0.4-10.7v-21.2c0-1.2-0.4-2.4-1.1-3.3c-0.7-1-1.8-1.8-2.9-2L249.8,302.6z"/>
	<path class="st1" d="M261.5,337.5c0-4.4,1-8.7,2.9-12.7c1.9-3.9,4.4-7.4,7.4-10.4c3-3,6.3-5.6,10.1-7.5c3.5-1.9,7.2-3.2,11.2-3.9
		c3.4-0.6,7-0.4,10.3,0.4c3.2,0.8,5.9,2.7,7.8,5.3l-10.9,7.1c-0.5-1.1-1.3-2-2.2-2.8c-1-0.8-1.9-1.5-3.1-1.9
		c-1.5-0.6-3.2-0.9-4.8-0.9c-2.2,0-4.4,0.4-6.4,1.4c-1.9,0.9-3.5,2.2-4.9,3.8c-1.4,1.7-2.6,3.5-3.4,5.6c-1,2.1-1.7,4.3-2,6.6h32
		l-5.1,11.3H273c0.7,3.3,2.4,6.3,4.8,8.6c2.5,2.5,5.6,4.2,8.9,5.3c3.6,1.1,7.4,1.2,11.1,0.4c4.2-0.9,8.2-2.9,11.5-5.8
		c-1.9,2.5-3.8,4.8-5.8,7c-1.9,1.9-3.8,3.8-5.9,5.5c-1.9,1.6-4.2,2.8-6.7,3.6c-1.3,0.4-2.6,0.4-4.1,0.4c-2-0.1-4.1-0.4-6-1
		c-2.3-0.7-4.6-1.6-6.7-2.7c-2.4-1.2-4.4-2.9-6.3-4.8c-1.9-2.2-3.5-4.7-4.6-7.4C262.1,344.6,261.5,341,261.5,337.5z"/>
	<path class="st1" d="M327.1,351.3c1.9,1.1,3.9,2.2,6,3c1.6,0.6,3.3,1.1,4.9,1.5c1.3,0.3,2.6,0.4,4,0.3c2.5,0,4.9-0.9,6.9-2.5
		c1.5-1.9,1.9-3.5,1.1-5c-1.1-1.8-2.6-3.2-4.4-4.1c-2.5-1.5-4.9-2.8-7.5-4.1c-2.9-1.4-5.7-3-8.4-4.8c-2.6-1.7-5-3.7-7.1-6
		c-3.7-4.1-4.7-9.9-2.5-14.9c1-2.4,2.4-4.6,4.1-6.5c1.8-1.9,3.9-3.6,6.2-4.8c2.2-1.2,4.7-1.9,7.2-1.9c2.1,0,4.2,0.2,6.3,0.6
		c1.5,0.3,2.9,0.8,4.3,1.3c1.1,0.4,2.2,1.1,3.2,1.9l-5,8.6c-2.5-2.2-5.3-4.1-8.3-5.5c-1.9-0.9-4.1-1.3-6.2-1.1
		c-1.5,0.1-2.9,0.9-3.9,2.2c-0.9,1.4-1.4,3.1-1.3,4.8c0,2,0.8,4.1,2.3,5.5c1.7,1.8,3.6,3.3,5.7,4.6c2.3,1.4,4.8,2.9,7.4,4.3
		c2.6,1.3,5,2.8,7.4,4.5c2.1,1.5,4.1,3.2,5.7,5.2c1.5,1.8,2.3,4,2.3,6.3c0,2.6-0.7,5-2,7.1c-1.4,2.4-3.2,4.4-5.3,6.2
		c-2.2,1.8-4.6,3.3-7.2,4.3c-2.5,1.1-5.2,1.6-7.8,1.6c-2.6,0-5-0.4-7.4-1.1c-2.2-0.6-4.3-1.5-6.3-2.5c-2.1-1.1-4.1-2.3-6-3.7
		l4.7-10.4C322.5,348,324.8,349.7,327.1,351.3z"/>
	<path class="st1" d="M99.5,247c0-4.4,1-8.6,2.9-12.6c1.9-3.9,4.3-7.4,7.4-10.5c3-3,6.3-5.6,10.1-7.6c3.5-1.9,7.2-3.2,11.2-3.9
		c3.4-0.6,7-0.4,10.3,0.4c3.2,0.8,5.9,2.6,7.8,5.3l-10.9,7.2c-0.5-1.1-1.3-2-2.2-2.8c-0.9-0.8-1.9-1.5-3.1-1.9
		c-1.5-0.6-3.2-1-4.8-0.9c-2.8-0.1-5.6,0.7-7.9,2.2c-2.2,1.5-4.1,3.4-5.6,5.7c-1.5,2.5-2.6,5.1-3.2,7.9c-0.7,2.9-1.1,5.8-1.1,8.8
		c-0.1,3.8,1.1,7.4,3.4,10.4c2.3,3,5.4,5.3,8.8,6.7c3.8,1.5,7.9,1.9,12,1.3c4.7-0.7,9.1-2.8,12.6-6.1c-1.9,2.5-3.8,4.8-5.8,7
		c-1.9,1.9-3.8,3.8-5.9,5.5c-1.9,1.7-4.2,2.9-6.7,3.6c-1.3,0.4-2.6,0.4-4.1,0.4c-2-0.1-4.1-0.4-6-1c-2.3-0.6-4.6-1.5-6.7-2.7
		c-4.9-2.7-8.8-7-10.8-12.2C100,254.1,99.4,250.6,99.5,247z"/>
	<path class="st1" d="M153.5,247c0-4.4,1-8.7,2.9-12.6c1.9-3.9,4.4-7.4,7.4-10.4c3-3,6.3-5.6,10.1-7.5c3.4-1.9,7.2-3.3,11.1-4
		c3.4-0.6,7-0.5,10.4,0.4c3.2,0.8,5.9,2.6,7.8,5.3l6.2-3.2v58.1h-11.9v-11.5c-0.9,1-1.9,2.1-3,3.3c-1.1,1.1-2.4,2.3-3.6,3.3
		c-1.2,1.1-2.6,2-4,2.9c-1.3,0.8-2.6,1.5-4.1,1.9c-1.3,0.4-2.6,0.4-4.1,0.4c-2-0.1-4.1-0.4-6-1c-2.3-0.6-4.6-1.6-6.7-2.7
		c-2.3-1.3-4.4-2.9-6.3-4.8c-1.9-2.2-3.5-4.7-4.6-7.4C154,254.1,153.4,250.6,153.5,247z M164.4,244.7c-0.1,3.4,1,6.9,3,9.7
		c1.9,2.8,4.7,5.1,7.8,6.7c3.3,1.6,7,2.4,10.7,2.3c4.1-0.2,8.2-1.4,11.7-3.7v-31.4c0-1-0.3-1.9-0.7-2.6s-1.1-1.5-1.9-2l-2.7,1.9
		c-0.5-1.1-1.3-2-2.2-2.8c-0.9-0.8-1.9-1.5-3.1-1.9c-1.5-0.6-3.2-1-4.8-0.9c-2.8-0.1-5.6,0.7-7.8,2.2c-2.2,1.5-4.1,3.4-5.6,5.7
		c-1.5,2.5-2.6,5.1-3.3,7.9C164.7,238.7,164.4,241.7,164.4,244.7L164.4,244.7z"/>
	<path class="st1" d="M271.8,258.9c0.4,2.8,0.9,4.7,1.6,5.6c0.7,1,1.9,1.4,2.9,1.1c1.5-0.2,3.1-0.3,4.6-0.3l-9.5,7.9
		c-2.2,0.1-4.4-0.6-6.1-1.9c-1.7-1.5-2.9-3.4-3.6-5.6c-0.9-2.7-1.5-5.6-1.6-8.5c-0.3-3.3-0.4-6.9-0.4-10.8v-26.4h-5.8l3.6-8h2.3
		c0.9-0.1,1.6-0.6,2.1-1.3c0.8-1,1.4-2,1.8-3.2c0.1-0.8,0.1-1.7,0.1-2.5c0-0.9-0.1-1.9-0.1-2.8c0.1-3.3-0.5-6.6-1.9-9.6
		c-1.1-2.2-2.6-4.1-4.8-5.5c-1.9-1.1-4-1.7-6.2-1.6c-2.2,0.1-4.3,0.9-6.1,2.1c-2,1.4-3.6,3.3-4.8,5.6c-1.3,2.7-1.9,5.6-1.9,8.6
		c-0.1,1.9,0.6,3.7,1.8,5.2c1.1,1.3,2.5,2.6,4,3.5c1.3,0.8,2.6,1.6,4,2.3c1.1,0.6,1.8,1.1,1.8,1.7l-5,8.5c-2.6-2.1-5.4-4-8.4-5.3
		c-1.9-0.9-4.1-1.3-6.2-1.1c-1.5,0.1-2.9,0.9-3.9,2.2c-0.9,1.4-1.4,3.1-1.3,4.8c0,2,0.9,4.1,2.3,5.5c1.7,1.8,3.6,3.3,5.7,4.6
		c2.3,1.4,4.8,2.9,7.4,4.3c2.6,1.3,5,2.8,7.4,4.5c2.1,1.5,4.1,3.2,5.7,5.2c1.5,1.8,2.3,4,2.3,6.3c0,2.6-0.7,5-2,7.1
		c-1.4,2.3-3.2,4.4-5.3,6.2c-2.1,1.8-4.6,3.3-7.1,4.3c-2.6,1.1-5.3,1.7-8,1.7c-2.6,0-5-0.4-7.5-1.1c-2.2-0.6-4.3-1.5-6.4-2.5
		c-2.1-1.1-4.1-2.3-6-3.7l4.8-10.4c2.2,1.9,4.6,3.5,7,5c1.9,1.1,3.9,2.2,6,3c1.6,0.6,3.3,1.1,4.9,1.5c1.3,0.3,2.6,0.4,4,0.3
		c2.5,0,4.8-0.9,6.7-2.5c1.5-1.9,1.9-3.5,1.1-5c-1.1-1.8-2.6-3.2-4.3-4.1c-2.5-1.5-4.9-2.9-7.6-4.1c-2.9-1.4-5.7-3-8.5-4.8
		c-2.6-1.7-5-3.7-7.1-6c-3.4-3.9-4.5-9.4-2.6-14.3c0.8-2.2,2-4.2,3.4-6c1.5-1.9,3.3-3.5,5.3-4.8c1.9-1.3,4.1-2.3,6.4-2.7
		c-0.6-0.7-1.2-1.4-1.6-2.3c-0.5-1.2-1-2.6-1.1-3.9c-0.4-3.2,0.2-6.4,1.9-9.2c1.8-2.8,4-5.4,6.6-7.4c2.7-2.1,5.7-3.8,9-4.9
		c2.9-1.1,6-1.8,9.1-1.8c2.8-0.2,5.6,0.4,8.1,1.5c1.9,1.1,3.5,2.7,4.3,4.8c1,2.7,1.6,5.6,1.7,8.5c0.3,3.4,0.4,7.7,0.4,12.7v2.8h12.2
		l-3.7,8h-8.5v25.8C271.4,250.2,271.5,254.6,271.8,258.9z"/>
	<path class="st1" d="M299.4,195.3v50.8c0,3.9,0.1,7.1,0.2,9.6c0.1,1.9,0.4,4,0.6,5.9c0.2,1.1,0.5,2.1,1.1,3c0.4,0.5,1.1,1,1.8,1.1
		c0.8,0.2,1.7,0.2,2.5,0.1c1.1-0.1,2.2-0.2,3.3-0.2l-9.5,7.9c-2.2,0.1-4.4-0.6-6.1-1.9c-1.7-1.5-2.9-3.4-3.6-5.6
		c-0.9-2.7-1.5-5.6-1.7-8.5c-0.3-3.3-0.4-6.9-0.4-10.8v-38.2c0-1.2-0.4-2.4-1.1-3.3c-0.7-1-1.8-1.8-2.9-2L299.4,195.3z"/>
	<path class="st1" d="M311,247.2c0-4.4,1-8.7,2.9-12.7c1.9-3.9,4.3-7.4,7.4-10.4c3-3,6.4-5.6,10.1-7.6c3.5-1.9,7.2-3.2,11.2-3.9
		c3.4-0.6,7-0.4,10.3,0.4c3.2,0.8,5.9,2.6,7.8,5.3l-10.9,7.1c-0.5-1.1-1.3-2-2.2-2.8c-1-0.8-1.9-1.5-3.1-1.9
		c-1.5-0.6-3.2-0.9-4.8-0.9c-2.2,0-4.4,0.4-6.4,1.4c-1.9,0.9-3.5,2.2-4.9,3.8c-1.4,1.7-2.6,3.5-3.4,5.6c-1,2.1-1.7,4.3-2,6.6h32.1
		l-5.1,11.3h-27.2c0.7,3.3,2.4,6.3,4.8,8.7c2.5,2.5,5.6,4.2,8.9,5.3c3.6,1.1,7.4,1.2,11.1,0.4c4.2-0.9,8.2-2.9,11.5-5.8
		c-1.9,2.5-3.8,4.8-5.8,7c-1.9,1.9-3.8,3.8-5.9,5.5c-1.9,1.6-4.2,2.8-6.7,3.6c-1.3,0.4-2.6,0.4-4.1,0.4c-2-0.1-4.1-0.4-6-1
		c-2.3-0.7-4.6-1.6-6.7-2.7c-2.4-1.2-4.4-2.9-6.3-4.8c-1.9-2.2-3.5-4.7-4.6-7.4C311.6,254.4,311,250.8,311,247.2z"/>
	<path class="st2" d="M216.7,136.9h-5.1v6.1h5.1v29.3c5.6-1.7,11.3-3,17-3.9c1.7-0.3,3.4-0.5,5.1-0.7c2-0.3,4.1-0.4,6.1-0.7
		c1.7-0.2,3.3-0.3,5.1-0.4c2.8-0.2,5.6-0.3,8.5-0.3c2.9,0,5.7,0.1,8.5,0.3c1.7,0.1,3.4,0.2,5.1,0.4c2,0.2,4.1,0.4,6.1,0.7
		c1.8,0.2,3.4,0.4,5.1,0.7l0,0c5.7,1,11.5,2.2,17,3.9l0,0V143h5.1v-6.1h-27.2v6.1h5.1v10.7c0,3.3-2,6.3-5.1,7.6
		c-1,0.4-2,0.6-3.1,0.6c-1.1,0-2.1-0.2-3.1-0.6c-3.1-1.2-5.1-4.2-5.1-7.6v-10.6h5.1V137h-27.2v6.1h5.1v10.7c0,3.3-2,6.3-5.1,7.6
		c-1,0.4-2,0.6-3.1,0.6c-1.1,0-2.1-0.2-3.1-0.6c-3.1-1.2-5.1-4.2-5.1-7.6v-10.7h5.1V137L216.7,136.9L216.7,136.9z"/>
	<path class="st2" d="M216.7,176.4c27.2-8.2,56.3-8.2,83.5,0v-1.9c-27.2-8.2-56.3-8.2-83.5,0L216.7,176.4L216.7,176.4z"/>
</g>
<g>
	<path class="st2" d="M38.8,376.8H33v6.9h5.8V417c6.3-1.9,12.8-3.4,19.3-4.4c1.9-0.3,3.9-0.6,5.8-0.8c2.3-0.3,4.6-0.5,6.9-0.8
		c1.9-0.2,3.8-0.3,5.8-0.4c3.2-0.2,6.4-0.3,9.7-0.3c3.3,0,6.5,0.1,9.7,0.3c1.9,0.1,3.9,0.2,5.8,0.4c2.3,0.2,4.7,0.5,6.9,0.8
		c2,0.2,3.9,0.5,5.8,0.8l0,0c6.5,1.1,13,2.5,19.3,4.4l0,0v-33.3h5.8v-6.9h-30.9v6.9h5.8v12.1c0,3.8-2.3,7.1-5.8,8.6
		c-1.1,0.5-2.3,0.7-3.5,0.7s-2.4-0.2-3.5-0.7c-3.5-1.4-5.8-4.8-5.8-8.6v-12h5.8v-6.9H70.8v6.9h5.8v12.1c0,3.8-2.3,7.1-5.8,8.6
		c-1.1,0.5-2.3,0.7-3.5,0.7s-2.4-0.2-3.5-0.7c-3.5-1.4-5.8-4.8-5.8-8.6v-12.1h5.8v-6.9L38.8,376.8L38.8,376.8z"/>
	<path class="st2" d="M114.5,376.8h-5.8v6.9h5.8V417c6.3-1.9,12.8-3.4,19.3-4.4c1.9-0.3,3.9-0.6,5.8-0.8c2.3-0.3,4.6-0.5,6.9-0.8
		c1.9-0.2,3.8-0.3,5.8-0.4c3.2-0.2,6.4-0.3,9.7-0.3c3.3,0,6.5,0.1,9.7,0.3c1.9,0.1,3.9,0.2,5.8,0.4c2.3,0.2,4.7,0.5,6.9,0.8
		c2,0.2,3.9,0.5,5.8,0.8l0,0c6.5,1.1,13,2.5,19.3,4.4l0,0v-33.3h5.8v-6.9h-30.9v6.9h5.8v12.1c0,3.8-2.3,7.1-5.8,8.6
		c-1.1,0.5-2.3,0.7-3.5,0.7s-2.4-0.2-3.5-0.7c-3.5-1.4-5.8-4.8-5.8-8.6v-12h5.8v-6.9h-30.9v6.9h5.8v12.1c0,3.8-2.3,7.1-5.8,8.6
		c-1.1,0.5-2.3,0.7-3.5,0.7s-2.4-0.2-3.5-0.7c-3.5-1.4-5.8-4.8-5.8-8.6v-12.1h5.8v-6.9L114.5,376.8L114.5,376.8z"/>
	<path class="st2" d="M190.3,376.8h-5.8v6.9h5.8V417c6.3-1.9,12.8-3.4,19.3-4.4c1.9-0.3,3.9-0.6,5.8-0.8c2.3-0.3,4.6-0.5,6.9-0.8
		c1.9-0.2,3.8-0.3,5.8-0.4c3.2-0.2,6.4-0.3,9.7-0.3c3.3,0,6.5,0.1,9.7,0.3c1.9,0.1,3.9,0.2,5.8,0.4c2.3,0.2,4.7,0.5,6.9,0.8
		c2,0.2,3.9,0.5,5.8,0.8l0,0c6.5,1.1,13,2.5,19.3,4.4l0,0v-33.3h5.8v-6.9h-30.9v6.9h5.8v12.1c0,3.8-2.3,7.1-5.8,8.6
		c-1.1,0.5-2.3,0.7-3.5,0.7s-2.4-0.2-3.5-0.7c-3.5-1.4-5.8-4.8-5.8-8.6v-12h5.8v-6.9h-30.9v6.9h5.8v12.1c0,3.8-2.3,7.1-5.8,8.6
		c-1.1,0.5-2.3,0.7-3.5,0.7s-2.4-0.2-3.5-0.7c-3.5-1.4-5.8-4.8-5.8-8.6v-12.1h5.8v-6.9L190.3,376.8L190.3,376.8z"/>
	<g>
		<path class="st2" d="M266.2,376.8h-5.8v6.9h5.8V417c6.3-1.9,12.8-3.4,19.3-4.4c1.9-0.3,3.9-0.6,5.8-0.8c2.3-0.3,4.6-0.5,6.9-0.8
			c1.9-0.2,3.8-0.3,5.8-0.4c3.2-0.2,6.4-0.3,9.7-0.3c3.3,0,6.5,0.1,9.7,0.3c1.9,0.1,3.9,0.2,5.8,0.4c2.3,0.2,4.7,0.5,6.9,0.8
			c2,0.2,3.9,0.5,5.8,0.8l0,0c6.5,1.1,13,2.5,19.3,4.4l0,0v-33.3h5.8v-6.9h-30.9v6.9h5.8v12.1c0,3.8-2.3,7.1-5.8,8.6
			c-1.1,0.5-2.3,0.7-3.5,0.7s-2.4-0.2-3.5-0.7c-3.5-1.4-5.8-4.8-5.8-8.6v-12h5.8v-6.9h-30.9v6.9h5.8v12.1c0,3.8-2.3,7.1-5.8,8.6
			c-1.1,0.5-2.3,0.7-3.5,0.7c-1.2,0-2.4-0.2-3.5-0.7c-3.5-1.4-5.8-4.8-5.8-8.6v-12.1h5.8v-6.9L266.2,376.8L266.2,376.8z"/>
	</g>
</g>
</svg>
