<?xml version="1.0" encoding="utf-8"?>
<!-- Generator: Adobe Illustrator 26.0.1, SVG Export Plug-In . SVG Version: 6.00 Build 0)  -->
<svg version="1.1" id="Слой_1" xmlns="http://www.w3.org/2000/svg" xmlns:xlink="http://www.w3.org/1999/xlink" x="0px" y="0px"
	 viewBox="0 0 400 400" style="enable-background:new 0 0 400 400;" xml:space="preserve">
<style type="text/css">
	.st0{fill:#F8F8F8;}
	.st1{fill:#713F13;}
	.st2{fill:#CA8B0C;}
</style>
<rect x="-30.8" y="-21.7" class="st0" width="461.7" height="444.1"/>
<g>
	<g>
		<path class="st1" d="M32.4,34.6c0-9.8,5.8-13.8,13.6-13.8s12.6,3.6,12.6,9.1v0.4h-8.3v-0.4c0-1.8-1.3-2-4.3-2
			c-4,0-5.6,0.6-5.6,5.2v1.4h0.5c1.2-1.7,3.7-3.2,8.1-3.2c6.6,0,10.1,2.4,10.1,7.9c0,5.4-4.2,8.8-12.4,8.8
			C36.5,48,32.4,43.7,32.4,34.6z M51.3,38.7c0-1.7-0.8-2.3-5.1-2.3c-4.7,0-5.5,0.6-5.5,2.3c0,1.5,0.8,2.2,5.5,2.2
			C50.5,40.9,51.3,40.2,51.3,38.7z"/>
		<path class="st1" d="M60.9,34.4c0-8.1,4.7-13.6,13.7-13.6s13.7,5.5,13.7,13.6S83.6,48,74.6,48S60.9,42.5,60.9,34.4z M80.3,34.4
			c0-4.9-1.2-6.4-5.7-6.4s-5.7,1.5-5.7,6.4s1.2,6.4,5.7,6.4C79.1,40.8,80.3,39.3,80.3,34.4z"/>
		<path class="st1" d="M95.7,47.6V27.7h7v6h0.4c0.4-3.3,2.3-6.4,7.3-6.4c4.7,0,7,2.8,7.3,6.4h0.4c0.4-3.3,2.3-6.4,7.5-6.4
			c5.1,0,7.5,3.2,7.5,7.5v12.8h-7.4v-10c0-2.8-0.8-3.6-3.9-3.6c-3,0-3.7,0.8-3.7,3.4v10.3h-7.4v-10c0-2.8-0.8-3.6-3.9-3.6
			c-3,0-3.7,0.8-3.7,3.4v10.3h-7.4C95.7,47.8,95.7,47.6,95.7,47.6z"/>
		<path class="st1" d="M135.3,25.9v-4.7h7.4v4.7C142.7,25.9,135.3,25.9,135.3,25.9z M135.3,47.6V27.7h7.4v19.9H135.3z"/>
		<path class="st1" d="M145.1,47.6V27.7h7v6h0.4c0.4-3.3,2.6-6.4,7.9-6.4c5.4,0,7.9,3.2,7.9,7.5v12.8h-7.4v-10c0-2.8-1-3.6-4.3-3.6
			s-4.1,0.8-4.1,3.4v10.3h-7.4L145.1,47.6L145.1,47.6z"/>
		<path class="st1" d="M170.5,47.6V40h9.6v7.6H170.5z"/>
	</g>
	<g>
		<path class="st1" d="M313,47.6V29.5h-7.1v-5h1c2.9,0,5.1-0.6,6.6-3.3h6.9v26.5H313V47.6z"/>
		<path class="st1" d="M322.1,47.6V43c0-4.5,2.1-6.8,7.8-8.7l7.2-2.3c1.7-0.6,2.4-1.1,2.4-2.3c0-1.3-0.5-2.2-4.5-2.2
			c-4.4,0-5.4,1.1-5.4,3.5v0.5h-7.3V31c0-5.3,3.6-10.2,13-10.2c8.4,0,11.7,3.7,11.7,9.1c0,5-3.3,7.3-8.1,8.5l-5.9,1.5
			c-1.7,0.4-3,0.7-3,2.1l7.4-0.9h9.4v6.7h-24.7V47.6z"/>
		<path class="st1" d="M355.1,43.8v-6.3h-6.2v-6.1h6.2V25h6.3v6.3h6.2v6.1h-6.2v6.3h-6.3V43.8z"/>
	</g>
</g>
<g>
	<g>
		<g>
			<path class="st2" d="M135.2,371.1c-0.3,0-0.6-0.1-0.8-0.3c-0.3-0.3-0.3-0.5-0.3-0.8s0.1-0.6,0.3-0.8c0.3-0.3,0.5-0.3,0.8-0.3
				c0.7,0,1.2,0.5,1.2,1.2l0,0C136.4,370.6,135.9,371.1,135.2,371.1z"/>
			<path class="st2" d="M135.2,375.1c-0.3,0-0.6-0.1-0.8-0.3c-0.4-0.4-0.4-1.2,0-1.6c0.3-0.3,0.5-0.3,0.8-0.3c0.7,0.1,1.1,0.7,1,1.3
				C136.2,374.6,135.8,375,135.2,375.1L135.2,375.1z"/>
			<path class="st2" d="M209.2,372.2c-0.7,0-1.2-0.5-1.2-1.2s0.5-1.2,1.2-1.2c0.3,0,0.6,0.1,0.8,0.3c0.4,0.4,0.4,1.2,0,1.6
				C209.8,372.1,209.4,372.2,209.2,372.2z"/>
			<path class="st2" d="M215,372.2c-0.7,0-1.2-0.5-1.2-1.2s0.5-1.2,1.2-1.2s1.2,0.5,1.2,1.2c0,0.3-0.2,0.6-0.3,0.8
				C215.6,372.1,215.3,372.2,215,372.2z"/>
			<path class="st2" d="M241.4,371.5c-0.7,0-1.2-0.5-1.2-1.2l0,0c0-0.3,0.1-0.6,0.3-0.8c0.3-0.3,0.5-0.3,0.8-0.3s0.6,0.1,0.8,0.3
				s0.3,0.5,0.3,0.8s-0.1,0.6-0.3,0.8C242.1,371.4,241.7,371.5,241.4,371.5z"/>
			<path class="st2" d="M259.4,371.1c-0.3,0-0.6-0.1-0.8-0.3s-0.3-0.5-0.3-0.8s0.1-0.6,0.3-0.8c0.3-0.3,0.5-0.3,0.8-0.3
				c0.7,0,1.2,0.5,1.2,1.2l0,0C260.5,370.6,260,371.1,259.4,371.1z"/>
			<path class="st2" d="M259.4,375.1c-0.3,0-0.6-0.1-0.8-0.3c-0.4-0.4-0.4-1.2,0-1.6c0.3-0.3,0.5-0.3,0.8-0.3c0.7,0.1,1.1,0.7,1,1.3
				C260.4,374.6,260,375,259.4,375.1L259.4,375.1z"/>
			<g>
				<path class="st1" d="M138.9,390.1c-2.4,0-4.8-0.6-6.9-1.8v1.6h-1.7v-2.8c-0.3-0.3-0.5-0.5-0.8-0.7l-0.2,1.3l-1.7-0.2l0.4-3.8
					l3.8-0.4l0.2,1.7l-1.7,0.2c0.3,0.3,0.5,0.5,0.8,0.8l2.8-0.6l0.3,1.7l-1.2,0.3c1.8,0.8,3.7,1.3,5.6,1.3c1.5,0,3.1-0.3,4.5-0.9
					v-8.1c-0.9-0.3-1.8-0.4-2.7-0.5c-0.2,0.3-0.3,0.6-0.6,0.8c-0.5,0.5-1.2,0.8-1.9,0.8c-0.8,0-1.4-0.3-1.9-0.8
					c-0.4-0.3-0.7-0.8-0.8-1.3c-1.8-0.1-3.4-0.6-4.9-1.3c-1.7-0.8-2.8-2.6-2.7-4.5c0-1.5,0.6-2.9,1.6-3.9c1.3-1.3,3.1-2.3,5-2.7
					c1-0.3,2-0.3,3-0.3c2.4,0,4.8,0.6,6.9,1.8v-1.6h1.7v2.8c0.3,0.3,0.5,0.5,0.8,0.8l0.2-1.3l1.7,0.2l-0.4,3.8l-3.8,0.4l-0.2-1.7
					l1.7-0.2c-0.3-0.3-0.5-0.5-0.8-0.8l-2.8,0.6l-0.3-1.7l1.2-0.3c-1.8-0.8-3.7-1.3-5.6-1.3c-1.5,0-3.1,0.3-4.5,0.9v8
					c0.9,0.3,1.8,0.4,2.7,0.5c0.2-0.3,0.3-0.6,0.6-0.8c0.5-0.5,1.2-0.8,1.9-0.8s1.4,0.3,1.9,0.8c0.3,0.3,0.6,0.8,0.8,1.3
					c3.5,0.3,5.8,1.3,6.9,3.1c0.5,0.8,0.8,1.8,0.7,2.8c0,1.5-0.6,2.9-1.6,3.9c-1.3,1.3-3.1,2.3-5,2.7
					C140.8,390,139.9,390.1,138.9,390.1z M131.3,375.6v-6.4c-1.1,0.8-1.7,2.1-1.8,3.4C129.6,373.9,130.3,375.1,131.3,375.6
					L131.3,375.6z M138.2,378.9c0.3,0,0.5-0.1,0.8-0.3c0.4-0.4,0.4-1,0-1.4c-0.2-0.2-0.4-0.3-0.8-0.3c-0.3,0-0.5,0.1-0.8,0.3
					c-0.4,0.4-0.4,1,0,1.4C137.6,378.8,137.9,378.9,138.2,378.9L138.2,378.9z M145.1,386.5c1.1-0.8,1.7-2.1,1.8-3.4
					s-0.6-2.5-1.8-3.1V386.5z"/>
				<path class="st1" d="M165.8,370.5h-9.2v-1.7h3.8v-1.5H152v1.6h-1.7v-3.3h21.8v3.3h-1.7v-1.6H162v1.5h3.8V370.5z M164.4,390.1
					l-2.3-2.3v2.3h-1.7v-2.3l-2.3,2.3l-1.2-1.2l3.4-3.4v-12h-3.8v-1.7h9.2v1.7h-3.8v11.9l3.4,3.4L164.4,390.1z"/>
				<path class="st1" d="M186,390.1c-1.7,0-3.3-0.3-4.8-0.9c-2.9-1.3-5.3-3.6-6.5-6.5c-1.3-3-1.3-6.4,0-9.4c0.6-1.4,1.5-2.8,2.6-3.8
					c1.1-1.1,2.4-2,3.8-2.6c3-1.3,6.4-1.3,9.4,0c2.9,1.3,5.3,3.6,6.5,6.5c1.3,3,1.3,6.4,0,9.4c-1.3,2.9-3.6,5.3-6.5,6.5
					C189.3,389.8,187.7,390.1,186,390.1z M179.2,385.8l6-4.3V374l-6-4.3c-2.1,1.8-3.4,4.3-3.7,7.1h3.2l-1.3-1.5l1.3-1.1l2.8,3.4
					l-2.8,3.4l-1.3-1.1l1.3-1.5h-3.2C175.8,381.5,177.1,384.1,179.2,385.8L179.2,385.8z M186,372.7l5.4-3.8
					c-0.4-0.3-0.8-0.4-1.2-0.6l-4.3,3l-4.3-3c-0.4,0.2-0.8,0.3-1.2,0.6L186,372.7z M190.3,387.5c0.4-0.2,0.8-0.3,1.2-0.6l-5.4-3.8
					l-5.4,3.8c0.3,0.3,0.8,0.4,1.2,0.6l4.3-3L190.3,387.5z M186,369.2l2.3-1.6c-1.5-0.3-3.1-0.3-4.6,0L186,369.2z M186,388.4
					c0.8,0,1.5-0.1,2.3-0.3l-2.3-1.6l-2.3,1.6C184.5,388.3,185.3,388.4,186,388.4z M192.9,385.8c2.1-1.8,3.4-4.3,3.6-7.1h-3.2
					l1.3,1.5l-1.3,1.1l-2.8-3.4l2.8-3.4l1.3,1.1l-1.3,1.5h3.2c-0.3-2.8-1.5-5.4-3.6-7.1l-6,4.3v7.5L192.9,385.8z"/>
				<path class="st1" d="M220.7,390.1h-4.8v-6.4l-10.8-4.7v6.5l3.4,3.4l-1.2,1.2l-2.3-2.3v2.3h-1.7v-2.3l-2.3,2.3l-1.2-1.2l3.4-3.4
					v-14.1l-2.2,1l-0.7-1.5l2.8-1.3v-3.8h1.7v3.1l6.9-3.1c2.9,1.3,5.8,2.5,8.7,3.8v8.7l-6.6,2.8l3.4,1.5v3h3.2v1.7h-3.2v1.2h3.2
					L220.7,390.1z M205,375.6l1.7-1.7l-1.7-1.7V375.6z M211.2,379.8v-12l-5.6,2.4l3.5,3.5l-3.5,3.5L211.2,379.8z M212.9,379.8
					l5.6-2.4l-3.5-3.5l3.5-3.5l-5.6-2.4V379.8z M219,375.6v-3.3l-1.7,1.7L219,375.6z"/>
				<path class="st1" d="M229.8,390.1l-2.3-2.3v2.3h-1.7v-2.3l-2.3,2.3l-1.1-1.2l3.4-3.4v-15.1l-3.4-3.4l1.2-1.2l2.3,2.3v-2.3h1.7
					v2.3l2.3-2.3l1.2,1.2c-1.2,1.2-2.3,2.3-3.4,3.4v15.1l3.4,3.4L229.8,390.1z"/>
				<path class="st1" d="M250.2,390.1h-17.6v-1.7h5l-4.6-2v-17.1l4.6-2h-4.9v-1.7h17.6v1.7h-4.4l4.1,1.8l-0.7,1.5l-7.4-3.3l-6.9,3.1
					v3.8h6.8v1.7H235v1.2h9.1l1.7-2.1l1.3,1.1l-1.5,1.8l1.5,1.8l-1.3,1.1l-1.7-2.1H235v1.2h6.8v1.7H235v3.8l6.9,3.1l7.4-3.3l0.7,1.5
					l-4.1,1.8h4.5v1.6H250.2z"/>
				<path class="st1" d="M263,390.1c-2.4,0-4.8-0.6-6.9-1.8v1.6h-1.7v-2.8c-0.3-0.3-0.5-0.5-0.8-0.7l-0.2,1.3l-1.7-0.2l0.4-3.8
					l3.8-0.4l0.2,1.7l-1.7,0.2c0.3,0.3,0.5,0.5,0.8,0.8l2.8-0.6l0.3,1.7l-1.2,0.3c1.8,0.8,3.7,1.3,5.6,1.3c1.5,0,3.1-0.3,4.5-0.9v-8
					c-0.9-0.3-1.8-0.4-2.7-0.5c-0.2,0.3-0.3,0.6-0.6,0.8c-0.5,0.5-1.2,0.8-1.9,0.8s-1.4-0.3-1.9-0.8c-0.3-0.3-0.6-0.8-0.8-1.3
					c-1.8-0.1-3.4-0.6-4.9-1.3c-1.7-0.8-2.8-2.6-2.7-4.5c0-1.5,0.6-2.9,1.6-3.9c1.3-1.3,3.1-2.3,5-2.7c3.3-0.8,6.9-0.3,9.9,1.4v-1.6
					h1.7v2.8c0.3,0.3,0.5,0.5,0.8,0.8l0.2-1.3l1.7,0.2l-0.4,3.8l-3.8,0.4l-0.2-1.7l1.7-0.2c-0.3-0.3-0.5-0.5-0.8-0.8l-2.8,0.6
					l-0.3-1.7l1.2-0.3c-1.8-0.8-3.7-1.3-5.6-1.3c-1.5,0-3.1,0.3-4.5,0.9v8c0.9,0.3,1.8,0.4,2.7,0.5c0.2-0.3,0.3-0.6,0.6-0.8
					c0.5-0.5,1.2-0.8,1.9-0.8c0.7,0,1.4,0.3,1.9,0.8c0.4,0.3,0.7,0.8,0.8,1.3c3.5,0.3,5.8,1.3,6.9,3.1c0.5,0.8,0.8,1.8,0.7,2.8
					c0,1.5-0.6,2.9-1.6,3.9c-1.3,1.3-3.1,2.3-5,2.7C265.1,390,264.1,390.1,263,390.1z M255.5,375.6v-6.4c-1.1,0.8-1.7,2.1-1.8,3.4
					C253.8,373.9,254.4,375.1,255.5,375.6L255.5,375.6z M262.4,378.9c0.3,0,0.5-0.1,0.8-0.3c0.4-0.4,0.4-1,0-1.4
					c-0.2-0.2-0.4-0.3-0.8-0.3c-0.3,0-0.5,0.1-0.8,0.3c-0.4,0.4-0.4,1,0,1.4C261.9,378.8,262.1,378.9,262.4,378.9L262.4,378.9z
					 M269.2,386.5c1.1-0.8,1.7-2.1,1.8-3.4c0.1-1.3-0.6-2.5-1.8-3.1V386.5z"/>
				<path class="st2" d="M141.1,383c-0.7-0.1-1.1-0.7-1-1.3c0.1-0.5,0.5-0.9,1-1c0.7,0.1,1.1,0.7,1,1.3
					C142.1,382.5,141.6,382.9,141.1,383z"/>
				<path class="st2" d="M141.1,386.9c-0.3,0-0.6-0.1-0.8-0.3c-0.4-0.4-0.4-1.2,0-1.6c0.3-0.3,0.5-0.3,0.8-0.3
					c0.7,0,1.2,0.5,1.2,1.2c0,0.3-0.1,0.6-0.3,0.8C141.7,386.8,141.5,386.9,141.1,386.9z"/>
				<path class="st2" d="M157.9,376.7c-0.7,0-1.2-0.5-1.2-1.2l0,0c0-0.7,0.5-1.2,1.2-1.2l0,0c0.7,0,1.2,0.5,1.2,1.2l0,0
					C158.9,376.2,158.4,376.7,157.9,376.7z"/>
				<path class="st2" d="M157.9,380.2c-0.7,0.1-1.2-0.4-1.3-1c-0.1-0.7,0.4-1.2,1-1.3c0.1,0,0.2,0,0.3,0c0.7-0.1,1.2,0.4,1.3,1
					c0.1,0.7-0.4,1.2-1,1.3C158,380.2,157.9,380.2,157.9,380.2z"/>
				<path class="st2" d="M164.6,376.7c-0.3,0-0.6-0.1-0.8-0.3c-0.3-0.2-0.3-0.5-0.3-0.8c0-0.7,0.5-1.2,1.2-1.2s1.2,0.5,1.2,1.2
					C165.8,376.2,165.3,376.7,164.6,376.7z"/>
				<path class="st2" d="M164.6,380.2c-0.7-0.1-1.1-0.7-1-1.3c0.1-0.5,0.5-0.9,1-1c0.7,0.1,1.1,0.7,1,1.3
					C165.6,379.8,165.2,380.2,164.6,380.2z"/>
				<path class="st2" d="M183.4,379.1c-0.3,0-0.6-0.1-0.8-0.3c-0.4-0.4-0.4-1.2,0-1.6s1.2-0.4,1.6,0c0.4,0.4,0.4,1.2,0,1.6
					C184,378.9,183.7,379.1,183.4,379.1z"/>
				<path class="st2" d="M188.7,379.1c-0.3,0-0.6-0.1-0.8-0.3c-0.4-0.4-0.4-1.2,0-1.6s1.2-0.4,1.7,0c0.4,0.4,0.4,1.2,0,1.6
					C189.3,378.9,189,379.1,188.7,379.1z"/>
				<path class="st2" d="M209.2,377.8c-0.7,0-1.2-0.5-1.2-1.2c0-0.3,0.1-0.6,0.3-0.8c0.4-0.4,1.2-0.4,1.7,0c0.3,0.3,0.3,0.5,0.3,0.8
					s-0.1,0.6-0.3,0.8C209.8,377.7,209.4,377.8,209.2,377.8z"/>
				<path class="st2" d="M215,377.8c-0.7,0-1.2-0.5-1.2-1.2l0,0c0-0.3,0.1-0.6,0.3-0.8c0.4-0.4,1.2-0.4,1.7,0
					c0.3,0.3,0.3,0.5,0.3,0.8C216.1,377.3,215.6,377.8,215,377.8L215,377.8z"/>
				<path class="st2" d="M241.4,386.6c-0.3,0-0.6-0.1-0.8-0.3c-0.4-0.4-0.4-1.2,0-1.7c0.3-0.3,0.5-0.3,0.8-0.3s0.6,0.1,0.8,0.3
					c0.4,0.4,0.4,1.2,0,1.6C242.1,386.5,241.7,386.6,241.4,386.6z"/>
				<path class="st2" d="M265.3,383c-0.7-0.1-1.1-0.7-1-1.3c0.1-0.5,0.5-0.9,1-1c0.7,0.1,1.1,0.7,1,1.3
					C266.2,382.5,265.8,382.9,265.3,383z"/>
				<path class="st2" d="M265.3,386.9c-0.3,0-0.6-0.1-0.8-0.3c-0.4-0.4-0.4-1.2,0-1.6c0.3-0.3,0.5-0.3,0.8-0.3s0.6,0.1,0.8,0.3
					c0.4,0.4,0.4,1.2,0,1.6C265.9,386.8,265.6,386.9,265.3,386.9z"/>
			</g>
		</g>
		<g>
			<path class="st1" d="M133.2,357.9v-11.4h-2.9l-4.1,4.1l-4.2-4.1h-2.9v11.4h-4.2v-1.7h2.5v-1.1h-2.5v-1.7h2.5v-6.9h-2.3v-1.7h2.3
				v-6.9h-2.5v-1.7h2.5v-1.1h-2.5v-1.7h4.2v11.4h2.9l4.1-4.1l4.1,4.1h2.9v-11.4h4.2v1.7h-2.5v1.1h2.5v1.7h-2.5v6.9h2.3v1.7h-2.3v6.9
				h2.5v1.7h-2.5v1.1h2.5v1.7H133.2z M126.2,348.3l2.6-2.6l-2.6-2.6l-2.6,2.6L126.2,348.3z"/>
			<path class="st1" d="M156.5,357.9H139v-1.7h5l-4.6-2v-17.1l4.6-2h-4.9v-1.7h17.5v1.7h-4.4l4.1,1.8l-0.7,1.5l-7.4-3.3l-6.9,3.1
				v3.8h6.8v1.7h-6.8v1.2h9.1l1.7-2.1l1.3,1.1l-1.5,1.8l1.5,1.8l-1.3,1.1l-1.7-2.1h-9.1v1.1h6.8v1.7h-6.8v3.8l6.9,3.1l7.4-3.3
				l0.7,1.5l-4.1,1.8h4.5L156.5,357.9z"/>
			<path class="st1" d="M179,357.9h-4.9v-6.4l-10.8-4.7v6.5l3.4,3.4l-1.2,1.2l-2.3-2.3v2.3h-1.7v-2.3l-2.3,2.3l-1.2-1.2l3.4-3.4
				v-14.1l-2.2,1l-0.7-1.5l2.9-1.3v-3.8h1.7v3.1l6.9-3.1c2.9,1.3,5.8,2.5,8.7,3.8v8.8l-6.6,2.8l3.4,1.5v3h3.2v1.7h-3.2v1.2h3.2
				L179,357.9z M163.4,343.3l1.7-1.7l-1.7-1.6V343.3z M169.6,347.6v-12L164,338l3.5,3.5L164,345L169.6,347.6z M171.2,347.6l5.6-2.4
				l-3.5-3.5l3.5-3.5l-5.6-2.4V347.6z M177.3,343.3V340l-1.7,1.7L177.3,343.3z"/>
			<path class="st1" d="M188.1,357.9l-2.3-2.3v2.3h-1.7v-2.3l-2.3,2.3l-1.2-1.2l3.4-3.4v-15.1l-3.4-3.4l1.2-1.2l2.3,2.3v-2.3h1.7
				v2.3l2.3-2.3l1.2,1.2c-1.2,1.2-2.3,2.3-3.4,3.4v15.1l3.4,3.4L188.1,357.9z"/>
			<path class="st1" d="M206.4,338.3h-9.2v-1.7h3.8v-1.5h-8.4v1.6H191v-3.3h21.8v3.3h-1.7v-1.6h-8.4v1.5h3.8L206.4,338.3z
				 M205,357.9l-2.3-2.3v2.3H201v-2.3l-2.3,2.3l-1.2-1.2l3.4-3.4v-12h-3.8v-1.7h9.2v1.7h-3.8v12l3.4,3.4L205,357.9z"/>
			<path class="st1" d="M236.7,357.9l-7-14l-1.3,2.4l4.2,8.3h-10.2l4.2-8.3l-1.3-2.3l-7,14h-3.8v-1.7h2.8l0.8-1.5h-2.3v-1.7h3.1
				l7.3-14.5h-3.5V337h3.5l-1.3-2.7l1.5-0.8l1.2,2.3l1.2-2.3l1.5,0.8L229,337h3.5v1.7H229l7.3,14.5h3.1v1.7h-2.3l0.8,1.5h2.8v1.7
				L236.7,357.9z M229.9,352.9l-2.3-4.8l-2.4,4.8H229.9z M227.5,344.4l1.2-2.4l-1.3-2.4l-1.2,2.4L227.5,344.4z"/>
			<path class="st1" d="M254.4,357.9c-1.6,0-3.3-0.3-4.8-0.9c-1.4-0.6-2.8-1.5-3.8-2.6c-1.1-1.1-2-2.4-2.6-3.8c-1.3-3-1.3-6.4,0-9.4
				c1.3-2.9,3.6-5.3,6.5-6.5c1.5-0.7,3.1-1,4.8-0.9c2.3,0,4.4,0.7,6.4,1.8c1.1,0.6,2.1,1.4,2.8,2.4c0.3,0.4,0.5,1,0.5,1.5
				c0,1.5-1.2,2.7-2.7,2.7s-2.7-1.2-2.7-2.7l0,0c0-1,0.6-1.9,1.4-2.3c-1.7-1.2-3.7-1.8-5.8-1.8c-1.4,0-2.8,0.3-4.1,0.8
				c-1.3,0.6-2.4,1.3-3.3,2.3c-1,0.9-1.8,2.1-2.3,3.3c-0.6,1.3-0.8,2.7-0.8,4.1c0,0.7,0.1,1.3,0.2,2h22.3c-0.3,1.5-0.8,2.9-1.4,4.3
				c-0.8,1.3-1.8,2.4-3,3.3c-1.1,0.8-2.3,1.5-3.5,1.9C257.1,357.7,255.8,357.9,254.4,357.9z M262.2,352.8c0.9-1,1.7-2.2,2.1-3.4
				h-19.8c0.5,1.3,1.2,2.4,2.1,3.4H262.2z M254.4,356.2c2.1,0,4.1-0.6,5.8-1.7h-11.5C250.3,355.7,252.3,356.2,254.4,356.2z
				 M261.4,340.2c0.3,0,0.5-0.1,0.7-0.3s0.3-0.4,0.3-0.7c0-0.3-0.1-0.5-0.3-0.7c-0.2-0.2-0.4-0.3-0.7-0.3c-0.5,0-1,0.4-1,1
				C260.5,339.8,260.9,340.2,261.4,340.2L261.4,340.2z"/>
			<path class="st1" d="M285.6,357.9H268v-1.7h5l-4.6-2v-17.1l4.6-2h-4.9v-1.7h17.6v1.7h-4.4l4.1,1.8l-0.7,1.5l-7.4-3.3l-6.9,3.1
				v3.8h6.8v1.7h-6.8v1.2h9.2l1.7-2.1l1.3,1.1l-1.5,1.8l1.5,1.8l-1.3,1.1l-1.7-2.2h-9.2v1.2h6.8v1.7h-6.8v3.8l6.9,3.1l7.4-3.3
				l0.7,1.5l-4.1,1.8h4.5L285.6,357.9z"/>
			<path class="st2" d="M122.4,342c-0.7,0-1.2-0.5-1.2-1.2s0.5-1.2,1.2-1.2s1.2,0.5,1.2,1.2C123.5,341.5,123,342,122.4,342z"/>
			<path class="st2" d="M122.4,351.6c-0.7,0-1.2-0.5-1.2-1.2s0.5-1.2,1.2-1.2s1.2,0.5,1.2,1.2C123.5,351.1,123,351.6,122.4,351.6z"
				/>
			<path class="st2" d="M126.2,339.7c-0.7,0-1.2-0.5-1.1-1.2c0-0.7,0.5-1.2,1.2-1.1c0.3,0,0.6,0.1,0.8,0.3c0.4,0.4,0.4,1.2,0,1.6
				C126.7,339.6,126.4,339.8,126.2,339.7z"/>
			<path class="st2" d="M126.2,346.8c-0.3,0-0.6-0.1-0.8-0.3s-0.3-0.5-0.3-0.8c0-0.7,0.5-1.2,1.2-1.2c0.3,0,0.6,0.1,0.8,0.3
				c0.3,0.3,0.3,0.5,0.3,0.8s-0.1,0.6-0.3,0.8C126.7,346.7,126.4,346.9,126.2,346.8z"/>
			<path class="st2" d="M126.2,353.9c-0.7,0-1.2-0.5-1.2-1.2s0.5-1.2,1.2-1.2c0.3,0,0.6,0.1,0.8,0.3c0.4,0.4,0.4,1.2,0,1.6
				C126.7,353.8,126.4,353.9,126.2,353.9z"/>
			<path class="st2" d="M129.9,342c-0.7,0-1.2-0.5-1.2-1.2s0.5-1.2,1.1-1.2c0.3,0,0.6,0.1,0.8,0.3c0.3,0.2,0.3,0.5,0.3,0.8
				C131.1,341.5,130.6,342,129.9,342z"/>
			<path class="st2" d="M129.9,351.6c-0.7,0-1.2-0.5-1.2-1.2s0.5-1.2,1.2-1.2s1.2,0.5,1.2,1.2c0,0.3-0.1,0.6-0.3,0.8
				C130.5,351.5,130.3,351.6,129.9,351.6z"/>
			<path class="st2" d="M147.8,339.3c-0.3,0-0.6-0.1-0.8-0.3c-0.4-0.4-0.4-1.2,0-1.7c0.4-0.4,1.2-0.4,1.7,0c0.4,0.4,0.4,1.2,0,1.7
				C148.4,339.2,148.1,339.3,147.8,339.3z"/>
			<path class="st2" d="M147.8,354.4c-0.7,0-1.2-0.5-1.2-1.2l0,0c0-0.3,0.1-0.6,0.3-0.8c0.4-0.4,1.2-0.4,1.7,0
				c0.4,0.4,0.4,1.2,0,1.6C148.4,354.3,148.1,354.4,147.8,354.4z"/>
			<path class="st2" d="M167.5,340c-0.3,0-0.6-0.1-0.8-0.3c-0.4-0.4-0.4-1.2,0-1.6s1.2-0.4,1.7,0c0.4,0.4,0.4,1.2,0,1.6
				C168.1,339.9,167.7,340,167.5,340z"/>
			<path class="st2" d="M167.5,345.6c-0.3,0-0.6-0.1-0.8-0.3c-0.3-0.3-0.3-0.5-0.3-0.8s0.1-0.6,0.3-0.8c0.4-0.4,1.2-0.4,1.7,0
				c0.3,0.3,0.3,0.5,0.3,0.8C168.6,345.1,168.1,345.6,167.5,345.6L167.5,345.6z"/>
			<path class="st2" d="M173.2,340c-0.7,0.1-1.2-0.4-1.3-1c-0.1-0.7,0.4-1.2,1-1.3c0.1,0,0.2,0,0.3,0c0.3,0,0.6,0.1,0.8,0.3
				c0.4,0.4,0.4,1.2,0,1.6C173.8,339.9,173.6,340,173.2,340z"/>
			<path class="st2" d="M173.2,345.6c-0.7,0-1.2-0.5-1.2-1.2l0,0c0-0.3,0.1-0.6,0.3-0.8s0.5-0.3,0.8-0.3s0.6,0.1,0.8,0.3
				c0.3,0.3,0.3,0.5,0.3,0.8s-0.1,0.6-0.3,0.8C173.8,345.5,173.6,345.6,173.2,345.6z"/>
			<path class="st2" d="M198.5,344.5c-0.3,0-0.6-0.1-0.8-0.3c-0.4-0.4-0.4-1.2,0-1.6s1.2-0.4,1.6,0c0.4,0.4,0.4,1.2,0,1.6
				C199.1,344.4,198.7,344.5,198.5,344.5z"/>
			<path class="st2" d="M198.5,348c-0.3,0-0.6-0.1-0.8-0.3c-0.4-0.4-0.4-1.2,0-1.6s1.2-0.4,1.6,0c0.4,0.4,0.4,1.2,0,1.6
				C199.1,348,198.7,348,198.5,348z"/>
			<path class="st2" d="M205.3,344.5c-0.3,0-0.6-0.1-0.8-0.3c-0.4-0.4-0.4-1.2,0-1.6s1.2-0.4,1.6,0c0.4,0.4,0.4,1.2,0,1.6
				C205.9,344.4,205.6,344.5,205.3,344.5z"/>
			<path class="st2" d="M205.3,348c-0.3,0-0.6-0.1-0.8-0.3c-0.4-0.4-0.4-1.2,0-1.6s1.2-0.4,1.6,0c0.4,0.4,0.4,1.2,0,1.6
				C205.9,348,205.6,348,205.3,348z"/>
			<path class="st2" d="M223.7,357.9c-0.3,0-0.6-0.1-0.8-0.3c-0.4-0.4-0.4-1.2,0-1.6s1.2-0.4,1.6,0c0.4,0.4,0.4,1.2,0,1.6
				C224.3,357.7,224,357.9,223.7,357.9z"/>
			<path class="st2" d="M227.5,357.9c-0.3,0-0.6-0.1-0.8-0.3c-0.4-0.4-0.4-1.2,0-1.6c0.3-0.3,0.5-0.3,0.8-0.3c0.7,0.1,1.1,0.7,1,1.3
				C228.4,357.4,228,357.8,227.5,357.9L227.5,357.9z"/>
			<path class="st2" d="M231.3,357.9c-0.3,0-0.6-0.1-0.8-0.3c-0.4-0.4-0.4-1.2,0-1.6s1.2-0.4,1.6,0c0.4,0.4,0.4,1.2,0,1.6
				C231.9,357.7,231.5,357.9,231.3,357.9z"/>
			<polygon class="st2" points="256.8,346.9 254.3,344.9 251.8,346.9 249.3,344.9 247.4,346.5 246.3,345.1 249.3,342.7 251.8,344.7 
				254.3,342.7 256.8,344.7 259.2,342.7 262.2,345.1 261.2,346.5 259.2,344.9 			"/>
			<path class="st2" d="M249.3,352.2c-0.7,0-1.2-0.5-1.2-1.2c0-0.3,0.1-0.6,0.3-0.8c0.4-0.4,1.2-0.4,1.6,0s0.4,1.2,0,1.6
				C249.9,352.1,249.7,352.2,249.3,352.2z"/>
			<path class="st2" d="M254.3,352.2c-0.3,0-0.6-0.1-0.8-0.3c-0.4-0.4-0.4-1.2,0-1.6c0.3-0.3,0.5-0.3,0.8-0.3s0.6,0.1,0.8,0.3
				c0.4,0.4,0.4,1.2,0,1.6C254.9,352.1,254.6,352.2,254.3,352.2z"/>
			<path class="st2" d="M259.2,352.2c-0.3,0-0.6-0.1-0.8-0.3c-0.4-0.5-0.4-1.2,0-1.6s1.2-0.4,1.6,0s0.4,1.2,0,1.6
				C259.9,352.1,259.5,352.3,259.2,352.2z"/>
			<path class="st2" d="M276.8,339.3c-0.3,0-0.6-0.1-0.8-0.3c-0.4-0.4-0.4-1.2,0-1.7c0.4-0.4,1.2-0.4,1.7,0c0.4,0.4,0.4,1.2,0,1.7
				C277.4,339.2,277.2,339.3,276.8,339.3z"/>
			<path class="st2" d="M276.8,354.4c-0.7,0-1.2-0.5-1.2-1.2l0,0c0-0.3,0.1-0.6,0.3-0.8c0.4-0.4,1.2-0.4,1.7,0
				c0.4,0.4,0.4,1.2,0,1.6C277.4,354.3,277.2,354.4,276.8,354.4L276.8,354.4z"/>
		</g>
	</g>
	<path class="st1" d="M297.2,345l-71.6-142.9c-1.1-2.1-4.1-2.1-5.1,0l-9.8,19.4c-0.4,0.8-0.4,1.8,0,2.6l41.8,83.1
		c1,1.9-0.4,4.2-2.6,4.2h-99.7c-2.1,0-3.5-2.3-2.6-4.2l41.8-83.2c0.4-0.8,0.4-1.8,0-2.6l-9.8-19.5c-1.1-2.1-4.1-2.1-5.1,0
		l-71.6,143.1c-0.5,1-1.5,1.6-2.6,1.6H64.2c-1.6,0-2.9-1.3-2.9-2.9v-12.3c0-1.6,1.3-2.9,2.9-2.9h25c1.1,0,2.1-0.6,2.6-1.6l5-10.2
		c0.9-1.9-0.4-4.1-2.6-4.1H78.1c-1.6,0-2.9-1.3-2.9-2.9v-12.1c0-1.6,1.3-2.9,2.9-2.9h28.2c1.1,0,2.1-0.6,2.6-1.6l74.7-148.8
		c1-1.9-0.4-4.2-2.6-4.2h-30.1c-1.6,0-2.9-1.3-2.9-2.9v-12.1c0-1.6,1.3-2.9,2.9-2.9h30.1c2.1,0,3.5-2.3,2.6-4.2L172.7,97
		c-0.7-1.4-0.1-3.2,1.3-3.9l10.7-5.3c1.4-0.7,3.1-0.1,3.9,1.3l8.8,17.7c1.1,2.1,4.1,2.1,5.1,0l8.8-17.7c0.7-1.4,2.4-2,3.8-1.3
		l10.8,5.3c1.4,0.7,2,2.4,1.3,3.9l-10.8,21.6c-1,1.9,0.4,4.2,2.6,4.2H249c1.6,0,2.9,1.3,2.9,2.9v12.1c0,1.6-1.3,2.9-2.9,2.9h-29.9
		c-2.1,0-3.5,2.3-2.6,4.2l74.7,148.8c0.5,1,1.5,1.6,2.6,1.6H322c1.6,0,2.9,1.3,2.9,2.9v12.1c0,1.6-1.3,2.9-2.9,2.9h-16.2
		c-2.1,0-3.5,2.2-2.6,4.1l5,10.2c0.5,1,1.5,1.6,2.6,1.6h25c1.6,0,2.9,1.3,2.9,2.9v12.1c0,1.6-1.3,2.9-2.9,2.9l-36.2,0.1
		C298.7,346.6,297.7,346,297.2,345z M223.3,289.2l-20.8-41.5c-1.1-2.1-4.1-2.1-5.1,0l-20.9,41.5c-1,1.9,0.4,4.2,2.6,4.2h41.7
		C222.9,293.4,224.3,291.2,223.3,289.2z M202.7,197.8l9.6-19.4c0.4-0.8,0.4-1.8,0-2.6l-9.8-19.4c-1.1-2.1-4.1-2.1-5.1,0l-9.6,19.4
		c-0.4,0.8-0.4,1.8,0,2.6l9.8,19.5C198.6,200,201.6,200,202.7,197.8z"/>
</g>
<path class="st1" d="M300.8,353.9h35.3c1.5,0,2.7,1.2,2.7,2.7v55.8c0,1.5-1.2,2.7-2.7,2.7h-35.3c-1.5,0-2.7-1.2-2.7-2.7v-55.8
	C298.1,355.1,299.3,353.9,300.8,353.9z"/>
<path class="st1" d="M64,353.9h34.7c1.5,0,2.7,1.2,2.7,2.7v55.8c0,1.5-1.2,2.7-2.7,2.7H64c-1.5,0-2.7-1.2-2.7-2.7v-55.8
	C61.3,355.1,62.5,353.9,64,353.9z"/>
</svg>
