<?xml version="1.0" encoding="utf-8"?>
<!-- Generator: Adobe Illustrator 26.0.1, SVG Export Plug-In . SVG Version: 6.00 Build 0)  -->
<svg version="1.1" id="Слой_1" xmlns="http://www.w3.org/2000/svg" xmlns:xlink="http://www.w3.org/1999/xlink" x="0px" y="0px"
	 viewBox="0 0 400 400" style="enable-background:new 0 0 400 400;" xml:space="preserve">
<style type="text/css">
	.st0{fill:#F8F8F8;}
	.st1{fill-rule:evenodd;clip-rule:evenodd;fill:#18181B;}
	.st2{fill-rule:evenodd;clip-rule:evenodd;fill:#FFFFFF;}
	.st3{fill:#18181B;}
</style>
<rect x="-30.8" y="-21.7" class="st0" width="461.7" height="444.1"/>
<g>
	<path class="st1" d="M3.4,634.6c-0.8,6.1-7.3,15.4-2.8,20.9c5.2,6.3,36.4-5.8,49.6-7.5c21.7-3,43.7-3.5,65.5-1.5
		c0.9-4.3,2.8-2.6,4.5-3c7.7-1.3,15.5-1.9,23.4-1.8c14.1,0.3,28.4,2.7,44.7,2.3c40.2-1.2,83.5-5.3,121.7-5c8.5,0.1,17.1-1,24.2-0.3
		c4.3,0.4,8.8,2.6,13.6,3.6s9,3.7,14.4,2.5c7.8-3.1,15-7.4,21.4-12.8c8.3-5.6,16.4-9.1,22.2-13.1c9.9-7.4,19.2-15.4,28.1-24
		c9-8.2,22.9-18.7,21.4-29.5c-0.2-1.2-1.4-1-1.6-2c-0.6,0.1-1,0.1-0.8-0.6c2.5-28.4-5.8-49.1-11.8-66.8c-2.4-6.7-4.9-14.4-7.5-21.3
		c-10-25.6-23.1-49.8-39.1-72.1c-7.5-11.2-9.5-29.3-17.6-39.2c-1.4-1.7-5-2.9-7.7-5.3s-3.3-5.9-5.6-7.6c-6.9-5.3-18.4-6.9-27.9-9.5
		c-50.4-14-108.5-12.8-158.8-27.1c-15.1-4-30.5-7.1-46-9.3c-5.9-1.6-12.1-1.8-18-0.6c-13.5,4.3-29.6,19.8-42.1,29.7
		c-21.9,16.9-34.7,33.3-58.5,46.1c-6.1,3.3-25.4,9-29.1,13.4c-3.1,6.9-5,14.2-5.5,21.8c0.1,4.6,3.8,7.2,4.5,11.3
		c1.4,10.9,1.9,21.9,1.6,32.9c0.4,32.8,3.5,65.4,9.4,97.7c3,19,6.4,36,8,57.8C2.2,621.2,3,627.9,3.4,634.6z"/>
	<path class="st2" d="M426.6,571.2c0.3,2.3,4.5,0,3.2,4.1c-9.4,10-21.3,18.3-30,28.7c-15.5,1.5-23.6,22.8-35.9,26.2
		c-3.7,1-9.5-1.4-9.3-3.2c0.4-4.1,14.8-11.1,18.8-13.8C392.7,600.5,410.1,583.6,426.6,571.2z"/>
	<path class="st2" d="M422.7,563.1c-0.4,0.9-1,1.7-1.9,2.2c-6.9,0.9-10.5-8.2-14.8-13.4c-8.3-10.2-17.6-21.6-27.6-31.5
		c-4.8-4.7-12-7.5-13-14.7c7.7-1,11.5,6.2,15.8,10.6C395.2,530.6,409.4,547.8,422.7,563.1z"/>
	<path class="st2" d="M419.2,516.5c-6.7-18.4-17.8-31.7-23.9-50.8c4.5,0.2,8.9-0.6,13.1-2.1C411.8,481.3,416.2,498.1,419.2,516.5z"
		/>
	<path class="st2" d="M411,573.2c-15.6-22.1-36.7-42.5-53.6-61.6c8.3-1.6,11.1,6.9,14.9,11.6c12.2,14.7,26.8,30.4,38.9,45.6
		c0.9-0.1,0.2,1.5,1.7,1.2C412.5,571.3,411.2,571.9,411,573.2z"/>
	<path class="st2" d="M402.8,578.8c-15.9-18-31-38.1-49.6-54.3c-2.1-1.8-6.7-3.1-5.7-7.5c5.5-4.5,7.1,0.9,9.3,3.2
		c16.2,16.4,33,37.8,49.6,54.3C407,577.2,403.3,576.7,402.8,578.8z"/>
	<path class="st2" d="M406.7,459.9c-4.1,2.8-16.8,2.6-17-4.2C396.8,452.2,405.8,453.1,406.7,459.9z"/>
	<path class="st2" d="M396.6,583.1c-5.1,3.1-7.4-2.7-9.3-4.8c-16.2-19.5-33.6-37.9-52.1-55.2c7.2-5.4,16.5,4.9,21,9.9
		c13.6,15.3,28.1,36.7,41.3,48.3C397.7,582,397.3,582.8,396.6,583.1z"/>
	<path class="st2" d="M401.4,447.1c-5.9,2-16.5,2.8-16.1-5.4c4.3,0.3,8.7,0.2,13-0.4C399.9,442.9,399.5,446.4,401.4,447.1z"/>
	<path class="st2" d="M392.8,510.6c0.2,1.4-0.9,2-0.9,1.1c-12.7-0.3-14.6-13.2-25.9-15.1c-3.2,0.4-1.9,3.4-3.7,4.4
		c-7.1-0.7-12.4,7.2-18.2,2.7c-2.6,2.1,1.2,4-1.1,5.3c-29.5,15.6-72.2,21.5-90.4,45.3c-4.8,1.2-9.8,1.8-14.8,1.9
		c-14.4-20.9-20.2-52.1-45-60.6c-1.5-5.4-5.7-7.5-7.9-11.9c0.6-3.4,0.8-6.8,0.5-10.2c36.2-19.8,55.3-52,83.6-77.6
		c17.5-6.8,38.2-11.3,54.4-19.1c18.8,13.8,26.3,40.4,36.4,64C369.3,464.9,380.4,488.1,392.8,510.6z M334.5,489
		c1.2,4.6,3.4,7.6,11,4.4C353.5,483.2,341.1,480.4,334.5,489z M313.4,466.7c4.5-1.4,7.1-6.3,5.6-10.8c0,0,0,0,0-0.1
		C314.4,439.9,294.7,474.2,313.4,466.7L313.4,466.7z M301.2,485.2c0.9-2.9-1.3-2.2-1.5-3.7c-4.1,0.3-7.7,2.6-9.8,6.1
		c-2,12.5,14.3,7.8,17.3-1.6C307.3,482.5,303.9,483.4,301.2,485.2L301.2,485.2z M288.8,443.6c0.8,3.3,6.4,2.5,10.3-0.4
		c0.3-0.7,0.1-1.7,1-2C302.4,431.5,288.6,436.2,288.8,443.6L288.8,443.6z M281.3,407.4c5.2,4.9,9.1,11.4,17.3,12.6
		C298.2,409.5,288.6,409.8,281.3,407.4L281.3,407.4z M273,417.2c1.8,11.3,11.1,13.8,18.8,18C292.2,424.3,281.7,419.8,273,417.2z
		 M261.4,424.7c4.9,9.5,12.6,17.2,22,22.1c-0.9-11.7-10-21-21.7-22L261.4,424.7z M259.1,435.4c1.4,10.6,8.8,13.9,14.4,19.2
		c1.3-0.3,2.3-1.2,2.7-2.5C270.2,447,265.4,440.3,259.1,435.4L259.1,435.4z M239,487.1c-3.3,3.3-3.6,8.8-0.6,10.2
		c2.5-0.5,4.9-1.5,7.1-2.9C248.1,488.8,246.5,483.4,239,487.1L239,487.1z M229,480c5.6-0.7,6.2-6,10.8-9
		C246.1,441.7,210.1,482.3,229,480L229,480z M208.7,473.3c1.7,5.9,8.3,5.9,13.4,7.9C219.4,476.8,217.5,470.8,208.7,473.3
		L208.7,473.3z M200.7,478.1c3.9,6.3,10.2,10.9,17.4,12.6C218.2,483.2,207.7,477.3,200.7,478.1L200.7,478.1z"/>
	<path class="st2" d="M388.6,588c0.3,1.9-2.6,1.7-2.8,3.3c-16.3-17.6-37.5-29.3-46.9-55c5.3,2.2,9.9,5.8,13.3,10.4
		C363.5,559.9,375.3,576.6,388.6,588z"/>
	<path class="st2" d="M395.3,433.9c-5.3,1.5-16.6,3.5-16.1-4.6c3.9,0.3,8.7-0.3,12.9-0.3C393.4,430.4,393.6,433.1,395.3,433.9z"/>
	<path class="st2" d="M379.7,593.9c-0.9,2.4-3.8,3.2-5.5,4.9c-11.1-10.6-23.8-21.5-35.2-32.6c-0.3-0.5-0.6-1-0.8-1.5
		c-7.3-11-9.6-26.1-20.6-34.2c1.2,12.7,11.5,18.6,12.2,29.1c2.9,4.1,9,8,6.9,15.5c2.3-0.3,3-2,2.8-4.2c10.6,9.1,18.6,21.2,29.4,30
		c-6.5,3.9-12.6,11.2-18.8,12.9c-9.3-0.5-18.5-2.3-27.2-5.5c-3.4-1.6-3.8-6.2-6.6-6.2c0.2-1.6,3-1.4,2.8-3.2
		c-7.4-21.9-22.1-35-31.5-54.5c3.2-0.4,3.8-2.5,6.7-2.8c9.7,21,22.3,39.2,33,58.9c1.9-13.2-5.6-23.5-11.3-32.7s-12.4-19-18.3-27.3
		c1.3-2.8,5.6-3.6,8.9-5.1c7.9,17.2,16.8,33.9,26.6,50c-3.7-18.6-11.9-36.1-23.9-50.8c6.4-4.5,14.5-7.7,21.3-12
		c2.8,6.1,4.8,12.6,5.9,19.2c-0.8,4.4-2.1-2.2-6.1,0.8c0.4,9.1,13.6,9.7,13.4,22.1c1.8-0.2,1.7-1.7,1.9-3
		C359.2,570.1,367.3,584.6,379.7,593.9z M339.6,586.2c5.1,7.9,12.6,13.9,21.4,17.2C354.5,596.9,347.3,591.1,339.6,586.2z"/>
	<path class="st2" d="M388.3,420.1c-2.4,2.4-16.1,5-15.4-1.4C377.9,419.2,386.2,415.9,388.3,420.1z"/>
	<path class="st2" d="M378.2,402.8c-4.7,1.7-9.9,1.7-14.7,0.1C368.1,400,376.1,400,378.2,402.8z"/>
	<path class="st2" d="M372.6,392.8c-4.5,2.1-9.6,2-14.1-0.1C363.2,391.8,367.9,391.9,372.6,392.8z"/>
	<path class="st2" d="M354.3,363.8c-1.9,1.9-9,3.3-7.7-1.2c1.4-0.2,3.3-0.4,3.5-1.9C352.7,360.5,352.1,363.8,354.3,363.8z"/>
	<path class="st2" d="M326.4,620.8c-16.3,2.5-33.4-0.8-51.8,1.6c3.8-6.4,4.6-14.3,2-21.3c-7,4.1-4.6,15.8-3.7,21.1
		c-21,0.7-40.9,0.7-61.2,0.9c-0.8-2.5,7.8-13.2,11.7-18.4c18.9-3.4,33.9-9.5,43.4-21.7c14.3,7.2,25.9,17.7,42.8,22
		C310.6,612.5,319.4,617.5,326.4,620.8z M260.4,598.9c-5.8,0.8-3.8,8-0.3,7.1C260,602.2,261.7,601.1,260.4,598.9L260.4,598.9z"/>
	<path class="st2" d="M296,581.2c-0.1,2.2-0.7,1.2-1.9,1.4c-3.5-3.6-7.7-6.4-12.4-8.1c1.3-9.6-6.5-14.9-11-20.3
		c1.8-1.9,4-3.4,6.5-4.3C281.9,561.1,288.3,571.7,296,581.2z"/>
	<path class="st2" d="M304.1,372.4c-15.8,7.9-29.5,7.5-42.2,15.5c-12.7,8-22.1,22.4-32,33.5c-18.9,21.2-39.9,40.4-62.8,57.3
		c-13.3,2.1-26,7.1-37,14.8c-7.6-13.1,1.6-45.9-8.1-56.1c2.5-5.3,0.6-11.6-4.4-14.7c4.2-22.4,0.3-45.6-11.1-65.3
		c14.5-9.4,29.5-17.9,45-25.5c10.7,5.8,22.1,10.3,33.8,13.7c-8.4,6-18.3,11-26.8,16.9c-3.5,0.4-0.9-6.9-5.8-5
		c-8.7,3-4.7,9.7-5.3,13.2c-3.3,2.5-7.3,3.9-11.5,4.2c-0.9,4.3,3,2.8,5.9,2.5c-5.8,9.1,2.7,13,8,11c5-1.6,7.7-7,6.1-11.9
		c-0.6-1.9-1.8-3.5-3.4-4.7c12.5-3.4,27.2-20.5,40-23.2c7.2-1.6,20.4,5.4,27.2,7.2C246.7,362.5,278,368,304.1,372.4z M185.9,406.4
		c4.7-3.2,6.5-9.3,4.2-14.6c-8.6-15.7-25.4,27-4.4,14.6H185.9z M175.8,370c-3.2,3.2-3.5,8.3-0.7,11.9c9.9,0.3,11.8-18.6,0.5-11.9
		H175.8z M145.4,422.3c10.7,3.8,22.2,4.8,33.4,2.7c0.7-0.4,1.1-1.2,0.9-2c-9-2-23.5-8.9-34.5-0.6L145.4,422.3z M144.8,432.4
		c10.4,4.7,22,6.3,33.4,4.6c-0.1-0.8,0.1-1.7,0.2-2.5c-11.8,0.3-20.2-7.3-33.7-2L144.8,432.4z M147.7,442.5
		c5.1,4.5,15.7,2.3,23.9,3.1c-3.1-6.6-15.6-5.6-24.1-3.1H147.7z M146.3,454.6c3.8,5.5,13.9,3.5,23.1,2.5c-0.1-0.8,0.1-1.7,0.2-2.5
		C162.6,453.7,154.8,450.5,146.3,454.6z"/>
	<path class="st2" d="M266.4,568.9c-4.4,0.5-8.7-1.1-11.8-4.2c1.2-1.9,4.7-0.6,7.1-2.9C263,564.4,265.9,565.5,266.4,568.9z"/>
	<path class="st2" d="M259.1,576.8c-6.6,12.7-23.8,8.8-36.1,15.5c1.4-6.4,4.2-11.7,6.1-17.7C238,576.5,249.7,575.3,259.1,576.8z"/>
	<path class="st2" d="M143.4,329.1c-14.3,7.7-27.8,15.9-41.8,23.8C112.5,343.9,128.8,329.9,143.4,329.1z"/>
	<path class="st2" d="M127.1,327.2c-9.1,6.9-21.3,11.7-30.3,18.7c-3.3,0.4-3.2-2.5-4-4.6c-3.9,2.3,0.9,3.5,0.8,6.5
		c-26.8,20.7-52.3,42.3-89.2,55.7c16.5-20,42.5-30.6,64.6-47c6.7-5,13.4-12.8,19.9-16.6C100.9,332.8,114.1,332.5,127.1,327.2z"/>
	<path class="st2" d="M96.2,355.9c-4.9,4.9-10.7,8.8-17,11.6C84.3,362.8,90,358.9,96.2,355.9z"/>
	<path class="st2" d="M15.9,611.9c0-15.7-4.1-26.3-5.6-40.2C22,571.6,24.7,599.4,15.9,611.9z"/>
	<path class="st2" d="M19.2,565.6c-6.9,0.9-10.9-8.2-12-16.6C15.3,546.4,19.5,555.3,19.2,565.6z"/>
	<path class="st2" d="M15.6,539c-3.1,2.2-10.2-4.1-10.7-10.3C10.2,529.6,14.5,533.7,15.6,539z"/>
	<path class="st2" d="M11.5,518.4c-10.3,2-4.4-25.5-4.9-35.4C7.6,494.9,9.3,506.7,11.5,518.4z"/>
	<path class="st2" d="M400.9,523.4c-2.5,0-8.9-4.3-7.3-9.7C396.9,515.9,397.8,520.9,400.9,523.4z"/>
	<path class="st2" d="M342.8,354.5c-25.3,10.3-42,0.6-59.2-3.8l-42.5-11.2C275.3,341.9,309.3,346.9,342.8,354.5z"/>
	<path class="st2" d="M314.7,599.2c-4.5,1.5-7-6.1-8.8-10.8C309.1,588.4,311.3,596.7,314.7,599.2z"/>
	<path class="st2" d="M286.9,556.2c0.6,0.9-6.2-6.2-5.5-8.5C284.8,548.5,285.4,553,286.9,556.2z"/>
	<path class="st2" d="M280,571.5c-3.7,2.9-4.6-4.5-7.7-5.3C275.2,564.7,277.1,571,280,571.5z"/>
	<path class="st2" d="M109.8,611.4c-12.4-1.6-14.5-26.2-19.4-41.3c-4.6-14.1-8.6-24.6-12.5-38.2c-6.5,3.7-0.7,13.4,0.7,18.2
		c5.1,16.7,11.8,36.6,17.8,52.6c-10.4-5.3-9.8-21.2-13.7-32.8c-3.9-11-8.5-21.7-13.8-32c-5.2,5.7,0.2,11.3,2,15.4
		c6.5,15.4,11.3,31.3,14.6,47.7c4,3,3,11.8,7,14.7c2.2-2.2,0.4-6.2-0.5-7.3c9,3.5,18.2,13.7,26.4,20.8c-12.9,1.6-25.8-2.2-35.6-10.7
		c-5.2-4.4-13.2-8.4-15.7-13.1c-1.8-5.9-3.2-11.9-4.1-18c-4.7-15.9-11.2-32.4-15.5-49.1c-4.6,8.9,2,23.3,5.8,35.9
		c3.8,12.6,9,21.6,8.5,32.7c1.7,3.6,5.4,4.7,5.5,10.2c3.8-1.9,5.7-0.7,8.5,2.6c-3.8,1.3-10-1.3-14.3-1.7
		c-1.9-31.8-17-52.3-19.7-80.4c-1.6-1.3-3.4-1-6.1,0.8c-0.7-9.5-4-15.9-4.6-25.4c13.4,5.3,32,4.6,45.1,10.4c2.6-1.5-2-0.7-0.4-3.2
		c27.4,0.6,59-19.3,88.4-24.6c3.7,6.5,11.1,8.5,17.5,11.8c0.6,11.4,7.9,14.8,12.7,21.4c1.9,19.1,15.6,24.2,23.9,35.8
		c-3,16.7-11.1,29.5-10.4,48.9c-9.5,15.3-26.6,11.6-44.7,12.8c-12.2,0.9-23.2,1.7-32.9,2.8c-7.7-8.3-20.6-10.3-20-28.5
		c4,0.7,5.1,5,5.4,10.1c2.4,0.7,2.7-4.4,1.1-3.7c4.3-0.6,8.3,2.4,8.9,6.8c0.1,0.5,0.1,1,0.1,1.4c5.6-3.5,6.6,2.4,11,2.6
		c0.1-12.8-1.6-25.5-4.9-37.8c6.5-3.9,10.6,14.8,9,24.1c3.7-3.6,2-12.5,1.7-16.4c4.9-3.1,9.1,8.2,15.2,9
		c-3.8-8.1-9.3-15.3-16.1-21.2c-2.5-19.6-9.2-34.5-11.7-54.6c-4.5,2.1-3.1,7.8-3.1,10.1c-0.1,13.4,8.8,26.4,7.3,38.8
		c-5.9,3.5-4.8-5.3-5.6-8.5c-2.6-10.7-6.5-26-10-36.4c-5.6,7-1.9,17.6-0.4,24.4c4.5,20.5,10.9,43.3,16.3,63.9
		c-9-3.1-7.7-17.3-10.4-29.7c-4.4-20.1-11.3-39.7-16.6-58.8c-7.7,4.8-2.3,14.3-1.1,19.5c4.5,19.2,11.3,39.9,16.7,57.1
		c-1.5,3.6-5.5-2.7-7.5-3.7c-2.5-20.3-7.5-40.2-14.7-59.3c-1.8-5.8-4.4-11.2-7.8-16.2c-1.5,12.6,4.2,23.9,7.6,35.4
		c3.4,11.6,6.8,24.1,10.1,35.5c-9.7-20.7-14.8-46.3-23.8-67.5c-5.1,6.3-0.7,13.4,0.7,18.2c4.8,16.1,11.4,33.6,15.4,50.8
		C105.7,599.2,106.2,607.2,109.8,611.4z M195.4,591.7c-2.1-9.6-7-18.4-14.1-25.2c-4.1-4.7-7.9-12-15.5-11.4
		c-2.4,5.5,3.2,7.7,5.5,10.2c5.7,6.1,10.8,12.8,15.3,19.8c2.3,3.5,3.9,8.2,8.2,9.4C195.3,594.1,195.3,592.9,195.4,591.7z
		 M181.1,535.7c1-0.1,1.6,0.8,1.7-1.3c-6.1-4.9-4.9-18.5-14.4-19.2c2.3,9.2,9.3,12.6,12.8,20.5H181.1z M174.2,596.9
		c-2-8.3-6.8-15.8-13.5-21.1c-4.4-4.3-8.9-10.5-15.8-10.6c1,7.8,7.9,12.1,12.8,17.2c6,4.8,10.9,10.8,14.4,17.6
		C172.6,598.5,174,598.4,174.2,596.9L174.2,596.9z M151.1,531.7c0.1,7,12.1,7.6,16.1,4.9c-5.8-1.3-5.8-9.2-16-4.9H151.1z
		 M148.3,519.2c2.3,6.7,10.3,7.2,16.7,9.4C163.6,520.6,157.4,518.3,148.3,519.2L148.3,519.2z M58,532.6c-3.7,15.4,2.7,27.7,6.4,39.9
		c1.9,6.1,3.7,12.6,5.9,18.3c1.8,5.7,4.4,11.2,7.7,16.2c-2.3-25.8-9-51-19.8-74.5L58,532.6z"/>
	<path class="st2" d="M110.7,437.2c-12.7-11-23.8-24-39.6-31.2c-0.2,5.5,5.8,7.2,8.9,9.9l10.7,9.4c8,5.7,14.4,13.4,18.6,22.3
		c-2.6,2.4-4.5-1.3-5.9-2.5c-12.5-10.7-26.5-25.5-44-30.9c16.3,15.1,34.4,28.2,50.1,44.2c-0.5,2.7-0.4,5.6,0.4,8.2
		c-17.6-13.4-32-30.5-52-41c1.6,6.1,7.6,9.3,12.2,13.2c13.8,11.5,27.7,25.6,41.9,37.3c-0.1,4.9,3,5.9,2,12
		c-17-17.5-36.1-32.8-57-45.5c19.3,20.3,44.2,38.2,63.4,56.2c-7,0.3-14.6,6.3-21.9,6.3c-4.1,0-10.5-8-14.1-11
		c-13.1-12-27.5-22.5-43.1-31c14.6,17,37.1,28.7,51,43.8L81,510.2c-6.4-7.3-13.6-13.9-21.3-19.8c-6.9-7.2-15.5-12.5-25-15.4
		c1.8,9.5,13.2,12.3,20.6,18.4c7.3,5.3,13.9,11.6,19.7,18.5c-7.4,0.3-11.8-5.5-16.7-9.4s-8.8-9.7-15.9-8.8
		c1.1,8.1,13.2,10.1,18.1,16.5c-9.1,2.2-18.9-1.8-30.2,0.3c-5-35-6.4-74.4-20.4-98.7c29.7-16.3,61.5-31.1,88.9-48.9
		c17.7,5.6,6.7,47.6,8.9,69C107.2,435.7,111.1,433.8,110.7,437.2z M105.6,499.7c0.1,0.8,1,0.4,1-1.2c-14.1-16.3-30.4-30.4-48.5-42
		c-5.3-5.1-12.1-8.4-19.3-9.5C60.3,465.8,82.3,483.4,105.6,499.7z M84.8,407c-8.1-3.7-15.3-19.8-26.8-14c8.3,6.4,17.2,12,26.6,16.6
		C84.7,408.7,84.7,407.9,84.8,407z"/>
	<path class="st2" d="M58.8,614.3c-4.2,4.6-7.2-5.6-12.6-4.7c-6.1,3.6,5.5,4.4,0.4,6.5c-3.3-1.3-6.7-2-10.2-2
		c0-9.5,1.7-17.7,2.3-26.5c2.8,1.1,2.7,5.8,5.6,6.7c-2.3-13.7-7.1-24.8-7.2-41.2C45.4,572.1,49.6,596.2,58.8,614.3z"/>
	<path class="st1" d="M121.4,559.4c8.7-1.2,17.6-1.4,26.4-0.5c0.3-1.7,1.1-1.1,1.8-1.1c3.1-0.6,6.2-0.8,9.4-0.7
		c5.7,0.1,11.4,1.1,18,0.9c16.2-0.5,33.6-2.1,48.9-2c3.4,0,7-0.3,9.7-0.1c1.9,0.4,3.7,0.9,5.5,1.5c2.1,0.4,3.6,1.5,5.8,1
		c3.1-1.3,6-3,8.6-5.2c3.4-2.3,6.5-3.7,9-5.3c4-2.9,7.7-6.1,11.2-9.6c3.7-3.2,9.3-7.6,8.6-11.9c-0.1-0.5-0.5-0.4-0.6-0.8
		c-0.1-0.4-0.4,0.1-0.3,0c0.5-9.2-1.1-18.4-4.7-26.9c-1-2.8-1.9-5.8-3-8.5c-4-10.3-9.3-20.1-15.7-29.2c-3-4.4-3.9-11.8-7.2-15.8
		c-0.6-0.7-2-1.1-3-2.1s-1.3-2.4-2.2-3.1c-3.5-1.9-7.3-3.2-11.2-3.8c-20.3-5.6-43.7-5.1-64-10.9c-6.1-1.6-12.3-2.9-18.5-3.7
		c-2.3-0.7-4.7-0.8-7.1-0.3c-6.2,3.2-11.9,7.2-17,12c-7.2,6.9-15.1,13.2-23.6,18.6c-4.1,1.4-8,3.2-11.7,5.4c-1.3,2.7-2,5.7-2.2,8.7
		c0.2,1.9,1.6,2.9,1.9,4.5c0.6,4.4,0.8,8.8,0.7,13.2c0.2,13.2,1.4,26.4,3.8,39.4c1,7.7,2.6,14.5,3,23.3c0.5,2.7,0.9,5.4,1,8.1
		c-0.3,2.4-3,6.2-1.2,8.4C103.1,564.8,116,560,121.4,559.4z"/>
	<path class="st2" d="M137.4,540.5c6.1-0.9,12.2-1,18.3-0.4c0.3-1.2,0.8-0.7,1.2-0.8c2.3-0.4,4.6-0.6,6.9-0.5
		c3.9,0.1,7.9,0.7,12.5,0.6c11.3-0.3,23.3-1.5,34.1-1.4c2.3,0.1,4.7-0.3,7-0.1s2.5,0.7,3.8,1s2.5,1.1,4.1,0.7c2.2-0.9,4.2-2.1,6-3.7
		c2.3-1.6,4.6-2.6,6.5-3.7c2.8-2.1,5.4-4.3,7.8-6.7c2.5-2.2,6.3-5.2,5.9-8.3c0,0-0.3,0-0.4-0.6s-0.3,0,0,0
		c0.3-6.4-0.8-12.8-3.3-18.7c-0.7-1.9-1.4-4-2.1-6c-2.8-7.2-6.4-14-10.9-20.2c-2.1-3.2-2.7-8.2-4.9-11c-0.1-0.5-1.4-0.8-2.1-1.5
		c-0.7-0.7-1-1.6-1.6-2.1c-2.4-1.3-5.1-2.2-7.8-2.6c-14.1-3.9-30.4-3.6-44.4-7.6c-4.2-1.1-8.6-2-12.9-2.6c-1.6-0.4-3.3-0.5-5-0.2
		c-4.3,2.3-8.3,5.1-11.8,8.5c-5,4.8-10.5,9.1-16.4,12.9c-2.8,1-5.5,2.2-8.1,3.7c-0.9,1.9-1.4,4-1.5,6.1c0.2,1.2,1.1,2,1.2,3.1
		c0.4,3.1,0.5,6.1,0.5,9.2c0.1,9.2,1,18.3,2.6,27.3c0.7,5.3,1.8,10.1,2.1,16.2c0.4,1.8,0.6,3.7,0.7,5.6c-0.2,1.7-2,4.3-0.8,5.9
		C126,544.4,133.8,541,137.4,540.5z"/>
</g>
<g>
	<g>
		<path class="st3" d="M32.4,43.1c0-9.8,5.8-13.8,13.6-13.8s12.6,3.6,12.6,9.1v0.4h-8.3v-0.4c0-1.8-1.3-2-4.3-2
			c-4,0-5.6,0.6-5.6,5.2V43h0.5c1.2-1.7,3.7-3.2,8.1-3.2c6.6,0,10.1,2.4,10.1,7.9c0,5.4-4.2,8.8-12.4,8.8
			C36.5,56.5,32.4,52.2,32.4,43.1z M51.3,47.2c0-1.7-0.8-2.3-5.1-2.3c-4.7,0-5.5,0.6-5.5,2.3c0,1.5,0.8,2.2,5.5,2.2
			C50.5,49.4,51.3,48.7,51.3,47.2z"/>
		<path class="st3" d="M60.9,42.9c0-8.1,4.7-13.6,13.7-13.6s13.7,5.5,13.7,13.6s-4.7,13.6-13.7,13.6S60.9,51,60.9,42.9z M80.3,42.9
			c0-4.9-1.2-6.4-5.7-6.4s-5.7,1.5-5.7,6.4s1.2,6.4,5.7,6.4C79.1,49.3,80.3,47.8,80.3,42.9z"/>
		<path class="st3" d="M95.7,56.1V36.2h7v6h0.4c0.4-3.3,2.3-6.4,7.3-6.4c4.7,0,7,2.8,7.3,6.4h0.4c0.4-3.3,2.3-6.4,7.5-6.4
			c5.1,0,7.5,3.2,7.5,7.5v12.8h-7.4v-10c0-2.8-0.8-3.6-3.9-3.6c-3,0-3.7,0.8-3.7,3.4v10.3h-7.4v-10c0-2.8-0.8-3.6-3.9-3.6
			c-3,0-3.7,0.8-3.7,3.4v10.3h-7.4V56.1z"/>
		<path class="st3" d="M135.3,34.4v-4.7h7.4v4.7H135.3z M135.3,56.1V36.2h7.4v19.9H135.3z"/>
		<path class="st3" d="M145.1,56.1V36.2h7v6h0.4c0.4-3.3,2.6-6.4,7.9-6.4c5.4,0,7.9,3.2,7.9,7.5v12.8h-7.4v-10c0-2.8-1-3.6-4.3-3.6
			s-4.1,0.8-4.1,3.4v10.3h-7.4V56.1z"/>
		<path class="st3" d="M170.5,56.1v-7.6h9.6v7.6H170.5z"/>
	</g>
	<g>
		<path class="st3" d="M313,56.1V38h-7.1v-5h1c2.9,0,5.1-0.6,6.6-3.3h6.9v26.5H313V56.1z"/>
		<path class="st3" d="M322.1,56.1v-4.7c0-4.5,2.1-6.8,7.8-8.7l7.2-2.3c1.7-0.6,2.4-1.1,2.4-2.3c0-1.3-0.5-2.2-4.5-2.2
			c-4.4,0-5.4,1.1-5.4,3.5v0.5h-7.3v-0.6c0-5.3,3.6-10.2,13-10.2c8.4,0,11.7,3.7,11.7,9.1c0,5-3.3,7.3-8.1,8.5l-5.9,1.5
			c-1.7,0.4-3,0.7-3,2.1l7.4-0.9h9.4v6.7C346.8,56.1,322.1,56.1,322.1,56.1z"/>
		<path class="st3" d="M355.1,52.3V46h-6.2v-6.1h6.2v-6.3h6.3v6.3h6.2V46h-6.2v6.3H355.1z"/>
	</g>
</g>
<g>
	<path class="st3" d="M83.1,162.9c2.8,0,7.5,2.3,14.1,7c2.8,8.1,4.2,12.5,4.2,13v0.7c0,6.4-8.6,11.8-25.7,16.2
		c0.9,2.9,1.5,5.8,1.7,8.8c1,1.7,1.5,3.7,1.4,5.6l-12.3,4.2c-0.2,0-0.3-0.1-0.3-0.4l-9.5,1.1c-2.5-4.2-4.6-8.6-6-13.3l0.7-2.5v-1.8
		c0-2.1,0.1-4.2,0.3-6.3c0-0.3-0.4-3.9-1.1-10.9l-0.7,0.3h-0.4c-0.8,0-2.6-3.8-5.3-11.3c-0.5,0-0.9-1.1-1.1-3.2v-0.4
		c6.6-3.8,14.2-5.9,21.8-6c2.9,0.2,4.7,0.4,5.3,0.4L83.1,162.9z M65.2,180.1c0,2.3,0.4,3.5,1.1,3.5c0.9,0.2,1.9,0.4,2.8,0.4h7.4
		c4.5-0.4,6.7-1.1,6.7-2.1c-2.2-2.1-5.1-3.3-8.1-3.2C71.7,178.9,68.4,179.4,65.2,180.1z"/>
	<path class="st3" d="M135.3,161.8h10.6c0.5,0,3.1,7.7,7.8,23.2c0,1.9,1.5,7.7,4.6,17.6v12c-1.6,0.7-3.2,1.2-4.9,1.4h-9.5
		c-0.5,0-1.3-1.6-2.5-4.9c-7.5-1.5-15.2-2.5-22.8-2.9c-2.2,0-3.6,1.2-4.2,3.5c0,1.3-3.1,2.7-9.2,4.2h-4.6c-1.9-4.3-2.8-7-2.8-8.1
		v-11.7c3.4-6,10.8-15.8,22.2-29.6C124.9,164.8,130.1,163.1,135.3,161.8z M133.9,178.3c-0.1,0.6-3.5,5.9-10.2,15.8
		c0.9,0.5,5.6,1.3,14.1,2.5c-0.7-6.2-1.9-12.3-3.5-18.3H133.9z"/>
	<path class="st3" d="M177.7,161.1h1c2.6,7,3.9,11,3.9,11.9v10.2c0,3-0.2,8-0.7,15.1h0.4c7.1-1,14.3-1.6,21.5-1.8
		c3.3,0,4.9,1.1,4.9,3.2c1.2,3.2,2.1,6.5,2.8,9.9v3.2c0,1.1-4.1,3-12,5.6l-14.7-1.3l-17.6,1.4c-4.7-9.2-7-16.5-7-21.8v-24l-0.4-2.1
		c0.8-1.4,3.7-3.5,8.8-6.3C171.5,163.1,174.6,162,177.7,161.1z"/>
	<path class="st3" d="M231.3,161.8h0.4c0.5,0,1,0.9,1.4,2.8c6.1-0.2,13.3-0.8,21.5-1.8v0.3l3.2,11.3v0.4c-0.8,0.8-5.2,2.2-13,4.2
		c-4.1,0.2-6.7,0.3-7.7,0.3v4.6h0.3c2,0,8-0.8,18-2.5c1.1,0,2.5,4.1,4.2,12.3c-6.9,2.6-14.1,4.2-21.4,4.9l0.3,3.5l20.1-1.8
		c1.4,4,2.6,8.2,3.5,12.3c-7,2.9-14.6,4.3-22.2,4.3c-6.7,0.7-13.4,1.8-20.1,3.2c-1.4-1.3-3.4-5.7-6-13.4c0-0.2,0.1-0.4,0.3-0.4
		c-0.6-1.1-0.9-2.3-1.1-3.5l3.5-31.7c-0.2-0.8-0.4-1.7-0.4-2.5C216.1,166.4,221.2,164.1,231.3,161.8z"/>
	<path class="st3" d="M54.4,236.9l3.5,2.1c7,5.1,10.6,8.8,10.6,10.9c1.1,2.6,2,5.3,2.8,8.1v0.7l-11.6,4.2c-5.4-5.7-9-8.6-10.9-8.8
		c-4.6,1.2-7.5,2-8.8,2.4l0.4,0.7c0,1.2-0.1,2.9-0.4,5.3l0.7,0.3h4.9c10.2,0,17.2,1.9,21.1,5.6l5.6,18.3v2.5c0,0.7-6,3.4-18,8.1
		c-5.5-1.5-11.2-2.2-16.9-2.1h-2.8c-2.6,0-7.7,0.4-15.5,1.1c-2.9-6.2-4.6-10.2-4.9-12V284c0.5-1,4.4-2.8,11.6-5.6
		c1.4,0,3.9,0.1,7.4,0.3l2.5-0.3l9.9,0.7c0.3-0.2,0.7-0.3,1.1-0.4h1.4c0-1.6-1.4-2.5-4.2-2.5c-13.4-1.7-20.6-2.5-21.5-2.5
		c-5.2-12.7-7.8-20.3-7.8-22.8v-1.4c0.6,0,2.2-0.9,4.9-2.8C40.3,240.2,51.9,236.9,54.4,236.9z"/>
	<path class="st3" d="M115.1,240.8c2.9,0.2,5.8,0.4,8.8,0.4c1,0,2.9,5.3,5.6,15.8l0.3,1.7c-1.2,1-4.6,2.8-10.2,5.3
		c-25.1-2.3-39.5-3.7-43.3-4.2c-0.7-0.5-2.4-4.5-4.9-12c6.8-3.3,12.3-4.9,16.6-4.9C89.8,242.9,98.8,242.2,115.1,240.8z M96.8,262.9
		c1.1,0,5,0.9,11.6,2.8c0.6,0,1.3,0.8,1.8,2.4c1.6,5.9,2.5,9,2.5,9.2c-1.3,4.1-2,8.4-2.1,12.7c0,1.8-5.6,4-16.9,6.7
		c-3.7-7.7-6.4-15.9-8.1-24.3c-0.8-1.4-1.3-2.9-1.4-4.6C84.6,267.9,88.8,266.2,96.8,262.9z"/>
	<path class="st3" d="M217.8,240.4c17.1,0,25.7,1.3,25.7,3.9c3.8,9.3,5.6,14.6,5.6,15.8c0,5.4-2.1,8.9-6.3,10.6
		c-3.9,1.6-6.3,2.8-7.1,3.5c7.5,2.2,11.3,4.5,11.3,7l3.2,9.5c-0.6,0-1.8,1.1-3.5,3.2c-7,2.4-10.8,3.5-11.3,3.5
		c-1-1.5-9.2-5.6-24.6-12.3l0.3,4.9c0,1.5-1.6,2.6-4.9,3.2c-3,1.7-5,2.5-6,2.5c-2.4-6.6-3.5-10.6-3.5-12c0-6.2-0.1-16.4-0.4-30.6
		c-1.4-4.8-2.1-7.3-2.1-7.4c7.9-3.3,13-4.9,15.5-4.9C212.4,240.5,215.1,240.4,217.8,240.4z M212.1,256.3v5.3
		c13.1-1,19.7-1.8,19.7-2.5c0.2-0.4,0.3-0.9,0.3-1.4v-0.3c-5.8-0.8-11.7-1.1-17.6-1.1H212.1z"/>
	<path class="st3" d="M269.5,237.3c3.5,1,5.3,1.7,5.3,2.1c2.1,7.1,3.2,11,3.2,11.6v0.3c-7,3.1-14.2,5.8-21.5,8.1
		c-1.8,0-4.2-4.2-7.1-12.7v-0.4c0.8-2.3,3.4-4.3,7.8-6C261.3,239.1,265.4,238.1,269.5,237.3z M268.1,257.4h0.3
		c0.7,0,1.9,2.9,3.5,8.8c0.3,0.1,0.8,1.2,1.4,3.2l-0.4,1.8v1.7c0,2,0.2,7.2,0.7,15.5c0,3.7-1.3,5.6-3.9,5.6
		c-6.6,2.1-11,3.2-13.4,3.2c-0.8-0.6-2.6-5.2-5.6-13.7V283l3.9-19c0.3,0,1.4-1.2,3.5-3.5C258.7,260.5,262,259.4,268.1,257.4
		L268.1,257.4z"/>
	<path class="st3" d="M295.5,240.1h0.4c0.5,0,1,0.9,1.4,2.8c6.1-0.2,13.3-0.8,21.5-1.7v0.4l3.2,11.3v0.4c-0.8,0.8-5.2,2.2-13,4.2
		c-4.1,0.2-6.7,0.3-7.7,0.3v4.6h0.3c2,0,8-0.8,18-2.5c1.1,0,2.5,4.1,4.2,12.3c-6.9,2.6-14.1,4.2-21.5,4.9l0.3,3.5l20.1-1.8
		c1.4,4,2.6,8.2,3.5,12.3c-7,2.8-14.6,4.3-22.2,4.2c-6.7,0.7-13.4,1.8-20.1,3.2c-1.5-1.3-3.5-5.7-6-13.4c0-0.2,0.1-0.4,0.3-0.4
		c-0.6-1.1-0.9-2.3-1.1-3.5l3.5-31.7c-0.2-0.8-0.3-1.7-0.4-2.5C280.4,244.7,285.4,242.3,295.5,240.1z"/>
	<path class="st3" d="M367.8,236.9l3.5,2.1c7,5.1,10.6,8.8,10.6,10.9c1.1,2.6,2,5.3,2.8,8.1v0.7l-11.6,4.2c-5.4-5.7-9-8.6-10.9-8.8
		c-4.6,1.2-7.5,2-8.8,2.4l0.4,0.7c0,1.2-0.1,2.9-0.4,5.3l0.7,0.3h5c10.2,0,17.2,1.9,21.1,5.6l5.5,18.3v2.5c0,0.7-6,3.4-18,8.1
		c-5.5-1.5-11.2-2.2-16.9-2.1H348c-2.6,0-7.7,0.4-15.5,1.1c-2.9-6.2-4.6-10.2-5-12V284c0.5-1,4.4-2.8,11.6-5.6
		c1.4,0,3.9,0.1,7.4,0.3l2.5-0.3l9.9,0.7c0.3-0.2,0.7-0.3,1.1-0.4h1.4c0-1.7-1.4-2.5-4.2-2.5c-13.4-1.7-20.6-2.5-21.5-2.5
		c-5.2-12.7-7.8-20.3-7.8-22.8v-1.4c0.6,0,2.2-0.9,4.9-2.8C353.6,240.2,365.3,236.9,367.8,236.9z"/>
	<path class="st1" d="M182.1,300c0.9,0.1,2.2,1.1,3,0.5s-0.7-5.4-0.9-7.3c-0.3-3.2-0.3-6.4,0.2-9.6c-0.6-0.2-0.4-0.4-0.4-0.7
		c-0.1-1.1-0.2-2.3-0.1-3.4c0.1-2.1,0.5-4.1,0.6-6.5c0-5.9-0.4-12.2-0.1-17.8c0-1.3-0.1-2.5,0.1-3.5c0.1-0.6,0.4-1.3,0.6-2
		c0.2-0.7,0.6-1.3,0.4-2.1c-0.4-1.1-1-2.2-1.8-3.2c-0.8-1.3-1.3-2.4-1.8-3.3c-1-1.5-2.1-2.9-3.3-4.2c-1.1-1.4-2.6-3.5-4.2-3.3
		c-0.2,0-0.2,0.2-0.3,0.2c-0.2,0,0,0.2-0.1,0.1c-3.3-0.3-6.7,0.2-9.8,1.4c-1,0.3-2.1,0.6-3.1,1c-3.8,1.3-7.4,3.1-10.8,5.3
		c-1.7,1-4.3,1.3-5.8,2.4c-0.3,0.2-0.5,0.7-0.8,1.1c-0.4,0.4-0.9,0.5-1.1,0.8c-0.7,1.2-1.3,2.6-1.5,4c-2.3,7.3-2.4,15.7-4.7,23
		c-0.7,2.2-1.2,4.4-1.6,6.7c-0.3,0.8-0.3,1.7-0.2,2.6c0.6,2,2.7,4.4,4.1,6.3c2.4,3.3,4.7,5.2,6.4,8.8c0.5,0.9,1.2,3.8,1.8,4.3
		c1,0.5,2,0.8,3.1,0.9c0.7,0,1.1-0.5,1.7-0.6c1.6-0.1,3.2-0.2,4.8-0.1c4.8,0.1,9.6-0.2,14.3-0.9c2.8-0.3,5.3-0.8,8.5-0.9
		C180.2,300.1,181.1,300,182.1,300z"/>
	<path class="st2" d="M175,238c0.3,0,0-0.7,0.6-0.5c1.4,1.4,2.5,3.2,4,4.5c0.1,2.3,3.2,3.6,3.6,5.4c0.1,0.5-0.3,1.4-0.5,1.3
		c-0.6-0.1-1.5-2.2-1.9-2.8C179.1,243.1,176.8,240.4,175,238z"/>
	<path class="st2" d="M173.8,238.5c0.1,0,0.2,0.1,0.3,0.3c0,1-1.3,1.5-2,2.1c-1.5,1.3-3.2,2.5-4.7,3.9c-0.7,0.7-1.1,1.7-2.2,1.8
		c-0.1-1.1,1-1.6,1.6-2.2C169,242.3,171.5,240.3,173.8,238.5z"/>
	<path class="st2" d="M167,238.8c-2.7,0.9-4.7,2.4-7.5,3.2c0.1-0.6,0-1.3-0.2-1.9C161.9,239.7,164.3,239.1,167,238.8z"/>
	<path class="st2" d="M175.3,240.2c-3.2,2.3-6.3,4.8-9.2,7.5c-0.2-1.3,1.1-1.6,1.8-2.1c2.2-1.7,4.6-3.8,6.9-5.4c0-0.1,0.2,0,0.2-0.2
		C175,240,175.1,240.2,175.3,240.2z"/>
	<path class="st2" d="M176,241.5c-2.9,2.1-5.6,4.5-8.2,7c-0.3,0.3-0.5,1-1.1,0.8c-0.6-0.8,0.2-1,0.5-1.3c2.5-2.3,5.7-4.6,8.2-7
		C175.8,240.8,175.7,241.4,176,241.5z"/>
	<path class="st2" d="M158.7,240.3c0.4,0.6,0.3,2.5-0.7,2.5C157.5,241.7,157.7,240.4,158.7,240.3z"/>
	<path class="st2" d="M176.6,242.4c0.4,0.8-0.4,1.1-0.8,1.3c-2.9,2.3-5.7,4.7-8.3,7.3c-0.8-1.1,0.8-2.4,1.5-3
		c2.3-1.9,5.5-3.9,7.3-5.8C176.5,242.2,176.6,242.3,176.6,242.4z"/>
	<path class="st2" d="M156.8,241c0.2,0.9,0.3,2.4-0.9,2.3c0.1-0.6,0.1-1.3,0-1.9C156.2,241.2,156.7,241.3,156.8,241z"/>
	<path class="st2" d="M166,242.6c0.2,0,0.3,0.1,0.2,0.1c-0.1,1.9-2,2.1-2.3,3.8c0,0.5,0.5,0.3,0.6,0.6c-0.1,1.1,1,1.9,0.3,2.7
		c0.3,0.4,0.6-0.2,0.8,0.2c2.1,4.4,2.8,10.6,6.1,13.4c0.1,0.7,0.2,1.4,0.2,2.2c-3.1,2-7.7,2.7-9.1,6.3c-0.8,0.2-1.1,0.8-1.8,1.1
		c-0.5-0.1-1-0.2-1.5-0.1c-2.7-5.4-7.3-8.3-10.9-12.5c-0.9-2.6-1.5-5.6-2.5-8c2.1-2.7,6-3.6,9.5-4.9
		C159.2,245.9,162.7,244.3,166,242.6z M162.6,251c0.7-0.1,1.1-0.5,0.7-1.6C161.8,248.1,161.4,250,162.6,251z M159.2,254
		c-0.2-0.7-0.9-1.1-1.5-0.9l0,0C155.4,253.7,160.2,256.7,159.2,254L159.2,254z M161.9,255.9c-0.4-0.2-0.3,0.2-0.6,0.2
		c0,0.6,0.3,1.1,0.8,1.5c1.8,0.3,1.3-2-0.1-2.5C161.5,254.9,161.6,255.4,161.9,255.9L161.9,255.9z M155.7,257.4
		c0.5-0.1,0.4-0.9,0-1.5c-0.1,0-0.3,0-0.3-0.2C154,255.4,154.7,257.4,155.7,257.4L155.7,257.4z M150.4,258.4
		c0.7-0.7,1.7-1.3,1.9-2.5C150.8,255.9,150.8,257.3,150.4,258.4L150.4,258.4z M151.8,259.6c1.7-0.2,2.1-1.5,2.7-2.7
		C152.9,256.8,152.2,258.3,151.8,259.6L151.8,259.6z M152.9,261.3c1.4-0.7,2.6-1.8,3.3-3.1C154.5,258.3,153.1,259.6,152.9,261.3
		L152.9,261.3z M154.4,261.7c1.6-0.2,2.1-1.2,2.9-2c0-0.2-0.2-0.3-0.4-0.4C156.1,260.1,155.1,260.8,154.4,261.7L154.4,261.7z
		 M161.9,264.9c0.5,0.5,1.3,0.6,1.5,0.1c-0.1-0.4-0.2-0.7-0.4-1C162.1,263.5,161.3,263.8,161.9,264.9L161.9,264.9z M160.8,266.3
		c-0.1-0.8-0.8-0.9-1.3-1.6C155.3,263.6,161,269.1,160.8,266.3L160.8,266.3z M159.7,269.3c0.9-0.2,0.9-1.2,1.3-1.9
		C160.2,267.7,159.4,267.9,159.7,269.3L159.7,269.3z M160.3,270.5c1-0.5,1.6-1.4,1.9-2.5C161.1,267.9,160.2,269.4,160.3,270.5
		L160.3,270.5z"/>
	<path class="st2" d="M177.3,243.6c0.3,0,0.2,0.4,0.5,0.4c-2.6,2.3-4.5,5.3-8.3,6.6c0.3-0.8,0.9-1.4,1.6-1.9
		C173.3,247.1,175.3,245.4,177.3,243.6z"/>
	<path class="st2" d="M154.8,241.8c0.2,0.8,0.4,2.4-0.7,2.3c0-0.6,0-1.3,0-1.9C154.3,242.1,154.7,242.1,154.8,241.8z"/>
	<path class="st2" d="M178.1,244.9c0.4,0.1,0.5,0.6,0.7,0.8c-1.6,1.6-3.3,3.4-4.9,5l-0.2,0.1c-1.6,1-3.9,1.3-5.1,2.8
		c1.9-0.1,2.8-1.6,4.3-1.6c0.6-0.4,1.3-1.3,2.3-0.9c0-0.3-0.3-0.4-0.6-0.4c1.4-1.5,3.2-2.6,4.5-4.1c0.5,1,1.6,1.8,1.8,2.8
		c-0.1,1.4-0.4,2.7-0.9,3.9c-0.3,0.5-0.9,0.5-1,0.9c-0.2,0-0.2-0.4-0.5-0.4c-3.2,1-5.2,3-8.1,4.3c0-0.5-0.4-0.6-0.4-1
		c3.1-1.3,5.8-3,8.8-4.5c-1.9-0.4-3.5,0.7-4.8,1.5c-1.4,0.8-2.8,1.7-4.1,2.5c-0.4-0.2-0.5-0.8-0.7-1.3c2.5-1.1,5-2.3,7.4-3.6
		c-2.7,0.4-5.3,1.6-7.5,3.2c-0.6-1-1.1-2.2-1.6-3.2c0.9-0.4,1.9-0.6,2.8-0.8c0.6,0.1-0.3,0.3,0.1,0.9c1.3,0,1.5-1.9,3.3-1.8
		c0-0.3-0.2-0.3-0.4-0.3C174.5,247.8,176.7,246.7,178.1,244.9z M176.8,250.7c1.2-0.7,2.1-1.8,2.6-3
		C178.4,248.6,177.5,249.6,176.8,250.7z"/>
	<path class="st2" d="M152.8,242.8c0.4,0.4,0.6,2.4-0.3,2.2C152.6,244.3,152.2,243.1,152.8,242.8z"/>
	<path class="st2" d="M150.3,244.2c0.2,0.7,0.2,1.5-0.1,2.1C149.8,245.6,149.8,244.5,150.3,244.2z"/>
	<path class="st2" d="M148.8,244.9c0.3,0.7,0.2,1.4-0.1,2C148.6,246.3,148.6,245.6,148.8,244.9z"/>
	<path class="st2" d="M144.4,247.4c0.3,0.3,0.4,1.3-0.2,1.1c0-0.2-0.1-0.5-0.3-0.5C143.9,247.7,144.4,247.8,144.4,247.4z"/>
	<path class="st2" d="M181.8,252.8c0.3,2.4-0.3,4.9,0,7.5c-0.9-0.6-2.1-0.8-3.1-0.4c0.6,1,2.3,0.8,3.1,0.7c0,3-0.1,6-0.2,8.9
		c-0.4,0.1-1.9-1.2-2.6-1.8c-0.4-2.8-1.3-5-2.9-6.4c1.1-2,2.7-3.7,3.4-6.1C180.5,255.1,181.2,253.8,181.8,252.8z M178.2,262.3
		c0.1,0.9,1.1,0.6,1,0.1C178.7,262.4,178.6,262.2,178.2,262.3z"/>
	<path class="st2" d="M175.8,257.1c0.3,0,0.2,0.1,0.2,0.3c-0.5,0.5-1,1.1-1.3,1.8c-1.4-0.3-2.2,0.9-3,1.5c-0.3-0.3-0.5-0.6-0.6-0.9
		C172.8,259,174.4,258.2,175.8,257.1z"/>
	<path class="st2" d="M145.4,254.8c1.1,2.4,1,4.3,2.1,6.3c1.1,1.9,3.2,3.3,4.7,4.8c3,2.8,5.7,6,8,9.4c0.2,1.9,0.9,3.8,2,5.5
		c-1.9,1-6.7-0.5-8.2,0.9c-0.8-0.4-1.7-0.1-2.2,0.6c-3.2-0.7-6.6-0.3-9.6,1.3c-1.3-2.2-2.5-4.4-3.5-6.7c0.9-1.5,1.6-3.2,2.2-4.8
		c0.8,1.3,1.5,2.7,2.3,4c0,0.5-1,0.1-0.8,0.8c0.4,1.3,1.4,0.7,1.9,0.8c0.4,0.5,0.5,1.1,0.6,1.7c0.6,0.2,0.4-0.4,0.4-0.8
		c1.3,0.9,1.9-0.3,1.7-1.1c-0.2-0.7-1-1.1-1.7-0.9c-0.3,0.1-0.5,0.2-0.7,0.5c-0.4-1.8-2.9-4.1-3.2-6c-0.2-1.1,0.9-2.9,1.2-3.9
		C143.7,263.1,144.7,258.6,145.4,254.8z M149.8,272.3c-0.4-0.7-1.3-1-2.1-0.7C145.4,272.7,151.5,275.4,149.8,272.3z M144.5,273.5
		c0.5,0.5,1.2,0.5,1.7,0.2C146.3,272.2,143.5,271.9,144.5,273.5L144.5,273.5z M151.9,278.2c0.6-1.5,0.8-3.2,0.6-4.9
		c-0.1-0.1-0.2-0.2-0.3-0.2C151.8,274.5,150.8,276.6,151.9,278.2L151.9,278.2z M153.4,278.4c0.7-1.5,1-3.2,0.8-4.9h-0.4
		C153.8,275.2,152.7,276.4,153.4,278.4L153.4,278.4z M154.9,278c0.7-0.7,0.4-2.3,0.6-3.5C154.5,274.9,154.5,276.8,154.9,278
		L154.9,278z M156.6,278.3c0.8-0.5,0.6-2,0.5-3.4h-0.4C156.4,276,156.3,277.2,156.6,278.3L156.6,278.3z"/>
	<path class="st2" d="M173.9,261.3c0.1,0.6-0.2,1.3-0.7,1.7c-0.3-0.2,0-0.7-0.4-1C173.2,261.8,173.4,261.4,173.9,261.3z"/>
	<path class="st2" d="M175,262.4c1.8,1,1.2,3.5,2.1,5.3c-0.9-0.2-1.7-0.7-2.5-1C174.9,265.5,174.7,263.8,175,262.4z"/>
	<path class="st2" d="M138.3,278c1,2.1,2.2,4.1,3.2,6.3C140.3,282.6,138.4,280.2,138.3,278z"/>
	<path class="st2" d="M137.9,280.4c1,1.4,1.6,3.2,2.6,4.5c0.1,0.5-0.4,0.5-0.7,0.6c0.3,0.6,0.5-0.1,1,0c2.9,4,5.9,7.9,7.7,13.3
		c-2.8-2.5-4.3-6.4-6.5-9.7c-0.7-1-1.8-2-2.3-3C138.6,284.3,138.7,282.4,137.9,280.4z"/>
	<path class="st2" d="M142,285.1c0.7,0.7,1.2,1.6,1.6,2.5C143,286.8,142.4,286,142,285.1z"/>
	<path class="st2" d="M178.9,298.1c-2,0.1-3.9,0.3-5.9,0.6C173.1,297,177.1,296.7,178.9,298.1z"/>
	<path class="st2" d="M172.2,297.3c0.1,1-1.3,1.6-2.5,1.7C169.3,297.8,170.7,297.2,172.2,297.3z"/>
	<path class="st2" d="M168.3,297.7c0.3,0.5-0.7,1.5-1.6,1.5C166.9,298.5,167.5,297.9,168.3,297.7z"/>
	<path class="st2" d="M165.3,298.2c0.2,1.5-3.8,0.5-5.2,0.5C161.9,298.7,163.6,298.5,165.3,298.2z"/>
	<path class="st2" d="M167.9,241.5c0,0.4-0.7,1.3-1.4,1C166.8,242,167.6,241.9,167.9,241.5z"/>
	<path class="st2" d="M143,249.1c1.3,3.8-0.1,6.1-0.9,8.6l-1.8,6.1C140.8,258.9,141.7,253.9,143,249.1z"/>
	<path class="st2" d="M178.6,254.4c0.2,0.7-1,1-1.6,1.3C177,255.2,178.2,254.9,178.6,254.4z"/>
	<path class="st2" d="M172.2,258.3c0.1-0.1-1,0.9-1.3,0.8C171,258.5,171.7,258.5,172.2,258.3z"/>
	<path class="st2" d="M174.3,259.3c0.4,0.6-0.7,0.7-0.8,1.1C173.3,260,174.2,259.8,174.3,259.3z"/>
	<path class="st2" d="M179.3,284.4c-0.3,1.8-3.9,2-6.1,2.6s-3.6,1.1-5.6,1.6c0.5,0.9,2,0.2,2.7,0c2.5-0.7,5.4-1.6,7.8-2.3
		c-0.8,1.5-3.1,1.3-4.9,1.8c-1.6,0.5-3.2,1.1-4.7,1.8c0.8,0.8,1.7,0,2.3-0.2c2.3-0.9,4.6-1.5,7-1.9c0.5-0.6,1.7-0.4,2.2-0.9
		c-0.3-0.3-0.9-0.1-1.1,0c0.9-1.4,1.9-2.7,3.2-3.8c0.2,1.9-0.5,3.8-1.7,5.1c-0.7,0.7-1.3,1.9-2,2.2c-0.9,0.2-1.8,0.4-2.6,0.5
		c-2.3,0.6-4.8,1.4-7.2,2c1.3,0.7,3.4-0.2,5.3-0.7s3.2-1.3,4.8-1.1c0.5-0.2,0.7-0.8,1.5-0.7c-0.3-0.6,0-0.8,0.4-1.3
		c0.2,0.6-0.2,1.4-0.3,2.1c-4.7,0.1-7.7,2.2-11.8,2.5c-0.2,0.2-0.2,0.5,0.1,0.9c-1.4,0-2.3,0.5-3.8,0.5c0.9-1.9,0.8-4.6,1.7-6.5
		c-0.2-0.4-0.1,0.3-0.5,0.1c0.2-4-2.5-8.7-3.1-13c1-0.5,1.3-1.6,1.8-2.5c1.7,0,2.2-1.1,3.2-1.7c2.8-0.2,3.6-2.1,5.3-3.3
		c2.4,0.5,4.3,1.8,7.1,1.8c2.2,1.5,1.6,3.9,1.6,6.6c0.1,1.8,0.1,3.4,0.2,4.8c-1.3,1.1-1.6,2.9-4.3,2.8c0.1-0.6,0.8-0.7,1.5-0.8
		c0.1-0.3-0.6-0.4-0.5-0.2c-0.2-0.5,0.4-1.3,1.3-1.3c-0.5-0.8,0.4-1,0.4-1.6c-1.9-0.1-3.7,0.1-5.5,0.5c-0.5-0.9,2.2-1.5,3.6-1.2
		c-0.5-0.6-1.8-0.4-2.4-0.4c-0.4-0.7,1.3-1.3,1.4-2.1c-1.2,0.5-2.3,1.3-3.2,2.2c-2.9,0.3-5.1,1.2-8,1.4c0.3,0.7,1.1,0.5,1.5,0.5
		c2,0.1,3.9-1.2,5.7-0.9c0.5,0.9-0.8,0.7-1.3,0.8c-1.6,0.3-3.8,0.8-5.4,1.3c1,0.9,2.5,0.4,3.6,0.2c3-0.6,6.4-1.4,9.4-2
		c-0.5,1.3-2.5,1-4.4,1.4c-2.9,0.5-5.9,1.5-8.7,2.1c0.7,1.1,2.1,0.4,2.8,0.3c2.8-0.6,5.9-1.4,8.4-2.1c0.5,0.3-0.4,0.8-0.6,1.1
		c-3,0.3-5.9,0.9-8.8,1.9c-0.8,0.2-1.7,0.6-2.4,1.1c1.8,0.3,3.5-0.5,5.2-0.9s3.6-0.9,5.2-1.3c-3.1,1.3-6.8,1.9-10,3.1
		c0.9,0.8,1.9,0.2,2.7,0c2.4-0.6,5-1.5,7.5-2C177.5,284.9,178.7,284.9,179.3,284.4z M176.9,271.8c-1.4,0.2-2.7,0.9-3.8,1.9
		c-0.7,0.6-1.8,1.1-1.7,2.2c0.8,0.4,1.1-0.4,1.5-0.7c0.9-0.8,1.9-1.5,3-2.1c0.5-0.3,1.3-0.5,1.4-1.1
		C177.2,271.8,177,271.8,176.9,271.8L176.9,271.8z M168.6,273.6c0-0.2,0.1-0.2-0.2-0.3c-0.7,0.9-2.7,0.6-2.9,2
		C166.9,275,167.5,274,168.6,273.6z M177.5,274.8c-1.2,0.3-2.3,0.9-3.2,1.9c-0.6,0.6-1.6,1.3-1.6,2.3c1.1,0,1.8-1.1,2.6-1.8
		c0.7-0.9,1.6-1.6,2.6-2C177.8,275.1,177.7,274.9,177.5,274.8L177.5,274.8z M167.9,277.9c1,0,1.2-1.7,0.8-2.3
		C168.5,276.4,167.4,276.4,167.9,277.9L167.9,277.9z M166.1,278.2c1-0.3,1.1-1.5,1.5-2.4C166.3,276.1,166,276.9,166.1,278.2
		L166.1,278.2z M167.6,291.5c2.2,0.6,4.1-0.3,5.9-0.7c0.9-0.2,1.9-0.5,2.7-0.8c0.8-0.2,1.7-0.6,2.4-1
		C174.8,289.2,171,290,167.6,291.5L167.6,291.5z"/>
	<path class="st2" d="M153.9,283.3c-1.7,1.8-3.6,3.3-4.8,5.6c0.8,0.1,1.1-0.8,1.5-1.3l1.4-1.5c0.9-1.1,2-2,3.3-2.6
		c0.4,0.4-0.2,0.7-0.4,0.9c-1.6,1.8-3.9,3.8-4.7,6.3c2.3-2.3,4.3-4.9,6.7-7.1c0.4,0.1,0.8,0.1,1.3,0c-2,2.5-4.6,4.5-6.3,7.4
		c0.9-0.2,1.4-1.1,2-1.7c1.8-2,3.9-3.9,5.6-5.9c0.7,0,0.9-0.4,1.8-0.2c-2.6,2.4-5,5.1-6.9,8.1c3.1-2.7,5.8-6.3,8.5-8.9
		c0,1,0.9,2.2,0.8,3.2c0,0.6-1.3,1.5-1.7,2c-1.8,1.8-3.4,3.9-4.7,6.1c2.5-2,4.4-5.3,6.6-7.2l0.4,1.7c-1.1,0.9-2.1,1.9-3,3
		c-1.1,1-1.9,2.2-2.4,3.6c1.4-0.2,1.9-1.9,2.8-2.9c0.8-1,1.8-2,2.8-2.8c0,1.1-0.9,1.7-1.5,2.4c-0.6,0.7-1.5,1.3-1.4,2.3
		c1.2-0.1,1.5-1.9,2.5-2.5c0.3,1.3-0.4,2.7-0.1,4.4c-5.1,0.6-10.9,0.6-14.5,2.5c-2.2-4.4-4.2-9.1-6.7-13.2c0.9-2.5,7-0.8,10.2-1
		C153.7,283.9,153.4,283.3,153.9,283.3z M163,284.4c0.1,0,0.1-0.2-0.2-0.2c-2.4,2-4.6,4.3-6.4,6.9c-0.8,0.7-1.3,1.7-1.5,2.8
		C157.8,290.8,160.5,287.7,163,284.4z M149.4,286.9c-0.6,1.2-3,2.1-2.2,3.8c1-1.2,1.8-2.4,2.5-3.8H149.4z"/>
	<path class="st2" d="M179.5,291.8c0.6,0.6-0.9,1-0.8,1.8c0.5,0.9,0.7-0.8,1,0c-0.2,0.5-0.3,1-0.4,1.5c-1.4,0-2.5-0.3-3.9-0.5
		c0.2-0.4,0.9-0.4,1-0.8c-2,0.5-4,0.8-6.1,0.8C173.3,293.6,176.8,293.1,179.5,291.8z"/>
	<path class="st1" d="M171.8,282.4c-0.1-1.3-0.1-2.6,0-3.9c-0.2-0.1-0.1-0.2-0.2-0.3c0-0.5,0-0.9,0-1.4c0-0.8,0.2-1.7,0.2-2.6
		c0-2.4-0.2-4.9,0-7.2c0-0.5,0-1,0-1.4s0.2-0.5,0.2-0.8c0.1-0.3,0.2-0.5,0.2-0.9c-0.2-0.5-0.4-0.9-0.7-1.3c-0.3-0.5-0.5-1-0.7-1.3
		c-0.4-0.6-0.9-1.2-1.4-1.7c-0.4-0.6-1.1-1.4-1.7-1.3c-0.1,0-0.1,0.1-0.1,0.1l0,0c-1.3-0.1-2.7,0.1-4,0.6c-0.4,0.1-0.9,0.3-1.3,0.4
		c-1.5,0.5-3,1.3-4.3,2.2c-0.7,0.4-1.7,0.5-2.3,1c-0.1,0.1-0.2,0.3-0.3,0.4s-0.4,0.2-0.5,0.3c-0.3,0.5-0.5,1-0.6,1.6
		c-0.9,2.9-1,6.3-1.9,9.3c-0.3,0.9-0.5,1.8-0.6,2.7c-0.1,0.3-0.1,0.7-0.1,1.1c0.4,0.9,1,1.8,1.7,2.5c1,1.1,1.8,2.3,2.6,3.5
		c0.2,0.6,0.4,1.2,0.7,1.7c0.4,0.2,0.8,0.3,1.3,0.4c0.3,0,0.4-0.2,0.7-0.3c0.6,0,1.3,0,1.9,0c1.9,0,3.9-0.1,5.8-0.4
		c1.1-0.1,2.1-0.3,3.4-0.4c0.4-0.1,0.8-0.1,1.3-0.1c0.4,0.1,0.9,0.5,1.3,0.2C172.6,285,171.9,283.2,171.8,282.4z"/>
	<path class="st2" d="M169.1,280c-0.1-0.9-0.1-1.8,0-2.7c-0.2,0-0.1-0.1-0.1-0.2c0-0.3,0-0.6,0-1c0-0.6,0.2-1.1,0.2-1.8
		c0-1.6-0.1-3.4,0-5c0-0.4,0-0.7,0-1s0.1-0.4,0.2-0.6c0.1-0.2,0.2-0.4,0.1-0.6c-0.1-0.3-0.3-0.6-0.5-0.9s-0.4-0.7-0.5-0.9
		c-0.3-0.4-0.6-0.8-0.9-1.2c-0.3-0.4-0.7-1-1.2-0.9c0,0,0,0-0.1,0.1s0,0,0,0c-0.9-0.1-1.9,0.1-2.7,0.4l-0.9,0.3
		c-1.1,0.4-2.1,0.9-3,1.5c-0.5,0.3-1.3,0.4-1.6,0.7c-0.1,0.1-0.1,0.2-0.2,0.3s-0.2,0.1-0.3,0.2c-0.2,0.4-0.3,0.7-0.4,1.1
		c-0.6,2-0.7,4.4-1.3,6.4c-0.2,0.6-0.3,1.2-0.4,1.9c-0.1,0.2-0.1,0.5-0.1,0.7c0.3,0.6,0.7,1.2,1.2,1.8c0.7,0.8,1.3,1.6,1.8,2.5
		c0.1,0.4,0.3,0.9,0.5,1.3c0.3,0.1,0.6,0.2,0.9,0.3c0.2,0,0.3-0.2,0.5-0.2c0.4,0,0.9,0,1.3,0c1.3,0,2.7-0.1,4-0.3
		c0.8-0.1,1.5-0.2,2.4-0.2c0.3,0,0.5,0,0.8,0s0.6,0.3,0.9,0.2C169.6,281.9,169.2,280.5,169.1,280z"/>
	<path class="st1" d="M182.1,300c0.9,0.1,2.2,1.1,3,0.5s-0.7-5.4-0.9-7.3c-0.3-3.2-0.3-6.4,0.2-9.6c-0.6-0.2-0.4-0.4-0.4-0.7
		c-0.1-1.1-0.2-2.3-0.1-3.4c0.1-2.1,0.5-4.1,0.6-6.5c0-5.9-0.4-12.2-0.1-17.8c0-1.3-0.1-2.5,0.1-3.5c0.1-0.6,0.4-1.3,0.6-2
		c0.2-0.7,0.6-1.3,0.4-2.1c-0.4-1.1-1-2.2-1.8-3.2c-0.8-1.3-1.3-2.4-1.8-3.3c-1-1.5-2.1-2.9-3.3-4.2c-1.1-1.4-2.6-3.5-4.2-3.3
		c-0.2,0-0.2,0.2-0.3,0.2c-0.2,0,0,0.2-0.1,0.1c-3.3-0.3-6.7,0.2-9.8,1.4c-1,0.3-2.1,0.6-3.1,1c-3.8,1.3-7.4,3.1-10.8,5.3
		c-1.7,1-4.3,1.3-5.8,2.4c-0.3,0.2-0.5,0.7-0.8,1.1c-0.4,0.4-0.9,0.5-1.1,0.8c-0.7,1.2-1.3,2.6-1.5,4c-2.3,7.3-2.4,15.7-4.7,23
		c-0.7,2.2-1.2,4.4-1.6,6.7c-0.3,0.8-0.3,1.7-0.2,2.6c0.6,2,2.7,4.4,4.1,6.3c2.4,3.3,4.7,5.2,6.4,8.8c0.5,0.9,1.2,3.8,1.8,4.3
		c1,0.5,2,0.8,3.1,0.9c0.7,0,1.1-0.5,1.7-0.6c1.6-0.1,3.2-0.2,4.8-0.1c4.8,0.1,9.6-0.2,14.3-0.9c2.8-0.3,5.3-0.8,8.5-0.9
		C180.2,300.1,181.1,300,182.1,300z"/>
	<path class="st2" d="M175,238c0.3,0,0-0.7,0.6-0.5c1.4,1.4,2.5,3.2,4,4.5c0.1,2.3,3.2,3.6,3.6,5.4c0.1,0.5-0.3,1.4-0.5,1.3
		c-0.6-0.1-1.5-2.2-1.9-2.8C179.1,243.1,176.8,240.4,175,238z"/>
	<path class="st2" d="M173.8,238.5c0.1,0,0.2,0.1,0.3,0.3c0,1-1.3,1.5-2,2.1c-1.5,1.3-3.2,2.5-4.7,3.9c-0.7,0.7-1.1,1.7-2.2,1.8
		c-0.1-1.1,1-1.6,1.6-2.2C169,242.3,171.5,240.3,173.8,238.5z"/>
	<path class="st2" d="M167,238.8c-2.7,0.9-4.7,2.4-7.5,3.2c0.1-0.6,0-1.3-0.2-1.9C161.9,239.7,164.3,239.1,167,238.8z"/>
	<path class="st2" d="M175.3,240.2c-3.2,2.3-6.3,4.8-9.2,7.5c-0.2-1.3,1.1-1.6,1.8-2.1c2.2-1.7,4.6-3.8,6.9-5.4c0-0.1,0.2,0,0.2-0.2
		C175,240,175.1,240.2,175.3,240.2z"/>
	<path class="st2" d="M176,241.5c-2.9,2.1-5.6,4.5-8.2,7c-0.3,0.3-0.5,1-1.1,0.8c-0.6-0.8,0.2-1,0.5-1.3c2.5-2.3,5.7-4.6,8.2-7
		C175.8,240.8,175.7,241.4,176,241.5z"/>
	<path class="st2" d="M158.7,240.3c0.4,0.6,0.3,2.5-0.7,2.5C157.5,241.7,157.7,240.4,158.7,240.3z"/>
	<path class="st2" d="M176.6,242.4c0.4,0.8-0.4,1.1-0.8,1.3c-2.9,2.3-5.7,4.7-8.3,7.3c-0.8-1.1,0.8-2.4,1.5-3
		c2.3-1.9,5.5-3.9,7.3-5.8C176.5,242.2,176.6,242.3,176.6,242.4z"/>
	<path class="st2" d="M156.8,241c0.2,0.9,0.3,2.4-0.9,2.3c0.1-0.6,0.1-1.3,0-1.9C156.2,241.2,156.7,241.3,156.8,241z"/>
	<path class="st2" d="M166,242.6c0.2,0,0.3,0.1,0.2,0.1c-0.1,1.9-2,2.1-2.3,3.8c0,0.5,0.5,0.3,0.6,0.6c-0.1,1.1,1,1.9,0.3,2.7
		c0.3,0.4,0.6-0.2,0.8,0.2c2.1,4.4,2.8,10.6,6.1,13.4c0.1,0.7,0.2,1.4,0.2,2.2c-3.1,2-7.7,2.7-9.1,6.3c-0.8,0.2-1.1,0.8-1.8,1.1
		c-0.5-0.1-1-0.2-1.5-0.1c-2.7-5.4-7.3-8.3-10.9-12.5c-0.9-2.6-1.5-5.6-2.5-8c2.1-2.7,6-3.6,9.5-4.9
		C159.2,245.9,162.7,244.3,166,242.6z M162.6,251c0.7-0.1,1.1-0.5,0.7-1.6C161.8,248.1,161.4,250,162.6,251z M159.2,254
		c-0.2-0.7-0.9-1.1-1.5-0.9l0,0C155.4,253.7,160.2,256.7,159.2,254L159.2,254z M161.9,255.9c-0.4-0.2-0.3,0.2-0.6,0.2
		c0,0.6,0.3,1.1,0.8,1.5c1.8,0.3,1.3-2-0.1-2.5C161.5,254.9,161.6,255.4,161.9,255.9L161.9,255.9z M155.7,257.4
		c0.5-0.1,0.4-0.9,0-1.5c-0.1,0-0.3,0-0.3-0.2C154,255.4,154.7,257.4,155.7,257.4L155.7,257.4z M150.4,258.4
		c0.7-0.7,1.7-1.3,1.9-2.5C150.8,255.9,150.8,257.3,150.4,258.4L150.4,258.4z M151.8,259.6c1.7-0.2,2.1-1.5,2.7-2.7
		C152.9,256.8,152.2,258.3,151.8,259.6L151.8,259.6z M152.9,261.3c1.4-0.7,2.6-1.8,3.3-3.1C154.5,258.3,153.1,259.6,152.9,261.3
		L152.9,261.3z M154.4,261.7c1.6-0.2,2.1-1.2,2.9-2c0-0.2-0.2-0.3-0.4-0.4C156.1,260.1,155.1,260.8,154.4,261.7L154.4,261.7z
		 M161.9,264.9c0.5,0.5,1.3,0.6,1.5,0.1c-0.1-0.4-0.2-0.7-0.4-1C162.1,263.5,161.3,263.8,161.9,264.9L161.9,264.9z M160.8,266.3
		c-0.1-0.8-0.8-0.9-1.3-1.6C155.3,263.6,161,269.1,160.8,266.3L160.8,266.3z M159.7,269.3c0.9-0.2,0.9-1.2,1.3-1.9
		C160.2,267.7,159.4,267.9,159.7,269.3L159.7,269.3z M160.3,270.5c1-0.5,1.6-1.4,1.9-2.5C161.1,267.9,160.2,269.4,160.3,270.5
		L160.3,270.5z"/>
	<path class="st2" d="M177.3,243.6c0.3,0,0.2,0.4,0.5,0.4c-2.6,2.3-4.5,5.3-8.3,6.6c0.3-0.8,0.9-1.4,1.6-1.9
		C173.3,247.1,175.3,245.4,177.3,243.6z"/>
	<path class="st2" d="M154.8,241.8c0.2,0.8,0.4,2.4-0.7,2.3c0-0.6,0-1.3,0-1.9C154.3,242.1,154.7,242.1,154.8,241.8z"/>
	<path class="st2" d="M178.1,244.9c0.4,0.1,0.5,0.6,0.7,0.8c-1.6,1.6-3.3,3.4-4.9,5l-0.2,0.1c-1.6,1-3.9,1.3-5.1,2.8
		c1.9-0.1,2.8-1.6,4.3-1.6c0.6-0.4,1.3-1.3,2.3-0.9c0-0.3-0.3-0.4-0.6-0.4c1.4-1.5,3.2-2.6,4.5-4.1c0.5,1,1.6,1.8,1.8,2.8
		c-0.1,1.4-0.4,2.7-0.9,3.9c-0.3,0.5-0.9,0.5-1,0.9c-0.2,0-0.2-0.4-0.5-0.4c-3.2,1-5.2,3-8.1,4.3c0-0.5-0.4-0.6-0.4-1
		c3.1-1.3,5.8-3,8.8-4.5c-1.9-0.4-3.5,0.7-4.8,1.5c-1.4,0.8-2.8,1.7-4.1,2.5c-0.4-0.2-0.5-0.8-0.7-1.3c2.5-1.1,5-2.3,7.4-3.6
		c-2.7,0.4-5.3,1.6-7.5,3.2c-0.6-1-1.1-2.2-1.6-3.2c0.9-0.4,1.9-0.6,2.8-0.8c0.6,0.1-0.3,0.3,0.1,0.9c1.3,0,1.5-1.9,3.3-1.8
		c0-0.3-0.2-0.3-0.4-0.3C174.5,247.8,176.7,246.7,178.1,244.9z M176.8,250.7c1.2-0.7,2.1-1.8,2.6-3
		C178.4,248.6,177.5,249.6,176.8,250.7z"/>
	<path class="st2" d="M152.8,242.8c0.4,0.4,0.6,2.4-0.3,2.2C152.6,244.3,152.2,243.1,152.8,242.8z"/>
	<path class="st2" d="M150.3,244.2c0.2,0.7,0.2,1.5-0.1,2.1C149.8,245.6,149.8,244.5,150.3,244.2z"/>
	<path class="st2" d="M148.8,244.9c0.3,0.7,0.2,1.4-0.1,2C148.6,246.3,148.6,245.6,148.8,244.9z"/>
	<path class="st2" d="M144.4,247.4c0.3,0.3,0.4,1.3-0.2,1.1c0-0.2-0.1-0.5-0.3-0.5C143.9,247.7,144.4,247.8,144.4,247.4z"/>
	<path class="st2" d="M181.8,252.8c0.3,2.4-0.3,4.9,0,7.5c-0.9-0.6-2.1-0.8-3.1-0.4c0.6,1,2.3,0.8,3.1,0.7c0,3-0.1,6-0.2,8.9
		c-0.4,0.1-1.9-1.2-2.6-1.8c-0.4-2.8-1.3-5-2.9-6.4c1.1-2,2.7-3.7,3.4-6.1C180.5,255.1,181.2,253.8,181.8,252.8z M178.2,262.3
		c0.1,0.9,1.1,0.6,1,0.1C178.7,262.4,178.6,262.2,178.2,262.3z"/>
	<path class="st2" d="M175.8,257.1c0.3,0,0.2,0.1,0.2,0.3c-0.5,0.5-1,1.1-1.3,1.8c-1.4-0.3-2.2,0.9-3,1.5c-0.3-0.3-0.5-0.6-0.6-0.9
		C172.8,259,174.4,258.2,175.8,257.1z"/>
	<path class="st2" d="M145.4,254.8c1.1,2.4,1,4.3,2.1,6.3c1.1,1.9,3.2,3.3,4.7,4.8c3,2.8,5.7,6,8,9.4c0.2,1.9,0.9,3.8,2,5.5
		c-1.9,1-6.7-0.5-8.2,0.9c-0.8-0.4-1.7-0.1-2.2,0.6c-3.2-0.7-6.6-0.3-9.6,1.3c-1.3-2.2-2.5-4.4-3.5-6.7c0.9-1.5,1.6-3.2,2.2-4.8
		c0.8,1.3,1.5,2.7,2.3,4c0,0.5-1,0.1-0.8,0.8c0.4,1.3,1.4,0.7,1.9,0.8c0.4,0.5,0.5,1.1,0.6,1.7c0.6,0.2,0.4-0.4,0.4-0.8
		c1.3,0.9,1.9-0.3,1.7-1.1c-0.2-0.7-1-1.1-1.7-0.9c-0.3,0.1-0.5,0.2-0.7,0.5c-0.4-1.8-2.9-4.1-3.2-6c-0.2-1.1,0.9-2.9,1.2-3.9
		C143.7,263.1,144.7,258.6,145.4,254.8z M149.8,272.3c-0.4-0.7-1.3-1-2.1-0.7C145.4,272.7,151.5,275.4,149.8,272.3z M144.5,273.5
		c0.5,0.5,1.2,0.5,1.7,0.2C146.3,272.2,143.5,271.9,144.5,273.5L144.5,273.5z M151.9,278.2c0.6-1.5,0.8-3.2,0.6-4.9
		c-0.1-0.1-0.2-0.2-0.3-0.2C151.8,274.5,150.8,276.6,151.9,278.2L151.9,278.2z M153.4,278.4c0.7-1.5,1-3.2,0.8-4.9h-0.4
		C153.8,275.2,152.7,276.4,153.4,278.4L153.4,278.4z M154.9,278c0.7-0.7,0.4-2.3,0.6-3.5C154.5,274.9,154.5,276.8,154.9,278
		L154.9,278z M156.6,278.3c0.8-0.5,0.6-2,0.5-3.4h-0.4C156.4,276,156.3,277.2,156.6,278.3L156.6,278.3z"/>
	<path class="st2" d="M173.9,261.3c0.1,0.6-0.2,1.3-0.7,1.7c-0.3-0.2,0-0.7-0.4-1C173.2,261.8,173.4,261.4,173.9,261.3z"/>
	<path class="st2" d="M175,262.4c1.8,1,1.2,3.5,2.1,5.3c-0.9-0.2-1.7-0.7-2.5-1C174.9,265.5,174.7,263.8,175,262.4z"/>
	<path class="st2" d="M138.3,278c1,2.1,2.2,4.1,3.2,6.3C140.3,282.6,138.4,280.2,138.3,278z"/>
	<path class="st2" d="M137.9,280.4c1,1.4,1.6,3.2,2.6,4.5c0.1,0.5-0.4,0.5-0.7,0.6c0.3,0.6,0.5-0.1,1,0c2.9,4,5.9,7.9,7.7,13.3
		c-2.8-2.5-4.3-6.4-6.5-9.7c-0.7-1-1.8-2-2.3-3C138.6,284.3,138.7,282.4,137.9,280.4z"/>
	<path class="st2" d="M142,285.1c0.7,0.7,1.2,1.6,1.6,2.5C143,286.8,142.4,286,142,285.1z"/>
	<path class="st2" d="M178.9,298.1c-2,0.1-3.9,0.3-5.9,0.6C173.1,297,177.1,296.7,178.9,298.1z"/>
	<path class="st2" d="M172.2,297.3c0.1,1-1.3,1.6-2.5,1.7C169.3,297.8,170.7,297.2,172.2,297.3z"/>
	<path class="st2" d="M168.3,297.7c0.3,0.5-0.7,1.5-1.6,1.5C166.9,298.5,167.5,297.9,168.3,297.7z"/>
	<path class="st2" d="M165.3,298.2c0.2,1.5-3.8,0.5-5.2,0.5C161.9,298.7,163.6,298.5,165.3,298.2z"/>
	<path class="st2" d="M167.9,241.5c0,0.4-0.7,1.3-1.4,1C166.8,242,167.6,241.9,167.9,241.5z"/>
	<path class="st2" d="M143,249.1c1.3,3.8-0.1,6.1-0.9,8.6l-1.8,6.1C140.8,258.9,141.7,253.9,143,249.1z"/>
	<path class="st2" d="M178.6,254.4c0.2,0.7-1,1-1.6,1.3C177,255.2,178.2,254.9,178.6,254.4z"/>
	<path class="st2" d="M172.2,258.3c0.1-0.1-1,0.9-1.3,0.8C171,258.5,171.7,258.5,172.2,258.3z"/>
	<path class="st2" d="M174.3,259.3c0.4,0.6-0.7,0.7-0.8,1.1C173.3,260,174.2,259.8,174.3,259.3z"/>
	<path class="st2" d="M179.3,284.4c-0.3,1.8-3.9,2-6.1,2.6s-3.6,1.1-5.6,1.6c0.5,0.9,2,0.2,2.7,0c2.5-0.7,5.4-1.6,7.8-2.3
		c-0.8,1.5-3.1,1.3-4.9,1.8c-1.6,0.5-3.2,1.1-4.7,1.8c0.8,0.8,1.7,0,2.3-0.2c2.3-0.9,4.6-1.5,7-1.9c0.5-0.6,1.7-0.4,2.2-0.9
		c-0.3-0.3-0.9-0.1-1.1,0c0.9-1.4,1.9-2.7,3.2-3.8c0.2,1.9-0.5,3.8-1.7,5.1c-0.7,0.7-1.3,1.9-2,2.2c-0.9,0.2-1.8,0.4-2.6,0.5
		c-2.3,0.6-4.8,1.4-7.2,2c1.3,0.7,3.4-0.2,5.3-0.7s3.2-1.3,4.8-1.1c0.5-0.2,0.7-0.8,1.5-0.7c-0.3-0.6,0-0.8,0.4-1.3
		c0.2,0.6-0.2,1.4-0.3,2.1c-4.7,0.1-7.7,2.2-11.8,2.5c-0.2,0.2-0.2,0.5,0.1,0.9c-1.4,0-2.3,0.5-3.8,0.5c0.9-1.9,0.8-4.6,1.7-6.5
		c-0.2-0.4-0.1,0.3-0.5,0.1c0.2-4-2.5-8.7-3.1-13c1-0.5,1.3-1.6,1.8-2.5c1.7,0,2.2-1.1,3.2-1.7c2.8-0.2,3.6-2.1,5.3-3.3
		c2.4,0.5,4.3,1.8,7.1,1.8c2.2,1.5,1.6,3.9,1.6,6.6c0.1,1.8,0.1,3.4,0.2,4.8c-1.3,1.1-1.6,2.9-4.3,2.8c0.1-0.6,0.8-0.7,1.5-0.8
		c0.1-0.3-0.6-0.4-0.5-0.2c-0.2-0.5,0.4-1.3,1.3-1.3c-0.5-0.8,0.4-1,0.4-1.6c-1.9-0.1-3.7,0.1-5.5,0.5c-0.5-0.9,2.2-1.5,3.6-1.2
		c-0.5-0.6-1.8-0.4-2.4-0.4c-0.4-0.7,1.3-1.3,1.4-2.1c-1.2,0.5-2.3,1.3-3.2,2.2c-2.9,0.3-5.1,1.2-8,1.4c0.3,0.7,1.1,0.5,1.5,0.5
		c2,0.1,3.9-1.2,5.7-0.9c0.5,0.9-0.8,0.7-1.3,0.8c-1.6,0.3-3.8,0.8-5.4,1.3c1,0.9,2.5,0.4,3.6,0.2c3-0.6,6.4-1.4,9.4-2
		c-0.5,1.3-2.5,1-4.4,1.4c-2.9,0.5-5.9,1.5-8.7,2.1c0.7,1.1,2.1,0.4,2.8,0.3c2.8-0.6,5.9-1.4,8.4-2.1c0.5,0.3-0.4,0.8-0.6,1.1
		c-3,0.3-5.9,0.9-8.8,1.9c-0.8,0.2-1.7,0.6-2.4,1.1c1.8,0.3,3.5-0.5,5.2-0.9s3.6-0.9,5.2-1.3c-3.1,1.3-6.8,1.9-10,3.1
		c0.9,0.8,1.9,0.2,2.7,0c2.4-0.6,5-1.5,7.5-2C177.5,284.9,178.7,284.9,179.3,284.4z M176.9,271.8c-1.4,0.2-2.7,0.9-3.8,1.9
		c-0.7,0.6-1.8,1.1-1.7,2.2c0.8,0.4,1.1-0.4,1.5-0.7c0.9-0.8,1.9-1.5,3-2.1c0.5-0.3,1.3-0.5,1.4-1.1
		C177.2,271.8,177,271.8,176.9,271.8L176.9,271.8z M168.6,273.6c0-0.2,0.1-0.2-0.2-0.3c-0.7,0.9-2.7,0.6-2.9,2
		C166.9,275,167.5,274,168.6,273.6z M177.5,274.8c-1.2,0.3-2.3,0.9-3.2,1.9c-0.6,0.6-1.6,1.3-1.6,2.3c1.1,0,1.8-1.1,2.6-1.8
		c0.7-0.9,1.6-1.6,2.6-2C177.8,275.1,177.7,274.9,177.5,274.8L177.5,274.8z M167.9,277.9c1,0,1.2-1.7,0.8-2.3
		C168.5,276.4,167.4,276.4,167.9,277.9L167.9,277.9z M166.1,278.2c1-0.3,1.1-1.5,1.5-2.4C166.3,276.1,166,276.9,166.1,278.2
		L166.1,278.2z M167.6,291.5c2.2,0.6,4.1-0.3,5.9-0.7c0.9-0.2,1.9-0.5,2.7-0.8c0.8-0.2,1.7-0.6,2.4-1
		C174.8,289.2,171,290,167.6,291.5L167.6,291.5z"/>
	<path class="st2" d="M153.9,283.3c-1.7,1.8-3.6,3.3-4.8,5.6c0.8,0.1,1.1-0.8,1.5-1.3l1.4-1.5c0.9-1.1,2-2,3.3-2.6
		c0.4,0.4-0.2,0.7-0.4,0.9c-1.6,1.8-3.9,3.8-4.7,6.3c2.3-2.3,4.3-4.9,6.7-7.1c0.4,0.1,0.8,0.1,1.3,0c-2,2.5-4.6,4.5-6.3,7.4
		c0.9-0.2,1.4-1.1,2-1.7c1.8-2,3.9-3.9,5.6-5.9c0.7,0,0.9-0.4,1.8-0.2c-2.6,2.4-5,5.1-6.9,8.1c3.1-2.7,5.8-6.3,8.5-8.9
		c0,1,0.9,2.2,0.8,3.2c0,0.6-1.3,1.5-1.7,2c-1.8,1.8-3.4,3.9-4.7,6.1c2.5-2,4.4-5.3,6.6-7.2l0.4,1.7c-1.1,0.9-2.1,1.9-3,3
		c-1.1,1-1.9,2.2-2.4,3.6c1.4-0.2,1.9-1.9,2.8-2.9c0.8-1,1.8-2,2.8-2.8c0,1.1-0.9,1.7-1.5,2.4c-0.6,0.7-1.5,1.3-1.4,2.3
		c1.2-0.1,1.5-1.9,2.5-2.5c0.3,1.3-0.4,2.7-0.1,4.4c-5.1,0.6-10.9,0.6-14.5,2.5c-2.2-4.4-4.2-9.1-6.7-13.2c0.9-2.5,7-0.8,10.2-1
		C153.7,283.9,153.4,283.3,153.9,283.3z M163,284.4c0.1,0,0.1-0.2-0.2-0.2c-2.4,2-4.6,4.3-6.4,6.9c-0.8,0.7-1.3,1.7-1.5,2.8
		C157.8,290.8,160.5,287.7,163,284.4z M149.4,286.9c-0.6,1.2-3,2.1-2.2,3.8c1-1.2,1.8-2.4,2.5-3.8H149.4z"/>
	<path class="st2" d="M179.5,291.8c0.6,0.6-0.9,1-0.8,1.8c0.5,0.9,0.7-0.8,1,0c-0.2,0.5-0.3,1-0.4,1.5c-1.4,0-2.5-0.3-3.9-0.5
		c0.2-0.4,0.9-0.4,1-0.8c-2,0.5-4,0.8-6.1,0.8C173.3,293.6,176.8,293.1,179.5,291.8z"/>
	<path class="st1" d="M171.8,282.4c-0.1-1.3-0.1-2.6,0-3.9c-0.2-0.1-0.1-0.2-0.2-0.3c0-0.5,0-0.9,0-1.4c0-0.8,0.2-1.7,0.2-2.6
		c0-2.4-0.2-4.9,0-7.2c0-0.5,0-1,0-1.4s0.2-0.5,0.2-0.8c0.1-0.3,0.2-0.5,0.2-0.9c-0.2-0.5-0.4-0.9-0.7-1.3c-0.3-0.5-0.5-1-0.7-1.3
		c-0.4-0.6-0.9-1.2-1.4-1.7c-0.4-0.6-1.1-1.4-1.7-1.3c-0.1,0-0.1,0.1-0.1,0.1l0,0c-1.3-0.1-2.7,0.1-4,0.6c-0.4,0.1-0.9,0.3-1.3,0.4
		c-1.5,0.5-3,1.3-4.3,2.2c-0.7,0.4-1.7,0.5-2.3,1c-0.1,0.1-0.2,0.3-0.3,0.4s-0.4,0.2-0.5,0.3c-0.3,0.5-0.5,1-0.6,1.6
		c-0.9,2.9-1,6.3-1.9,9.3c-0.3,0.9-0.5,1.8-0.6,2.7c-0.1,0.3-0.1,0.7-0.1,1.1c0.4,0.9,1,1.8,1.7,2.5c1,1.1,1.8,2.3,2.6,3.5
		c0.2,0.6,0.4,1.2,0.7,1.7c0.4,0.2,0.8,0.3,1.3,0.4c0.3,0,0.4-0.2,0.7-0.3c0.6,0,1.3,0,1.9,0c1.9,0,3.9-0.1,5.8-0.4
		c1.1-0.1,2.1-0.3,3.4-0.4c0.4-0.1,0.8-0.1,1.3-0.1c0.4,0.1,0.9,0.5,1.3,0.2C172.6,285,171.9,283.2,171.8,282.4z"/>
	<path class="st2" d="M169.1,280c-0.1-0.9-0.1-1.8,0-2.7c-0.2,0-0.1-0.1-0.1-0.2c0-0.3,0-0.6,0-1c0-0.6,0.2-1.1,0.2-1.8
		c0-1.6-0.1-3.4,0-5c0-0.4,0-0.7,0-1s0.1-0.4,0.2-0.6c0.1-0.2,0.2-0.4,0.1-0.6c-0.1-0.3-0.3-0.6-0.5-0.9s-0.4-0.7-0.5-0.9
		c-0.3-0.4-0.6-0.8-0.9-1.2c-0.3-0.4-0.7-1-1.2-0.9c0,0,0,0-0.1,0.1s0,0,0,0c-0.9-0.1-1.9,0.1-2.7,0.4l-0.9,0.3
		c-1.1,0.4-2.1,0.9-3,1.5c-0.5,0.3-1.3,0.4-1.6,0.7c-0.1,0.1-0.1,0.2-0.2,0.3s-0.2,0.1-0.3,0.2c-0.2,0.4-0.3,0.7-0.4,1.1
		c-0.6,2-0.7,4.4-1.3,6.4c-0.2,0.6-0.3,1.2-0.4,1.9c-0.1,0.2-0.1,0.5-0.1,0.7c0.3,0.6,0.7,1.2,1.2,1.8c0.7,0.8,1.3,1.6,1.8,2.5
		c0.1,0.4,0.3,0.9,0.5,1.3c0.3,0.1,0.6,0.2,0.9,0.3c0.2,0,0.3-0.2,0.5-0.2c0.4,0,0.9,0,1.3,0c1.3,0,2.7-0.1,4-0.3
		c0.8-0.1,1.5-0.2,2.4-0.2c0.3,0,0.5,0,0.8,0s0.6,0.3,0.9,0.2C169.6,281.9,169.2,280.5,169.1,280z"/>
	<path class="st1" d="M271.9,210.9c-0.3,1.1-1.7,2.6-1,3.7c0.8,1.3,6.6-0.2,9-0.2c3.9,0,7.9,0.4,11.7,1.3c0.3-0.7,0.6-0.4,0.9-0.4
		c1.4,0,2.8,0,4.2,0.2c2.5,0.4,5,1.1,7.9,1.4c7.2,0.7,15.1,1,21.9,1.9c1.5,0.2,3.1,0.2,4.3,0.5c0.8,0.2,1.5,0.7,2.3,1
		s1.5,0.9,2.5,0.8c1.5-0.4,2.9-1,4.1-1.8c1.6-0.8,3.1-1.3,4.3-1.8c1.9-1.1,3.8-2.3,5.6-3.6c1.8-1.3,4.5-2.8,4.5-4.8
		c0-0.2-0.2-0.2-0.2-0.4c-0.1,0-0.2,0-0.1-0.1c1.1-5,0.1-8.9-0.6-12.2c-0.3-1.3-0.5-2.7-0.8-4c-1.2-4.8-3-9.4-5.3-13.8
		c-1.1-2.2-1-5.5-2.2-7.4c-0.2-0.3-0.8-0.6-1.3-1.1s-0.5-1.1-0.8-1.5c-1.1-1.1-3.1-1.7-4.8-2.3c-8.7-3.7-19.1-4.8-27.8-8.5
		c-2.6-1.1-5.3-2-8-2.7c-1-0.4-2.1-0.6-3.2-0.5c-2.5,0.5-5.7,2.9-8.2,4.3c-4.3,2.5-7,5.1-11.5,6.9c-1.2,0.5-4.7,1-5.5,1.7
		c-0.7,1.2-1.2,2.4-1.5,3.8c-0.1,0.8,0.5,1.4,0.6,2.1c0,2-0.2,4-0.5,5.9c-0.7,5.9-0.9,11.8-0.6,17.7c0.1,3.5,0.3,6.6,0.1,10.5
		C272,208.4,272,209.6,271.9,210.9z"/>
	<path class="st2" d="M349,209.3c0,0.4,0.8,0.1,0.5,0.8c-1.9,1.6-4.2,2.8-6,4.4c-2.8-0.1-4.8,3.5-7,3.9c-0.7,0.1-1.7-0.5-1.6-0.8
		c0.2-0.7,2.9-1.6,3.7-2C342.3,213.8,345.8,211.2,349,209.3z"/>
	<path class="st2" d="M348.5,207.8c-0.1,0.2-0.2,0.3-0.4,0.4c-1.3,0-1.7-1.7-2.3-2.7c-1.3-2-2.6-4.3-4.2-6.3c-0.8-1-2-1.6-2-2.9
		c1.4,0,1.9,1.4,2.6,2.3C344.4,201.3,346.5,204.7,348.5,207.8z"/>
	<path class="st2" d="M349,199.4c-0.8-3.5-2.4-6.1-3.1-9.6c0.8,0.1,1.6,0.1,2.4-0.1C348.5,192.9,348.9,196,349,199.4z"/>
	<path class="st2" d="M346.2,209.3c-2.3-4.3-5.6-8.4-8.2-12.2c1.5-0.1,1.8,1.5,2.4,2.4c1.8,2.9,4.1,6.1,5.9,9.1c0.2,0,0,0.3,0.3,0.3
		C346.5,209,346.3,209.1,346.2,209.3z"/>
	<path class="st2" d="M344.6,210.1c-2.4-3.6-4.7-7.5-7.6-10.9c-0.3-0.4-1.1-0.7-0.8-1.5c1.1-0.7,1.3,0.3,1.6,0.8
		c2.5,3.3,5,7.5,7.6,10.9C345.4,209.9,344.7,209.8,344.6,210.1z"/>
	<path class="st2" d="M348.1,189c-0.8,0.4-3.1,0.1-2.9-1.2C346.5,187.4,348.1,187.7,348.1,189z"/>
	<path class="st2" d="M343.4,210.8c-1,0.4-1.3-0.7-1.5-1.1c-2.4-3.9-5.1-7.6-8-11.1c1.4-0.8,2.8,1.3,3.5,2.3c2.1,3,4.2,7.2,6.3,9.6
		C343.6,210.6,343.5,210.7,343.4,210.8z"/>
	<path class="st2" d="M347.4,186.6c-1.1,0.2-3,0.1-2.7-1.3c0.8,0.1,1.6,0.2,2.3,0.2C347.2,185.8,347.1,186.4,347.4,186.6z"/>
	<path class="st2" d="M344.4,197.7c0,0.3-0.2,0.3-0.2,0.2c-2.3-0.3-2.3-2.7-4.3-3.3c-0.6,0-0.4,0.6-0.8,0.7c-1.3-0.3-2.4,1-3.3,0.1
		c-0.5,0.3,0.1,0.7-0.3,0.9c-5.6,2.1-13.4,2.2-17.2,6c-0.9,0.1-1.8,0.1-2.7,0c-2.1-4.1-2.4-9.8-6.6-11.9c-0.1-1-0.8-1.5-1.1-2.3
		c0.2-0.6,0.3-1.2,0.3-1.8c6.9-2.7,11.1-8,16.7-11.9c3.3-0.8,7.1-1.1,10.2-2.1c3,2.9,3.8,7.8,5,12.3
		C341.3,189,342.7,193.4,344.4,197.7z M334.5,192.5c0.1,0.8,0.4,1.4,1.9,1C338,191.9,335.9,191.1,334.5,192.5z M331.2,188
		c0.8-0.2,1.4-1,1.3-1.8l0,0C332,183.3,327.7,188.9,331.2,188L331.2,188z M328.6,191c0.2-0.5-0.2-0.4-0.2-0.7
		c-0.7,0-1.4,0.3-1.9,0.9c-0.6,2.2,2.4,1.7,3.1,0.1C329.8,190.7,329.1,190.8,328.6,191L328.6,191z M327.4,183.3
		c0.1,0.6,1.1,0.6,1.9,0.2c0.1-0.1,0.1-0.3,0.2-0.3C330.1,181.5,327.5,182,327.4,183.3L327.4,183.3z M326.8,176.7
		c0.8,1,1.4,2.2,2.8,2.6C329.8,177.4,328.1,177.3,326.8,176.7L326.8,176.7z M325.1,178.2c0.1,2.1,1.7,2.7,2.9,3.7
		C328.4,180,326.6,178.9,325.1,178.2z M322.9,179.3c0.6,1.8,1.8,3.4,3.4,4.5C326.4,181.7,325,179.8,322.9,179.3L322.9,179.3z
		 M322.2,181.2c0,1.9,1.3,2.7,2.1,3.8c0.2,0,0.4-0.2,0.5-0.4C324,183.5,323.2,182.2,322.2,181.2L322.2,181.2z M317.5,190
		c-0.7,0.5-0.9,1.5-0.3,1.8c0.5,0,0.9-0.2,1.3-0.4C319,190.5,318.9,189.4,317.5,190L317.5,190z M315.8,188.4c1,0,1.3-0.9,2.1-1.4
		C319.8,182,312.4,188.4,315.8,188.4L315.8,188.4z M312.4,186.8c0.2,1.1,1.4,1.3,2.2,1.7C314.2,187.6,314,186.5,312.4,186.8
		L312.4,186.8z M310.8,187.5c0.5,1.2,1.6,2.2,2.8,2.6C313.8,188.8,312.1,187.5,310.8,187.5L310.8,187.5z"/>
	<path class="st2" d="M341.9,211.4c0,0.4-0.5,0.2-0.6,0.5c-2.5-3.5-6-6.1-7.1-10.9c0.9,0.5,1.6,1.3,2.1,2.2
		C338,205.8,339.7,209.1,341.9,211.4z"/>
	<path class="st2" d="M346.6,184.1c-1,0.2-3,0.2-2.8-1.2c0.7,0.2,1.6,0.2,2.3,0.2C346.4,183.4,346.3,183.9,346.6,184.1z"/>
	<path class="st2" d="M340.1,212.3c-0.2,0.4-0.8,0.5-1.1,0.8c-1.7-2.1-3.8-4.4-5.5-6.6c0-0.1-0.1-0.2-0.1-0.3
		c-1.1-2.1-1.1-4.9-2.9-6.6c-0.1,2.3,1.6,3.6,1.5,5.5c0.4,0.8,1.4,1.6,0.9,2.9c0.4,0,0.6-0.3,0.6-0.7c1.7,1.9,2.8,4.2,4.6,6
		c-1.3,0.6-2.5,1.7-3.7,1.9c-1.7-0.3-3.3-0.8-4.7-1.6c-0.6-0.4-0.5-1.2-1-1.3c0.1-0.3,0.6-0.2,0.6-0.5c-0.8-4.1-3.1-6.8-4.4-10.5
		c0.6,0,0.7-0.4,1.3-0.4c1.3,4,3.1,7.5,4.5,11.3c0.7-2.3-0.5-4.3-1.3-6.1s-1.8-3.7-2.6-5.3c0.3-0.5,1.1-0.5,1.7-0.7
		c1,3.3,2.2,6.4,3.6,9.6c-0.2-3.4-1.3-6.7-3.1-9.6c1.3-0.7,2.8-1,4.1-1.6c0.4,1.2,0.6,2.4,0.6,3.6c-0.3,0.8-0.3-0.4-1.1,0
		c-0.1,1.6,2.2,2,1.9,4.3c0.3,0,0.4-0.3,0.4-0.5C337,207.6,338.1,210.3,340.1,212.3z M333.1,210c0.7,1.5,1.9,2.8,3.4,3.6
		C335.6,212.2,334.4,211,333.1,210z"/>
	<path class="st2" d="M345.7,181.4c-0.5,0.4-3,0.5-2.7-0.6C343.8,181,345.4,180.6,345.7,181.4z"/>
	<path class="st2" d="M344.3,178.1c-0.9,0.2-1.8,0.1-2.6-0.3C342.5,177.4,344,177.5,344.3,178.1z"/>
	<path class="st2" d="M343.5,176.2c-0.8,0.3-1.8,0.1-2.5-0.4C341.9,175.8,342.7,175.9,343.5,176.2z"/>
	<path class="st2" d="M340.9,170.6c-0.4,0.3-1.7,0.4-1.3-0.4c0.3,0,0.6,0,0.7-0.3C340.7,169.9,340.5,170.5,340.9,170.6z"/>
	<path class="st2" d="M330,215.9c-3,0.1-6-0.9-9.3-0.9c0.8-1.1,1.1-2.4,0.9-3.8c-1.3,0.6-1.2,2.7-1.2,3.7c-3.8-0.4-7.3-0.8-11-1.3
		c-0.1-0.5,1.7-2.2,2.5-3c3.5-0.2,6.3-0.9,8.3-2.9c2.4,1.6,4.2,3.8,7.1,4.9C327.4,214,328.8,215.1,330,215.9z M318.7,210.4
		c-1.1,0-0.9,1.3-0.2,1.3C318.5,211,318.9,210.9,318.7,210.4L318.7,210.4z"/>
	<path class="st2" d="M325.5,208.1c-0.1,0.4-0.2,0.2-0.4,0.2c-0.5-0.7-1.2-1.3-2-1.7c0.5-1.7-0.8-2.8-1.5-3.9
		c0.4-0.3,0.8-0.5,1.3-0.6C323.4,204.2,324.3,206.2,325.5,208.1z"/>
	<path class="st2" d="M331.7,170.9c-3,1.1-5.4,0.7-7.9,1.8s-4.5,3.5-6.5,5.2c-3.9,3.4-8.1,6.3-12.5,8.8c-2.4,0.1-4.8,0.7-7,1.8
		c-1.1-2.5,1.4-8.2-0.2-10.2c0.6-0.9,0.4-2.1-0.5-2.7c1.3-3.9,1.1-8.1-0.5-11.9c2.8-1.3,5.7-2.5,8.6-3.5c1.8,1.3,3.7,2.4,5.7,3.2
		c-1.6,0.9-3.5,1.5-5.2,2.4c-0.6,0,0-1.3-0.9-1c-1.6,0.3-1.1,1.6-1.3,2.2c-0.7,0.4-1.4,0.5-2.1,0.5c-0.3,0.7,0.5,0.6,1,0.6
		c-1.3,1.5,0.2,2.4,1.2,2.2c0.9-0.2,1.5-1.1,1.4-2c-0.1-0.4-0.2-0.7-0.5-0.9c2.3-0.3,5.3-3,7.7-3.2c1.3-0.1,3.5,1.4,4.7,1.9
		C321.7,167.8,327.2,169.6,331.7,170.9z M309.8,174.3c0.9-0.5,1.4-1.5,1.1-2.5C309.7,168.8,305.7,176,309.8,174.3L309.8,174.3z
		 M308.9,167.5c-0.6,0.5-0.8,1.4-0.4,2.1C310.2,169.9,311,166.6,308.9,167.5L308.9,167.5z M302.2,176.2c1.8,0.9,3.9,1.4,5.9,1.3
		c0.1-0.1,0.2-0.2,0.2-0.3C306.8,176.5,304.4,175,302.2,176.2L302.2,176.2z M301.9,178c1.8,1.1,3.8,1.6,5.9,1.6
		c0-0.2,0.1-0.3,0.1-0.5C305.7,178.9,304.4,177.4,301.9,178L301.9,178z M302.2,179.9c0.8,0.9,2.8,0.8,4.2,1.1
		C306,179.7,303.7,179.6,302.2,179.9L302.2,179.9z M301.6,182c0.6,1.1,2.4,1,4.1,1c0-0.2,0.1-0.3,0.1-0.5
		C304.6,182.2,303.2,181.5,301.6,182z"/>
	<path class="st2" d="M320.5,205.2c-0.8,0-1.5-0.4-2-1c0.3-0.3,0.9,0,1.3-0.4C319.9,204.3,320.5,204.6,320.5,205.2z"/>
	<path class="st2" d="M319,206.4c-1.5,2.1-4.5,1-6.8,1.9c0.4-1.1,1-2,1.5-3C315.2,205.9,317.3,206,319,206.4z"/>
	<path class="st2" d="M304,159.5c-2.7,1-5.3,2.2-8,3.3C298.2,161.4,301.4,159.3,304,159.5z"/>
	<path class="st2" d="M301.2,158.8c-1.8,1-4.1,1.6-5.9,2.6c-0.6,0-0.5-0.5-0.6-0.9c-0.8,0.3,0.1,0.6,0,1.2
		c-5.3,3.1-10.3,6.3-17.2,7.9c3.4-3.2,8.3-4.5,12.6-6.9c1.3-0.7,2.7-2,3.9-2.5C296.3,159.2,298.7,159.4,301.2,158.8z"/>
	<path class="st2" d="M295,163.2c-1,0.8-2.1,1.3-3.3,1.7C292.7,164.1,293.8,163.6,295,163.2z"/>
	<path class="st2" d="M274.7,207.1c0.4-2.8-0.1-4.8-0.1-7.3C276.7,200,276.5,205.1,274.7,207.1z"/>
	<path class="st2" d="M276.3,198.9c-1.3,0-1.8-1.7-1.8-3.2C276.1,195.4,276.6,197.1,276.3,198.9z"/>
	<path class="st2" d="M276.3,194.1c-0.6,0.3-1.7-1-1.7-2.1C275.6,192.2,276.2,193.1,276.3,194.1z"/>
	<path class="st2" d="M276,190.3c-1.9,0.1-0.2-4.7-0.1-6.4C275.9,186,275.9,188.1,276,190.3z"/>
	<path class="st2" d="M345.5,200.2c-0.4-0.1-1.5-1-1.1-1.9C345,198.7,345.1,199.7,345.5,200.2z"/>
	<path class="st2" d="M339.1,168.6c-4.8,1.3-7.5-0.9-10.5-2.1l-7.3-3C327.3,164.8,333.3,166.5,339.1,168.6z"/>
	<path class="st2" d="M328.4,211.7c-0.8,0.2-1.1-1.3-1.3-2.1C327.6,209.7,327.8,211.2,328.4,211.7z"/>
	<path class="st2" d="M324.4,203.4c0.1,0.2-1-1.3-0.8-1.6C324.2,202,324.2,202.8,324.4,203.4z"/>
	<path class="st2" d="M322.8,206c-0.7,0.4-0.7-0.9-1.3-1.1C322.1,204.7,322.3,205.8,322.8,206z"/>
	<path class="st2" d="M291.5,209.2c-2.2-0.6-2-5-2.5-7.8c-0.5-2.6-1-4.6-1.4-7.1c-1.3,0.5-0.4,2.4-0.3,3.3c0.5,3.1,1.3,6.8,2,9.8
		c-1.7-1.2-1.3-4-1.7-6.2c-0.4-2.1-1-4.1-1.7-6c-1.1,0.9-0.2,2,0,2.8c0.8,2.9,1.3,5.9,1.5,8.9c0.6,0.6,0.3,2.2,0.9,2.8
		c0.5-0.3,0.2-1.1,0.1-1.3c1.5,0.8,2.9,2.9,4.2,4.3c-2.3,0-4.6-1-6.1-2.7c-0.8-0.9-2.2-1.8-2.5-2.7c-0.2-1.1-0.3-2.2-0.3-3.3
		c-0.5-3-1.3-6-1.6-9.1c-1,1.5-0.2,4.2,0.2,6.5c0.4,2.3,1.1,4.1,0.8,6c0.2,0.7,0.9,1,0.7,1.9c0.7-0.3,1,0,1.5,0.7
		c-0.7,0.1-1.8-0.5-2.5-0.6c0.4-5.7-1.8-9.7-1.7-14.8c-0.3-0.3-0.6-0.3-1.1,0c0.1-1.7-0.3-2.9-0.2-4.7c2.3,1.3,5.6,1.6,7.8,2.9
		c0.5-0.2-0.3-0.2,0-0.6c4.9,0.7,11-2.1,16.4-2.3c0.5,1.3,1.8,1.8,2.8,2.5c-0.2,2.1,1.1,2.8,1.8,4.1c-0.1,3.5,2.2,4.7,3.4,7
		c-0.9,2.9-2.7,5-3,8.5c-2,2.5-5,1.5-8.3,1.3c-2.2-0.1-4.2-0.2-5.9-0.3c-1.2-1.7-3.5-2.3-2.9-5.6c0.7,0.2,0.8,1,0.7,1.9
		c0.4,0.2,0.6-0.7,0.3-0.6c0.8,0,1.4,0.6,1.4,1.4c0,0.1,0,0.2,0,0.3c1.1-0.5,1.1,0.6,1.9,0.7c0.3-2.3,0.3-4.6,0-6.9
		c1.3-0.6,1.6,2.9,1.1,4.5c0.7-0.6,0.7-2.2,0.7-2.9c0.9-0.4,1.4,1.7,2.5,2c-0.5-1.5-1.3-3-2.4-4.2c0-3.6-0.8-6.4-0.8-10
		c-0.9,0.3-0.7,1.3-0.8,1.7c-0.3,2.4,1,4.9,0.4,7.1c-1.1,0.5-0.7-1.1-0.8-1.6c-0.2-2-0.6-4.8-1-6.7c-1.2,1.1-0.8,3.1-0.6,4.4
		c0.3,3.8,0.9,8,1.4,11.8c-1.5-0.8-1-3.3-1.2-5.5c-0.3-3.7-1.1-7.4-1.6-10.9c-1.5,0.7-0.7,2.5-0.6,3.5c0.4,3.5,1.1,7.4,1.7,10.6
		c-0.4,0.6-0.9-0.6-1.3-0.8c0-3.7-0.4-7.4-1.3-10.9c-0.2-1.1-0.5-2.1-1-3.1c-0.6,2.2,0.2,4.4,0.5,6.5s0.7,4.5,1,6.6
		c-1.3-3.9-1.6-8.6-2.7-12.6c-1.1,1-0.4,2.4-0.3,3.3c0.5,3,1.3,6.3,1.6,9.4C291,206.9,290.9,208.3,291.5,209.2z M307.2,207.6
		c-0.1-1.8-0.8-3.5-1.9-4.8c-0.6-0.9-1.1-2.3-2.5-2.4c-0.6,0.9,0.4,1.5,0.7,1.9c0.9,1.2,1.6,2.5,2.3,3.9c0.3,0.7,0.5,1.6,1.3,1.9
		C307.2,208.1,307.2,207.9,307.2,207.6z M306,197.3c0.2,0,0.3,0.2,0.3-0.2c-1-1-0.5-3.4-2.1-3.8C304.4,195,305.5,195.8,306,197.3
		L306,197.3z M303.3,208.1c-0.2-1.5-0.8-3-1.9-4.1c-0.7-0.9-1.3-2.1-2.6-2.3c0,1.4,1.1,2.3,1.9,3.4c1,1,1.7,2.2,2.2,3.5
		C303,208.3,303.3,208.3,303.3,208.1L303.3,208.1z M300.7,195.9c-0.2,1.3,2,1.6,2.8,1.3C302.5,196.8,302.6,195.4,300.7,195.9
		L300.7,195.9z M300.5,193.6c0.3,1.3,1.7,1.5,2.8,2.1C303.2,194.2,302.1,193.6,300.5,193.6L300.5,193.6z M284,193.9
		c-1,2.7-0.2,5,0.2,7.3c0.2,1.1,0.4,2.3,0.6,3.4c0.2,1.1,0.5,2.1,1,3.1C286.1,203,285.5,198.3,284,193.9L284,193.9z"/>
	<path class="st2" d="M295.7,178.1c-2-2.3-3.7-4.8-6.4-6.5c-0.2,1,0.9,1.4,1.4,2l1.7,1.9c1.3,1.2,2.3,2.7,2.8,4.4
		c-0.5,0.4-0.8-0.3-1-0.6c-2-2.2-4.2-5.2-7.2-6.5c2.6,3.1,5.5,5.8,7.9,9.1c-0.2,0.5-0.2,1-0.1,1.5c-2.8-2.8-5-6.2-8.4-8.5
		c0.1,1.1,1.1,1.8,1.9,2.6c2.2,2.4,4.4,5.2,6.6,7.6c-0.1,0.9,0.4,1.1,0.1,2.2c-2.6-3.5-5.7-6.7-9.1-9.4c3,4.1,7,7.9,10,11.5
		c-1.3-0.1-2.8,0.8-4.1,0.6c-0.7-0.1-1.7-1.7-2.3-2.3c-2.1-2.5-4.4-4.7-7-6.5c2.2,3.4,6,6,8.1,9l-2.1,0.3c-1-1.5-2.1-2.8-3.3-4
		c-1.1-1.4-2.5-2.6-4.1-3.3c0.1,1.7,2.1,2.5,3.2,3.8c1.2,1.1,2.2,2.4,3.1,3.8c-1.3-0.1-2-1.3-2.8-2.1s-1.4-1.9-2.6-1.9
		c0,1.5,2.1,2.1,2.8,3.4c-1.7,0.2-3.3-0.8-5.4-0.6c-0.1-6.4,0.6-13.4-1.4-18.1c5.7-2.2,11.7-4.1,17-6.7c3,1.4,0.1,8.7,0,12.5
		C295.1,177.7,295.8,177.5,295.7,178.1z M293.3,189.1c0,0.2,0.2,0.1,0.2-0.2c-2.1-3.2-4.7-6.1-7.7-8.6c-0.8-1-2-1.8-3.2-2.1
		C286,182,289.5,185.7,293.3,189.1z M291.7,172.1c-1.4-0.9-2.3-3.9-4.5-3.1c1.3,1.3,2.8,2.5,4.4,3.6
		C291.7,172.4,291.7,172.2,291.7,172.1z"/>
	<path class="st2" d="M282.3,208.5c-0.9,0.7-1.2-1.2-2.1-1.1c-1.2,0.5,0.9,0.9-0.1,1.2c-0.6-0.3-1.2-0.5-1.8-0.6
		c0.2-1.7,0.7-3.1,1-4.7c0.5,0.3,0.4,1.1,0.9,1.3c-0.1-2.5-0.7-4.6-0.3-7.5C280.9,200.7,281.1,205.1,282.3,208.5z"/>
	<path class="st1" d="M294.7,200.1c1.6,0,3.2,0.2,4.7,0.5c0.1-0.3,0.2-0.2,0.4-0.2c0.6,0,1.1,0,1.7,0.1c1,0.2,2,0.5,3.2,0.6
		c2.9,0.3,6,0.4,8.8,0.8c0.6,0.1,1.3,0.1,1.7,0.2c0.3,0.1,0.6,0.2,1,0.4c0.4,0.1,0.6,0.4,1,0.3c0.6-0.2,1.1-0.4,1.7-0.7
		c0.7-0.3,1.3-0.5,1.7-0.7c0.8-0.4,1.5-0.9,2.2-1.5c0.7-0.5,1.8-1.1,1.8-1.9c0-0.1-0.1-0.1-0.1-0.2s-0.1,0-0.1,0
		c0.3-1.6,0.2-3.3-0.2-4.9c-0.1-0.5-0.2-1.1-0.3-1.6c-0.5-1.9-1.2-3.8-2.1-5.6c-0.4-0.9-0.4-2.2-0.9-3c-0.1-0.1-0.3-0.3-0.5-0.5
		s-0.2-0.5-0.3-0.6c-0.6-0.4-1.2-0.7-1.9-0.9c-3.5-1.5-7.7-1.9-11.2-3.4c-1.1-0.4-2.1-0.8-3.2-1.1c-0.4-0.2-0.8-0.2-1.3-0.2
		c-1.2,0.4-2.3,1-3.3,1.7c-1.5,1.1-3,2-4.6,2.8c-0.8,0.2-1.5,0.4-2.2,0.7c-0.3,0.5-0.5,1-0.6,1.5c0,0.3,0.2,0.6,0.2,0.9
		c0,0.8-0.1,1.6-0.2,2.4c-0.3,2.4-0.4,4.7-0.2,7.1c0,1.4,0.1,2.6,0,4.2c0,0.5,0,1,0,1.5c-0.1,0.4-0.7,1-0.4,1.5
		C291.4,200.7,293.8,200.1,294.7,200.1z"/>
	<path class="st2" d="M298.1,197.1c1.1,0,2.2,0.1,3.3,0.4c0.1-0.2,0.2-0.1,0.2-0.1c0.4,0,0.8,0,1.3,0.1c0.7,0.1,1.4,0.3,2.2,0.4
		c2,0.2,4.2,0.3,6.1,0.5c0.4,0.1,0.9,0.1,1.3,0.2s0.4,0.2,0.7,0.3c0.2,0.1,0.4,0.3,0.7,0.2c0.4-0.1,0.8-0.3,1.2-0.5
		c0.4-0.2,0.9-0.4,1.3-0.5c0.5-0.3,1.1-0.6,1.6-1c0.5-0.3,1.3-0.8,1.3-1.3c0,0-0.1,0-0.1-0.1s-0.1,0,0,0c0.2-1.1,0.1-2.3-0.2-3.4
		c-0.1-0.4-0.2-0.8-0.2-1.1c-0.3-1.3-0.8-2.6-1.5-3.9c-0.3-0.6-0.3-1.5-0.6-2.1c0-0.1-0.2-0.2-0.3-0.3c-0.1-0.1-0.1-0.3-0.2-0.4
		c-0.4-0.3-0.9-0.5-1.3-0.7c-2.4-1-5.3-1.3-7.8-2.4c-0.7-0.3-1.5-0.6-2.2-0.8c-0.3-0.1-0.6-0.2-0.9-0.2c-0.8,0.3-1.6,0.7-2.3,1.3
		c-1,0.7-2.1,1.4-3.2,1.9c-0.5,0.1-1,0.3-1.5,0.5c-0.2,0.3-0.3,0.7-0.4,1.1c0,0.2,0.2,0.4,0.2,0.6c0,0.6,0,1.1-0.1,1.7
		c-0.2,1.6-0.2,3.3-0.2,4.9c0,1,0.1,1.8,0,2.9c0,0.3,0,0.7,0,1c-0.1,0.3-0.5,0.7-0.3,1C295.9,197.6,297.4,197.1,298.1,197.1z"/>
</g>
</svg>
