<?xml version="1.0" encoding="utf-8"?>
<!-- Generator: Adobe Illustrator 26.0.1, SVG Export Plug-In . SVG Version: 6.00 Build 0)  -->
<svg version="1.1" id="Слой_1" xmlns="http://www.w3.org/2000/svg" xmlns:xlink="http://www.w3.org/1999/xlink" x="0px" y="0px"
	 viewBox="0 0 400 400" style="enable-background:new 0 0 400 400;" xml:space="preserve">
<style type="text/css">
	.st0{fill:#F8F8F8;}
	.st1{fill:#713F13;}
	.st2{fill:#DE7C29;}
	.st3{fill:#FFFFFF;}
</style>
<rect x="-30.9" y="-21.5" class="st0" width="461.7" height="444.1"/>
<g>
	<g>
		<path class="st1" d="M32.2,39c0-9.8,5.8-13.8,13.6-13.8s12.6,3.6,12.6,9.1v0.4H50v-0.4c0-1.8-1.3-2-4.3-2c-4,0-5.6,0.6-5.6,5.2
			v1.4h0.5c1.2-1.7,3.7-3.2,8.1-3.2c6.6,0,10.1,2.4,10.1,7.9c0,5.4-4.2,8.8-12.4,8.8C36.2,52.4,32.2,48.1,32.2,39z M51.1,43.1
			c0-1.7-0.8-2.3-5.1-2.3c-4.7,0-5.5,0.6-5.5,2.3c0,1.5,0.8,2.2,5.5,2.2C50.3,45.3,51.1,44.6,51.1,43.1z"/>
		<path class="st1" d="M60.6,38.8c0-8.1,4.7-13.6,13.7-13.6S88,30.7,88,38.8s-4.7,13.6-13.7,13.6S60.6,47,60.6,38.8z M80,38.8
			c0-4.9-1.2-6.4-5.7-6.4s-5.7,1.5-5.7,6.4s1.2,6.4,5.7,6.4S80,43.7,80,38.8z"/>
		<path class="st1" d="M95.5,52V32.1h7v6h0.4c0.4-3.3,2.3-6.4,7.3-6.4c4.7,0,7,2.8,7.3,6.4h0.4c0.4-3.3,2.3-6.4,7.5-6.4
			c5.1,0,7.5,3.2,7.5,7.5V52h-7.4V42c0-2.8-0.8-3.6-3.9-3.6c-3,0-3.7,0.8-3.7,3.4V52h-7.4V42c0-2.8-0.8-3.6-3.9-3.6
			c-3,0-3.7,0.8-3.7,3.4V52H95.5z"/>
		<path class="st1" d="M135.1,30.3v-4.7h7.4v4.7H135.1z M135.1,52V32.1h7.4V52H135.1z"/>
		<path class="st1" d="M144.9,52V32.1h7v6h0.4c0.4-3.3,2.6-6.4,7.9-6.4c5.4,0,7.9,3.2,7.9,7.5V52h-7.4V42c0-2.8-1-3.6-4.3-3.6
			s-4.1,0.8-4.1,3.4V52H144.9z"/>
		<path class="st1" d="M170.3,52v-7.6h9.6V52H170.3z"/>
	</g>
	<g>
		<path class="st1" d="M312.7,52V33.9h-7.1v-5h1c2.9,0,5.1-0.6,6.6-3.3h6.9V52H312.7z"/>
		<path class="st1" d="M321.9,52v-4.7c0-4.5,2.1-6.8,7.8-8.7l7.2-2.3c1.7-0.6,2.4-1.1,2.4-2.3c0-1.3-0.5-2.2-4.5-2.2
			c-4.4,0-5.4,1.1-5.4,3.5V36H322v-0.6c0-5.3,3.6-10.2,13-10.2c8.4,0,11.7,3.7,11.7,9.1c0,5-3.3,7.3-8.1,8.5l-5.9,1.5
			c-1.7,0.4-3,0.7-3,2.1l7.4-0.9h9.4V52H321.9z"/>
		<path class="st1" d="M354.8,48.2v-6.3h-6.2v-6.1h6.2v-6.3h6.3v6.3h6.2v6.1h-6.2v6.3H354.8z"/>
	</g>
</g>
<g>
	<g>
		<path class="st2" d="M-17,370.7l16.7-2l16.7-1.9L50,363l67.2-7.4c22.4-2.5,44.8-4.8,67.2-7.3l67.2-7.1l67.2-6.8
			c22.4-2.2,44.8-4.5,67.4-6.7l67.4-6.6l33.6-3.2l16.9-1.6l16.9-1.5l-16.7,2l-16.7,1.9l-33.6,3.8l-67.2,7.4
			c-22.4,2.5-44.8,4.8-67.2,7.3l-67.2,7l-67.2,6.8c-22.4,2.2-44.8,4.5-67.4,6.7l-67.4,6.7l-33.6,3.2l-16.9,1.6L-17,370.7z"/>
		<path class="st2" d="M-41.8,378.8l16.7-2l16.7-1.9l33.6-3.8l67.2-7.4c22.4-2.5,44.8-4.8,67.2-7.3l67.2-7.1l67.2-6.8
			c22.4-2.2,44.8-4.5,67.4-6.7l67.4-6.6l33.6-3.2l16.9-1.6l16.9-1.5l-16.7,2l-16.7,1.9l-33.6,3.8L362,338
			c-22.4,2.5-44.8,4.8-67.2,7.3l-67.2,7l-67.2,6.8c-22.4,2.2-44.8,4.5-67.4,6.7l-67.4,6.8L-8,375.9l-17,1.5L-41.8,378.8z"/>
		<path class="st2" d="M-66.7,387.1l16.7-2l16.7-1.9l33.6-3.8l67.2-7.4c22.4-2.5,44.8-4.8,67.2-7.3l67.2-7.1l67.2-6.8
			c22.4-2.2,44.8-4.5,67.4-6.7l67.4-6.6l33.6-3.2l16.9-1.6l16.9-1.5l-16.7,2l-16.7,1.9l-33.6,3.8l-67.2,7.4
			c-22.4,2.5-44.8,4.8-67.2,7.3l-67.2,7l-67.2,6.8c-22.4,2.2-44.8,4.5-67.4,6.7l-67.4,6.6l-33.6,3.2l-16.9,1.6L-66.7,387.1z"/>
		<path class="st2" d="M-91.4,395.4l16.7-2l16.7-1.9l33.6-3.8l67.4-7.4c22.4-2.5,44.8-4.8,67.2-7.3l67.2-7.1l67.2-6.8
			c22.4-2.2,44.8-4.5,67.4-6.7l67.4-6.6l33.6-3.2l16.9-1.6l16.9-1.5l-16.7,2l-16.7,1.9l-33.6,3.8l-67.2,7.4
			c-22.4,2.5-44.8,4.8-67.2,7.3l-67.2,7l-67.2,6.8c-22.4,2.2-44.8,4.5-67.4,6.7l-67.4,6.6l-33.6,3.2l-16.9,1.6L-91.4,395.4z"/>
		<path class="st2" d="M-68.6,401l16.7-2l16.7-1.9l33.6-3.8l67.2-7.4c22.4-2.5,44.8-4.8,67.2-7.3l67.2-7.1l67.2-6.8
			c22.4-2.2,44.8-4.5,67.4-6.7l67.4-6.6l33.6-3.2l16.9-1.6l16.9-1.5l-16.7,2L436,349l-33.6,3.8l-67.2,7.4
			c-22.4,2.5-44.8,4.8-67.2,7.3l-67.2,7l-67.2,6.8c-22.4,2.2-44.8,4.5-67.4,6.7l-67.4,6.6l-33.8,3.2l-16.9,1.6L-68.6,401z"/>
		<path class="st2" d="M-45.7,406.4l16.7-2l16.7-1.9l33.6-3.8l67.2-7.4c22.4-2.5,44.8-4.8,67.2-7.3l67.2-7.1l67.2-6.8
			c22.4-2.2,44.8-4.5,67.4-6.7l67.4-6.6l33.6-3.2l16.9-1.6l16.9-1.5l-16.7,2l-16.7,1.9l-33.6,3.8l-67.2,7.4
			c-22.4,2.5-44.8,4.8-67.2,7.3l-67.2,7l-67.2,6.8c-22.4,2.2-44.8,4.5-67.4,6.7L21.7,400l-33.6,3.2l-16.9,1.6L-45.7,406.4z"/>
		<path class="st2" d="M-23,411.9l16.7-2l16.7-1.9l33.6-3.8l67.2-7.4c22.4-2.5,44.8-4.8,67.2-7.3l67.2-7.1l67.2-6.8
			c22.4-2.2,44.8-4.5,67.4-6.7l67.4-6.6l33.6-3.2l16.9-1.6L515,356l-16.7,2l-16.7,1.9l-33.6,3.8l-67.2,7.4
			c-22.4,2.5-44.8,4.8-67.2,7.3l-67.2,7l-67.2,6.8c-22.4,2.2-44.8,4.5-67.4,6.7l-67.4,6.6l-33.6,3.2l-16.9,1.6L-23,411.9z"/>
		<path class="st2" d="M-52,423.7l16.7-2l16.7-1.9L15,416l67.2-7.4c22.4-2.5,44.8-4.8,67.2-7.3l67.2-7.1l67.2-6.8
			c22.4-2.2,44.8-4.5,67.4-6.7l67.4-6.6l33.6-3.2l16.9-1.6l16.9-1.5l-16.7,2l-16.7,1.9l-33.6,3.8l-67.2,7.4
			c-22.4,2.5-44.8,4.8-67.2,7.3l-67.2,7l-67.2,6.8c-22.4,2.2-44.8,4.5-67.4,6.7l-67.4,6.7l-33.6,3.2l-16.9,1.6L-52,423.7z"/>
		<path class="st2" d="M-80.9,435.5l16.7-2l16.7-1.9l33.6-3.8l67.2-7.4c22.4-2.5,44.8-4.8,67.2-7.3l67.2-7.1l67.2-6.8
			c22.4-2.2,44.8-4.5,67.4-6.7l67.4-6.6l33.6-3.2l16.9-1.6l16.9-1.5l-16.7,2l-16.7,1.9l-33.6,3.8l-67.2,7.4
			c-22.4,2.5-44.8,4.8-67.2,7.3l-67.2,7l-67.2,6.8c-22.4,2.2-44.8,4.5-67.4,6.7l-67.4,6.6l-33.6,3.2l-16.9,1.6L-80.9,435.5z"/>
		<path class="st2" d="M-110,447.1l16.7-2l16.7-1.9l33.6-3.8l67.2-7.4c22.4-2.5,44.8-4.8,67.2-7.3l67.2-7.1l67.2-6.8
			c22.4-2.2,44.8-4.5,67.4-6.7l67.4-6.6l33.6-3.2l16.9-1.6l16.9-1.5l-16.7,2l-16.7,1.9l-33.6,3.8l-67.2,7.4
			c-22.4,2.5-44.8,4.8-67.2,7.3l-67.2,7l-67.2,6.8c-22.4,2.2-44.8,4.5-67.4,6.7l-67.4,6.6l-33.6,3.3l-16.9,1.6L-110,447.1z"/>
		<path class="st2" d="M-56.2,447.1l16.7-2l16.7-1.9l33.6-3.8L78,432c22.4-2.5,44.8-4.8,67.2-7.3l67.2-7.1l67.2-6.8
			c22.4-2.2,44.8-4.5,67.4-6.7l67.4-6.6l33.6-3.2l16.9-1.6l16.9-1.5l-16.7,2l-16.7,1.9l-33.6,3.8l-67.2,7.4
			c-22.4,2.5-44.8,4.8-67.2,7.3l-67.2,7l-67.2,6.8c-22.4,2.2-44.8,4.5-67.4,6.7l-67.4,6.6l-33.6,3.3l-16.9,1.6L-56.2,447.1z"/>
		<path class="st2" d="M-2.2,447.1l16.7-2l16.7-1.9l33.6-3.8L132,432c22.4-2.5,44.8-4.8,67.2-7.3l67.2-7.1l67.2-6.8
			c22.4-2.2,44.8-4.5,67.4-6.7l67.4-6.6l33.6-3.2l16.9-1.6l16.9-1.5l-16.7,2l-16.7,1.9l-33.6,3.8l-67.2,7.4
			c-22.4,2.5-44.8,4.8-67.2,7.3l-67.2,7l-67.2,6.8c-22.4,2.2-44.8,4.5-67.4,6.7l-67.4,6.6L31.4,444l-16.9,1.6L-2.2,447.1z"/>
		<path class="st2" d="M51.7,447.1l16.7-2l16.7-1.9l33.6-3.8L186,432c22.4-2.5,44.8-4.8,67.2-7.3l67.2-7.1l67.2-6.8
			c22.4-2.2,44.8-4.5,67.4-6.7l67.4-6.6l33.6-3.2l16.9-1.6l16.9-1.5l-16.7,2l-16.7,1.9l-33.6,3.8l-67.2,7.4
			c-22.4,2.5-44.8,4.8-67.2,7.3l-67.2,7l-67.2,6.8c-22.4,2.2-44.8,4.5-67.4,6.7l-67.4,6.6l-33.6,3.2l-16.9,1.6L51.7,447.1z"/>
		<path class="st2" d="M22.6,458.2l16.7-2l16.7-1.9l33.6-3.8l67.2-7.4c22.4-2.5,44.8-4.8,67.2-7.3l67.2-7.1l67.2-6.8
			c22.4-2.2,44.8-4.5,67.4-6.7l67.4-6.6l33.6-3.2l16.9-1.6l16.9-1.5l-16.7,2l-16.7,1.9l-33.6,3.8l-67.2,7.4
			c-22.4,2.5-44.8,4.8-67.2,7.3l-67.2,7l-67.2,6.8c-22.4,2.2-44.8,4.5-67.4,6.7L90,451.8L56.3,455l-16.9,1.6L22.6,458.2z"/>
		<path class="st2" d="M-6.4,469.2l16.7-2l16.7-1.9l33.6-3.8l67.2-7.4c22.4-2.5,44.8-4.8,67.2-7.3l67.2-7.1l67.2-6.8
			c22.4-2.2,44.8-4.5,67.4-6.7l67.4-6.6l33.6-3.2l16.9-1.6l16.9-1.5l-16.7,2l-16.7,1.9l-33.6,3.8l-67.2,7.4
			c-22.4,2.5-44.8,4.8-67.2,7.3l-67.2,7l-67.2,6.8c-22.4,2.2-44.8,4.5-67.4,6.7L61,462.8l-33.6,3.3l-16.9,1.6L-6.4,469.2z"/>
		<path class="st2" d="M66.1,471.3l10.3-1.3l10.3-1.2l20.7-2.3c13.8-1.6,27.7-3.1,41.3-4.5c13.8-1.5,27.7-2.9,41.5-4.4l41.5-4.2
			l41.5-3.9c13.8-1.3,27.7-2.6,41.5-3.8c13.8-1.3,27.7-2.5,41.5-3.6l20.8-1.7l10.3-0.9l10.3-0.7l-10.3,1.3l-10.3,1.2l-20.7,2.3
			c-13.8,1.6-27.7,3.1-41.3,4.5c-13.8,1.5-27.7,2.9-41.5,4.4l-41.5,4.2l-41.5,3.9c-13.8,1.3-27.7,2.6-41.5,3.8
			c-13.8,1.3-27.7,2.5-41.5,3.6l-20.8,1.7l-10.2,0.9L66.1,471.3z"/>
		<path class="st2" d="M117.9,474.8l10.3-1.3l10.3-1.2l20.7-2.3c13.8-1.6,27.7-3.1,41.3-4.5c13.8-1.5,27.7-2.9,41.5-4.4l41.5-4.2
			L325,453c13.8-1.3,27.7-2.6,41.5-3.8c13.8-1.3,27.7-2.5,41.5-3.6l20.8-1.7l10.3-0.9l10.3-0.7l-10.3,1.3l-10.3,1.2l-20.7,2.3
			c-13.8,1.6-27.7,3.1-41.3,4.5c-13.8,1.5-27.7,2.9-41.5,4.4l-41.5,4.2l-41.5,3.9c-13.8,1.3-27.7,2.6-41.5,3.8
			c-13.8,1.3-27.7,2.5-41.5,3.6l-20.8,1.7l-10.3,0.9L117.9,474.8z"/>
	</g>
	<g>
		<g>
			<g>
				<path class="st3" d="M325,257.9l0.1,0.1l4.4,0.3c0,0,0.1,0,0.1-0.1l10-17.5l0.3,0.3c5.1,6.4,10.2,13.1,15.1,19.5
					c1.7,2.3,3.5,4.5,5.2,6.8l10.2,13.2l2,2.6l0.1,0.1l3.3-0.1c0.1,0,0.1,0,0.1-0.1v-0.1L339,234.3l-0.1-0.1l0,0c0,0-0.1,0-0.1,0.1
					L325,257.7C325,257.9,325,257.9,325,257.9z"/>
				<path class="st3" d="M248.6,380.4l1.3-2c2.5-3.9,4.9-8,7.3-11.9l8.4-14.1c2.3-3.9,5.4-9,8.4-14.1l8.4-14.1l4.2-7.1l4.2-7.1
					c6.6-11.1,11.8-20.1,16.4-28.5c0-0.1,0-0.1,0-0.3c0,0,0,0-0.1,0c0,0-0.1,0-0.1,0.1c-5.1,8.2-10.6,17-17.3,27.9l-4.4,7l-4.2,7
					l-8.4,14.1c-3.1,5.1-6.1,10.2-8.4,14.1l-8.4,14.1c-2.3,3.9-4.8,8-7.1,12.1l-1.3,2.2c-1,1.6-1.9,3.3-2.9,4.9
					c-1.6,2.9-3.3,5.8-5.1,8.7l-2.3-2.6c-2.3-2.8-4.9-5.5-7.3-8.2h-0.1h-0.1c-0.1,0-0.1,0.1,0,0.3c2.3,2.8,4.7,5.7,7,8.3l3.1,3.6
					h0.1l0,0c0,0,0.1,0,0.1-0.1l0.1-0.3c1.9-3.1,3.8-6.1,5.5-9C246.6,383.8,247.6,382,248.6,380.4z"/>
				<path class="st3" d="M234.8,374.5c0,0.1,0,0.1,0,0.3c0,0,0,0,0.1,0c0,0,0.1,0,0.1-0.1l18.2-25.6c-0.7,3.8-1.6,7.6-2.5,11.1
					c0,0.1,0,0.1,0.1,0.3l0,0c0.1,0,0.1,0,0.1-0.1c1.7-4.9,3.3-10,4.9-15.1l3.3-4.8l-0.9,6.6c0,0.1,0,0.1,0.1,0.3l0,0
					c0.1,0,0.1,0,0.1-0.1l3.2-10l3.8-5.4l-1.3,7.7c0,0.1,0,0.1,0.1,0.3l0,0c0.1,0,0.1,0,0.1-0.1l3.5-11.5l4.8-6.7l-1.5,9.2
					c0,0.1,0,0.1,0.1,0.3l0,0c0.1,0,0.1,0,0.1-0.1l3.8-12.8l0,0l5.4-7.6c-0.4,2.9-0.9,5.8-1.2,8.6c0,0.1,0,0.1,0.1,0.1l0,0
					c0.1,0,0.1,0,0.1-0.1c1-4.1,2.3-8.4,3.6-12.5l3.6-5.1l-1.3,8.6c0,0.1,0,0.1,0.1,0.3l0,0c0.1,0,0.1,0,0.1-0.1l3.8-12.8l3.3-4.8
					l-0.7,5.5c0,0.1,0,0.1,0.1,0.1l0,0c0.1,0,0.1,0,0.1-0.1l3.1-9.3l29.7-41.8l0.9-1.6c0-0.1,0-0.1,0-0.3h-0.1h-0.1l-14.1,16.2v0.1
					l0.7,2.2l-1.5-1.2h-0.1h-0.1l-2.3,2.5v0.1l0.7,2.3l-1.6-1.3h0.6h-0.1l-2.2,2.5v0.1l0.9,2.6l-1.7-1.5h-0.1h-0.1l-2.2,2.3v0.1
					l1,2.8l-1.9-1.6h-0.1h-0.1l-2.2,2.3v0.1l1.2,2.9l-2-1.7H298h-0.1l-2.2,2.3v0.1l1.2,3.2l-2.2-1.9h-0.1h-0.1l-2,2.3v0.1l1.3,3.3
					l-2.3-2.2h-0.1H291l-2,2.3v0.1l1.5,3.6L288,288h-0.1h-0.1l-2,2.2v0.1l1.6,3.8l-2.6-2.5h-0.1l0,0h-0.1l-2,2.2v0.1l1.7,3.9
					l-2.8-2.6h-0.1l0,0h-0.1l-2,2.2v0.1l1.9,4.2l-2.9-2.8h-0.1l0,0h-0.1l-2,2.2v0.1l2,4.4l-3.1-3.1h-0.1l0,0h-0.1l-2,2.2v0.1l2,4.5
					l-3.2-3.2h-0.1l0,0h-0.1l-1.9,2.2v0.1l2.2,4.8l-3.3-3.3h-0.1l0,0h-0.1l-1.9,2.2v0.1l2.3,4.9l-3.5-3.5H265l0,0h-1l-1.9,2v0.1
					l2.5,5.1l-3.6-3.6h-0.1l0,0h-0.1l-1.9,2c0,0,0,0.1,0,0.3l2.6,5.2l-3.8-3.9h-0.1l0,0h-0.1l-1.9,2c0,0,0,0.1,0,0.3l2.8,5.5
					l-3.9-4.1h-0.1l0,0H254l-1.9,2c0,0,0,0.1,0,0.3l2.9,5.7l-4.1-4.2h-0.1l0,0h-0.1l-1.9,2c0,0,0,0.1,0,0.3l3.1,5.8l-4.2-4.4h-0.1
					l0,0h-0.1l-1.9,2c0,0,0,0.1,0,0.3l3.2,6.1l-4.4-4.5h-0.1l0,0H244l-1.9,2c0,0,0,0.1,0,0.3l3.2,6.3l-4.5-4.8h-0.1l0,0h-0.1l-1.9,2
					c0,0,0,0.1,0,0.3l3.3,6.4l-4.7-4.9h-0.1l0,0H237l-1.9,2c0,0,0,0.1,0,0.3l3.5,6.7l-4.8-5.1h-0.1l0,0h-0.1l-1.9,2c0,0,0,0.1,0,0.3
					l3.6,6.8l-4.9-5.2h-0.1l0,0H230l-1.9,2c0,0,0,0.1,0,0.3l3.8,7l-5.1-5.5h-0.1l0,0h-0.1l-1.7,2c0,0,0,0.1,0,0.3l3.9,7.1l-5.2-5.7
					h-0.1l0,0h-0.1l-1.7,2c0,0,0,0.1,0,0.3l4.1,7.4l-5.4-5.8h-0.1h-0.1l-1.3,1.5c0,0,0,0.1,0,0.3l8.4,10.9l0.1,0.1l0,0h0.1
					l22.1-24.9L234.8,374.5z"/>
				<path class="st3" d="M394.9,312.3v0.1l6,8c2.6,3.5,5.2,6.8,7.7,10.3l0.1,0.1l3.5-0.1h0.3c0.1,0,0.1,0,0.1-0.1v-0.1l-14-18.2
					l-0.1-0.1H395C395.1,312.2,394.9,312.2,394.9,312.3z"/>
				<path class="st3" d="M373.8,284.5v0.1l6.4,8.4l0.1,0.1l3.3-0.1c0.1,0,0.1,0,0.1-0.1v-0.1l-6.3-8.2l-0.1-0.1l-3.5-0.1
					C373.9,284.5,373.9,284.5,373.8,284.5z"/>
				<path class="st3" d="M381.4,294.4v0.1l6.1,8l0.1,0.1l3.3-0.1c0.1,0,0.1,0,0.1-0.1v-0.1l-6-7.7l-0.1-0.1L381.4,294.4
					C381.5,294.3,381.4,294.3,381.4,294.4z"/>
				<path class="st3" d="M388.6,304v0.1l2.2,2.9l3.1,4.1l0.1,0.1h3.5c0.1,0,0.1,0,0.1-0.1V311l-5.2-6.8l-0.1-0.1l-3.5-0.1
					C388.8,303.9,388.6,303.9,388.6,304z"/>
				<path class="st3" d="M464,397.5l-49.8-65.1l-0.1-0.1h-1.7h-2c-0.1,0-0.1,0-0.1,0.1v0.1c1.3,1.7,2.6,3.5,3.9,5.2
					c-1.5-1.7-2.8-3.5-4.2-5.4l-0.1-0.1h-2.6l-10.9-0.1c0,0-0.1,0-0.1,0.1v0.1c1,2.8,2.2,5.4,3.3,8.2c-1.5-2.8-2.9-5.5-4.4-8.3
					l-0.1-0.1l-19.8-0.3l-26.5-0.4l26.5-0.1l21.4-0.1l10.6-0.1h1.2c0.1,0,0.1,0,0.1-0.1v-0.1c-2.6-3.2-5.1-6.6-7.7-9.8l-6.7-8.6
					l-0.1-0.1l-52.4-0.4l41.5-0.3c0,0,0.1,0,0.1-0.1v-0.1l-1.2-3.8l2.2,3.9l0.1,0.1h8.6c0.1,0,0.1,0,0.1-0.1v-0.1l-2.6-3.3l-2.9-3.6
					l-0.1-0.1l-16-0.6l14.8-0.6c0.1,0,0.1,0,0.1-0.1v-0.1l-6.3-8.2l-0.1-0.1l-7.3-0.3h-0.1v0.1l0.6,3.3l-1.6-3.3V294
					c0-0.1-0.1-0.1-0.1-0.1l-5.2-0.1l12.8-0.4c0.1,0,0.1,0,0.1-0.1V293l-6.6-8.6l-0.1-0.1l-13.4-0.4l12.4-0.4c0.1,0,0.1,0,0.1-0.1
					v-0.1l-1.5-1.9l-10.2-13.2c-1.7-2.3-3.5-4.5-5.2-6.8c-4.8-6.3-9.8-12.7-14.6-19.1l-0.1-0.1l0,0c0,0-0.1,0-0.1,0.1l-9.6,16v0.1
					l0.1,0.1l4.5,0.3l-5.1,0.3c0,0-0.1,0-0.1,0.1l-3.1,5.1l2.8-4.8v-0.1l-0.1-0.1l-4.8,0.3c0,0-0.1,0-0.1,0.1l-3.8,6.6v0.1l0.1,0.1
					l4.5,0.3c0,0,0.1,0,0.1-0.1l0,0l0,0l0.1,0.1l4.9,0.3l-5.5,0.3c0,0-0.1,0-0.1,0.1l0,0l-0.1-0.1l-4.9,0.3c0,0-0.1,0-0.1,0.1
					l-4.1,7v0.1l0.1,0.1l18.3,0.7l-19.4,0.7c0,0-0.1,0-0.1,0.1l-70.2,119.8v0.1l0.1,0.1L464,398c0.1,0,0.1,0,0.1-0.1
					C464,397.6,464,397.5,464,397.5z M319.9,320.9c7.1-0.1,14.1-0.1,20.8-0.1c6.6,0,13.7,0,20.8,0.1c5.1,0,10.2,0.1,15.3,0.3
					c-4.7,0.1-9.5,0.3-14.3,0.3h-0.1v0.1l0.4,5.7l-1.5-5.7c0-0.1-0.1-0.1-0.1-0.1l0,0c-5.8,0.1-11.4,0.1-16.2,0.1h0v0.1
					c0.1,1.7,0.1,3.6,0.1,5.4c-0.3-1.7-0.6-3.6-1-5.4c0-0.1-0.1-0.1-0.1-0.1h-3c-6.7,0-13.7,0-20.8-0.1c-5.1,0-10.2-0.1-15.1-0.3
					C309.9,321.1,315,320.9,319.9,320.9z M433.8,394.7l-3.9-5.4l-0.1-0.1c0,0,0,0-0.1,0s-0.1,0.1-0.1,0.3l2.5,5.1l-81.1-0.3
					l-0.3-7.1c0-0.1-0.1-0.1-0.1-0.1l0,0c-0.1,0-0.1,0.1-0.1,0.1l-0.9,7.1l-49.6-0.1l0.9-5.8c0-0.1,0-0.1-0.1-0.1l0,0
					c-0.1,0-0.1,0-0.1,0.1l-2,5.8l-50.5-0.1l49.1-84.1l-12.4,29.3l-1.7,3.5v0.1l0.1,0.1l38.3,0.6c0.1,0,0.1,0,0.1-0.1l1.7-5.2
					l-0.9,5.1v0.1h0.1l55.5,0.9l-36.7,0.6c-0.1,0-0.1,0-0.1,0.1l-0.7,4.1v-3.9c0-0.1-0.1-0.1-0.1-0.1l-37.1,0.6
					c-0.1,0-0.1,0-0.1,0.1c-0.6,1.2-1.2,2.5-1.6,3.6c0.3-1.2,0.6-2.3,0.9-3.5v-0.1l-0.1-0.1l-20.5,0.3c0,0-0.1,0-0.1,0.1l-22.1,43.7
					c0,0.1,0,0.1,0.1,0.3c0,0,0,0,0.1,0c0,0,0.1,0,0.1-0.1l15-25.6l15-0.1c-1,3.2-2,6.4-3.2,9.6c0,0.1,0,0.1,0.1,0.3c0,0,0,0,0.1,0
					c0,0,0.1,0,0.1-0.1c1.6-3.2,3.1-6.4,4.5-9.8l35.2-0.3l-0.6,4.7c0,0.1,0,0.1,0.1,0.1l0,0c0.1,0,0.1,0,0.1-0.1l1.7-4.7l57.5-0.6
					c0.1,0,0.1-0.1,0.1-0.1c0-0.1-0.1-0.1-0.1-0.1l-109.6-1l4.5-7.9h147.5l13.7,17.3L306.1,372c-0.1,0-0.1,0.1-0.1,0.1
					c0,0.1,0.1,0.1,0.1,0.1l104.1,0.6l5.8,8.7l0.1,0.1c0,0,0,0,0.1,0s0.1-0.1,0.1-0.3l-4.2-8.6l30.6,0.1l8.2,10.3l-70.9,0.4
					c-0.1-1.9-0.4-3.6-0.7-5.4c0-0.1-0.1-0.1-0.1-0.1l0,0c-0.1,0-0.1,0.1-0.1,0.1c0,1.7-0.1,3.5-0.4,5.4l-105.4,0.6
					c-0.1,0-0.1,0.1-0.1,0.1c0,0.1,0.1,0.1,0.1,0.1l179.8,1l7,8.9L433.8,394.7z"/>
			</g>
			<g>
				<path class="st2" d="M382.4,282.9h-0.3l-43.8-57.2L210.8,364.9l28.1,36.1l234.8,1.5l-91.3-119.2L382.4,282.9L382.4,282.9z
					 M339,234.4l37.3,48.6l-3.3,0.1l-2-2.6l-10.2-13.2c-6.8-8.7-13.5-17.6-20.4-26.3l-0.4-0.6l-0.3,0.6l-9.5,16.4
					c-0.1,0.1-0.1,0.4-0.3,0.6l-4.4-0.3L339,234.4z M329,259.2c-1.3,2.3-2.6,4.7-4.1,7l-4.5-0.3l3.8-6.6L329,259.2z M217,365.2
					l1.3-1.5l6.4,7l-4.8-8.7l1.7-2l6.3,6.8l-4.7-8.6l1.7-2l6.1,6.6l-4.5-8.3l1.9-2l6,6.4l-4.4-8.2l1.9-2l5.8,6.3l-4.1-8l1.9-2l5.7,6
					l-4.1-7.7l1.9-2l5.5,5.8l-3.9-7.4l1.9-2l5.4,5.5l-3.8-7.3l1.9-2l5.1,5.4l-3.6-7l1.9-2l4.9,5.1l-3.5-6.8l1.9-2l4.8,4.9l-3.3-6.6
					l1.9-2l4.7,4.7l-3.2-6.4l1.9-2l4.5,4.5l-3.1-6.1l1.9-2l4.4,4.4l-2.9-6l1.9-2.2l4.2,4.1l-2.8-5.7l1.9-2.2l4.1,3.9l-2.6-5.5l2-2.2
					l3.8,3.6l-2.3-5.2l2-2.2l3.6,3.5l-2.2-5.1l2-2.2l3.5,3.3l-2-4.8l2-2.2l3.3,3.1l-1.9-4.7l2-2.2l3.2,2.9l-1.7-4.4l2-2.3l3.1,2.6
					l-1.6-4.2l2-2.3l2.9,2.5l-1.5-3.9l2.2-2.3l2.6,2.3l-1.5-3.6l2.2-2.3l2.5,2l-1.3-3.5l2.2-2.3l2.3,1.9l-1.2-3.2l2.2-2.5l2.2,1.7
					l-1-3.1l2.3-2.5l2,1.5l-0.9-2.8l14.7-16l-0.9,1.6l-29.7,41.8l-3.1,9.5l0.9-6.3l-3.8,5.4l-3.8,12.8l1.3-9.5l-4.1,5.8
					c-1.3,4.2-2.6,8.4-3.6,12.7c0.4-3.1,0.9-6.3,1.3-9.3l-5.8,8.2v0.1l-1.2,4.2l-2.5,8.4l1.5-8.7l0.1-1.3l-5.2,7.3l-3.6,11.5
					l1.5-8.6l-4.2,6l-3.3,10.2l1.2-7.3l-3.9,5.5c-1.6,5.1-3.2,10.2-4.9,15.1c1-3.9,1.9-8,2.6-11.9l-18.8,26.3l13.8-24.9l-23.3,26.2
					L217,365.2z M239.6,394.7l-0.3-0.3c-3.2-3.9-6.6-7.7-9.8-11.6c3.3,3.6,6.6,7.4,9.9,11.1c2.6-4.7,5.4-9.3,8.2-13.8
					c2.8-4.8,5.5-9.5,8.3-14.3l8.4-14.1c2.8-4.7,5.7-9.5,8.4-14.1l8.4-14.1l4.2-7l4.4-7c5.7-9.3,11.5-18.8,17.3-27.9
					c-5.4,9.6-10.9,19.1-16.4,28.5l-4.2,7.1l-4.2,7.1l-8.4,14.1c-2.8,4.7-5.7,9.5-8.4,14.1l-8.4,14.1c-2.8,4.7-5.7,9.3-8.6,14.1
					c-2.9,4.7-5.7,9.3-8.6,14L239.6,394.7z M463.9,397.5L244.3,396l70.2-119.8l24.9-0.9l-23.9-0.9l4.1-7l4.9-0.3
					c-1.3,2.3-2.6,4.5-3.9,6.8c1.5-2.3,2.8-4.5,4.2-6.8l8.7-0.6l-8.2-0.4c1.5-2.3,2.9-4.8,4.4-7.1l8.3-0.4l-7.7-0.4
					c0-0.1,0.1-0.1,0.1-0.3l9.5-15.7c6.6,8.7,13.1,17.3,19.8,25.9l10.2,13.2l1.5,1.9l-17.9,0.6l18.9,0.7l6.6,8.6l-18.2,0.6l10.8,0.4
					h-0.1l2.3,4.9l-0.9-4.9l7.3,0.3l0.1,0.1l6.1,8l-20.4,0.7l21.5,0.7l2.9,3.6l2.6,3.3h-8.6l-3.1-5.5l1.6,5.5l-65.1,0.6l76,0.6
					l6.7,8.6c2.6,3.3,5.1,6.6,7.7,9.8H407l-10.6,0.1l-21.4,0.1l-42.6,0.3l42.6,0.7l19.8,0.3c1.9,3.9,4.1,7.9,6.3,11.6
					c-1.7-3.8-3.3-7.7-4.9-11.6h0.1l10.6,0.1h2.6c3.8,4.8,7.7,9.8,11.5,14.6c-3.6-4.8-7.1-9.6-10.8-14.6h2h1.7L463.9,397.5z
					 M412.5,330.5h-0.3l-3.5,0.1c-2.6-3.5-5.1-6.8-7.7-10.3l-6-8h3.5L412.5,330.5z M397.7,311h-3.5l-3.1-4.1l-2.2-2.9l3.5,0.1
					L397.7,311z M391,302.4l-3.3,0.1l-6.1-8l3.5,0.1L391,302.4z M383.7,293l-3.3,0.1l-6.4-8.4l3.5,0.1L383.7,293z"/>
				<path class="st2" d="M275.1,362.1l110,1l-57.6,0.6l-1.7,4.8l0.6-4.8l-35.7,0.3c-1.5,3.3-2.9,6.6-4.5,9.9
					c1.2-3.2,2.2-6.6,3.2-9.8l-15.4,0.1l-15,25.6l22.1-43.7h3.3l17.2-0.3c-0.4,1.9-0.9,3.8-1.3,5.7c0.7-1.9,1.5-3.8,2.5-5.7
					l37.1-0.6l0.1,6l1-6.1l49.3-0.7l-68-1l1.3-7.4l-2.6,7.4l-34.8-0.6h-3.5l1.7-3.5l13.5-32l-50.8,87l51.1,0.1l2-6l-0.9,6l50.1,0.1
					l0.9-7.3l0.3,7.3l81.5,0.3l-2.6-5.4l3.9,5.4l26.5,0.1l-7.3-9.2l-179.8-1l105.5-0.6c0.1-1.9,0.3-3.6,0.4-5.5
					c0.3,1.9,0.6,3.6,0.7,5.5l71.5-0.4l-8.4-10.8l-31-0.1l4.4,8.9l-6-8.9L306,372.4l135.7-0.7l-14-17.8c-50.5,0-135.5,0-147.7,0
					L275.1,362.1z"/>
				<path class="st2" d="M340.8,321.9c1,0,1.9,0,2.9,0c0.6,2.6,1.2,5.1,1.3,7.9c0.1-2.6,0.1-5.2-0.1-7.9c5.4,0,10.8,0,16.2-0.1l2,8
					l-0.6-8c6.6-0.1,13.2-0.3,19.8-0.6c-7-0.3-13.8-0.4-20.8-0.6s-13.8-0.1-20.8-0.1s-13.8,0-20.8,0.1s-13.8,0.3-20.8,0.6
					c7,0.3,13.8,0.4,20.8,0.6C326.9,321.9,333.9,321.9,340.8,321.9z"/>
			</g>
		</g>
		<g>
			<g>
				<path class="st3" d="M196.8,252.5l0.1,0.1l5.2,0.3c0.1,0,0.1,0,0.1-0.1l11.9-20.8l0.3,0.4c6.1,7.7,12.1,15.6,18,23.1
					c2,2.8,4.2,5.4,6.3,8.2l12.1,15.7l2.5,3.2l0.1,0.1l3.9-0.1c0.1,0,0.1,0,0.1-0.1s0-0.1,0-0.3L213,224.3l-0.1-0.1l0,0
					c-0.1,0-0.1,0-0.1,0.1l-16.3,27.8C196.8,252.3,196.8,252.5,196.8,252.5z"/>
				<path class="st3" d="M105.8,398.3l1.5-2.5c2.9-4.7,5.8-9.5,8.7-14.3l10.2-16.7c2.8-4.7,6.4-10.6,10-16.9l10-16.9l4.9-8.4
					l4.9-8.4c7.7-13.2,14-24,19.7-33.9c0-0.1,0-0.3-0.1-0.3h-0.1c-0.1,0-0.1,0-0.1,0.1c-6.1,9.8-12.7,20.4-20.7,33.3l-5.1,8.3
					l-5.1,8.4L134.4,347c-3.6,6.1-7.3,12.2-10,16.9l-10,16.9c-2.9,4.8-5.7,9.6-8.4,14.3l-1.5,2.6c-1.2,2-2.3,3.9-3.5,6
					c-2,3.3-4.1,6.8-6,10.3l-2.8-3.1c-2.9-3.2-5.8-6.6-8.7-9.8l-0.1-0.1h-0.1c-0.1,0.1-0.1,0.3,0,0.3c2.8,3.3,5.5,6.7,8.3,9.9
					l3.6,4.4l0.1,0.1l0,0c0.1,0,0.1,0,0.1-0.1l0.3-0.4c2.2-3.6,4.5-7.3,6.7-10.8C103.5,402.3,104.7,400.2,105.8,398.3z"/>
				<path class="st3" d="M89.4,391.4c0,0.1,0,0.3,0.1,0.3h0.1c0,0,0.1,0,0.1-0.1l21.7-30.4c-0.9,4.5-1.9,9-2.9,13.1
					c0,0.1,0,0.3,0.1,0.3l0,0c0.1,0,0.1,0,0.3-0.1c2-5.8,4.1-11.9,5.8-18l4.1-5.7l-1.3,7.6c0,0.1,0,0.3,0.1,0.3l0,0
					c0.1,0,0.1,0,0.3-0.1l3.9-11.9l4.5-6.4l-1.6,9.2c0,0.1,0,0.3,0.1,0.3l0,0c0.1,0,0.1,0,0.3-0.1l4.2-13.7l5.7-7.9l-1.7,10.9
					c0,0.1,0,0.3,0.1,0.3l0,0c0.1,0,0.1,0,0.3-0.1l4.4-15.3l0,0l6.4-9c-0.6,3.5-1,7-1.5,10.2c0,0.1,0,0.3,0.1,0.3l0,0
					c0.1,0,0.1,0,0.3-0.1c1.3-4.9,2.8-10,4.4-15l4.4-6.1l-1.5,10.3c0,0.1,0,0.3,0.1,0.3l0,0c0.1,0,0.1,0,0.3-0.1l4.5-15.1l4.1-5.7
					l-0.9,6.6c0,0.1,0,0.3,0.1,0.3l0,0c0.1,0,0.1,0,0.3-0.1l3.6-11.2l35.4-49.6l1-1.9c0-0.1,0-0.3,0-0.3h-0.1c0,0-0.1,0-0.1,0.1
					l-17.5,19.1c0,0-0.1,0.1,0,0.3l0.7,2.6l-1.7-1.3h-0.1c0,0-0.1,0-0.1,0.1l-2.8,2.9c0,0-0.1,0.1,0,0.3l0.9,2.8l-1.9-1.6h-0.1
					c0,0-0.1,0-0.1,0.1l-2.6,2.9c0,0-0.1,0.1,0,0.3l1,3.1l-2.2-1.7h-0.1c0,0-0.1,0-0.1,0.1l-2.6,2.9c0,0-0.1,0.1,0,0.3l1.2,3.3
					l-2.3-1.9h-0.1c0,0-0.1,0-0.1,0.1l-2.6,2.8c0,0-0.1,0.1,0,0.3l1.3,3.5l-2.5-2.2h-0.1c0,0-0.1,0-0.1,0.1l-2.5,2.8
					c0,0-0.1,0.1,0,0.3l1.5,3.8l-2.6-2.3h-0.1c0,0-0.1,0-0.1,0.1l-2.5,2.8c0,0-0.1,0.1,0,0.3l1.6,4.1l-2.9-2.5h-0.1
					c0,0-0.1,0-0.1,0.1l-2.5,2.8c0,0-0.1,0.1,0,0.3l1.7,4.2l-3.1-2.8h-0.1c0,0-0.1,0-0.1,0.1l-2.5,2.6c0,0-0.1,0.1,0,0.3l1.9,4.5
					l-3.2-2.9h-0.1l0,0c0,0-0.1,0-0.1,0.1l-2.5,2.6c0,0-0.1,0.1,0,0.3l2,4.7l-3.3-3.2h-0.1l0,0c0,0-0.1,0-0.1,0.1l-2.3,2.6
					c0,0-0.1,0.1,0,0.3l2.2,4.9l-3.5-3.3h-0.1l0,0c0,0-0.1,0-0.1,0.1l-2.3,2.6c0,0-0.1,0.1,0,0.3l2.3,5.2l-3.6-3.5H137l0,0
					c0,0-0.1,0-0.1,0.1l-2.3,2.6c0,0-0.1,0.1,0,0.3l2.5,5.4l-3.9-3.8h-0.1l0,0c0,0-0.1,0-0.1,0.1l-2.3,2.5c0,0-0.1,0.1,0,0.3
					l2.6,5.7l-4.1-3.9h-0.1l0,0c0,0-0.1,0-0.1,0.1l-2.3,2.5c0,0-0.1,0.1,0,0.3l2.8,5.8l-4.2-4.2H124l0,0c0,0-0.1,0-0.1,0.1l-2.3,2.5
					c0,0-0.1,0.1,0,0.3l2.9,6.1l-4.4-4.4H120l0,0c0,0-0.1,0-0.1,0.1l-2.3,2.5c0,0-0.1,0.1,0,0.3l3.1,6.3l-4.5-4.7h-0.1l0,0
					c0,0-0.1,0-0.1,0.1l-2.3,2.5c0,0-0.1,0.1,0,0.3l3.2,6.6l-4.7-4.8h-0.1l0,0c0,0-0.1,0-0.1,0.1l-2.2,2.5c0,0-0.1,0.1,0,0.3
					l3.5,6.8l-4.9-5.1h-0.1l0,0c0,0-0.1,0-0.1,0.1l-2.2,2.5c0,0-0.1,0.1,0,0.3l3.6,7l-6.4-8.9h-0.1l0,0c0,0-0.1,0-0.1,0.1l-2.2,2.5
					c0,0-0.1,0.1,0,0.3l3.8,7.3l-5.2-5.4h-0.1l0,0c0,0-0.1,0-0.1,0.1L97,350c0,0-0.1,0.1,0,0.3l3.9,7.4l-5.4-5.7h-0.1l0,0
					c0,0-0.1,0-0.1,0.1l-2.2,2.3c0,0-0.1,0.1,0,0.3l4.1,7.7l-5.5-5.8l-0.1-0.1l0,0c0,0-0.1,0-0.1,0.1l-2.2,2.3c0,0.1-0.1,0.1,0,0.3
					l4.2,7.9l-5.7-6.1l-0.1-0.1l0,0c0,0-0.1,0-0.1,0.1l-2.2,2.3c0,0.1-0.1,0.1,0,0.3l4.4,8.2l-5.8-6.3l-0.1-0.1l0,0
					c0,0-0.1,0-0.1,0.1l-2.2,2.3c0,0.1-0.1,0.1,0,0.3l4.5,8.3l-6.1-6.6l-0.1-0.1l0,0c0,0-0.1,0-0.1,0.1l-2.2,2.3
					c0,0.1-0.1,0.1,0,0.3l4.7,8.6l-6.3-6.7l-0.1-0.1l0,0c0,0-0.1,0-0.1,0.1l-2.2,2.3c0,0.1-0.1,0.1,0,0.3l4.8,8.7l-6.4-7l-0.1-0.1
					c0,0-0.1,0-0.1,0.1l-1.6,1.7c-0.1,0.1-0.1,0.1,0,0.3l10,13l0.1,0.1l0,0c0,0,0.1,0,0.1-0.1l26.3-29.7L89.4,391.4z"/>
				<path class="st3" d="M279.9,317.1c0,0.1,0,0.1,0,0.3l7.1,9.5c3.1,4.1,6.1,8.2,9.2,12.2l0.1,0.1l4.1-0.1h0.3c0.1,0,0.1,0,0.1-0.1
					s0-0.1,0-0.3L284.3,317l-0.1-0.1H280C280.1,317.1,280.1,317.1,279.9,317.1z"/>
				<path class="st3" d="M254.9,284.2c0,0.1,0,0.1,0,0.3l7.6,10l0.1,0.1l3.9-0.1c0.1,0,0.1,0,0.1-0.1s0-0.1,0-0.3l-7.4-9.8l-0.1-0.1
					l-4.1-0.1C255,284.1,254.9,284.1,254.9,284.2z"/>
				<path class="st3" d="M263.8,296c0,0.1,0,0.1,0,0.3l7.3,9.5l0.1,0.1l3.9-0.1c0.1,0,0.1,0,0.1-0.1s0-0.1,0-0.3l-7-9.2l-0.1-0.1
					L263.8,296C263.9,295.9,263.9,295.9,263.8,296z"/>
				<path class="st3" d="M272.5,307.4c0,0.1,0,0.1,0,0.3l2.6,3.5l3.6,4.8l0.1,0.1h4.1c0.1,0,0.1,0,0.1-0.1s0-0.1,0-0.3l-6.3-8.2
					l-0.1-0.1l-4.2-0.1C272.6,307.2,272.6,307.2,272.5,307.4z"/>
				<path class="st3" d="M362.2,418.6L303,341.2l-0.1-0.1h-2h-2.5c-0.1,0-0.1,0-0.1,0.1s0,0.1,0,0.3c1.6,2,3.1,4.1,4.7,6.1
					c-1.6-2-3.3-4.2-5.1-6.4l-0.1-0.1h-3.1l-13-0.1c-0.1,0-0.1,0-0.1,0.1v0.1c1.2,3.2,2.5,6.6,3.9,9.6c-1.7-3.2-3.5-6.6-5.2-9.9
					c0-0.1-0.1-0.1-0.1-0.1l-23.6-0.3l-31.6-0.6l31.6-0.1l25.3-0.3l12.7-0.1h1.3c0.1,0,0.1,0,0.1-0.1s0-0.1,0-0.3
					c-3.1-3.9-6.1-7.7-9.2-11.6l-7.9-10.2l-0.1-0.1l-62.3-0.6l49.3-0.4c0.1,0,0.1,0,0.1-0.1v-0.1l-1.3-4.5l2.5,4.7
					c0,0.1,0.1,0.1,0.1,0.1l10.2-0.1c0.1,0,0.1,0,0.1-0.1s0-0.1,0-0.3l-3.1-3.9l-3.3-4.4l-0.1-0.1l-19.1-0.7l17.8-0.6
					c0.1,0,0.1,0,0.1-0.1s0-0.1,0-0.3l-7.4-9.6l-0.1-0.1l-8.7-0.3c0,0-0.1,0-0.1,0.1v0.1l0.7,4.1l-1.9-4.1v-0.1
					c0-0.1-0.1-0.1-0.3-0.1l-6.3-0.3l15.1-0.6c0.1,0,0.1,0,0.1-0.1s0-0.1,0-0.3l-7.9-10.2l-0.1-0.1l-16-0.6l14.8-0.6
					c0.1,0,0.1,0,0.1-0.1s0-0.1,0-0.3l-1.7-2.3L238,263.7c-2-2.8-4.1-5.4-6.3-8.2c-5.7-7.4-11.5-15.1-17.3-22.7l-0.1-0.1l0,0
					c-0.1,0-0.1,0-0.1,0.1l-11.5,19.1c0,0,0,0.1,0,0.3l0.1,0.1l5.4,0.3l-6.1,0.4c-0.1,0-0.1,0-0.1,0.1l-3.6,6l3.2-5.7
					c0-0.1,0-0.1,0-0.3l-0.1-0.1l-5.7,0.3c-0.1,0-0.1,0-0.1,0.1l-4.5,7.7c0,0,0,0.1,0,0.3l0.1,0.1l5.4,0.3c0.1,0,0.1,0,0.1-0.1l0,0
					l0,0l0.1,0.1l5.8,0.3l-6.6,0.4c-0.1,0-0.1,0-0.1,0.1l0,0l-0.1-0.1L190,263c-0.1,0-0.1,0-0.1,0.1l-4.8,8.3c0,0,0,0.1,0,0.3
					l0.1,0.1l21.8,0.7l-23.1,0.9c-0.1,0-0.1,0-0.1,0.1l-83.6,142.6c0,0,0,0.1,0,0.3l0.1,0.1l261.4,1.7c0.1,0,0.1,0,0.1-0.1
					S362.3,418.6,362.2,418.6z M190.8,327.5c8.4-0.1,16.9-0.1,24.7-0.1c7.9,0,16.3,0,24.7,0.1c6,0.1,12.1,0.1,18,0.4
					c-5.5,0.1-11.2,0.3-16.9,0.4c0,0-0.1,0-0.1,0.1v0.1l0.6,6.7l-1.6-6.8c0-0.1-0.1-0.1-0.3-0.1l0,0c-6.8,0.1-13.5,0.1-19.2,0.1
					c0,0-0.1,0-0.1,0.1v0.1c0.1,2.2,0.3,4.4,0.1,6.4c-0.3-2.2-0.7-4.4-1.3-6.6c0-0.1-0.1-0.1-0.3-0.1h-3.5c-7.9,0-16.3,0-24.7-0.1
					c-6-0.1-12.1-0.1-18-0.4C178.7,327.7,184.9,327.6,190.8,327.5z M326.1,415.4l-4.7-6.4l-0.1-0.1h-0.1c-0.1,0-0.1,0.1-0.1,0.3
					l2.9,6.1l-96.5-0.3l-0.4-8.4c0-0.1-0.1-0.1-0.3-0.3l0,0c-0.1,0-0.1,0.1-0.3,0.1l-1,8.4l-59.1-0.1l1-6.8c0-0.1,0-0.3-0.1-0.3l0,0
					c-0.1,0-0.1,0-0.3,0.1l-2.3,7l-60.1-0.1L163,314.5l-15,34.6l-2.2,4.2c0,0,0,0.1,0,0.3l0.1,0.1l45.6,0.7c0.1,0,0.1,0,0.3-0.1
					l2.2-6.1l-1,6.1v0.1l0.1,0.1l65.9,1l-43.7,0.7c-0.1,0-0.1,0.1-0.3,0.1l-0.9,4.8l-0.1-4.8c0-0.1-0.1-0.3-0.3-0.3l-44.3,0.7
					c-0.1,0-0.1,0-0.1,0.1c-0.7,1.5-1.3,2.9-2,4.4c0.3-1.5,0.6-2.8,1-4.2v-0.1l-0.1-0.1l-24.5,0.4c-0.1,0-0.1,0-0.1,0.1l-25.8,51.8
					c0,0.1,0,0.3,0.1,0.3h0.1c0.1,0,0.1,0,0.1-0.1l17.8-30.4L154,379c-1.2,3.9-2.5,7.7-3.8,11.4c0,0.1,0,0.3,0.1,0.3c0,0,0,0,0.1,0
					s0.1,0,0.1-0.1c1.9-3.8,3.6-7.6,5.4-11.6l41.9-0.4l-0.6,5.5c0,0.1,0,0.3,0.1,0.3l0,0c0.1,0,0.1,0,0.3-0.1l2-5.7L268,378
					c0.1,0,0.3-0.1,0.3-0.3s-0.1-0.3-0.3-0.3l-130.6-1.2l5.4-9.3h175.5l16.3,20.7l-160.8,1c-0.1,0-0.3,0.1-0.3,0.3s0.1,0.3,0.3,0.3
					l123.9,0.6l7,10.5l0.1,0.1h0.1c0.1,0,0.1-0.1,0.1-0.3l-5.1-10.2l36.4,0.1l9.8,12.2l-84.4,0.4c-0.3-2.2-0.6-4.4-0.9-6.4
					c0-0.1-0.1-0.1-0.3-0.1l0,0c-0.1,0-0.1,0.1-0.1,0.3c0,2-0.3,4.2-0.4,6.4l-125.3,0.7c-0.1,0-0.3,0.1-0.3,0.3s0.1,0.3,0.3,0.3
					l213.8,1.2l8.3,10.5L326.1,415.4z"/>
			</g>
			<g>
				<path class="st1" d="M265.1,282.2h-0.3l-52.1-68.1l-152,165.8l33.5,42.9l279.5,1.7L264.9,282.6v-0.4H265.1z M213.4,224.5
					l44.4,57.9l-3.9,0.1l-2.5-3.2l-12.1-15.7c-8.2-10.5-16.2-21-24.3-31.3l-0.6-0.7l-0.4,0.7L202.6,252c-0.1,0.3-0.3,0.4-0.4,0.7
					l-5.2-0.3L213.4,224.5z M201.6,253.9c-1.6,2.8-3.2,5.5-4.8,8.4l-5.4-0.3l4.5-7.7L201.6,253.9z M68.3,380.1l1.6-1.7l7.7,8.3
					l-5.7-10.5l2.2-2.3l7.4,8.2L76,371.9l2.2-2.3l7.3,7.9l-5.4-9.9l2.2-2.3l7.1,7.6l-5.2-9.8l2.2-2.3l7,7.4l-4.9-9.5l2.2-2.3
					l6.7,7.1l-4.8-9.2l2.2-2.3l6.6,6.8l-4.7-8.9l2.2-2.5l6.4,6.6l-4.5-8.6l2.2-2.5l6.1,6.4l-4.2-8.4l2.2-2.5l6,6.1l-4.1-8.2l2.2-2.5
					l5.8,5.8l-3.9-7.9l2.3-2.5l5.5,5.7l-3.8-7.6l2.3-2.5l5.4,5.4l-3.6-7.3l2.3-2.5l5.2,5.1l-3.3-7.1l2.3-2.5l4.9,4.9l-3.2-6.8
					l2.3-2.5l4.8,4.7l-3.1-6.6l2.3-2.6l4.5,4.4l-2.9-6.3l2.3-2.6l4.4,4.2l-2.6-6l2.3-2.6l4.2,3.9l-2.5-5.8l2.5-2.6l3.9,3.6l-2.3-5.5
					l2.5-2.6l3.8,3.5l-2.2-5.2l2.5-2.8l3.6,3.2l-2-4.9l2.5-2.8l3.3,2.9l-1.7-4.7l2.5-2.8l3.2,2.8l-1.6-4.4l2.6-2.8l2.9,2.5l-1.5-4.1
					l2.6-2.9l2.8,2.2L174,265l2.6-2.9l2.6,2l-1.2-3.5l2.8-2.9l2.3,1.7l-1-3.2l17.5-19.1l-1,1.9l-35.7,49.2l-3.8,11.2l1-7.4l-4.5,6.4
					l-4.5,15.3l1.6-11.2l-4.9,6.8c-1.6,4.9-3.1,10-4.4,15c0.4-3.8,1-7.4,1.6-11.1l-7,9.8c0,0.1,0,0.1,0,0.3l-1.5,5.1l-2.9,10
					l1.7-10.3l0.3-1.5l-6.3,8.7l-4.2,13.8l1.7-10.2l-5.1,7.1l-3.9,12.1l1.5-8.6l-4.7,6.6c-1.9,6.1-3.8,12.1-5.8,18
					c1.2-4.8,2.2-9.5,3.2-14.3l-22.4,31l16.4-29.5L78.5,393L68.3,380.1z M95.2,415.2l-0.3-0.3c-3.8-4.7-7.7-9.3-11.5-14
					c3.9,4.4,7.9,8.7,11.8,13.1c3.2-5.5,6.4-11.1,9.6-16.6c3.3-5.7,6.6-11.4,9.9-16.9l10-16.9c3.3-5.7,6.7-11.2,10-16.9l10.2-16.7
					l5.1-8.4l5.1-8.3c6.8-11.2,13.7-22.3,20.7-33.3c-6.4,11.4-13,22.7-19.7,33.9l-4.9,8.4l-4.9,8.4l-10,16.9
					c-3.3,5.7-6.7,11.2-10,16.9L116,381.3c-3.3,5.7-6.8,11.2-10.2,16.7c-3.5,5.5-6.8,11.2-10.3,16.7L95.2,415.2z M362,418.7
					L100.6,417l83.6-142.6l29.5-1l-28.4-1l4.8-8.3l5.8-0.3c-1.6,2.8-3.1,5.4-4.7,8.2c1.7-2.8,3.3-5.4,4.9-8.2l10.5-0.6l-9.6-0.6
					c1.7-2.8,3.5-5.7,5.1-8.4l9.9-0.6l-9.2-0.6c0-0.1,0.1-0.3,0.1-0.3l11.2-18.6c7.7,10.3,15.6,20.7,23.4,30.9l12.1,15.7l1.7,2.3
					l-21.3,0.7l22.6,0.9l7.9,10.2l-21.7,0.7l12.8,0.4h-0.1l2.8,5.8l-1-5.8l8.6,0.3l0.1,0.1l7.3,9.5l-24.2,0.9l25.6,0.9l3.3,4.4
					l3.1,3.9l-10.2,0.1l-3.5-6.6l1.9,6.6l-77.4,0.6l90.4,0.7l7.9,10.2c3.1,3.9,6.1,7.7,9.2,11.6h-1.3l-12.7,0.1l-25.3,0.3l-50.8,0.3
					l50.8,0.9l23.6,0.3c2.3,4.8,4.8,9.3,7.6,14c-2.2-4.5-4.1-9.2-5.8-13.8h0.1l12.7,0.1h3.1c4.5,5.8,9.2,11.5,13.7,17.3
					c-4.2-5.8-8.6-11.5-12.8-17.3h2.5h2L362,418.7z M301,339h-0.3l-4.1,0.1c-3.1-4.1-6.1-8.2-9.2-12.2l-7.1-9.5h4.2L301,339z
					 M283.1,315.7H279l-3.6-4.8l-2.6-3.5l4.2,0.1L283.1,315.7z M275.3,305.3l-3.9,0.1L264,296l4.2,0.1L275.3,305.3z M266.7,294.1
					l-3.9,0.1l-7.6-10l4.1,0.1L266.7,294.1z"/>
				<path class="st1" d="M137.4,376.5l130.9,1.2l-68.6,0.6l-2.2,5.8l0.7-5.7l-42.4,0.4c-1.7,3.9-3.5,7.9-5.4,11.6
					c1.5-3.9,2.6-7.7,3.8-11.6L136,379l-17.8,30.6l26.3-52h3.9l20.4-0.3c-0.6,2.2-1.2,4.5-1.5,6.7c0.9-2.3,1.7-4.5,2.9-6.7l44.3-0.7
					l0.1,7.1l1.3-7.3l58.7-0.9l-80.9-1.3l1.6-8.9l-3.1,8.9l-41.3-0.6h-4.2l2.2-4.2l16.2-38.1l-60.4,103.6l60.7,0.1l2.3-7.1l-1,7.1
					l59.5,0.1l1-8.7l0.4,8.7l97.1,0.3l-3.1-6.4l4.7,6.4l31.6,0.1l-8.6-10.9l-214-1.2l125.6-0.7c0.3-2.2,0.4-4.4,0.4-6.6
					c0.4,2.2,0.7,4.4,0.9,6.6l85-0.4l-10-12.8l-37-0.1l5.2,10.5l-7-10.5l-124-0.6l161.6-0.9l-16.7-21.1c-60.1,0-161.3,0-175.8,0
					L137.4,376.5z"/>
				<path class="st1" d="M215.6,328.8c1.2,0,2.3,0,3.5,0c0.7,3.1,1.3,6.1,1.6,9.3c0.1-3.1,0.1-6.1-0.1-9.3c6.4,0,12.8,0,19.2-0.1
					l2.3,9.6l-0.7-9.6c7.9-0.1,15.7-0.3,23.6-0.6c-8.3-0.3-16.4-0.6-24.7-0.6c-8.3-0.1-16.4-0.1-24.7-0.1s-16.4,0-24.7,0.1
					s-16.4,0.3-24.7,0.6c8.3,0.3,16.4,0.6,24.7,0.6C199.1,328.6,207.3,328.8,215.6,328.8z"/>
			</g>
		</g>
		<g>
			<g>
				<path class="st3" d="M93.7,298.5l0.1,0.1l4.4,0.3c0,0,0.1,0,0.1-0.1l10-17.5l0.3,0.3c5.1,6.4,10.2,13.1,15.1,19.5
					c1.7,2.3,3.5,4.5,5.2,6.8l10.2,13.2l2,2.6l0.1,0.1l3.3-0.1c0.1,0,0.1,0,0.1-0.1v-0.1l-37.3-48.6l-0.1-0.1l0,0c0,0-0.1,0-0.1,0.1
					l-13.7,23.4C93.7,298.3,93.7,298.3,93.7,298.5z"/>
				<path class="st3" d="M17.3,420.9l1.3-2c2.5-3.9,4.9-8,7.3-11.9l8.4-14.1c2.3-3.9,5.4-9,8.4-14.1l8.4-14.1l4.2-7.1l4.2-7.1
					c6.6-11.1,11.8-20.1,16.4-28.5c0-0.1,0-0.1,0-0.3c0,0,0,0-0.1,0c0,0-0.1,0-0.1,0.1c-5.1,8.2-10.6,17-17.3,27.9l-4.4,7l-4.2,7
					l-8.4,14.1c-3.1,5.1-6.1,10.2-8.4,14.1L24.6,406c-2.3,3.9-4.8,8-7.1,12.1l-1.3,2.2c-1,1.6-1.9,3.3-2.9,4.9
					c-1.6,2.9-3.3,5.8-5.1,8.7l-2.3-2.6c-2.3-2.8-4.9-5.5-7.3-8.2h-0.1h-0.1c-0.1,0-0.1,0.1,0,0.3c2.3,2.8,4.7,5.7,7,8.3l3.1,3.6
					h0.1l0,0c0,0,0.1,0,0.1-0.1l0.1-0.3c1.9-3.1,3.8-6.1,5.5-9C15.3,424.3,16.3,422.7,17.3,420.9z"/>
				<path class="st3" d="M3.5,415.1c0,0.1,0,0.1,0,0.3c0,0,0,0,0.1,0c0,0,0.1,0,0.1-0.1L22,389.6c-0.7,3.8-1.6,7.6-2.5,11.1
					c0,0.1,0,0.1,0.1,0.3l0,0c0.1,0,0.1,0,0.1-0.1c1.7-4.9,3.3-10,4.9-15.1l3.3-4.8l-1,6.4c0,0.1,0,0.1,0.1,0.3l0,0
					c0.1,0,0.1,0,0.1-0.1l3.2-10l3.8-5.4l-1.3,7.7c0,0.1,0,0.1,0.1,0.3l0,0c0.1,0,0.1,0,0.1-0.1l3.5-11.5l4.8-6.7l-1.5,9.2
					c0,0.1,0,0.1,0.1,0.3l0,0c0.1,0,0.1,0,0.1-0.1l3.8-12.8l0,0l5.4-7.6c-0.4,2.9-0.9,5.8-1.2,8.6c0,0.1,0,0.1,0.1,0.1l0,0
					c0.1,0,0.1,0,0.1-0.1c1-4.1,2.3-8.4,3.6-12.5l3.6-5.1l-1.3,8.6c0,0.1,0,0.1,0.1,0.3l0,0c0.1,0,0.1,0,0.1-0.1l3.8-12.8l3.3-4.8
					l-0.7,5.5c0,0.1,0,0.1,0.1,0.1l0,0c0.1,0,0.1,0,0.1-0.1l3.1-9.3l29.7-41.8l0.9-1.6c0-0.1,0-0.1,0-0.3h-0.1h-0.1l-14.7,16v0.1
					l0.7,2.2l-1.5-1.2h-0.1h-0.1l-2.3,2.5v0.1l0.7,2.3l-1.6-1.3H76h-0.1l-2.2,2.5v0.1l0.9,2.6l-1.7-1.5h-0.1h-0.1l-2.2,2.3v0.1
					l1,2.8l-1.9-1.6h-0.1h-0.1l-2.2,2.3v0.1l1.2,2.9l-1.7-1.2h-0.1h-0.1l-2.2,2.3v0.1l1.2,3.2l-2.2-1.9h-0.1h-0.1l-2,2.3v0.1
					l1.3,3.3l-2.3-2.2H60h-0.1l-2,2.3v0.1l1.5,3.6l-2.5-2.3H56h-0.1l-2,2.2v0.1l1.6,3.8l-2.6-2.5h-0.1l0,0h-0.1l-2,2.2v0.1l1.7,3.9
					l-2.8-2.6h-0.1l0,0h-0.1l-2,2.2v0.1l1.9,4.2l-2.9-2.8H46l0,0h-0.1l-2,2.2v0.1l2,4.4l-3.1-3.1h-0.1l0,0h-0.1l-2,2.2v0.1l2,4.5
					l-3.2-3.2h-0.1l0,0H39l-1.9,2.2v0.1l2.2,4.8L36,351h-0.1l0,0h-0.1l-1.9,2.2v0.1l2.3,4.9l-3.5-3.5h-0.1l0,0h-0.1l-1.9,2v0.1
					l2.5,5.1l-3.6-3.6h-0.1l0,0H29l-1.9,2c0,0,0,0.1,0,0.3l2.6,5.2l-3.8-3.9h-0.1l0,0h-0.1l-1.9,2c0,0,0,0.1,0,0.3l2.8,5.5l-3.9-4.1
					h-0.1l0,0h-0.1l-1.9,2c0,0,0,0.1,0,0.3l2.9,5.7l-4.1-4.2h-0.1l0,0h-0.1l-1.9,2c0,0,0,0.1,0,0.3l3.1,5.8l-4.2-4.4h-0.1l0,0H16
					l-1.9,2c0,0,0,0.1,0,0.3l3.2,6.1l-4.4-4.5h-0.1l0,0h-0.1l-1.9,2c0,0,0,0.1,0,0.3l3.2,6.3l-5-4.4H8.9l0,0H8.7l-1.9,2
					c0,0,0,0.1,0,0.3l3.3,6.4L5.5,385H5.4l0,0H5.2l-1.9,2c0,0,0,0.1,0,0.3l3.5,6.7L2,388.9H1.9l0,0H1.7l-1.9,2c0,0,0,0.1,0,0.3
					l3.6,6.8l-4.9-5.2h-0.1l0,0h-0.1l-1.9,2c0,0,0,0.1,0,0.3l3.8,7l-5.1-5.5H-5l0,0h-0.1l-1.7,2c0,0,0,0.1,0,0.3l3.9,7.1l-5.2-5.7
					h-0.1l0,0h-0.1l-1.7,2c0,0,0,0.1,0,0.3l4.1,7.4l-5.4-5.8h-0.1h-0.1l-1.3,1.5c0,0,0,0.1,0,0.3l8.4,10.9l0.1,0.1l0,0h0.1
					l22.1-24.9L3.5,415.1z"/>
				<path class="st3" d="M163.6,352.8v0.1l6,8c2.6,3.5,5.2,6.8,7.7,10.3l0.1,0.1l3.5-0.1h0.3c0.1,0,0.1,0,0.1-0.1V371l-14-18.2
					l-0.1-0.1h-3.5C163.8,352.6,163.6,352.6,163.6,352.8z"/>
				<path class="st3" d="M142.5,325.1v0.1l6.4,8.4l0.1,0.1l3.3-0.1c0.1,0,0.1,0,0.1-0.1v-0.1l-6.3-8.2l-0.1-0.1l-3.5-0.1
					C142.6,325,142.5,325,142.5,325.1z"/>
				<path class="st3" d="M150.1,334.9v0.1l6.1,8l0.1,0.1l3.3-0.1c0.1,0,0.1,0,0.1-0.1v-0.1l-6-7.7l-0.1-0.1L150.1,334.9
					C150.1,334.9,150.1,334.9,150.1,334.9z"/>
				<path class="st3" d="M157.4,344.5v0.1l2.2,2.9l3.1,4.1l0.1,0.1h3.5c0.1,0,0.1,0,0.1-0.1v-0.1l-5.2-6.8l-0.1-0.1l-3.5-0.1
					C157.5,344.3,157.4,344.5,157.4,344.5z"/>
				<path class="st3" d="M232.8,437.9l-49.9-65.1l-0.1-0.1h-1.7h-2c-0.1,0-0.1,0-0.1,0.1v0.1c1.3,1.7,2.6,3.5,3.9,5.2
					c-1.5-1.7-2.8-3.5-4.2-5.4l-0.1-0.1H176l-10.9-0.1c0,0-0.1,0-0.1,0.1v0.1c1,2.8,2.2,5.4,3.3,8.2c-1.5-2.8-2.9-5.5-4.4-8.3
					l-0.1-0.1l-19.8-0.3l-26.5-0.4l26.5-0.1l21.4-0.1l10.6-0.1h1.2c0.1,0,0.1,0,0.1-0.1v-0.1c-2.6-3.2-5.1-6.6-7.7-9.8l-6.7-8.6
					l-0.1-0.1l-52.4-0.4l41.5-0.3c0,0,0.1,0,0.1-0.1v-0.1l-1.2-3.8l2.2,3.9l0.1,0.1h8.6c0.1,0,0.1,0,0.1-0.1v-0.1l-2.6-3.3l-2.9-3.6
					l-0.1-0.1l-16-0.6l14.8-0.6c0.1,0,0.1,0,0.1-0.1V343l-6.3-8.2l-0.1-0.1l-7.3-0.3H141v0.1l0.6,3.3l-1.6-3.3v-0.1
					c0-0.1-0.1-0.1-0.1-0.1l-5.2-0.1l12.8-0.4c0.1,0,0.1,0,0.1-0.1v-0.1L141,325l-0.1-0.1l-13.4-0.4l12.4-0.4c0.1,0,0.1,0,0.1-0.1
					v-0.1l-1.5-1.9l-10.2-13.2c-1.7-2.3-3.5-4.5-5.2-6.8c-4.8-6.3-9.8-12.7-14.6-19.1l-0.1-0.1l0,0c0,0-0.1,0-0.1,0.1l-9.6,16v0.1
					l0.1,0.1l4.5,0.3l-5.1,0.3c0,0-0.1,0-0.1,0.1l-3.1,5.1l2.8-4.8V300l-0.1-0.1l-4.8,0.3c0,0-0.1,0-0.1,0.1l-3.8,6.6v0.1l0.1,0.1
					l4.5,0.3c0,0,0.1,0,0.1-0.1l0,0l0,0l0.1,0.1l4.9,0.3l-5.5,0.3c0,0-0.1,0-0.1,0.1l0,0L93,308l-4.9,0.3c0,0-0.1,0-0.1,0.1l-4.1,7
					v0.1l0.1,0.1l18.3,0.7L83,316.8c0,0-0.1,0-0.1,0.1L12.7,436.8v0.1l0.1,0.1l219.7,1.5c0.1,0,0.1,0,0.1-0.1
					C232.8,438.1,232.8,437.9,232.8,437.9z M88.6,361.4c7.1-0.1,14.1-0.1,20.8-0.1c6.6,0,13.7,0,20.8,0.1c5.1,0,10.2,0.1,15.3,0.3
					c-4.7,0.1-9.5,0.3-14.3,0.3h-0.1v0.1l0.4,5.7l-1.5-5.7c0-0.1-0.1-0.1-0.1-0.1l0,0c-5.8,0.1-11.4,0.1-16.2,0.1h-0.1v0.1
					c0.1,1.7,0.1,3.6,0.1,5.4c-0.3-1.7-0.6-3.6-1-5.4c0-0.1-0.1-0.1-0.1-0.1h-2.9c-6.7,0-13.7,0-20.8-0.1c-5.1,0-10.2-0.1-15.1-0.3
					C78.6,361.7,83.7,361.5,88.6,361.4z M202.3,435.3l-3.9-5.4l-0.1-0.1c0,0,0,0-0.1,0s-0.1,0.1-0.1,0.3l2.5,5.1l-81.1-0.3l-0.3-7.1
					c0-0.1-0.1-0.1-0.1-0.1l0,0c-0.1,0-0.1,0.1-0.1,0.1l-0.9,7.1l-49.6-0.1l0.9-5.8c0-0.1,0-0.1-0.1-0.1l0,0c-0.1,0-0.1,0-0.1,0.1
					l-2,5.8l-50.5-0.1l49.1-84.1L53,379.7l-1.7,3.5v0.1l0.1,0.1l38.3,0.6c0.1,0,0.1,0,0.1-0.1l1.7-5.2l-0.9,5.1v0.1h0.1l55.5,0.9
					l-36.7,0.6c-0.1,0-0.1,0-0.1,0.1l-0.7,4.1v-3.9c0-0.1-0.1-0.1-0.1-0.1l-37.1,0.6c-0.1,0-0.1,0-0.1,0.1c-0.6,1.2-1.2,2.5-1.6,3.6
					c0.3-1.2,0.6-2.3,0.9-3.5v-0.1l-0.1-0.1l-20.5,0.3c0,0-0.1,0-0.1,0.1l-22.1,43.7c0,0.1,0,0.1,0.1,0.3c0,0,0,0,0.1,0
					c0,0,0.1,0,0.1-0.1l15-25.6l15-0.1c-1,3.2-2,6.4-3.2,9.6c0,0.1,0,0.1,0.1,0.3c0,0,0,0,0.1,0c0,0,0.1,0,0.1-0.1
					c1.6-3.2,3.1-6.4,4.5-9.8l35.2-0.3l-0.6,4.7c0,0.1,0,0.1,0.1,0.1l0,0c0.1,0,0.1,0,0.1-0.1l1.7-4.7l57.5-0.6
					c0.1,0,0.1-0.1,0.1-0.1c0-0.1-0.1-0.1-0.1-0.1l-109.6-1l4.5-7.9h147.5l13.7,17.3l-135.4,0.7c-0.1,0-0.1,0.1-0.1,0.1
					c0,0.1,0.1,0.1,0.1,0.1l104.1,0.6l5.8,8.7l0.1,0.1c0,0,0,0,0.1,0s0.1-0.1,0.1-0.3l-4.2-8.6l30.6,0.1l8.2,10.3l-70.9,0.4
					c-0.1-1.9-0.4-3.6-0.7-5.4c0-0.1-0.1-0.1-0.1-0.1l0,0c-0.1,0-0.1,0.1-0.1,0.1c0,1.7-0.1,3.5-0.4,5.4L41.6,425
					c-0.1,0-0.1,0.1-0.1,0.1c0,0.1,0.1,0.1,0.1,0.1l179.8,1l7,8.9L202.3,435.3z"/>
			</g>
			<g>
				<path class="st2" d="M151.1,323.4h-0.3L107,266.2L-20.5,405.3l28.1,36.1l234.8,1.5l-91.3-119.2V323.4z M107.6,274.9l37.3,48.6
					l-3.3,0.1l-2-2.6l-10.2-13.2c-6.8-8.7-13.5-17.6-20.4-26.3l-0.4-0.6l-0.3,0.6l-9.5,16.4c-0.1,0.1-0.1,0.4-0.3,0.6l-4.4-0.3
					L107.6,274.9z M97.7,299.7c-1.3,2.3-2.6,4.7-4.1,7l-4.5-0.3l3.8-6.6L97.7,299.7z M-14.3,405.6l1.3-1.5l6.4,7l-4.8-8.7l1.7-2
					l6.3,6.8l-4.7-8.6l1.7-2l6.1,6.6l-4.5-8.3l1.9-2l6,6.4l-4.4-8.2l1.9-2l5.8,6.3l-4.2-7.9l1.9-2l5.7,6l-4.1-7.7l1.9-2l5.5,5.8
					L9.3,380l1.9-2l5.4,5.5l-3.8-7.3l1.9-2l5.1,5.4l-3.6-7l1.9-2l4.9,5.1l-3.5-6.8l1.9-2l4.8,4.9l-3.3-6.6l1.9-2l4.7,4.7l-3.2-6.4
					l1.9-2l4.5,4.5l-3.1-6.1l1.9-2l4.4,4.4l-2.9-6l1.9-2.2L39,356l-2.8-5.7l1.9-2.2l4.1,3.9l-2.6-5.5l2-2.2l3.8,3.6l-2.3-5.2l2-2.2
					l3.6,3.5l-2.2-5.1l2-2.2L52,340l-2-4.8l2-2.2l3.3,3.1l-1.9-4.7l2-2.2l3.2,2.9l-1.7-4.4l2-2.3L62,328l-1.6-4.2l2-2.3l2.9,2.5
					l-1.5-3.9l2.2-2.3l2.6,2.3l-1.5-3.6l2.2-2.3l2.5,2l-1.3-3.5l2.2-2.3l2.3,1.9l-1.2-3.2l2.2-2.5l2.2,1.7l-1-3.1l2.3-2.5l2,1.5
					l-0.9-2.8l14.7-16l-0.9,1.6l-29.7,41.8l-3.1,9.5l0.9-6.3l-3.8,5.4l-3.8,12.8l1.3-9.5l-4.1,5.8c-1.3,4.2-2.6,8.4-3.6,12.7
					c0.4-3.1,0.9-6.3,1.3-9.3l-5.8,8.2v0.1l-1.2,4.2l-2.5,8.4l1.5-8.7l0.1-1.3l-5.2,7.3l-3.6,11.5l1.5-8.6l-4.2,6l-3.3,10.2l1.2-7.3
					l-3.9,5.5c-1.6,5.1-3.2,10.2-4.9,15.1c1-3.9,1.9-8,2.6-11.9L3.5,415.1l13.8-24.9L-6,416.4L-14.3,405.6z M8.3,435.2L8,434.9
					c-3.2-3.9-6.6-7.7-9.8-11.6c3.3,3.6,6.6,7.4,9.9,11.1c2.6-4.7,5.4-9.3,8.2-13.8c2.8-4.8,5.5-9.5,8.3-14.3l8.4-14.1
					c2.8-4.7,5.7-9.5,8.4-14.1l8.4-14.1l4.2-7l4.4-7c5.7-9.3,11.5-18.8,17.3-27.9c-5.4,9.6-10.9,19.1-16.4,28.5l-4.2,7.1l-4.2,7.1
					l-8.4,14.1c-2.8,4.7-5.7,9.5-8.4,14.1l-8.4,14.1c-2.8,4.7-5.7,9.3-8.6,14.1c-2.9,4.7-5.7,9.3-8.6,14L8.3,435.2z M232.6,438.1
					L13,436.6l70.2-119.8L108,316l-23.9-0.9l4.1-7l4.9-0.3c-1.3,2.3-2.6,4.5-3.9,6.8c1.5-2.3,2.8-4.5,4.2-6.8l8.7-0.6l-8.2-0.4
					c1.5-2.3,2.9-4.8,4.4-7.1l8.3-0.4l-7.7-0.4c0-0.1,0.1-0.1,0.1-0.3l9.5-15.7c6.6,8.7,13.1,17.3,19.8,25.9l10.2,13.2l1.5,1.9
					l-17.9,0.6l18.9,0.7l6.6,8.6l-18.2,0.6l10.8,0.4H140l2.3,4.9l-0.9-4.9l7.3,0.3l0.1,0.1l6.1,8l-20.4,0.7l21.5,0.7l2.9,3.6
					l2.6,3.3h-8.6l-3.1-5.5l1.6,5.5l-65.1,0.6l76,0.6l6.7,8.6c2.6,3.3,5.1,6.6,7.7,9.8h-1.2l-10.6,0.1l-21.4,0.1l-42.6,0.3l42.6,0.7
					l19.8,0.3c1.9,3.9,4.1,7.9,6.3,11.6c-1.7-3.8-3.3-7.7-4.9-11.6h0.1l10.6,0.1h2.6c3.8,4.8,7.7,9.8,11.5,14.6
					c-3.6-4.8-7.1-9.6-10.8-14.6h2h1.7L232.6,438.1z M181.2,371.1h-0.3l-3.5,0.1c-2.6-3.5-5.1-6.8-7.7-10.3l-6-8h3.5L181.2,371.1z
					 M166.2,351.6h-3.5l-3.1-4.1l-2.2-2.9l3.5,0.1L166.2,351.6z M159.7,342.9l-3.3,0.1l-6.1-8l3.5,0.1L159.7,342.9z M152.4,333.4
					l-3.3,0.1l-6.4-8.4l3.5,0.1L152.4,333.4z"/>
				<path class="st2" d="M43.8,402.6l110,1l-57.6,0.6l-1.7,4.8l0.6-4.8l-35.7,0.3c-1.5,3.3-2.9,6.6-4.5,9.9c1.2-3.2,2.2-6.6,3.2-9.8
					l-15.4,0.1l-15,25.6l22.1-43.7h3.3l17.2-0.3c-0.4,1.9-0.9,3.8-1.3,5.7c0.7-1.9,1.5-3.8,2.5-5.7l37.1-0.6l0.1,6l1-6.1l49.3-0.7
					l-68-1l1.3-7.4l-2.6,7.4L55,383.4h-3.5l1.7-3.5l13.5-32l-50.8,87L67,435l2-6l-0.9,6l50.1,0.1l0.9-7.3l0.3,7.3l81.5,0.3l-2.6-5.4
					l3.9,5.4l26.5,0.1l-7.3-9.2l-179.9-1.2l105.5-0.6c0.1-1.9,0.3-3.6,0.4-5.5c0.3,1.9,0.6,3.6,0.7,5.5l71.5-0.4l-8.4-10.8l-31-0.1
					l4.4,8.9l-6-8.9l-104.2-0.6l135.7-0.7l-14-17.8c-50.5,0-135.5,0-147.7,0L43.8,402.6z"/>
				<path class="st2" d="M109.5,362.4c1,0,1.9,0,2.9,0c0.6,2.6,1.2,5.1,1.3,7.9c0.1-2.6,0.1-5.2-0.1-7.9c5.4,0,10.8,0,16.2-0.1l2,8
					l-0.6-8c6.6-0.1,13.2-0.3,19.8-0.6c-7-0.3-13.8-0.4-20.8-0.6c-7-0.1-13.8-0.1-20.8-0.1s-13.8,0-20.8,0.1s-13.8,0.3-20.8,0.6
					c7,0.3,13.8,0.4,20.8,0.6C95.6,362.4,102.5,362.4,109.5,362.4z"/>
			</g>
		</g>
	</g>
</g>
<g>
	<g>
		<path class="st1" d="M99.9,120.4l3.4-1.9v4v3.9l-3.4-2l-3.3-1.9L99.9,120.4z M99.9,129.3l-3.3,2v-3.9v-4l3.3,1.9l3.4,2.1
			L99.9,129.3z M99.9,130.1l3.4-1.9v4v3.9l-3.4-2l-3.3-1.9L99.9,130.1z M99.9,139l-3.3,2v-3.9v-4l3.3,1.9l3.4,2.1L99.9,139z
			 M99.9,139.9l3.4-1.9v4v3.9l-3.4-2l-3.3-1.9L99.9,139.9z M99.9,148.7l-3.3,2v-3.9v-4l3.3,1.9l3.4,2.1L99.9,148.7z M99.9,149.6
			l3.4-1.9v4v3.9l-3.4-2l-3.3-1.9L99.9,149.6z M99.9,158.4l-3.3,2v-3.9v-4l3.3,1.9l3.4,2.1L99.9,158.4z M107.7,115.5l3.4-1.9v4v3.9
			l-3.4-2l-3.3-1.9L107.7,115.5z M107.7,124.5l-3.3,2v-3.9v-4l3.3,1.9l3.4,2.1L107.7,124.5z M107.7,135l3.4-1.9v4v3.9l-3.4-2
			l-3.3-1.9L107.7,135z M115.5,119.6l-3.3,2v-3.9v-4l3.3,1.9l3.4,2.1L115.5,119.6z M115.5,130.1l3.4-1.9v4v3.9l-3.4-2l-3.3-1.9
			L115.5,130.1z M115.5,139l-3.3,2v-3.9v-4l3.3,1.9l3.4,2.1L115.5,139z M123.3,124.5l-3.3,2v-3.9v-4l3.3,1.9l3.4,2.1L123.3,124.5z
			 M123.3,125.2l3.4-1.9v4v3.9l-3.4-2l-3.3-1.9L123.3,125.2z M123.3,134.2l-3.3,2v-3.9v-4l3.3,1.9l3.4,2.1L123.3,134.2z"/>
		<path class="st1" d="M133.2,120.3l3.4-1.9v3.9v4l-3.4-2.1l-3.3-1.9L133.2,120.3z M133.2,129.2l-3.3,2.1v-4v-3.9l3.3,1.9l3.4,2
			L133.2,129.2z M133.2,130.1l3.4-1.9v3.9v4l-3.4-2.1l-3.3-1.9L133.2,130.1z M141,134l-3.3,2.1v-4v-3.9l3.3,1.9l3.4,2L141,134z
			 M141,135l3.4-1.9v3.9v4l-3.4-2.1l-3.3-1.9L141,135z M141,143.7l-3.3,2.1v-4v-3.9l3.3,1.9l3.4,2L141,143.7z M141,144.7l3.4-1.9
			v3.9v4l-3.4-2.1l-3.3-1.9L141,144.7z M141,153.4l-3.3,2.1v-4v-3.9l3.3,1.9l3.4,2L141,153.4z M141,154.4l3.4-1.9v3.9v4l-3.4-2.1
			l-3.3-1.9L141,154.4z M148.8,130.1l3.4-1.9v3.9v4l-3.4-2.1l-3.3-1.9L148.8,130.1z M148.8,138.9l-3.3,2.1v-4v-4l3.3,1.9l3.4,2
			L148.8,138.9z M156.6,115.5l3.4-1.9v3.9v4l-3.4-2.1l-3.3-1.9L156.6,115.5z M156.6,124.3l-3.3,2.1v-4v-3.9l3.3,1.9l3.4,2
			L156.6,124.3z M156.6,125.2l3.4-1.9v3.9v4l-3.4-2.1l-3.3-1.9L156.6,125.2z M156.6,134l-3.3,2.1v-4v-3.9l3.3,1.9l3.4,2L156.6,134z"
			/>
		<path class="st1" d="M166.7,120.4l3.4-1.9v4v3.9l-3.4-2l-3.3-1.9L166.7,120.4z M166.7,129.3l-3.3,2v-3.9v-4l3.3,1.9l3.4,2.1
			L166.7,129.3z M166.7,130.1l3.4-1.9v4v3.9l-3.4-2l-3.3-1.9L166.7,130.1z M166.7,139l-3.3,2v-3.9v-4l3.3,1.9l3.4,2.1L166.7,139z
			 M166.7,139.9l3.4-1.9v4v3.9l-3.4-2l-3.3-1.9L166.7,139.9z M166.7,148.7l-3.3,2v-3.9v-4l3.3,1.9l3.4,2.1L166.7,148.7z
			 M166.7,149.6l3.4-1.9v4v3.9l-3.4-2l-3.3-1.9L166.7,149.6z M166.7,158.4l-3.3,2v-3.9v-4l3.3,1.9l3.4,2.1L166.7,158.4z
			 M174.4,115.5l3.4-1.9v4v3.9l-3.4-2l-3.3-1.9L174.4,115.5z M174.4,124.5l-3.3,2v-3.9v-4l3.3,1.9l3.4,2.1L174.4,124.5z M174.4,135
			l3.4-1.9v4v3.9l-3.4-2l-3.3-1.9L174.4,135z M174.4,143.9l-3.3,2V142v-4l3.3,1.9l3.4,2.1L174.4,143.9z M182.2,119.6l-3.3,2v-3.9v-4
			l3.3,1.9l3.4,2.1L182.2,119.6z M182.2,130.1l3.4-1.9v4v3.9l-3.4-2l-3.3-1.9L182.2,130.1z M182.2,139l-3.3,2v-3.9v-4l3.3,1.9
			l3.4,2.1L182.2,139z M182.2,139.9l3.4-1.9v4v3.9l-3.4-2l-3.3-1.9L182.2,139.9z M189.9,124.5l-3.3,2v-3.9v-4l3.3,1.9l3.4,2.1
			L189.9,124.5z M189.9,125.2l3.4-1.9v4v3.9l-3.4-2l-3.3-1.9L189.9,125.2z M189.9,134.2l-3.3,2v-3.9v-4l3.3,1.9l3.4,2.1L189.9,134.2
			z M189.9,143.9l-3.3,2V142v-4l3.3,1.9l3.4,2.1L189.9,143.9z M189.9,144.7l3.4-1.9v4v3.9l-3.4-2l-3.3-1.9L189.9,144.7z
			 M189.9,153.6l-3.3,2v-3.9v-4l3.3,1.9l3.4,2.1L189.9,153.6z"/>
		<path class="st1" d="M200,120.4l3.4-1.9v4v3.9l-3.4-2l-3.3-1.9L200,120.4z M200,129.3l-3.3,2v-3.9v-4l3.3,1.9l3.4,2.1L200,129.3z
			 M200,130.1l3.4-1.9v4v3.9l-3.4-2l-3.3-1.9L200,130.1z M200,139l-3.3,2v-3.9v-4l3.3,1.9l3.4,2.1L200,139z M200,139.9l3.4-1.9v4
			v3.9l-3.4-2l-3.3-1.9L200,139.9z M200,148.7l-3.3,2v-3.9v-4l3.3,1.9l3.4,2.1L200,148.7z M200,149.6l3.4-1.9v4v3.9l-3.4-2l-3.3-1.9
			L200,149.6z M200,158.4l-3.3,2v-3.9v-4l3.3,1.9l3.4,2.1L200,158.4z M207.7,115.5l3.4-1.9v4v3.9l-3.4-2l-3.3-1.9L207.7,115.5z
			 M207.7,124.5l-3.3,2v-3.9v-4l3.3,1.9l3.4,2.1L207.7,124.5z M207.7,144.7l3.4-1.9v4v3.9l-3.4-2l-3.3-1.9L207.7,144.7z
			 M215.5,119.6l-3.3,2v-3.9v-4l3.3,1.9l3.4,2.1L215.5,119.6z M215.5,139.9l3.4-1.9v4v3.9l-3.4-2l-3.3-1.9L215.5,139.9z
			 M215.5,148.7l-3.3,2v-3.9v-4l3.3,1.9l3.4,2.1L215.5,148.7z M223.3,124.5l-3.3,2v-3.9v-4l3.3,1.9l3.4,2.1L223.3,124.5z
			 M223.3,125.2l3.4-1.9v4v3.9l-3.4-2l-3.3-1.9L223.3,125.2z M223.3,134.2l-3.3,2v-3.9v-4l3.3,1.9l3.4,2.1L223.3,134.2z M223.3,135
			l3.4-1.9v4v3.9l-3.4-2l-3.3-1.9L223.3,135z M223.3,143.9l-3.3,2V142v-4l3.3,1.9l3.4,2.1L223.3,143.9z M223.3,144.7l3.4-1.9v4v3.9
			l-3.4-2l-3.3-1.9L223.3,144.7z M223.3,153.6l-3.3,2v-3.9v-4l3.3,1.9l3.4,2.1L223.3,153.6z"/>
		<path class="st1" d="M233.3,120.4l3.4-1.9v4v3.9l-3.4-2l-3.3-1.9L233.3,120.4z M233.3,129.3l-3.3,2v-3.9v-4l3.3,1.9l3.4,2.1
			L233.3,129.3z M233.3,130.1l3.4-1.9v4v3.9l-3.4-2l-3.3-1.9L233.3,130.1z M233.3,139l-3.3,2v-3.9v-4l3.3,1.9l3.4,2.1L233.3,139z
			 M233.3,139.9l3.4-1.9v4v3.9l-3.4-2L230,142L233.3,139.9z M233.3,148.7l-3.3,2v-3.9v-4l3.3,1.9l3.4,2.1L233.3,148.7z M233.3,149.6
			l3.4-1.9v4v3.9l-3.4-2l-3.3-1.9L233.3,149.6z M233.3,158.4l-3.3,2v-3.9v-4l3.3,1.9l3.4,2.1L233.3,158.4z M241.1,124.5l-3.3,2v-3.9
			v-4l3.3,1.9l3.4,2.1L241.1,124.5z M241.1,125.2l3.4-1.9v4v3.9l-3.4-2l-3.3-1.9L241.1,125.2z M248.8,120.4l3.4-1.9v4v3.9l-3.4-2
			l-3.3-1.9L248.8,120.4z M248.8,129.3l-3.3,2v-3.9v-4l3.3,1.9l3.4,2.1L248.8,129.3z M256.6,115.5l3.4-1.9v4v3.9l-3.4-2l-3.3-1.9
			L256.6,115.5z M256.6,124.5l-3.3,2v-3.9v-4l3.3,1.9l3.4,2.1L256.6,124.5z M256.6,125.2l3.4-1.9v4v3.9l-3.4-2l-3.3-1.9L256.6,125.2
			z M256.6,134.2l-3.3,2v-3.9v-4l3.3,1.9l3.4,2.1L256.6,134.2z M256.6,135l3.4-1.9v4v3.9l-3.4-2l-3.3-1.9L256.6,135z M256.6,143.9
			l-3.3,2V142v-4l3.3,1.9l3.4,2.1L256.6,143.9z M256.6,144.7l3.4-1.9v4v3.9l-3.4-2l-3.3-1.9L256.6,144.7z M256.6,153.6l-3.3,2v-3.9
			v-4l3.3,1.9l3.4,2.1L256.6,153.6z"/>
		<path class="st1" d="M266.7,115.5l3.4-1.9v4v3.9l-3.4-2l-3.3-1.9L266.7,115.5z M266.7,124.5l-3.3,2v-3.9v-4l3.3,1.9l3.4,2.1
			L266.7,124.5z M266.7,125.2l3.4-1.9v4v3.9l-3.4-2l-3.3-1.9L266.7,125.2z M266.7,134.2l-3.3,2v-3.9v-4l3.3,1.9l3.4,2.1L266.7,134.2
			z M266.7,135l3.4-1.9v4v3.9l-3.4-2l-3.3-1.9L266.7,135z M266.7,143.9l-3.3,2V142v-4l3.3,1.9l3.4,2.1L266.7,143.9z M266.7,144.7
			l3.4-1.9v4v3.9l-3.4-2l-3.3-1.9L266.7,144.7z M266.7,153.6l-3.3,2v-3.9v-4l3.3,1.9l3.4,2.1L266.7,153.6z"/>
		<path class="st1" d="M276.7,120.4l3.4-1.9v4v3.9l-3.4-2l-3.3-1.9L276.7,120.4z M276.7,129.3l-3.3,2v-3.9v-4l3.3,1.9l3.4,2.1
			L276.7,129.3z M276.7,130.1l3.4-1.9v4v3.9l-3.4-2l-3.3-1.9L276.7,130.1z M276.7,139l-3.3,2v-3.9v-4l3.3,1.9l3.4,2.1L276.7,139z
			 M276.7,139.9l3.4-1.9v4v3.9l-3.4-2l-3.3-1.9L276.7,139.9z M276.7,148.7l-3.3,2v-3.9v-4l3.3,1.9l3.4,2.1L276.7,148.7z
			 M276.7,149.6l3.4-1.9v4v3.9l-3.4-2l-3.3-1.9L276.7,149.6z M284.4,115.5l3.4-1.9v4v3.9l-3.4-2l-3.3-1.9L284.4,115.5z M284.4,124.5
			l-3.3,2v-3.9v-4l3.3,1.9l3.4,2.1L284.4,124.5z M284.4,134.2l-3.3,2v-3.9v-4l3.3,1.9l3.4,2.1L284.4,134.2z M284.4,135l3.4-1.9v4
			v3.9l-3.4-2l-3.3-1.9L284.4,135z M284.4,143.9l-3.3,2V142v-4l3.3,1.9l3.4,2.1L284.4,143.9z M284.4,154.4l3.4-1.9v4v3.9l-3.4-2
			l-3.3-1.9L284.4,154.4z M292.2,119.6l-3.3,2v-3.9v-4l3.3,1.9l3.4,2.1L292.2,119.6z M292.2,149.6l3.4-1.9v4v3.9l-3.4-2l-3.3-1.9
			L292.2,149.6z M292.2,158.4l-3.3,2v-3.9v-4l3.3,1.9l3.4,2.1L292.2,158.4z M300,124.5l-3.3,2v-3.9v-4l3.3,1.9l3.4,2.1L300,124.5z
			 M300,125.2l3.4-1.9v4v3.9l-3.4-2l-3.3-1.9L300,125.2z M300,134.2l-3.3,2v-3.9v-4l3.3,1.9l3.4,2.1L300,134.2z M300,135l3.4-1.9v4
			v3.9l-3.4-2l-3.3-1.9L300,135z M300,143.9l-3.3,2V142v-4l3.3,1.9l3.4,2.1L300,143.9z M300,144.7l3.4-1.9v4v3.9l-3.4-2l-3.3-1.9
			L300,144.7z M300,153.6l-3.3,2v-3.9v-4l3.3,1.9l3.4,2.1L300,153.6z"/>
	</g>
	<g>
		<path class="st1" d="M99.9,177.9l3.4-2.1v4v3.9l-3.4-2l-3.3-1.9L99.9,177.9z M103.4,184.7l-3.4,1.9l-3.3,2v-3.9v-4l3.3,2.1
			L103.4,184.7z M99.9,187.6l3.4-2.1v4v3.9l-3.4-2l-3.3-1.9L99.9,187.6z M103.4,204.2l-3.4,1.9l-3.3,2v-3.9v-4l3.3,2.1L103.4,204.2z
			 M99.9,207.1l3.4-2.1v4v3.9l-3.4-2l-3.3-1.9L99.9,207.1z M104.4,174.9l3.3-1.9l3.4-2.1v4v3.9l-3.4-2L104.4,174.9z M107.7,181.8
			l-3.3,2v-3.9v-4l3.3,2.1l3.4,1.9L107.7,181.8z M107.7,191.5l-3.3,2v-3.9v-4l3.3,2.1l3.4,1.9L107.7,191.5z M104.4,194.4l3.3-1.9
			l3.4-2.1v4v3.9l-3.4-2L104.4,194.4z M104.4,213.9l3.3-1.9l3.4-2.1v4v3.9l-3.4-2L104.4,213.9z M118.9,174.9l-3.4,1.9l-3.3,2v-3.9
			v-4l3.3,2.1L118.9,174.9z M115.5,177.9l3.4-2.1v4v3.9l-3.4-2l-3.3-1.9L115.5,177.9z M118.9,194.4l-3.4,1.9l-3.3,2v-3.9v-4l3.3,2.1
			L118.9,194.4z M115.5,197.3l3.4-2.1v4v3.9l-3.4-2l-3.3-1.9L115.5,197.3z M115.5,207.1l3.4-2.1v4v3.9l-3.4-2l-3.3-1.9L115.5,207.1z
			 M118.9,213.9l-3.4,1.9l-3.3,2v-3.9v-4l3.3,2.1L118.9,213.9z M123.3,181.8l-3.3,2v-3.9v-4l3.3,2.1l3.4,1.9L123.3,181.8z
			 M123.3,201.2l-3.3,2v-3.9v-4l3.3,2.1l3.4,1.9L123.3,201.2z M119.9,204.2l3.3-1.9l3.4-2.1v4v3.9l-3.4-2L119.9,204.2z M123.3,210.9
			l-3.3,2V209v-4l3.3,2.1l3.4,1.9L123.3,210.9z"/>
		<path class="st1" d="M133.2,177.7l3.4-1.9v4v3.9l-3.4-2l-3.3-1.9L133.2,177.7z M133.2,186.7l-3.3,2v-3.9v-4l3.3,1.9l3.4,2.1
			L133.2,186.7z M141,172.9l3.4-1.9v4v3.9l-3.4-2l-3.3-1.9L141,172.9z M141,181.8l-3.3,2v-3.9v-4l3.3,1.9l3.4,2.1L141,181.8z
			 M141,182.6l3.4-1.9v4v3.9l-3.4-2l-3.3-1.9L141,182.6z M141,191.5l-3.3,2v-3.9v-4l3.3,1.9l3.4,2.1L141,191.5z M141,192.4l3.4-1.9
			v4v3.9l-3.4-2l-3.3-1.9L141,192.4z M141,201.2l-3.3,2v-3.9v-4l3.3,1.9l3.4,2.1L141,201.2z M141,202.1l3.4-1.9v4v3.9l-3.4-2
			l-3.3-1.9L141,202.1z M141,210.9l-3.3,2V209v-4l3.3,1.9l3.4,2.1L141,210.9z M141,211.8l3.4-1.9v4v3.9l-3.4-2l-3.3-1.9L141,211.8z
			 M148.8,177l-3.3,2v-4v-4l3.3,1.9l3.4,2.1L148.8,177z M148.8,177.7l3.4-1.9v4v3.9l-3.4-2l-3.3-1.9L148.8,177.7z M156.6,181.8
			l-3.3,2v-3.9v-4l3.3,1.9l3.4,2.1L156.6,181.8z"/>
		<path class="st1" d="M166.7,177.7l3.4-1.9v4v3.9l-3.4-2l-3.3-1.9L166.7,177.7z M166.7,186.7l-3.3,2v-3.9v-4l3.3,1.9l3.4,2.1
			L166.7,186.7z M166.7,187.5l3.4-1.9v4v3.9l-3.4-2l-3.3-1.9L166.7,187.5z M166.7,196.4l-3.3,2v-3.9v-4l3.3,1.9l3.4,2.1L166.7,196.4
			z M166.7,197.2l3.4-1.9v4v3.9l-3.4-2l-3.3-1.9L166.7,197.2z M166.7,206.1l-3.3,2v-3.9v-4l3.3,1.9l3.4,2.1L166.7,206.1z
			 M166.7,206.9l3.4-1.9v4v3.9l-3.4-2l-3.3-1.9L166.7,206.9z M174.4,172.9l3.4-1.9v4v3.9l-3.4-2L171,175L174.4,172.9z M174.4,181.8
			l-3.3,2v-3.9v-4l3.3,1.9l3.4,2.1L174.4,181.8z M174.4,211.8l3.4-1.9v4v3.9l-3.4-2l-3.3-1.9L174.4,211.8z M182.2,177l-3.3,2v-4v-4
			l3.3,1.9l3.4,2.1L182.2,177z M182.2,206.9l3.4-1.9v4v3.9l-3.4-2l-3.3-1.9L182.2,206.9z M182.2,215.8l-3.3,2v-3.9v-4l3.3,1.9
			l3.4,2.1L182.2,215.8z M189.9,181.8l-3.3,2v-3.9v-4l3.3,1.9l3.4,2.1L189.9,181.8z M189.9,182.6l3.4-1.9v4v3.9l-3.4-2l-3.3-1.9
			L189.9,182.6z M189.9,191.5l-3.3,2v-3.9v-4l3.3,1.9l3.4,2.1L189.9,191.5z M189.9,192.4l3.4-1.9v4v3.9l-3.4-2l-3.3-1.9L189.9,192.4
			z M189.9,201.2l-3.3,2v-3.9v-4l3.3,1.9l3.4,2.1L189.9,201.2z M189.9,202.1l3.4-1.9v4v3.9l-3.4-2l-3.3-1.9L189.9,202.1z
			 M189.9,210.9l-3.3,2V209v-4l3.3,1.9l3.4,2.1L189.9,210.9z"/>
		<path class="st1" d="M200,177.7l3.4-1.9v4v3.9l-3.4-2l-3.3-1.9L200,177.7z M200,186.7l-3.3,2v-3.9v-4l3.3,1.9l3.4,2.1L200,186.7z
			 M200,187.5l3.4-1.9v4v3.9l-3.4-2l-3.3-1.9L200,187.5z M200,196.4l-3.3,2v-3.9v-4l3.3,1.9l3.4,2.1L200,196.4z M200,197.2l3.4-1.9
			v4v3.9l-3.4-2l-3.3-1.9L200,197.2z M200,206.1l-3.3,2v-3.9v-4l3.3,1.9l3.4,2.1L200,206.1z M200,206.9l3.4-1.9v4v3.9l-3.4-2
			l-3.3-1.9L200,206.9z M200,215.8l-3.3,2v-3.9v-4l3.3,1.9l3.4,2.1L200,215.8z M207.7,172.9l3.4-1.9v4v3.9l-3.4-2l-3.3-1.9
			L207.7,172.9z M207.7,181.8l-3.3,2v-3.9v-4l3.3,1.9l3.4,2.1L207.7,181.8z M207.7,192.4l3.4-1.9v4v3.9l-3.4-2l-3.3-1.9L207.7,192.4
			z M207.7,201.2l-3.3,2v-3.9v-4l3.3,1.9l3.4,2.1L207.7,201.2z M215.5,177l-3.3,2v-4v-4l3.3,1.9l3.4,2.1L215.5,177z M215.5,187.5
			l3.4-1.9v4v3.9l-3.4-2l-3.3-1.9L215.5,187.5z M215.5,196.4l-3.3,2v-3.9v-4l3.3,1.9l3.4,2.1L215.5,196.4z M215.5,197.2l3.4-1.9v4
			v3.9l-3.4-2l-3.3-1.9L215.5,197.2z M223.3,181.8l-3.3,2v-3.9v-4l3.3,1.9l3.4,2.1L223.3,181.8z M223.3,182.6l3.4-1.9v4v3.9l-3.4-2
			l-3.3-1.9L223.3,182.6z M223.3,191.5l-3.3,2v-3.9v-4l3.3,1.9l3.4,2.1L223.3,191.5z M223.3,201.2l-3.3,2v-3.9v-4l3.3,1.9l3.4,2.1
			L223.3,201.2z M223.3,202.1l3.4-1.9v4v3.9l-3.4-2l-3.3-1.9L223.3,202.1z M223.3,210.9l-3.3,2V209v-4l3.3,1.9l3.4,2.1L223.3,210.9z
			"/>
		<path class="st1" d="M233.3,172.9l3.4-1.9v4v3.9l-3.4-2L230,175L233.3,172.9z M233.3,181.8l-3.3,2v-3.9v-4l3.3,1.9l3.4,2.1
			L233.3,181.8z M233.3,182.6l3.4-1.9v4v3.9l-3.4-2l-3.3-1.9L233.3,182.6z M233.3,191.5l-3.3,2v-3.9v-4l3.3,1.9l3.4,2.1L233.3,191.5
			z M233.3,192.4l3.4-1.9v4v3.9l-3.4-2l-3.3-1.9L233.3,192.4z M233.3,201.2l-3.3,2v-3.9v-4l3.3,1.9l3.4,2.1L233.3,201.2z
			 M233.3,202.1l3.4-1.9v4v3.9l-3.4-2l-3.3-1.9L233.3,202.1z M233.3,210.9l-3.3,2V209v-4l3.3,1.9l3.4,2.1L233.3,210.9z"/>
		<path class="st1" d="M243.3,177.7l3.4-1.9v4v3.9l-3.4-2l-3.3-1.9L243.3,177.7z M243.3,186.7l-3.3,2v-3.9v-4l3.3,1.9l3.4,2.1
			L243.3,186.7z M243.3,187.5l3.4-1.9v4v3.9l-3.4-2l-3.3-1.9L243.3,187.5z M243.3,197.2l3.4-1.9v4v3.9l-3.4-2l-3.3-1.9L243.3,197.2z
			 M243.3,206.1l-3.3,2v-3.9v-4l3.3,1.9l3.4,2.1L243.3,206.1z M243.3,206.9l3.4-1.9v4v3.9l-3.4-2L240,209L243.3,206.9z M251.1,172.9
			l3.4-1.9v4v3.9l-3.4-2l-3.3-1.9L251.1,172.9z M251.1,181.8l-3.3,2v-3.9v-4l3.3,1.9l3.4,2.1L251.1,181.8z M251.1,191.5l-3.3,2v-3.9
			v-4l3.3,1.9l3.4,2.1L251.1,191.5z M251.1,201.2l-3.3,2v-3.9v-4l3.3,1.9l3.4,2.1L251.1,201.2z M251.1,211.8l3.4-1.9v4v3.9l-3.4-2
			l-3.3-1.9L251.1,211.8z M258.9,177l-3.3,2v-4v-4l3.3,1.9l3.4,2.1L258.9,177z M258.9,177.7l3.4-1.9v4v3.9l-3.4-2l-3.3-1.9
			L258.9,177.7z M258.9,206.9l3.4-1.9v4v3.9l-3.4-2l-3.3-1.9L258.9,206.9z M258.9,215.8l-3.3,2v-3.9v-4l3.3,1.9l3.4,2.1L258.9,215.8
			z M266.7,181.8l-3.3,2v-3.9v-4l3.3,1.9l3.4,2.1L266.7,181.8z M266.7,210.9l-3.3,2V209v-4l3.3,1.9l3.4,2.1L266.7,210.9z"/>
		<path class="st1" d="M276.7,177.9l3.4-2.1v4v3.9l-3.4-2l-3.3-1.9L276.7,177.9z M280.2,184.7l-3.4,1.9l-3.3,2v-3.9v-4l3.3,2.1
			L280.2,184.7z M276.7,187.6l3.4-2.1v4v3.9l-3.4-2l-3.3-1.9L276.7,187.6z M280.2,204.2l-3.4,1.9l-3.3,2v-3.9v-4l3.3,2.1
			L280.2,204.2z M276.7,207.1l3.4-2.1v4v3.9l-3.4-2l-3.3-1.9L276.7,207.1z M281.1,174.9l3.3-1.9l3.4-2.1v4v3.9l-3.4-2L281.1,174.9z
			 M284.4,181.8l-3.3,2v-3.9v-4l3.3,2.1l3.4,1.9L284.4,181.8z M284.4,191.5l-3.3,2v-3.9v-4l3.3,2.1l3.4,1.9L284.4,191.5z
			 M281.1,194.4l3.3-1.9l3.4-2.1v4v3.9l-3.4-2L281.1,194.4z M281.1,213.9l3.3-1.9l3.4-2.1v4v3.9l-3.4-2L281.1,213.9z M295.6,174.9
			l-3.4,1.9l-3.3,2v-3.9v-4l3.3,2.1L295.6,174.9z M292.2,177.9l3.4-2.1v4v3.9l-3.4-2l-3.3-1.9L292.2,177.9z M295.6,194.4l-3.4,1.9
			l-3.3,2v-3.9v-4l3.3,2.1L295.6,194.4z M292.2,197.3l3.4-2.1v4v3.9l-3.4-2l-3.3-1.9L292.2,197.3z M292.2,207.1l3.4-2.1v4v3.9
			l-3.4-2l-3.3-1.9L292.2,207.1z M295.6,213.9l-3.4,1.9l-3.3,2v-3.9v-4l3.3,2.1L295.6,213.9z M300,181.8l-3.3,2v-3.9v-4l3.3,2.1
			l3.4,1.9L300,181.8z M300,201.2l-3.3,2v-3.9v-4l3.3,2.1l3.4,1.9L300,201.2z M296.6,204.2l3.3-1.9l3.4-2.1v4v3.9l-3.4-2
			L296.6,204.2z M300,210.9l-3.3,2V209v-4l3.3,2.1l3.4,1.9L300,210.9z"/>
	</g>
</g>
</svg>
