<?xml version="1.0" encoding="utf-8"?>
<!-- Generator: Adobe Illustrator 26.0.1, SVG Export Plug-In . SVG Version: 6.00 Build 0)  -->
<svg version="1.1" id="Слой_1" xmlns="http://www.w3.org/2000/svg" xmlns:xlink="http://www.w3.org/1999/xlink" x="0px" y="0px"
	 viewBox="0 0 400 400" style="enable-background:new 0 0 400 400;" xml:space="preserve">
<style type="text/css">
	.st0{fill:#F8F8F8;}
	.st1{fill:#713F13;}
	.st2{fill:#FFFFFF;}
	.st3{fill:#DE7C29;}
	.st4{clip-path:url(#SVGID_00000094577391271312629270000004677330757857086909_);}
	.st5{fill:#FFDA48;}
	
		.st6{clip-path:url(#SVGID_00000013914866080934668580000011885130255124378006_);fill:none;stroke:#713F13;stroke-width:21;stroke-miterlimit:10;}
	.st7{clip-path:url(#SVGID_00000013914866080934668580000011885130255124378006_);}
</style>
<rect x="-30.9" y="-21.5" class="st0" width="461.7" height="444.1"/>
<g>
	<g>
		<path class="st1" d="M32.2,39c0-9.8,5.8-13.8,13.6-13.8s12.6,3.6,12.6,9.1v0.4H50v-0.4c0-1.8-1.3-2-4.3-2c-4,0-5.6,0.6-5.6,5.2
			v1.4h0.5c1.2-1.7,3.7-3.2,8.1-3.2c6.6,0,10.1,2.4,10.1,7.9c0,5.4-4.2,8.8-12.4,8.8C36.2,52.4,32.2,48.1,32.2,39z M51.1,43.1
			c0-1.7-0.8-2.3-5.1-2.3c-4.7,0-5.5,0.6-5.5,2.3c0,1.5,0.8,2.2,5.5,2.2C50.3,45.3,51.1,44.6,51.1,43.1z"/>
		<path class="st1" d="M60.6,38.8c0-8.1,4.7-13.6,13.7-13.6S88,30.7,88,38.8s-4.7,13.6-13.7,13.6S60.6,47,60.6,38.8z M80,38.8
			c0-4.9-1.2-6.4-5.7-6.4s-5.7,1.5-5.7,6.4s1.2,6.4,5.7,6.4S80,43.7,80,38.8z"/>
		<path class="st1" d="M95.5,52V32.1h7v6h0.4c0.4-3.3,2.3-6.4,7.3-6.4c4.7,0,7,2.8,7.3,6.4h0.4c0.4-3.3,2.3-6.4,7.5-6.4
			c5.1,0,7.5,3.2,7.5,7.5V52h-7.4V42c0-2.8-0.8-3.6-3.9-3.6c-3,0-3.7,0.8-3.7,3.4V52h-7.4V42c0-2.8-0.8-3.6-3.9-3.6
			c-3,0-3.7,0.8-3.7,3.4V52H95.5z"/>
		<path class="st1" d="M135.1,30.3v-4.7h7.4v4.7H135.1z M135.1,52V32.1h7.4V52H135.1z"/>
		<path class="st1" d="M144.9,52V32.1h7v6h0.4c0.4-3.3,2.6-6.4,7.9-6.4c5.4,0,7.9,3.2,7.9,7.5V52h-7.4V42c0-2.8-1-3.6-4.3-3.6
			s-4.1,0.8-4.1,3.4V52H144.9z"/>
		<path class="st1" d="M170.3,52v-7.6h9.6V52H170.3z"/>
	</g>
	<g>
		<path class="st1" d="M312.7,52V33.9h-7.1v-5h1c2.9,0,5.1-0.6,6.6-3.3h6.9V52H312.7z"/>
		<path class="st1" d="M321.9,52v-4.7c0-4.5,2.1-6.8,7.8-8.7l7.2-2.3c1.7-0.6,2.4-1.1,2.4-2.3c0-1.3-0.5-2.2-4.5-2.2
			c-4.4,0-5.4,1.1-5.4,3.5V36H322v-0.6c0-5.3,3.6-10.2,13-10.2c8.4,0,11.7,3.7,11.7,9.1c0,5-3.3,7.3-8.1,8.5l-5.9,1.5
			c-1.7,0.4-3,0.7-3,2.1l7.4-0.9h9.4V52H321.9z"/>
		<path class="st1" d="M354.8,48.2v-6.3h-6.2v-6.1h6.2v-6.3h6.3v6.3h6.2v6.1h-6.2v6.3H354.8z"/>
	</g>
</g>
<g>
	<g>
		<path class="st1" d="M99.9,96.6l3.4-1.9v4v3.9l-3.4-2l-3.3-1.9L99.9,96.6z M99.9,105.5l-3.3,2v-3.9v-4l3.3,1.9l3.4,2.1L99.9,105.5
			z M99.9,106.3l3.4-1.9v4v3.9l-3.4-2l-3.3-1.9L99.9,106.3z M99.9,115.2l-3.3,2v-3.9v-4l3.3,1.9l3.4,2.1L99.9,115.2z M99.9,116.1
			l3.4-1.9v4v3.9l-3.4-2l-3.3-1.9L99.9,116.1z M99.9,124.9l-3.3,2V123v-4l3.3,1.9l3.4,2.1L99.9,124.9z M99.9,125.8l3.4-1.9v4v3.9
			l-3.4-2l-3.3-1.9L99.9,125.8z M99.9,134.6l-3.3,2v-3.9v-4l3.3,1.9l3.4,2.1L99.9,134.6z M107.7,91.7l3.4-1.9v4v3.9l-3.4-2l-3.3-1.9
			L107.7,91.7z M107.7,100.7l-3.3,2v-3.9v-4l3.3,1.9l3.4,2.1L107.7,100.7z M107.7,111.2l3.4-1.9v4v3.9l-3.4-2l-3.3-1.9L107.7,111.2z
			 M115.5,95.8l-3.3,2v-3.9v-4l3.3,1.9l3.4,2.1L115.5,95.8z M115.5,106.3l3.4-1.9v4v3.9l-3.4-2l-3.3-1.9L115.5,106.3z M115.5,115.2
			l-3.3,2v-3.9v-4l3.3,1.9l3.4,2.1L115.5,115.2z M123.3,100.7l-3.3,2v-3.9v-4l3.3,1.9l3.4,2.1L123.3,100.7z M123.3,101.4l3.4-1.9v4
			v3.9l-3.4-2l-3.3-1.9L123.3,101.4z M123.3,110.4l-3.3,2v-3.9v-4l3.3,1.9l3.4,2.1L123.3,110.4z"/>
		<path class="st1" d="M133.2,96.5l3.4-1.9v3.9v4l-3.4-2.1l-3.3-1.9L133.2,96.5z M133.2,105.4l-3.3,2.1v-4v-3.9l3.3,1.9l3.4,2
			L133.2,105.4z M133.2,106.3l3.4-1.9v3.9v4l-3.4-2.1l-3.3-1.9L133.2,106.3z M141,110.2l-3.3,2.1v-4v-3.9l3.3,1.9l3.4,2L141,110.2z
			 M141,111.2l3.4-1.9v3.9v4l-3.4-2.1l-3.3-1.9L141,111.2z M141,119.9l-3.3,2.1v-4v-3.9l3.3,1.9l3.4,2L141,119.9z M141,120.9
			l3.4-1.9v3.9v4l-3.4-2.1l-3.3-1.9L141,120.9z M141,129.6l-3.3,2.1v-4v-3.9l3.3,1.9l3.4,2L141,129.6z M141,130.6l3.4-1.9v3.9v4
			l-3.4-2.1l-3.3-1.9L141,130.6z M148.8,106.3l3.4-1.9v3.9v4l-3.4-2.1l-3.3-1.9L148.8,106.3z M148.8,115.1l-3.3,2.1v-4v-4l3.3,1.9
			l3.4,2L148.8,115.1z M156.6,91.7l3.4-1.9v3.9v4l-3.4-2.1l-3.3-1.9L156.6,91.7z M156.6,100.5l-3.3,2.1v-4v-3.9l3.3,1.9l3.4,2
			L156.6,100.5z M156.6,101.4l3.4-1.9v3.9v4l-3.4-2.1l-3.3-1.9L156.6,101.4z M156.6,110.2l-3.3,2.1v-4v-3.9l3.3,1.9l3.4,2
			L156.6,110.2z"/>
		<path class="st1" d="M166.7,96.6l3.4-1.9v4v3.9l-3.4-2l-3.3-1.9L166.7,96.6z M166.7,105.5l-3.3,2v-3.9v-4l3.3,1.9l3.4,2.1
			L166.7,105.5z M166.7,106.3l3.4-1.9v4v3.9l-3.4-2l-3.3-1.9L166.7,106.3z M166.7,115.2l-3.3,2v-3.9v-4l3.3,1.9l3.4,2.1L166.7,115.2
			z M166.7,116.1l3.4-1.9v4v3.9l-3.4-2l-3.3-1.9L166.7,116.1z M166.7,124.9l-3.3,2V123v-4l3.3,1.9l3.4,2.1L166.7,124.9z
			 M166.7,125.8l3.4-1.9v4v3.9l-3.4-2l-3.3-1.9L166.7,125.8z M166.7,134.6l-3.3,2v-3.9v-4l3.3,1.9l3.4,2.1L166.7,134.6z M174.4,91.7
			l3.4-1.9v4v3.9l-3.4-2l-3.3-1.9L174.4,91.7z M174.4,100.7l-3.3,2v-3.9v-4l3.3,1.9l3.4,2.1L174.4,100.7z M174.4,111.2l3.4-1.9v4
			v3.9l-3.4-2l-3.3-1.9L174.4,111.2z M174.4,120.1l-3.3,2v-3.9v-4l3.3,1.9l3.4,2.1L174.4,120.1z M182.2,95.8l-3.3,2v-3.9v-4l3.3,1.9
			l3.4,2.1L182.2,95.8z M182.2,106.3l3.4-1.9v4v3.9l-3.4-2l-3.3-1.9L182.2,106.3z M182.2,115.2l-3.3,2v-3.9v-4l3.3,1.9l3.4,2.1
			L182.2,115.2z M182.2,116.1l3.4-1.9v4v3.9l-3.4-2l-3.3-1.9L182.2,116.1z M189.9,100.7l-3.3,2v-3.9v-4l3.3,1.9l3.4,2.1L189.9,100.7
			z M189.9,101.4l3.4-1.9v4v3.9l-3.4-2l-3.3-1.9L189.9,101.4z M189.9,110.4l-3.3,2v-3.9v-4l3.3,1.9l3.4,2.1L189.9,110.4z
			 M189.9,120.1l-3.3,2v-3.9v-4l3.3,1.9l3.4,2.1L189.9,120.1z M189.9,120.9l3.4-1.9v4v3.9l-3.4-2l-3.3-1.9L189.9,120.9z
			 M189.9,129.8l-3.3,2v-3.9v-4l3.3,1.9l3.4,2.1L189.9,129.8z"/>
		<path class="st1" d="M200,96.6l3.4-1.9v4v3.9l-3.4-2l-3.3-1.9L200,96.6z M200,105.5l-3.3,2v-3.9v-4l3.3,1.9l3.4,2.1L200,105.5z
			 M200,106.3l3.4-1.9v4v3.9l-3.4-2l-3.3-1.9L200,106.3z M200,115.2l-3.3,2v-3.9v-4l3.3,1.9l3.4,2.1L200,115.2z M200,116.1l3.4-1.9
			v4v3.9l-3.4-2l-3.3-1.9L200,116.1z M200,124.9l-3.3,2V123v-4l3.3,1.9l3.4,2.1L200,124.9z M200,125.8l3.4-1.9v4v3.9l-3.4-2
			l-3.3-1.9L200,125.8z M200,134.6l-3.3,2v-3.9v-4l3.3,1.9l3.4,2.1L200,134.6z M207.7,91.7l3.4-1.9v4v3.9l-3.4-2l-3.3-1.9
			L207.7,91.7z M207.7,100.7l-3.3,2v-3.9v-4l3.3,1.9l3.4,2.1L207.7,100.7z M207.7,120.9l3.4-1.9v4v3.9l-3.4-2l-3.3-1.9L207.7,120.9z
			 M215.5,95.8l-3.3,2v-3.9v-4l3.3,1.9l3.4,2.1L215.5,95.8z M215.5,116.1l3.4-1.9v4v3.9l-3.4-2l-3.3-1.9L215.5,116.1z M215.5,124.9
			l-3.3,2V123v-4l3.3,1.9l3.4,2.1L215.5,124.9z M223.3,100.7l-3.3,2v-3.9v-4l3.3,1.9l3.4,2.1L223.3,100.7z M223.3,101.4l3.4-1.9v4
			v3.9l-3.4-2l-3.3-1.9L223.3,101.4z M223.3,110.4l-3.3,2v-3.9v-4l3.3,1.9l3.4,2.1L223.3,110.4z M223.3,111.2l3.4-1.9v4v3.9l-3.4-2
			l-3.3-1.9L223.3,111.2z M223.3,120.1l-3.3,2v-3.9v-4l3.3,1.9l3.4,2.1L223.3,120.1z M223.3,120.9l3.4-1.9v4v3.9l-3.4-2L220,123
			L223.3,120.9z M223.3,129.8l-3.3,2v-3.9v-4l3.3,1.9l3.4,2.1L223.3,129.8z"/>
		<path class="st1" d="M233.3,96.6l3.4-1.9v4v3.9l-3.4-2l-3.3-1.9L233.3,96.6z M233.3,105.5l-3.3,2v-3.9v-4l3.3,1.9l3.4,2.1
			L233.3,105.5z M233.3,106.3l3.4-1.9v4v3.9l-3.4-2l-3.3-1.9L233.3,106.3z M233.3,115.2l-3.3,2v-3.9v-4l3.3,1.9l3.4,2.1L233.3,115.2
			z M233.3,116.1l3.4-1.9v4v3.9l-3.4-2l-3.3-1.9L233.3,116.1z M233.3,124.9l-3.3,2V123v-4l3.3,1.9l3.4,2.1L233.3,124.9z
			 M233.3,125.8l3.4-1.9v4v3.9l-3.4-2l-3.3-1.9L233.3,125.8z M233.3,134.6l-3.3,2v-3.9v-4l3.3,1.9l3.4,2.1L233.3,134.6z
			 M241.1,100.7l-3.3,2v-3.9v-4l3.3,1.9l3.4,2.1L241.1,100.7z M241.1,101.4l3.4-1.9v4v3.9l-3.4-2l-3.3-1.9L241.1,101.4z M248.8,96.6
			l3.4-1.9v4v3.9l-3.4-2l-3.3-1.9L248.8,96.6z M248.8,105.5l-3.3,2v-3.9v-4l3.3,1.9l3.4,2.1L248.8,105.5z M256.6,91.7l3.4-1.9v4v3.9
			l-3.4-2l-3.3-1.9L256.6,91.7z M256.6,100.7l-3.3,2v-3.9v-4l3.3,1.9l3.4,2.1L256.6,100.7z M256.6,101.4l3.4-1.9v4v3.9l-3.4-2
			l-3.3-1.9L256.6,101.4z M256.6,110.4l-3.3,2v-3.9v-4l3.3,1.9l3.4,2.1L256.6,110.4z M256.6,111.2l3.4-1.9v4v3.9l-3.4-2l-3.3-1.9
			L256.6,111.2z M256.6,120.1l-3.3,2v-3.9v-4l3.3,1.9l3.4,2.1L256.6,120.1z M256.6,120.9l3.4-1.9v4v3.9l-3.4-2l-3.3-1.9L256.6,120.9
			z M256.6,129.8l-3.3,2v-3.9v-4l3.3,1.9l3.4,2.1L256.6,129.8z"/>
		<path class="st1" d="M266.7,91.7l3.4-1.9v4v3.9l-3.4-2l-3.3-1.9L266.7,91.7z M266.7,100.7l-3.3,2v-3.9v-4l3.3,1.9l3.4,2.1
			L266.7,100.7z M266.7,101.4l3.4-1.9v4v3.9l-3.4-2l-3.3-1.9L266.7,101.4z M266.7,110.4l-3.3,2v-3.9v-4l3.3,1.9l3.4,2.1L266.7,110.4
			z M266.7,111.2l3.4-1.9v4v3.9l-3.4-2l-3.3-1.9L266.7,111.2z M266.7,120.1l-3.3,2v-3.9v-4l3.3,1.9l3.4,2.1L266.7,120.1z
			 M266.7,120.9l3.4-1.9v4v3.9l-3.4-2l-3.3-1.9L266.7,120.9z M266.7,129.8l-3.3,2v-3.9v-4l3.3,1.9l3.4,2.1L266.7,129.8z"/>
		<path class="st1" d="M276.7,96.6l3.4-1.9v4v3.9l-3.4-2l-3.3-1.9L276.7,96.6z M276.7,105.5l-3.3,2v-3.9v-4l3.3,1.9l3.4,2.1
			L276.7,105.5z M276.7,106.3l3.4-1.9v4v3.9l-3.4-2l-3.3-1.9L276.7,106.3z M276.7,115.2l-3.3,2v-3.9v-4l3.3,1.9l3.4,2.1L276.7,115.2
			z M276.7,116.1l3.4-1.9v4v3.9l-3.4-2l-3.3-1.9L276.7,116.1z M276.7,124.9l-3.3,2V123v-4l3.3,1.9l3.4,2.1L276.7,124.9z
			 M276.7,125.8l3.4-1.9v4v3.9l-3.4-2l-3.3-1.9L276.7,125.8z M284.4,91.7l3.4-1.9v4v3.9l-3.4-2l-3.3-1.9L284.4,91.7z M284.4,100.7
			l-3.3,2v-3.9v-4l3.3,1.9l3.4,2.1L284.4,100.7z M284.4,110.4l-3.3,2v-3.9v-4l3.3,1.9l3.4,2.1L284.4,110.4z M284.4,111.2l3.4-1.9v4
			v3.9l-3.4-2l-3.3-1.9L284.4,111.2z M284.4,120.1l-3.3,2v-3.9v-4l3.3,1.9l3.4,2.1L284.4,120.1z M284.4,130.6l3.4-1.9v4v3.9l-3.4-2
			l-3.3-1.9L284.4,130.6z M292.2,95.8l-3.3,2v-3.9v-4l3.3,1.9l3.4,2.1L292.2,95.8z M292.2,125.8l3.4-1.9v4v3.9l-3.4-2l-3.3-1.9
			L292.2,125.8z M292.2,134.6l-3.3,2v-3.9v-4l3.3,1.9l3.4,2.1L292.2,134.6z M300,100.7l-3.3,2v-3.9v-4l3.3,1.9l3.4,2.1L300,100.7z
			 M300,101.4l3.4-1.9v4v3.9l-3.4-2l-3.3-1.9L300,101.4z M300,110.4l-3.3,2v-3.9v-4l3.3,1.9l3.4,2.1L300,110.4z M300,111.2l3.4-1.9
			v4v3.9l-3.4-2l-3.3-1.9L300,111.2z M300,120.1l-3.3,2v-3.9v-4l3.3,1.9l3.4,2.1L300,120.1z M300,120.9l3.4-1.9v4v3.9l-3.4-2
			l-3.3-1.9L300,120.9z M300,129.8l-3.3,2v-3.9v-4l3.3,1.9l3.4,2.1L300,129.8z"/>
	</g>
	<g>
		<path class="st1" d="M99.9,154.1l3.4-2.1v4v3.9l-3.4-2l-3.3-1.9L99.9,154.1z M103.4,160.9l-3.4,1.9l-3.3,2v-3.9v-4l3.3,2.1
			L103.4,160.9z M99.9,163.8l3.4-2.1v4v3.9l-3.4-2l-3.3-1.9L99.9,163.8z M103.4,180.4l-3.4,1.9l-3.3,2v-3.9v-4l3.3,2.1L103.4,180.4z
			 M99.9,183.3l3.4-2.1v4v3.9l-3.4-2l-3.3-1.9L99.9,183.3z M104.4,151.1l3.3-1.9l3.4-2.1v4v3.9l-3.4-2L104.4,151.1z M107.7,158
			l-3.3,2v-3.9v-4l3.3,2.1l3.4,1.9L107.7,158z M107.7,167.7l-3.3,2v-3.9v-4l3.3,2.1l3.4,1.9L107.7,167.7z M104.4,170.6l3.3-1.9
			l3.4-2.1v4v3.9l-3.4-2L104.4,170.6z M104.4,190.1l3.3-1.9l3.4-2.1v4v3.9l-3.4-2L104.4,190.1z M118.9,151.1l-3.4,1.9l-3.3,2v-3.9
			v-4l3.3,2.1L118.9,151.1z M115.5,154.1l3.4-2.1v4v3.9l-3.4-2l-3.3-1.9L115.5,154.1z M118.9,170.6l-3.4,1.9l-3.3,2v-3.9v-4l3.3,2.1
			L118.9,170.6z M115.5,173.5l3.4-2.1v4v3.9l-3.4-2l-3.3-1.9L115.5,173.5z M115.5,183.3l3.4-2.1v4v3.9l-3.4-2l-3.3-1.9L115.5,183.3z
			 M118.9,190.1l-3.4,1.9l-3.3,2v-3.9v-4l3.3,2.1L118.9,190.1z M123.3,158l-3.3,2v-3.9v-4l3.3,2.1l3.4,1.9L123.3,158z M123.3,177.4
			l-3.3,2v-3.9v-4l3.3,2.1l3.4,1.9L123.3,177.4z M119.9,180.4l3.3-1.9l3.4-2.1v4v3.9l-3.4-2L119.9,180.4z M123.3,187.1l-3.3,2v-3.9
			v-4l3.3,2.1l3.4,1.9L123.3,187.1z"/>
		<path class="st1" d="M133.2,153.9l3.4-1.9v4v3.9l-3.4-2l-3.3-1.9L133.2,153.9z M133.2,162.9l-3.3,2V161v-4l3.3,1.9l3.4,2.1
			L133.2,162.9z M141,149.1l3.4-1.9v4v3.9l-3.4-2l-3.3-1.9L141,149.1z M141,158l-3.3,2v-3.9v-4l3.3,1.9l3.4,2.1L141,158z M141,158.8
			l3.4-1.9v4v3.9l-3.4-2l-3.3-1.9L141,158.8z M141,167.7l-3.3,2v-3.9v-4l3.3,1.9l3.4,2.1L141,167.7z M141,168.6l3.4-1.9v4v3.9
			l-3.4-2l-3.3-1.9L141,168.6z M141,177.4l-3.3,2v-3.9v-4l3.3,1.9l3.4,2.1L141,177.4z M141,178.3l3.4-1.9v4v3.9l-3.4-2l-3.3-1.9
			L141,178.3z M141,187.1l-3.3,2v-3.9v-4l3.3,1.9l3.4,2.1L141,187.1z M141,188l3.4-1.9v4v3.9l-3.4-2l-3.3-1.9L141,188z M148.8,153.2
			l-3.3,2v-4v-4l3.3,1.9l3.4,2.1L148.8,153.2z M148.8,153.9l3.4-1.9v4v3.9l-3.4-2l-3.3-1.9L148.8,153.9z M156.6,158l-3.3,2v-3.9v-4
			l3.3,1.9l3.4,2.1L156.6,158z"/>
		<path class="st1" d="M166.7,153.9l3.4-1.9v4v3.9l-3.4-2l-3.3-1.9L166.7,153.9z M166.7,162.9l-3.3,2V161v-4l3.3,1.9l3.4,2.1
			L166.7,162.9z M166.7,163.7l3.4-1.9v4v3.9l-3.4-2l-3.3-1.9L166.7,163.7z M166.7,172.6l-3.3,2v-3.9v-4l3.3,1.9l3.4,2.1L166.7,172.6
			z M166.7,173.4l3.4-1.9v4v3.9l-3.4-2l-3.3-1.9L166.7,173.4z M166.7,182.3l-3.3,2v-3.9v-4l3.3,1.9l3.4,2.1L166.7,182.3z
			 M166.7,183.1l3.4-1.9v4v3.9l-3.4-2l-3.3-1.9L166.7,183.1z M174.4,149.1l3.4-1.9v4v3.9l-3.4-2l-3.4-1.9L174.4,149.1z M174.4,158
			l-3.3,2v-3.9v-4l3.3,1.9l3.4,2.1L174.4,158z M174.4,188l3.4-1.9v4v3.9l-3.4-2l-3.3-1.9L174.4,188z M182.2,153.2l-3.3,2v-4v-4
			l3.3,1.9l3.4,2.1L182.2,153.2z M182.2,183.1l3.4-1.9v4v3.9l-3.4-2l-3.3-1.9L182.2,183.1z M182.2,192l-3.3,2v-3.9v-4l3.3,1.9
			l3.4,2.1L182.2,192z M189.9,158l-3.3,2v-3.9v-4l3.3,1.9l3.4,2.1L189.9,158z M189.9,158.8l3.4-1.9v4v3.9l-3.4-2l-3.3-1.9
			L189.9,158.8z M189.9,167.7l-3.3,2v-3.9v-4l3.3,1.9l3.4,2.1L189.9,167.7z M189.9,168.6l3.4-1.9v4v3.9l-3.4-2l-3.3-1.9L189.9,168.6
			z M189.9,177.4l-3.3,2v-3.9v-4l3.3,1.9l3.4,2.1L189.9,177.4z M189.9,178.3l3.4-1.9v4v3.9l-3.4-2l-3.3-1.9L189.9,178.3z
			 M189.9,187.1l-3.3,2v-3.9v-4l3.3,1.9l3.4,2.1L189.9,187.1z"/>
		<path class="st1" d="M200,153.9l3.4-1.9v4v3.9l-3.4-2l-3.3-1.9L200,153.9z M200,162.9l-3.3,2V161v-4l3.3,1.9l3.4,2.1L200,162.9z
			 M200,163.7l3.4-1.9v4v3.9l-3.4-2l-3.3-1.9L200,163.7z M200,172.6l-3.3,2v-3.9v-4l3.3,1.9l3.4,2.1L200,172.6z M200,173.4l3.4-1.9
			v4v3.9l-3.4-2l-3.3-1.9L200,173.4z M200,182.3l-3.3,2v-3.9v-4l3.3,1.9l3.4,2.1L200,182.3z M200,183.1l3.4-1.9v4v3.9l-3.4-2
			l-3.3-1.9L200,183.1z M200,192l-3.3,2v-3.9v-4l3.3,1.9l3.4,2.1L200,192z M207.7,149.1l3.4-1.9v4v3.9l-3.4-2l-3.3-1.9L207.7,149.1z
			 M207.7,158l-3.3,2v-3.9v-4l3.3,1.9l3.4,2.1L207.7,158z M207.7,168.6l3.4-1.9v4v3.9l-3.4-2l-3.3-1.9L207.7,168.6z M207.7,177.4
			l-3.3,2v-3.9v-4l3.3,1.9l3.4,2.1L207.7,177.4z M215.5,153.2l-3.3,2v-4v-4l3.3,1.9l3.4,2.1L215.5,153.2z M215.5,163.7l3.4-1.9v4
			v3.9l-3.4-2l-3.3-1.9L215.5,163.7z M215.5,172.6l-3.3,2v-3.9v-4l3.3,1.9l3.4,2.1L215.5,172.6z M215.5,173.4l3.4-1.9v4v3.9l-3.4-2
			l-3.3-1.9L215.5,173.4z M223.3,158l-3.3,2v-3.9v-4l3.3,1.9l3.4,2.1L223.3,158z M223.3,158.8l3.4-1.9v4v3.9l-3.4-2l-3.3-1.9
			L223.3,158.8z M223.3,167.7l-3.3,2v-3.9v-4l3.3,1.9l3.4,2.1L223.3,167.7z M223.3,177.4l-3.3,2v-3.9v-4l3.3,1.9l3.4,2.1
			L223.3,177.4z M223.3,178.3l3.4-1.9v4v3.9l-3.4-2l-3.3-1.9L223.3,178.3z M223.3,187.1l-3.3,2v-3.9v-4l3.3,1.9l3.4,2.1L223.3,187.1
			z"/>
		<path class="st1" d="M233.3,149.1l3.4-1.9v4v3.9l-3.4-2l-3.3-1.9L233.3,149.1z M233.3,158l-3.3,2v-3.9v-4l3.3,1.9l3.4,2.1
			L233.3,158z M233.3,158.8l3.4-1.9v4v3.9l-3.4-2l-3.3-1.9L233.3,158.8z M233.3,167.7l-3.3,2v-3.9v-4l3.3,1.9l3.4,2.1L233.3,167.7z
			 M233.3,168.6l3.4-1.9v4v3.9l-3.4-2l-3.3-1.9L233.3,168.6z M233.3,177.4l-3.3,2v-3.9v-4l3.3,1.9l3.4,2.1L233.3,177.4z
			 M233.3,178.3l3.4-1.9v4v3.9l-3.4-2l-3.3-1.9L233.3,178.3z M233.3,187.1l-3.3,2v-3.9v-4l3.3,1.9l3.4,2.1L233.3,187.1z"/>
		<path class="st1" d="M243.3,153.9l3.4-1.9v4v3.9l-3.4-2L240,156L243.3,153.9z M243.3,162.9l-3.3,2V161v-4l3.3,1.9l3.4,2.1
			L243.3,162.9z M243.3,163.7l3.4-1.9v4v3.9l-3.4-2l-3.3-1.9L243.3,163.7z M243.3,173.4l3.4-1.9v4v3.9l-3.4-2l-3.3-1.9L243.3,173.4z
			 M243.3,182.3l-3.3,2v-3.9v-4l3.3,1.9l3.4,2.1L243.3,182.3z M243.3,183.1l3.4-1.9v4v3.9l-3.4-2l-3.3-1.9L243.3,183.1z
			 M251.1,149.1l3.4-1.9v4v3.9l-3.4-2l-3.3-1.9L251.1,149.1z M251.1,158l-3.3,2v-3.9v-4l3.3,1.9l3.4,2.1L251.1,158z M251.1,167.7
			l-3.3,2v-3.9v-4l3.3,1.9l3.4,2.1L251.1,167.7z M251.1,177.4l-3.3,2v-3.9v-4l3.3,1.9l3.4,2.1L251.1,177.4z M251.1,188l3.4-1.9v4
			v3.9l-3.4-2l-3.3-1.9L251.1,188z M258.9,153.2l-3.3,2v-4v-4l3.3,1.9l3.4,2.1L258.9,153.2z M258.9,153.9l3.4-1.9v4v3.9l-3.4-2
			l-3.3-1.9L258.9,153.9z M258.9,183.1l3.4-1.9v4v3.9l-3.4-2l-3.3-1.9L258.9,183.1z M258.9,192l-3.3,2v-3.9v-4l3.3,1.9l3.4,2.1
			L258.9,192z M266.7,158l-3.3,2v-3.9v-4l3.3,1.9l3.4,2.1L266.7,158z M266.7,187.1l-3.3,2v-3.9v-4l3.3,1.9l3.4,2.1L266.7,187.1z"/>
		<path class="st1" d="M276.7,154.1l3.4-2.1v4v3.9l-3.4-2l-3.3-1.9L276.7,154.1z M280.2,160.9l-3.4,1.9l-3.3,2v-3.9v-4l3.3,2.1
			L280.2,160.9z M276.7,163.8l3.4-2.1v4v3.9l-3.4-2l-3.3-1.9L276.7,163.8z M280.2,180.4l-3.4,1.9l-3.3,2v-3.9v-4l3.3,2.1
			L280.2,180.4z M276.7,183.3l3.4-2.1v4v3.9l-3.4-2l-3.3-1.9L276.7,183.3z M281.1,151.1l3.3-1.9l3.4-2.1v4v3.9l-3.4-2L281.1,151.1z
			 M284.4,158l-3.3,2v-3.9v-4l3.3,2.1l3.4,1.9L284.4,158z M284.4,167.7l-3.3,2v-3.9v-4l3.3,2.1l3.4,1.9L284.4,167.7z M281.1,170.6
			l3.3-1.9l3.4-2.1v4v3.9l-3.4-2L281.1,170.6z M281.1,190.1l3.3-1.9l3.4-2.1v4v3.9l-3.4-2L281.1,190.1z M295.6,151.1l-3.4,1.9
			l-3.3,2v-3.9v-4l3.3,2.1L295.6,151.1z M292.2,154.1l3.4-2.1v4v3.9l-3.4-2l-3.3-1.9L292.2,154.1z M295.6,170.6l-3.4,1.9l-3.3,2
			v-3.9v-4l3.3,2.1L295.6,170.6z M292.2,173.5l3.4-2.1v4v3.9l-3.4-2l-3.3-1.9L292.2,173.5z M292.2,183.3l3.4-2.1v4v3.9l-3.4-2
			l-3.3-1.9L292.2,183.3z M295.6,190.1l-3.4,1.9l-3.3,2v-3.9v-4l3.3,2.1L295.6,190.1z M300,158l-3.3,2v-3.9v-4l3.3,2.1l3.4,1.9
			L300,158z M300,177.4l-3.3,2v-3.9v-4l3.3,2.1l3.4,1.9L300,177.4z M296.6,180.4l3.3-1.9l3.4-2.1v4v3.9l-3.4-2L296.6,180.4z
			 M300,187.1l-3.3,2v-3.9v-4l3.3,2.1l3.4,1.9L300,187.1z"/>
	</g>
</g>
<g>
	<g>
		<g>
			<g>
				<path class="st2" d="M296.3,242.1L296.3,242.1l4.1,0.4c0,0,0.1,0,0.1-0.1l9.2-16.1l0.3,0.3c4.7,5.9,9.4,12,13.9,17.9
					c1.6,2.1,3.2,4.1,4.8,6.2l9.4,12.1l1.8,2.4l0.1,0.1l3-0.1c0.1,0,0.1,0,0.1-0.1v-0.1l-33.9-44.6l-0.1-0.1l0,0c0,0-0.1,0-0.1,0.1
					l-12.7,21.5C296.3,242.1,296.3,242.1,296.3,242.1z"/>
				<path class="st2" d="M226.2,354.5l1.2-1.8c2.3-3.6,4.5-7.3,6.7-10.9l7.7-12.9c2.1-3.6,5-8.3,7.7-12.9l7.7-12.9l3.9-6.5l3.9-6.5
					c6.1-10.2,10.8-18.4,15.1-26.2c0-0.1,0-0.1,0-0.3c0,0,0,0-0.1,0c0,0-0.1,0-0.1,0.1c-4.7,7.5-9.7,15.6-15.9,25.6l-4,6.4L256,302
					l-7.7,12.9c-2.8,4.7-5.6,9.4-7.7,12.9l-7.7,12.9c-2.1,3.6-4.4,7.3-6.5,11.1l-1.2,2c-0.9,1.5-1.7,3-2.7,4.5c-1.5,2.7-3,5.3-4.7,8
					l-2.1-2.4c-2.1-2.6-4.5-5-6.7-7.5h-0.1h-0.1c-0.1,0-0.1,0.1,0,0.3c2.1,2.6,4.3,5.2,6.4,7.6l2.8,3.3h0.1l0,0c0,0,0.1,0,0.1-0.1
					l0.1-0.3c1.7-2.8,3.5-5.6,5-8.3C224.4,357.7,225.3,356,226.2,354.5z"/>
				<path class="st2" d="M213.5,349.1c0,0.1,0,0.1,0,0.3c0,0,0,0,0.1,0c0,0,0.1,0,0.1-0.1l16.7-23.5c-0.6,3.5-1.5,7-2.3,10.2
					c0,0.1,0,0.1,0.1,0.3l0,0c0.1,0,0.1,0,0.1-0.1c1.6-4.5,3-9.2,4.5-13.9l3-4.4L235,324c0,0.1,0,0.1,0.1,0.3l0,0
					c0.1,0,0.1,0,0.1-0.1l2.9-9.2l3.5-5l-1.2,7.1c0,0.1,0,0.1,0.1,0.3l0,0c0.1,0,0.1,0,0.1-0.1l3.2-10.6l4.4-6.1l-1.4,8.4
					c0,0.1,0,0.1,0.1,0.3l0,0c0.1,0,0.1,0,0.1-0.1l3.5-11.7l0,0l5-7c-0.4,2.7-0.8,5.3-1.1,7.9c0,0.1,0,0.1,0.1,0.1l0,0
					c0.1,0,0.1,0,0.1-0.1c0.9-3.8,2.1-7.7,3.3-11.5l3.3-4.7l-1.2,7.9c0,0.1,0,0.1,0.1,0.3l0,0c0.1,0,0.1,0,0.1-0.1l3.5-11.7l3-4.4
					l-0.6,5c0,0.1,0,0.1,0.1,0.1l0,0c0.1,0,0.1,0,0.1-0.1l2.8-8.5l27.3-38.4l0.8-1.5c0-0.1,0-0.1,0-0.3H297h-0.1L284,245.4v0.1
					l0.6,2l-1.4-1.1h-0.1h-0.1l-2.1,2.3v0.1l0.6,2.1l-1.5-1.2h0.6h-0.1l-2,2.3v0.1l0.8,2.4l-1.6-1.4h-0.1h-0.1l-2,2.1v0.1l0.9,2.6
					l-1.7-1.5h-0.1h-0.1l-2,2.1v0.1l1.1,2.7l-1.8-1.6h-0.4h-0.1l-2,2.1v0.1l1.1,2.9l-2-1.7h-0.1h-0.1l-1.8,2.1v0.1l1.2,3l-2.1-2
					h-0.1h-0.4l-1.8,2.1v0.1l1.4,3.3l-2.3-2.1h-0.1h-0.1l-1.8,2v0.1l1.5,3.5l-2.4-2.3h-0.1l0,0h-0.1l-1.8,2v0.1l1.6,3.6l-2.6-2.4
					h-0.1l0,0h-0.1l-1.8,2v0.1l1.7,3.9l-2.7-2.6h-0.1l0,0h-0.1l-1.8,2v0.1l1.8,4l-2.8-2.8h-0.1l0,0h-0.1l-1.8,2v0.1l1.8,4.1
					l-2.9-2.9h-0.1l0,0h-0.1l-1.7,2v0.1l2,4.4l-3-3h-0.1l0,0h-0.1l-1.7,2v0.1l2.1,4.5l-3.2-3.2h-0.1l0,0h-0.9l-1.7,1.8v0.1l2.3,4.7
					l-3.3-3.3h-0.1l0,0h-0.1l-1.7,1.8c0,0,0,0.1,0,0.3l2.4,4.8l-3.5-3.6h-0.1l0,0h-0.1l-1.7,1.8c0,0,0,0.1,0,0.3l2.6,5l-3.6-3.8
					h-0.1l0,0h-0.4l-1.7,1.8c0,0,0,0.1,0,0.3l2.7,5.2l-3.8-3.9h-0.1l0,0h-0.1l-1.7,1.8c0,0,0,0.1,0,0.3l2.8,5.3l-3.9-4h-0.1l0,0
					h-0.1l-1.7,1.8c0,0,0,0.1,0,0.3l2.9,5.6l-4-4.1h-0.1l0,0H222l-1.7,1.8c0,0,0,0.1,0,0.3l2.9,5.8l-4.1-4.4h-0.1l0,0h-0.1l-1.7,1.8
					c0,0,0,0.1,0,0.3l3,5.9l-4.3-4.5h-0.1l0,0h-0.2l-1.7,1.8c0,0,0,0.1,0,0.3l3.2,6.1l-4.4-4.7h-0.1l0,0h-0.1l-1.7,1.8
					c0,0,0,0.1,0,0.3l3.3,6.2l-4.5-4.8h-0.1l0,0h-0.3l-1.7,1.8c0,0,0,0.1,0,0.3l3.5,6.4l-4.7-5h-0.1l0,0H206l-1.6,1.8
					c0,0,0,0.1,0,0.3l3.6,6.5l-4.8-5.2h-0.1l0,0h-0.1l-1.6,1.8c0,0,0,0.1,0,0.3l3.8,6.8l-5-5.3h-0.1h-0.1l-1.2,1.4c0,0,0,0.1,0,0.3
					l7.7,10l0.1,0.1l0,0h0.1l20.3-22.9L213.5,349.1z"/>
				<path class="st2" d="M360.5,292L360.5,292l5.5,7.4c2.4,3.2,4.8,6.2,7.1,9.5l0.1,0.1l3.2-0.1h0.3c0.1,0,0.1,0,0.1-0.1v-0.1
					L363.8,292l-0.1-0.1L360.5,292C360.6,291.9,360.5,291.9,360.5,292z"/>
				<path class="st2" d="M341.1,266.5L341.1,266.5l5.9,7.8l0.1,0.1l3-0.1c0.1,0,0.1,0,0.1-0.1v-0.1l-5.8-7.5l-0.1-0.1L341.1,266.5
					C341.2,266.5,341.2,266.5,341.1,266.5z"/>
				<path class="st2" d="M348.1,275.6L348.1,275.6l5.6,7.4l0.1,0.1l3-0.1c0.1,0,0.1,0,0.1-0.1v-0.1l-5.5-7.1l-0.1-0.1L348.1,275.6
					C348.2,275.5,348.1,275.5,348.1,275.6z"/>
				<path class="st2" d="M354.7,284.4L354.7,284.4l2,2.8l2.8,3.8l0.1,0.1h3.2c0.1,0,0.1,0,0.1-0.1v-0.1l-4.8-6.2l-0.1-0.1l-3.2-0.1
					C354.9,284.3,354.7,284.3,354.7,284.4z"/>
				<path class="st2" d="M423.9,370.2l-45.7-59.7l-0.1-0.1h-1.6h-1.8c-0.1,0-0.1,0-0.1,0.1v0.1c1.2,1.6,2.4,3.2,3.6,4.8
					c-1.4-1.6-2.6-3.2-3.9-5l-0.1-0.1h-2.4l-10-0.1c0,0-0.1,0-0.1,0.1v0.1c0.9,2.6,2,5,3,7.5c-1.4-2.6-2.7-5-4-7.6l-0.1-0.1
					l-18.2-0.3l-24.3-0.4l24.3-0.1l19.6-0.1l9.7-0.1h1.1c0.1,0,0.1,0,0.1-0.1v-0.1c-2.4-2.9-4.7-6.1-7.1-9l-6.1-7.9l-0.1-0.1
					l-48.1-0.4l38.1-0.3c0,0,0.1,0,0.1-0.1v-0.1l-1.1-3.5l2,3.6l0.1,0.1h7.9c0.1,0,0.1,0,0.1-0.1v-0.1l-2.4-3l-2.7-3.3l-0.1-0.1
					l-14.7-0.6l13.6-0.6c0.1,0,0.1,0,0.1-0.1v-0.1l-5.8-7.5l-0.1-0.1l-6.7-0.3H340v0.1l0.6,3l-1.5-3v-0.6c0-0.1-0.1-0.1-0.1-0.1
					l-4.8-0.1l11.7-0.4c0.1,0,0.1,0,0.1-0.1v-0.3l-6.1-7.9l-0.1-0.1l-12.3-0.4l11.4-0.4c0.1,0,0.1,0,0.1-0.1v-0.1l-1.4-1.7
					l-9.4-12.1c-1.6-2.1-3.2-4.1-4.8-6.2c-4.4-5.8-9-11.7-13.4-17.5l-0.1-0.1l0,0c0,0-0.1,0-0.1,0.1l-8.8,14.7v0.1l0.1,0.1l4.1,0.3
					l-4.7,0.3c0,0-0.1,0-0.1,0.1l-2.8,4.7l2.6-4.4v-0.1l-0.1-0.1l-4.4,0.3c0,0-0.1,0-0.1,0.1l-3.5,6.1v0.1l0.1,0.1l4.1,0.3
					c0,0,0.1,0,0.1-0.1l0,0l0,0l0.1,0.1l4.5,0.3l-5,0.3c0,0-0.1,0-0.1,0.1l0,0l-0.1-0.1l-4.5,0.3c0,0-0.1,0-0.1,0.1l-3.8,6.4v0.1
					l0.1,0.1l16.8,0.6l-17.8,0.6c0,0-0.1,0-0.1,0.1l-64.4,109.9v0.1l0.1,0.1l201.6,1.4c0.1,0,0.1,0,0.1-0.1
					C423.9,370.3,423.9,370.2,423.9,370.2z M291.6,299.9c6.5-0.1,12.9-0.1,19.1-0.1c6.1,0,12.6,0,19.1,0.1c4.7,0,9.4,0.1,14,0.3
					c-4.3,0.1-8.7,0.3-13.1,0.3h-0.1v0.1l0.4,5.2l-1.4-5.2c0-0.1-0.1-0.1-0.1-0.1l0,0c-5.3,0.1-10.5,0.1-14.9,0.1l0,0v0.1
					c0.1,1.6,0.1,3.3,0.1,5c-0.3-1.6-0.6-3.3-0.9-5c0-0.1-0.1-0.1-0.1-0.1H311c-6.1,0-12.6,0-19.1-0.1c-4.7,0-9.4-0.1-13.9-0.3
					C282.4,300.1,287.1,299.9,291.6,299.9z M396.2,367.7l-3.6-5l-0.1-0.1c0,0,0,0-0.1,0c-0.1,0-0.1,0.1-0.1,0.3l2.3,4.7l-74.4-0.3
					l-0.3-6.5c0-0.1-0.1-0.1-0.1-0.1l0,0c-0.1,0-0.1,0.1-0.1,0.1l-0.8,6.5l-45.5-0.1l0.8-5.3c0-0.1,0-0.1-0.1-0.1l0,0
					c-0.1,0-0.1,0-0.1,0.1l-1.8,5.3l-46.3-0.1l45.1-77.2l-11.4,26.9l-1.6,3.2v0.1l0.1,0.1l35.1,0.6c0.1,0,0.1,0,0.1-0.1l1.6-4.8
					l-0.8,4.7v0.1h0.1l50.9,0.8l-33.7,0.6c-0.1,0-0.1,0-0.1,0.1l-0.6,3.8v-3.6c0-0.1-0.1-0.1-0.1-0.1l-34,0.6c-0.1,0-0.1,0-0.1,0.1
					c-0.6,1.1-1.1,2.3-1.5,3.3c0.3-1.1,0.6-2.1,0.8-3.2v-0.1l-0.1-0.1l-18.8,0.3c0,0-0.1,0-0.1,0.1l-20.3,40.1c0,0.1,0,0.1,0.1,0.3
					c0,0,0,0,0.1,0c0,0,0.1,0,0.1-0.1l13.8-23.5l13.8-0.1c-0.9,2.9-1.8,5.9-2.9,8.8c0,0.1,0,0.1,0.1,0.3c0,0,0,0,0.1,0
					c0,0,0.1,0,0.1-0.1c1.5-2.9,2.8-5.9,4.1-9l32.3-0.3l-0.6,4.3c0,0.1,0,0.1,0.1,0.1l0,0c0.1,0,0.1,0,0.1-0.1l1.6-4.3L352,339
					c0.1,0,0.1-0.1,0.1-0.1c0-0.1-0.1-0.1-0.1-0.1l-100.6-0.9l4.1-7.3h135.4l12.6,15.9L279,346.8c-0.1,0-0.1,0.1-0.1,0.1
					c0,0.1,0.1,0.1,0.1,0.1l95.5,0.6l5.3,8l0.1,0.1c0,0,0,0,0.1,0c0.1,0,0.1-0.1,0.1-0.3l-3.9-7.9l28.1,0.1l7.5,9.5l-65.1,0.4
					c-0.1-1.7-0.4-3.3-0.6-5c0-0.1-0.1-0.1-0.1-0.1l0,0c-0.1,0-0.1,0.1-0.1,0.1c0,1.6-0.1,3.2-0.4,5l-96.7,0.6
					c-0.1,0-0.1,0.1-0.1,0.1c0,0.1,0.1,0.1,0.1,0.1l165,0.9l6.4,8.2L396.2,367.7z"/>
			</g>
			<g>
				<path class="st3" d="M349,265.1h-0.3l-40.2-52.5l-117,127.7l25.8,33.1l215.5,1.4L349,265.4L349,265.1L349,265.1z M309.2,220.5
					l34.2,44.6l-3,0.1l-1.8-2.4l-9.4-12.1c-6.2-8-12.4-16.2-18.7-24.1l-0.4-0.6l-0.3,0.6l-8.7,15.1c-0.1,0.1-0.1,0.4-0.3,0.6l-4-0.3
					L309.2,220.5z M300,243.3c-1.2,2.1-2.4,4.3-3.8,6.4l-4.1-0.3l3.5-6.1L300,243.3z M197.2,340.6l1.2-1.4l5.9,6.4l-4.4-8l1.6-1.8
					l5.8,6.2l-4.3-7.9l1.6-1.8l5.6,6.1l-4.1-7.6l1.7-1.8l5.5,5.9l-4-7.5l1.7-1.8l5.3,5.8l-3.8-7.3l1.7-1.8l5.2,5.5l-3.8-7.1l1.7-1.8
					l5,5.3l-3.6-6.8l1.7-1.8l5,5l-3.5-6.7l1.7-1.8l4.7,5l-3.3-6.4l1.7-1.8l4.5,4.7l-3.2-6.2l1.7-1.8l4.4,4.5l-3-6.1l1.7-1.8l4.3,4.3
					l-2.9-5.9l1.7-1.8l4.1,4.1l-2.8-5.6l1.7-1.8l4,4l-2.7-5.5l1.7-2l3.9,3.8l-2.6-5.2l1.7-2l3.8,3.6l-2.4-5l1.8-2l3.5,3.3l-2.1-4.8
					l1.8-2l3.3,3.2l-2-4.7l1.8-2l3.2,3l-1.8-4.4l1.8-2l3,2.8l-1.7-4.3l1.8-2l2.9,2.7l-1.6-4l1.8-2.1l2.8,2.4l-1.5-3.9l1.8-2.1
					l2.7,2.3l-1.4-3.6l2-2.1l2.4,2.1l-1.4-3.3l2-2.1l2.3,1.8l-1.2-3.2l2-2.1l2.1,1.7l-1.1-2.9l2-2.3l2,1.6l-0.9-2.8l2.1-2.3l1.8,1.4
					l-0.8-2.6l13.5-14.7L297,232l-27.3,38.4l-2.8,8.7l0.8-5.8l-3.5,5l-3.5,11.7l1.2-8.7l-3.8,5.3c-1.2,3.9-2.4,7.7-3.3,11.7
					c0.4-2.8,0.8-5.8,1.2-8.5l-5.3,7.5v0.1l-1.1,3.9l-2.3,7.7l1.4-8l0.1-1.2l-4.8,6.7l-3.3,10.6l1.4-7.9l-3.9,5.5l-3,9.4l1.1-6.7
					l-3.6,5c-1.5,4.7-2.9,9.4-4.5,13.9c0.9-3.6,1.7-7.3,2.4-10.9l-17.3,24.1l12.7-22.9l-21.4,24L197.2,340.6z M217.9,367.7l-0.3-0.3
					c-2.9-3.6-6.1-7.1-9-10.6c3,3.3,6.1,6.8,9.1,10.2c2.4-4.3,5-8.5,7.5-12.7c2.6-4.4,5-8.7,7.6-13.1l7.7-12.9
					c2.6-4.3,5.2-8.7,7.7-12.9l7.7-12.9l3.9-6.4l4-6.4c5.2-8.5,10.6-17.3,15.9-25.6c-5,8.8-10,17.5-15.1,26.2l-3.9,6.5L257,303
					l-7.7,12.9c-2.6,4.3-5.2,8.7-7.7,12.9l-7.7,12.9c-2.6,4.3-5.2,8.5-7.9,12.9c-2.7,4.3-5.2,8.5-7.9,12.8L217.9,367.7z
					 M423.8,370.2l-201.5-1.4l64.4-109.9l22.9-0.8l-21.9-0.8l3.8-6.4l4.5-0.3c-1.2,2.1-2.4,4.1-3.6,6.2c1.4-2.1,2.6-4.1,3.9-6.2
					l8-0.6l-7.5-0.4c1.4-2.1,2.7-4.4,4-6.5l7.6-0.4l-7.1-0.4c0-0.1,0.1-0.1,0.1-0.3l8.7-14.4c6.1,8,12,15.9,18.2,23.8l9.4,12.1
					l1.4,1.7l-16.4,0.6l17.3,0.6l6.1,7.9l-16.7,0.6l9.9,0.4H339l2.1,4.5l-0.8-4.5l6.7,0.3l0.1,0.1l5.6,7.3l-18.7,0.6l19.7,0.6
					l2.7,3.3l2.4,3h-7.9l-2.8-5l1.5,5l-59.7,0.6l69.7,0.6l6.1,7.9c2.4,3,4.7,6.1,7.1,9h-1.1l-9.7,0.1l-19.6,0.1l-39.1,0.3l39.1,0.6
					l18.2,0.3c1.7,3.6,3.8,7.3,5.8,10.6c-1.6-3.5-3-7.1-4.5-10.6h0.1l9.7,0.1h2.4c3.5,4.4,7.1,9,10.6,13.4
					c-3.3-4.4-6.5-8.8-9.9-13.4h1.8h1.6L423.8,370.2z M376.6,308.7h-0.3l-3.2,0.1c-2.4-3.2-4.7-6.2-7.1-9.5l-5.5-7.3h3.2
					L376.6,308.7z M363,290.8h-3.2l-2.8-3.8l-2-2.7l3.2,0.1L363,290.8z M356.9,282.9l-3,0.1l-5.6-7.3l3.2,0.1L356.9,282.9z
					 M350.2,274.3l-3,0.1l-5.9-7.7l3.2,0.1L350.2,274.3z"/>
				<path class="st3" d="M250.5,337.7l101,0.9l-52.9,0.6l-1.6,4.4l0.6-4.4l-32.8,0.3c-1.4,3-2.7,6.1-4.1,9.1c1.1-2.9,2-6.1,2.9-9
					l-14.1,0.1l-13.8,23.5l20.3-40.1h3l15.8-0.3c-0.4,1.7-0.8,3.5-1.2,5.2c0.6-1.7,1.4-3.5,2.3-5.2l34-0.6l0.1,5.5l0.9-5.6l45.2-0.6
					l-62.4-0.9l1.2-6.8l-2.4,6.8l-31.9-0.6h-3.2l1.6-3.2l12.4-29.4l-46.6,79.8l46.9,0.1l1.8-5.5l-0.8,5.5l46,0.1l0.8-6.7l0.3,6.7
					l74.8,0.3l-2.4-5l3.6,5l24.3,0.1l-6.7-8.4l-165-0.9l96.8-0.6c0.1-1.7,0.3-3.3,0.4-5c0.3,1.7,0.6,3.3,0.6,5l65.6-0.4l-7.7-9.9
					l-28.4-0.1l4,8.2l-5.5-8.2l-95.4-0.4l124.5-0.6l-12.8-16.3c-46.3,0-124.4,0-135.5,0L250.5,337.7z"/>
				<path class="st3" d="M310.8,300.8c0.9,0,1.7,0,2.7,0c0.6,2.4,1.1,4.7,1.2,7.3c0.1-2.4,0.1-4.8-0.1-7.3c5,0,9.9,0,14.9-0.1
					l1.8,7.3l-0.6-7.3c6.1-0.1,12.1-0.3,18.2-0.6c-6.4-0.3-12.7-0.4-19.1-0.6c-6.4-0.2-12.7-0.1-19.1-0.1s-12.7,0-19.1,0.1
					c-6.4,0.1-12.7,0.3-19.1,0.6c6.4,0.3,12.7,0.4,19.1,0.6C298,300.8,304.5,300.8,310.8,300.8z"/>
			</g>
		</g>
		<g>
			<g>
				<path class="st2" d="M178.7,237.2L178.7,237.2l4.9,0.4c0.1,0,0.1,0,0.1-0.1l10.9-19.1l0.3,0.4c5.6,7.1,11.1,14.3,16.5,21.2
					c1.8,2.6,3.9,5,5.8,7.5l11.1,14.4l2.3,2.9l0.1,0.1l3.6-0.1c0.1,0,0.1,0,0.1-0.1c0-0.1,0-0.1,0-0.3l-40.7-53.1l-0.1-0.1l0,0
					c-0.1,0-0.1,0-0.1,0.1l-15,25.5C178.7,237,178.7,237.2,178.7,237.2z"/>
				<path class="st2" d="M95.1,371l1.4-2.3c2.7-4.3,5.3-8.7,8-13.1l9.4-15.3c2.6-4.3,5.9-9.7,9.2-15.5l9.2-15.5l4.5-7.7l4.5-7.7
					c7.1-12.1,12.8-22,18.1-31.1c0-0.1,0-0.3-0.1-0.3h-0.1c-0.1,0-0.1,0-0.1,0.1c-5.6,9-11.7,18.7-19,30.6l-4.7,7.6l-4.7,7.7
					l-9.3,15.5c-3.3,5.6-6.7,11.2-9.2,15.5l-9.2,15.5c-2.7,4.4-5.2,8.8-7.7,13.1l-1.4,2.4c-1.1,1.8-2.1,3.6-3.2,5.5
					c-1.8,3-3.8,6.2-5.5,9.5l-2.6-2.8c-2.7-2.9-5.3-6.1-8-9l-0.1-0.1h-0.1c-0.1,0.1-0.1,0.3,0,0.3c2.6,3,5,6.1,7.6,9.1l3.3,4
					l0.1,0.1l0,0c0.1,0,0.1,0,0.1-0.1l0.3-0.4c2-3.3,4.1-6.7,6.1-9.9C93,374.6,94.1,372.7,95.1,371z"/>
				<path class="st2" d="M80.1,364.6c0,0.1,0,0.3,0.1,0.3h0.1c0,0,0.1,0,0.1-0.1l19.9-27.9c-0.8,4.1-1.7,8.3-2.7,12
					c0,0.1,0,0.3,0.1,0.3l0,0c0.1,0,0.1,0,0.3-0.1c1.8-5.3,3.8-10.9,5.3-16.5l3.8-5.2l-1.2,7c0,0.1,0,0.3,0.1,0.3l0,0
					c0.1,0,0.1,0,0.3-0.1l3.6-10.9l4.1-5.9l-1.5,8.4c0,0.1,0,0.3,0.1,0.3l0,0c0.1,0,0.1,0,0.3-0.1l3.9-12.6l5.2-7.3l-1.6,10
					c0,0.1,0,0.3,0.1,0.3l0,0c0.1,0,0.1,0,0.3-0.1l4-14l0,0l5.9-8.3c-0.6,3.2-0.9,6.4-1.4,9.4c0,0.1,0,0.3,0.1,0.3l0,0
					c0.1,0,0.1,0,0.3-0.1c1.2-4.5,2.6-9.2,4-13.8l4-5.6l-1.4,9.5c0,0.1,0,0.3,0.1,0.3l0,0c0.1,0,0.1,0,0.3-0.1l4.1-13.9l3.8-5.2
					l-0.8,6.1c0,0.1,0,0.3,0.1,0.3l0,0c0.1,0,0.1,0,0.3-0.1l3.3-10.3l32.5-45.5l0.9-1.7c0-0.1,0-0.3,0-0.3h-0.1c0,0-0.1,0-0.1,0.1
					l-16.1,17.5c0,0-0.1,0.1,0,0.3l0.6,2.4l-1.6-1.2h-0.1c0,0-0.1,0-0.1,0.1l-2.6,2.7c0,0-0.1,0.1,0,0.3l0.8,2.6l-1.7-1.5h-0.1
					c0,0-0.1,0-0.1,0.1l-2.4,2.7c0,0-0.1,0.1,0,0.3l0.9,2.8l-2-1.6h-0.1c0,0-0.1,0-0.1,0.1l-2.4,2.7c0,0-0.1,0.1,0,0.3l1.1,3
					l-2.1-1.7h-0.1c0,0-0.1,0-0.1,0.1l-2.4,2.6c0,0-0.1,0.1,0,0.3l1.2,3.2l-2.3-2H149c0,0-0.1,0-0.1,0.1l-2.3,2.6c0,0-0.1,0.1,0,0.3
					l1.4,3.5l-2.4-2.1h-0.1c0,0-0.1,0-0.1,0.1l-2.3,2.6c0,0-0.1,0.1,0,0.3l1.5,3.8l-2.7-2.3h-0.1c0,0-0.1,0-0.1,0.1l-2.3,2.6
					c0,0-0.1,0.1,0,0.3l1.6,3.9l-2.8-2.6h-0.1c0,0-0.1,0-0.1,0.1l-2.3,2.4c0,0-0.1,0.1,0,0.3l1.7,4.1l-2.9-2.7h-0.1l0,0
					c0,0-0.1,0-0.1,0.1l-2.3,2.4c0,0-0.1,0.1,0,0.3l1.8,4.3l-3-2.9h-0.1l0,0c0,0-0.1,0-0.1,0.1l-2.1,2.4c0,0-0.1,0.1,0,0.3l2,4.5
					l-3.2-3h-0.1l0,0c0,0-0.1,0-0.1,0.1l-2.1,2.4c0,0-0.1,0.1,0,0.3l2.1,4.8l-3.3-3.2h-0.1l0,0c0,0-0.1,0-0.1,0.1l-2.1,2.4
					c0,0-0.1,0.1,0,0.3l2.3,5l-3.6-3.5h-0.1l0,0c0,0-0.1,0-0.1,0.1L118,296c0,0-0.1,0.1,0,0.3l2.4,5.2l-3.8-3.6h-0.1l0,0
					c0,0-0.1,0-0.1,0.1l-2.1,2.3c0,0-0.1,0.1,0,0.3l2.6,5.3L113,302h-1.2l0,0c0,0-0.1,0-0.1,0.1l-2.1,2.3c0,0-0.1,0.1,0,0.3l2.7,5.6
					l-4-4h-0.1l0,0c0,0-0.1,0-0.1,0.1l-2.1,2.3c0,0-0.1,0.1,0,0.3l2.8,5.8l-4.1-4.3h-0.1l0,0c0,0-0.1,0-0.1,0.1l-2.1,2.3
					c0,0-0.1,0.1,0,0.3l2.9,6.1l-4.3-4.4h-0.1l0,0c0,0-0.1,0-0.1,0.1l-2,2.3c0,0-0.1,0.1,0,0.3l3.2,6.2l-4.5-4.7h-0.1l0,0
					c0,0-0.1,0-0.1,0.1l-2,2.3c0,0-0.1,0.1,0,0.3l3.3,6.4l-5.9-8.2h-0.1l0,0c0,0-0.1,0-0.1,0.1l-2,2.3c0,0-0.1,0.1,0,0.3l3.5,6.7
					l-4.8-5h-0.1l0,0c0,0-0.1,0-0.1,0.1l-2,2.3c0,0-0.1,0.1,0,0.3l3.6,6.8l-5-5.2h-0.1l0,0c0,0-0.1,0-0.1,0.1l-2,2.1
					c0,0-0.1,0.1,0,0.3l3.8,7.1l-5-5.3l-0.1-0.1l0,0c0,0-0.1,0-0.1,0.1l-2,2.1c0,0.1-0.1,0.1,0,0.3l3.9,7.3l-5.2-5.6l-0.1-0.1l0,0
					c0,0-0.1,0-0.1,0.1l-2,2.1c0,0.1-0.1,0.1,0,0.3l4,7.5l-5.3-5.8l-0.1-0.1l0,0c0,0-0.1,0-0.1,0.1l-2,2.1c0,0.1-0.1,0.1,0,0.3
					l4.1,7.6l-5.6-6.1l-0.1-0.1l0,0c0,0-0.1,0-0.1,0.1l-2,2.1c0,0.1-0.1,0.1,0,0.3l4.3,7.9l-5.8-6.1l-0.1-0.1l0,0c0,0-0.1,0-0.1,0.1
					l-2,2.1c0,0.1-0.1,0.1,0,0.3l4.4,8l-5.9-6.4l-0.1-0.1c0,0-0.1,0-0.1,0.1l-1.5,1.6c-0.1,0.1-0.1,0.1,0,0.3l9.2,11.9l0.1,0.1l0,0
					c0,0,0.1,0,0.1-0.1L96,339.4L80.1,364.6z"/>
				<path class="st2" d="M254.9,296.4c0,0.1,0,0.1,0,0.3l6.5,8.7c2.8,3.8,5.6,7.5,8.4,11.2l0.1,0.1l3.8-0.1h0.3c0.1,0,0.1,0,0.1-0.1
					s0-0.1,0-0.3L259,296.3l-0.1-0.1H255C255.1,296.4,255.1,296.4,254.9,296.4z"/>
				<path class="st2" d="M232,266.2c0,0.1,0,0.1,0,0.3l7,9.2l0.1,0.1l3.6-0.1c0.1,0,0.1,0,0.1-0.1c0-0.1,0-0.1,0-0.3l-6.8-9
					l-0.1-0.1H232C232.1,266.2,232,266.2,232,266.2z"/>
				<path class="st2" d="M240.1,277.1c0,0.1,0,0.1,0,0.3l6.7,8.7l0.1,0.1l3.6-0.1c0.1,0,0.1,0,0.1-0.1c0-0.1,0-0.1,0-0.3l-6.4-8.4
					l-0.1-0.1L240.1,277.1C240.2,277,240.2,277,240.1,277.1z"/>
				<path class="st2" d="M248.1,287.5c0,0.1,0,0.1,0,0.3l2.4,3.2l3.3,4.4l0.1,0.1h3.8c0.1,0,0.1,0,0.1-0.1c0-0.1,0-0.1,0-0.3
					l-5.8-7.5l-0.1-0.1L248.1,287.5C248.2,287.4,248.2,287.4,248.1,287.5z"/>
				<path class="st2" d="M330.4,389.6l-54.3-71l-0.1-0.1h-1.8h-2.3c-0.1,0-0.1,0-0.1,0.1c0,0.1,0,0.1,0,0.3c1.5,1.8,2.8,3.8,4.3,5.6
					c-1.5-1.8-3-3.9-4.7-5.9l-0.1-0.1h-2.8l-11.9-0.1c-0.1,0-0.1,0-0.1,0.1v0.1c1.1,2.9,2.3,6.1,3.6,8.8c-1.6-2.9-3.2-6.1-4.8-9.1
					c0-0.1-0.1-0.1-0.1-0.1l-21.7-0.3l-29-0.6l29-0.1l23.2-0.3l11.7-0.1h1.2c0.1,0,0.1,0,0.1-0.1c0-0.1,0-0.1,0-0.3
					c-2.8-3.6-5.6-7.1-8.4-10.6l-7.3-9.4l-0.1-0.1l-57.2-0.6l45.2-0.4c0.1,0,0.1,0,0.1-0.1v-0.1l-1.2-4.1l2.3,4.3
					c0,0.1,0.1,0.1,0.1,0.1l9.4-0.1c0.1,0,0.1,0,0.1-0.1c0-0.1,0-0.1,0-0.3l-2.8-3.6l-3-4l-0.1-0.1l-17.5-0.6l16.3-0.6
					c0.1,0,0.1,0,0.1-0.1c0-0.1,0-0.1,0-0.3l-6.8-8.8l-0.1-0.1l-8-0.3c0,0-0.1,0-0.1,0.1v0.1l0.6,3.8l-1.7-3.8v-0.1
					c0-0.1-0.1-0.1-0.3-0.1l-5.8-0.3l13.9-0.6c0.1,0,0.1,0,0.1-0.1c0-0.1,0-0.1,0-0.3l-7.3-9.4l-0.1-0.1l-14.7-0.6L229,265
					c0.1,0,0.1,0,0.1-0.1c0-0.1,0-0.1,0-0.3l-1.6-2.1l-11.1-15.1c-1.8-2.6-3.8-5-5.8-7.5c-5.2-6.8-10.6-13.9-15.9-20.8l-0.1-0.1l0,0
					c-0.1,0-0.1,0-0.1,0.1l-10.6,17.5c0,0,0,0.1,0,0.3l0.1,0.1l5,0.3l-5.6,0.4c-0.1,0-0.1,0-0.1,0.1l-3.3,5.5l2.9-5.2
					c0-0.1,0-0.1,0-0.3l-0.1-0.1l-5.2,0.3c-0.1,0-0.1,0-0.1,0.1l-4.1,7.1c0,0,0,0.1,0,0.3l0.1,0.1l5,0.3c0.1,0,0.1,0,0.1-0.1l0,0
					l0,0l0.1,0.1l5.3,0.3l-6.1,0.4c-0.1,0-0.1,0-0.1,0.1l0,0l-0.1-0.1l-5.4,0.5c-0.1,0-0.1,0-0.1,0.1l-4.4,7.6c0,0,0,0.1,0,0.3
					l0.1,0.1l20,0.6l-21.2,0.8c-0.1,0-0.1,0-0.1,0.1L90,387.3c0,0,0,0.1,0,0.3l0.1,0.1l239.9,1.6c0.1,0,0.1,0,0.1-0.1
					C330.1,389,330.5,389.6,330.4,389.6z M173.1,306c7.7-0.1,15.5-0.1,22.7-0.1c7.3,0,15,0,22.7,0.1c5.5,0.1,11.1,0.1,16.5,0.4
					c-5,0.1-10.3,0.3-15.5,0.4c0,0-0.1,0-0.1,0.1v0.1l0.6,6.1l-1.5-6.2c0-0.1-0.1-0.1-0.3-0.1l0,0c-6.2,0.1-12.4,0.1-17.6,0.1
					c0,0-0.1,0-0.1,0.1v0.1c0.1,2,0.3,4,0.1,5.9c-0.3-2-0.6-4-1.2-6.1c0-0.1-0.1-0.1-0.3-0.1h-3.2c-7.3,0-15,0-22.7-0.1
					c-5.5-0.1-11.1-0.1-16.5-0.4C162,306.2,167.7,306.1,173.1,306z M297.3,386.7l-4.3-5.9l-0.1-0.1h-0.1c-0.1,0-0.1,0.1-0.1,0.3
					l2.7,5.6l-88.6-0.3l-0.4-7.7c0-0.1-0.1-0.1-0.3-0.3l0,0c-0.1,0-0.1,0.1-0.3,0.1l-0.9,7.7l-54.2-0.1l0.9-6.2c0-0.1,0-0.3-0.1-0.3
					l0,0c-0.1,0-0.1,0-0.3,0.1l-2.1,6.4L94,385.9l53.6-91.9l-13.8,31.8l-2,3.9c0,0,0,0.1,0,0.3l0.1,0.1l41.8,0.6
					c0.1,0,0.1,0,0.3-0.1l2-5.6l-0.9,5.6v0.1l0.1,0.1l60.5,0.9l-40.1,0.6c-0.1,0-0.1,0.1-0.3,0.1l-0.8,4.4l-0.1-4.4
					c0-0.1-0.1-0.3-0.3-0.3l-40.7,0.6c-0.1,0-0.1,0-0.1,0.1c-0.6,1.4-1.2,2.7-1.8,4c0.3-1.4,0.6-2.6,0.9-3.9V333l-0.1-0.1l-22.5,0.4
					c-0.1,0-0.1,0-0.1,0.1l-23.7,47.5c0,0.1,0,0.3,0.1,0.3h0.1c0.1,0,0.1,0,0.1-0.1l16.3-27.9l16.6,0.1c-1.1,3.6-2.3,7.1-3.5,10.5
					c0,0.1,0,0.3,0.1,0.3c0,0,0,0,0.1,0c0.1,0,0.1,0,0.1-0.1c1.7-3.5,3.3-7,5-10.6l38.5-0.4l-0.6,5c0,0.1,0,0.3,0.1,0.3l0,0
					c0.1,0,0.1,0,0.3-0.1l1.8-5.2l62.8-0.6c0.1,0,0.3-0.1,0.3-0.3c0-0.2-0.1-0.3-0.3-0.3l-119.9-1.1l5-8.5h161.1l15,19l-147.6,0.9
					c-0.1,0-0.3,0.1-0.3,0.3s0.1,0.3,0.3,0.3l113.7,0.6l6.4,9.6l0.1,0.1h0.1c0.1,0,0.1-0.1,0.1-0.3l-4.7-9.4l33.4,0.1l9,11.2
					l-77.5,0.4c-0.3-2-0.6-4-0.8-5.9c0-0.1-0.1-0.1-0.3-0.1l0,0c-0.1,0-0.1,0.1-0.1,0.3c0,1.8-0.3,3.9-0.4,5.9l-115,0.6
					c-0.1,0-0.3,0.1-0.3,0.3s0.1,0.3,0.3,0.3l196.2,1.1l7.6,9.6L297.3,386.7z"/>
			</g>
			<g>
				<path class="st1" d="M241.3,264.4h-0.3l-47.8-62.5L53.7,354.1l30.7,39.4L341,395l-99.8-130.2v-0.4H241.3L241.3,264.4z
					 M193.9,211.5l40.7,53.1l-3.6,0.1l-2.3-2.9l-11.1-14.4c-7.5-9.6-14.9-19.3-22.3-28.7l-0.6-0.6l-0.4,0.6L184,236.7
					c-0.1,0.3-0.3,0.4-0.4,0.6l-4.8-0.3L193.9,211.5z M183.1,238.4c-1.5,2.6-2.9,5-4.4,7.7l-5-0.3l4.1-7.1L183.1,238.4z M60.7,354.3
					l1.5-1.6l7.1,7.6l-5.2-9.6l2-2.1l6.8,7.5l-5-9.4l2-2.1l6.7,7.3l-5-9.1l2-2.1l6.5,7l-4.8-9l2-2.1l6.4,6.8l-4.5-8.7l2-2.1l6.1,6.5
					l-4.4-8.4l2-2.1l6.1,6.2l-4.3-8.2l2-2.3l5.9,6.1l-4.1-7.9l2-2.3l5.6,5.9l-3.9-7.7l2-2.3l5.5,5.6l-3.8-7.5l2-2.3l5.3,5.3
					l-3.6-7.3l2.1-2.3l5,5.2l-3.5-7l2.1-2.3l5,5l-3.3-6.7l2.1-2.3l4.8,4.7l-3-6.5l2.1-2.3l4.5,4.5l-2.9-6.2l2.1-2.3l4.4,4.3
					l-2.8-6.1l2.1-2.4l4.1,4l-2.7-5.8l2.1-2.4l4,3.9l-2.4-5.5l2.1-2.4l3.9,3.6l-2.3-5.3l2.3-2.4l3.6,3.3l-2.1-5l2.3-2.4l3.5,3.2
					l-2-4.8l2.3-2.6l3.3,2.9l-1.8-4.5l2.3-2.6l3,2.7l-1.6-4.3l2.3-2.6l2.9,2.6l-1.5-4l2.4-2.6l2.7,2.3l-1.4-3.8l2.4-2.7l2.6,2
					l-1.2-3.5l2.4-2.7l2.4,1.8l-1.1-3.2l2.6-2.7l2.1,1.6l-0.9-2.9l16.1-17.5l-0.9,1.7l-32.8,45.2l-3.5,10.3l0.9-6.8l-4.1,5.9
					l-4.1,14l1.5-10.3l-4.5,6.2c-1.5,4.5-2.8,9.2-4,13.8c0.4-3.5,0.9-6.8,1.5-10.2l-6.4,9c0,0.1,0,0.1,0,0.3l-1.4,4.7l-2.7,9.2
					l1.6-9.5l0.3-1.4l-5.8,8l-3.9,12.7l1.6-9.4l-4.7,6.5l-3.6,11.1l1.4-7.9l-4.3,6.1c-1.7,5.6-3.5,11.1-5.3,16.5
					c1.1-4.4,2-8.7,2.9-13.1l-20.6,28.4L95.3,337l-25.2,29.1L60.7,354.3z M85.4,386.5l-0.3-0.3c-3.5-4.3-7.1-8.5-10.6-12.8
					c3.6,4,7.3,8,10.8,12c2.9-5,5.9-10.2,8.8-15.2c3-5.2,6.1-10.5,9.1-15.5l9.2-15.5c3-5.2,6.1-10.3,9.2-15.5l9.4-15.3l4.7-7.7
					l4.7-7.6c6.2-10.3,12.6-20.5,19-30.6c-5.9,10.5-11.9,20.8-18.1,31.1l-4.5,7.7l-4.5,7.7l-9.2,15.5c-3,5.2-6.1,10.3-9.2,15.5
					l-9.5,15.4c-3,5.2-6.2,10.3-9.4,15.3c-3.2,5-6.2,10.3-9.5,15.3L85.4,386.5z M330.3,389.7l-239.9-1.6l76.7-130.9l27.1-0.9
					l-26.1-0.9l4.4-7.6l5.3-0.3c-1.5,2.6-2.8,5-4.3,7.5c1.6-2.6,3-5,4.5-7.5l9.6-0.6l-8.8-0.6c1.6-2.6,3.2-5.2,4.7-7.7l9.1-0.6
					l-8.4-0.6c0-0.1,0.1-0.3,0.1-0.3l10.3-17.1c7.1,9.5,14.3,19,21.5,28.4l11.1,14.4l1.6,2.1l-19.5,0.6l20.7,0.8l7.3,9.4l-19.9,0.6
					l11.7,0.4h-0.1l2.6,5.3l-0.9-5.3l7.9,0.3l0.1,0.1l6.7,8.7l-22.2,0.8l23.5,0.8l3,4l2.8,3.6l-9.4,0.1l-3.2-6.1l1.7,6.1l-71,0.6
					l83,0.6l7.3,9.4c2.8,3.6,5.6,7.1,8.4,10.6h-1.2l-11.7,0.1l-23.2,0.3l-46.6,0.3l46.6,0.8l21.7,0.3c2.1,4.4,4.4,8.5,7,12.8
					c-2-4.1-3.8-8.4-5.3-12.7h0.1l11.7,0.1h2.8c4.1,5.3,8.4,10.6,12.6,15.9c-3.9-5.3-7.9-10.6-11.7-15.9h2.3h1.8L330.3,389.7z
					 M274.3,316.5H274l-3.8,0.1c-2.8-3.8-5.6-7.5-8.4-11.2l-6.5-8.7h3.9L274.3,316.5z M257.9,295.2h-3.8l-3.3-4.4l-2.4-3.2l3.9,0.1
					L257.9,295.2z M250.7,285.6l-3.6,0.1l-6.8-8.6l3.9,0.1L250.7,285.6z M242.8,275.3l-3.6,0.1l-7-9.2l3.8,0.1L242.8,275.3z"/>
				<path class="st1" d="M124.1,351l120.1,1.1l-63,0.6l-2,5.3l0.6-5.2l-38.9,0.4c-1.6,3.6-3.2,7.3-5,10.6c1.4-3.6,2.4-7.1,3.5-10.6
					l-16.7,0.2l-16.3,28.1l24.1-47.7h3.6l18.7-0.3c-0.6,2-1.1,4.1-1.4,6.1c0.8-2.1,1.6-4.1,2.7-6.1l40.7-0.6l0.1,6.5l1.2-6.7
					l53.9-0.8l-74.2-1.2l1.5-8.2l-2.8,8.2l-37.9-0.6h-3.9l2-3.9l14.9-35l-55.4,95.1l55.7,0.1l2.1-6.5l-0.9,6.5l54.6,0.1l0.9-8l0.4,8
					l89.1,0.3l-2.8-5.9l4.3,5.9l29,0.1l-7.9-10l-196.4-1.1l115.3-0.6c0.3-2,0.4-4,0.4-6.1c0.4,2,0.6,4,0.8,6.1l78-0.4l-9.2-11.7
					l-34-0.1l4.8,9.6l-6.4-9.6l-113.8-0.6l148.3-0.8L291.1,342c-55.2,0-148,0-161.3,0L124.1,351z"/>
				<path class="st1" d="M195.9,307.2c1.1,0,2.1,0,3.2,0c0.6,2.8,1.2,5.6,1.5,8.5c0.1-2.8,0.1-5.6-0.1-8.5c5.9,0,11.7,0,17.6-0.1
					l2.1,8.8l-0.6-8.8c7.3-0.1,14.4-0.3,21.7-0.6c-7.6-0.3-15.1-0.6-22.7-0.6c-7.6-0.1-15.1-0.1-22.7-0.1c-7.6,0-15.1,0-22.7,0.1
					c-7.6,0.1-15.1,0.3-22.7,0.6c7.6,0.3,15.1,0.6,22.7,0.6C180.8,307,188.3,307.2,195.9,307.2z"/>
			</g>
		</g>
		<g>
			<g>
				<path class="st2" d="M84,279.4L84,279.4l4.1,0.4c0,0,0.1,0,0.1-0.1l9.2-16.1l0.3,0.3c4.7,5.9,9.4,12,13.9,17.9
					c1.6,2.1,3.2,4.1,4.8,6.2l9.4,12.1l1.8,2.4l0.1,0.1l3-0.1c0.1,0,0.1,0,0.1-0.1v-0.1l-34.2-44.6l-0.1-0.1l0,0c0,0-0.1,0-0.1,0.1
					l-12.6,21.5C84,279.2,84,279.2,84,279.4z"/>
				<path class="st2" d="M13.9,391.7l1.2-1.8c2.3-3.6,4.5-7.3,6.7-10.9l7.7-12.9c2.1-3.6,5-8.3,7.7-12.9l7.7-12.9l3.9-6.5l3.9-6.5
					c6.1-10.2,10.8-18.4,15.1-26.2c0-0.1,0-0.1,0-0.3c0,0,0,0-0.1,0c0,0-0.1,0-0.1,0.1c-4.7,7.5-9.7,15.6-15.9,25.6l-4,6.4l-3.9,6.4
					L36,352.1c-2.8,4.7-5.6,9.4-7.7,12.9L20.6,378c-2.1,3.6-4.4,7.3-6.5,11.1l-1.2,2c-0.9,1.5-1.7,3-2.7,4.5c-1.5,2.7-3,5.3-4.7,8
					l-2.1-2.4c-2.1-2.6-4.5-5-6.7-7.5h-0.1h-0.1c-0.1,0-0.1,0.1,0,0.3c2.1,2.6,4.3,5.2,6.4,7.6l2.8,3.3h0.1l0,0c0,0,0.1,0,0.1-0.1
					l0.1-0.3c1.7-2.8,3.5-5.6,5-8.3C12.1,394.8,13,393.4,13.9,391.7z"/>
				<path class="st2" d="M1.3,386.4c0,0.1,0,0.1,0,0.3c0,0,0,0,0.1,0c0,0,0.1,0,0.1-0.1L18.2,363c-0.6,3.5-1.5,7-2.3,10.2
					c0,0.1,0,0.1,0.1,0.3l0,0c0.1,0,0.1,0,0.1-0.1c1.6-4.5,3-9.2,4.5-13.9l3-4.4l-0.9,5.9c0,0.1,0,0.1,0.1,0.3l0,0
					c0.1,0,0.1,0,0.1-0.1l2.9-9.2l3.5-5l-1.2,7.1c0,0.1,0,0.1,0.1,0.3l0,0c0.1,0,0.1,0,0.1-0.1l3.2-10.6l4.4-6.1l-1.4,8.4
					c0,0.1,0,0.1,0.1,0.3l0,0c0.1,0,0.1,0,0.1-0.1l3.5-11.7l0,0l5-7c-0.4,2.7-0.8,5.3-1.1,7.9c0,0.1,0,0.1,0.1,0.1l0,0
					c0.1,0,0.1,0,0.1-0.1c0.9-3.8,2.1-7.7,3.3-11.5l3.3-4.7l-1.2,7.9c0,0.1,0,0.1,0.1,0.3l0,0c0.1,0,0.1,0,0.1-0.1l3.5-11.7l3-4.4
					l-0.6,5c0,0.1,0,0.1,0.1,0.1l0,0c0.1,0,0.1,0,0.1-0.1l2.8-8.5L84,269.3l0.8-1.5c0-0.1,0-0.1,0-0.3h-0.1h-0.1l-13.5,14.7v0.1
					l0.6,2l-1.4-1.1h-0.1h-0.1l-2.1,2.3v0.1l0.6,2.1l-1.5-1.2h0.5h-0.1l-2,2.3v0.1l0.8,2.4l-1.6-1.4h-0.1h-0.1l-2,2.1v0.1l0.9,2.6
					l-1.7-1.5h-0.1h-0.1l-2,2.1v0.1l1.1,2.7l-1.6-1.1h-0.1h-0.1l-2,2.1v0.1l1.1,2.9l-2-1.7H56H56l-1.8,2.1v0.1l1.2,3l-2.1-2h-0.1H53
					l-1.8,2.1v0.1l1.4,3.3l-2.3-2.1h-0.8h-0.1l-1.8,2v0.1l1.5,3.5l-2.4-2.3h-0.1l0,0h-0.1l-1.8,2v0.1l1.6,3.6l-2.6-2.4h-0.1l0,0
					h-0.1l-1.8,2v0.1l1.7,3.9l-2.7-2.6h-0.4l0,0h-0.1l-1.8,2v0.1l1.8,4l-2.8-2.8h-0.1l0,0h-0.1l-1.8,2v0.1l1.8,4.1l-2.9-2.9h-0.1
					l0,0h-0.3l-1.7,2v0.1l2,4.4l-3-2.6H31l0,0h-0.1l-1.7,2v0.1l2.1,4.5l-3.2-3.2H28l0,0h-0.1l-1.7,1.8v0.1l2.3,4.7l-3.3-3.3H25l0,0
					h-0.4l-1.7,1.8c0,0,0,0.1,0,0.3l2.4,4.8l-3.5-3.6h-0.1l0,0h-0.1l-1.7,1.8c0,0,0,0.1,0,0.3l2.6,5l-3.6-3.8h-0.1l0,0h-0.1
					l-1.7,1.8c0,0,0,0.1,0,0.3l2.7,5.2l-3.8-3.9h-0.1l0,0h-0.1l-1.7,1.8c0,0,0,0.1,0,0.3l2.8,5.3l-3.9-4h-0.1l0,0h-0.1l-1.7,1.8
					c0,0,0,0.1,0,0.3l2.9,5.6l-4-4.1H9.8l0,0H9.7L8,353.2c0,0,0,0.1,0,0.3l2.9,5.8l-4.6-4H6.2l0,0H6l-1.7,1.8c0,0,0,0.1,0,0.3l3,5.9
					l-4.2-4.5H3l0,0H2.8l-1.7,1.8c0,0,0,0.1,0,0.3l3.2,6.1l-4.4-4.7h-0.1l0,0h-0.2l-1.7,1.8c0,0,0,0.1,0,0.3l3.3,6.2l-4.5-4.8h-0.1
					l0,0h-0.1l-1.7,1.8c0,0,0,0.1,0,0.3l3.5,6.4l-4.7-5h-0.1l0,0h-0.1l-1.6,1.8c0,0,0,0.1,0,0.3l3.6,6.5l-4.8-5.2h-0.1l0,0h-0.1
					l-1.6,1.8c0,0,0,0.1,0,0.3l3.8,6.8l-5-5.3h-0.1h-0.1l-1.2,1.4c0,0,0,0.1,0,0.3l7.7,10l0.1,0.1l0,0h0.1l20.3-22.9L1.3,386.4z"/>
				<path class="st2" d="M148.2,329.2L148.2,329.2l5.5,7.4c2.4,3.2,4.8,6.2,7.1,9.5l0.1,0.1l3.2-0.1h0.3c0.1,0,0.1,0,0.1-0.1v-0.1
					l-12.8-16.7l-0.1-0.1L148.2,329.2C148.4,329,148.2,329,148.2,329.2z"/>
				<path class="st2" d="M128.8,303.8L128.8,303.8l5.9,7.8l0.1,0.1l3-0.1c0.1,0,0.1,0,0.1-0.1v-0.1l-5.8-7.5l-0.1-0.1L128.8,303.8
					C128.9,303.7,128.8,303.7,128.8,303.8z"/>
				<path class="st2" d="M135.8,312.8L135.8,312.8l5.6,7.4l0.1,0.1l3-0.1c0.1,0,0.1,0,0.1-0.1V320l-5.5-7.1l-0.1-0.1L135.8,312.8
					L135.8,312.8z"/>
				<path class="st2" d="M142.5,321.6L142.5,321.6l2,2.8l2.8,3.8l0.1,0.1h3.2c0.1,0,0.1,0,0.1-0.1V328l-4.8-6.2l-0.1-0.1l-3.2-0.1
					C142.6,321.4,142.5,321.6,142.5,321.6z"/>
				<path class="st2" d="M211.7,407.3l-45.8-59.7l-0.1-0.1h-1.6h-1.8c-0.1,0-0.1,0-0.1,0.1v0.1c1.2,1.6,2.4,3.2,3.6,4.8
					c-1.4-1.6-2.6-3.2-3.9-5l-0.1-0.1h-2.4l-10-0.1c0,0-0.1,0-0.1,0.1v0.1c0.9,2.6,2,5,3,7.5c-1.4-2.6-2.7-5-4-7.6l-0.1-0.1
					l-18.2-0.3l-24.3-0.4l24.3-0.1l19.6-0.1l9.7-0.1h1.1c0.1,0,0.1,0,0.1-0.1v-0.1c-2.4-2.9-4.7-6.1-7.1-9l-6.1-7.9l-0.1-0.1
					l-48.1-0.4l38.1-0.3c0,0,0.1,0,0.1-0.1v-0.1l-1.1-3.5l2,3.6l0.1,0.1h7.9c0.1,0,0.1,0,0.1-0.1v-0.1l-2.4-3l-2.7-3.3l-0.1-0.1
					l-14.7-0.6l13.6-0.6c0.1,0,0.1,0,0.1-0.1v-0.6l-5.8-7.5l-0.1-0.1l-6.7-0.3h-0.4v0.1l0.6,3l-1.5-3v-0.1c0-0.1-0.1-0.1-0.1-0.1
					l-4.8-0.1l11.7-0.4c0.1,0,0.1,0,0.1-0.1v-0.1l-6.1-7.9l-0.1-0.1l-12.3-0.4l11.4-0.4c0.1,0,0.1,0,0.1-0.1v-0.1l-1.4-1.7
					l-9.4-12.1c-1.6-2.1-3.2-4.1-4.8-6.2c-4.4-5.8-9-11.7-13.4-17.5l-0.1-0.1l0,0c0,0-0.1,0-0.1,0.1l-8.8,14.7v0.1l0.1,0.1l4.1,0.3
					l-4.7,0.3c0,0-0.1,0-0.1,0.1l-2.8,4.7l2.6-4.4v-0.1l-0.1-0.1l-4.4,0.3c0,0-0.1,0-0.1,0.1l-3.5,6.1v0.1l0.1,0.1l4.1,0.3
					c0,0,0.1,0,0.1-0.1l0,0l0,0l0.1,0.1l4.5,0.3l-5,0.3c0,0-0.1,0-0.1,0.1l0,0l-0.1-0.1l-4.5,0.3c0,0-0.1,0-0.1,0.1l-3.8,6.4v0.1
					l0.1,0.1l16.8,0.6l-17.7,0.5c0,0-0.1,0-0.1,0.1l-64.4,110v0.1l0.1,0.1l201.6,1.4c0.1,0,0.1,0,0.1-0.1
					C211.7,407.5,211.7,407.3,211.7,407.3z M79.4,337.1c6.5-0.1,12.9-0.1,19.1-0.1c6.1,0,12.6,0,19.1,0.1c4.7,0,9.4,0.1,14,0.3
					c-4.3,0.1-8.7,0.3-13.1,0.3h-0.1v0.1l0.4,5.2l-1.4-5.2c0-0.1-0.1-0.1-0.1-0.1l0,0c-5.3,0.1-10.5,0.1-14.9,0.1h-0.1v0.1
					c0.1,1.6,0.1,3.3,0.1,5c-0.3-1.6-0.6-3.3-0.9-5c0-0.1-0.1-0.1-0.1-0.1h-2.7c-6.1,0-12.6,0-19.1-0.1c-4.7,0-9.4-0.1-13.9-0.3
					C70.2,337.4,74.9,337.2,79.4,337.1z M183.7,404.9l-3.6-5l-0.1-0.1c0,0,0,0-0.1,0s-0.1,0.1-0.1,0.3l2.3,4.7l-74.4-0.3l-0.3-6.5
					c0-0.1-0.1-0.1-0.1-0.1l0,0c-0.1,0-0.1,0.1-0.1,0.1l-0.8,6.5l-45.5-0.1l0.8-5.3c0-0.1,0-0.1-0.1-0.1l0,0c-0.1,0-0.1,0-0.1,0.1
					l-1.8,5.3l-46.3-0.1l45.1-77.2l-11.7,26.7l-1.6,3.2v0.1l0.1,0.1l35.1,0.6c0.1,0,0.1,0,0.1-0.1L82,353l-0.8,4.7v0.1h0.1l50.9,0.8
					l-33.7,0.6c-0.1,0-0.1,0-0.1,0.1l-0.6,3.8v-3.6c0-0.1-0.1-0.1-0.1-0.1l-34,0.6c-0.1,0-0.1,0-0.1,0.1c-0.6,1.1-1.1,2.3-1.5,3.3
					c0.3-1.1,0.6-2.1,0.8-3.2v-0.1l-0.1-0.1L44,360.1c0,0-0.1,0-0.1,0.1l-20.3,40.1c0,0.1,0,0.1,0.1,0.3c0,0,0,0,0.1,0
					c0,0,0.1,0,0.1-0.1L37.7,377l13.8-0.1c-0.9,2.9-1.8,5.9-2.9,8.8c0,0.1,0,0.1,0.1,0.3c0,0,0,0,0.1,0c0,0,0.1,0,0.1-0.1
					c1.5-2.9,2.8-5.9,4.1-9l32.3-0.3l-0.6,4.3c0,0.1,0,0.1,0.1,0.1l0,0c0.1,0,0.1,0,0.1-0.1l1.6-4.3l52.8-0.6c0.1,0,0.1-0.1,0.1-0.1
					c0-0.1-0.1-0.1-0.1-0.1L38.6,375l4.1-7.3h135.4l12.6,15.9l-124.3,0.6c-0.1,0-0.1,0.1-0.1,0.1c0,0.1,0.1,0.1,0.1,0.1l95.5,0.6
					l5.3,8l0.1,0.1c0,0,0,0,0.1,0s0.1-0.1,0.1-0.3l-3.9-7.9l28.1,0.1l7.5,9.5l-65.1,0.4c-0.1-1.7-0.4-3.3-0.6-5
					c0-0.1-0.1-0.1-0.1-0.1l0,0c-0.1,0-0.1,0.1-0.1,0.1c0,1.6-0.1,3.2-0.4,5l-96.8,0.6c-0.1,0-0.1,0.1-0.1,0.1
					c0,0.1,0.1,0.1,0.1,0.1l165,0.9l6.4,8.2L183.7,404.9z"/>
			</g>
			<g>
				<path class="st3" d="M136.7,302.2h-0.3l-40.2-52.5l-117,127.7L5,410.5l215.5,1.4l-83.8-109.4L136.7,302.2L136.7,302.2z
					 M96.8,257.7l34.2,44.6l-3,0.1l-1.8-2.4l-9.4-12.1c-6.2-8-12.4-16.2-18.7-24.1l-0.4-0.6l-0.3,0.6l-8.7,15.1
					c-0.1,0.1-0.1,0.4-0.3,0.6l-4-0.3L96.8,257.7z M87.7,280.5c-1.2,2.1-2.4,4.3-3.8,6.4l-4.1-0.3l3.5-6.1L87.7,280.5z M-15.1,377.7
					l1.2-1.4l5.9,6.4l-4.4-8l1.6-1.8l5.8,6.2l-4.3-7.9l1.6-1.8l5.6,6.1l-4.1-7.6l1.7-1.8l5.5,5.9l-4-7.5l1.7-1.8l5.3,5.8L0.1,361
					l1.7-1.8l5.2,5.5l-3.8-7.1l1.7-1.8l5,5.3l-3.5-7l1.7-1.8l5,5l-3.5-6.7l1.7-1.8l4.7,5l-3.3-6.4l1.7-1.8l4.5,4.7l-3.2-6.2l1.7-1.8
					l4.4,4.5l-3-6.1l1.7-1.8l4.3,4.3l-2.9-5.9l1.7-1.8l4.1,4.1l-2.8-5.6L27,332l4,4l-2.7-5.5l1.7-2l3.8,3.6l-2.6-5.2l1.7-2l3.8,3.6
					l-2.4-5l1.8-2l3.5,3.3l-2.1-4.8l1.8-2l3.3,3.2l-2-4.7l1.8-2l3.2,3l-1.8-4.4l1.8-2l3,2.8l-1.7-4.3l1.8-2l2.9,2.7l-1.6-4l1.8-2.1
					l2.8,2.4l-1.5-3.9l1.8-2.1l2.7,2.3l-1.4-3.6l2-2.1l2.4,2.1l-1.4-3.3l2-2.1l2.3,1.8l-1.2-3.2l2-2.1l2.1,1.7l-1.1-2.9l2-2.3l2,1.6
					l-0.9-2.8l2.1-2.3l1.8,1.4L72,282l13.5-14.7l-0.8,1.5l-27.3,38.4l-2.8,8.7l0.8-5.8l-3.5,5l-3.5,11.7l1.2-8.7l-3.8,5.3
					c-1.2,3.9-2.4,7.7-3.3,11.7c0.4-2.8,0.8-5.8,1.2-8.5l-5.3,7.5v0.1l-1.1,3.9l-2.3,7.7l1.4-8l0.1-1.2l-4.8,6.7l-3.3,10.6l1.4-7.9
					l-3.9,5.5l-3,9.4l1.1-6.7l-3.6,5c-1.5,4.7-2.9,9.4-4.5,13.9c0.9-3.6,1.7-7.3,2.4-10.9L1.3,386.4l12.7-22.9l-21.4,24L-15.1,377.7
					z M5.7,404.8l-0.3-0.3c-2.9-3.6-6.1-7.1-9-10.6c3,3.3,6.1,6.8,9.1,10.2c2.4-4.3,5-8.5,7.5-12.7c2.6-4.4,5-8.7,7.6-13.1l7.7-12.9
					c2.6-4.3,5.2-8.7,7.7-12.9l7.7-12.9l3.9-6.4l4-6.4c5.2-8.5,10.6-17.3,15.9-25.6c-5,8.8-10,17.5-15.1,26.2l-3.9,6.5l-3.9,6.5
					L37,353.2c-2.6,4.3-5.2,8.7-7.7,12.9L21.6,379c-2.6,4.3-5.2,8.5-7.9,12.9c-2.7,4.3-5.2,8.5-7.9,12.8L5.7,404.8z M211.5,407.5
					L10,406.1l64.4-109.9l22.8-0.7l-21.9-0.8l3.8-6.4l4.5-0.3c-1.2,2.1-2.4,4.1-3.6,6.2c1.4-2.1,2.6-4.1,3.9-6.2l8-0.6l-7.5-0.4
					c1.4-2.1,2.7-4.4,4-6.5l7.6-0.4l-7.1-0.4c0-0.1,0.1-0.1,0.1-0.3l8.7-14.4c6.1,8,12,15.9,18.2,23.8l9.4,12.1l1.4,1.7l-16.4,0.6
					l17.3,0.6l6.1,7.9l-16.7,0.6l9.9,0.4h-0.2l2.1,4.5l-0.8-4.5l6.7,0.3l0.1,0.1l5.6,7.3l-18.7,0.6l19.7,0.6l2.7,3.3l2.4,3h-7.9
					l-2.8-5l1.5,5l-59.7,0.6l69.7,0.6l6.1,7.9c2.4,3,4.7,6.1,7.1,9h-1.1l-9.7,0.1l-19.6,0.1l-39.1,0.3l39.1,0.6l18.2,0.3
					c1.7,3.6,3.8,7.3,5.8,10.6c-1.6-3.5-3-7.1-4.5-10.6h0.1l9.7,0.1h2.4c3.5,4.4,7.1,9,10.6,13.4c-3.3-4.4-6.5-8.8-9.9-13.4h1.8h1.6
					L211.5,407.5z M164.3,346h-0.3l-3.2,0.1c-2.4-3.2-4.7-6.2-7.1-9.5l-5.5-7.3h3.2L164.3,346z M150.6,328.1h-3.2l-2.8-3.8l-2-2.7
					l3.2,0.1L150.6,328.1z M144.6,320.1l-3,0.1l-5.6-7.3l3.2,0.1L144.6,320.1z M137.9,311.4l-3,0.1l-5.9-7.7l3.2,0.1L137.9,311.4z"
					/>
				<path class="st3" d="M38.2,374.9l101,0.9l-52.9,0.6l-1.6,4.4l0.6-4.4l-32.8,0.3c-1.4,3-2.7,6.1-4.1,9.1c1.1-2.9,2-6.1,2.9-9
					l-14.1,0.1l-13.8,23.5l20.3-40.1h3l15.8-0.3c-0.4,1.7-0.8,3.5-1.2,5.2c0.6-1.7,1.4-3.5,2.3-5.2l34-0.6l0.1,5.5l0.9-5.6l45.2-0.6
					l-62.4-0.9l1.2-6.8l-2.4,6.8l-31.8-0.5h-3.2l1.6-3.2l12.4-29.4l-46.6,79.8l46.9,0.1l1.8-5.5l-0.8,5.5l46,0.1l0.8-6.7l0.3,6.7
					l74.8,0.3l-2.4-5l3.6,5l24.3,0.1l-6.7-8.4l-165.1-1.1l96.8-0.6c0.1-1.7,0.3-3.3,0.4-5c0.3,1.7,0.6,3.3,0.6,5l65.6-0.4l-7.7-9.9
					l-28.4-0.1l4,8.2l-5.5-8.2l-95.6-0.6l124.5-0.6L178,367.1c-46.3,0-124.4,0-135.5,0L38.2,374.9z"/>
				<path class="st3" d="M98.5,338c0.9,0,1.7,0,2.7,0c0.6,2.4,1.1,4.7,1.2,7.3c0.1-2.4,0.1-4.8-0.1-7.3c5,0,9.9,0,14.9-0.1l1.8,7.3
					l-0.6-7.3c6.1-0.1,12.1-0.3,18.2-0.6c-6.4-0.3-12.7-0.4-19.1-0.6c-6.4-0.1-12.7-0.1-19.1-0.1s-12.7,0-19.1,0.1
					s-12.7,0.3-19.1,0.6c6.4,0.3,12.7,0.4,19.1,0.6C85.8,338,92.1,338,98.5,338z"/>
			</g>
		</g>
	</g>
</g>
<g>
	<g>
		<path class="st1" d="M-556.6,120.4l3.4-1.9v4v3.9l-3.4-2l-3.3-1.9L-556.6,120.4z M-556.6,129.3l-3.3,2v-3.9v-4l3.3,1.9l3.4,2.1
			L-556.6,129.3z M-556.6,130.1l3.4-1.9v4v3.9l-3.4-2l-3.3-1.9L-556.6,130.1z M-556.6,139l-3.3,2v-3.9v-4l3.3,1.9l3.4,2.1
			L-556.6,139z M-556.6,139.9l3.4-1.9v4v3.9l-3.4-2l-3.3-1.9L-556.6,139.9z M-556.6,148.7l-3.3,2v-3.9v-4l3.3,1.9l3.4,2.1
			L-556.6,148.7z M-556.6,149.6l3.4-1.9v4v3.9l-3.4-2l-3.3-1.9L-556.6,149.6z M-556.6,158.4l-3.3,2v-3.9v-4l3.3,1.9l3.4,2.1
			L-556.6,158.4z M-548.8,115.5l3.4-1.9v4v3.9l-3.4-2l-3.3-1.9L-548.8,115.5z M-548.8,124.5l-3.3,2v-3.9v-4l3.3,1.9l3.4,2.1
			L-548.8,124.5z M-548.8,135l3.4-1.9v4v3.9l-3.4-2l-3.3-1.9L-548.8,135z M-541,119.6l-3.3,2v-3.9v-4l3.3,1.9l3.4,2.1L-541,119.6z
			 M-541,130.1l3.4-1.9v4v3.9l-3.4-2l-3.3-1.9L-541,130.1z M-541,139l-3.3,2v-3.9v-4l3.3,1.9l3.4,2.1L-541,139z M-533.2,124.5
			l-3.3,2v-3.9v-4l3.3,1.9l3.4,2.1L-533.2,124.5z M-533.2,125.2l3.4-1.9v4v3.9l-3.4-2l-3.3-1.9L-533.2,125.2z M-533.2,134.2l-3.3,2
			v-3.9v-4l3.3,1.9l3.4,2.1L-533.2,134.2z"/>
		<path class="st1" d="M-523.3,120.3l3.4-1.9v3.9v4l-3.4-2.1l-3.3-1.9L-523.3,120.3z M-523.3,129.2l-3.3,2.1v-4v-3.9l3.3,1.9l3.4,2
			L-523.3,129.2z M-523.3,130.1l3.4-1.9v3.9v4l-3.4-2.1l-3.3-1.9L-523.3,130.1z M-515.5,134l-3.3,2.1v-4v-3.9l3.3,1.9l3.4,2
			L-515.5,134z M-515.5,135l3.4-1.9v3.9v4l-3.4-2.1l-3.3-1.9L-515.5,135z M-515.5,143.7l-3.3,2.1v-4v-3.9l3.3,1.9l3.4,2
			L-515.5,143.7z M-515.5,144.7l3.4-1.9v3.9v4l-3.4-2.1l-3.3-1.9L-515.5,144.7z M-515.5,153.4l-3.3,2.1v-4v-3.9l3.3,1.9l3.4,2
			L-515.5,153.4z M-515.5,154.4l3.4-1.9v3.9v4l-3.4-2.1l-3.3-1.9L-515.5,154.4z M-507.7,130.1l3.4-1.9v3.9v4l-3.4-2.1l-3.3-1.9
			L-507.7,130.1z M-507.7,138.9l-3.3,2.1v-4v-4l3.3,1.9l3.4,2L-507.7,138.9z M-499.9,115.5l3.4-1.9v3.9v4l-3.4-2.1l-3.3-1.9
			L-499.9,115.5z M-499.9,124.3l-3.3,2.1v-4v-3.9l3.3,1.9l3.4,2L-499.9,124.3z M-499.9,125.2l3.4-1.9v3.9v4l-3.4-2.1l-3.3-1.9
			L-499.9,125.2z M-499.9,134l-3.3,2.1v-4v-3.9l3.3,1.9l3.4,2L-499.9,134z"/>
		<path class="st1" d="M-489.8,120.4l3.4-1.9v4v3.9l-3.4-2l-3.3-1.9L-489.8,120.4z M-489.8,129.3l-3.3,2v-3.9v-4l3.3,1.9l3.4,2.1
			L-489.8,129.3z M-489.8,130.1l3.4-1.9v4v3.9l-3.4-2l-3.3-1.9L-489.8,130.1z M-489.8,139l-3.3,2v-3.9v-4l3.3,1.9l3.4,2.1
			L-489.8,139z M-489.8,139.9l3.4-1.9v4v3.9l-3.4-2l-3.3-1.9L-489.8,139.9z M-489.8,148.7l-3.3,2v-3.9v-4l3.3,1.9l3.4,2.1
			L-489.8,148.7z M-489.8,149.6l3.4-1.9v4v3.9l-3.4-2l-3.3-1.9L-489.8,149.6z M-489.8,158.4l-3.3,2v-3.9v-4l3.3,1.9l3.4,2.1
			L-489.8,158.4z M-482.1,115.5l3.4-1.9v4v3.9l-3.4-2l-3.3-1.9L-482.1,115.5z M-482.1,124.5l-3.3,2v-3.9v-4l3.3,1.9l3.4,2.1
			L-482.1,124.5z M-482.1,135l3.4-1.9v4v3.9l-3.4-2l-3.3-1.9L-482.1,135z M-482.1,143.9l-3.3,2V142v-4l3.3,1.9l3.4,2.1L-482.1,143.9
			z M-474.3,119.6l-3.3,2v-3.9v-4l3.3,1.9l3.4,2.1L-474.3,119.6z M-474.3,130.1l3.4-1.9v4v3.9l-3.4-2l-3.3-1.9L-474.3,130.1z
			 M-474.3,139l-3.3,2v-3.9v-4l3.3,1.9l3.4,2.1L-474.3,139z M-474.3,139.9l3.4-1.9v4v3.9l-3.4-2l-3.3-1.9L-474.3,139.9z
			 M-466.6,124.5l-3.3,2v-3.9v-4l3.3,1.9l3.4,2.1L-466.6,124.5z M-466.6,125.2l3.4-1.9v4v3.9l-3.4-2l-3.3-1.9L-466.6,125.2z
			 M-466.6,134.2l-3.3,2v-3.9v-4l3.3,1.9l3.4,2.1L-466.6,134.2z M-466.6,143.9l-3.3,2V142v-4l3.3,1.9l3.4,2.1L-466.6,143.9z
			 M-466.6,144.7l3.4-1.9v4v3.9l-3.4-2l-3.3-1.9L-466.6,144.7z M-466.6,153.6l-3.3,2v-3.9v-4l3.3,1.9l3.4,2.1L-466.6,153.6z"/>
		<path class="st1" d="M-456.5,120.4l3.4-1.9v4v3.9l-3.4-2l-3.3-1.9L-456.5,120.4z M-456.5,129.3l-3.3,2v-3.9v-4l3.3,1.9l3.4,2.1
			L-456.5,129.3z M-456.5,130.1l3.4-1.9v4v3.9l-3.4-2l-3.3-1.9L-456.5,130.1z M-456.5,139l-3.3,2v-3.9v-4l3.3,1.9l3.4,2.1
			L-456.5,139z M-456.5,139.9l3.4-1.9v4v3.9l-3.4-2l-3.3-1.9L-456.5,139.9z M-456.5,148.7l-3.3,2v-3.9v-4l3.3,1.9l3.4,2.1
			L-456.5,148.7z M-456.5,149.6l3.4-1.9v4v3.9l-3.4-2l-3.3-1.9L-456.5,149.6z M-456.5,158.4l-3.3,2v-3.9v-4l3.3,1.9l3.4,2.1
			L-456.5,158.4z M-448.8,115.5l3.4-1.9v4v3.9l-3.4-2l-3.3-1.9L-448.8,115.5z M-448.8,124.5l-3.3,2v-3.9v-4l3.3,1.9l3.4,2.1
			L-448.8,124.5z M-448.8,144.7l3.4-1.9v4v3.9l-3.4-2l-3.3-1.9L-448.8,144.7z M-441,119.6l-3.3,2v-3.9v-4l3.3,1.9l3.4,2.1
			L-441,119.6z M-441,139.9l3.4-1.9v4v3.9l-3.4-2l-3.3-1.9L-441,139.9z M-441,148.7l-3.3,2v-3.9v-4l3.3,1.9l3.4,2.1L-441,148.7z
			 M-433.2,124.5l-3.3,2v-3.9v-4l3.3,1.9l3.4,2.1L-433.2,124.5z M-433.2,125.2l3.4-1.9v4v3.9l-3.4-2l-3.3-1.9L-433.2,125.2z
			 M-433.2,134.2l-3.3,2v-3.9v-4l3.3,1.9l3.4,2.1L-433.2,134.2z M-433.2,135l3.4-1.9v4v3.9l-3.4-2l-3.3-1.9L-433.2,135z
			 M-433.2,143.9l-3.3,2V142v-4l3.3,1.9l3.4,2.1L-433.2,143.9z M-433.2,144.7l3.4-1.9v4v3.9l-3.4-2l-3.3-1.9L-433.2,144.7z
			 M-433.2,153.6l-3.3,2v-3.9v-4l3.3,1.9l3.4,2.1L-433.2,153.6z"/>
		<path class="st1" d="M-423.2,120.4l3.4-1.9v4v3.9l-3.4-2l-3.3-1.9L-423.2,120.4z M-423.2,129.3l-3.3,2v-3.9v-4l3.3,1.9l3.4,2.1
			L-423.2,129.3z M-423.2,130.1l3.4-1.9v4v3.9l-3.4-2l-3.3-1.9L-423.2,130.1z M-423.2,139l-3.3,2v-3.9v-4l3.3,1.9l3.4,2.1
			L-423.2,139z M-423.2,139.9l3.4-1.9v4v3.9l-3.4-2l-3.3-1.9L-423.2,139.9z M-423.2,148.7l-3.3,2v-3.9v-4l3.3,1.9l3.4,2.1
			L-423.2,148.7z M-423.2,149.6l3.4-1.9v4v3.9l-3.4-2l-3.3-1.9L-423.2,149.6z M-423.2,158.4l-3.3,2v-3.9v-4l3.3,1.9l3.4,2.1
			L-423.2,158.4z M-415.4,124.5l-3.3,2v-3.9v-4l3.3,1.9l3.4,2.1L-415.4,124.5z M-415.4,125.2l3.4-1.9v4v3.9l-3.4-2l-3.3-1.9
			L-415.4,125.2z M-407.7,120.4l3.4-1.9v4v3.9l-3.4-2l-3.3-1.9L-407.7,120.4z M-407.7,129.3l-3.3,2v-3.9v-4l3.3,1.9l3.4,2.1
			L-407.7,129.3z M-399.9,115.5l3.4-1.9v4v3.9l-3.4-2l-3.3-1.9L-399.9,115.5z M-399.9,124.5l-3.3,2v-3.9v-4l3.3,1.9l3.4,2.1
			L-399.9,124.5z M-399.9,125.2l3.4-1.9v4v3.9l-3.4-2l-3.3-1.9L-399.9,125.2z M-399.9,134.2l-3.3,2v-3.9v-4l3.3,1.9l3.4,2.1
			L-399.9,134.2z M-399.9,135l3.4-1.9v4v3.9l-3.4-2l-3.3-1.9L-399.9,135z M-399.9,143.9l-3.3,2V142v-4l3.3,1.9l3.4,2.1L-399.9,143.9
			z M-399.9,144.7l3.4-1.9v4v3.9l-3.4-2l-3.3-1.9L-399.9,144.7z M-399.9,153.6l-3.3,2v-3.9v-4l3.3,1.9l3.4,2.1L-399.9,153.6z"/>
		<path class="st1" d="M-389.8,115.5l3.4-1.9v4v3.9l-3.4-2l-3.3-1.9L-389.8,115.5z M-389.8,124.5l-3.3,2v-3.9v-4l3.3,1.9l3.4,2.1
			L-389.8,124.5z M-389.8,125.2l3.4-1.9v4v3.9l-3.4-2l-3.3-1.9L-389.8,125.2z M-389.8,134.2l-3.3,2v-3.9v-4l3.3,1.9l3.4,2.1
			L-389.8,134.2z M-389.8,135l3.4-1.9v4v3.9l-3.4-2l-3.3-1.9L-389.8,135z M-389.8,143.9l-3.3,2V142v-4l3.3,1.9l3.4,2.1L-389.8,143.9
			z M-389.8,144.7l3.4-1.9v4v3.9l-3.4-2l-3.3-1.9L-389.8,144.7z M-389.8,153.6l-3.3,2v-3.9v-4l3.3,1.9l3.4,2.1L-389.8,153.6z"/>
		<path class="st1" d="M-379.8,120.4l3.4-1.9v4v3.9l-3.4-2l-3.3-1.9L-379.8,120.4z M-379.8,129.3l-3.3,2v-3.9v-4l3.3,1.9l3.4,2.1
			L-379.8,129.3z M-379.8,130.1l3.4-1.9v4v3.9l-3.4-2l-3.3-1.9L-379.8,130.1z M-379.8,139l-3.3,2v-3.9v-4l3.3,1.9l3.4,2.1
			L-379.8,139z M-379.8,139.9l3.4-1.9v4v3.9l-3.4-2l-3.3-1.9L-379.8,139.9z M-379.8,148.7l-3.3,2v-3.9v-4l3.3,1.9l3.4,2.1
			L-379.8,148.7z M-379.8,149.6l3.4-1.9v4v3.9l-3.4-2l-3.3-1.9L-379.8,149.6z M-372.1,115.5l3.4-1.9v4v3.9l-3.4-2l-3.3-1.9
			L-372.1,115.5z M-372.1,124.5l-3.3,2v-3.9v-4l3.3,1.9l3.4,2.1L-372.1,124.5z M-372.1,134.2l-3.3,2v-3.9v-4l3.3,1.9l3.4,2.1
			L-372.1,134.2z M-372.1,135l3.4-1.9v4v3.9l-3.4-2l-3.3-1.9L-372.1,135z M-372.1,143.9l-3.3,2V142v-4l3.3,1.9l3.4,2.1L-372.1,143.9
			z M-372.1,154.4l3.4-1.9v4v3.9l-3.4-2l-3.3-1.9L-372.1,154.4z M-364.3,119.6l-3.3,2v-3.9v-4l3.3,1.9l3.4,2.1L-364.3,119.6z
			 M-364.3,149.6l3.4-1.9v4v3.9l-3.4-2l-3.3-1.9L-364.3,149.6z M-364.3,158.4l-3.3,2v-3.9v-4l3.3,1.9l3.4,2.1L-364.3,158.4z
			 M-356.5,124.5l-3.3,2v-3.9v-4l3.3,1.9l3.4,2.1L-356.5,124.5z M-356.5,125.2l3.4-1.9v4v3.9l-3.4-2l-3.3-1.9L-356.5,125.2z
			 M-356.5,134.2l-3.3,2v-3.9v-4l3.3,1.9l3.4,2.1L-356.5,134.2z M-356.5,135l3.4-1.9v4v3.9l-3.4-2l-3.3-1.9L-356.5,135z
			 M-356.5,143.9l-3.3,2V142v-4l3.3,1.9l3.4,2.1L-356.5,143.9z M-356.5,144.7l3.4-1.9v4v3.9l-3.4-2l-3.3-1.9L-356.5,144.7z
			 M-356.5,153.6l-3.3,2v-3.9v-4l3.3,1.9l3.4,2.1L-356.5,153.6z"/>
	</g>
	<g>
		<path class="st1" d="M-556.6,177.9l3.4-2.1v4v3.9l-3.4-2l-3.3-1.9L-556.6,177.9z M-553.1,184.7l-3.4,1.9l-3.3,2v-3.9v-4l3.3,2.1
			L-553.1,184.7z M-556.6,187.6l3.4-2.1v4v3.9l-3.4-2l-3.3-1.9L-556.6,187.6z M-553.1,204.2l-3.4,1.9l-3.3,2v-3.9v-4l3.3,2.1
			L-553.1,204.2z M-556.6,207.1l3.4-2.1v4v3.9l-3.4-2l-3.3-1.9L-556.6,207.1z M-552.1,174.9l3.3-1.9l3.4-2.1v4v3.9l-3.4-2
			L-552.1,174.9z M-548.8,181.8l-3.3,2v-3.9v-4l3.3,2.1l3.4,1.9L-548.8,181.8z M-548.8,191.5l-3.3,2v-3.9v-4l3.3,2.1l3.4,1.9
			L-548.8,191.5z M-552.1,194.4l3.3-1.9l3.4-2.1v4v3.9l-3.4-2L-552.1,194.4z M-552.1,213.9l3.3-1.9l3.4-2.1v4v3.9l-3.4-2
			L-552.1,213.9z M-537.6,174.9l-3.4,1.9l-3.3,2v-3.9v-4l3.3,2.1L-537.6,174.9z M-541,177.9l3.4-2.1v4v3.9l-3.4-2l-3.3-1.9
			L-541,177.9z M-537.6,194.4l-3.4,1.9l-3.3,2v-3.9v-4l3.3,2.1L-537.6,194.4z M-541,197.3l3.4-2.1v4v3.9l-3.4-2l-3.3-1.9L-541,197.3
			z M-541,207.1l3.4-2.1v4v3.9l-3.4-2l-3.3-1.9L-541,207.1z M-537.6,213.9l-3.4,1.9l-3.3,2v-3.9v-4l3.3,2.1L-537.6,213.9z
			 M-533.2,181.8l-3.3,2v-3.9v-4l3.3,2.1l3.4,1.9L-533.2,181.8z M-533.2,201.2l-3.3,2v-3.9v-4l3.3,2.1l3.4,1.9L-533.2,201.2z
			 M-536.6,204.2l3.3-1.9l3.4-2.1v4v3.9l-3.4-2L-536.6,204.2z M-533.2,210.9l-3.3,2V209v-4l3.3,2.1l3.4,1.9L-533.2,210.9z"/>
		<path class="st1" d="M-523.3,177.7l3.4-1.9v4v3.9l-3.4-2l-3.3-1.9L-523.3,177.7z M-523.3,186.7l-3.3,2v-3.9v-4l3.3,1.9l3.4,2.1
			L-523.3,186.7z M-515.5,172.9l3.4-1.9v4v3.9l-3.4-2l-3.3-1.9L-515.5,172.9z M-515.5,181.8l-3.3,2v-3.9v-4l3.3,1.9l3.4,2.1
			L-515.5,181.8z M-515.5,182.6l3.4-1.9v4v3.9l-3.4-2l-3.3-1.9L-515.5,182.6z M-515.5,191.5l-3.3,2v-3.9v-4l3.3,1.9l3.4,2.1
			L-515.5,191.5z M-515.5,192.4l3.4-1.9v4v3.9l-3.4-2l-3.3-1.9L-515.5,192.4z M-515.5,201.2l-3.3,2v-3.9v-4l3.3,1.9l3.4,2.1
			L-515.5,201.2z M-515.5,202.1l3.4-1.9v4v3.9l-3.4-2l-3.3-1.9L-515.5,202.1z M-515.5,210.9l-3.3,2V209v-4l3.3,1.9l3.4,2.1
			L-515.5,210.9z M-515.5,211.8l3.4-1.9v4v3.9l-3.4-2l-3.3-1.9L-515.5,211.8z M-507.7,177l-3.3,2v-4v-4l3.3,1.9l3.4,2.1L-507.7,177z
			 M-507.7,177.7l3.4-1.9v4v3.9l-3.4-2l-3.3-1.9L-507.7,177.7z M-499.9,181.8l-3.3,2v-3.9v-4l3.3,1.9l3.4,2.1L-499.9,181.8z"/>
		<path class="st1" d="M-489.8,177.7l3.4-1.9v4v3.9l-3.4-2l-3.3-1.9L-489.8,177.7z M-489.8,186.7l-3.3,2v-3.9v-4l3.3,1.9l3.4,2.1
			L-489.8,186.7z M-489.8,187.5l3.4-1.9v4v3.9l-3.4-2l-3.3-1.9L-489.8,187.5z M-489.8,196.4l-3.3,2v-3.9v-4l3.3,1.9l3.4,2.1
			L-489.8,196.4z M-489.8,197.2l3.4-1.9v4v3.9l-3.4-2l-3.3-1.9L-489.8,197.2z M-489.8,206.1l-3.3,2v-3.9v-4l3.3,1.9l3.4,2.1
			L-489.8,206.1z M-489.8,206.9l3.4-1.9v4v3.9l-3.4-2l-3.3-1.9L-489.8,206.9z M-482.1,172.9l3.4-1.9v4v3.9l-3.4-2l-3.4-1.9
			L-482.1,172.9z M-482.1,181.8l-3.3,2v-3.9v-4l3.3,1.9l3.4,2.1L-482.1,181.8z M-482.1,211.8l3.4-1.9v4v3.9l-3.4-2l-3.3-1.9
			L-482.1,211.8z M-474.3,177l-3.3,2v-4v-4l3.3,1.9l3.4,2.1L-474.3,177z M-474.3,206.9l3.4-1.9v4v3.9l-3.4-2l-3.3-1.9L-474.3,206.9z
			 M-474.3,215.8l-3.3,2v-3.9v-4l3.3,1.9l3.4,2.1L-474.3,215.8z M-466.6,181.8l-3.3,2v-3.9v-4l3.3,1.9l3.4,2.1L-466.6,181.8z
			 M-466.6,182.6l3.4-1.9v4v3.9l-3.4-2l-3.3-1.9L-466.6,182.6z M-466.6,191.5l-3.3,2v-3.9v-4l3.3,1.9l3.4,2.1L-466.6,191.5z
			 M-466.6,192.4l3.4-1.9v4v3.9l-3.4-2l-3.3-1.9L-466.6,192.4z M-466.6,201.2l-3.3,2v-3.9v-4l3.3,1.9l3.4,2.1L-466.6,201.2z
			 M-466.6,202.1l3.4-1.9v4v3.9l-3.4-2l-3.3-1.9L-466.6,202.1z M-466.6,210.9l-3.3,2V209v-4l3.3,1.9l3.4,2.1L-466.6,210.9z"/>
		<path class="st1" d="M-456.5,177.7l3.4-1.9v4v3.9l-3.4-2l-3.3-1.9L-456.5,177.7z M-456.5,186.7l-3.3,2v-3.9v-4l3.3,1.9l3.4,2.1
			L-456.5,186.7z M-456.5,187.5l3.4-1.9v4v3.9l-3.4-2l-3.3-1.9L-456.5,187.5z M-456.5,196.4l-3.3,2v-3.9v-4l3.3,1.9l3.4,2.1
			L-456.5,196.4z M-456.5,197.2l3.4-1.9v4v3.9l-3.4-2l-3.3-1.9L-456.5,197.2z M-456.5,206.1l-3.3,2v-3.9v-4l3.3,1.9l3.4,2.1
			L-456.5,206.1z M-456.5,206.9l3.4-1.9v4v3.9l-3.4-2l-3.3-1.9L-456.5,206.9z M-456.5,215.8l-3.3,2v-3.9v-4l3.3,1.9l3.4,2.1
			L-456.5,215.8z M-448.8,172.9l3.4-1.9v4v3.9l-3.4-2l-3.3-1.9L-448.8,172.9z M-448.8,181.8l-3.3,2v-3.9v-4l3.3,1.9l3.4,2.1
			L-448.8,181.8z M-448.8,192.4l3.4-1.9v4v3.9l-3.4-2l-3.3-1.9L-448.8,192.4z M-448.8,201.2l-3.3,2v-3.9v-4l3.3,1.9l3.4,2.1
			L-448.8,201.2z M-441,177l-3.3,2v-4v-4l3.3,1.9l3.4,2.1L-441,177z M-441,187.5l3.4-1.9v4v3.9l-3.4-2l-3.3-1.9L-441,187.5z
			 M-441,196.4l-3.3,2v-3.9v-4l3.3,1.9l3.4,2.1L-441,196.4z M-441,197.2l3.4-1.9v4v3.9l-3.4-2l-3.3-1.9L-441,197.2z M-433.2,181.8
			l-3.3,2v-3.9v-4l3.3,1.9l3.4,2.1L-433.2,181.8z M-433.2,182.6l3.4-1.9v4v3.9l-3.4-2l-3.3-1.9L-433.2,182.6z M-433.2,191.5l-3.3,2
			v-3.9v-4l3.3,1.9l3.4,2.1L-433.2,191.5z M-433.2,201.2l-3.3,2v-3.9v-4l3.3,1.9l3.4,2.1L-433.2,201.2z M-433.2,202.1l3.4-1.9v4v3.9
			l-3.4-2l-3.3-1.9L-433.2,202.1z M-433.2,210.9l-3.3,2V209v-4l3.3,1.9l3.4,2.1L-433.2,210.9z"/>
		<path class="st1" d="M-423.2,172.9l3.4-1.9v4v3.9l-3.4-2l-3.3-1.9L-423.2,172.9z M-423.2,181.8l-3.3,2v-3.9v-4l3.3,1.9l3.4,2.1
			L-423.2,181.8z M-423.2,182.6l3.4-1.9v4v3.9l-3.4-2l-3.3-1.9L-423.2,182.6z M-423.2,191.5l-3.3,2v-3.9v-4l3.3,1.9l3.4,2.1
			L-423.2,191.5z M-423.2,192.4l3.4-1.9v4v3.9l-3.4-2l-3.3-1.9L-423.2,192.4z M-423.2,201.2l-3.3,2v-3.9v-4l3.3,1.9l3.4,2.1
			L-423.2,201.2z M-423.2,202.1l3.4-1.9v4v3.9l-3.4-2l-3.3-1.9L-423.2,202.1z M-423.2,210.9l-3.3,2V209v-4l3.3,1.9l3.4,2.1
			L-423.2,210.9z"/>
		<path class="st1" d="M-413.2,177.7l3.4-1.9v4v3.9l-3.4-2l-3.3-1.9L-413.2,177.7z M-413.2,186.7l-3.3,2v-3.9v-4l3.3,1.9l3.4,2.1
			L-413.2,186.7z M-413.2,187.5l3.4-1.9v4v3.9l-3.4-2l-3.3-1.9L-413.2,187.5z M-413.2,197.2l3.4-1.9v4v3.9l-3.4-2l-3.3-1.9
			L-413.2,197.2z M-413.2,206.1l-3.3,2v-3.9v-4l3.3,1.9l3.4,2.1L-413.2,206.1z M-413.2,206.9l3.4-1.9v4v3.9l-3.4-2l-3.3-1.9
			L-413.2,206.9z M-405.4,172.9l3.4-1.9v4v3.9l-3.4-2l-3.3-1.9L-405.4,172.9z M-405.4,181.8l-3.3,2v-3.9v-4l3.3,1.9l3.4,2.1
			L-405.4,181.8z M-405.4,191.5l-3.3,2v-3.9v-4l3.3,1.9l3.4,2.1L-405.4,191.5z M-405.4,201.2l-3.3,2v-3.9v-4l3.3,1.9l3.4,2.1
			L-405.4,201.2z M-405.4,211.8l3.4-1.9v4v3.9l-3.4-2l-3.3-1.9L-405.4,211.8z M-397.6,177l-3.3,2v-4v-4l3.3,1.9l3.4,2.1L-397.6,177z
			 M-397.6,177.7l3.4-1.9v4v3.9l-3.4-2l-3.3-1.9L-397.6,177.7z M-397.6,206.9l3.4-1.9v4v3.9l-3.4-2l-3.3-1.9L-397.6,206.9z
			 M-397.6,215.8l-3.3,2v-3.9v-4l3.3,1.9l3.4,2.1L-397.6,215.8z M-389.8,181.8l-3.3,2v-3.9v-4l3.3,1.9l3.4,2.1L-389.8,181.8z
			 M-389.8,210.9l-3.3,2V209v-4l3.3,1.9l3.4,2.1L-389.8,210.9z"/>
		<path class="st1" d="M-379.8,177.9l3.4-2.1v4v3.9l-3.4-2l-3.3-1.9L-379.8,177.9z M-376.3,184.7l-3.4,1.9l-3.3,2v-3.9v-4l3.3,2.1
			L-376.3,184.7z M-379.8,187.6l3.4-2.1v4v3.9l-3.4-2l-3.3-1.9L-379.8,187.6z M-376.3,204.2l-3.4,1.9l-3.3,2v-3.9v-4l3.3,2.1
			L-376.3,204.2z M-379.8,207.1l3.4-2.1v4v3.9l-3.4-2l-3.3-1.9L-379.8,207.1z M-375.4,174.9l3.3-1.9l3.4-2.1v4v3.9l-3.4-2
			L-375.4,174.9z M-372.1,181.8l-3.3,2v-3.9v-4l3.3,2.1l3.4,1.9L-372.1,181.8z M-372.1,191.5l-3.3,2v-3.9v-4l3.3,2.1l3.4,1.9
			L-372.1,191.5z M-375.4,194.4l3.3-1.9l3.4-2.1v4v3.9l-3.4-2L-375.4,194.4z M-375.4,213.9l3.3-1.9l3.4-2.1v4v3.9l-3.4-2
			L-375.4,213.9z M-360.9,174.9l-3.4,1.9l-3.3,2v-3.9v-4l3.3,2.1L-360.9,174.9z M-364.3,177.9l3.4-2.1v4v3.9l-3.4-2l-3.3-1.9
			L-364.3,177.9z M-360.9,194.4l-3.4,1.9l-3.3,2v-3.9v-4l3.3,2.1L-360.9,194.4z M-364.3,197.3l3.4-2.1v4v3.9l-3.4-2l-3.3-1.9
			L-364.3,197.3z M-364.3,207.1l3.4-2.1v4v3.9l-3.4-2l-3.3-1.9L-364.3,207.1z M-360.9,213.9l-3.4,1.9l-3.3,2v-3.9v-4l3.3,2.1
			L-360.9,213.9z M-356.5,181.8l-3.3,2v-3.9v-4l3.3,2.1l3.4,1.9L-356.5,181.8z M-356.5,201.2l-3.3,2v-3.9v-4l3.3,2.1l3.4,1.9
			L-356.5,201.2z M-359.9,204.2l3.3-1.9l3.4-2.1v4v3.9l-3.4-2L-359.9,204.2z M-356.5,210.9l-3.3,2V209v-4l3.3,2.1l3.4,1.9
			L-356.5,210.9z"/>
	</g>
</g>
<g>
	<g>
		<g>
			<g>
				<defs>
					<rect id="SVGID_1_" x="-1066.8" y="122.2" width="437" height="437"/>
				</defs>
				<clipPath id="SVGID_00000016047688520062730810000001589226473759631016_">
					<use xlink:href="#SVGID_1_"  style="overflow:visible;"/>
				</clipPath>
				<g style="clip-path:url(#SVGID_00000016047688520062730810000001589226473759631016_);">
					<polygon class="st5" points="-1068.2,559.7 -921.5,413.1 -774.8,559.7 					"/>
					<polygon class="st1" points="-1068.2,559.7 -921.5,413.1 -889.6,559.7 					"/>
				</g>
			</g>
		</g>
		<g>
			<g>
				<defs>
					<rect id="SVGID_00000039850643634414771210000008247685814227480716_" x="-1066.8" y="122.2" width="437" height="437"/>
				</defs>
				<clipPath id="SVGID_00000120518570876389744850000010940474069074544768_">
					<use xlink:href="#SVGID_00000039850643634414771210000008247685814227480716_"  style="overflow:visible;"/>
				</clipPath>
				
					<path style="clip-path:url(#SVGID_00000120518570876389744850000010940474069074544768_);fill:none;stroke:#713F13;stroke-width:21;stroke-miterlimit:10;" d="
					M-562.1,138.1c-40.7,261.4-285.6,440.3-547,399.6"/>
				<g style="clip-path:url(#SVGID_00000120518570876389744850000010940474069074544768_);">
					<g>
						<path class="st5" d="M-979.7,484.2c-52.9,0.4-112.3,0.4-165.3,0C-1092,483.8-1032.6,483.8-979.7,484.2L-979.7,484.2z"/>
					</g>
					<g>
						<path class="st5" d="M-970.2,489.4c-52.9,0.4-112.3,0.4-165.3,0C-1082.6,489-1023.2,489-970.2,489.4L-970.2,489.4z"/>
					</g>
					<g>
						<path class="st5" d="M-960.8,494.6c-52.9,0.4-112.3,0.4-165.3,0C-1073.1,494.2-1013.7,494.2-960.8,494.6L-960.8,494.6z"/>
					</g>
					<g>
						<path class="st5" d="M-951.4,499.8c-52.9,0.4-112.3,0.4-165.3,0C-1063.7,499.4-1004.3,499.4-951.4,499.8L-951.4,499.8z"/>
					</g>
					<g>
						<path class="st5" d="M-941.9,504.9c-52.9,0.4-112.3,0.4-165.3,0C-1054.2,504.6-994.8,504.6-941.9,504.9L-941.9,504.9z"/>
					</g>
					<g>
						<path class="st5" d="M-932.5,510.1c-52.9,0.4-112.3,0.4-165.3,0C-1044.8,509.8-985.4,509.8-932.5,510.1L-932.5,510.1z"/>
					</g>
					<g>
						<path class="st5" d="M-923,515.2c-52.9,0.4-112.3,0.4-165.3,0C-1035.3,515-975.9,515-923,515.2L-923,515.2z"/>
					</g>
					<g>
						<path class="st5" d="M-913.6,520.5c-52.9,0.4-112.3,0.4-165.3,0C-1025.9,520-966.5,520-913.6,520.5L-913.6,520.5z"/>
					</g>
					<g>
						<path class="st5" d="M-904.1,525.7c-52.9,0.4-112.3,0.4-165.3,0C-1016.4,525.3-957.1,525.3-904.1,525.7L-904.1,525.7z"/>
					</g>
					<g>
						<path class="st5" d="M-898.7,530.8c-52.9,0.4-112.3,0.4-165.3,0C-1011,530.5-951.7,530.5-898.7,530.8L-898.7,530.8z"/>
					</g>
					<g>
						<path class="st5" d="M-885.3,536c-52.9,0.4-112.3,0.4-165.3,0C-997.7,535.5-938.3,535.5-885.3,536L-885.3,536z"/>
					</g>
					<g>
						<path class="st5" d="M-876,541c-52.9,0.4-112.3,0.4-165.3,0C-988.3,540.7-928.9,540.7-876,541L-876,541z"/>
					</g>
					<g>
						<path class="st5" d="M-866.6,546.2c-52.9,0.4-112.3,0.4-165.3,0C-978.9,545.8-919.5,545.8-866.6,546.2L-866.6,546.2z"/>
					</g>
					<g>
						<path class="st5" d="M-857.2,551.3c-52.9,0.4-112.3,0.4-165.3,0C-969.5,551-910.1,551-857.2,551.3L-857.2,551.3z"/>
					</g>
					<g>
						<path class="st5" d="M-847.8,556.5c-52.9,0.4-112.3,0.4-165.3,0C-960.1,556.2-900.8,556.2-847.8,556.5L-847.8,556.5z"/>
					</g>
				</g>
			</g>
		</g>
		<g>
			<g>
				<defs>
					<rect id="SVGID_00000112614415796633977530000009763600463463802806_" x="-1066.8" y="122.2" width="437" height="437"/>
				</defs>
				<clipPath id="SVGID_00000003074762449854059710000015053475958439772828_">
					<use xlink:href="#SVGID_00000112614415796633977530000009763600463463802806_"  style="overflow:visible;"/>
				</clipPath>
			</g>
		</g>
	</g>
	<polygon class="st0" points="-628.5,434.4 -921,559 -1065.5,443.8 -1065.5,559 -628.5,559 	"/>
</g>
</svg>
