<?xml version="1.0" encoding="utf-8"?>
<!-- Generator: Adobe Illustrator 26.0.1, SVG Export Plug-In . SVG Version: 6.00 Build 0)  -->
<svg version="1.1" id="Слой_1" xmlns="http://www.w3.org/2000/svg" xmlns:xlink="http://www.w3.org/1999/xlink" x="0px" y="0px"
	 viewBox="0 0 400 400" style="enable-background:new 0 0 400 400;" xml:space="preserve">
<style type="text/css">
	.st0{fill:#F8F8F8;}
	.st1{fill:#18181B;}
	.st2{fill:none;stroke:#FFFFFF;stroke-width:1.2443;stroke-linecap:round;stroke-linejoin:round;stroke-miterlimit:4.9772;}
	.st3{fill:#F5F0E0;stroke:#A99E71;stroke-width:0.6221;stroke-linecap:round;stroke-linejoin:round;stroke-miterlimit:4.9772;}
	.st4{fill:#F5F0E0;stroke:#A99E71;stroke-width:0.6221;stroke-miterlimit:4.9772;}
	.st5{fill:#FFFFFF;}
</style>
<rect x="-16" y="-17.2" class="st0" width="461.7" height="444.1"/>
<g>
	<g>
		<path class="st1" d="M32.2,39c0-9.8,5.8-13.8,13.6-13.8s12.6,3.6,12.6,9.1v0.4H50v-0.4c0-1.8-1.3-2-4.3-2c-4,0-5.6,0.6-5.6,5.2
			v1.4h0.5c1.2-1.7,3.7-3.2,8.1-3.2c6.6,0,10.1,2.4,10.1,7.9c0,5.4-4.2,8.8-12.4,8.8C36.2,52.4,32.2,48.1,32.2,39z M51.1,43.1
			c0-1.7-0.8-2.3-5.1-2.3c-4.7,0-5.5,0.6-5.5,2.3c0,1.5,0.8,2.2,5.5,2.2C50.3,45.3,51.1,44.6,51.1,43.1z"/>
		<path class="st1" d="M60.6,38.8c0-8.1,4.7-13.6,13.7-13.6S88,30.7,88,38.8s-4.7,13.6-13.7,13.6S60.6,47,60.6,38.8z M80,38.8
			c0-4.9-1.2-6.4-5.7-6.4s-5.7,1.5-5.7,6.4s1.2,6.4,5.7,6.4S80,43.7,80,38.8z"/>
		<path class="st1" d="M95.5,52V32.1h7v6h0.4c0.4-3.3,2.3-6.4,7.3-6.4c4.7,0,7,2.8,7.3,6.4h0.4c0.4-3.3,2.3-6.4,7.5-6.4
			c5.1,0,7.5,3.2,7.5,7.5V52h-7.4V42c0-2.8-0.8-3.6-3.9-3.6c-3,0-3.7,0.8-3.7,3.4V52h-7.4V42c0-2.8-0.8-3.6-3.9-3.6
			c-3,0-3.7,0.8-3.7,3.4V52H95.5z"/>
		<path class="st1" d="M135.1,30.3v-4.7h7.4v4.7H135.1z M135.1,52V32.1h7.4V52H135.1z"/>
		<path class="st1" d="M144.9,52V32.1h7v6h0.4c0.4-3.3,2.6-6.4,7.9-6.4c5.4,0,7.9,3.2,7.9,7.5V52h-7.4V42c0-2.8-1-3.6-4.3-3.6
			s-4.1,0.8-4.1,3.4V52H144.9z"/>
		<path class="st1" d="M170.3,52v-7.6h9.6V52H170.3z"/>
	</g>
	<g>
		<path class="st1" d="M312.7,52V33.9h-7.1v-5h1c2.9,0,5.1-0.6,6.6-3.3h6.9V52H312.7z"/>
		<path class="st1" d="M321.9,52v-4.7c0-4.5,2.1-6.8,7.8-8.7l7.2-2.3c1.7-0.6,2.4-1.1,2.4-2.3c0-1.3-0.5-2.2-4.5-2.2
			c-4.4,0-5.4,1.1-5.4,3.5V36H322v-0.6c0-5.3,3.6-10.2,13-10.2c8.4,0,11.7,3.7,11.7,9.1c0,5-3.3,7.3-8.1,8.5l-5.9,1.5
			c-1.7,0.4-3,0.7-3,2.1l7.4-0.9h9.4V52H321.9z"/>
		<path class="st1" d="M354.8,48.2v-6.3h-6.2v-6.1h6.2v-6.3h6.3v6.3h6.2v6.1h-6.2v6.3H354.8z"/>
	</g>
</g>
<rect x="-29.1" y="964.5" class="st1" width="466.6" height="147.6"/>
<g transform="translate(-152.15 -188.58)">
	<g transform="matrix(.66254 0 0 .66254 51.345 63.64)">
		<ellipse class="st1" cx="453.1" cy="1545" rx="359.4" ry="254.6"/>
		<g transform="translate(387.83 384.94)">
			<path class="st2" d="M-294.2,1160h718.9"/>
			<path class="st2" d="M-173.5,969.8c72.8,41.3,155,63.4,238.7,64.2c84.3-0.1,167.3-21.7,240.9-63 M306,1349
				c-73.5-41.2-156.4-62.8-240.7-62.9c-83.7,0.8-165.9,22.9-238.7,64.2"/>
		</g>
		<g transform="translate(387.65 384.94)">
			<path class="st3" d="M6.2,999.1l59.3-38.6v454.2l-29.6-1.7l-29.6-5.3L6.2,999.1z"/>
			<path class="st4" d="M35.8,966.1v-25.9l29.6-19.3v39.5L6.2,999.1L35.8,966.1z"/>
			<g transform="matrix(-1 0 0 1 -316.19 0)">
				<path class="st3" d="M-440.9,999.1l59.3-38.6v454.2l-29.6-1.7l-29.6-5.3L-440.9,999.1z"/>
				<path class="st4" d="M-411.2,966.1v-25.9l29.6-19.3v39.5l-59.3,38.6L-411.2,966.1z"/>
			</g>
		</g>
		<g transform="translate(387.65 384.94)">
			<path class="st5" d="M46.7,994.8L24.9,1009v152l21.8-14.2V994.8z M46.7,1178.6l-21.8,14.2v152l21.8-14.2V1178.6z"/>
			<path class="st5" d="M84.2,994.8v152L106,1161v-152L84.2,994.8z M84.2,1178.6v152l21.8,14.2v-152L84.2,1178.6z"/>
		</g>
		<circle class="st2" cx="453.1" cy="1545" r="254.6"/>
	</g>
</g>
<g transform="translate(-152.15 -188.58)">
	<g transform="matrix(.66254 0 0 .66254 51.345 63.64)">
		<ellipse class="st1" cx="2177.7" cy="987.7" rx="359.4" ry="254.6"/>
	</g>
</g>
<g>
	<path class="st1" d="M168.7,978.8c0.7-0.3,1.4-0.4,2-0.4c2,0,4.9,0.7,8.9,2c0.7-0.6,1.1-0.8,1.2-0.8c-2.4-3.1-3.6-5-3.8-5.9h0.1
		c0.3,0,2.3,2.1,6.1,6.3c1.8,1.8,6.1,2.7,12.9,2.7c3.7,0.5,6.8,0.7,9.1,0.7c13.8-0.6,20.7-1,20.7-1.3c0.3-0.5,0.8-0.7,1.5-0.7
		c0.1,0,1.8,1.1,4.9,3.2c1,0.5,2.7,1.1,5.2,1.8c0.3-0.2,0.7-0.3,1.1-0.3c0.4,0,0.8,0.6,1.4,1.7h-6.3c-0.8-0.7-1.5-1-2-1
		c-1.7,0.2-4.2,0.7-7.6,1.4c-1.1,0-1.8,0-2.2-0.1c-4.3,0.1-7.7,0.1-10.4,0.1H208c-2.6,0-6.1,0-10.6-0.1c-0.1,0.1-0.2,0.1-0.3,0.1
		l10.1,10.6c2.1,2.2,3.1,3.5,3.1,4h-3.7c-2.7,0-4.6-0.6-5.5-1.8c-0.4-0.4-1.4-1.9-2.8-4.3c-0.9-1.1-3.1-3-6.5-5.4
		c-2.8-2.3-6.1-4-9.7-5.3c-1.5-0.9-3.5-2.4-6-4.3c-1.3-1.2-3.4-1.8-6.1-1.8C169.1,979.4,168.7,979.1,168.7,978.8z"/>
	<path class="st1" d="M168.5,951.3v-1.1c0-3.6,2.2-7.1,6.6-10.5c2.1-1.4,4.2-2.1,6.2-2.1c5.2,0,16,4.7,32.2,14.1
		c3.6,2,5.5,2.9,5.7,2.9v-0.1c0-2.4,1-5.3,3.1-8.8c0.8-1.7,1.2-3,1.2-4.2c0-0.6-0.4-0.9-1.2-1c0-1.9-1.7-4-5.1-6.3
		c-6.2-2.6-9.6-4.1-10-4.6v-1c0-0.2,0.1-0.3,0.3-0.3h0.6c0.5,0,3.7,1.2,9.7,3.5c1.7,0.5,4.3,0.9,7.9,1.3c2.1,2.3,3.2,4,3.2,5.2v0.6
		c0,1.9-1.6,6.4-4.7,13.5v0.3c0,2.2,3.5,6.5,10.5,12.7c0.5,0.7,0.8,1.1,0.8,1.4v1.1h-2c-4.7-1.6-9.6-3.9-14.8-6.8
		c-20.8-12-33.2-18-37.3-18c-3,0-5.7,1.4-8.2,4.3c-0.5,1.2-0.8,2.1-0.8,2.8v0.4c0,1.8,3.4,4.4,10.1,8c2.6,1.1,5.6,3.2,8.9,6.1
		c0,0.1,0.5,0.7,1.5,1.8c0,0.1-0.2,0.3-0.5,0.4h-1.1c-0.3,0-2.6-0.7-6.8-2.2c-1.1,0-2.2-0.4-3.5-1.3c-3.7-1.7-6.8-3.5-9.3-5.3
		C169.6,956.2,168.5,953.9,168.5,951.3z M182,952.4c0.4-0.9,1.4-1.9,2.8-3.1c1.8,1,2.8,2.2,2.8,3.6c0,0.9-0.7,1.5-2.2,1.8h-0.3
		C184.4,954.8,183.4,954,182,952.4z"/>
	<path class="st1" d="M168.5,906.1V905c0-3.6,2.2-7.1,6.6-10.5c2.1-1.4,4.2-2.1,6.2-2.1c5.2,0,16,4.7,32.2,14.1
		c3.6,2,5.5,2.9,5.7,2.9v-0.1c0-2.4,1-5.3,3.1-8.8c0.8-1.7,1.2-3,1.2-4.2c0-0.6-0.4-0.9-1.2-1c0-1.9-1.7-4-5.1-6.3
		c-6.2-2.6-9.6-4.1-10-4.6v-1c0-0.2,0.1-0.3,0.3-0.3h0.6c0.5,0,3.7,1.2,9.7,3.5c1.7,0.5,4.3,0.9,7.9,1.3c2.1,2.3,3.2,4,3.2,5.2v0.6
		c0,1.9-1.6,6.4-4.7,13.5v0.3c0,2.2,3.5,6.5,10.5,12.7c0.5,0.7,0.8,1.1,0.8,1.4v1.1h-2c-4.7-1.6-9.6-3.9-14.8-6.8
		c-20.8-12-33.2-18-37.3-18c-3,0-5.7,1.4-8.2,4.3c-0.5,1.2-0.8,2.1-0.8,2.8v0.4c0,1.8,3.4,4.4,10.1,8c2.6,1.1,5.6,3.2,8.9,6.1
		c0,0.1,0.5,0.7,1.5,1.8c0,0.1-0.2,0.3-0.5,0.4h-1.1c-0.3,0-2.6-0.7-6.8-2.2c-1.1,0-2.2-0.4-3.5-1.3c-3.7-1.7-6.8-3.5-9.3-5.3
		C169.6,911,168.5,908.7,168.5,906.1z M182,907.2c0.4-0.9,1.4-1.9,2.8-3.1c1.8,1,2.8,2.2,2.8,3.6c0,0.9-0.7,1.5-2.2,1.8h-0.3
		C184.4,909.6,183.4,908.8,182,907.2z"/>
	<path class="st1" d="M165,846.7c3.3,0.3,5.3,0.4,5.9,0.4c0.4,0,4.4-0.8,12-2.4h1.5c0.2,0,0.4,0.2,0.7,0.6c-0.6,1-2,1.8-4.1,2.5
		c-0.7,0-1.3,0.4-1.6,1.3c0.2,2.3,6.2,7.3,18.1,15.1c1.6,1,2.5,1.5,2.8,1.5c0.7-0.8,1-1.6,1-2.2c-0.8-3.5-1.2-5.7-1.2-6.7v-0.1
		c0-5.3,3.7-9.3,11-11.9c1.9-0.6,3.6-0.8,5.1-0.8h2.3c4.5,0.1,6.7,0.4,6.7,0.8c5.1,3.7,7.7,6.3,7.9,8c1.3,2.3,2,4.2,2,5.7v2.1
		c0,4.3-2.3,8.3-6.9,12.1c-3.3,1.6-5.6,2.4-6.9,2.4h-10.9c-0.6-0.7-2.9-1.3-6.9-2.1c-3.5-1.1-9-4.4-16.5-9.8
		c-3.6-2.8-8.5-6.7-14.5-11.7c-0.9-0.5-2.9-1.3-5.9-2.2C165.5,848.3,165,847.5,165,846.7z M217.7,870.2c5.2,0,8.9-1.9,10.9-5.7
		c0.6-1,0.8-2.3,0.8-3.6V860c0-5.3-2.7-8.8-8.1-10.6c-1-0.4-2.3-0.6-3.8-0.6h-0.8c-0.7,0-2.1,0.6-4.1,1.8c-4.8,0.9-7.3,2.9-7.3,6.1
		v1.1c0,6,2.6,9.9,7.8,11.7C214.5,870,216,870.2,217.7,870.2z M213.9,860.4v-0.8c0-0.6,0.6-1.3,1.8-2.1h2.6c0.6,0.6,0.8,1.5,0.8,2.7
		s-1,1.8-3,1.8h-0.3C214.6,861.7,213.9,861.1,213.9,860.4z"/>
	<path class="st1" d="M168.5,819.1V818c0-3.6,2.2-7.1,6.6-10.5c2.1-1.4,4.2-2.1,6.2-2.1c5.2,0,16,4.7,32.2,14.1
		c3.6,2,5.5,2.9,5.7,2.9v-0.1c0-2.4,1-5.3,3.1-8.8c0.8-1.7,1.2-3,1.2-4.2c0-0.6-0.4-0.9-1.2-1c0-1.9-1.7-4-5.1-6.3
		c-6.2-2.6-9.6-4.1-10-4.6v-1c0-0.2,0.1-0.3,0.3-0.3h0.6c0.5,0,3.7,1.2,9.7,3.5c1.7,0.5,4.3,0.9,7.9,1.3c2.1,2.3,3.2,4,3.2,5.2v0.6
		c0,1.9-1.6,6.4-4.7,13.5v0.3c0,2.2,3.5,6.5,10.5,12.7c0.5,0.7,0.8,1.1,0.8,1.4v1.1h-2c-4.7-1.6-9.6-3.9-14.8-6.8
		c-20.8-12-33.2-18-37.3-18c-3,0-5.7,1.4-8.2,4.3c-0.5,1.2-0.8,2.1-0.8,2.8v0.4c0,1.8,3.4,4.4,10.1,8c2.6,1.1,5.6,3.2,8.9,6.1
		c0,0.1,0.5,0.7,1.5,1.8c0,0.1-0.2,0.3-0.5,0.4h-1.1c-0.3,0-2.6-0.7-6.8-2.2c-1.1,0-2.2-0.4-3.5-1.3c-3.7-1.7-6.8-3.5-9.3-5.3
		C169.6,824,168.5,821.7,168.5,819.1z M182,820.2c0.4-0.9,1.4-1.9,2.8-3.1c1.8,1,2.8,2.2,2.8,3.6c0,0.9-0.7,1.5-2.2,1.8h-0.3
		C184.4,822.6,183.4,821.8,182,820.2z"/>
</g>
<text transform="matrix(6.123234e-17 -1 1 6.123234e-17 607.2477 592.7832)" class="st1" style="font-family:'SatanycDemoniacSt'; font-size:71.5049px;">12262</text>
<g transform="translate(-152.15 -188.58)">
	<g transform="matrix(.66254 0 0 .66254 51.345 63.64)">
		<g transform="translate(387.65 384.94)">
			<path class="st3" d="M1730.8,8.1l59.3-38.6v454.2l-29.6-1.7l-29.6-5.3L1730.8,8.1z"/>
			<path class="st4" d="M1760.5-24.9v-25.9l29.6-19.3v39.5L1730.8,8L1760.5-24.9z"/>
			<g transform="matrix(-1 0 0 1 -316.19 0)">
				<path class="st3" d="M-2165.5,8.1l59.3-38.6v454.2l-29.6-1.7l-29.6-5.3L-2165.5,8.1z"/>
				<path class="st4" d="M-2135.9-24.9v-25.9l29.6-19.3v39.5L-2165.6,8L-2135.9-24.9z"/>
			</g>
		</g>
		<g transform="translate(387.65 384.94)">
			<path class="st5" d="M1771.4,3.8L1749.6,18v152l21.8-14.2V3.8z M1771.4,187.6l-21.8,14.2v152l21.8-14.2V187.6z"/>
			<path class="st5" d="M1808.8,3.8v152l21.8,14.2V18L1808.8,3.8z M1808.8,187.6v152l21.8,14.2v-152L1808.8,187.6z"/>
		</g>
	</g>
</g>
<g>
	<path class="st1" d="M752,641.9c0.7-0.3,1.4-0.4,2-0.4c2,0,4.9,0.7,8.9,2c0.7-0.6,1.1-0.8,1.2-0.8c-2.4-3.1-3.6-5-3.8-5.9h0.1
		c0.3,0,2.3,2.1,6.1,6.3c1.8,1.8,6.1,2.7,12.9,2.7c3.7,0.5,6.8,0.7,9.1,0.7c13.8-0.6,20.7-1,20.7-1.3c0.3-0.5,0.8-0.7,1.5-0.7
		c0.1,0,1.8,1.1,4.9,3.2c1,0.5,2.7,1.1,5.2,1.8c0.3-0.2,0.7-0.3,1.1-0.3c0.4,0,0.8,0.6,1.4,1.7H817c-0.8-0.7-1.5-1-2-1
		c-1.7,0.2-4.2,0.7-7.6,1.4c-1.1,0-1.8,0-2.2-0.1c-4.3,0.1-7.7,0.1-10.4,0.1h-3.2c-2.6,0-6.1,0-10.6-0.1c-0.1,0.1-0.2,0.1-0.3,0.1
		l10.1,10.6c2.1,2.2,3.1,3.5,3.1,4H790c-2.7,0-4.6-0.6-5.5-1.8c-0.4-0.4-1.4-1.9-2.8-4.3c-0.9-1.1-3.1-3-6.5-5.4
		c-2.8-2.3-6.1-4-9.7-5.3c-1.5-0.9-3.5-2.4-6-4.3c-1.3-1.2-3.4-1.8-6.1-1.8C752.5,642.4,752,642.1,752,641.9z"/>
	<path class="st1" d="M751.9,614.3v-1.1c0-3.6,2.2-7.1,6.6-10.5c2.1-1.4,4.2-2.1,6.2-2.1c5.2,0,16,4.7,32.2,14.1
		c3.6,2,5.5,2.9,5.7,2.9v-0.1c0-2.4,1-5.3,3.1-8.8c0.8-1.7,1.2-3,1.2-4.2c0-0.6-0.4-0.9-1.2-1c0-1.9-1.7-4-5.1-6.3
		c-6.2-2.6-9.6-4.1-10-4.6v-1c0-0.2,0.1-0.3,0.3-0.3h0.6c0.5,0,3.7,1.2,9.7,3.5c1.7,0.5,4.3,0.9,7.9,1.3c2.1,2.3,3.2,4,3.2,5.2v0.6
		c0,1.9-1.6,6.4-4.7,13.5v0.3c0,2.2,3.5,6.5,10.5,12.7c0.5,0.7,0.8,1.1,0.8,1.4v1.1h-2c-4.7-1.6-9.6-3.9-14.8-6.8
		c-20.8-12-33.2-18-37.3-18c-3,0-5.7,1.4-8.2,4.3c-0.5,1.2-0.8,2.1-0.8,2.8v0.4c0,1.8,3.4,4.4,10.1,8c2.6,1.1,5.6,3.2,8.9,6.1
		c0,0.1,0.5,0.7,1.5,1.8c0,0.1-0.2,0.3-0.5,0.4h-1.1c-0.3,0-2.6-0.7-6.8-2.2c-1.1,0-2.2-0.4-3.5-1.3c-3.7-1.7-6.8-3.5-9.3-5.3
		C753,619.2,751.9,616.9,751.9,614.3z M765.3,615.4c0.4-0.9,1.4-1.9,2.8-3.1c1.8,1,2.8,2.2,2.8,3.6c0,0.9-0.7,1.5-2.2,1.8h-0.3
		C767.8,617.8,766.7,617,765.3,615.4z"/>
	<path class="st1" d="M751.9,569.1V568c0-3.6,2.2-7.1,6.6-10.5c2.1-1.4,4.2-2.1,6.2-2.1c5.2,0,16,4.7,32.2,14.1
		c3.6,2,5.5,2.9,5.7,2.9v-0.1c0-2.4,1-5.3,3.1-8.8c0.8-1.7,1.2-3,1.2-4.2c0-0.6-0.4-0.9-1.2-1c0-1.9-1.7-4-5.1-6.3
		c-6.2-2.6-9.6-4.1-10-4.6v-1c0-0.2,0.1-0.3,0.3-0.3h0.6c0.5,0,3.7,1.2,9.7,3.5c1.7,0.5,4.3,0.9,7.9,1.3c2.1,2.3,3.2,4,3.2,5.2v0.6
		c0,1.9-1.6,6.4-4.7,13.5v0.3c0,2.2,3.5,6.5,10.5,12.7c0.5,0.7,0.8,1.1,0.8,1.4v1.1h-2c-4.7-1.6-9.6-3.9-14.8-6.8
		c-20.8-12-33.2-18-37.3-18c-3,0-5.7,1.4-8.2,4.3c-0.5,1.2-0.8,2.1-0.8,2.8v0.4c0,1.8,3.4,4.4,10.1,8c2.6,1.1,5.6,3.2,8.9,6.1
		c0,0.1,0.5,0.7,1.5,1.8c0,0.1-0.2,0.3-0.5,0.4h-1.1c-0.3,0-2.6-0.7-6.8-2.2c-1.1,0-2.2-0.4-3.5-1.3c-3.7-1.7-6.8-3.5-9.3-5.3
		C753,574,751.9,571.7,751.9,569.1z M765.3,570.2c0.4-0.9,1.4-1.9,2.8-3.1c1.8,1,2.8,2.2,2.8,3.6c0,0.9-0.7,1.5-2.2,1.8h-0.3
		C767.8,572.6,766.7,571.8,765.3,570.2z"/>
	<path class="st1" d="M748.4,509.7c3.3,0.3,5.3,0.4,5.9,0.4c0.4,0,4.4-0.8,12-2.4h1.5c0.2,0,0.4,0.2,0.7,0.6c-0.6,1-2,1.8-4.1,2.5
		c-0.7,0-1.3,0.4-1.6,1.3c0.2,2.3,6.2,7.3,18.1,15.1c1.6,1,2.5,1.5,2.8,1.5c0.7-0.8,1-1.6,1-2.2c-0.8-3.5-1.2-5.7-1.2-6.7v-0.1
		c0-5.3,3.7-9.3,11-11.9c1.9-0.6,3.6-0.8,5.1-0.8h2.3c4.5,0.1,6.7,0.4,6.7,0.8c5.1,3.7,7.7,6.3,7.9,8c1.3,2.3,2,4.2,2,5.7v2.1
		c0,4.3-2.3,8.3-6.9,12.1c-3.3,1.6-5.6,2.4-6.9,2.4h-10.9c-0.6-0.7-2.9-1.3-6.9-2.1c-3.5-1.1-9-4.4-16.5-9.8
		c-3.6-2.8-8.5-6.7-14.5-11.7c-0.9-0.5-2.9-1.3-5.9-2.2C748.9,511.4,748.4,510.5,748.4,509.7z M801,533.2c5.2,0,8.9-1.9,10.9-5.7
		c0.6-1,0.8-2.3,0.8-3.6V523c0-5.3-2.7-8.8-8.1-10.6c-1-0.4-2.3-0.6-3.8-0.6H800c-0.7,0-2.1,0.6-4.1,1.8c-4.8,0.9-7.3,2.9-7.3,6.1
		v1.1c0,6,2.6,9.9,7.8,11.7C797.9,533,799.4,533.2,801,533.2z M797.3,523.4v-0.8c0-0.6,0.6-1.3,1.8-2.1h2.6c0.6,0.6,0.8,1.5,0.8,2.7
		s-1,1.8-3,1.8h-0.3C797.9,524.7,797.3,524.2,797.3,523.4z"/>
	<path class="st1" d="M751.9,482.1V481c0-3.6,2.2-7.1,6.6-10.5c2.1-1.4,4.2-2.1,6.2-2.1c5.2,0,16,4.7,32.2,14.1
		c3.6,2,5.5,2.9,5.7,2.9v-0.1c0-2.4,1-5.3,3.1-8.8c0.8-1.7,1.2-3,1.2-4.2c0-0.6-0.4-0.9-1.2-1c0-1.9-1.7-4-5.1-6.3
		c-6.2-2.6-9.6-4.1-10-4.6v-1c0-0.2,0.1-0.3,0.3-0.3h0.6c0.5,0,3.7,1.2,9.7,3.5c1.7,0.5,4.3,0.9,7.9,1.3c2.1,2.3,3.2,4,3.2,5.2v0.6
		c0,1.9-1.6,6.4-4.7,13.5v0.3c0,2.2,3.5,6.5,10.5,12.7c0.5,0.7,0.8,1.1,0.8,1.4v1.1h-2c-4.7-1.6-9.6-3.9-14.8-6.8
		c-20.8-12-33.2-18-37.3-18c-3,0-5.7,1.4-8.2,4.3c-0.5,1.2-0.8,2.1-0.8,2.8v0.4c0,1.8,3.4,4.4,10.1,8c2.6,1.1,5.6,3.2,8.9,6.1
		c0,0.1,0.5,0.7,1.5,1.8c0,0.1-0.2,0.3-0.5,0.4h-1.1c-0.3,0-2.6-0.7-6.8-2.2c-1.1,0-2.2-0.4-3.5-1.3c-3.7-1.7-6.8-3.5-9.3-5.3
		C753,487.1,751.9,484.8,751.9,482.1z M765.3,483.3c0.4-0.9,1.4-1.9,2.8-3.1c1.8,1,2.8,2.2,2.8,3.6c0,0.9-0.7,1.5-2.2,1.8h-0.3
		C767.8,485.6,766.7,484.8,765.3,483.3z"/>
</g>
<text transform="matrix(0.9084 -0.418 0.418 0.9084 1262.0891 292.5519)" class="st1" style="font-family:'SatanycDemoniacSt'; font-size:71.5018px;">12262</text>
<g>
	<g>
		<path class="st1" d="M35.7,346.4l11.5-1.4l11.5-1.3l23.1-2.6l46.2-5.1c15.4-1.7,30.8-3.3,46.2-5l46.2-4.9l46.2-4.7
			c15.4-1.5,30.8-3.1,46.3-4.6l46.3-4.5l23.1-2.2l11.6-1.1l11.6-1l-11.5,1.4l-11.5,1.3l-23.1,2.6l-46.2,5.1
			c-15.4,1.7-30.8,3.3-46.2,5l-46.2,4.8l-46.2,4.7c-15.4,1.5-30.8,3.1-46.3,4.6L82,342.1l-23.1,2.2l-11.6,1.1L35.7,346.4z"/>
		<path class="st1" d="M18.7,352l11.5-1.4l11.5-1.3l23.1-2.6l46.2-5.1c15.4-1.7,30.8-3.3,46.2-5l46.2-4.9l46.2-4.7
			c15.4-1.5,30.8-3.1,46.3-4.6l46.3-4.5l23.1-2.2l11.6-1.1l11.6-1l-11.5,1.4l-11.5,1.3l-23.1,2.6l-46.2,5.1
			c-15.4,1.7-30.8,3.3-46.2,5l-46.2,4.8l-46.2,4.7c-15.4,1.5-30.8,3.1-46.3,4.6L65,347.8l-23.1,2.2L30.2,351L18.7,352z"/>
		<path class="st1" d="M1.6,357.7l11.5-1.4l11.5-1.3l23.1-2.6l46.2-5.1c15.4-1.7,30.8-3.3,46.2-5l46.2-4.9l46.2-4.7
			c15.4-1.5,30.8-3.1,46.3-4.6l46.3-4.5l23.1-2.2l11.6-1.1l11.6-1l-11.5,1.4l-11.5,1.3l-23.1,2.6l-46.2,5.1
			c-15.4,1.7-30.8,3.3-46.2,5l-46.2,4.8l-46.2,4.7c-15.4,1.5-30.8,3.1-46.3,4.6l-46.3,4.5l-23.1,2.2l-11.6,1.1L1.6,357.7z"/>
		<path class="st1" d="M-15.4,363.4l11.5-1.4l11.5-1.3l23.1-2.6L77,353c15.4-1.7,30.8-3.3,46.2-5l46.2-4.9l46.2-4.7
			c15.4-1.5,30.8-3.1,46.3-4.6l46.3-4.5l23.1-2.2l11.6-1.1l11.6-1l-11.5,1.4l-11.5,1.3l-23.1,2.6l-46.2,5.1
			c-15.4,1.7-30.8,3.3-46.2,5l-46.2,4.8l-46.2,4.7c-15.4,1.5-30.8,3.1-46.3,4.6l-46.3,4.5l-23.1,2.2l-11.6,1.1L-15.4,363.4z"/>
		<path class="st1" d="M0.3,367.2l11.5-1.4l11.5-1.3l23.1-2.6l46.2-5.1c15.4-1.7,30.8-3.3,46.2-5l46.2-4.9l46.2-4.7
			c15.4-1.5,30.8-3.1,46.3-4.6l46.3-4.5l23.1-2.2l11.6-1.1l11.6-1l-11.5,1.4l-11.5,1.3l-23.1,2.6l-46.2,5.1
			c-15.4,1.7-30.8,3.3-46.2,5l-46.2,4.8l-46.2,4.7c-15.4,1.5-30.8,3.1-46.3,4.6l-46.3,4.5L23.4,365l-11.6,1.1L0.3,367.2z"/>
		<path class="st1" d="M16,370.9l11.5-1.4l11.5-1.3l23.1-2.6l46.2-5.1c15.4-1.7,30.8-3.3,46.2-5l46.2-4.9l46.2-4.7
			c15.4-1.5,30.8-3.1,46.3-4.6l46.3-4.5l23.1-2.2l11.6-1.1l11.6-1l-11.5,1.4l-11.5,1.3l-23.1,2.6l-46.2,5.1
			c-15.4,1.7-30.8,3.3-46.2,5l-46.2,4.8l-46.2,4.7c-15.4,1.5-30.8,3.1-46.3,4.6l-46.3,4.5l-23.1,2.2l-11.6,1.1L16,370.9z"/>
		<path class="st1" d="M31.6,374.7l11.5-1.4l11.5-1.3l23.1-2.6l46.2-5.1c15.4-1.7,30.8-3.3,46.2-5l46.2-4.9l46.2-4.7
			c15.4-1.5,30.8-3.1,46.3-4.6l46.3-4.5l23.1-2.2l11.6-1.1l11.6-1l-11.5,1.4l-11.5,1.3l-23.1,2.6l-46.2,5.1
			c-15.4,1.7-30.8,3.3-46.2,5l-46.2,4.8l-46.2,4.7c-15.4,1.5-30.8,3.1-46.3,4.6l-46.3,4.5l-23.1,2.2l-11.6,1.1L31.6,374.7z"/>
		<path class="st1" d="M11.7,382.8l11.5-1.4l11.5-1.3l23.1-2.6l46.2-5.1c15.4-1.7,30.8-3.3,46.2-5l46.2-4.9l46.2-4.7
			c15.4-1.5,30.8-3.1,46.3-4.6l46.3-4.5l23.1-2.2l11.6-1.1l11.6-1l-11.5,1.4l-11.5,1.3l-23.1,2.6l-46.2,5.1
			c-15.4,1.7-30.8,3.3-46.2,5l-46.2,4.8l-46.2,4.7c-15.4,1.5-30.8,3.1-46.3,4.6L58,378.5l-23.1,2.2l-11.6,1.1L11.7,382.8z"/>
		<path class="st1" d="M-8.2,390.9l11.5-1.4l11.5-1.3l23.1-2.6l46.2-5.1c15.4-1.7,30.8-3.3,46.2-5l46.2-4.9l46.2-4.7
			c15.4-1.5,30.8-3.1,46.3-4.6l46.3-4.5l23.1-2.2l11.6-1.1l11.6-1l-11.5,1.4l-11.5,1.3l-23.1,2.6l-46.2,5.1
			c-15.4,1.7-30.8,3.3-46.2,5l-46.2,4.8l-46.2,4.7c-15.4,1.5-30.8,3.1-46.3,4.6l-46.3,4.5l-23.1,2.2l-11.6,1.1L-8.2,390.9z"/>
		<path class="st1" d="M-28.2,398.9l11.5-1.4l11.5-1.3l23.1-2.6l46.2-5.1c15.4-1.7,30.8-3.3,46.2-5l46.2-4.9l46.2-4.7
			c15.4-1.5,30.8-3.1,46.3-4.6l46.3-4.5l23.1-2.2l11.6-1.1l11.6-1l-11.5,1.4l-11.5,1.3l-23.1,2.6l-46.2,5.1
			c-15.4,1.7-30.8,3.3-46.2,5l-46.2,4.8l-46.2,4.7c-15.4,1.5-30.8,3.1-46.3,4.6l-46.3,4.5L-5,396.8l-11.6,1.1L-28.2,398.9z"/>
		<path class="st1" d="M8.8,398.9l11.5-1.4l11.5-1.3l23.1-2.6l46.2-5.1c15.4-1.7,30.8-3.3,46.2-5l46.2-4.9l46.2-4.7
			c15.4-1.5,30.8-3.1,46.3-4.6l46.3-4.5l23.1-2.2l11.6-1.1l11.6-1l-11.5,1.4l-11.5,1.3l-23.1,2.6l-46.2,5.1
			c-15.4,1.7-30.8,3.3-46.2,5l-46.2,4.8l-46.2,4.7c-15.4,1.5-30.8,3.1-46.3,4.6l-46.3,4.5L32,396.8l-11.6,1.1L8.8,398.9z"/>
		<path class="st1" d="M45.9,398.9l11.5-1.4l11.5-1.3l23.1-2.6l46.2-5.1c15.4-1.7,30.8-3.3,46.2-5l46.2-4.9l46.2-4.7
			c15.4-1.5,30.8-3.1,46.3-4.6l46.3-4.5l23.1-2.2l11.6-1.1l11.6-1l-11.5,1.4l-11.5,1.3l-23.1,2.6l-46.2,5.1
			c-15.4,1.7-30.8,3.3-46.2,5l-46.2,4.8l-46.2,4.7c-15.4,1.5-30.8,3.1-46.3,4.6l-46.3,4.5L69,396.8l-11.6,1.1L45.9,398.9z"/>
		<path class="st1" d="M82.9,398.9l11.5-1.4l11.5-1.3l23.1-2.6l46.2-5.1c15.4-1.7,30.8-3.3,46.2-5l46.2-4.9l46.2-4.7
			c15.4-1.5,30.8-3.1,46.3-4.6l46.3-4.5l23.1-2.2l11.6-1.1l11.6-1l-11.5,1.4l-11.5,1.3l-23.1,2.6l-46.2,5.1
			c-15.4,1.7-30.8,3.3-46.2,5l-46.2,4.8l-46.2,4.7c-15.4,1.5-30.8,3.1-46.3,4.6l-46.3,4.5l-23.1,2.2l-11.6,1.1L82.9,398.9z"/>
		<path class="st1" d="M62.9,406.5l11.5-1.4l11.5-1.3l23.1-2.6l46.2-5.1c15.4-1.7,30.8-3.3,46.2-5l46.2-4.9l46.2-4.7
			c15.4-1.5,30.8-3.1,46.3-4.6l46.3-4.5l23.1-2.2l11.6-1.1l11.6-1l-11.5,1.4l-11.5,1.3l-23.1,2.6l-46.2,5.1
			c-15.4,1.7-30.8,3.3-46.2,5l-46.2,4.8l-46.2,4.7c-15.4,1.5-30.8,3.1-46.3,4.6l-46.3,4.5l-23.1,2.2l-11.6,1.1L62.9,406.5z"/>
		<path class="st1" d="M43,414.1l11.5-1.4l11.5-1.3l23.1-2.6l46.2-5.1c15.4-1.7,30.8-3.3,46.2-5l46.2-4.9l46.2-4.7
			c15.4-1.5,30.8-3.1,46.3-4.6l46.3-4.5l23.1-2.2l11.6-1.1l11.6-1l-11.5,1.4l-11.5,1.3l-23.1,2.6l-46.2,5.1
			c-15.4,1.7-30.8,3.3-46.2,5l-46.2,4.8l-46.2,4.7c-15.4,1.5-30.8,3.1-46.3,4.6l-46.3,4.5L66.2,412l-11.6,1.1L43,414.1z"/>
		<path class="st1" d="M92.8,415.5l7.1-0.9l7.1-0.8l14.2-1.6c9.5-1.1,19-2.1,28.4-3.1c9.5-1,19-2,28.5-3l28.5-2.9l28.5-2.7
			c9.5-0.9,19-1.8,28.5-2.6c9.5-0.9,19-1.7,28.5-2.5l14.3-1.2l7.1-0.6l7.1-0.5l-7.1,0.9l-7.1,0.8l-14.2,1.6
			c-9.5,1.1-19,2.1-28.4,3.1c-9.5,1-19,2-28.5,3l-28.5,2.9l-28.5,2.7c-9.5,0.9-19,1.8-28.5,2.6c-9.5,0.9-19,1.7-28.5,2.5l-14.3,1.2
			L100,415L92.8,415.5z"/>
		<path class="st1" d="M128.4,417.9l7.1-0.9l7.1-0.8l14.2-1.6c9.5-1.1,19-2.1,28.4-3.1c9.5-1,19-2,28.5-3l28.5-2.9l28.5-2.7
			c9.5-0.9,19-1.8,28.5-2.6c9.5-0.9,19-1.7,28.5-2.5l14.3-1.2l7.1-0.6l7.1-0.5l-7.1,0.9l-7.1,0.8l-14.2,1.6
			c-9.5,1.1-19,2.1-28.4,3.1c-9.5,1-19,2-28.5,3l-28.5,2.9l-28.5,2.7c-9.5,0.9-19,1.8-28.5,2.6c-9.5,0.9-19,1.7-28.5,2.5l-14.3,1.2
			l-7.1,0.6L128.4,417.9z"/>
	</g>
	<g>
		<g>
			<g>
				<path class="st5" d="M270.7,268.9c0,0,0.1,0.1,0.1,0.1c0,0,3,0.2,3,0.2c0,0,0.1,0,0.1-0.1l6.9-12l0.2,0.2c3.5,4.4,7,9,10.4,13.4
					c1.2,1.6,2.4,3.1,3.6,4.7l7,9.1l1.4,1.8c0,0,0.1,0.1,0.1,0.1c0,0,2.3-0.1,2.3-0.1c0.1,0,0.1,0,0.1-0.1c0,0,0-0.1,0-0.1
					l-25.6-33.4c0,0-0.1-0.1-0.1-0.1c0,0,0,0,0,0c0,0-0.1,0-0.1,0.1l-9.4,16.1C270.7,268.9,270.7,268.9,270.7,268.9z"/>
				<path class="st5" d="M218.2,353.1l0.9-1.4c1.7-2.7,3.4-5.5,5-8.2l5.8-9.7c1.6-2.7,3.7-6.2,5.8-9.7l5.8-9.7l2.9-4.9l2.9-4.9
					c4.5-7.6,8.1-13.8,11.3-19.6c0-0.1,0-0.1,0-0.2c0,0,0,0-0.1,0c0,0-0.1,0-0.1,0.1c-3.5,5.6-7.3,11.7-11.9,19.2l-3,4.8l-2.9,4.8
					l-5.8,9.7c-2.1,3.5-4.2,7-5.8,9.7l-5.8,9.7c-1.6,2.7-3.3,5.5-4.9,8.3l-0.9,1.5c-0.7,1.1-1.3,2.3-2,3.4c-1.1,2-2.3,4-3.5,6
					l-1.6-1.8c-1.6-1.9-3.4-3.8-5-5.6c0,0-0.1,0-0.1,0c0,0-0.1,0-0.1,0c-0.1,0-0.1,0.1,0,0.2c1.6,1.9,3.2,3.9,4.8,5.7l2.1,2.5
					c0,0,0.1,0,0.1,0c0,0,0,0,0,0c0,0,0.1,0,0.1-0.1l0.1-0.2c1.3-2.1,2.6-4.2,3.8-6.2C216.8,355.4,217.5,354.2,218.2,353.1z"/>
				<path class="st5" d="M208.7,349c0,0.1,0,0.1,0,0.2c0,0,0,0,0.1,0c0,0,0.1,0,0.1-0.1l12.5-17.6c-0.5,2.6-1.1,5.2-1.7,7.6
					c0,0.1,0,0.1,0.1,0.2c0,0,0,0,0,0c0.1,0,0.1,0,0.1-0.1c1.2-3.4,2.3-6.9,3.4-10.4l2.3-3.3L225,330c0,0.1,0,0.1,0.1,0.2
					c0,0,0,0,0,0c0.1,0,0.1,0,0.1-0.1l2.2-6.9l2.6-3.7l-0.9,5.3c0,0.1,0,0.1,0.1,0.2c0,0,0,0,0,0c0.1,0,0.1,0,0.1-0.1l2.4-7.9
					l3.3-4.6l-1,6.3c0,0.1,0,0.1,0.1,0.2c0,0,0,0,0,0c0.1,0,0.1,0,0.1-0.1l2.6-8.8l0,0l3.7-5.2c-0.3,2-0.6,4-0.8,5.9
					c0,0.1,0,0.1,0.1,0.1c0,0,0,0,0,0c0.1,0,0.1,0,0.1-0.1c0.7-2.8,1.6-5.8,2.5-8.6l2.5-3.5l-0.9,5.9c0,0.1,0,0.1,0.1,0.2
					c0,0,0,0,0,0c0.1,0,0.1,0,0.1-0.1l2.6-8.8l2.3-3.3l-0.5,3.8c0,0.1,0,0.1,0.1,0.1c0,0,0,0,0,0c0.1,0,0.1,0,0.1-0.1l2.1-6.4
					l20.4-28.7l0.6-1.1c0-0.1,0-0.1,0-0.2c0,0-0.1,0-0.1,0c0,0-0.1,0-0.1,0L262,271c0,0,0,0.1,0,0.1l0.5,1.5l-1-0.8c0,0-0.1,0-0.1,0
					c0,0-0.1,0-0.1,0l-1.6,1.7c0,0,0,0.1,0,0.1l0.5,1.6l-1.1-0.9c0,0-0.1,0-0.1,0c0,0-0.1,0-0.1,0l-1.5,1.7c0,0,0,0.1,0,0.1l0.6,1.8
					l-1.2-1c0,0-0.1,0-0.1,0c0,0-0.1,0-0.1,0l-1.5,1.6c0,0,0,0.1,0,0.1l0.7,1.9l-1.3-1.1c0,0-0.1,0-0.1,0c0,0-0.1,0-0.1,0l-1.5,1.6
					c0,0,0,0.1,0,0.1l0.8,2l-1.4-1.2c0,0-0.1,0-0.1,0c0,0-0.1,0-0.1,0l-1.5,1.6c0,0,0,0.1,0,0.1l0.8,2.2l-1.5-1.3c0,0-0.1,0-0.1,0
					c0,0-0.1,0-0.1,0l-1.4,1.6c0,0,0,0.1,0,0.1l0.9,2.3l-1.6-1.5c0,0-0.1,0-0.1,0c0,0-0.1,0-0.1,0l-1.4,1.6c0,0,0,0.1,0,0.1l1,2.5
					l-1.7-1.6c0,0-0.1,0-0.1,0c0,0-0.1,0-0.1,0l-1.4,1.5c0,0,0,0.1,0,0.1l1.1,2.6l-1.8-1.7c0,0-0.1,0-0.1,0c0,0,0,0,0,0
					c0,0-0.1,0-0.1,0l-1.4,1.5c0,0,0,0.1,0,0.1l1.2,2.7l-1.9-1.8c0,0-0.1,0-0.1,0c0,0,0,0,0,0c0,0-0.1,0-0.1,0l-1.4,1.5
					c0,0,0,0.1,0,0.1l1.3,2.9l-2-1.9c0,0-0.1,0-0.1,0c0,0,0,0,0,0c0,0-0.1,0-0.1,0l-1.4,1.5c0,0,0,0.1,0,0.1l1.4,3l-2.1-2.1
					c0,0-0.1,0-0.1,0c0,0,0,0,0,0c0,0-0.1,0-0.1,0l-1.4,1.5c0,0,0,0.1,0,0.1l1.4,3.1l-2.2-2.2c0,0-0.1,0-0.1,0c0,0,0,0,0,0
					c0,0-0.1,0-0.1,0l-1.3,1.5c0,0,0,0.1,0,0.1l1.5,3.3l-2.3-2.3c0,0-0.1,0-0.1,0c0,0,0,0,0,0c0,0-0.1,0-0.1,0l-1.3,1.5
					c0,0,0,0.1,0,0.1l1.6,3.4l-2.4-2.4c0,0-0.1,0-0.1,0c0,0,0,0,0,0c0,0-0.1,0-0.1,0l-1.3,1.4c0,0,0,0.1,0,0.1l1.7,3.5l-2.5-2.5
					c0,0-0.1,0-0.1,0c0,0,0,0,0,0c0,0-0.1,0-0.1,0l-1.3,1.4c0,0,0,0.1,0,0.2l1.8,3.6l-2.6-2.7c0,0-0.1,0-0.1,0c0,0,0,0,0,0
					c0,0-0.1,0-0.1,0l-1.3,1.4c0,0,0,0.1,0,0.2l1.9,3.8l-2.7-2.8c0,0-0.1,0-0.1,0c0,0,0,0,0,0c0,0-0.1,0-0.1,0l-1.3,1.4
					c0,0,0,0.1,0,0.2l2,3.9l-2.8-2.9c0,0-0.1,0-0.1,0c0,0,0,0,0,0c0,0-0.1,0-0.1,0l-1.3,1.4c0,0,0,0.1,0,0.2l2.1,4l-2.9-3
					c0,0-0.1,0-0.1,0c0,0,0,0,0,0c0,0-0.1,0-0.1,0l-1.3,1.4c0,0,0,0.1,0,0.2l2.2,4.2l-3-3.1c0,0-0.1,0-0.1,0c0,0,0,0,0,0
					c0,0-0.1,0-0.1,0l-1.3,1.4c0,0,0,0.1,0,0.2l2.2,4.3l-3.1-3.3c0,0-0.1,0-0.1,0c0,0,0,0,0,0c0,0-0.1,0-0.1,0l-1.3,1.4
					c0,0,0,0.1,0,0.2l2.3,4.4l-3.2-3.4c0,0-0.1,0-0.1,0c0,0,0,0,0,0c0,0-0.1,0-0.1,0l-1.3,1.4c0,0,0,0.1,0,0.2l2.4,4.6l-3.3-3.5
					c0,0-0.1,0-0.1,0c0,0,0,0,0,0c0,0-0.1,0-0.1,0l-1.3,1.4c0,0,0,0.1,0,0.2l2.5,4.7l-3.4-3.6c0,0-0.1,0-0.1,0c0,0,0,0,0,0
					c0,0-0.1,0-0.1,0l-1.3,1.4c0,0,0,0.1,0,0.2l2.6,4.8l-3.5-3.8c0,0-0.1,0-0.1,0c0,0,0,0,0,0c0,0-0.1,0-0.1,0l-1.2,1.4
					c0,0,0,0.1,0,0.2l2.7,4.9l-3.6-3.9c0,0-0.1,0-0.1,0h0c0,0-0.1,0-0.1,0l-1.2,1.4c0,0,0,0.1,0,0.2l2.8,5.1l-3.7-4c0,0-0.1,0-0.1,0
					c0,0-0.1,0-0.1,0l-0.9,1c0,0,0,0.1,0,0.2l5.8,7.5c0,0,0.1,0.1,0.1,0.1c0,0,0,0,0,0c0,0,0.1,0,0.1,0l15.2-17.1L208.7,349z"/>
				<path class="st5" d="M318.7,306.3c0,0,0,0.1,0,0.1l4.1,5.5c1.8,2.4,3.6,4.7,5.3,7.1c0,0,0.1,0.1,0.1,0.1c0,0,2.4-0.1,2.4-0.1
					l0.2,0c0.1,0,0.1,0,0.1-0.1c0,0,0-0.1,0-0.1l-9.6-12.5c0,0-0.1-0.1-0.1-0.1c0,0-2.4,0-2.4,0
					C318.8,306.2,318.7,306.2,318.7,306.3z"/>
				<path class="st5" d="M304.2,287.2c0,0,0,0.1,0,0.1l4.4,5.8c0,0,0.1,0.1,0.1,0.1c0,0,2.3-0.1,2.3-0.1c0.1,0,0.1,0,0.1-0.1
					c0,0,0-0.1,0-0.1l-4.3-5.6c0,0-0.1-0.1-0.1-0.1c0,0-2.4-0.1-2.4-0.1C304.3,287.2,304.3,287.2,304.2,287.2z"/>
				<path class="st5" d="M309.4,294c0,0,0,0.1,0,0.1l4.2,5.5c0,0,0.1,0.1,0.1,0.1c0,0,2.3-0.1,2.3-0.1c0.1,0,0.1,0,0.1-0.1
					c0,0,0-0.1,0-0.1l-4.1-5.3c0,0-0.1-0.1-0.1-0.1c0,0-2.4-0.1-2.4-0.1C309.5,293.9,309.4,293.9,309.4,294z"/>
				<path class="st5" d="M314.4,300.6c0,0,0,0.1,0,0.1l1.5,2l2.1,2.8c0,0,0.1,0.1,0.1,0.1c0,0,2.4,0,2.4,0c0.1,0,0.1,0,0.1-0.1
					c0,0,0-0.1,0-0.1l-3.6-4.7c0,0-0.1-0.1-0.1-0.1c0,0-2.4-0.1-2.4-0.1C314.5,300.5,314.4,300.5,314.4,300.6z"/>
				<path class="st5" d="M366.2,364.8l-34.2-44.7c0,0-0.1-0.1-0.1-0.1c0,0-1.2,0-1.2,0l-1.4,0c-0.1,0-0.1,0-0.1,0.1c0,0,0,0.1,0,0.1
					c0.9,1.2,1.8,2.4,2.7,3.6c-1-1.2-1.9-2.4-2.9-3.7c0,0-0.1-0.1-0.1-0.1l-1.8,0c0,0-7.5-0.1-7.5-0.1c0,0-0.1,0-0.1,0.1
					c0,0,0,0.1,0,0.1c0.7,1.9,1.5,3.7,2.3,5.6c-1-1.9-2-3.8-3-5.7c0,0-0.1-0.1-0.1-0.1l-13.6-0.2l-18.2-0.3l18.2-0.1l14.7-0.1
					l7.3-0.1l0.8,0c0.1,0,0.1,0,0.1-0.1c0,0,0-0.1,0-0.1c-1.8-2.2-3.5-4.5-5.3-6.7l-4.6-5.9c0,0-0.1-0.1-0.1-0.1l-36-0.3l28.5-0.2
					c0,0,0.1,0,0.1-0.1c0,0,0-0.1,0-0.1l-0.8-2.6l1.5,2.7c0,0,0.1,0.1,0.1,0.1c0,0,5.9,0,5.9,0c0.1,0,0.1,0,0.1-0.1c0,0,0-0.1,0-0.1
					l-1.8-2.3l-2-2.5c0,0-0.1-0.1-0.1-0.1l-11-0.4l10.2-0.4c0.1,0,0.1,0,0.1-0.1c0,0,0-0.1,0-0.1l-4.3-5.6c0,0-0.1-0.1-0.1-0.1
					c0,0-5-0.2-5-0.2c0,0-0.1,0-0.1,0c0,0,0,0.1,0,0.1l0.4,2.3l-1.1-2.3c0,0,0-0.1,0-0.1c0-0.1-0.1-0.1-0.1-0.1l-3.6-0.1l8.8-0.3
					c0.1,0,0.1,0,0.1-0.1c0,0,0-0.1,0-0.1l-4.5-5.9c0,0-0.1-0.1-0.1-0.1l-9.2-0.3l8.5-0.3c0.1,0,0.1,0,0.1-0.1c0,0,0-0.1,0-0.1
					l-1-1.3l-7-9.1c-1.2-1.6-2.4-3.1-3.6-4.7c-3.3-4.3-6.7-8.7-10-13.1c0,0-0.1-0.1-0.1-0.1c0,0,0,0,0,0c0,0-0.1,0-0.1,0.1l-6.6,11
					c0,0,0,0.1,0,0.1c0,0,0.1,0.1,0.1,0.1l3.1,0.2l-3.5,0.2c0,0-0.1,0-0.1,0.1l-2.1,3.5l1.9-3.3c0,0,0-0.1,0-0.1
					c0,0-0.1-0.1-0.1-0.1c0,0-3.3,0.2-3.3,0.2c0,0-0.1,0-0.1,0.1l-2.6,4.5c0,0,0,0.1,0,0.1c0,0,0.1,0.1,0.1,0.1c0,0,3.1,0.2,3.1,0.2
					c0,0,0.1,0,0.1-0.1l0,0c0,0,0,0,0,0c0,0,0.1,0.1,0.1,0.1l3.4,0.2l-3.8,0.2c0,0-0.1,0-0.1,0.1c0,0,0,0,0,0c0,0-0.1-0.1-0.1-0.1
					c0,0-3.4,0.2-3.4,0.2c0,0-0.1,0-0.1,0.1l-2.8,4.8c0,0,0,0.1,0,0.1c0,0,0.1,0.1,0.1,0.1l12.6,0.5l-13.3,0.5c0,0-0.1,0-0.1,0.1
					l-48.2,82.3c0,0,0,0.1,0,0.1c0,0,0.1,0.1,0.1,0.1c0,0,150.9,1,150.9,1c0.1,0,0.1,0,0.1-0.1C366.2,364.9,366.2,364.8,366.2,364.8
					z M267.2,312.2c4.9-0.1,9.7-0.1,14.3-0.1c4.5,0,9.4,0,14.3,0.1c3.5,0,7,0.1,10.5,0.2c-3.2,0.1-6.5,0.2-9.8,0.2c0,0-0.1,0-0.1,0
					c0,0,0,0.1,0,0.1l0.3,3.9l-1-3.9c0-0.1-0.1-0.1-0.1-0.1c0,0,0,0,0,0c-4,0.1-7.8,0.1-11.1,0.1c0,0-0.1,0-0.1,0c0,0,0,0.1,0,0.1
					c0.1,1.2,0.1,2.5,0.1,3.7c-0.2-1.2-0.4-2.5-0.7-3.7c0-0.1-0.1-0.1-0.1-0.1l-2,0c-4.6,0-9.4,0-14.3-0.1c-3.5,0-7-0.1-10.4-0.2
					C260.3,312.3,263.8,312.2,267.2,312.2z M345.4,362.9l-2.7-3.7c0,0-0.1-0.1-0.1-0.1c0,0,0,0-0.1,0c-0.1,0-0.1,0.1-0.1,0.2
					l1.7,3.5l-55.7-0.2l-0.2-4.9c0-0.1-0.1-0.1-0.1-0.1c0,0,0,0,0,0c-0.1,0-0.1,0.1-0.1,0.1l-0.6,4.9l-34.1-0.1l0.6-4
					c0-0.1,0-0.1-0.1-0.1c0,0,0,0,0,0c-0.1,0-0.1,0-0.1,0.1l-1.4,4l-34.7-0.1l33.7-57.8l-8.5,20.1l-1.2,2.4c0,0,0,0.1,0,0.1
					c0,0,0.1,0.1,0.1,0.1c0,0,26.3,0.4,26.3,0.4c0.1,0,0.1,0,0.1-0.1l1.2-3.6l-0.6,3.5c0,0,0,0.1,0,0.1c0,0,0.1,0,0.1,0l38.1,0.6
					l-25.2,0.4c-0.1,0-0.1,0-0.1,0.1l-0.5,2.8l0-2.7c0-0.1-0.1-0.1-0.1-0.1c0,0-25.5,0.4-25.5,0.4c-0.1,0-0.1,0-0.1,0.1
					c-0.4,0.8-0.8,1.7-1.1,2.5c0.2-0.8,0.4-1.6,0.6-2.4c0,0,0-0.1,0-0.1c0,0-0.1-0.1-0.1-0.1c0,0-14.1,0.2-14.1,0.2
					c0,0-0.1,0-0.1,0.1l-15.2,30c0,0.1,0,0.1,0.1,0.2c0,0,0,0,0.1,0c0,0,0.1,0,0.1-0.1l10.3-17.6l10.3-0.1c-0.7,2.2-1.4,4.4-2.2,6.6
					c0,0.1,0,0.1,0.1,0.2c0,0,0,0,0.1,0c0,0,0.1,0,0.1-0.1c1.1-2.2,2.1-4.4,3.1-6.7l24.2-0.2l-0.4,3.2c0,0.1,0,0.1,0.1,0.1
					c0,0,0,0,0,0c0.1,0,0.1,0,0.1-0.1l1.2-3.2l39.5-0.4c0.1,0,0.1-0.1,0.1-0.1c0-0.1-0.1-0.1-0.1-0.1l-75.3-0.7l3.1-5.4h101.3
					l9.4,11.9l-93,0.5c-0.1,0-0.1,0.1-0.1,0.1c0,0.1,0.1,0.1,0.1,0.1l71.5,0.4l4,6c0,0,0.1,0.1,0.1,0.1c0,0,0,0,0.1,0
					c0.1,0,0.1-0.1,0.1-0.2l-2.9-5.9l21,0.1l5.6,7.1l-48.7,0.3c-0.1-1.3-0.3-2.5-0.5-3.7c0-0.1-0.1-0.1-0.1-0.1c0,0,0,0,0,0
					c-0.1,0-0.1,0.1-0.1,0.1c0,1.2-0.1,2.4-0.3,3.7l-72.4,0.4c-0.1,0-0.1,0.1-0.1,0.1c0,0.1,0.1,0.1,0.1,0.1l123.5,0.7l4.8,6.1
					L345.4,362.9z"/>
			</g>
			<g>
				<path class="st1" d="M310.1,286.1l-0.2,0l-30.1-39.3l-87.6,95.6l19.3,24.8l161.3,1l-62.7-81.9V286.1z M280.3,252.8l25.6,33.4
					l-2.3,0.1l-1.4-1.8l-7-9.1c-4.7-6-9.3-12.1-14-18.1l-0.3-0.4l-0.2,0.4l-6.5,11.3c-0.1,0.1-0.1,0.3-0.2,0.4l-3-0.2L280.3,252.8z
					 M273.4,269.8c-0.9,1.6-1.8,3.2-2.8,4.8l-3.1-0.2l2.6-4.5L273.4,269.8z M196.5,342.6l0.9-1l4.4,4.8l-3.3-6l1.2-1.4l4.3,4.7
					l-3.2-5.9l1.2-1.4l4.2,4.5l-3.1-5.7l1.3-1.4l4.1,4.4l-3-5.6l1.3-1.4l4,4.3L208,330l1.3-1.4l3.9,4.1l-2.8-5.3l1.3-1.4l3.8,4
					l-2.7-5.1l1.3-1.4l3.7,3.8l-2.6-5l1.3-1.4l3.5,3.7l-2.5-4.8l1.3-1.4l3.4,3.5l-2.4-4.7l1.3-1.4l3.3,3.4l-2.3-4.5l1.3-1.4l3.2,3.2
					l-2.2-4.4l1.3-1.4l3.1,3.1l-2.1-4.2l1.3-1.4l3,3l-2-4.1l1.3-1.5l2.9,2.8l-1.9-3.9l1.3-1.5l2.8,2.7l-1.8-3.8l1.4-1.5l2.6,2.5
					l-1.6-3.6l1.4-1.5l2.5,2.4l-1.5-3.5l1.4-1.5l2.4,2.3l-1.4-3.3l1.4-1.5l2.3,2.1l-1.3-3.2l1.4-1.5l2.2,2l-1.2-3l1.4-1.6l2.1,1.8
					l-1.1-2.9l1.4-1.6l2,1.7l-1-2.7l1.5-1.6l1.8,1.6l-1-2.5l1.5-1.6l1.7,1.4l-0.9-2.4l1.5-1.6l1.6,1.3l-0.8-2.2l1.5-1.7l1.5,1.2
					l-0.7-2.1l1.6-1.7l1.4,1l-0.6-1.9l10.1-11l-0.6,1.1l-20.4,28.7l-2.1,6.5l0.6-4.3l-2.6,3.7l-2.6,8.8l0.9-6.5l-2.8,4
					c-0.9,2.9-1.8,5.8-2.5,8.7c0.3-2.1,0.6-4.3,0.9-6.4l-4,5.6c0,0,0,0.1,0,0.1l-0.8,2.9l-1.7,5.8l1-6l0.1-0.9l-3.6,5l-2.5,7.9
					l1-5.9l-2.9,4.1l-2.3,7l0.8-5l-2.7,3.8c-1.1,3.5-2.2,7-3.4,10.4c0.7-2.7,1.3-5.5,1.8-8.2l-12.9,18.1l9.5-17.1l-16,18
					L196.5,342.6z M212,362.9l-0.2-0.2c-2.2-2.7-4.5-5.3-6.7-8c2.3,2.5,4.5,5.1,6.8,7.6c1.8-3.2,3.7-6.4,5.6-9.5
					c1.9-3.3,3.8-6.5,5.7-9.8l5.8-9.7c1.9-3.2,3.9-6.5,5.8-9.7l5.8-9.7l2.9-4.8l3-4.8c3.9-6.4,7.9-12.9,11.9-19.2
					c-3.7,6.6-7.5,13.1-11.3,19.6l-2.9,4.9l-2.9,4.9l-5.8,9.7c-1.9,3.2-3.9,6.5-5.8,9.7l-5.8,9.7c-1.9,3.2-3.9,6.4-5.9,9.7
					c-2,3.2-3.9,6.4-5.9,9.6L212,362.9z M366.1,364.8l-150.9-1l48.2-82.3l17.1-0.6l-16.4-0.6l2.8-4.8l3.4-0.2
					c-0.9,1.6-1.8,3.1-2.7,4.7c1-1.6,1.9-3.1,2.9-4.7l6-0.4l-5.6-0.3c1-1.6,2-3.3,3-4.9l5.7-0.3l-5.3-0.3c0-0.1,0.1-0.1,0.1-0.2
					l6.5-10.8c4.5,6,9,11.9,13.6,17.8l7,9.1l1,1.3l-12.3,0.4l13,0.5l4.5,5.9l-12.5,0.4l7.4,0.3l-0.1,0l1.6,3.4l-0.6-3.4l5,0.2
					l0.1,0.1l4.2,5.5l-14,0.5l14.8,0.5l2,2.5l1.8,2.3l-5.9,0l-2.1-3.8l1.1,3.8l-44.7,0.4l52.2,0.4l4.6,5.9c1.8,2.3,3.5,4.5,5.3,6.7
					l-0.8,0l-7.3,0.1l-14.7,0.1l-29.3,0.2l29.3,0.5l13.6,0.2c1.3,2.7,2.8,5.4,4.3,8c-1.2-2.6-2.3-5.3-3.4-8l0.1,0l7.3,0.1l1.8,0
					c2.6,3.3,5.3,6.7,7.9,10c-2.5-3.3-4.9-6.6-7.4-10l1.4,0l1.2,0L366.1,364.8z M330.8,318.8l-0.2,0l-2.4,0.1
					c-1.8-2.4-3.5-4.7-5.3-7.1l-4.1-5.5l2.4,0L330.8,318.8z M320.6,305.4l-2.4,0l-2.1-2.8l-1.5-2l2.4,0.1L320.6,305.4z M316,299.5
					l-2.3,0.1l-4.2-5.5l2.4,0.1L316,299.5z M311,293l-2.3,0.1l-4.4-5.8l2.4,0.1L311,293z"/>
				<path class="st1" d="M236.4,340.5l75.6,0.7l-39.6,0.4l-1.2,3.3l0.4-3.3l-24.5,0.2c-1,2.3-2,4.5-3.1,6.8c0.8-2.2,1.5-4.5,2.2-6.7
					l-10.6,0.1l-10.3,17.6l15.2-30l2.3,0l11.8-0.2c-0.3,1.3-0.6,2.6-0.9,3.9c0.5-1.3,1-2.6,1.7-3.9l25.5-0.4l0.1,4.1l0.7-4.2
					l33.9-0.5l-46.7-0.7l0.9-5.1l-1.8,5.1l-23.9-0.4l-2.4,0l1.2-2.4l9.3-22l-34.9,59.8l35.1,0.1l1.4-4.1l-0.6,4.1l34.4,0.1l0.6-5
					l0.2,5l56,0.2l-1.8-3.7l2.7,3.7l18.2,0.1l-5-6.3l-123.5-0.7l72.5-0.4c0.1-1.3,0.2-2.5,0.3-3.8c0.2,1.3,0.4,2.5,0.5,3.8l49.1-0.3
					l-5.8-7.4l-21.3-0.1l3,6.1l-4.1-6.1l-71.6-0.4l93.2-0.5l-9.6-12.2c-34.7,0-93.1,0-101.5,0L236.4,340.5z"/>
				<path class="st1" d="M281.5,312.9c0.7,0,1.3,0,2,0c0.4,1.8,0.8,3.5,0.9,5.4c0.1-1.8,0.1-3.6-0.1-5.4c3.7,0,7.4,0,11.1-0.1
					l1.4,5.5l-0.4-5.5c4.5-0.1,9.1-0.2,13.6-0.4c-4.8-0.2-9.5-0.3-14.3-0.4c-4.8-0.1-9.5-0.1-14.3-0.1c-4.8,0-9.5,0-14.3,0.1
					c-4.8,0.1-9.5,0.2-14.3,0.4c4.8,0.2,9.5,0.3,14.3,0.4C272,312.9,276.8,312.9,281.5,312.9z"/>
			</g>
		</g>
		<g>
			<g>
				<path class="st5" d="M182.6,265.2c0,0,0.1,0.1,0.1,0.1c0,0,3.6,0.2,3.6,0.2c0.1,0,0.1,0,0.1-0.1l8.2-14.3l0.2,0.3
					c4.2,5.3,8.3,10.7,12.4,15.9c1.4,1.9,2.9,3.7,4.3,5.6l8.3,10.8l1.7,2.2c0,0,0.1,0.1,0.1,0.1c0,0,2.7-0.1,2.7-0.1
					c0.1,0,0.1,0,0.1-0.1c0-0.1,0-0.1,0-0.2l-30.5-39.8c0,0-0.1-0.1-0.1-0.1c0,0,0,0,0,0c-0.1,0-0.1,0-0.1,0.1l-11.2,19.1
					C182.6,265.1,182.6,265.2,182.6,265.2z"/>
				<path class="st5" d="M120.1,365.4l1-1.7c2-3.2,4-6.5,6-9.8l7-11.5c1.9-3.2,4.4-7.3,6.9-11.6l6.9-11.6l3.4-5.8l3.4-5.8
					c5.3-9.1,9.6-16.5,13.5-23.3c0-0.1,0-0.2-0.1-0.2c0,0-0.1,0-0.1,0c-0.1,0-0.1,0-0.1,0.1c-4.2,6.7-8.7,14-14.2,22.9l-3.5,5.7
					l-3.5,5.8l-7,11.5c-2.5,4.2-5,8.4-6.9,11.6l-6.9,11.6c-2,3.3-3.9,6.6-5.8,9.8l-1,1.8c-0.8,1.4-1.6,2.7-2.4,4.1
					c-1.4,2.3-2.8,4.7-4.1,7.1l-1.9-2.1c-2-2.2-4-4.5-6-6.7c0,0-0.1-0.1-0.1-0.1c0,0-0.1,0-0.1,0c-0.1,0.1-0.1,0.2,0,0.2
					c1.9,2.3,3.8,4.6,5.7,6.8l2.5,3c0,0,0.1,0.1,0.1,0.1c0,0,0,0,0,0c0.1,0,0.1,0,0.1-0.1l0.2-0.3c1.5-2.5,3.1-5,4.6-7.4
					C118.5,368.1,119.3,366.7,120.1,365.4z"/>
				<path class="st5" d="M108.8,360.6c0,0.1,0,0.2,0.1,0.2c0,0,0.1,0,0.1,0c0,0,0.1,0,0.1-0.1l14.9-20.9c-0.6,3.1-1.3,6.2-2,9
					c0,0.1,0,0.2,0.1,0.2c0,0,0,0,0,0c0.1,0,0.1,0,0.2-0.1c1.4-4,2.8-8.2,4-12.4l2.8-3.9l-0.9,5.2c0,0.1,0,0.2,0.1,0.2c0,0,0,0,0,0
					c0.1,0,0.1,0,0.2-0.1l2.7-8.2l3.1-4.4l-1.1,6.3c0,0.1,0,0.2,0.1,0.2c0,0,0,0,0,0c0.1,0,0.1,0,0.2-0.1l2.9-9.4l3.9-5.4l-1.2,7.5
					c0,0.1,0,0.2,0.1,0.2c0,0,0,0,0,0c0.1,0,0.1,0,0.2-0.1l3-10.5l0,0l4.4-6.2c-0.4,2.4-0.7,4.8-1,7c0,0.1,0,0.2,0.1,0.2
					c0,0,0,0,0,0c0.1,0,0.1,0,0.2-0.1c0.9-3.4,1.9-6.9,3-10.3l3-4.2l-1,7.1c0,0.1,0,0.2,0.1,0.2c0,0,0,0,0,0c0.1,0,0.1,0,0.2-0.1
					l3.1-10.4l2.8-3.9l-0.6,4.5c0,0.1,0,0.2,0.1,0.2c0,0,0,0,0,0c0.1,0,0.1,0,0.2-0.1l2.5-7.7l24.3-34.1l0.7-1.3c0-0.1,0-0.2,0-0.2
					c0,0-0.1,0-0.1,0c0,0-0.1,0-0.1,0.1l-12,13.1c0,0-0.1,0.1,0,0.2l0.5,1.8l-1.2-0.9c0,0-0.1,0-0.1,0c0,0-0.1,0-0.1,0.1l-1.9,2
					c0,0-0.1,0.1,0,0.2l0.6,1.9l-1.3-1.1c0,0-0.1,0-0.1,0c0,0-0.1,0-0.1,0.1l-1.8,2c0,0-0.1,0.1,0,0.2l0.7,2.1l-1.5-1.2
					c0,0-0.1,0-0.1,0c0,0-0.1,0-0.1,0.1l-1.8,2c0,0-0.1,0.1,0,0.2l0.8,2.3l-1.6-1.3c0,0-0.1,0-0.1,0c0,0-0.1,0-0.1,0.1l-1.8,1.9
					c0,0-0.1,0.1,0,0.2l0.9,2.4l-1.7-1.5c0,0-0.1,0-0.1,0c0,0-0.1,0-0.1,0.1l-1.7,1.9c0,0-0.1,0.1,0,0.2l1,2.6l-1.8-1.6
					c0,0-0.1,0-0.1,0c0,0-0.1,0-0.1,0.1l-1.7,1.9c0,0-0.1,0.1,0,0.2l1.1,2.8l-2-1.7c0,0-0.1,0-0.1,0c0,0-0.1,0-0.1,0.1l-1.7,1.9
					c0,0-0.1,0.1,0,0.2l1.2,2.9l-2.1-1.9c0,0-0.1,0-0.1,0c0,0-0.1,0-0.1,0.1l-1.7,1.8c0,0-0.1,0.1,0,0.2l1.3,3.1l-2.2-2
					c0,0-0.1,0-0.1,0c0,0,0,0,0,0c0,0-0.1,0-0.1,0.1l-1.7,1.8c0,0-0.1,0.1,0,0.2l1.4,3.2l-2.3-2.2c0,0-0.1,0-0.1,0c0,0,0,0,0,0
					c0,0-0.1,0-0.1,0.1l-1.6,1.8c0,0-0.1,0.1,0,0.2l1.5,3.4l-2.4-2.3c0,0-0.1,0-0.1,0c0,0,0,0,0,0c0,0-0.1,0-0.1,0.1l-1.6,1.8
					c0,0-0.1,0.1,0,0.2l1.6,3.6l-2.5-2.4c0,0-0.1,0-0.1,0c0,0,0,0,0,0c0,0-0.1,0-0.1,0.1l-1.6,1.8c0,0-0.1,0.1,0,0.2l1.7,3.7
					l-2.7-2.6c0,0-0.1,0-0.1,0c0,0,0,0,0,0c0,0-0.1,0-0.1,0.1l-1.6,1.7c0,0-0.1,0.1,0,0.2l1.8,3.9l-2.8-2.7c0,0-0.1,0-0.1,0
					c0,0,0,0,0,0c0,0-0.1,0-0.1,0.1l-1.6,1.7c0,0-0.1,0.1,0,0.2l1.9,4l-2.9-2.9c0,0-0.1,0-0.1,0c0,0,0,0,0,0c0,0-0.1,0-0.1,0.1
					l-1.6,1.7c0,0-0.1,0.1,0,0.2l2,4.2l-3-3c0,0-0.1,0-0.1,0c0,0,0,0,0,0c0,0-0.1,0-0.1,0.1l-1.6,1.7c0,0-0.1,0.1,0,0.2l2.1,4.3
					l-3.1-3.2c0,0-0.1,0-0.1,0c0,0,0,0,0,0c0,0-0.1,0-0.1,0.1l-1.6,1.7c0,0-0.1,0.1,0,0.2l2.2,4.5l-3.2-3.3c0,0-0.1,0-0.1,0
					c0,0,0,0,0,0c0,0-0.1,0-0.1,0.1l-1.5,1.7c0,0-0.1,0.1,0,0.2l2.4,4.7l-3.4-3.5c0,0-0.1,0-0.1,0c0,0,0,0,0,0c0,0-0.1,0-0.1,0.1
					l-1.5,1.7c0,0-0.1,0.1,0,0.2l2.5,4.8L118,327c0,0-0.1,0-0.1,0c0,0,0,0,0,0c0,0-0.1,0-0.1,0.1l-1.5,1.7c0,0-0.1,0.1,0,0.2l2.6,5
					l-3.6-3.7c0,0-0.1,0-0.1,0c0,0,0,0,0,0c0,0-0.1,0-0.1,0.1l-1.5,1.7c0,0-0.1,0.1,0,0.2l2.7,5.1l-3.7-3.9c0,0-0.1,0-0.1,0
					c0,0,0,0,0,0c0,0-0.1,0-0.1,0.1l-1.5,1.6c0,0-0.1,0.1,0,0.2l2.8,5.3l-3.8-4c0,0-0.1-0.1-0.1-0.1c0,0,0,0,0,0c0,0-0.1,0-0.1,0.1
					l-1.5,1.6c0,0.1-0.1,0.1,0,0.2l2.9,5.4l-3.9-4.2c0,0-0.1-0.1-0.1-0.1c0,0,0,0,0,0c0,0-0.1,0-0.1,0.1l-1.5,1.6
					c0,0.1-0.1,0.1,0,0.2l3,5.6l-4-4.3c0,0-0.1-0.1-0.1-0.1c0,0,0,0,0,0c0,0-0.1,0-0.1,0.1l-1.5,1.6c0,0.1-0.1,0.1,0,0.2l3.1,5.7
					l-4.2-4.5c0,0-0.1-0.1-0.1-0.1c0,0,0,0,0,0c0,0-0.1,0-0.1,0.1l-1.5,1.6c0,0.1-0.1,0.1,0,0.2l3.2,5.9l-4.3-4.6
					c0,0-0.1-0.1-0.1-0.1h0c0,0-0.1,0-0.1,0.1l-1.5,1.6c0,0.1-0.1,0.1,0,0.2l3.3,6l-4.4-4.8c0,0-0.1-0.1-0.1-0.1c0,0-0.1,0-0.1,0.1
					l-1.1,1.2c-0.1,0.1-0.1,0.1,0,0.2l6.9,8.9c0,0,0.1,0.1,0.1,0.1c0,0,0,0,0,0c0,0,0.1,0,0.1-0.1l18.1-20.4L108.8,360.6z"/>
				<path class="st5" d="M239.7,309.6c0,0.1,0,0.1,0,0.2l4.9,6.5c2.1,2.8,4.2,5.6,6.3,8.4c0,0,0.1,0.1,0.1,0.1c0,0,2.8-0.1,2.8-0.1
					l0.2,0c0.1,0,0.1,0,0.1-0.1c0-0.1,0-0.1,0-0.2l-11.4-14.9c0,0-0.1-0.1-0.1-0.1c0,0-2.9,0-2.9,0
					C239.8,309.6,239.8,309.6,239.7,309.6z"/>
				<path class="st5" d="M222.5,287c0,0.1,0,0.1,0,0.2l5.2,6.9c0,0,0.1,0.1,0.1,0.1c0,0,2.7-0.1,2.7-0.1c0.1,0,0.1,0,0.1-0.1
					c0-0.1,0-0.1,0-0.2l-5.1-6.7c0,0-0.1-0.1-0.1-0.1c0,0-2.8-0.1-2.8-0.1C222.6,286.9,222.5,286.9,222.5,287z"/>
				<path class="st5" d="M228.6,295.1c0,0.1,0,0.1,0,0.2l5,6.5c0,0,0.1,0.1,0.1,0.1c0,0,2.7-0.1,2.7-0.1c0.1,0,0.1,0,0.1-0.1
					c0-0.1,0-0.1,0-0.2l-4.8-6.3c0,0-0.1-0.1-0.1-0.1c0,0-2.9-0.1-2.9-0.1C228.7,295,228.7,295,228.6,295.1z"/>
				<path class="st5" d="M234.6,302.9c0,0.1,0,0.1,0,0.2l1.8,2.4l2.5,3.3c0,0,0.1,0.1,0.1,0.1c0,0,2.8,0,2.8,0c0.1,0,0.1,0,0.1-0.1
					c0-0.1,0-0.1,0-0.2l-4.3-5.6c0,0-0.1-0.1-0.1-0.1c0,0-2.9-0.1-2.9-0.1C234.7,302.8,234.7,302.8,234.6,302.9z"/>
				<path class="st5" d="M296.2,379.3l-40.7-53.2c0,0-0.1-0.1-0.1-0.1c0,0-1.4,0-1.4,0l-1.7,0c-0.1,0-0.1,0-0.1,0.1
					c0,0.1,0,0.1,0,0.2c1.1,1.4,2.1,2.8,3.2,4.2c-1.1-1.4-2.3-2.9-3.5-4.4c0,0-0.1-0.1-0.1-0.1l-2.1,0c0,0-8.9-0.1-8.9-0.1
					c-0.1,0-0.1,0-0.1,0.1c0,0,0,0.1,0,0.1c0.8,2.2,1.7,4.5,2.7,6.6c-1.2-2.2-2.4-4.5-3.6-6.8c0-0.1-0.1-0.1-0.1-0.1l-16.2-0.2
					l-21.7-0.4l21.7-0.1l17.4-0.2l8.7-0.1l0.9,0c0.1,0,0.1,0,0.1-0.1c0-0.1,0-0.1,0-0.2c-2.1-2.7-4.2-5.3-6.3-8l-5.4-7
					c0,0-0.1-0.1-0.1-0.1l-42.8-0.4l33.9-0.3c0.1,0,0.1,0,0.1-0.1c0,0,0-0.1,0-0.1l-0.9-3.1l1.7,3.2c0,0.1,0.1,0.1,0.1,0.1
					c0,0,7-0.1,7-0.1c0.1,0,0.1,0,0.1-0.1c0-0.1,0-0.1,0-0.2l-2.1-2.7l-2.3-3c0,0-0.1-0.1-0.1-0.1l-13.1-0.5l12.2-0.4
					c0.1,0,0.1,0,0.1-0.1c0-0.1,0-0.1,0-0.2l-5.1-6.6c0,0-0.1-0.1-0.1-0.1c0,0-6-0.2-6-0.2c0,0-0.1,0-0.1,0.1c0,0,0,0.1,0,0.1
					l0.5,2.8l-1.3-2.8c0,0,0-0.1,0-0.1c0-0.1-0.1-0.1-0.2-0.1l-4.3-0.2l10.4-0.4c0.1,0,0.1,0,0.1-0.1c0-0.1,0-0.1,0-0.2l-5.4-7
					c0,0-0.1-0.1-0.1-0.1l-11-0.4l10.2-0.4c0.1,0,0.1,0,0.1-0.1c0-0.1,0-0.1,0-0.2l-1.2-1.6l-8.3-10.8c-1.4-1.9-2.8-3.7-4.3-5.6
					c-3.9-5.1-7.9-10.4-11.9-15.6c0,0-0.1-0.1-0.1-0.1c0,0,0,0,0,0c-0.1,0-0.1,0-0.1,0.1l-7.9,13.1c0,0,0,0.1,0,0.2
					c0,0,0.1,0.1,0.1,0.1l3.7,0.2l-4.2,0.3c-0.1,0-0.1,0-0.1,0.1l-2.5,4.1l2.2-3.9c0-0.1,0-0.1,0-0.2c0,0-0.1-0.1-0.1-0.1
					c0,0-3.9,0.2-3.9,0.2c-0.1,0-0.1,0-0.1,0.1l-3.1,5.3c0,0,0,0.1,0,0.2c0,0,0.1,0.1,0.1,0.1c0,0,3.7,0.2,3.7,0.2
					c0.1,0,0.1,0,0.1-0.1l0,0c0,0,0,0,0,0c0,0,0.1,0.1,0.1,0.1l4,0.2l-4.5,0.3c-0.1,0-0.1,0-0.1,0.1c0,0,0,0,0,0
					c0,0-0.1-0.1-0.1-0.1c0,0-4,0.2-4,0.2c-0.1,0-0.1,0-0.1,0.1l-3.3,5.7c0,0,0,0.1,0,0.2c0,0,0.1,0.1,0.1,0.1l15,0.5l-15.9,0.6
					c-0.1,0-0.1,0-0.1,0.1l-57.4,98c0,0,0,0.1,0,0.2c0,0,0.1,0.1,0.1,0.1c0,0,179.6,1.2,179.6,1.2c0.1,0,0.1,0,0.1-0.1
					S296.3,379.3,296.2,379.3z M178.5,316.7c5.8-0.1,11.6-0.1,17-0.1c5.4,0,11.2,0,17,0.1c4.1,0.1,8.3,0.1,12.4,0.3
					c-3.8,0.1-7.7,0.2-11.6,0.3c0,0-0.1,0-0.1,0.1c0,0,0,0.1,0,0.1l0.4,4.6l-1.1-4.7c0-0.1-0.1-0.1-0.2-0.1c0,0,0,0,0,0
					c-4.7,0.1-9.3,0.1-13.2,0.1c0,0-0.1,0-0.1,0.1c0,0,0,0.1,0,0.1c0.1,1.5,0.2,3,0.1,4.4c-0.2-1.5-0.5-3-0.9-4.5
					c0-0.1-0.1-0.1-0.2-0.1l-2.4,0c-5.4,0-11.2,0-17-0.1c-4.1-0.1-8.3-0.1-12.4-0.3C170.2,316.9,174.4,316.8,178.5,316.7z
					 M271.4,377.1l-3.2-4.4c0,0-0.1-0.1-0.1-0.1c0,0-0.1,0-0.1,0c-0.1,0-0.1,0.1-0.1,0.2l2,4.2l-66.3-0.2l-0.3-5.8
					c0-0.1-0.1-0.1-0.2-0.2c0,0,0,0,0,0c-0.1,0-0.1,0.1-0.2,0.1l-0.7,5.8l-40.6-0.1l0.7-4.7c0-0.1,0-0.2-0.1-0.2c0,0,0,0,0,0
					c-0.1,0-0.1,0-0.2,0.1l-1.6,4.8l-41.3-0.1l40.1-68.8l-10.1,23.9l-1.5,2.9c0,0,0,0.1,0,0.2c0,0,0.1,0.1,0.1,0.1
					c0,0,31.3,0.5,31.3,0.5c0.1,0,0.1,0,0.2-0.1l1.5-4.2l-0.7,4.2c0,0,0,0.1,0,0.1c0,0,0.1,0.1,0.1,0.1l45.3,0.7l-30,0.5
					c-0.1,0-0.1,0.1-0.2,0.1l-0.6,3.3l-0.1-3.3c0-0.1-0.1-0.2-0.2-0.2c0,0-30.4,0.5-30.4,0.5c-0.1,0-0.1,0-0.1,0.1
					c-0.5,1-0.9,2-1.4,3c0.2-1,0.4-1.9,0.7-2.9c0,0,0-0.1,0-0.1c0,0-0.1-0.1-0.1-0.1c0,0-16.8,0.3-16.8,0.3c-0.1,0-0.1,0-0.1,0.1
					L128.4,373c0,0.1,0,0.2,0.1,0.2c0,0,0.1,0,0.1,0c0.1,0,0.1,0,0.1-0.1l12.2-20.9l12.3-0.1c-0.8,2.7-1.7,5.3-2.6,7.8
					c0,0.1,0,0.2,0.1,0.2c0,0,0,0,0.1,0c0.1,0,0.1,0,0.1-0.1c1.3-2.6,2.5-5.2,3.7-8l28.8-0.3l-0.4,3.8c0,0.1,0,0.2,0.1,0.2
					c0,0,0,0,0,0c0.1,0,0.1,0,0.2-0.1l1.4-3.9l47-0.4c0.1,0,0.2-0.1,0.2-0.2c0-0.1-0.1-0.2-0.2-0.2l-89.7-0.8l3.7-6.4h120.6
					l11.2,14.2L167,358.6c-0.1,0-0.2,0.1-0.2,0.2c0,0.1,0.1,0.2,0.2,0.2l85.1,0.4l4.8,7.2c0,0,0.1,0.1,0.1,0.1c0,0,0.1,0,0.1,0
					c0.1,0,0.1-0.1,0.1-0.2l-3.5-7l25,0.1l6.7,8.4l-58,0.3c-0.2-1.5-0.4-3-0.6-4.4c0-0.1-0.1-0.1-0.2-0.1c0,0,0,0,0,0
					c-0.1,0-0.1,0.1-0.1,0.2c0,1.4-0.2,2.9-0.3,4.4l-86.1,0.5c-0.1,0-0.2,0.1-0.2,0.2c0,0.1,0.1,0.2,0.2,0.2l146.9,0.8l5.7,7.2
					L271.4,377.1z"/>
			</g>
			<g>
				<path class="st1" d="M229.5,285.6l-0.2,0l-35.8-46.8L89.1,352.7l23,29.5l192,1.2l-74.7-97.5V285.6z M194,246l30.5,39.8l-2.7,0.1
					l-1.7-2.2l-8.3-10.8c-5.6-7.2-11.1-14.4-16.7-21.5l-0.4-0.5l-0.3,0.5l-7.8,13.5c-0.1,0.2-0.2,0.3-0.3,0.5l-3.6-0.2L194,246z
					 M185.9,266.2c-1.1,1.9-2.2,3.8-3.3,5.8l-3.7-0.2l3.1-5.3L185.9,266.2z M94.3,352.9l1.1-1.2l5.3,5.7l-3.9-7.2l1.5-1.6l5.1,5.6
					l-3.8-7l1.5-1.6l5,5.4l-3.7-6.8l1.5-1.6l4.9,5.2l-3.6-6.7l1.5-1.6l4.8,5.1l-3.4-6.5l1.5-1.6l4.6,4.9l-3.3-6.3l1.5-1.6l4.5,4.7
					l-3.2-6.1l1.5-1.7l4.4,4.5l-3.1-5.9l1.5-1.7l4.2,4.4l-2.9-5.8l1.5-1.7l4.1,4.2l-2.8-5.6l1.5-1.7l4,4l-2.7-5.4l1.6-1.7l3.8,3.9
					l-2.6-5.2l1.6-1.7l3.7,3.7l-2.5-5l1.6-1.7l3.6,3.5l-2.3-4.9l1.6-1.7l3.4,3.4l-2.2-4.7l1.6-1.7l3.3,3.2l-2.1-4.5l1.6-1.8l3.1,3
					l-2-4.3l1.6-1.8l3,2.9l-1.8-4.1l1.6-1.8l2.9,2.7l-1.7-4l1.7-1.8l2.7,2.5l-1.6-3.8l1.7-1.8l2.6,2.4l-1.5-3.6l1.7-1.9l2.5,2.2
					l-1.4-3.4l1.7-1.9l2.3,2l-1.2-3.2l1.7-1.9l2.2,1.9l-1.1-3l1.8-1.9l2,1.7l-1-2.8l1.8-2l1.9,1.5l-0.9-2.6l1.8-2l1.8,1.4l-0.8-2.4
					l1.9-2l1.6,1.2l-0.7-2.2l12-13.1l-0.7,1.3L159.3,290l-2.6,7.7l0.7-5.1l-3.1,4.4l-3.1,10.5l1.1-7.7l-3.4,4.7
					c-1.1,3.4-2.1,6.9-3,10.3c0.3-2.6,0.7-5.1,1.1-7.6l-4.8,6.7c0,0.1,0,0.1,0,0.2l-1,3.5l-2,6.9l1.2-7.1l0.2-1l-4.3,6l-2.9,9.5
					l1.2-7l-3.5,4.9l-2.7,8.3l1-5.9l-3.2,4.5c-1.3,4.2-2.6,8.3-4,12.4c0.8-3.3,1.5-6.5,2.2-9.8L109,360.6l11.3-20.3l-19,21.4
					L94.3,352.9z M112.8,377l-0.2-0.2c-2.6-3.2-5.3-6.4-7.9-9.6c2.7,3,5.4,6,8.1,9c2.2-3.8,4.4-7.6,6.6-11.4
					c2.3-3.9,4.5-7.8,6.8-11.6l6.9-11.6c2.3-3.9,4.6-7.7,6.9-11.6l7-11.5l3.5-5.8l3.5-5.7c4.7-7.7,9.4-15.3,14.2-22.9
					c-4.4,7.8-8.9,15.6-13.5,23.3l-3.4,5.8l-3.4,5.8l-6.9,11.6c-2.3,3.9-4.6,7.7-6.9,11.6l-7,11.5c-2.3,3.9-4.7,7.7-7,11.5
					c-2.4,3.8-4.7,7.7-7.1,11.5L112.8,377z M296.1,379.4l-179.6-1.2l57.4-98l20.3-0.7l-19.5-0.7l3.3-5.7l4-0.2
					c-1.1,1.9-2.1,3.7-3.2,5.6c1.2-1.9,2.3-3.7,3.4-5.6l7.2-0.4l-6.6-0.4c1.2-1.9,2.4-3.9,3.5-5.8l6.8-0.4l-6.3-0.4
					c0-0.1,0.1-0.2,0.1-0.2l7.7-12.8c5.3,7.1,10.7,14.2,16.1,21.2l8.3,10.8l1.2,1.6l-14.6,0.5l15.5,0.6l5.4,7l-14.9,0.5l8.8,0.3
					l-0.1,0l1.9,4l-0.7-4l5.9,0.2l0.1,0.1l5,6.5l-16.6,0.6l17.6,0.6l2.3,3l2.1,2.7l-7,0.1l-2.4-4.5l1.3,4.5l-53.2,0.4l62.1,0.5
					l5.4,7c2.1,2.7,4.2,5.3,6.3,8l-0.9,0l-8.7,0.1l-17.4,0.2l-34.9,0.2l34.9,0.6l16.2,0.2c1.6,3.3,3.3,6.4,5.2,9.6
					c-1.5-3.1-2.8-6.3-4-9.5l0.1,0l8.7,0.1l2.1,0c3.1,4,6.3,7.9,9.4,11.9c-2.9-4-5.9-7.9-8.8-11.9l1.7,0l1.4,0L296.1,379.4z
					 M254.2,324.6l-0.2,0l-2.8,0.1c-2.1-2.8-4.2-5.6-6.3-8.4l-4.9-6.5l2.9,0L254.2,324.6z M241.9,308.6l-2.8,0l-2.5-3.3l-1.8-2.4
					l2.9,0.1L241.9,308.6z M236.5,301.5l-2.7,0.1l-5-6.5l2.9,0.1L236.5,301.5z M230.6,293.8l-2.7,0.1l-5.2-6.9l2.8,0.1L230.6,293.8z
					"/>
				<path class="st1" d="M141.8,350.4l89.9,0.8l-47.1,0.4l-1.5,4l0.5-3.9l-29.1,0.3c-1.2,2.7-2.4,5.4-3.7,8c1-2.7,1.8-5.3,2.6-8
					l-12.6,0.1l-12.2,21l18.1-35.7l2.7,0l14-0.2c-0.4,1.5-0.8,3.1-1,4.6c0.6-1.6,1.2-3.1,2-4.6l30.4-0.5l0.1,4.9l0.9-5l40.3-0.6
					l-55.6-0.9l1.1-6.1l-2.1,6.1l-28.4-0.4l-2.9,0l1.5-2.9l11.1-26.2l-41.5,71.2l41.7,0.1l1.6-4.9l-0.7,4.9l40.9,0.1l0.7-6l0.3,6
					l66.7,0.2l-2.1-4.4l3.2,4.4l21.7,0.1l-5.9-7.5l-147-0.8l86.3-0.5c0.2-1.5,0.3-3,0.3-4.5c0.3,1.5,0.5,3,0.6,4.5l58.4-0.3
					l-6.9-8.8l-25.4-0.1l3.6,7.2l-4.8-7.2l-85.2-0.4l111-0.6l-11.5-14.5c-41.3,0-110.8,0-120.8,0L141.8,350.4z"/>
				<path class="st1" d="M195.5,317.6c0.8,0,1.6,0,2.4,0c0.5,2.1,0.9,4.2,1.1,6.4c0.1-2.1,0.1-4.2-0.1-6.4c4.4,0,8.8,0,13.2-0.1
					l1.6,6.6l-0.5-6.6c5.4-0.1,10.8-0.2,16.2-0.4c-5.7-0.2-11.3-0.4-17-0.4c-5.7-0.1-11.3-0.1-17-0.1c-5.7,0-11.3,0-17,0.1
					c-5.7,0.1-11.3,0.2-17,0.4c5.7,0.2,11.3,0.4,17,0.4C184.2,317.5,189.8,317.6,195.5,317.6z"/>
			</g>
		</g>
		<g>
			<g>
				<path class="st5" d="M111.8,296.8c0,0,0.1,0.1,0.1,0.1c0,0,3,0.2,3,0.2c0,0,0.1,0,0.1-0.1l6.9-12l0.2,0.2c3.5,4.4,7,9,10.4,13.4
					c1.2,1.6,2.4,3.1,3.6,4.7l7,9.1l1.4,1.8c0,0,0.1,0.1,0.1,0.1c0,0,2.3-0.1,2.3-0.1c0.1,0,0.1,0,0.1-0.1c0,0,0-0.1,0-0.1
					l-25.6-33.4c0,0-0.1-0.1-0.1-0.1c0,0,0,0,0,0c0,0-0.1,0-0.1,0.1l-9.4,16.1C111.8,296.7,111.8,296.7,111.8,296.8z"/>
				<path class="st5" d="M59.3,380.9l0.9-1.4c1.7-2.7,3.4-5.5,5-8.2l5.8-9.7c1.6-2.7,3.7-6.2,5.8-9.7l5.8-9.7l2.9-4.9l2.9-4.9
					c4.5-7.6,8.1-13.8,11.3-19.6c0-0.1,0-0.1,0-0.2c0,0,0,0-0.1,0c0,0-0.1,0-0.1,0.1c-3.5,5.6-7.3,11.7-11.9,19.2l-3,4.8l-2.9,4.8
					l-5.8,9.7c-2.1,3.5-4.2,7-5.8,9.7l-5.8,9.7c-1.6,2.7-3.3,5.5-4.9,8.3l-0.9,1.5c-0.7,1.1-1.3,2.3-2,3.4c-1.1,2-2.3,4-3.5,6
					l-1.6-1.8c-1.6-1.9-3.4-3.8-5-5.6c0,0-0.1,0-0.1,0c0,0-0.1,0-0.1,0c-0.1,0-0.1,0.1,0,0.2c1.6,1.9,3.2,3.9,4.8,5.7l2.1,2.5
					c0,0,0.1,0,0.1,0c0,0,0,0,0,0c0,0,0.1,0,0.1-0.1l0.1-0.2c1.3-2.1,2.6-4.2,3.8-6.2C57.9,383.2,58.6,382.1,59.3,380.9z"/>
				<path class="st5" d="M49.8,376.9c0,0.1,0,0.1,0,0.2c0,0,0,0,0.1,0c0,0,0.1,0,0.1-0.1l12.5-17.6c-0.5,2.6-1.1,5.2-1.7,7.6
					c0,0.1,0,0.1,0.1,0.2c0,0,0,0,0,0c0.1,0,0.1,0,0.1-0.1c1.2-3.4,2.3-6.9,3.4-10.4l2.3-3.3l-0.7,4.4c0,0.1,0,0.1,0.1,0.2
					c0,0,0,0,0,0c0.1,0,0.1,0,0.1-0.1l2.2-6.9l2.6-3.7l-0.9,5.3c0,0.1,0,0.1,0.1,0.2c0,0,0,0,0,0c0.1,0,0.1,0,0.1-0.1l2.4-7.9
					l3.3-4.6l-1,6.3c0,0.1,0,0.1,0.1,0.2c0,0,0,0,0,0c0.1,0,0.1,0,0.1-0.1l2.6-8.8l0,0l3.7-5.2c-0.3,2-0.6,4-0.8,5.9
					c0,0.1,0,0.1,0.1,0.1c0,0,0,0,0,0c0.1,0,0.1,0,0.1-0.1c0.7-2.8,1.6-5.8,2.5-8.6l2.5-3.5l-0.9,5.9c0,0.1,0,0.1,0.1,0.2
					c0,0,0,0,0,0c0.1,0,0.1,0,0.1-0.1l2.6-8.8l2.3-3.3l-0.5,3.8c0,0.1,0,0.1,0.1,0.1c0,0,0,0,0,0c0.1,0,0.1,0,0.1-0.1l2.1-6.4
					l20.4-28.7l0.6-1.1c0-0.1,0-0.1,0-0.2c0,0-0.1,0-0.1,0c0,0-0.1,0-0.1,0l-10.1,11c0,0,0,0.1,0,0.1l0.5,1.5l-1-0.8
					c0,0-0.1,0-0.1,0c0,0-0.1,0-0.1,0l-1.6,1.7c0,0,0,0.1,0,0.1l0.5,1.6l-1.1-0.9c0,0-0.1,0-0.1,0c0,0-0.1,0-0.1,0l-1.5,1.7
					c0,0,0,0.1,0,0.1l0.6,1.8l-1.2-1c0,0-0.1,0-0.1,0c0,0-0.1,0-0.1,0l-1.5,1.6c0,0,0,0.1,0,0.1l0.7,1.9l-1.3-1.1c0,0-0.1,0-0.1,0
					c0,0-0.1,0-0.1,0l-1.5,1.6c0,0,0,0.1,0,0.1l0.8,2L93,310c0,0-0.1,0-0.1,0c0,0-0.1,0-0.1,0l-1.5,1.6c0,0,0,0.1,0,0.1l0.8,2.2
					l-1.5-1.3c0,0-0.1,0-0.1,0c0,0-0.1,0-0.1,0l-1.4,1.6c0,0,0,0.1,0,0.1l0.9,2.3l-1.6-1.5c0,0-0.1,0-0.1,0c0,0-0.1,0-0.1,0
					l-1.4,1.6c0,0,0,0.1,0,0.1l1,2.5l-1.7-1.6c0,0-0.1,0-0.1,0c0,0-0.1,0-0.1,0l-1.4,1.5c0,0,0,0.1,0,0.1l1.1,2.6l-1.8-1.7
					c0,0-0.1,0-0.1,0c0,0,0,0,0,0c0,0-0.1,0-0.1,0l-1.4,1.5c0,0,0,0.1,0,0.1l1.2,2.7l-1.9-1.8c0,0-0.1,0-0.1,0c0,0,0,0,0,0
					c0,0-0.1,0-0.1,0l-1.4,1.5c0,0,0,0.1,0,0.1l1.3,2.9l-2-1.9c0,0-0.1,0-0.1,0c0,0,0,0,0,0c0,0-0.1,0-0.1,0l-1.4,1.5
					c0,0,0,0.1,0,0.1l1.4,3l-2.1-2.1c0,0-0.1,0-0.1,0c0,0,0,0,0,0c0,0-0.1,0-0.1,0l-1.4,1.5c0,0,0,0.1,0,0.1l1.4,3.1l-2.2-2.2
					c0,0-0.1,0-0.1,0c0,0,0,0,0,0c0,0-0.1,0-0.1,0l-1.3,1.5c0,0,0,0.1,0,0.1l1.5,3.3l-2.3-2.3c0,0-0.1,0-0.1,0c0,0,0,0,0,0
					c0,0-0.1,0-0.1,0l-1.3,1.5c0,0,0,0.1,0,0.1l1.6,3.4l-2.4-2.4c0,0-0.1,0-0.1,0c0,0,0,0,0,0c0,0-0.1,0-0.1,0l-1.3,1.4
					c0,0,0,0.1,0,0.1l1.7,3.5l-2.5-2.5c0,0-0.1,0-0.1,0c0,0,0,0,0,0c0,0-0.1,0-0.1,0l-1.3,1.4c0,0,0,0.1,0,0.2l1.8,3.6l-2.6-2.7
					c0,0-0.1,0-0.1,0c0,0,0,0,0,0c0,0-0.1,0-0.1,0l-1.3,1.4c0,0,0,0.1,0,0.2l1.9,3.8l-2.7-2.8c0,0-0.1,0-0.1,0c0,0,0,0,0,0
					c0,0-0.1,0-0.1,0l-1.3,1.4c0,0,0,0.1,0,0.2l2,3.9l-2.8-2.9c0,0-0.1,0-0.1,0c0,0,0,0,0,0c0,0-0.1,0-0.1,0l-1.3,1.4
					c0,0,0,0.1,0,0.2l2.1,4l-2.9-3c0,0-0.1,0-0.1,0c0,0,0,0,0,0c0,0-0.1,0-0.1,0l-1.3,1.4c0,0,0,0.1,0,0.2l2.2,4.2l-3-3.1
					c0,0-0.1,0-0.1,0c0,0,0,0,0,0c0,0-0.1,0-0.1,0l-1.3,1.4c0,0,0,0.1,0,0.2l2.2,4.3l-3.1-3.3c0,0-0.1,0-0.1,0c0,0,0,0,0,0
					c0,0-0.1,0-0.1,0l-1.3,1.4c0,0,0,0.1,0,0.2l2.3,4.4l-3.2-3.4c0,0-0.1,0-0.1,0c0,0,0,0,0,0c0,0-0.1,0-0.1,0l-1.3,1.4
					c0,0,0,0.1,0,0.2l2.4,4.6l-3.3-3.5c0,0-0.1,0-0.1,0c0,0,0,0,0,0c0,0-0.1,0-0.1,0l-1.3,1.4c0,0,0,0.1,0,0.2l2.5,4.7l-3.4-3.6
					c0,0-0.1,0-0.1,0c0,0,0,0,0,0c0,0-0.1,0-0.1,0l-1.3,1.4c0,0,0,0.1,0,0.2l2.6,4.8l-3.5-3.8c0,0-0.1,0-0.1,0c0,0,0,0,0,0
					c0,0-0.1,0-0.1,0l-1.2,1.4c0,0,0,0.1,0,0.2l2.7,4.9l-3.6-3.9c0,0-0.1,0-0.1,0h0c0,0-0.1,0-0.1,0l-1.2,1.4c0,0,0,0.1,0,0.2
					l2.8,5.1l-3.7-4c0,0-0.1,0-0.1,0c0,0-0.1,0-0.1,0l-0.9,1c0,0,0,0.1,0,0.2l5.8,7.5c0,0,0.1,0.1,0.1,0.1c0,0,0,0,0,0
					c0,0,0.1,0,0.1,0l15.2-17.1L49.8,376.9z"/>
				<path class="st5" d="M159.8,334.1c0,0,0,0.1,0,0.1l4.1,5.5c1.8,2.4,3.6,4.7,5.3,7.1c0,0,0.1,0.1,0.1,0.1c0,0,2.4-0.1,2.4-0.1
					l0.2,0c0.1,0,0.1,0,0.1-0.1c0,0,0-0.1,0-0.1l-9.6-12.5c0,0-0.1-0.1-0.1-0.1c0,0-2.4,0-2.4,0C159.9,334,159.8,334,159.8,334.1z"
					/>
				<path class="st5" d="M145.3,315.1c0,0,0,0.1,0,0.1l4.4,5.8c0,0,0.1,0.1,0.1,0.1c0,0,2.3-0.1,2.3-0.1c0.1,0,0.1,0,0.1-0.1
					c0,0,0-0.1,0-0.1l-4.3-5.6c0,0-0.1-0.1-0.1-0.1c0,0-2.4-0.1-2.4-0.1C145.4,315,145.3,315,145.3,315.1z"/>
				<path class="st5" d="M150.5,321.8c0,0,0,0.1,0,0.1l4.2,5.5c0,0,0.1,0.1,0.1,0.1c0,0,2.3-0.1,2.3-0.1c0.1,0,0.1,0,0.1-0.1
					c0,0,0-0.1,0-0.1l-4.1-5.3c0,0-0.1-0.1-0.1-0.1c0,0-2.4-0.1-2.4-0.1C150.5,321.8,150.5,321.8,150.5,321.8z"/>
				<path class="st5" d="M155.5,328.4c0,0,0,0.1,0,0.1l1.5,2l2.1,2.8c0,0,0.1,0.1,0.1,0.1c0,0,2.4,0,2.4,0c0.1,0,0.1,0,0.1-0.1
					c0,0,0-0.1,0-0.1l-3.6-4.7c0,0-0.1-0.1-0.1-0.1c0,0-2.4-0.1-2.4-0.1C155.6,328.3,155.5,328.4,155.5,328.4z"/>
				<path class="st5" d="M207.3,392.6L173,347.9c0,0-0.1-0.1-0.1-0.1c0,0-1.2,0-1.2,0l-1.4,0c-0.1,0-0.1,0-0.1,0.1c0,0,0,0.1,0,0.1
					c0.9,1.2,1.8,2.4,2.7,3.6c-1-1.2-1.9-2.4-2.9-3.7c0,0-0.1-0.1-0.1-0.1l-1.8,0c0,0-7.5-0.1-7.5-0.1c0,0-0.1,0-0.1,0.1
					c0,0,0,0.1,0,0.1c0.7,1.9,1.5,3.7,2.3,5.6c-1-1.9-2-3.8-3-5.7c0,0-0.1-0.1-0.1-0.1l-13.6-0.2l-18.2-0.3l18.2-0.1l14.7-0.1
					l7.3-0.1l0.8,0c0.1,0,0.1,0,0.1-0.1c0,0,0-0.1,0-0.1c-1.8-2.2-3.5-4.5-5.3-6.7l-4.6-5.9c0,0-0.1-0.1-0.1-0.1l-36-0.3l28.5-0.2
					c0,0,0.1,0,0.1-0.1c0,0,0-0.1,0-0.1l-0.8-2.6l1.5,2.7c0,0,0.1,0.1,0.1,0.1c0,0,5.9,0,5.9,0c0.1,0,0.1,0,0.1-0.1c0,0,0-0.1,0-0.1
					l-1.8-2.3l-2-2.5c0,0-0.1-0.1-0.1-0.1l-11-0.4l10.2-0.4c0.1,0,0.1,0,0.1-0.1c0,0,0-0.1,0-0.1l-4.3-5.6c0,0-0.1-0.1-0.1-0.1
					c0,0-5-0.2-5-0.2c0,0-0.1,0-0.1,0c0,0,0,0.1,0,0.1l0.4,2.3l-1.1-2.3c0,0,0-0.1,0-0.1c0-0.1-0.1-0.1-0.1-0.1l-3.6-0.1l8.8-0.3
					c0.1,0,0.1,0,0.1-0.1c0,0,0-0.1,0-0.1l-4.5-5.9c0,0-0.1-0.1-0.1-0.1l-9.2-0.3l8.5-0.3c0.1,0,0.1,0,0.1-0.1c0,0,0-0.1,0-0.1
					l-1-1.3l-7-9.1c-1.2-1.6-2.4-3.1-3.6-4.7c-3.3-4.3-6.7-8.7-10-13.1c0,0-0.1-0.1-0.1-0.1c0,0,0,0,0,0c0,0-0.1,0-0.1,0.1l-6.6,11
					c0,0,0,0.1,0,0.1c0,0,0.1,0.1,0.1,0.1l3.1,0.2l-3.5,0.2c0,0-0.1,0-0.1,0.1l-2.1,3.5l1.9-3.3c0,0,0-0.1,0-0.1
					c0,0-0.1-0.1-0.1-0.1c0,0-3.3,0.2-3.3,0.2c0,0-0.1,0-0.1,0.1l-2.6,4.5c0,0,0,0.1,0,0.1c0,0,0.1,0.1,0.1,0.1c0,0,3.1,0.2,3.1,0.2
					c0,0,0.1,0,0.1-0.1l0,0c0,0,0,0,0,0c0,0,0.1,0.1,0.1,0.1l3.4,0.2l-3.8,0.2c0,0-0.1,0-0.1,0.1c0,0,0,0,0,0c0,0-0.1-0.1-0.1-0.1
					c0,0-3.4,0.2-3.4,0.2c0,0-0.1,0-0.1,0.1l-2.8,4.8c0,0,0,0.1,0,0.1c0,0,0.1,0.1,0.1,0.1l12.6,0.5l-13.3,0.5c0,0-0.1,0-0.1,0.1
					l-48.2,82.3c0,0,0,0.1,0,0.1c0,0,0.1,0.1,0.1,0.1c0,0,150.9,1,150.9,1c0.1,0,0.1,0,0.1-0.1C207.3,392.7,207.3,392.6,207.3,392.6
					z M108.3,340c4.9-0.1,9.7-0.1,14.3-0.1c4.5,0,9.4,0,14.3,0.1c3.5,0,7,0.1,10.5,0.2c-3.2,0.1-6.5,0.2-9.8,0.2c0,0-0.1,0-0.1,0
					c0,0,0,0.1,0,0.1l0.3,3.9l-1-3.9c0-0.1-0.1-0.1-0.1-0.1c0,0,0,0,0,0c-4,0.1-7.8,0.1-11.1,0.1c0,0-0.1,0-0.1,0c0,0,0,0.1,0,0.1
					c0.1,1.2,0.1,2.5,0.1,3.7c-0.2-1.2-0.4-2.5-0.7-3.7c0-0.1-0.1-0.1-0.1-0.1l-2,0c-4.6,0-9.4,0-14.3-0.1c-3.5,0-7-0.1-10.4-0.2
					C101.4,340.2,104.9,340.1,108.3,340z M186.4,390.8l-2.7-3.7c0,0-0.1-0.1-0.1-0.1c0,0,0,0-0.1,0c-0.1,0-0.1,0.1-0.1,0.2l1.7,3.5
					l-55.7-0.2l-0.2-4.9c0-0.1-0.1-0.1-0.1-0.1c0,0,0,0,0,0c-0.1,0-0.1,0.1-0.1,0.1l-0.6,4.9l-34.1-0.1l0.6-4c0-0.1,0-0.1-0.1-0.1
					c0,0,0,0,0,0c-0.1,0-0.1,0-0.1,0.1l-1.4,4l-34.7-0.1l33.7-57.8l-8.5,20.1l-1.2,2.4c0,0,0,0.1,0,0.1c0,0,0.1,0.1,0.1,0.1
					c0,0,26.3,0.4,26.3,0.4c0.1,0,0.1,0,0.1-0.1l1.2-3.6l-0.6,3.5c0,0,0,0.1,0,0.1c0,0,0.1,0,0.1,0l38.1,0.6l-25.2,0.4
					c-0.1,0-0.1,0-0.1,0.1l-0.5,2.8l0-2.7c0-0.1-0.1-0.1-0.1-0.1c0,0-25.5,0.4-25.5,0.4c-0.1,0-0.1,0-0.1,0.1
					c-0.4,0.8-0.8,1.7-1.1,2.5c0.2-0.8,0.4-1.6,0.6-2.4c0,0,0-0.1,0-0.1c0,0-0.1-0.1-0.1-0.1c0,0-14.1,0.2-14.1,0.2
					c0,0-0.1,0-0.1,0.1l-15.2,30c0,0.1,0,0.1,0.1,0.2c0,0,0,0,0.1,0c0,0,0.1,0,0.1-0.1l10.3-17.6l10.3-0.1c-0.7,2.2-1.4,4.4-2.2,6.6
					c0,0.1,0,0.1,0.1,0.2c0,0,0,0,0.1,0c0,0,0.1,0,0.1-0.1c1.1-2.2,2.1-4.4,3.1-6.7l24.2-0.2l-0.4,3.2c0,0.1,0,0.1,0.1,0.1
					c0,0,0,0,0,0c0.1,0,0.1,0,0.1-0.1l1.2-3.2l39.5-0.4c0.1,0,0.1-0.1,0.1-0.1c0-0.1-0.1-0.1-0.1-0.1l-75.3-0.7l3.1-5.4h101.3
					l9.4,11.9l-93,0.5c-0.1,0-0.1,0.1-0.1,0.1c0,0.1,0.1,0.1,0.1,0.1l71.5,0.4l4,6c0,0,0.1,0.1,0.1,0.1c0,0,0,0,0.1,0
					c0.1,0,0.1-0.1,0.1-0.2l-2.9-5.9l21,0.1l5.6,7.1l-48.7,0.3c-0.1-1.3-0.3-2.5-0.5-3.7c0-0.1-0.1-0.1-0.1-0.1c0,0,0,0,0,0
					c-0.1,0-0.1,0.1-0.1,0.1c0,1.2-0.1,2.4-0.3,3.7L76,383.8c-0.1,0-0.1,0.1-0.1,0.1c0,0.1,0.1,0.1,0.1,0.1l123.5,0.7l4.8,6.1
					L186.4,390.8z"/>
			</g>
			<g>
				<path class="st1" d="M151.2,313.9l-0.2,0l-30.1-39.3l-87.6,95.6L52.6,395l161.3,1l-62.7-81.9V313.9z M121.3,280.6l25.6,33.4
					l-2.3,0.1l-1.4-1.8l-7-9.1c-4.7-6-9.3-12.1-14-18.1l-0.3-0.4l-0.2,0.4l-6.5,11.3c-0.1,0.1-0.1,0.3-0.2,0.4l-3-0.2L121.3,280.6z
					 M114.5,297.6c-0.9,1.6-1.8,3.2-2.8,4.8l-3.1-0.2l2.6-4.5L114.5,297.6z M37.6,370.4l0.9-1l4.4,4.8l-3.3-6l1.2-1.4l4.3,4.7
					l-3.2-5.9l1.2-1.4l4.2,4.5l-3.1-5.7l1.3-1.4l4.1,4.4l-3-5.6l1.3-1.4l4,4.3l-2.9-5.4l1.3-1.4l3.9,4.1l-2.8-5.3l1.3-1.4l3.8,4
					l-2.7-5.1l1.3-1.4l3.7,3.8l-2.6-5l1.3-1.4l3.5,3.7l-2.5-4.8l1.3-1.4l3.4,3.5l-2.4-4.7l1.3-1.4l3.3,3.4l-2.3-4.5l1.3-1.4l3.2,3.2
					l-2.2-4.4l1.3-1.4l3.1,3.1l-2.1-4.2l1.3-1.4l3,3l-2-4.1l1.3-1.5l2.9,2.8l-1.9-3.9l1.3-1.5l2.8,2.7l-1.8-3.8l1.4-1.5l2.6,2.5
					l-1.6-3.6l1.4-1.5l2.5,2.4l-1.5-3.5l1.4-1.5l2.4,2.3l-1.4-3.3l1.4-1.5l2.3,2.1l-1.3-3.2l1.4-1.5l2.2,2l-1.2-3l1.4-1.6l2.1,1.8
					l-1.1-2.9l1.4-1.6l2,1.7l-1-2.7l1.5-1.6l1.8,1.6l-1-2.5l1.5-1.6l1.7,1.4l-0.9-2.4l1.5-1.6l1.6,1.3l-0.8-2.2l1.5-1.7l1.5,1.2
					l-0.7-2.1l1.6-1.7l1.4,1l-0.6-1.9l10.1-11l-0.6,1.1l-20.4,28.7l-2.1,6.5l0.6-4.3l-2.6,3.7l-2.6,8.8l0.9-6.5l-2.8,4
					c-0.9,2.9-1.8,5.8-2.5,8.7c0.3-2.1,0.6-4.3,0.9-6.4l-4,5.6c0,0,0,0.1,0,0.1l-0.8,2.9l-1.7,5.8l1-6l0.1-0.9l-3.6,5l-2.5,7.9
					l1-5.9l-2.9,4.1l-2.3,7l0.8-5l-2.7,3.8c-1.1,3.5-2.2,7-3.4,10.4c0.7-2.7,1.3-5.5,1.8-8.2l-12.9,18.1l9.5-17.1l-16,18L37.6,370.4
					z M53.1,390.7l-0.2-0.2c-2.2-2.7-4.5-5.3-6.7-8c2.3,2.5,4.5,5.1,6.8,7.6c1.8-3.2,3.7-6.4,5.6-9.5c1.9-3.3,3.8-6.5,5.7-9.8
					l5.8-9.7c1.9-3.2,3.9-6.5,5.8-9.7l5.8-9.7l2.9-4.8l3-4.8c3.9-6.4,7.9-12.9,11.9-19.2c-3.7,6.6-7.5,13.1-11.3,19.6l-2.9,4.9
					l-2.9,4.9l-5.8,9.7c-1.9,3.2-3.9,6.5-5.8,9.7l-5.8,9.7c-1.9,3.2-3.9,6.4-5.9,9.7c-2,3.2-3.9,6.4-5.9,9.6L53.1,390.7z
					 M207.2,392.7l-150.9-1l48.2-82.3l17.1-0.6l-16.4-0.6l2.8-4.8l3.4-0.2c-0.9,1.6-1.8,3.1-2.7,4.7c1-1.6,1.9-3.1,2.9-4.7l6-0.4
					l-5.6-0.3c1-1.6,2-3.3,3-4.9l5.7-0.3l-5.3-0.3c0-0.1,0.1-0.1,0.1-0.2l6.5-10.8c4.5,6,9,11.9,13.6,17.8l7,9.1l1,1.3l-12.3,0.4
					l13,0.5l4.5,5.9l-12.5,0.4l7.4,0.3l-0.1,0l1.6,3.4l-0.6-3.4l5,0.2l0.1,0.1l4.2,5.5l-14,0.5l14.8,0.5l2,2.5l1.8,2.3l-5.9,0
					l-2.1-3.8l1.1,3.8l-44.7,0.4l52.2,0.4l4.6,5.9c1.8,2.3,3.5,4.5,5.3,6.7l-0.8,0l-7.3,0.1l-14.7,0.1l-29.3,0.2l29.3,0.5l13.6,0.2
					c1.3,2.7,2.8,5.4,4.3,8c-1.2-2.6-2.3-5.3-3.4-8l0.1,0l7.3,0.1l1.8,0c2.6,3.3,5.3,6.7,7.9,10c-2.5-3.3-4.9-6.6-7.4-10l1.4,0
					l1.2,0L207.2,392.7z M171.9,346.7l-0.2,0l-2.4,0.1c-1.8-2.4-3.5-4.7-5.3-7.1l-4.1-5.5l2.4,0L171.9,346.7z M161.6,333.3l-2.4,0
					l-2.1-2.8l-1.5-2l2.4,0.1L161.6,333.3z M157.1,327.3l-2.3,0.1l-4.2-5.5l2.4,0.1L157.1,327.3z M152.1,320.8l-2.3,0.1l-4.4-5.8
					l2.4,0.1L152.1,320.8z"/>
				<path class="st1" d="M77.5,368.3l75.6,0.7l-39.6,0.4l-1.2,3.3l0.4-3.3l-24.5,0.2c-1,2.3-2,4.5-3.1,6.8c0.8-2.2,1.5-4.5,2.2-6.7
					l-10.6,0.1l-10.3,17.6l15.2-30l2.3,0l11.8-0.2c-0.3,1.3-0.6,2.6-0.9,3.9c0.5-1.3,1-2.6,1.7-3.9l25.5-0.4l0.1,4.1l0.7-4.2
					l33.9-0.5l-46.7-0.7l0.9-5.1l-1.8,5.1l-23.9-0.4l-2.4,0l1.2-2.4l9.3-22l-34.9,59.8l35.1,0.1l1.4-4.1l-0.6,4.1l34.4,0.1l0.6-5
					l0.2,5l56,0.2l-1.8-3.7l2.7,3.7l18.2,0.1l-5-6.3L76,383.9l72.5-0.4c0.1-1.3,0.2-2.5,0.3-3.8c0.2,1.3,0.4,2.5,0.5,3.8l49.1-0.3
					l-5.8-7.4l-21.3-0.1l3,6.1l-4.1-6.1l-71.6-0.4l93.2-0.5l-9.6-12.2c-34.7,0-93.1,0-101.5,0L77.5,368.3z"/>
				<path class="st1" d="M122.6,340.7c0.7,0,1.3,0,2,0c0.4,1.8,0.8,3.5,0.9,5.4c0.1-1.8,0.1-3.6-0.1-5.4c3.7,0,7.4,0,11.1-0.1
					l1.4,5.5l-0.4-5.5c4.5-0.1,9.1-0.2,13.6-0.4c-4.8-0.2-9.5-0.3-14.3-0.4c-4.8-0.1-9.5-0.1-14.3-0.1c-4.8,0-9.5,0-14.3,0.1
					c-4.8,0.1-9.5,0.2-14.3,0.4c4.8,0.2,9.5,0.3,14.3,0.4C113.1,340.7,117.8,340.7,122.6,340.7z"/>
			</g>
		</g>
	</g>
</g>
<g>
	<g>
		<path class="st1" d="M89.2,123.7l3.9-2.2v4.6v4.5l-3.9-2.3l-3.8-2.2L89.2,123.7z M89.2,133.8l-3.8,2.3v-4.5V127l3.8,2.2l3.9,2.4
			L89.2,133.8z M89.2,134.8l3.9-2.2v4.6v4.5l-3.9-2.3l-3.8-2.2L89.2,134.8z M89.2,144.9l-3.8,2.3v-4.5v-4.6l3.8,2.2l3.9,2.4
			L89.2,144.9z M89.2,145.9l3.9-2.2v4.6v4.5l-3.9-2.3l-3.8-2.2L89.2,145.9z M89.2,156l-3.8,2.3v-4.5v-4.6l3.8,2.2l3.9,2.4L89.2,156z
			 M89.2,157l3.9-2.2v4.6v4.5l-3.9-2.3l-3.8-2.2L89.2,157z M89.2,167.1l-3.8,2.3v-4.5v-4.6l3.8,2.2l3.9,2.4L89.2,167.1z M98.1,118.1
			l3.9-2.2v4.6v4.5l-3.9-2.3l-3.8-2.2L98.1,118.1z M98.1,128.3l-3.8,2.3v-4.5v-4.6l3.8,2.2l3.9,2.4L98.1,128.3z M98.1,140.3l3.9-2.2
			v4.6v4.5l-3.9-2.3l-3.8-2.2L98.1,140.3z M107,122.7l-3.8,2.3v-4.5v-4.6l3.8,2.2l3.9,2.4L107,122.7z M107,134.8l3.9-2.2v4.6v4.5
			l-3.9-2.3l-3.8-2.2L107,134.8z M107,144.9l-3.8,2.3v-4.5v-4.6l3.8,2.2l3.9,2.4L107,144.9z M115.9,128.3l-3.8,2.3v-4.5v-4.6
			l3.8,2.2l3.9,2.4L115.9,128.3z M115.9,129.2l3.9-2.2v4.6v4.5l-3.9-2.3l-3.8-2.2L115.9,129.2z M115.9,139.4l-3.8,2.3v-4.5v-4.6
			l3.8,2.2l3.9,2.4L115.9,139.4z"/>
		<path class="st1" d="M127.3,123.6l3.9-2.2v4.5v4.6l-3.9-2.4l-3.8-2.2L127.3,123.6z M127.3,133.7l-3.8,2.4v-4.6v-4.5l3.8,2.2
			l3.9,2.3L127.3,133.7z M127.3,134.7l3.9-2.2v4.5v4.6l-3.9-2.4l-3.8-2.2L127.3,134.7z M136.2,139.2l-3.8,2.4V137v-4.5l3.8,2.2
			l3.9,2.3L136.2,139.2z M136.2,140.3l3.9-2.2v4.5v4.6l-3.9-2.4l-3.8-2.2L136.2,140.3z M136.2,150.3l-3.8,2.4v-4.6v-4.5l3.8,2.2
			l3.9,2.3L136.2,150.3z M136.2,151.4l3.9-2.2v4.5v4.6l-3.9-2.4l-3.8-2.2L136.2,151.4z M136.2,161.4l-3.8,2.4v-4.6v-4.5l3.8,2.2
			l3.9,2.3L136.2,161.4z M136.2,162.5l3.9-2.2v4.5v4.6l-3.9-2.4l-3.8-2.2L136.2,162.5z M145.1,134.7l3.9-2.2v4.5v4.6l-3.9-2.4
			l-3.8-2.2L145.1,134.7z M145.1,144.8l-3.8,2.4v-4.6V138l3.8,2.2l3.9,2.3L145.1,144.8z M154,118.1l3.9-2.2v4.5v4.6l-3.9-2.4
			l-3.8-2.2L154,118.1z M154,128.1l-3.8,2.4v-4.6v-4.5l3.8,2.2l3.9,2.3L154,128.1z M154,129.2l3.9-2.2v4.5v4.6l-3.9-2.4l-3.8-2.2
			L154,129.2z M154,139.2l-3.8,2.4V137v-4.5l3.8,2.2l3.9,2.3L154,139.2z"/>
		<path class="st1" d="M165.5,123.7l3.9-2.2v4.6v4.5l-3.9-2.3l-3.8-2.2L165.5,123.7z M165.5,133.8l-3.8,2.3v-4.5V127l3.8,2.2
			l3.9,2.4L165.5,133.8z M165.5,134.8l3.9-2.2v4.6v4.5l-3.9-2.3l-3.8-2.2L165.5,134.8z M165.5,144.9l-3.8,2.3v-4.5v-4.6l3.8,2.2
			l3.9,2.4L165.5,144.9z M165.5,145.9l3.9-2.2v4.6v4.5l-3.9-2.3l-3.8-2.2L165.5,145.9z M165.5,156l-3.8,2.3v-4.5v-4.6l3.8,2.2
			l3.9,2.4L165.5,156z M165.5,157l3.9-2.2v4.6v4.5l-3.9-2.3l-3.8-2.2L165.5,157z M165.5,167.1l-3.8,2.3v-4.5v-4.6l3.8,2.2l3.9,2.4
			L165.5,167.1z M174.3,118.1l3.9-2.2v4.6v4.5l-3.9-2.3l-3.8-2.2L174.3,118.1z M174.3,128.3l-3.8,2.3v-4.5v-4.6l3.8,2.2l3.9,2.4
			L174.3,128.3z M174.3,140.3l3.9-2.2v4.6v4.5l-3.9-2.3l-3.8-2.2L174.3,140.3z M174.3,150.5l-3.8,2.3v-4.5v-4.6l3.8,2.2l3.9,2.4
			L174.3,150.5z M183.2,122.7l-3.8,2.3v-4.5v-4.6l3.8,2.2l3.9,2.4L183.2,122.7z M183.2,134.8l3.9-2.2v4.6v4.5l-3.9-2.3l-3.8-2.2
			L183.2,134.8z M183.2,144.9l-3.8,2.3v-4.5v-4.6l3.8,2.2l3.9,2.4L183.2,144.9z M183.2,145.9l3.9-2.2v4.6v4.5l-3.9-2.3l-3.8-2.2
			L183.2,145.9z M192.1,128.3l-3.8,2.3v-4.5v-4.6l3.8,2.2l3.9,2.4L192.1,128.3z M192.1,129.2l3.9-2.2v4.6v4.5l-3.9-2.3l-3.8-2.2
			L192.1,129.2z M192.1,139.4l-3.8,2.3v-4.5v-4.6l3.8,2.2l3.9,2.4L192.1,139.4z M192.1,150.5l-3.8,2.3v-4.5v-4.6l3.8,2.2l3.9,2.4
			L192.1,150.5z M192.1,151.4l3.9-2.2v4.6v4.5l-3.9-2.3l-3.8-2.2L192.1,151.4z M192.1,161.6l-3.8,2.3v-4.5v-4.6l3.8,2.2l3.9,2.4
			L192.1,161.6z"/>
		<path class="st1" d="M203.6,123.7l3.9-2.2v4.6v4.5l-3.9-2.3l-3.8-2.2L203.6,123.7z M203.6,133.8l-3.8,2.3v-4.5V127l3.8,2.2
			l3.9,2.4L203.6,133.8z M203.6,134.8l3.9-2.2v4.6v4.5l-3.9-2.3l-3.8-2.2L203.6,134.8z M203.6,144.9l-3.8,2.3v-4.5v-4.6l3.8,2.2
			l3.9,2.4L203.6,144.9z M203.6,145.9l3.9-2.2v4.6v4.5l-3.9-2.3l-3.8-2.2L203.6,145.9z M203.6,156l-3.8,2.3v-4.5v-4.6l3.8,2.2
			l3.9,2.4L203.6,156z M203.6,157l3.9-2.2v4.6v4.5l-3.9-2.3l-3.8-2.2L203.6,157z M203.6,167.1l-3.8,2.3v-4.5v-4.6l3.8,2.2l3.9,2.4
			L203.6,167.1z M212.4,118.1l3.9-2.2v4.6v4.5l-3.9-2.3l-3.8-2.2L212.4,118.1z M212.4,128.3l-3.8,2.3v-4.5v-4.6l3.8,2.2l3.9,2.4
			L212.4,128.3z M212.4,151.4l3.9-2.2v4.6v4.5l-3.9-2.3l-3.8-2.2L212.4,151.4z M221.3,122.7l-3.8,2.3v-4.5v-4.6l3.8,2.2l3.9,2.4
			L221.3,122.7z M221.3,145.9l3.9-2.2v4.6v4.5l-3.9-2.3l-3.8-2.2L221.3,145.9z M221.3,156l-3.8,2.3v-4.5v-4.6l3.8,2.2l3.9,2.4
			L221.3,156z M230.2,128.3l-3.8,2.3v-4.5v-4.6l3.8,2.2l3.9,2.4L230.2,128.3z M230.2,129.2l3.9-2.2v4.6v4.5l-3.9-2.3l-3.8-2.2
			L230.2,129.2z M230.2,139.4l-3.8,2.3v-4.5v-4.6l3.8,2.2l3.9,2.4L230.2,139.4z M230.2,140.3l3.9-2.2v4.6v4.5l-3.9-2.3l-3.8-2.2
			L230.2,140.3z M230.2,150.5l-3.8,2.3v-4.5v-4.6l3.8,2.2l3.9,2.4L230.2,150.5z M230.2,151.4l3.9-2.2v4.6v4.5l-3.9-2.3l-3.8-2.2
			L230.2,151.4z M230.2,161.6l-3.8,2.3v-4.5v-4.6l3.8,2.2l3.9,2.4L230.2,161.6z"/>
		<path class="st1" d="M241.7,123.7l3.9-2.2v4.6v4.5l-3.9-2.3l-3.8-2.2L241.7,123.7z M241.7,133.8l-3.8,2.3v-4.5V127l3.8,2.2
			l3.9,2.4L241.7,133.8z M241.7,134.8l3.9-2.2v4.6v4.5l-3.9-2.3l-3.8-2.2L241.7,134.8z M241.7,144.9l-3.8,2.3v-4.5v-4.6l3.8,2.2
			l3.9,2.4L241.7,144.9z M241.7,145.9l3.9-2.2v4.6v4.5l-3.9-2.3l-3.8-2.2L241.7,145.9z M241.7,156l-3.8,2.3v-4.5v-4.6l3.8,2.2
			l3.9,2.4L241.7,156z M241.7,157l3.9-2.2v4.6v4.5l-3.9-2.3l-3.8-2.2L241.7,157z M241.7,167.1l-3.8,2.3v-4.5v-4.6l3.8,2.2l3.9,2.4
			L241.7,167.1z M250.6,128.3l-3.8,2.3v-4.5v-4.6l3.8,2.2l3.9,2.4L250.6,128.3z M250.6,129.2l3.9-2.2v4.6v4.5l-3.9-2.3l-3.8-2.2
			L250.6,129.2z M259.4,123.7l3.9-2.2v4.6v4.5l-3.9-2.3l-3.8-2.2L259.4,123.7z M259.4,133.8l-3.8,2.3v-4.5V127l3.8,2.2l3.9,2.4
			L259.4,133.8z M268.3,118.1l3.9-2.2v4.6v4.5l-3.9-2.3l-3.8-2.2L268.3,118.1z M268.3,128.3l-3.8,2.3v-4.5v-4.6l3.8,2.2l3.9,2.4
			L268.3,128.3z M268.3,129.2l3.9-2.2v4.6v4.5l-3.9-2.3l-3.8-2.2L268.3,129.2z M268.3,139.4l-3.8,2.3v-4.5v-4.6l3.8,2.2l3.9,2.4
			L268.3,139.4z M268.3,140.3l3.9-2.2v4.6v4.5l-3.9-2.3l-3.8-2.2L268.3,140.3z M268.3,150.5l-3.8,2.3v-4.5v-4.6l3.8,2.2l3.9,2.4
			L268.3,150.5z M268.3,151.4l3.9-2.2v4.6v4.5l-3.9-2.3l-3.8-2.2L268.3,151.4z M268.3,161.6l-3.8,2.3v-4.5v-4.6l3.8,2.2l3.9,2.4
			L268.3,161.6z"/>
		<path class="st1" d="M279.8,118.1l3.9-2.2v4.6v4.5l-3.9-2.3l-3.8-2.2L279.8,118.1z M279.8,128.3l-3.8,2.3v-4.5v-4.6l3.8,2.2
			l3.9,2.4L279.8,128.3z M279.8,129.2l3.9-2.2v4.6v4.5l-3.9-2.3l-3.8-2.2L279.8,129.2z M279.8,139.4l-3.8,2.3v-4.5v-4.6l3.8,2.2
			l3.9,2.4L279.8,139.4z M279.8,140.3l3.9-2.2v4.6v4.5l-3.9-2.3l-3.8-2.2L279.8,140.3z M279.8,150.5l-3.8,2.3v-4.5v-4.6l3.8,2.2
			l3.9,2.4L279.8,150.5z M279.8,151.4l3.9-2.2v4.6v4.5l-3.9-2.3l-3.8-2.2L279.8,151.4z M279.8,161.6l-3.8,2.3v-4.5v-4.6l3.8,2.2
			l3.9,2.4L279.8,161.6z"/>
		<path class="st1" d="M291.3,123.7l3.9-2.2v4.6v4.5l-3.9-2.3l-3.8-2.2L291.3,123.7z M291.3,133.8l-3.8,2.3v-4.5V127l3.8,2.2
			l3.9,2.4L291.3,133.8z M291.3,134.8l3.9-2.2v4.6v4.5l-3.9-2.3l-3.8-2.2L291.3,134.8z M291.3,144.9l-3.8,2.3v-4.5v-4.6l3.8,2.2
			l3.9,2.4L291.3,144.9z M291.3,145.9l3.9-2.2v4.6v4.5l-3.9-2.3l-3.8-2.2L291.3,145.9z M291.3,156l-3.8,2.3v-4.5v-4.6l3.8,2.2
			l3.9,2.4L291.3,156z M291.3,157l3.9-2.2v4.6v4.5l-3.9-2.3l-3.8-2.2L291.3,157z M300.1,118.1l3.9-2.2v4.6v4.5l-3.9-2.3l-3.8-2.2
			L300.1,118.1z M300.1,128.3l-3.8,2.3v-4.5v-4.6l3.8,2.2l3.9,2.4L300.1,128.3z M300.1,139.4l-3.8,2.3v-4.5v-4.6l3.8,2.2l3.9,2.4
			L300.1,139.4z M300.1,140.3l3.9-2.2v4.6v4.5l-3.9-2.3l-3.8-2.2L300.1,140.3z M300.1,150.5l-3.8,2.3v-4.5v-4.6l3.8,2.2l3.9,2.4
			L300.1,150.5z M300.1,162.5l3.9-2.2v4.6v4.5l-3.9-2.3l-3.8-2.2L300.1,162.5z M309,122.7l-3.8,2.3v-4.5v-4.6l3.8,2.2l3.9,2.4
			L309,122.7z M309,157l3.9-2.2v4.6v4.5l-3.9-2.3l-3.8-2.2L309,157z M309,167.1l-3.8,2.3v-4.5v-4.6l3.8,2.2l3.9,2.4L309,167.1z
			 M317.9,128.3l-3.8,2.3v-4.5v-4.6l3.8,2.2l3.9,2.4L317.9,128.3z M317.9,129.2l3.9-2.2v4.6v4.5l-3.9-2.3l-3.8-2.2L317.9,129.2z
			 M317.9,139.4l-3.8,2.3v-4.5v-4.6l3.8,2.2l3.9,2.4L317.9,139.4z M317.9,140.3l3.9-2.2v4.6v4.5l-3.9-2.3l-3.8-2.2L317.9,140.3z
			 M317.9,150.5l-3.8,2.3v-4.5v-4.6l3.8,2.2l3.9,2.4L317.9,150.5z M317.9,151.4l3.9-2.2v4.6v4.5l-3.9-2.3l-3.8-2.2L317.9,151.4z
			 M317.9,161.6l-3.8,2.3v-4.5v-4.6l3.8,2.2l3.9,2.4L317.9,161.6z"/>
	</g>
	<g>
		<path class="st1" d="M89.2,189.4l3.9-2.4v4.6v4.5l-3.9-2.3l-3.8-2.2L89.2,189.4z M93.2,197.1l-3.9,2.2l-3.8,2.3v-4.5v-4.6l3.8,2.4
			L93.2,197.1z M89.2,200.5l3.9-2.4v4.6v4.5l-3.9-2.3l-3.8-2.2L89.2,200.5z M93.2,219.4l-3.9,2.2l-3.8,2.3v-4.5v-4.6l3.8,2.4
			L93.2,219.4z M89.2,222.7l3.9-2.4v4.6v4.5l-3.9-2.3l-3.8-2.2L89.2,222.7z M94.3,186l3.8-2.2l3.9-2.4v4.6v4.5l-3.9-2.3L94.3,186z
			 M98.1,193.8l-3.8,2.3v-4.5V187l3.8,2.4l3.9,2.2L98.1,193.8z M98.1,204.9l-3.8,2.3v-4.5v-4.6l3.8,2.4l3.9,2.2L98.1,204.9z
			 M94.3,208.2l3.8-2.2l3.9-2.4v4.6v4.5l-3.9-2.3L94.3,208.2z M94.3,230.5l3.8-2.2l3.9-2.4v4.6v4.5l-3.9-2.3L94.3,230.5z M110.9,186
			l-3.9,2.2l-3.8,2.3V186v-4.6l3.8,2.4L110.9,186z M107,189.4l3.9-2.4v4.6v4.5l-3.9-2.3l-3.8-2.2L107,189.4z M110.9,208.2l-3.9,2.2
			l-3.8,2.3v-4.5v-4.6l3.8,2.4L110.9,208.2z M107,211.6l3.9-2.4v4.6v4.5L107,216l-3.8-2.2L107,211.6z M107,222.7l3.9-2.4v4.6v4.5
			l-3.9-2.3l-3.8-2.2L107,222.7z M110.9,230.5l-3.9,2.2l-3.8,2.3v-4.5v-4.6l3.8,2.4L110.9,230.5z M115.9,193.8l-3.8,2.3v-4.5V187
			l3.8,2.4l3.9,2.2L115.9,193.8z M115.9,216l-3.8,2.3v-4.5v-4.6l3.8,2.4l3.9,2.2L115.9,216z M112,219.4l3.8-2.2l3.9-2.4v4.6v4.5
			l-3.9-2.3L112,219.4z M115.9,227.1l-3.8,2.3v-4.5v-4.6l3.8,2.4l3.9,2.2L115.9,227.1z"/>
		<path class="st1" d="M127.3,189.2l3.9-2.2v4.6v4.5l-3.9-2.3l-3.8-2.2L127.3,189.2z M127.3,199.4l-3.8,2.3v-4.5v-4.6l3.8,2.2
			l3.9,2.4L127.3,199.4z M136.2,183.7l3.9-2.2v4.6v4.5l-3.9-2.3l-3.8-2.2L136.2,183.7z M136.2,193.8l-3.8,2.3v-4.5V187l3.8,2.2
			l3.9,2.4L136.2,193.8z M136.2,194.8l3.9-2.2v4.6v4.5l-3.9-2.3l-3.8-2.2L136.2,194.8z M136.2,204.9l-3.8,2.3v-4.5v-4.6l3.8,2.2
			l3.9,2.4L136.2,204.9z M136.2,205.9l3.9-2.2v4.6v4.5l-3.9-2.3l-3.8-2.2L136.2,205.9z M136.2,216l-3.8,2.3v-4.5v-4.6l3.8,2.2
			l3.9,2.4L136.2,216z M136.2,217l3.9-2.2v4.6v4.5l-3.9-2.3l-3.8-2.2L136.2,217z M136.2,227.1l-3.8,2.3v-4.5v-4.6l3.8,2.2l3.9,2.4
			L136.2,227.1z M136.2,228.1l3.9-2.2v4.6v4.5l-3.9-2.3l-3.8-2.2L136.2,228.1z M145.1,188.3l-3.8,2.3V186v-4.6l3.8,2.2l3.9,2.4
			L145.1,188.3z M145.1,189.2l3.9-2.2v4.6v4.5l-3.9-2.3l-3.8-2.2L145.1,189.2z M154,193.8l-3.8,2.3v-4.5V187l3.8,2.2l3.9,2.4
			L154,193.8z"/>
		<path class="st1" d="M165.5,189.2l3.9-2.2v4.6v4.5l-3.9-2.3l-3.8-2.2L165.5,189.2z M165.5,199.4l-3.8,2.3v-4.5v-4.6l3.8,2.2
			l3.9,2.4L165.5,199.4z M165.5,200.3l3.9-2.2v4.6v4.5l-3.9-2.3l-3.8-2.2L165.5,200.3z M165.5,210.5l-3.8,2.3v-4.5v-4.6l3.8,2.2
			l3.9,2.4L165.5,210.5z M165.5,211.4l3.9-2.2v4.6v4.5l-3.9-2.3l-3.8-2.2L165.5,211.4z M165.5,221.6l-3.8,2.3v-4.5v-4.6l3.8,2.2
			l3.9,2.4L165.5,221.6z M165.5,222.5l3.9-2.2v4.6v4.5l-3.9-2.3l-3.8-2.2L165.5,222.5z M174.3,183.7l3.9-2.2v4.6v4.5l-3.9-2.3
			l-3.8-2.2L174.3,183.7z M174.3,193.8l-3.8,2.3v-4.5V187l3.8,2.2l3.9,2.4L174.3,193.8z M174.3,228.1l3.9-2.2v4.6v4.5l-3.9-2.3
			l-3.8-2.2L174.3,228.1z M183.2,188.3l-3.8,2.3V186v-4.6l3.8,2.2l3.9,2.4L183.2,188.3z M183.2,222.5l3.9-2.2v4.6v4.5l-3.9-2.3
			l-3.8-2.2L183.2,222.5z M183.2,232.7l-3.8,2.3v-4.5v-4.6l3.8,2.2l3.9,2.4L183.2,232.7z M192.1,193.8l-3.8,2.3v-4.5V187l3.8,2.2
			l3.9,2.4L192.1,193.8z M192.1,194.8l3.9-2.2v4.6v4.5l-3.9-2.3l-3.8-2.2L192.1,194.8z M192.1,204.9l-3.8,2.3v-4.5v-4.6l3.8,2.2
			l3.9,2.4L192.1,204.9z M192.1,205.9l3.9-2.2v4.6v4.5l-3.9-2.3l-3.8-2.2L192.1,205.9z M192.1,216l-3.8,2.3v-4.5v-4.6l3.8,2.2
			l3.9,2.4L192.1,216z M192.1,217l3.9-2.2v4.6v4.5l-3.9-2.3l-3.8-2.2L192.1,217z M192.1,227.1l-3.8,2.3v-4.5v-4.6l3.8,2.2l3.9,2.4
			L192.1,227.1z"/>
		<path class="st1" d="M203.6,189.2l3.9-2.2v4.6v4.5l-3.9-2.3l-3.8-2.2L203.6,189.2z M203.6,199.4l-3.8,2.3v-4.5v-4.6l3.8,2.2
			l3.9,2.4L203.6,199.4z M203.6,200.3l3.9-2.2v4.6v4.5l-3.9-2.3l-3.8-2.2L203.6,200.3z M203.6,210.5l-3.8,2.3v-4.5v-4.6l3.8,2.2
			l3.9,2.4L203.6,210.5z M203.6,211.4l3.9-2.2v4.6v4.5l-3.9-2.3l-3.8-2.2L203.6,211.4z M203.6,221.6l-3.8,2.3v-4.5v-4.6l3.8,2.2
			l3.9,2.4L203.6,221.6z M203.6,222.5l3.9-2.2v4.6v4.5l-3.9-2.3l-3.8-2.2L203.6,222.5z M203.6,232.7l-3.8,2.3v-4.5v-4.6l3.8,2.2
			l3.9,2.4L203.6,232.7z M212.4,183.7l3.9-2.2v4.6v4.5l-3.9-2.3l-3.8-2.2L212.4,183.7z M212.4,193.8l-3.8,2.3v-4.5V187l3.8,2.2
			l3.9,2.4L212.4,193.8z M212.4,205.9l3.9-2.2v4.6v4.5l-3.9-2.3l-3.8-2.2L212.4,205.9z M212.4,216l-3.8,2.3v-4.5v-4.6l3.8,2.2
			l3.9,2.4L212.4,216z M221.3,188.3l-3.8,2.3V186v-4.6l3.8,2.2l3.9,2.4L221.3,188.3z M221.3,200.3l3.9-2.2v4.6v4.5l-3.9-2.3
			l-3.8-2.2L221.3,200.3z M221.3,210.5l-3.8,2.3v-4.5v-4.6l3.8,2.2l3.9,2.4L221.3,210.5z M221.3,211.4l3.9-2.2v4.6v4.5l-3.9-2.3
			l-3.8-2.2L221.3,211.4z M230.2,193.8l-3.8,2.3v-4.5V187l3.8,2.2l3.9,2.4L230.2,193.8z M230.2,194.8l3.9-2.2v4.6v4.5l-3.9-2.3
			l-3.8-2.2L230.2,194.8z M230.2,204.9l-3.8,2.3v-4.5v-4.6l3.8,2.2l3.9,2.4L230.2,204.9z M230.2,216l-3.8,2.3v-4.5v-4.6l3.8,2.2
			l3.9,2.4L230.2,216z M230.2,217l3.9-2.2v4.6v4.5l-3.9-2.3l-3.8-2.2L230.2,217z M230.2,227.1l-3.8,2.3v-4.5v-4.6l3.8,2.2l3.9,2.4
			L230.2,227.1z"/>
		<path class="st1" d="M241.7,183.7l3.9-2.2v4.6v4.5l-3.9-2.3l-3.8-2.2L241.7,183.7z M241.7,193.8l-3.8,2.3v-4.5V187l3.8,2.2
			l3.9,2.4L241.7,193.8z M241.7,194.8l3.9-2.2v4.6v4.5l-3.9-2.3l-3.8-2.2L241.7,194.8z M241.7,204.9l-3.8,2.3v-4.5v-4.6l3.8,2.2
			l3.9,2.4L241.7,204.9z M241.7,205.9l3.9-2.2v4.6v4.5l-3.9-2.3l-3.8-2.2L241.7,205.9z M241.7,216l-3.8,2.3v-4.5v-4.6l3.8,2.2
			l3.9,2.4L241.7,216z M241.7,217l3.9-2.2v4.6v4.5l-3.9-2.3l-3.8-2.2L241.7,217z M241.7,227.1l-3.8,2.3v-4.5v-4.6l3.8,2.2l3.9,2.4
			L241.7,227.1z"/>
		<path class="st1" d="M253.1,189.2l3.9-2.2v4.6v4.5l-3.9-2.3l-3.8-2.2L253.1,189.2z M253.1,199.4l-3.8,2.3v-4.5v-4.6l3.8,2.2
			l3.9,2.4L253.1,199.4z M253.1,200.3l3.9-2.2v4.6v4.5l-3.9-2.3l-3.8-2.2L253.1,200.3z M253.1,211.4l3.9-2.2v4.6v4.5l-3.9-2.3
			l-3.8-2.2L253.1,211.4z M253.1,221.6l-3.8,2.3v-4.5v-4.6l3.8,2.2l3.9,2.4L253.1,221.6z M253.1,222.5l3.9-2.2v4.6v4.5l-3.9-2.3
			l-3.8-2.2L253.1,222.5z M262,183.7l3.9-2.2v4.6v4.5l-3.9-2.3l-3.8-2.2L262,183.7z M262,193.8l-3.8,2.3v-4.5V187l3.8,2.2l3.9,2.4
			L262,193.8z M262,204.9l-3.8,2.3v-4.5v-4.6l3.8,2.2l3.9,2.4L262,204.9z M262,216l-3.8,2.3v-4.5v-4.6l3.8,2.2l3.9,2.4L262,216z
			 M262,228.1l3.9-2.2v4.6v4.5l-3.9-2.3l-3.8-2.2L262,228.1z M270.9,188.3l-3.8,2.3V186v-4.6l3.8,2.2l3.9,2.4L270.9,188.3z
			 M270.9,189.2l3.9-2.2v4.6v4.5l-3.9-2.3l-3.8-2.2L270.9,189.2z M270.9,222.5l3.9-2.2v4.6v4.5l-3.9-2.3l-3.8-2.2L270.9,222.5z
			 M270.9,232.7l-3.8,2.3v-4.5v-4.6l3.8,2.2l3.9,2.4L270.9,232.7z M279.8,193.8l-3.8,2.3v-4.5V187l3.8,2.2l3.9,2.4L279.8,193.8z
			 M279.8,227.1l-3.8,2.3v-4.5v-4.6l3.8,2.2l3.9,2.4L279.8,227.1z"/>
		<path class="st1" d="M291.3,189.4l3.9-2.4v4.6v4.5l-3.9-2.3l-3.8-2.2L291.3,189.4z M295.2,197.1l-3.9,2.2l-3.8,2.3v-4.5v-4.6
			l3.8,2.4L295.2,197.1z M291.3,200.5l3.9-2.4v4.6v4.5l-3.9-2.3l-3.8-2.2L291.3,200.5z M295.2,219.4l-3.9,2.2l-3.8,2.3v-4.5v-4.6
			l3.8,2.4L295.2,219.4z M291.3,222.7l3.9-2.4v4.6v4.5l-3.9-2.3l-3.8-2.2L291.3,222.7z M296.3,186l3.8-2.2l3.9-2.4v4.6v4.5l-3.9-2.3
			L296.3,186z M300.1,193.8l-3.8,2.3v-4.5V187l3.8,2.4l3.9,2.2L300.1,193.8z M300.1,204.9l-3.8,2.3v-4.5v-4.6l3.8,2.4l3.9,2.2
			L300.1,204.9z M296.3,208.2l3.8-2.2l3.9-2.4v4.6v4.5l-3.9-2.3L296.3,208.2z M296.3,230.5l3.8-2.2l3.9-2.4v4.6v4.5l-3.9-2.3
			L296.3,230.5z M312.9,186l-3.9,2.2l-3.8,2.3V186v-4.6l3.8,2.4L312.9,186z M309,189.4l3.9-2.4v4.6v4.5l-3.9-2.3l-3.8-2.2L309,189.4
			z M312.9,208.2l-3.9,2.2l-3.8,2.3v-4.5v-4.6l3.8,2.4L312.9,208.2z M309,211.6l3.9-2.4v4.6v4.5L309,216l-3.8-2.2L309,211.6z
			 M309,222.7l3.9-2.4v4.6v4.5l-3.9-2.3l-3.8-2.2L309,222.7z M312.9,230.5l-3.9,2.2l-3.8,2.3v-4.5v-4.6l3.8,2.4L312.9,230.5z
			 M317.9,193.8l-3.8,2.3v-4.5V187l3.8,2.4l3.9,2.2L317.9,193.8z M317.9,216l-3.8,2.3v-4.5v-4.6l3.8,2.4l3.9,2.2L317.9,216z
			 M314,219.4l3.8-2.2l3.9-2.4v4.6v4.5l-3.9-2.3L314,219.4z M317.9,227.1l-3.8,2.3v-4.5v-4.6l3.8,2.4l3.9,2.2L317.9,227.1z"/>
	</g>
</g>
<text transform="matrix(1 0 0 1 -405.2017 107.3899)" style="font-family:'Untitled'; font-size:88px;">Pyramid</text>
<text transform="matrix(1 0 0 1 -405.2014 187.5828)" style="font-family:'Untitled'; font-size:88px;">stories</text>
</svg>
