<svg id="Слой_1" data-name="Слой 1" xmlns="http://www.w3.org/2000/svg" viewBox="0 0 90.23 83.29"><defs><style>.cls-1{fill:#868686;}.cls-2{fill:#010101;}.cls-3{fill:#fff;}</style></defs><rect class="cls-1" x="14.33" y="10.64" width="62.01" height="62.01" rx="9.92" transform="translate(-7.61 73.05) rotate(-73.25)"/><rect class="cls-2" x="13.87" y="11.17" width="62.01" height="62.01" rx="9.92" transform="translate(-8.28 11.08) rotate(-12.89)"/><path class="cls-3" d="M32.9,7.43a1.77,1.77,0,0,0,.4,0,1.12,1.12,0,0,0,.33-.24s0-.2-.05-.2c-.33,0-.52-.28-.77-.43,0,0-.06,0-.11,0L32.64,7l.12.19Z"/><path class="cls-3" d="M79.54,28.36c-.11-.27.21-.13.22-.27a2.4,2.4,0,0,1-.29-.19c-.23-.2-.22-.2-.52,0,.1.19.18.34.27.49S79.58,28.44,79.54,28.36Z"/><path class="cls-3" d="M17.42,42l.59,0c0-.2.3-.34.08-.62C17.83,41.48,17.4,41.43,17.42,42Z"/><path class="cls-3" d="M30.15,16.41c-.08-.12-.15-.25-.23-.38a.51.51,0,0,0-.39.47l.33.08A.22.22,0,0,0,30.15,16.41Z"/><path class="cls-3" d="M51.09,72.27a.34.34,0,0,0,.37-.33h-.78A.35.35,0,0,0,51.09,72.27Z"/><path class="cls-3" d="M18.52,51.61l.37-.36-.33-.2-.29.33Z"/><path class="cls-3" d="M15.63,41.13a.65.65,0,0,0,.24,0s0-.05.08-.12l-.39-.29C15.33,41.08,15.33,41.08,15.63,41.13Z"/><path class="cls-3" d="M38.58,23a1.92,1.92,0,0,0,0,.22c.27,0,.32-.16.35-.39C38.61,22.72,38.59,22.73,38.58,23Z"/><path class="cls-3" d="M63.69,11.46a.52.52,0,0,0-.49-.05.24.24,0,0,0-.15.16s0,.13.07.15a.28.28,0,0,0,.22,0A3.69,3.69,0,0,0,63.69,11.46Z"/><path class="cls-3" d="M24.18,63.76s-.07,0-.11,0,0,.25.06.36.17.08.34-.07Z"/><path class="cls-3" d="M17.58,48.13l.35-.54c-.16,0-.25,0-.29.06a.73.73,0,0,0-.2.27S17.51,48,17.58,48.13Z"/><path class="cls-3" d="M64.78,9.94a2.56,2.56,0,0,0,0,.38.17.17,0,0,0,.13.1.17.17,0,0,0,.11-.1,1.1,1.1,0,0,0,.09-.24Z"/><path class="cls-3" d="M63.75,11.79a.19.19,0,0,0-.16,0,.18.18,0,0,0-.06.26l.13.2.15-.17A.19.19,0,0,0,63.75,11.79Z"/><path class="cls-3" d="M15.82,25.79a.25.25,0,0,0-.21-.06.18.18,0,0,0-.17.2,1.83,1.83,0,0,0,.1.25l.2-.15C15.82,26,15.91,25.89,15.82,25.79Z"/><path class="cls-3" d="M12.93,55.22v.15a1.43,1.43,0,0,0,.36,0c.1,0,.21.19.31,0a.49.49,0,0,0-.21,0l-.41-.1Z"/><path class="cls-3" d="M58.38,29.78c-.09.06-.07.12,0,.18l.43-.14C58.57,29.64,58.57,29.64,58.38,29.78Z"/><path class="cls-3" d="M57,52.12c.18.12.35.26.61.11A.63.63,0,0,0,57,52.12Z"/><path class="cls-3" d="M49.72,24.45c0-.07-.14-.12-.23-.2-.05.09-.1.13-.1.18s.08.18.19.18S49.75,24.53,49.72,24.45Z"/><path class="cls-3" d="M53.18,21.94c-.12.07-.15.19,0,.32l.38-.14C53.4,22,53.31,21.86,53.18,21.94Z"/><path class="cls-3" d="M10,51.19c.11,0,.22-.11.17-.18a1.17,1.17,0,0,0-.19-.14c-.07.06-.14.1-.17.16S9.84,51.2,10,51.19Z"/><path class="cls-3" d="M47.71,12,48,11.8c-.07-.06-.11-.12-.15-.12a.17.17,0,0,0-.19.19S47.71,12,47.71,12Z"/><path class="cls-3" d="M21,59.63a.76.76,0,0,0-.51-.16A.46.46,0,0,0,21,59.63Z"/><path class="cls-3" d="M61.8,17a.58.58,0,0,0-.19.1s.06.12.09.12a.65.65,0,0,0,.23-.06C61.87,17.09,61.83,17,61.8,17Z"/><path class="cls-3" d="M60.3,12.82c.12,0,.08-.1.07-.17a.79.79,0,0,0,0-.13c-.06,0-.15,0-.16,0a.28.28,0,0,0,0,.2A.14.14,0,0,0,60.3,12.82Z"/><path class="cls-3" d="M28,8.77c-.06,0-.11,0-.16.05s0,.06,0,.07A.42.42,0,0,0,28,9s.11-.06.12-.1S28.08,8.77,28,8.77Z"/><path class="cls-3" d="M46,28c.15.12.29.08.51-.06C46.13,27.92,46.13,27.92,46,28Z"/><path class="cls-3" d="M15.82,45.88a.71.71,0,0,0-.12-.18s-.1.09-.1.11a1.09,1.09,0,0,0,.13.17S15.83,45.89,15.82,45.88Z"/><path class="cls-3" d="M33.21,59.07s-.1,0-.11,0a.5.5,0,0,0,0,.21s.06,0,.1,0,.06-.07,0-.09A.8.8,0,0,0,33.21,59.07Z"/><path class="cls-3" d="M15.75,40.56l.12-.14-.08-.11-.15.14Z"/><path class="cls-3" d="M45.57,32.5a.16.16,0,0,0-.23.08.12.12,0,0,0,0,.09l.24,0C45.59,32.56,45.59,32.51,45.57,32.5Z"/><path class="cls-3" d="M64,11.11s.08,0,.16-.08L64,10.8s-.1,0-.11.09A.17.17,0,0,0,64,11.11Z"/><path class="cls-3" d="M58.51,14.54s0-.07,0-.1,0-.16-.16-.13,0,.07,0,.09S58.4,14.57,58.51,14.54Z"/><path class="cls-3" d="M18.15,39.14s.13,0,.14,0a.19.19,0,0,0-.13-.23H18.1l0,0A.17.17,0,0,0,18.15,39.14Z"/><path class="cls-3" d="M26.41,28.7c.06-.07.12-.12.12-.15a.21.21,0,0,0-.12-.11s-.1,0-.15.06Z"/><path class="cls-3" d="M50.22,31.27l-.1.08s.07.09.11.1.07-.05.11-.08Z"/><path class="cls-3" d="M45.93,34.05,46,34s0-.07-.06-.07-.17-.13-.26,0,0,0,0,.05S45.83,34.07,45.93,34.05Z"/><path class="cls-3" d="M44.8,41.21s.05.1.09.11.09,0,.19-.07a1.28,1.28,0,0,0-.21-.12S44.8,41.19,44.8,41.21Z"/><path class="cls-3" d="M44.25,52.75c-.26-.07-.26-.07-.44,0A.39.39,0,0,0,44.25,52.75Z"/><path class="cls-3" d="M9,54.62a.86.86,0,0,0-.25-.06s0,.09-.08.14.11.06.16.06S9,54.7,9,54.62Z"/><path class="cls-3" d="M54.64,54.86c-.06,0-.1-.09-.14-.09a.44.44,0,0,0-.15,0,.62.62,0,0,0,.14.14S54.57,54.91,54.64,54.86Z"/><path class="cls-3" d="M29.73,67.82s0-.06-.05-.11a.75.75,0,0,0-.13.11s0,.06.06.09A.54.54,0,0,0,29.73,67.82Z"/><path class="cls-3" d="M50.24,72.25a.13.13,0,0,0,0-.1.32.32,0,0,0-.12-.11.45.45,0,0,0-.18,0c0,.06.05.13.1.15A.22.22,0,0,0,50.24,72.25Z"/><path class="cls-3" d="M58,72.68l.35.23C58.34,72.7,58.34,72.7,58,72.68Z"/><path class="cls-3" d="M46.42,36s.07,0,.1,0a.35.35,0,0,0,.13-.08l-.15-.1Z"/><path class="cls-3" d="M53.22,11.92s.07,0,.1,0l-.06-.13-.1.05S53.2,11.91,53.22,11.92Z"/><path class="cls-3" d="M26.64,11.72l-.13,0,0,.09.11,0Z"/><path class="cls-3" d="M11,37.65l.13-.06L11,37.48l-.12.08S10.94,37.66,11,37.65Z"/><path class="cls-3" d="M51.11,33s0-.07,0-.1l-.1,0s0,.08,0,.1S51.08,33,51.11,33Z"/><path class="cls-3" d="M70.47,30.92h.11a.16.16,0,0,0-.07-.07s0,0-.07,0S70.46,30.92,70.47,30.92Z"/><path class="cls-3" d="M49.07,13.18a.5.5,0,0,0,.16-.1l-.17-.1s-.05.09-.07.14A.17.17,0,0,0,49.07,13.18Z"/><path class="cls-3" d="M49.59,12.22s0,.08.07.12l.16-.11c0-.05-.09-.11-.12-.11A.18.18,0,0,0,49.59,12.22Z"/><path class="cls-3" d="M13.84,21.81s.05,0,.05,0a1.66,1.66,0,0,0,.06-.21H13.8v.21Z"/><path class="cls-3" d="M18.38,20.58c-.07,0-.12-.09-.15-.08s-.07.07-.1.11.08.08.12.08S18.32,20.63,18.38,20.58Z"/><path class="cls-3" d="M40.78,63.13c0-.06.08-.11.07-.14a.15.15,0,0,0-.11-.08.17.17,0,0,0-.09.11S40.72,63.08,40.78,63.13Z"/><path class="cls-3" d="M28.45,69.78s0,.08-.06.13.08,0,.1,0a.38.38,0,0,0,.14-.11C28.55,69.8,28.49,69.76,28.45,69.78Z"/><path class="cls-3" d="M15.35,59c-.13.07-.12.16,0,.36Z"/><path class="cls-3" d="M56.36,27.52s0-.07,0-.07l-.23,0,.22.07Z"/><path class="cls-3" d="M15.91,45.2s0,0,0,0L15.88,45l-.09.07Z"/><path class="cls-3" d="M43.13,48.45a.14.14,0,0,1,0,0H43a.2.2,0,0,0,0,.05Z"/><path class="cls-3" d="M64.92,19.86a.12.12,0,0,0,0,.08s.06,0,.09,0l0-.1S65,19.85,64.92,19.86Z"/><path class="cls-3" d="M23.67,42.85l.16,0v-.06l-.19,0Z"/><path class="cls-3" d="M15.17,42.23l0,.05h0s0,0,0-.05Z"/><path class="cls-3" d="M32.93,51.17v-.05h-.21v.05Z"/><path class="cls-3" d="M11.17,56.14l-.06-.06-.07.07s0,0,0,0A.18.18,0,0,0,11.17,56.14Z"/><path class="cls-3" d="M18.6,60.08a.56.56,0,0,0,.12,0s0,0,0-.08a.26.26,0,0,0-.1,0S18.62,60.05,18.6,60.08Z"/><polygon class="cls-3" points="18.08 62.71 18.11 62.73 18.11 62.69 18.08 62.71"/><path class="cls-3" d="M23.54,63l0,.09.1,0s0-.08,0-.08S23.57,63,23.54,63Z"/><path class="cls-3" d="M16.93,41.28s.08,0,.12.08,0-.1,0-.11L17,41.18S16.91,41.27,16.93,41.28Z"/><path class="cls-3" d="M13.38,54.36a.31.31,0,0,0,0,.1l.09,0,0-.1Z"/><path class="cls-3" d="M32.93,67.16a.18.18,0,0,0-.1,0s0,.06,0,.1l.15-.07S33,67.16,32.93,67.16Z"/><path class="cls-3" d="M21.45,67.73l-.08.07s.06.07.08.07.06,0,.09-.07Z"/><path class="cls-3" d="M43.47,67.88s0,.05,0,.08l.07-.07-.07,0Z"/><path class="cls-3" d="M49.44,68.68l0-.07-.09,0s0,0,0,0Z"/><path class="cls-3" d="M38.9,70.72s.06.06.09.09l.07-.14L39,70.59A.66.66,0,0,0,38.9,70.72Z"/><path class="cls-3" d="M53.2,26.52s0-.07-.07-.08-.06,0-.09,0a.45.45,0,0,0,.06.12S53.17,26.54,53.2,26.52Z"/><path class="cls-3" d="M71.6,16.45s.08.05.12.08a.08.08,0,0,0,0,0,.34.34,0,0,0-.05-.14s-.07,0-.1,0h0S71.58,16.43,71.6,16.45Z"/><path class="cls-3" d="M59.09,72.68H59v0h.1Z"/><path class="cls-3" d="M19.37,41.12l.08-.08a.42.42,0,0,0-.14-.06s0,0,0,0Z"/><path class="cls-3" d="M51.54,40h-.11l0,.06.09,0Z"/><path class="cls-3" d="M47.19,20.9l.08.06,0,0-.08-.06Z"/><path class="cls-3" d="M47.11,32.38l-.1,0v.07l.11,0S47.12,32.38,47.11,32.38Z"/><path class="cls-3" d="M46.56,22.3s0,0,0,0,0,0,0-.05l-.07,0Z"/><path class="cls-3" d="M47.24,22.37l0,0,0,0s0,0,0,0A0,0,0,0,0,47.24,22.37Z"/><path class="cls-3" d="M24.18,45.28h.05v0h0A0,0,0,0,1,24.18,45.28Z"/><polygon class="cls-3" points="22.36 49.7 22.36 49.66 22.32 49.68 22.36 49.7"/><polygon class="cls-3" points="20.98 50.21 20.97 50.17 20.95 50.21 20.98 50.21"/><path class="cls-3" d="M23.22,18.29l0,0s0,0,0,0,0,0,0,0Z"/><path class="cls-3" d="M16.63,43.61a.43.43,0,0,0,0,0h.05v-.05Z"/><path class="cls-3" d="M32,52.69l-.09,0,0,0s.05,0,.08,0S32,52.69,32,52.69Z"/><polygon class="cls-3" points="18.41 58.18 18.38 58.18 18.39 58.22 18.41 58.18"/><path class="cls-3" d="M16.9,45.33l0,0,.05.06,0-.05Z"/><path class="cls-3" d="M18.83,61l.05,0a.06.06,0,0,0,0,0h-.05Z"/><path class="cls-3" d="M24.33,61l.09-.05s0,0,0,0l-.11,0Z"/><polygon class="cls-3" points="27.68 61.29 27.71 61.3 27.7 61.26 27.68 61.29"/><polygon class="cls-3" points="38.92 23.43 38.88 23.45 38.92 23.46 38.92 23.43"/><path class="cls-3" d="M71.47,16.35h.14Z"/><path class="cls-3" d="M47.29,26.57h0v0Z"/><path class="cls-3" d="M29.22,15.33s0,0,0,0l0,0,.05,0S29.24,15.33,29.22,15.33Z"/><path class="cls-3" d="M27.44,26.64s0,0,0,0l-.09,0,0,0Z"/><path class="cls-3" d="M52.09,27.09l-.1.05,0,0,.09,0Z"/><polygon class="cls-3" points="25.99 63.42 26.04 63.41 26 63.38 25.99 63.42"/><path class="cls-3" d="M34.88,63.4s0,.05.07.05,0,0,0-.06l-.09,0S34.88,63.4,34.88,63.4Z"/><path class="cls-3" d="M29.84,13.26l0,.05.07-.05-.05,0Z"/><path class="cls-3" d="M13.52,51.38h0s0,0,0,0h.05S13.51,51.39,13.52,51.38Z"/><path class="cls-3" d="M42.66,12.56a.05.05,0,0,0,0,0s0,0,0,.05l0,0Z"/><polygon class="cls-3" points="50.35 27.92 50.39 27.93 50.37 27.88 50.35 27.92"/><path class="cls-3" d="M46.67,12.21a.43.43,0,0,1,0,0l0,0v0S46.67,12.2,46.67,12.21Z"/><path class="cls-3" d="M18.1,64.29l0,0s0,0,0,0h-.06Z"/><path class="cls-3" d="M29.22,66.36l.05,0-.05,0,0,0S29.2,66.36,29.22,66.36Z"/><path class="cls-3" d="M64.58,9.77a1,1,0,0,1,0,.1s0,0,0,0a.18.18,0,0,0,0-.09"/><path class="cls-3" d="M18.07,47.61s-.06,0-.05.07,0,0,.06.07l0-.1Z"/><path class="cls-3" d="M53.13,24.18l-.05,0v0h0S53.12,24.19,53.13,24.18Z"/><path class="cls-3" d="M38.84,67.91l-.1,0s0,0-.05.06a.18.18,0,0,0,.09,0S38.82,67.94,38.84,67.91Z"/><polygon class="cls-3" points="39.82 29.09 39.78 29.07 39.78 29.1 39.82 29.09"/><path class="cls-3" d="M13.88,56h0s0,0,0,0l0,0Z"/><path class="cls-3" d="M13.94,57.79l0,0,0,0s0,0,0,0Z"/><path class="cls-3" d="M56.81,21.24v0l.08,0,0,0A.09.09,0,0,0,56.81,21.24Z"/><polygon class="cls-3" points="24.32 70.37 24.31 70.4 24.36 70.39 24.32 70.37"/><path class="cls-3" d="M22.09,20.27s0-.05,0-.05l-.1,0,0,0Z"/><path class="cls-3" d="M48.44,20.87s0,0,0,0l.09,0s0-.05,0,0A.18.18,0,0,0,48.44,20.87Z"/><path class="cls-3" d="M18.61,31.81h.05a.07.07,0,0,0,0-.05l-.05,0Z"/><path class="cls-3" d="M52.08,73l-.08,0a.23.23,0,0,0,0,0Z"/><polygon class="cls-3" points="22.6 34.22 22.6 34.25 22.64 34.24 22.6 34.22"/><path class="cls-3" d="M40,35.18l0,0s0,0,0,0,0,0,0,0S40,35.2,40,35.18Z"/><polygon class="cls-3" points="49.59 35.81 49.55 35.82 49.58 35.84 49.59 35.81"/><path class="cls-3" d="M21.19,40.12v0l.05,0Z"/><path class="cls-3" d="M26.93,40.62l0,0-.08,0,.09,0Z"/><path class="cls-3" d="M62.16,73.05a1.11,1.11,0,0,0,.47.4c.17,0,.38-.07.62-.12l-.65-.84a1.59,1.59,0,0,0-.41.26A.3.3,0,0,0,62.16,73.05Z"/><path class="cls-3" d="M65.19,43.68v0h0v0h0Z"/><path class="cls-3" d="M68.48,23.62l.82-.13c-.15-.24-.29-.47-.45-.71C68.44,23,68.28,23.19,68.48,23.62Z"/><path class="cls-3" d="M72.52,61.18c-.35-.3-.6,0-.91.24l.83.38C72.64,61.3,72.65,61.28,72.52,61.18Z"/><path class="cls-3" d="M61,60.72c.7-.36.7-.36.48-.84C61.05,60,61,60.28,61,60.72Z"/><path class="cls-3" d="M62.47,75c-.14-.22-.32-.26-.48-.13s-.13.23-.2.35c.13,0,.28.11.38.07S62.38,75.1,62.47,75Z"/><path class="cls-3" d="M75.74,58l.89-.2C75.88,57.6,75.88,57.6,75.74,58Z"/><path class="cls-3" d="M11,48.09c-.34-.39-.34-.39-.87-.35C10.58,48.36,10.58,48.36,11,48.09Z"/><path class="cls-3" d="M68.29,64.43c-.08,0-.24.1-.31.19s0,.19,0,.49c.2-.21.3-.27.34-.35S68.51,64.51,68.29,64.43Z"/><path class="cls-3" d="M80.23,29.6c-.42.14-.42.14-.3.72C80.51,30.25,80.05,29.83,80.23,29.6Z"/><path class="cls-3" d="M56.71,75.16l0,.11a2.93,2.93,0,0,0,.51-.13c.06,0,.07-.16.11-.24s-.15-.09-.19-.07S56.87,75.05,56.71,75.16Z"/><path class="cls-3" d="M66.74,58.26a1.46,1.46,0,0,0-.39.12v.2a2.63,2.63,0,0,0,.39.06c.15,0,.31,0,.25-.23A.29.29,0,0,0,66.74,58.26Z"/><path class="cls-3" d="M65.47,60.62s.1,0,.11-.07a.55.55,0,0,0,.08-.29c0-.16-.39-.24-.46-.12a.37.37,0,0,0,0,.29A1.18,1.18,0,0,0,65.47,60.62Z"/><path class="cls-3" d="M66,43.59l-.73.11C65.49,44.12,65.5,44.11,66,43.59Z"/><path class="cls-3" d="M79.21,36.1c0,.06.07.11.11.16A1.24,1.24,0,0,0,79.5,36s-.08-.1-.23-.29A2.31,2.31,0,0,0,79.21,36.1Z"/><path class="cls-3" d="M47,45.7c-.06,0-.16-.05-.18,0a1.16,1.16,0,0,0-.14.24l.2.05Z"/><path class="cls-3" d="M70.34,48.79c.4.19.4.19.65-.15Z"/><path class="cls-3" d="M78.92,38.27s-.15-.05-.23-.08a1.37,1.37,0,0,0,0,.28s.12,0,.21.06A.68.68,0,0,0,78.92,38.27Z"/><path class="cls-3" d="M13.93,57.57c.24.18.41.09.58-.13A.39.39,0,0,0,13.93,57.57Z"/><path class="cls-3" d="M66,46.26a2.6,2.6,0,0,0-.48.19s0,.12,0,.19.2,0,.25,0S65.86,46.48,66,46.26Z"/><path class="cls-3" d="M62.9,47.66c0,.07.09.18.14.18a.85.85,0,0,0,.3-.14,1.83,1.83,0,0,0-.3-.16S62.89,47.64,62.9,47.66Z"/><path class="cls-3" d="M15.5,61.81l.34.24c.08-.16.17-.25.17-.34s-.21-.17-.33-.12S15.56,61.74,15.5,61.81Z"/><path class="cls-3" d="M70.2,47.41l-.37.13c0,.06.09.17.1.17l.33-.16Z"/><path class="cls-3" d="M11.66,38.89c0,.14.21.35.35.31s.05-.11.11-.22a2.68,2.68,0,0,0-.33-.18S11.67,38.85,11.66,38.89Z"/><path class="cls-3" d="M70.93,56a1,1,0,0,0,.21-.21l-.31-.11-.1.27C70.8,56,70.89,56,70.93,56Z"/><path class="cls-3" d="M72.54,56l.52-.12C72.87,55.76,72.68,55.69,72.54,56Z"/><path class="cls-3" d="M77.08,42.37c.07,0,.15,0,.2,0s0-.11.07-.17-.14,0-.18,0S77.11,42.31,77.08,42.37Z"/><path class="cls-3" d="M59.83,47.33s-.07,0-.08,0l-.1.1h.1Z"/><path class="cls-3" d="M72.35,45.71c-.11,0-.18,0-.21,0a.31.31,0,0,0-.09.18s.13.09.14.07A1.24,1.24,0,0,0,72.35,45.71Z"/><path class="cls-3" d="M54.4,51.33l.08,0v-.11a.45.45,0,0,0-.12.06S54.39,51.3,54.4,51.33Z"/><path class="cls-3" d="M65.56,55.17a1.67,1.67,0,0,0-.33,0s0,.06,0,.09a2,2,0,0,0,.26,0S65.51,55.24,65.56,55.17Z"/><path class="cls-3" d="M66.83,59.64l-.32.13,0,.13.34-.13S66.84,59.64,66.83,59.64Z"/><path class="cls-3" d="M54.88,63.36s-.08-.12-.13-.14-.1.05-.15.08l.16.19Z"/><path class="cls-3" d="M72,62.71l-.19,0-.07.08s.11.07.15.07S72,62.76,72,62.71Z"/><path class="cls-3" d="M58.69,45.61c0-.07-.11-.17-.12-.16a.91.91,0,0,0-.23.15s.07.11.1.17Z"/><path class="cls-3" d="M56.25,66.36v.08l.07-.06Z"/><path class="cls-3" d="M64.89,63.82l.1.09s0,0,.07-.07,0-.05-.07-.05Z"/><path class="cls-3" d="M63.06,61.37s.08-.07.11-.12l-.18,0s0,.05-.06.07S63,61.38,63.06,61.37Z"/><path class="cls-3" d="M50.91,59.36a.88.88,0,0,0,0,.16l.14-.06-.1-.15S50.91,59.34,50.91,59.36Z"/><path class="cls-3" d="M54.82,58.21s-.06.06,0,.07a1.1,1.1,0,0,0,.09.14l.1-.12Z"/><path class="cls-3" d="M73.66,50.09l-.09,0s0,0,0,0,0,0,.08,0Z"/><polygon class="cls-3" points="68.86 49.89 68.93 49.84 68.85 49.83 68.86 49.89"/><path class="cls-3" d="M66.88,47.08H67L67,47Z"/><polygon class="cls-3" points="49.7 50.79 49.6 50.78 49.62 50.85 49.7 50.79"/><path class="cls-3" d="M63.51,46.69s0,.06,0,.06h.09l0-.11Z"/><path class="cls-3" d="M62.82,44.87l0-.1-.08,0s0,0,0,.06A.14.14,0,0,0,62.82,44.87Z"/><polygon class="cls-3" points="63.58 42.6 63.66 42.56 63.57 42.53 63.58 42.6"/><path class="cls-3" d="M67.19,40.12a.58.58,0,0,0,.19,0s0-.06.06-.09l-.2,0"/><path class="cls-3" d="M38.32,62.77A1.88,1.88,0,0,0,39.46,61V56a5.66,5.66,0,0,1,0-.57H36.07a3.41,3.41,0,0,1-3.21-1.7c-.66-1.23-.94-3.3-2.63-4.43-.29-.19-.1-.47.47-.47a5.16,5.16,0,0,1,2.54,1.88,4,4,0,0,0,3.21,1.89c2.34,0,3.6-.12,4.35-.52a4.5,4.5,0,0,1,3.37-2.31v0c-5.34-.17-8.75-2-10.34-4.69a56.2,56.2,0,0,0-8.18.67c0-.31-.1-.62-.14-.94a60.41,60.41,0,0,1,7.87-.67,6.86,6.86,0,0,1-.28-.8,62.23,62.23,0,0,0-7.72.09c0-.31,0-.62,0-.94a61.25,61.25,0,0,1,7.55-.1,9.92,9.92,0,0,1-.12-1.46,8.15,8.15,0,0,1,1.6-4.71c-.47-1.6-1.13-5,.19-6.22a7.83,7.83,0,0,1,5.18,2,14.06,14.06,0,0,1,5.38-1,13.1,13.1,0,0,1,5.27,1,7.83,7.83,0,0,1,5.19-2c1.41,1.32.66,4.71.19,6.22a7.23,7.23,0,0,1,1.5,4.71,9.56,9.56,0,0,1-.1,1.33,62.1,62.1,0,0,1,7.73.1c0,.31,0,.62-.05.94A60.7,60.7,0,0,0,57,43.15a9.21,9.21,0,0,1-.31.93,57.08,57.08,0,0,1,8.06.65c0,.31-.09.62-.15.93A57.35,57.35,0,0,0,56.22,45c-1.57,2.72-4.92,4.49-10.16,4.69v0c2.45,0,4.71,3.68,4.71,6.22V61a1.88,1.88,0,0,0,1.14,1.73,21.68,21.68,0,1,0-13.59,0Z"/></svg>